<?xml version="1.0" encoding="utf-8"?>
<!-- Generator: Adobe Illustrator 15.0.0, SVG Export Plug-In . SVG Version: 6.00 Build 0)  -->
<!DOCTYPE svg PUBLIC "-//W3C//DTD SVG 1.1//EN" "http://www.w3.org/Graphics/SVG/1.1/DTD/svg11.dtd">
<svg version="1.1" id="Layer_1" xmlns="http://www.w3.org/2000/svg" xmlns:xlink="http://www.w3.org/1999/xlink" x="0px" y="0px"
	 width="350.713px" height="141.732px" viewBox="0 0 350.713 141.732" enable-background="new 0 0 350.713 141.732"
	 xml:space="preserve">
<g>
	<g id="U5kkNd.tif">
		<g>
			<path fill-rule="evenodd" clip-rule="evenodd" d="M218.005,81.754c1.199,2.273,2.559,4.385,4.031,6.383
				c-2.357-0.385-4.135-1.352-6.551-1.68C216.046,84.61,216.616,82.772,218.005,81.754z M219.685,86.625
				c-0.27-1.41-1.523-1.834-1.68-3.359c-0.531,0.676-1.379,1.826-1.176,2.688C218.094,85.866,218.591,86.543,219.685,86.625z"/>
			<path fill-rule="evenodd" clip-rule="evenodd" d="M220.19,14.897c0.936,0.246,1.33-0.643,2.014-1.008
				c1.815-0.967,3.791-1.503,5.712-2.352c1.075-0.475,2.173-0.977,3.36-1.344c-0.728-2.689-1.801-5.032-2.52-7.728
				c-1.768-0.559-3.812,0.691-5.376,0.336c-0.221,0.676-0.387,1.406-1.009,1.68c-0.096,2.562-1.423,5.385-2.182,8.231
				C219.983,13.484,219.7,13.983,220.19,14.897z"/>
			<path fill-rule="evenodd" clip-rule="evenodd" d="M220.692,15.569c0,0.168,0,0.335,0,0.503c1.264,1.229,1.797,3.009,2.856,4.368
				c0.32,0.412,0.833,0.614,1.175,1.008c0.818,0.94,1.469,2.036,2.353,3.024c0.819,0.917,1.493,2.215,2.687,2.688
				c0.914-5.46,1.891-10.348,2.185-15.791C227.69,12.263,224.416,14.141,220.692,15.569z"/>
			<path fill-rule="evenodd" clip-rule="evenodd" d="M231.444,28c0.658-0.35,0.775-1.24,1.007-2.016
				c1.659-2.317,3.26-4.692,5.545-6.383c-0.708-1.212-1.773-2.096-2.688-3.191c-0.822-0.985-1.346-2.498-2.688-3.024
				C232.523,17.322,231.485,23.514,231.444,28z"/>
			<path fill-rule="evenodd" clip-rule="evenodd" d="M233.46,52.021c-0.193-0.792-0.59-1.72-0.672-2.52
				c-0.232-2.242,0.33-5.068,0.84-7.224c1.012-4.286,3.26-8.583,5.544-12.263c1.93-3.108,4.903-5.783,7.559-7.895
				c0.452-0.36,0.79-0.884,1.177-1.176c2.173-1.645,4.866-2.167,7.559-2.688c-1.077-0.267-2.058-0.704-3.023-1.176
				c-0.904-0.441-2.039-0.822-2.855-1.344c-2.275-1.453-3.947-4.186-5.376-6.72c-1.469-2.603-3.187-5.574-3.191-8.567
				c2.669,0.522,3.771,2.612,6.215,3.359c-0.525,2.289-0.641,4.516,1.344,5.375c0.219-2.002,1.192-5.348,3.36-3.359
				c-0.67,1.66-3.298,5.71,0,6.383c-0.197-1.409-0.086-4.569,1.512-5.208c1.609,0.969-0.938,3.355,0.168,5.375
				c0.756-0.364,1.153-1.085,1.68-1.68c-0.615-0.124-0.934,0.414-1.344,0c-0.294-0.892,0.052-2.179,1.176-2.52
				c0.524,0.493,1.048,1.072,0.672,2.016c0.858-0.537,0.936,0.447,1.513,0.671c-0.279,1.125-2.006,1.689-2.185,2.352
				c1.357,0.181,1.293-1.059,2.688-0.84c0.271,2.882-0.048,6.355-1.176,8.735c-4.327,5.267-4.238,15.752-2.016,22.846
				c0.487,1.555,1.589,2.87,1.344,4.367c-2.598-2.52-5.699-4.17-9.575-5.208c-0.256-0.068-0.696-0.149-1.008-0.168
				c-4.207-0.256-7.151,1.88-8.567,4.368c-0.61,1.073-1.422,3.107-1.68,4.2c-0.214,0.904,0.325,2.036-0.84,2.688
				C233.503,53.778,233.646,52.788,233.46,52.021z M237.659,41.774c1.406-0.386,2.501-1.082,4.032-1.344
				c-0.873-0.918-1.95-1.634-3.191-2.184C237.957,39.452,237.71,40.392,237.659,41.774z M247.739,34.215
				c-0.974-1.229-4.177-1.033-3.528,1.008c0.736,0.177,0.552-0.568,1.176-0.504c2.828,1.659-1.24,3.88-2.855,1.848
				c-0.776-0.977-0.94-2.989,0-4.2c0.488-0.628,1.515-0.693,1.848-1.512c-0.42-0.139-0.659-0.46-1.177-0.504
				c-0.789,1.239-2.113,2.809-2.855,4.032c-0.665,1.098,2.143,2.818,3.025,3.527c1.979,0.324,3.458-0.033,4.535-1.008
				C248.134,35.932,247.966,35.133,247.739,34.215z M250.763,25.984c-0.75,0.05-1.064-0.854-1.849-0.84
				c-0.95,0.017-2.191,1.06-1.68,2.184c0.956,0.571,0.863-0.777,1.849-0.672c0.457-0.123,0.338,0.333,0.671,0.336
				c0.635,2.846-3.829,2.312-4.534,1.008c-0.15,0.074-0.302,0.147-0.337,0.336c-0.28,0.333,0.016,0.213,0,0.672
				c1.893,1,4.863,0.862,6.048-0.504C251.179,27.53,250.908,26.949,250.763,25.984z M247.571,40.095
				c0.794,0.605,2.285,0.514,3.359,0.84c0.062-1.126-0.361-1.768-0.336-2.855C249.165,38.33,248.9,39.744,247.571,40.095z
				 M249.083,31.359c0.075,0.708,0.794,0.773,1.007,1.344c0.462-0.21,0.436-0.908,0.505-1.512
				C249.945,31.102,249.774,31.491,249.083,31.359z M250.595,22.625c-0.017,0.745,0.933,0.522,1.176,1.008
				c0.521-0.431,0.639-1.264,1.008-1.848C252.142,21.489,251.123,22.253,250.595,22.625z"/>
			<path fill-rule="evenodd" clip-rule="evenodd" d="M259.833,102.417c-2.408-2.213-4.743-4.34-6.887-6.551
				c-4.976-5.131-9.528-10.902-12.767-17.471c-0.409-0.831-0.759-1.801-1.177-2.688c-2.436-5.181-5.496-12.2-4.535-19.99
				c1.45,0.436,1.006,1.983,1.345,3.024c0.528,1.629,1.755,3.378,2.855,5.039c1.142,1.724,2.115,3.608,3.191,4.704
				c0.896,0.913,2.684,2.454,4.199,2.352c5.456-0.367,1.89-14.722-3.359-11.423c-0.345,0.944,0.135,2.71-0.504,3.36
				c-1.038-0.731-2.004-2.209-2.856-3.695c-0.779-1.362-1.766-2.97-2.184-4.368c-1.007-3.37,1.283-7.719,3.864-9.239
				c0.858-0.505,2.812-1.193,4.031-1.176c2.685,0.037,4.271,1.709,6.72,2.352c1.474,1.531,3.038,2.795,4.367,4.368
				c1.442,1.704,2.633,3.614,3.695,5.543c1.439,2.612,2.879,5.455,4.032,8.399c1.176,3.002,1.626,6.661,2.184,10.248
				c0.56,3.609,0.847,7.424,1.007,11.086c0.3,6.809-0.283,14.832-1.68,20.158C263.298,105.801,261.556,104,259.833,102.417z
				 M241.691,57.901c4.691-2.354,9.89,2.583,10.079,8.063c5.07,0.081,7.603,2.7,11.254,4.199c-0.141-1.425-0.941-2.903-0.84-4.032
				c-2.217-4.104-3.732-8.646-6.551-12.095c-0.91-1.112-2.253-1.668-2.855-3.023c-0.925-0.169-1.562-0.824-2.353-1.344
				c-1.373-0.904-3.067-1.836-5.711-1.68c-2.34,0.139-3.807,0.761-4.535,2.856C239.145,53.821,240.418,56.376,241.691,57.901z
				 M241.187,73.692c-0.08,0.527,0.239,0.656,0.336,1.008c2.19-0.441,4.788-0.904,6.217,0.336c-0.189,2.562-2.388,3.986-2.688,5.879
				c0.854-0.081,1.588-0.98,2.353-2.016c1.14-1.545,2.916-3.803,0.504-5.543C245.841,73.612,242.855,73.565,241.187,73.692z
				 M242.195,76.211c0.47,0.985,0.928,1.984,1.512,2.855c0.585,0.168,1.144-0.785,1.513-1.344c0.389-0.59,0.936-1.352,0.839-2.184
				C244.721,75.073,243.202,75.795,242.195,76.211z M245.387,81.754c0.207,0.354,0.465,0.656,0.672,1.008
				c2.142-1.488,4.567-1.777,7.896-1.848c0.892,0.689,0.419,1.934,0.168,2.855c-0.224,0.822-0.531,1.898-0.84,2.688
				c-0.556,1.422-2.466,2.68-1.344,3.865c1.441-0.406,1.507-2.189,2.688-2.855c0.857-1.832,1.746-3.631,1.512-6.553
				C253.881,76.466,248.438,80.591,245.387,81.754z M247.234,84.274c0.864,1.152,1.566,2.467,2.688,3.361
				c1.271-1.025,2.13-2.463,2.353-4.537C250.771,82.651,248.591,83.559,247.234,84.274z M251.266,72.684
				c0.174-0.839,0.589-1.936,0.169-2.856c-0.734,0.443-0.619,1.733-1.513,2.016C249.892,72.674,250.753,72.874,251.266,72.684z
				 M252.778,74.196c0.373-1.258,0.765-3.055,0.84-4.536c0.032-0.632,0.203-1.918-0.504-2.184c-0.638,0.54-0.299,2.168-0.336,3.359
				C252.74,72.034,252.435,73.37,252.778,74.196z M252.778,91.499c1.338-0.422,2.219-1.539,3.527-2.016
				c0.182-0.066,1.269-0.252,1.68-0.336c0.595-0.123,1.27-0.221,1.848-0.168c1.31,2.826-0.807,5.523-1.512,7.895
				c1.09-0.039,1.759-1.494,2.184-2.52c0.979-2.363,1.387-5.143,0.168-7.055c-3.431-0.75-5.968,1.865-8.062,3.527
				C252.589,91.127,252.815,91.18,252.778,91.499z M254.122,92.674c0.48,1.143,1.289,1.957,2.52,2.352
				c0.606-1.201,1.569-2.891,1.513-4.199C256.714,91.346,255.447,92.04,254.122,92.674z M255.634,76.211
				c0.265-3.076,0.509-5.55-0.168-8.231c-0.4,0.462-0.177,1.424-0.168,2.352c0.008,0.899,0.063,1.96,0,2.856
				C255.217,74.322,254.411,76.006,255.634,76.211z M257.482,69.492c0.122,2.374,0.198,6.844,0.168,9.407
				c0.85-1.77,0.558-5.561,0.335-7.559C257.906,70.623,257.666,70.107,257.482,69.492z M259.665,98.217
				c1.063-0.6,2.568-2.416,3.864-1.68c0.343-0.32,0.337-0.73,0.167-1.176c-1.963-0.211-3.914,0.848-4.535,2.52
				C259.297,98.026,259.621,97.981,259.665,98.217z M260.505,83.098c0.979-3.447,0.657-8.028,0.168-11.758
				c-0.738-0.506-0.236-1.435-1.008-1.68c0.296,2.798,1.045,6.128,0.504,9.743C259.972,80.727,259.165,82.133,260.505,83.098z
				 M262.353,100.737c0.13-0.76,0.606-1.898,0.168-2.688c-0.812,0.082-1.086,0.705-1.848,0.84
				C260.584,100.155,261.566,100.348,262.353,100.737z M263.696,89.651c0.453-1.021,0.487-2.244,0.504-3.361
				c0.055-3.463-0.349-7.834-0.671-11.758c-0.067-0.812,0.329-1.549-0.337-2.184c-0.607,0.596-0.051,1.586,0,2.352
				c0.259,3.826-0.025,8.568-0.672,12.094C262.94,87.717,263.515,88.487,263.696,89.651z"/>
			<path fill-rule="evenodd" clip-rule="evenodd" d="M241.354,56.557c1.355,0.123,2.33-0.134,3.192-0.504
				c-0.038-0.689-0.355-1.1-0.672-1.512c-0.069-1.442-0.421-2.603-1.176-3.359c-0.134-0.93-0.167-1.961-1.008-2.184
				C240.854,50.782,240.041,54.657,241.354,56.557z"/>
			<path fill-rule="evenodd" clip-rule="evenodd" d="M243.202,48.998c0.331,2.132,1.064,3.865,2.018,5.375
				c1.71-1.256,3.808-2.127,5.375-3.527C249.081,49.09,246.253,48.826,243.202,48.998z"/>
			<path fill-rule="evenodd" clip-rule="evenodd" d="M245.22,55.885c1.516,0.723,3.011,1.468,4.367,2.352
				c0.668,0.053,0.454-0.777,1.008-0.84c-0.015,1.049-0.898,1.229-0.841,2.352c2.134-0.651,4.089-1.64,6.552-2.352
				c-0.919-1.713-1.409-3.854-3.191-4.704c-1.342,1.01-1.162,3.542-2.52,4.536c0.318-1.977,1.437-3.154,1.68-5.208
				c-1.97-0.804-3.575,0.879-4.871,1.848c-0.775,0.579-1.491,0.923-2.184,1.512C245.22,55.549,245.22,55.717,245.22,55.885z"/>
			<path fill-rule="evenodd" clip-rule="evenodd" d="M258.825,134.167c-2.241,2.033-4.283,3.826-6.551,5.879
				c-0.858,0.775-1.638,1.779-2.521,1.68c-1.157-0.131-2.405-2.1-1.512-3.527c2.944-0.809,5.255-2.248,7.896-3.359
				c0.503-1.049,1.757-1.291,2.688-1.85c1.654-0.99,3.175-2.309,4.535-3.527c0.79,0.174,0.646-0.584,1.512-0.336
				c0.444-1.293,1.993-1.479,2.521-2.688c0.983,0.145,0.842-0.838,1.68-0.84c1.673-2.023,3.8-3.59,5.543-5.543
				c1.765-1.977,3.561-3.941,5.376-5.879c3.64-3.887,6.76-8.197,10.08-12.432c0.201-0.861,0.75-1.627,1.176-2.352
				c1.361-2.324,2.93-4.346,4.366-6.551c0.301-1.248,0.963-2.203,1.512-3.359c0.552-1.164,0.811-2.477,1.345-3.697
				c0.531-1.213,1.314-2.418,1.848-3.695c2.002-4.795,4.074-9.49,4.535-15.286c0.511-0.274,1.075-0.493,1.848-0.504
				c0.665,15.777,1.813,30.052,5.712,43.507c0.361,0.424,0.905,0.664,0.84,1.514c-2.123,3.91-8.376,1.527-12.767,1.176
				c0.121-0.943,0.957-1.73,1.512-2.352c1.953-2.191,3.566-4.482,5.039-7.057c-2.547-1.148-6.161-1.229-9.406-1.68
				c0.616-1.307,1.831-2.555,2.688-3.527c0.37-0.42,0.871-0.643,1.175-1.008c0.325-0.391,0.519-0.791,0.841-1.176
				c0.994-1.189,2.371-2.25,2.52-3.695c-1.291,0.479-5.358-1.139-5.375,1.176c1.193-0.074,1.777,0.463,2.855,0.504
				c-0.164,1.123-1.326,1.527-2.016,2.184c-0.751,0.717-1.323,1.57-2.016,2.352c-1.331,1.502-2.998,2.91-3.695,5.039
				c1.574,0.141,3.645,0.084,5.039,0.336c1.081,0.195,2.449-0.043,3.359,0.168c0.422,0.098,1.071,0.459,1.344,0.84
				c-1.17,2.582-2.934,5.033-4.367,7.223c-0.469,0.717-1.191,1.473-1.176,2.354c2.929,0.201,6.148-0.062,9.071,0.168
				c-0.771,2.205-3.169,3.092-5.375,3.191c-3.835,0.17-7.545-0.387-11.088,0c-0.146-1.682-0.663-2.779-0.672-4.199
				c-1.187-1.334-1.012-4.027-2.185-5.377c-1.303,1.328-2.535,2.729-3.526,4.369c0.913,1.404,0.731,3.443,2.184,4.199
				c0.923,0.48,2.272-0.197,2.856,1.008c-4.08,0.482-7.764,0.846-10.92,2.184c-0.701,0.297-1.389,0.928-2.184,1.344
				c-2.748,1.441-6.092,3.035-7.728,5.207c-0.817-0.201-0.456,0.777-1.345,0.504C265.647,129.397,262.181,131.122,258.825,134.167z
				 M279.991,117.368c1.527,0.477,2.506-0.594,4.031-0.336c0.427-1.059-0.794-1.578-1.008-2.52
				C281.698,115.155,281.101,116.516,279.991,117.368z M301.325,89.819c0.072,0.479,1.236,0.264,2.016,0.336
				c0.635,0.059,1.551,0.113,2.016,0.168c0.37-2.035-0.183-5.053-0.672-7.225c-0.823,0.867-1.277,2.092-1.848,3.191
				c-0.557,1.078-1.072,2.184-1.68,3.193C301.13,89.678,301.194,89.782,301.325,89.819z M302.165,99.393
				c0.074,0.15,0.146,0.301,0.337,0.336c1.821,0.152,3.803,0.992,5.207,1.008c-0.375-1.986-0.92-5.229-1.345-6.887
				C304.934,95.667,303.491,97.471,302.165,99.393z M304.349,110.649c1.778,0.773,3.245,0.973,5.544,1.342
				c0.676-0.828-0.244-1.729-0.504-2.686c-0.37-1.359-0.35-3.041-0.672-4.537c-1.11,0.121-2.037,2.104-2.688,3.527
				C305.289,108.901,304.944,109.901,304.349,110.649z"/>
			<path fill-rule="evenodd" clip-rule="evenodd" d="M252.442,65.124c1.142-0.403,2.215-1.845,3.023-2.855
				c0.809-1.01,1.889-2.242,1.849-3.527c-2.357-0.073-4.814,0.756-6.384,1.68C251.398,62.024,252.174,63.32,252.442,65.124z"/>
			<path fill-rule="evenodd" clip-rule="evenodd" d="M261.513,67.644c-0.725-2.746-1.65-5.292-3.191-7.223
				c-1.002,0.273-1.385,1.324-2.016,2.016c-0.743,0.816-1.675,1.423-2.352,2.352c0.089,0.135,0.175,0.273,0.168,0.504
				C256.743,65.918,258.552,67.358,261.513,67.644z"/>
			<path fill-rule="evenodd" clip-rule="evenodd" d="M311.068,100.065c0.048-2.717-1.131-5.322-1.512-8.398
				c-1.02-8.223-1.486-17.018-1.512-25.702c0.539-0.479,1.429-0.692,2.016-0.672c0.698-0.082,0.263,0.969,0.84,1.008
				c0.777-0.541,0.942-1.086,1.848-1.176c1.97-0.194,2.648,1.741,3.36,3.192c1.07-1.586,3.178-0.744,4.367,0.168
				c-0.019,0.914,0.148,1.643,0.503,2.184c1.042-0.684,3.367-1.402,4.201,0c0.59,0.4-0.55,1.629,0.334,1.848
				c0.724-0.23,1.025-0.88,1.682-1.176c2.909,1.625,6.727,2.344,9.238,4.368c-1.252,0.146-2.73,0.16-3.527,0.336
				c-0.32,0.07-0.688-0.072-1.008,0c-3.182,0.716-5.559,3.137-7.056,5.207c-0.358,0.496-0.769,1.012-0.841,1.344
				c-0.398,1.881,0.549,3.379,1.01,4.199c0.792,1.416,0.656,0.994,1.847,1.848c0.536,0.385,0.754,0.658,1.176,0.842
				c1.731,0.75,3.033,0.332,4.704,0.168c1.037-1.332,2.441-2.578,2.353-4.537c-0.085-1.836-1.782-3.615-3.696-3.527
				c-1.027,0.047-3.152,1.334-2.855,2.855c0.136,0.699,1.174,1.641,1.848,0.504c-0.389-0.227-0.813-0.416-0.672-1.176
				c1.34-0.715,3.371,0.936,2.352,2.688c-1.08,0.875-3.29,1.752-4.535,0.674c-0.133-0.115-0.363-0.055-0.505-0.17
				c-0.96-0.777-1.553-2.863-1.344-4.199c0.223-1.42,1.438-2.303,1.681-3.359c3.341-2.5,10.182-1.463,11.758,2.016
				c0.557-0.845,0.704-2.096,1.008-3.191c1.102,0.531,2.789,0.865,3.024,2.016c0.177,0.868-1.204,4.031-1.68,5.543
				c-0.31,0.982-0.608,1.686-1.008,2.52c-1.411,2.943-2.228,4.979-3.864,7.561c-2.256,3.559-4.074,5.867-7.727,7.895
				c-1.725,0.957-3.752,2.035-5.375,2.352c-3.195,0.623-5.827-0.236-7.729-1.176c-0.451-0.062-0.743-1.146-1.176-0.672
				c-0.243,1.801,1.069,3.379,1.009,5.543c-0.427,0.303-0.763,0.695-1.513,0.674C313.043,107.276,312.471,103.03,311.068,100.065z
				 M311.236,75.875c3.631,1.855,7.182,3.792,11.087,5.375c0.911-1.401,2.05-2.531,3.19-3.695c1.119-1.14,2.396-2.062,3.529-3.191
				c-7.223-1.598-12.68-4.05-18.311-7.056C310.48,69.957,310.951,73.214,311.236,75.875z M311.404,78.563
				c1.842,1.505,4.574,2.68,7.223,3.695c0.752,0.289,1.658,1.025,2.352,0.504c-0.664-0.701-1.692-0.678-2.52-1.008
				C316.271,80.881,313.928,79.424,311.404,78.563z M311.74,81.25c-0.074,0.578,0.066,0.941,0.168,1.344
				c0.662,0.047,0.514-0.718,1.176-0.672C312.82,81.514,312.369,81.293,311.74,81.25z M312.076,84.778
				c1.293-0.498,2.602-0.982,3.359-2.016c-0.615,0.111-0.645-0.363-1.176-0.336C313.759,83.438,311.864,83.055,312.076,84.778z
				 M312.244,86.625c0.971,0.184,1.738-0.838,2.688-1.342c0.936-0.498,2.316-0.635,2.688-1.682
				c-1.269-0.119-2.234,0.689-3.023,1.176C313.753,85.299,312.783,85.786,312.244,86.625z M312.412,88.811
				c1.182-0.248,2.352-1.324,3.696-2.018c1.25-0.645,2.991-1.033,3.526-2.352c-1.32-0.197-2.268,1.027-3.359,1.68
				c-1.296,0.775-2.625,1.34-3.863,2.184C312.412,88.475,312.412,88.641,312.412,88.811z M312.58,90.155
				c0.131,0.148,0.182,0.379,0.168,0.672c1.723-0.854,3.688-1.465,4.703-3.025C315.648,88.407,314.455,89.622,312.58,90.155z
				 M313.084,93.01c0.949-0.562,2.256-0.77,2.521-2.016C314.594,91.407,312.736,91.792,313.084,93.01z M313.42,94.858
				c0.428-0.018,0.396-0.627,0.168-0.84C313.16,94.036,313.191,94.643,313.42,94.858z M320.308,99.729
				c0.177-0.736-0.568-0.553-0.505-1.176c0.896-1.414,3.27-0.176,2.856,1.848c-0.322,1.576-2.226,1.396-3.696,1.848
				c-1.234-0.791-2.77-1.98-3.023-3.863c-0.262-1.939,0.775-3.539,1.68-4.871c4.789-2.502,12.357-0.436,12.264,6.215
				c1.9-2.748,4.09-5.205,5.375-8.566c-1.879,1.105-4.128,2.16-6.383,2.016c-4.052-0.26-6.79-3.25-7.729-6.889
				c-2.109,1.26-3.822,5.016-5.038,7.729c-0.949,2.115-1.539,3.791-0.337,6.215c0.58,1.17,1.634,2.324,3.023,2.855
				c0.353,0.135,1.241,0.314,1.513,0.336c2.196,0.182,4.605-1.078,4.872-3.359c0.346-2.984-1.925-3.389-4.704-3.695
				C319.159,96.702,318.066,99.545,320.308,99.729z"/>
			<path fill-rule="evenodd" clip-rule="evenodd" d="M337.441,96.538c2.896-1.248,4.406-3.881,7.055-5.375
				c-0.412-3.414,1.535-6.727,1.85-9.408c-0.4-0.354-1.182-0.635-1.681-0.504c-0.622,0.164-1.563,2.377-2.015,3.359
				c-1.644,3.568-3.44,9.301-5.376,11.424C337.227,96.305,337.433,96.323,337.441,96.538z"/>
			<path fill-rule="evenodd" clip-rule="evenodd" d="M345.337,90.155c0.915-0.094,1.462-0.555,2.185-0.84
				c0.192-0.816-0.406-2.422,0.335-2.689c0.696-0.023,0.175,1.17,0.336,1.68c0.022,0.742,0.682-0.311,0.84-0.504
				c0.868-0.363,1.302-1.16,1.681-2.016c-0.584-1.604-1.705-3.677-3.696-2.855C346.1,84.877,344.814,87.327,345.337,90.155z"/>
			<path fill-rule="evenodd" clip-rule="evenodd" d="M212.126,102.417c-1.27-0.682-2.604-1.49-3.527-1.848
				c-1.828-0.707-2.746-0.881-2.353-2.52c-0.012,0.051,0.204-0.223,0.168,0c0.108-0.668,0.008-1.363,0.168-2.016
				c0.132-0.533,0.479-1.09,0.672-1.68c0.197-0.604,0.46-1.256,0.672-1.848c0.495-1.375,1.011-2.404,1.513-3.527
				c0.084-0.188-0.08-0.484,0-0.674c0.73-1.719,2.217-3.381,2.688-5.039c1.113-1,1.803-2.573,2.688-3.863
				c0.92-1.342,2.091-2.6,2.352-4.031c-3.197,4.004-6.324,8.52-8.902,12.934c-0.6,1.025-1.428,2.199-1.849,3.193
				c-0.536,1.264-0.374,2.779-1.175,4.031c-0.729-3.68-1.645-6.895-2.353-10.08c-0.282-1.268-0.982-3.535-1.009-4.871
				c-0.05-2.661,1.43-4.046,1.849-6.047c0.408-1.945-0.025-3.469-0.168-5.376c0.339-1.061,1.605-1.195,1.849-2.352
				c-2.713,0.646-4.607-2.974-2.856-4.872c1.2-0.005,1.97-0.208,2.353,1.176c-0.176,0.609-1.271,0.298-1.345,1.008
				c0.233,0.552,0.541,1.027,1.345,1.008c2.729-3.651-2.877-5.356-5.545-4.535c-0.506-1.286-1.388-2.195-1.512-3.864
				c1.338,0.238,2.834-1.085,2.689-2.52c-0.126-1.226-1.836-2.237-2.857-0.84c0.49,0.35,1.729-0.047,1.68,0.84
				c0.286,1.032-0.791,1.259-1.176,1.344c-2.685,0.596-4.127-2.074-5.879-2.016c-1.135,0.038-1.274,1.15-2.688,0.84
				c-0.037-0.131-0.141-0.195-0.336-0.168c-0.955-1.084-0.15-2.071,0.168-3.359c0.215-0.873,0.297-1.941,0.503-3.024
				c0.202-1.057,0.606-2.157,0.673-3.023c0.061-0.794-0.198-1.566-0.168-2.352c0.021-0.554,0.288-1.109,0.336-1.68
				c0.047-0.567-0.08-1.197,0-1.68c0.433-2.602,2.468-4.142,2.688-6.047c0.271-2.358-0.475-4.196,0.673-6.047
				c0.519-0.84,1.501-1.431,2.183-2.184c1.541-1.704,2.709-3.361,3.864-5.208c0.502-0.805,1.095-1.952,2.184-2.352
				c1.248,0.977,1.679,2.468,3.192,3.023c1.08,0.397,2.85,0.107,3.359,1.008c-2.158,0.33-5.447,0.892-7.224,2.855
				c-0.27,0.298-0.475,1.003-0.841,1.512c-0.383,0.534-0.821,0.865-1.007,1.344c-0.931,2.398,0.894,3.854,2.688,4.703
				c1.127,0.534,2.773,0.445,3.527,1.512c-3.808-0.109-9.274,2.87-8.735,6.047c0.291,1.706,3.29,2.737,4.872,3.191
				c0.878,0.252,2.042,0.292,2.519,1.008c-1.211,0.507-2.605,0.69-3.863,1.008c-2.617,0.661-3.889,1.619-5.207,3.36
				c-0.5,0.661-1.463,1.504-1.008,2.52c1.658-0.86,3.417-1.693,5.208-2.52c1.736-0.801,3.538-1.755,5.376-2.352
				c1.442-0.468,3.189-0.358,4.367-1.512c-1.004-3.476-4.185-4.776-8.232-5.208c0.162-0.732,1.098-0.642,1.68-0.84
				c0.676-0.229,1.434-0.717,2.354-0.671c0.779-0.845,1.83-1.417,3.023-1.848c0.536-1.096,1.459-1.221,1.512-2.52
				c0.035-0.879-0.874-2.676-1.68-3.359c-0.838-0.711-2.396-1.123-3.359-1.176c-0.838-0.046-1.586,0.745-2.185-0.168
				c3.196-0.99,9.37-2.525,8.231-7.896c-0.294-1.383-1.512-2.021-2.688-2.855c-0.672,0.212-1.998,0.108-2.185-0.672
				c3.313-0.284,9.925-4.534,6.048-7.392c-0.572,0.042-0.807,0.425-1.512,0.336c0.119-0.783,0.905-1.333,1.512-1.848
				c0.58-0.492,1.249-1.065,1.848-1.512c0.666-0.498,1.462-0.744,2.184-1.176c0.593-0.355,1.211-1.331,2.016-1.008
				c0.096,1.515-0.724,3.008-1.176,4.536c-0.962,3.251-1.471,6.558-2.352,9.743c-0.508,1.833-1.462,3.887-1.176,5.375
				c-1.729,7.67-2.236,16.99-1.176,25.198c0.195,1.517,0.258,3.524,0.504,5.207c0.453,3.096,1.496,6.772,2.184,9.239
				c0.631,2.267,1.082,3.78,1.68,5.711c0.449,1.452,0.998,2.837,1.512,4.2c-0.098,0.635-0.972,1.371-0.672,1.848
				c0.557-0.059,0.199-1.034,1.009-0.84c1.021,1.781,1.767,3.719,2.687,5.375c0.322,0.579,0.812,1.069,1.176,1.68
				c0.363,0.607,0.453,1.402,0.84,2.016c0.508,0.803,1.271,1.527,1.85,2.352c1.188,1.695,2.168,3.25,3.359,4.873
				c0.559,0.762,1.061,1.645,1.68,2.352c2.763,3.16,6.018,5.561,9.071,8.23c1.641,1.436,3.276,2.869,5.039,4.199
				c1.604,0.58,2.472,1.896,4.199,2.352c3.743,3.48,9.378,5.07,15.455,6.217c0.018,2.117-0.921,3.527-1.849,5.207
				c-1.789,3.236-4.43,5.789-6.215,8.734c-1.83,1.531-3.667,3.949-4.871,5.545c2.025-1.057,2.807-3.354,4.871-4.369
				c0.74-1.611,1.963-2.74,3.191-3.863c-0.139-0.475,0.236-0.436,0.168-0.84c2.854-3.25,5.069-7.137,6.719-11.59
				c-2.316,0.355-4.75-0.924-6.215-1.68c-1.867-0.967-3.391-1.518-5.039-2.521c-1.879-1.143-4.391-2.406-5.88-3.695
				c-0.155-0.135-0.338-0.217-0.504-0.336c-2.378-1.709-4.771-3.311-7.056-4.871c-1.476-1.902-3.444-3.27-5.207-4.871
				c-1.797-1.633-3.311-3.496-4.871-5.375c-1.523-1.836-3.162-3.586-4.535-5.545c-0.696-0.992-1.077-2.221-1.681-3.359
				c-0.584-1.101-1.448-2.104-2.017-3.191c-2.414-4.627-3.997-9.714-6.215-14.783c-0.921-3.965-1.988-6.462-2.52-10.919
				c-0.28-2.348-0.65-5.244-0.84-7.056c-0.359-3.419-0.169-7.366,0-11.086c0.071-1.578-0.143-3.206,0-4.704
				c0.045-0.468,0.434-1.018,0.504-1.512c0.239-1.666,0.131-3.727,0.504-5.375c0.287-1.269,0.99-2.461,1.176-3.696
				c0.066-0.448-0.051-0.781,0-1.176c1.68-4.368,2.291-9.805,4.535-13.607c0.643-0.141,1.35-0.219,2.184-0.168
				c-0.797,2.91-1.525,5.62-2.352,8.231c-0.287,0.909-0.819,1.842-0.84,2.688c-0.006,0.233,0.301,0.206,0.337,0.336
				c0.045,0.168-0.203,0.354-0.168,0.672c0.142,1.319,1.726,2.755,2.519,3.863c0.826,1.152,1.568,2.296,2.354,3.36
				c1.729,2.346,3.779,4.302,5.206,6.383c0.808,0.201,1.019,0.998,1.849,1.176c2.134-3.969,5.088-7.119,8.063-10.247
				c-1.875-2.797-4.565-5.297-6.048-8.231c-1.42-2.809-2.812-6.013-3.361-9.407c0.541-0.193,1.171-0.397,1.682-0.168
				c1.197,7.425,5.114,12.133,9.07,16.798c1.43-0.979,2.889-1.928,3.864-3.359c-1.329-2.434-2.972-4.522-4.199-7.056
				c-1.183-2.438-2.851-4.995-3.192-8.231c0.998,0.158,1.677-0.324,2.352,0c2.841,4.719,4.107,11.012,8.064,14.614
				c0.343,1.471,2.199,2.057,1.68,3.864c-5.122,1.993-9.839,5.895-12.936,10.919c-0.995,1.616-2.264,3.562-3.023,5.543
				c-0.79,2.058-1.726,4.537-2.016,6.719c-0.053,0.388,0.193,0.754,0.168,1.176c-0.022,0.366-0.303,0.831-0.336,1.176
				c-0.414,4.177,0.188,8.914,0.504,11.591c0.5,4.241,0.876,9.003,1.848,12.431c1.183,4.173,3.031,8.025,5.208,10.919
				c0.804,2.107,2.281,3.758,3.526,5.543c2.953,4.23,6.225,8.254,9.408,12.096c1.098,1.326,2.526,2.404,3.191,4.031
				c1.882,1.598,3.439,3.494,5.207,5.207c1.756,1.701,3.379,3.586,5.376,5.041c0.173,0.723,0.747,1.043,1.008,1.68
				c1.487-3.166,1.937-6.818,2.521-10.92c0.179-1.266,0.53-2.482,0.671-3.695c0.304-2.602,0.112-5.148,0-7.727
				c-0.252-5.75-1.155-10.967-1.681-16.127c1.919-3.234,5.709-4.595,7.896-7.56c-2.191,1.719-4.811,2.829-7.055,4.368
				c-0.729,0.498-1.312,1.487-2.353,1.512c-0.474-1.076-0.198-2.431-0.337-3.696c-0.29-2.676-1.338-5.291-1.68-7.728
				c-0.832-1.187-1.208-2.642-2.016-3.863c-0.771-1.167-2.001-2.172-2.016-3.527c2.672,1.287,4.956,2.489,8.063,2.351
				c1.727-0.076,4.175-1.277,6.216-0.167c0.264-0.072,0.143-0.528,0.671-0.336c1.346,0.67,2.616,1.416,3.696,2.352
				c0.982,1.089,2.581,1.562,3.359,2.855c-0.435,0.965-1.96,0.84-2.184,2.016c0.922-1.204,3.877-2.593,4.031-0.504
				c0.066,0.887-1.272,1.173-1.344,2.184c-0.035,0.505,0.782,1.855,1.009,2.184c0.407,0.596,0.996,1.375,1.679,1.344
				c-0.062-2.064-0.742-3.513-1.008-5.375c1.729,0.227,2.23,2.535,2.352,4.536c0.05,0.803,0.332,2.254-0.504,2.52
				c-0.568,0.504-1.053-0.325-1.512-0.672c-0.4-0.303-1.098-0.745-1.512-1.176c-0.526-0.548-1.396-2.599-2.016-2.184
				c-0.766,0.513,0.186,1.946,0.672,2.688c1.244,1.895,2.496,3.225,4.031,4.536c0.854,0.729,1.824,1.537,2.856,1.68
				c0.75-3.645-0.195-7.646-1.176-10.583c0.649,0.302,1.296,0.607,2.016,0.84c1.13,1.659,1.534,5.761,1.344,8.4
				c-0.056,0.778-0.639,1.564,0,2.016c2.041-1.091,1.692-4.777,1.344-7.392c1.884-0.021,2.388,1.405,4.368,0.84
				c0.598-0.243,0.389-1.29,1.176-1.344c1.777-0.452,4.826-0.885,6.215-0.672c0.043,2.877-1.803,6.011-2.688,8.231
				c-0.734,1.841-1.125,3.562-1.848,5.207c-2.098,4.775-4.361,10.182-7.392,13.775c-1.47,3.289-4.073,5.445-5.376,8.902
				c-2.029,2.01-3.456,4.564-5.375,6.887c-1.391,1.686-2.967,3.398-4.367,4.873c-0.512,0.537-1.192,0.961-1.68,1.512
				c-0.697,0.787-1.133,1.893-1.848,2.688c-0.464,0.514-0.969,0.951-1.513,1.512c-4.2,4.336-9.35,8.252-14.11,11.758
				c-0.766,0.564-1.716,1.061-2.688,1.68c-1.738,1.109-4.991,4.211-6.552,2.186c0.505-6.443-2.397-10.322-5.544-13.607
				c-6.471-3.607-10.27-9.889-17.469-12.768c-0.04-0.598,0.947-0.172,0.839-0.84c1.003-4.203,2.28-8.133,3.696-11.926
				c-0.339-0.67-0.674-1.342-1.68-1.344c-0.592,1.266-1.39,2.652-1.848,4.199c-0.35,1.178-0.355,2.443-0.673,3.695
				c-0.462,1.828-1.556,3.672-1.177,5.545c-1.471-0.066-2.125-1.293-3.695-1.682c0.035-0.828,1.262,0.404,1.008-0.84
				c-0.901-0.355-1.516,0.785-2.352-0.168c-0.215-0.998,1.069-0.498,1.008-1.344c-1.526-1.584-2.908-3.648-5.039-4.703
				c-0.469-0.232-1.028-0.148-1.512-0.336c-0.426-0.166-0.724-0.652-1.176-0.84c-1.433-0.592-3.127-0.664-4.703-1.008
				c-0.381,0.402-0.371,1.199-0.672,1.68c2.049,0.746,4.846,1.242,6.551,2.352c0.662,0.432,1.576,1.186,1.512,2.016
				C214.662,104.133,213.416,103.11,212.126,102.417z M275.624,62.604c0.576-0.488,1.309-1.395,2.352-1.68
				c0.216-0.792,1.071-0.944,1.68-1.344c-0.061-1.259-0.586-1.124-1.68-1.176c-0.371,1.171-1.52,2.169-2.184,3.36
				C275.704,61.922,275.065,62.587,275.624,62.604z M197.511,50.678c1.341,0.149,2.775-0.513,4.031,0.504
				c1.512,1.223,1.626,5.056-0.168,6.719c3.289,1.051,6.898,2.584,6.217,7.055c1.604-1.139,2.896-2.59,4.367-3.864
				c-0.52-1.055-0.455-3.085-0.84-4.703c-0.669,0.115-0.726,0.842-1.008,1.344c-1.467,1.739-4.756,1.833-6.552,0.336
				c-0.042-1.252-0.661-1.357-0.672-2.352c-0.017-1.458,1.175-3.193,2.017-3.528c1.562-0.622,3.441,0.228,3.695,1.344
				c0.172,0.755,0.018,2.937-2.017,2.52c-0.601-0.336,0.026-1.123,0-1.848c-2.667-0.422-2.175,2.981,0,3.024
				c2.097,0.042,2.677-2.396,2.521-4.536C207.296,49.55,200.823,47.979,197.511,50.678z M208.599,75.204
				c-0.194-2.887-1.021-5.139-1.345-7.896c-1.442,0.237-1.878,1.482-2.855,2.184C204.606,72.587,205.601,74.897,208.599,75.204z
				 M205.575,46.814c-0.028,0.195,0.036,0.299,0.167,0.336c1.878,0.81,3.733,1.642,4.704,3.359c0.033-1.307-0.109-3.229-0.504-4.872
				C208.403,45.947,206.968,46.359,205.575,46.814z M207.087,85.284c1.238-0.395,1.557-1.721,2.184-2.689
				c0.625-0.968,1.566-1.828,1.848-3.023c-1.793-0.672-3.225-1.703-5.376-2.016C205.517,80.142,206.868,82.583,207.087,85.284z
				 M213.974,69.66c-0.101-2.028-1.565-4.146-1.68-6.719c-2.084,0.548-2.719,2.545-4.368,3.528
				C209.388,68.086,212.017,68.538,213.974,69.66z M225.732,93.682c-1.422-2.883-5.819-4.627-9.911-5.041
				c-1.426-0.143-3.332-0.395-4.367,0.506c0.648,0.668,1.597,0.359,2.352,0.504c3.207,0.613,5.75,2.189,7.391,4.367
				c-2.774,1.693-8.322,1.566-12.094,0.84c-0.145,0.135-0.1,0.461-0.336,0.504c0,0.168,0,0.336,0,0.504
				C214.451,97.336,222.126,96.665,225.732,93.682z M209.942,93.178c2.426,0.641,5.559,1.131,8.567,0.672
				c-1.532-1.996-4.545-2.512-7.728-2.855C210.429,91.649,209.865,92.092,209.942,93.178z M211.118,72.012
				c0.28,2.127,0.597,4.219,0.84,6.383c0.85-0.531,0.97-1.579,1.512-2.352c0.482-0.689,1.438-1.195,1.512-2.184
				C214.065,72.872,212.562,72.471,211.118,72.012z M224.054,89.651c-1.91-3.578-4.518-6.459-5.881-10.584
				c-2.352,1.959-3.559,5.064-5.207,7.727c-0.027,0.197,0.037,0.299,0.169,0.338C217.368,87.434,220.274,88.624,224.054,89.651z
				 M215.653,98.553c2.747,1.342,4.705,3.471,6.887,5.375c0.336-2.545-2.951-2.852-3.527-5.039c2.395-0.631,5.658-0.391,5.711-3.359
				C222.242,97.081,219.225,98.094,215.653,98.553z M217.333,33.375c0.784-0.336,0.264-1.251,0.337-1.848
				c0.378-3.12,1.077-6.696,1.68-9.743c0.366-1.854,1.106-3.521-0.505-4.872c-0.303,0.246-0.703,1.162-0.84,1.68
				c-1.098,4.166-1.014,8.864-1.68,13.774C216.907,32.457,216.835,33.202,217.333,33.375z M216.493,43.454c0,0.168,0,0.336,0,0.504
				c1.66,0.575,3.299,1.124,5.04,1.68c2.044,0.653,3.846,1.855,6.047,1.848c0.036-0.601-0.729-0.884-1.176-1.176
				c-0.997-0.65-2.307-0.93-3.528-1.68c-0.605,0.339-0.812-0.017-1.343-0.168c0.065-1.332,1.655-1.019,2.521-1.344
				c0.663-0.249,1.378-0.814,2.016-1.176c0.639-0.362,1.561-0.612,1.68-1.344C224.541,41.52,220.01,42.06,216.493,43.454z
				 M217.501,55.045c0.481,0.901,2.165,0.206,3.023,1.007c2.762-0.198,5.137,0.605,7.729,0.336c0-0.224,0-0.448,0-0.672
				c-1.07-1.104-4.574-0.878-6.217-1.512c1.425-2.159,5.391-1.777,5.713-5.039c-0.777-0.325-1.404,0.794-2.353,0.84
				c-2.003,2.196-5.223,3.176-7.896,4.704C217.501,54.821,217.501,54.934,217.501,55.045z M221.365,35.727
				c-0.022-4.994,0.366-8.621,1.511-12.599c-0.595-0.468-0.478-1.65-1.68-1.512c-0.763,4.107-1.777,10.195-1.006,13.775
				C220.72,35.363,220.751,35.838,221.365,35.727z M220.692,65.964c-0.047,0.271,0.16,0.289,0.168,0.504
				c2.377,0.316,6.234-0.344,9.24-0.84c0.328-1.201-0.725-0.767-1.512-0.84c-1.523-0.142-3.582-0.063-4.872,0.336
				c0.691-1.426,2.418-2.212,3.527-3.359c0.794-0.82,1.714-1.993,1.513-3.36C225.464,60.32,223.431,63.494,220.692,65.964z
				 M220.86,99.729c0.312,1.088,1.15,1.65,2.016,2.184c0.043-1.246,0.809-1.768,0.841-3.023
				C222.522,98.926,222.054,99.688,220.86,99.729z M223.549,37.407c0.833-0.35,0.413-1.333,0.505-2.016
				c0.4-3.042,0.862-6.208,1.847-8.567c-0.374-0.415-0.976-1.482-1.513-1.176c-0.668,0.2-0.367,0.967-0.503,1.512
				c-0.464,1.87-1.122,4.728-1.177,7.391C222.687,35.632,222.675,36.859,223.549,37.407z M225.732,38.079
				c0.542,0.299,0.998,0.682,1.848,0.672c0.636-2.612,1.387-5.109,2.521-7.224c-0.812-1.093-1.521-2.287-2.856-2.855
				C226.076,31.676,226.101,34.276,225.732,38.079z M226.573,78.563c0.752-0.182,0.816-0.988,1.176-1.512
				c0.842-1.232,1.924-2.205,3.023-3.191c0.623-0.16,1.592,0.023,1.848-0.504c-0.432-1.036-1.824-0.036-2.52,0.336
				c-0.375,0.199-0.717,0.585-1.176,0.84c-0.854,0.472-1.307,0.49-2.018,1.176c-0.31,0.3-0.449,0.72-1.007,0.84
				C225.774,77.571,226.274,77.967,226.573,78.563z M226.069,74.364c1.84,0.055,2.699-1.627,3.693-3.192
				c0.937-1.47,1.941-2.897,0.842-3.863c-1.852,1.843-2.773,4.618-4.535,6.552C226.069,74.028,226.069,74.196,226.069,74.364z
				 M228.421,107.624c2.25,0.271,4.604,0.436,6.887,0.672c-1.177-3.357-2.814-6.256-4.031-9.574
				c-0.465,0.041-0.385,0.625-0.672,0.84c0.695,2.441,1.68,4.592,2.688,6.719C232.171,107.542,228.15,105.262,228.421,107.624z
				 M232.62,86.122c2.504,0.477,3.679-4.287,1.68-4.703c-0.651,0.473-0.295,1.355-1.344,1.512c-0.775,0.117-1.493-0.451-1.68-1.176
				c-0.521-2.014,1.553-3.879,3.695-3.191c-0.218-0.678-0.505-1.287-1.008-1.68c-1.755-0.067-3.86,1.734-4.536,2.855
				C227.698,82.614,230.148,84.872,232.62,86.122z M228.925,105.44c0.971-0.182,1.957,0.309,2.52,0
				c-0.223-1.457-0.796-2.562-1.176-3.863C229.538,102.583,229.112,103.893,228.925,105.44z M231.108,109.471
				c0.668,1.166,2.921,1.502,4.199,1.514c1.379,1.141,1.365,3.674,2.688,4.869c-0.073-1.775-1.238-3.912-1.849-5.709
				C234.329,110.057,233.054,109.43,231.108,109.471z M233.796,88.641c0.746,1.102,1.356,2.342,2.688,2.857
				c-0.087-2.719,1.438-3.824,3.696-4.199c-0.408-1.385-1.115-2.471-2.184-3.193C237.489,86.512,235.97,87.905,233.796,88.641z
				 M234.132,100.401c-0.144-0.031-0.158,0.066-0.168,0.168c1.283,2.525,2.099,5.518,3.36,8.062
				c2.768-0.223,4.887,0.867,7.559,0.506c-1.271-1.584-5.155-0.557-6.887-1.682C236.768,105.045,236.131,102.042,234.132,100.401z
				 M237.996,103.928c-0.098,0.773,0.624,2.172,1.007,3.025c0.785,0,1.568,0,2.352,0
				C240.396,105.784,239.044,105.008,237.996,103.928z M237.828,110.145c0.322,0.992,0.934,2.443,1.344,3.695
				c0.396,1.207,0.488,2.693,1.512,3.359c0.893-1.818-1.179-3.201-1.009-5.377c1.97-0.682,6.407,1.783,7.224-0.838
				C243.821,110.758,241.033,110.241,237.828,110.145z M240.18,92.17c-0.437-0.938-0.849-1.83,0.335-2.016
				c0.812-0.129,1.885,1.043,1.849,2.184c-0.051,1.566-1.48,2.09-2.688,2.52c0.255,0.754,0.858,1.156,1.512,1.512
				c0.909-0.709,1.936-1.818,2.353-3.191c0.354-1.166-0.578-3.324-1.68-3.863c-0.673-0.33-2.29-0.098-2.688,0.168
				C238.213,90.12,237.722,93.143,240.18,92.17z M241.187,112.833c-0.024,1.312,0.51,2.066,1.009,2.855
				c1.599-0.193,2.068-1.516,2.855-2.52C243.892,112.926,242.555,112.864,241.187,112.833z M241.354,119.047
				c0.042,0.211,0.335,0.17,0.337,0c3.21-1.549,5.32-4.199,7.055-7.225C246.603,114.551,244.359,117.18,241.354,119.047z
				 M245.891,100.569c1.121-0.828,2.513-1.822,2.352-3.191c-0.126-1.07-2.376-2.535-2.855-3.527
				c-0.519,0.152-0.558,0.785-0.672,1.344c-0.787,0.781-1.293,1.842-2.016,2.688C243.373,99.167,244.67,99.831,245.891,100.569z
				 M245.891,119.215c1.508,3.42,3.238,6.617,4.872,9.91c1.625-1.51,2.798-3.473,4.199-5.207c-0.669-1.023-1.957-1.412-3.023-2.016
				c-1.722-0.975-3.378-1.916-5.544-2.688C246.227,119.215,246.059,119.215,245.891,119.215z M256.642,106.786
				c0.08-0.924-1.042-1.406-1.68-2.018c-0.908-0.867-1.787-1.68-2.352-2.855c-0.643-0.211-0.943-0.781-1.512-1.344
				c-0.316-0.312-1.11-1.352-1.345-1.344c-0.908,0.029-1.045,1.85-2.015,2.352c0,0.168,0,0.336,0,0.504
				C250.208,104.149,253.354,105.536,256.642,106.786z M251.603,113.336c1.261,3.105,2.925,5.809,4.199,8.902
				c1.723-1.58,2.439-4.168,3.527-6.385C256.604,115.167,254.042,114.311,251.603,113.336z M263.865,122.407
				c0.563,0.66,1.094-1.018,1.511-0.504c0.609-0.697,0.049-1.162,0-2.016C264.447,120.301,264.304,121.5,263.865,122.407z
				 M265.376,119.551c1.043-0.357,3.045,0.242,3.361-0.84c-0.42-0.814-0.881-1.584-1.01-2.688c0.943-0.818,3.271,0.414,4.537-0.17
				c-0.276-2.41-2.053-3.322-2.856-5.205c2.327,0.248,3.946,1.205,6.216,1.512c-0.312-2.553-2.416-4.748-4.367-6.217
				c-1.42,0.811-1.551,2.762-1.849,4.369c-0.062,0.332-0.275,0.33-0.336,0.504c-0.58,1.668-1.401,3.207-1.68,4.871
				c-0.027,0.197-0.306,0.141-0.505,0.166C266.646,117.348,265.679,118.118,265.376,119.551z M268.232,62.604
				c0.073,0.653,0.127,1.329,0.337,1.848c0.783,0,1.566,0,2.352,0c1.35-0.945,2.176-2.415,2.854-4.031
				c-0.383-1.148-0.363-2.548-1.343-3.192c-1.182-0.776-2.687-0.389-3.863,0.504c-0.068,1.356,0.031,2.542,1.343,2.52
				c-0.155-0.852-0.197-1.229,0.336-1.68c2.96-0.806,2.515,3.831,0.673,4.368C269.999,63.209,269.436,62.504,268.232,62.604z
				 M268.569,66.132c-0.119,0.734,0.285,0.946,0.168,1.68c0.564-0.499,1.074-1.052,1.344-1.848
				C269.554,65.999,268.847,65.851,268.569,66.132z M271.257,76.715c0,0.615,0,1.232,0,1.848c0.34,0.52,0.965,1.135,1.68,1.848
				c1.051,1.051,1.826,1.924,3.191,2.855c1.379,0.943,2.141,1.107,3.527-0.168C276.612,81.214,273.825,79.073,271.257,76.715z
				 M272.095,86.961c1.846-0.17,2.793-1.24,4.033-2.016c-1.438-1.25-2.918-2.457-4.368-3.695
				C271.62,82.926,271.53,85.176,272.095,86.961z M279.991,80.747c0.34-4.809,0.07-9.111-1.512-12.599
				c-0.549,0.239-1.217,0.609-1.344,1.176c-0.148,0.658,0.483,1.188,0.672,2.016c0.405,1.785,0.031,3.798,0.168,5.543
				c-2.172-0.627-3.422-2.178-4.535-3.863c-0.855,0.041-1.066,0.727-1.681,1.008c0.925,1.539,2.416,3.314,3.864,4.535
				C276.839,79.587,278.409,80.618,279.991,80.747z M276.632,93.178c0.081,0.869,1.374,0.529,1.512,1.344
				c-0.146,1.746-2.649,2.293-3.528,0.84c-1.294-2.141,0.726-5.836,2.521-6.383c6.053-0.537,6.02,6.826,3.863,10.414
				c3.039-1.027,4.969-4.15,3.695-8.062c1.066,0.076,1.342,0.783,2.856,0.168c0.886-0.361,2.329-1.164,2.688-1.848
				c0.117-0.225-0.079-0.646,0-1.01c0.051-0.238,0.48-0.537,0.336-1.342c-0.236-1.287-3.11-2.889-3.36,0
				c0.739,0.574,0.696-0.793,1.512-0.674c1.545,0.486,1.349,2.17,0.168,2.857c-3.142,0.527-4.328-2.18-3.695-4.033
				c0.488-1.432,2.627-2.412,4.199-2.184c1.826,0.268,2.718,1.982,3.191,3.527c2.444-1.459,1.76-4.23-0.504-5.543
				c-0.429-0.248-1.244-0.643-1.344-0.672c-4.087-1.168-8.849,2.512-7.391,7.559c-1.752-0.029-2.552-2.059-4.872-1.848
				c-2.275,0.209-2.824,1.139-4.199,2.689c-0.995,1.119-2.188,2.4-2.186,4.367c0.006,2.189,1.059,3.887,2.688,4.703
				c1.049-0.225,2.467-0.094,3.36-0.84C279.673,95.932,279.86,92.649,276.632,93.178z M272.6,105.272
				c-0.048,0.271,0.159,0.289,0.169,0.504c2.412,0.223,4.271,1.398,6.887,1.848c-0.007-2.008-1.468-2.562-1.848-4.199
				C275.749,103.717,274.549,104.87,272.6,105.272z M273.608,56.221c0.336,0.67,0.742,1.273,1.007,2.016
				c0.476-0.253,0.586-0.871,0.673-1.512C274.683,56.603,274.474,56.083,273.608,56.221z M276.632,74.7
				c-0.14-1.477-0.035-2.724-0.504-4.368C273.341,71.056,274.454,73.903,276.632,74.7z M275.792,66.468
				c0.496-0.232,0.68-0.776,1.176-1.008C276.792,65.351,275.845,65.897,275.792,66.468z M277.304,65.292
				c0.549,0.045,0.355-0.651,0.84-0.672C277.892,64.218,277.304,64.886,277.304,65.292z M278.479,102.752
				c-0.049,0.271,0.158,0.289,0.168,0.504c1.488,0.197,2.723,1.186,4.199,0.504c-0.207-1.025-0.785-1.678-1.344-2.352
				C280.15,101.512,279.566,102.385,278.479,102.752z M281.671,71.171c0.579,3.677,0.896,7.179,0.168,10.583
				c2.502-0.299,1.508-4.092,2.016-6.383c1.427,0.464,3.788,3.37,5.208,1.176C285.987,75.366,284.131,72.967,281.671,71.171z
				 M282.679,100.401c0.082,0.76,1.076,0.604,1.848,0.672c0.904-0.943,1.808-1.889,2.184-3.359
				C285.14,98.381,283.97,99.452,282.679,100.401z M284.526,79.907c1.51,0.053,1.52-1.393,2.856-1.512
				c-0.618-0.727-1.938-0.75-2.521-1.512C284.732,77.934,284.283,78.967,284.526,79.907z M295.613,77.555
				c-0.687,0.678-0.487,1.516-1.511,1.344c-1.107-0.186-0.901-2.037-0.168-2.855c1.711-0.548,2.563,0.646,3.359,1.512
				c1.985-3.561-2.398-4.289-4.536-2.016c-0.321,0.342-0.954,1.416-1.008,2.016c-0.114,1.277,0.85,3.035,1.848,3.191
				C295.335,81.018,296.178,79.088,295.613,77.555z M293.429,69.492c0.277,1.115-0.167,2.255,0.169,3.192
				c0.972-0.709,1.604-1.756,2.185-2.856C294.826,69.887,294.341,69.478,293.429,69.492z"/>
		</g>
	</g>
	<g id="U5kkNd.tif_1_">
		<g>
			<path fill-rule="evenodd" clip-rule="evenodd" d="M29.177,81.754c1.199,2.273,2.559,4.385,4.031,6.383
				c-2.357-0.385-4.135-1.352-6.551-1.68C27.218,84.61,27.788,82.772,29.177,81.754z M30.856,86.625
				c-0.27-1.41-1.523-1.834-1.68-3.359c-0.531,0.676-1.379,1.826-1.176,2.688C29.267,85.866,29.763,86.543,30.856,86.625z"/>
			<path fill-rule="evenodd" clip-rule="evenodd" d="M31.362,14.897c0.936,0.246,1.33-0.643,2.014-1.008
				c1.816-0.967,3.791-1.503,5.713-2.352c1.074-0.475,2.172-0.977,3.359-1.344c-0.727-2.689-1.801-5.032-2.52-7.728
				c-1.768-0.559-3.812,0.691-5.375,0.336c-0.221,0.676-0.387,1.406-1.01,1.68c-0.096,2.562-1.422,5.385-2.182,8.231
				C31.155,13.484,30.872,13.983,31.362,14.897z"/>
			<path fill-rule="evenodd" clip-rule="evenodd" d="M31.864,15.569c0,0.168,0,0.335,0,0.503c1.264,1.229,1.797,3.009,2.857,4.368
				c0.32,0.412,0.832,0.614,1.174,1.008c0.818,0.94,1.469,2.036,2.354,3.024c0.818,0.917,1.492,2.215,2.686,2.688
				c0.914-5.46,1.891-10.348,2.186-15.791C38.862,12.263,35.589,14.141,31.864,15.569z"/>
			<path fill-rule="evenodd" clip-rule="evenodd" d="M42.616,28c0.658-0.35,0.775-1.24,1.008-2.016
				c1.658-2.317,3.26-4.692,5.545-6.383c-0.709-1.212-1.773-2.096-2.689-3.191c-0.822-0.985-1.346-2.498-2.688-3.024
				C43.696,17.322,42.657,23.514,42.616,28z"/>
			<path fill-rule="evenodd" clip-rule="evenodd" d="M44.632,52.021c-0.193-0.792-0.59-1.72-0.672-2.52
				c-0.232-2.242,0.33-5.068,0.84-7.224c1.012-4.286,3.26-8.583,5.545-12.263c1.93-3.108,4.902-5.783,7.559-7.895
				c0.451-0.36,0.789-0.884,1.176-1.176c2.174-1.645,4.867-2.167,7.559-2.688c-1.076-0.267-2.057-0.704-3.023-1.176
				c-0.904-0.441-2.039-0.822-2.855-1.344c-2.275-1.453-3.947-4.186-5.375-6.72c-1.469-2.603-3.188-5.574-3.191-8.567
				c2.668,0.522,3.77,2.612,6.215,3.359c-0.525,2.289-0.641,4.516,1.344,5.375c0.219-2.002,1.191-5.348,3.359-3.359
				c-0.67,1.66-3.297,5.71,0,6.383c-0.197-1.409-0.086-4.569,1.512-5.208c1.609,0.969-0.938,3.355,0.168,5.375
				c0.756-0.364,1.154-1.085,1.68-1.68c-0.615-0.124-0.934,0.414-1.344,0c-0.293-0.892,0.053-2.179,1.176-2.52
				c0.525,0.493,1.049,1.072,0.672,2.016c0.859-0.537,0.936,0.447,1.514,0.671c-0.279,1.125-2.006,1.689-2.186,2.352
				c1.357,0.181,1.293-1.059,2.688-0.84c0.271,2.882-0.047,6.355-1.176,8.735c-4.326,5.267-4.238,15.752-2.016,22.846
				c0.488,1.555,1.59,2.87,1.344,4.367c-2.598-2.52-5.699-4.17-9.574-5.208c-0.256-0.068-0.697-0.149-1.008-0.168
				c-4.207-0.256-7.152,1.88-8.568,4.368c-0.609,1.073-1.422,3.107-1.68,4.2c-0.213,0.904,0.326,2.036-0.84,2.688
				C44.675,53.778,44.819,52.788,44.632,52.021z M48.831,41.774c1.406-0.386,2.502-1.082,4.033-1.344
				c-0.873-0.918-1.951-1.634-3.191-2.184C49.13,39.452,48.882,40.392,48.831,41.774z M58.911,34.215
				c-0.973-1.229-4.176-1.033-3.527,1.008c0.736,0.177,0.551-0.568,1.176-0.504c2.828,1.659-1.24,3.88-2.855,1.848
				c-0.777-0.977-0.941-2.989,0-4.2c0.488-0.628,1.514-0.693,1.848-1.512c-0.42-0.139-0.66-0.46-1.178-0.504
				c-0.789,1.239-2.113,2.809-2.855,4.032c-0.664,1.098,2.143,2.818,3.025,3.527c1.979,0.324,3.459-0.033,4.535-1.008
				C59.306,35.932,59.138,35.133,58.911,34.215z M61.935,25.984c-0.75,0.05-1.064-0.854-1.848-0.84
				c-0.951,0.017-2.191,1.06-1.68,2.184c0.955,0.571,0.863-0.777,1.848-0.672c0.457-0.123,0.338,0.333,0.672,0.336
				c0.635,2.846-3.83,2.312-4.535,1.008c-0.15,0.074-0.301,0.147-0.336,0.336c-0.281,0.333,0.016,0.213,0,0.672
				c1.893,1,4.863,0.862,6.047-0.504C62.351,27.53,62.081,26.949,61.935,25.984z M58.743,40.095c0.795,0.605,2.285,0.514,3.359,0.84
				c0.062-1.126-0.361-1.768-0.336-2.855C60.337,38.33,60.073,39.744,58.743,40.095z M60.255,31.359
				c0.076,0.708,0.795,0.773,1.008,1.344c0.461-0.21,0.436-0.908,0.504-1.512C61.118,31.102,60.946,31.491,60.255,31.359z
				 M61.767,22.625c-0.016,0.745,0.934,0.522,1.176,1.008c0.521-0.431,0.639-1.264,1.008-1.848
				C63.313,21.489,62.296,22.253,61.767,22.625z"/>
			<path fill-rule="evenodd" clip-rule="evenodd" d="M71.005,102.417c-2.408-2.213-4.742-4.34-6.887-6.551
				c-4.975-5.131-9.527-10.902-12.766-17.471c-0.41-0.83-0.76-1.801-1.178-2.688c-2.436-5.181-5.496-12.2-4.535-19.99
				c1.451,0.436,1.006,1.983,1.346,3.024c0.527,1.629,1.754,3.378,2.855,5.039c1.141,1.724,2.115,3.608,3.191,4.704
				c0.895,0.913,2.684,2.454,4.199,2.352c5.455-0.367,1.889-14.722-3.359-11.423c-0.346,0.944,0.135,2.71-0.504,3.36
				c-1.039-0.731-2.004-2.209-2.857-3.695c-0.779-1.362-1.766-2.97-2.184-4.368c-1.006-3.37,1.283-7.719,3.865-9.239
				c0.857-0.505,2.812-1.193,4.031-1.176c2.684,0.037,4.271,1.709,6.719,2.352c1.475,1.531,3.039,2.795,4.367,4.368
				c1.443,1.704,2.633,3.614,3.695,5.543c1.439,2.612,2.879,5.455,4.033,8.399c1.176,3.002,1.625,6.661,2.184,10.248
				c0.559,3.609,0.846,7.424,1.006,11.086c0.301,6.809-0.283,14.832-1.68,20.158C74.47,105.801,72.728,104,71.005,102.417z
				 M52.864,57.901c4.691-2.354,9.889,2.583,10.078,8.063c5.07,0.081,7.604,2.7,11.254,4.199c-0.141-1.425-0.941-2.903-0.84-4.032
				c-2.217-4.104-3.732-8.646-6.551-12.095c-0.91-1.112-2.252-1.668-2.855-3.023c-0.924-0.169-1.561-0.824-2.352-1.344
				c-1.373-0.904-3.068-1.836-5.711-1.68c-2.34,0.139-3.807,0.761-4.535,2.856C50.317,53.821,51.591,56.376,52.864,57.901z
				 M52.358,73.692c-0.08,0.527,0.24,0.656,0.336,1.008c2.191-0.441,4.789-0.904,6.217,0.336c-0.189,2.562-2.387,3.986-2.688,5.879
				c0.854-0.08,1.588-0.98,2.352-2.016c1.141-1.545,2.916-3.803,0.504-5.543C57.013,73.612,54.028,73.565,52.358,73.692z
				 M53.368,76.211c0.469,0.986,0.928,1.984,1.512,2.855c0.584,0.168,1.143-0.785,1.512-1.344c0.389-0.59,0.936-1.352,0.84-2.184
				C55.894,75.073,54.374,75.795,53.368,76.211z M56.56,81.754c0.207,0.354,0.465,0.656,0.672,1.008
				c2.141-1.488,4.566-1.777,7.895-1.848c0.893,0.689,0.42,1.934,0.168,2.855c-0.223,0.822-0.531,1.898-0.84,2.688
				c-0.555,1.422-2.465,2.68-1.344,3.865c1.441-0.406,1.508-2.189,2.688-2.855c0.857-1.832,1.746-3.631,1.512-6.553
				C65.054,76.467,59.61,80.592,56.56,81.754z M58.407,84.274c0.863,1.152,1.566,2.467,2.688,3.361
				c1.271-1.025,2.129-2.463,2.352-4.537C61.942,82.651,59.763,83.559,58.407,84.274z M62.438,72.684
				c0.174-0.839,0.588-1.936,0.168-2.856c-0.734,0.443-0.619,1.733-1.512,2.016C61.063,72.674,61.925,72.874,62.438,72.684z
				 M63.95,74.196c0.373-1.258,0.766-3.055,0.84-4.536c0.033-0.632,0.203-1.918-0.504-2.184c-0.637,0.54-0.299,2.168-0.336,3.359
				C63.913,72.034,63.606,73.37,63.95,74.196z M63.95,91.499c1.338-0.422,2.219-1.539,3.527-2.016
				c0.182-0.066,1.27-0.252,1.68-0.336c0.596-0.123,1.27-0.221,1.848-0.168c1.311,2.826-0.807,5.523-1.512,7.895
				c1.09-0.039,1.76-1.494,2.184-2.52c0.98-2.363,1.387-5.143,0.168-7.055c-3.43-0.75-5.967,1.865-8.062,3.527
				C63.761,91.127,63.987,91.18,63.95,91.499z M65.294,92.674c0.48,1.143,1.289,1.957,2.52,2.352
				c0.607-1.201,1.57-2.891,1.514-4.199C67.886,91.346,66.62,92.04,65.294,92.674z M66.806,76.211
				c0.266-3.076,0.51-5.55-0.168-8.231c-0.4,0.462-0.176,1.424-0.168,2.352c0.008,0.899,0.064,1.96,0,2.856
				C66.39,74.323,65.583,76.006,66.806,76.211z M68.655,69.492c0.121,2.374,0.197,6.845,0.168,9.407
				c0.85-1.77,0.557-5.561,0.334-7.559C69.079,70.623,68.839,70.107,68.655,69.492z M70.837,98.217
				c1.064-0.6,2.568-2.416,3.865-1.68c0.342-0.32,0.336-0.73,0.166-1.176c-1.963-0.211-3.914,0.848-4.535,2.52
				C70.47,98.026,70.794,97.981,70.837,98.217z M71.677,83.098c0.98-3.447,0.658-8.027,0.168-11.758
				c-0.738-0.506-0.236-1.435-1.008-1.68c0.297,2.798,1.045,6.128,0.504,9.743C71.144,80.727,70.337,82.133,71.677,83.098z
				 M73.524,100.737c0.131-0.76,0.607-1.898,0.168-2.688c-0.812,0.082-1.086,0.705-1.848,0.84
				C71.757,100.155,72.739,100.348,73.524,100.737z M74.868,89.651c0.453-1.021,0.488-2.244,0.504-3.361
				c0.055-3.463-0.348-7.834-0.67-11.758c-0.068-0.812,0.328-1.549-0.338-2.184c-0.607,0.596-0.051,1.586,0,2.352
				c0.26,3.826-0.025,8.568-0.672,12.094C74.112,87.717,74.687,88.487,74.868,89.651z"/>
			<path fill-rule="evenodd" clip-rule="evenodd" d="M52.526,56.557c1.355,0.123,2.33-0.134,3.193-0.504
				c-0.039-0.689-0.355-1.1-0.672-1.512c-0.07-1.442-0.422-2.603-1.176-3.359c-0.135-0.93-0.168-1.961-1.008-2.184
				C52.026,50.782,51.214,54.657,52.526,56.557z"/>
			<path fill-rule="evenodd" clip-rule="evenodd" d="M54.374,48.998c0.332,2.132,1.064,3.865,2.018,5.375
				c1.711-1.256,3.809-2.127,5.375-3.527C60.253,49.09,57.425,48.826,54.374,48.998z"/>
			<path fill-rule="evenodd" clip-rule="evenodd" d="M56.392,55.885c1.516,0.723,3.012,1.468,4.367,2.352
				c0.668,0.053,0.455-0.777,1.008-0.84c-0.014,1.049-0.898,1.229-0.84,2.352c2.133-0.651,4.088-1.64,6.551-2.352
				c-0.918-1.713-1.408-3.854-3.191-4.704c-1.342,1.01-1.162,3.542-2.52,4.536c0.318-1.977,1.438-3.154,1.68-5.208
				c-1.969-0.804-3.574,0.879-4.871,1.848c-0.775,0.579-1.49,0.923-2.184,1.512C56.392,55.549,56.392,55.717,56.392,55.885z"/>
			<path fill-rule="evenodd" clip-rule="evenodd" d="M69.997,134.167c-2.24,2.033-4.283,3.826-6.551,5.879
				c-0.857,0.775-1.637,1.779-2.52,1.68c-1.158-0.131-2.406-2.1-1.512-3.527c2.943-0.809,5.254-2.248,7.895-3.359
				c0.504-1.049,1.758-1.291,2.688-1.85c1.654-0.99,3.176-2.309,4.535-3.527c0.791,0.174,0.646-0.584,1.512-0.336
				c0.445-1.293,1.994-1.479,2.521-2.688c0.982,0.145,0.842-0.838,1.68-0.84c1.673-2.023,3.8-3.59,5.543-5.543
				c1.765-1.977,3.561-3.941,5.375-5.879c3.641-3.887,6.76-8.197,10.08-12.432c0.201-0.861,0.75-1.627,1.176-2.352
				c1.362-2.324,2.93-4.346,4.367-6.551c0.301-1.248,0.963-2.203,1.512-3.359c0.552-1.164,0.811-2.477,1.344-3.697
				c0.531-1.213,1.314-2.418,1.848-3.695c2.002-4.795,4.075-9.49,4.535-15.286c0.512-0.274,1.076-0.493,1.848-0.504
				c0.666,15.777,1.814,30.052,5.713,43.507c0.361,0.424,0.904,0.664,0.84,1.514c-2.123,3.91-8.377,1.527-12.768,1.176
				c0.121-0.943,0.957-1.73,1.512-2.352c1.953-2.191,3.567-4.482,5.039-7.057c-2.547-1.148-6.16-1.229-9.406-1.68
				c0.617-1.307,1.832-2.555,2.688-3.527c0.371-0.42,0.871-0.643,1.176-1.008c0.324-0.391,0.519-0.791,0.84-1.176
				c0.995-1.189,2.371-2.25,2.52-3.695c-1.291,0.479-5.357-1.139-5.375,1.176c1.193-0.074,1.777,0.463,2.855,0.504
				c-0.164,1.123-1.326,1.527-2.016,2.184c-0.75,0.717-1.322,1.57-2.016,2.352c-1.33,1.502-2.998,2.91-3.695,5.039
				c1.574,0.141,3.645,0.084,5.039,0.336c1.082,0.195,2.449-0.043,3.36,0.168c0.422,0.098,1.071,0.459,1.343,0.84
				c-1.169,2.582-2.933,5.033-4.367,7.223c-0.469,0.717-1.191,1.473-1.176,2.354c2.93,0.201,6.148-0.062,9.072,0.168
				c-0.771,2.205-3.169,3.092-5.375,3.191c-3.836,0.17-7.545-0.387-11.088,0c-0.146-1.682-0.664-2.779-0.672-4.199
				c-1.188-1.334-1.012-4.027-2.185-5.377c-1.304,1.328-2.535,2.729-3.526,4.369c0.913,1.404,0.731,3.443,2.184,4.199
				c0.923,0.48,2.271-0.197,2.855,1.008c-4.08,0.482-7.763,0.846-10.92,2.184c-0.701,0.297-1.389,0.928-2.184,1.344
				c-2.748,1.441-6.092,3.035-7.727,5.207c-0.818-0.201-0.457,0.777-1.346,0.504C76.819,129.397,73.353,131.122,69.997,134.167z
				 M91.163,117.368c1.527,0.477,2.506-0.594,4.031-0.336c0.428-1.059-0.793-1.578-1.008-2.52
				C92.87,115.155,92.272,116.516,91.163,117.368z M112.497,89.819c0.072,0.479,1.237,0.264,2.017,0.336
				c0.634,0.059,1.55,0.113,2.015,0.168c0.371-2.035-0.182-5.053-0.671-7.225c-0.823,0.867-1.278,2.092-1.849,3.191
				c-0.557,1.078-1.071,2.184-1.68,3.193C112.302,89.678,112.366,89.782,112.497,89.819z M113.337,99.393
				c0.074,0.15,0.147,0.301,0.338,0.336c1.82,0.152,3.803,0.992,5.207,1.008c-0.375-1.986-0.92-5.229-1.346-6.887
				C116.106,95.667,114.663,97.471,113.337,99.393z M115.521,110.649c1.779,0.773,3.246,0.973,5.545,1.342
				c0.676-0.828-0.244-1.729-0.504-2.686c-0.371-1.359-0.35-3.041-0.672-4.537c-1.111,0.121-2.037,2.104-2.688,3.527
				C116.462,108.901,116.117,109.901,115.521,110.649z"/>
			<path fill-rule="evenodd" clip-rule="evenodd" d="M63.614,65.124c1.143-0.403,2.215-1.845,3.023-2.855
				c0.809-1.01,1.889-2.242,1.85-3.527c-2.357-0.073-4.814,0.756-6.385,1.68C62.571,62.024,63.347,63.32,63.614,65.124z"/>
			<path fill-rule="evenodd" clip-rule="evenodd" d="M72.685,67.644c-0.725-2.746-1.65-5.292-3.191-7.223
				c-1.002,0.273-1.385,1.324-2.016,2.016c-0.742,0.816-1.674,1.423-2.352,2.352c0.09,0.135,0.176,0.273,0.168,0.504
				C67.915,65.918,69.724,67.358,72.685,67.644z"/>
			<path fill-rule="evenodd" clip-rule="evenodd" d="M122.241,100.065c0.047-2.717-1.131-5.322-1.512-8.398
				c-1.02-8.223-1.486-17.018-1.512-25.702c0.539-0.479,1.428-0.692,2.016-0.672c0.697-0.082,0.262,0.969,0.84,1.008
				c0.777-0.541,0.941-1.086,1.848-1.176c1.969-0.194,2.648,1.741,3.359,3.192c1.07-1.586,3.178-0.744,4.367,0.168
				c-0.018,0.914,0.148,1.643,0.504,2.184c1.041-0.684,3.367-1.402,4.201,0c0.59,0.4-0.551,1.629,0.334,1.848
				c0.723-0.23,1.025-0.88,1.682-1.176c2.908,1.625,6.727,2.344,9.238,4.368c-1.252,0.146-2.73,0.16-3.527,0.336
				c-0.32,0.07-0.688-0.072-1.008,0c-3.182,0.717-5.559,3.137-7.057,5.207c-0.357,0.496-0.768,1.012-0.84,1.344
				c-0.398,1.881,0.549,3.379,1.01,4.199c0.791,1.416,0.656,0.994,1.846,1.848c0.537,0.385,0.754,0.658,1.176,0.842
				c1.732,0.75,3.033,0.332,4.705,0.168c1.037-1.332,2.441-2.578,2.352-4.537c-0.084-1.836-1.781-3.615-3.695-3.527
				c-1.027,0.047-3.152,1.334-2.855,2.855c0.135,0.699,1.174,1.641,1.848,0.504c-0.389-0.227-0.814-0.416-0.672-1.176
				c1.34-0.715,3.371,0.936,2.352,2.688c-1.08,0.875-3.291,1.752-4.535,0.674c-0.133-0.115-0.363-0.055-0.506-0.17
				c-0.959-0.777-1.553-2.863-1.344-4.199c0.223-1.42,1.438-2.303,1.682-3.359c3.34-2.5,10.182-1.463,11.758,2.016
				c0.557-0.844,0.703-2.096,1.008-3.191c1.102,0.531,2.789,0.865,3.023,2.016c0.178,0.869-1.203,4.031-1.68,5.543
				c-0.309,0.982-0.607,1.686-1.008,2.52c-1.41,2.943-2.227,4.979-3.863,7.561c-2.256,3.559-4.074,5.867-7.727,7.895
				c-1.725,0.957-3.752,2.035-5.375,2.352c-3.195,0.623-5.828-0.236-7.729-1.176c-0.451-0.062-0.744-1.146-1.176-0.672
				c-0.244,1.801,1.068,3.379,1.008,5.543c-0.426,0.303-0.762,0.695-1.512,0.674C124.216,107.276,123.644,103.03,122.241,100.065z
				 M122.409,75.875c3.631,1.855,7.182,3.793,11.086,5.375c0.912-1.4,2.051-2.531,3.191-3.695c1.119-1.139,2.396-2.061,3.529-3.191
				c-7.223-1.598-12.68-4.05-18.311-7.056C121.653,69.957,122.124,73.215,122.409,75.875z M122.577,78.563
				c1.842,1.506,4.574,2.68,7.223,3.695c0.752,0.289,1.658,1.025,2.352,0.504c-0.664-0.701-1.693-0.678-2.52-1.008
				C127.442,80.881,125.101,79.424,122.577,78.563z M122.913,81.25c-0.074,0.578,0.066,0.941,0.168,1.344
				c0.662,0.047,0.514-0.717,1.176-0.672C123.993,81.514,123.542,81.293,122.913,81.25z M123.249,84.778
				c1.293-0.498,2.602-0.982,3.359-2.016c-0.615,0.111-0.645-0.363-1.176-0.336C124.931,83.438,123.036,83.055,123.249,84.778z
				 M123.417,86.625c0.971,0.184,1.738-0.838,2.688-1.342c0.936-0.498,2.316-0.635,2.688-1.682c-1.27-0.119-2.234,0.689-3.023,1.176
				C124.925,85.299,123.956,85.786,123.417,86.625z M123.585,88.811c1.182-0.248,2.352-1.324,3.695-2.018
				c1.25-0.645,2.992-1.033,3.527-2.352c-1.32-0.197-2.268,1.027-3.359,1.68c-1.297,0.775-2.625,1.34-3.863,2.184
				C123.585,88.475,123.585,88.641,123.585,88.811z M123.753,90.155c0.131,0.148,0.182,0.379,0.168,0.672
				c1.723-0.854,3.688-1.465,4.703-3.025C126.821,88.407,125.628,89.622,123.753,90.155z M124.257,93.01
				c0.949-0.562,2.256-0.77,2.52-2.016C125.767,91.407,123.909,91.792,124.257,93.01z M124.593,94.858
				c0.428-0.018,0.396-0.627,0.168-0.84C124.333,94.036,124.364,94.643,124.593,94.858z M131.479,99.729
				c0.178-0.736-0.568-0.553-0.504-1.176c0.896-1.414,3.27-0.176,2.855,1.848c-0.322,1.576-2.225,1.396-3.695,1.848
				c-1.234-0.791-2.77-1.98-3.023-3.863c-0.262-1.939,0.775-3.539,1.68-4.871c4.789-2.502,12.357-0.436,12.264,6.215
				c1.9-2.748,4.09-5.205,5.375-8.566c-1.879,1.105-4.129,2.16-6.383,2.016c-4.053-0.26-6.791-3.25-7.729-6.889
				c-2.109,1.26-3.822,5.016-5.039,7.729c-0.949,2.115-1.539,3.791-0.336,6.215c0.58,1.17,1.633,2.324,3.023,2.855
				c0.352,0.135,1.24,0.314,1.512,0.336c2.197,0.182,4.605-1.078,4.873-3.359c0.346-2.984-1.926-3.389-4.705-3.695
				C130.331,96.702,129.239,99.545,131.479,99.729z"/>
			<path fill-rule="evenodd" clip-rule="evenodd" d="M148.614,96.538c2.896-1.248,4.406-3.881,7.055-5.375
				c-0.412-3.414,1.535-6.727,1.85-9.408c-0.4-0.354-1.182-0.635-1.682-0.504c-0.621,0.164-1.562,2.377-2.014,3.359
				c-1.645,3.568-3.441,9.301-5.377,11.424C148.399,96.305,148.604,96.323,148.614,96.538z"/>
			<path fill-rule="evenodd" clip-rule="evenodd" d="M156.509,90.155c0.916-0.094,1.463-0.555,2.186-0.84
				c0.191-0.816-0.406-2.422,0.334-2.689c0.697-0.023,0.176,1.17,0.336,1.68c0.023,0.742,0.682-0.311,0.84-0.504
				c0.869-0.363,1.303-1.16,1.682-2.016c-0.584-1.604-1.705-3.676-3.697-2.855C157.272,84.877,155.987,87.327,156.509,90.155z"/>
			<path fill-rule="evenodd" clip-rule="evenodd" d="M23.298,102.417c-1.27-0.682-2.604-1.49-3.527-1.848
				c-1.828-0.707-2.746-0.881-2.352-2.52c-0.012,0.051,0.203-0.223,0.168,0c0.107-0.668,0.008-1.363,0.168-2.016
				c0.131-0.533,0.479-1.09,0.672-1.68c0.197-0.604,0.459-1.256,0.672-1.848c0.494-1.375,1.01-2.404,1.512-3.527
				c0.084-0.188-0.08-0.484,0-0.674c0.73-1.719,2.217-3.381,2.688-5.039c1.113-1,1.803-2.572,2.688-3.863
				c0.92-1.342,2.092-2.6,2.352-4.031c-3.197,4.004-6.324,8.52-8.902,12.934c-0.6,1.025-1.428,2.199-1.848,3.193
				c-0.537,1.264-0.375,2.779-1.176,4.031c-0.729-3.68-1.645-6.895-2.352-10.08c-0.283-1.268-0.982-3.535-1.01-4.871
				c-0.049-2.66,1.43-4.045,1.85-6.047c0.408-1.945-0.025-3.469-0.168-5.376c0.338-1.061,1.605-1.195,1.848-2.352
				c-2.713,0.646-4.607-2.974-2.855-4.872c1.199-0.005,1.969-0.208,2.352,1.176c-0.176,0.609-1.27,0.298-1.344,1.008
				c0.232,0.552,0.541,1.027,1.344,1.008c2.73-3.651-2.877-5.356-5.545-4.535c-0.506-1.286-1.387-2.195-1.512-3.864
				c1.338,0.238,2.834-1.085,2.689-2.52c-0.125-1.226-1.836-2.237-2.857-0.84c0.49,0.35,1.729-0.047,1.68,0.84
				c0.287,1.032-0.791,1.259-1.176,1.344c-2.684,0.596-4.127-2.074-5.879-2.016c-1.135,0.038-1.273,1.15-2.688,0.84
				c-0.037-0.131-0.141-0.195-0.336-0.168c-0.955-1.084-0.15-2.071,0.168-3.359c0.215-0.873,0.297-1.941,0.504-3.024
				c0.201-1.057,0.605-2.157,0.672-3.023c0.061-0.794-0.197-1.566-0.168-2.352c0.021-0.554,0.289-1.109,0.336-1.68
				c0.047-0.567-0.08-1.197,0-1.68c0.434-2.602,2.469-4.142,2.688-6.047c0.271-2.358-0.475-4.196,0.674-6.047
				c0.518-0.84,1.5-1.431,2.182-2.184c1.541-1.704,2.709-3.361,3.865-5.208c0.502-0.805,1.094-1.952,2.184-2.352
				c1.248,0.977,1.678,2.468,3.191,3.023c1.08,0.397,2.85,0.107,3.359,1.008c-2.158,0.33-5.447,0.892-7.223,2.855
				c-0.27,0.298-0.475,1.003-0.842,1.512c-0.383,0.534-0.82,0.865-1.006,1.344c-0.932,2.398,0.893,3.854,2.688,4.703
				c1.127,0.534,2.773,0.445,3.527,1.512c-3.809-0.109-9.275,2.87-8.736,6.047c0.291,1.706,3.291,2.737,4.873,3.191
				c0.877,0.252,2.041,0.292,2.518,1.008c-1.211,0.507-2.605,0.69-3.863,1.008c-2.617,0.661-3.889,1.619-5.207,3.36
				c-0.5,0.661-1.463,1.504-1.008,2.52c1.658-0.86,3.418-1.693,5.209-2.52c1.736-0.801,3.537-1.755,5.375-2.352
				c1.443-0.468,3.189-0.358,4.367-1.512c-1.004-3.476-4.184-4.776-8.232-5.208c0.162-0.732,1.098-0.642,1.68-0.84
				c0.676-0.229,1.434-0.717,2.354-0.671c0.779-0.845,1.83-1.417,3.023-1.848c0.537-1.096,1.459-1.221,1.512-2.52
				c0.035-0.879-0.873-2.676-1.68-3.359c-0.838-0.711-2.396-1.123-3.359-1.176c-0.838-0.046-1.586,0.745-2.184-0.168
				c3.195-0.99,9.369-2.525,8.23-7.896c-0.293-1.383-1.512-2.021-2.688-2.855c-0.672,0.212-1.998,0.108-2.184-0.672
				c3.312-0.284,9.924-4.534,6.047-7.392c-0.572,0.042-0.807,0.425-1.512,0.336c0.119-0.783,0.906-1.333,1.512-1.848
				c0.58-0.492,1.25-1.065,1.848-1.512c0.666-0.498,1.463-0.744,2.184-1.176c0.594-0.355,1.211-1.331,2.016-1.008
				c0.096,1.515-0.723,3.008-1.176,4.536c-0.961,3.251-1.471,6.558-2.352,9.743c-0.508,1.833-1.461,3.887-1.176,5.375
				c-1.729,7.67-2.236,16.99-1.176,25.198c0.195,1.517,0.258,3.524,0.504,5.207c0.453,3.096,1.496,6.772,2.184,9.239
				c0.631,2.267,1.082,3.78,1.68,5.711c0.449,1.452,0.998,2.837,1.512,4.2c-0.098,0.635-0.971,1.371-0.672,1.848
				c0.557-0.059,0.199-1.033,1.01-0.84c1.021,1.781,1.766,3.719,2.686,5.375c0.322,0.58,0.812,1.07,1.176,1.68
				c0.363,0.607,0.453,1.402,0.84,2.016c0.508,0.803,1.271,1.527,1.85,2.352c1.189,1.695,2.168,3.25,3.359,4.873
				c0.559,0.762,1.061,1.645,1.68,2.352c2.764,3.16,6.018,5.561,9.072,8.23c1.641,1.436,3.275,2.869,5.039,4.199
				c1.604,0.58,2.471,1.896,4.199,2.352c3.742,3.48,9.377,5.07,15.455,6.217c0.018,2.117-0.922,3.527-1.85,5.207
				c-1.789,3.236-4.43,5.789-6.215,8.734c-1.83,1.531-3.666,3.949-4.871,5.545c2.025-1.057,2.807-3.354,4.871-4.369
				c0.74-1.611,1.963-2.74,3.191-3.863c-0.139-0.475,0.236-0.436,0.168-0.84c2.854-3.25,5.07-7.137,6.719-11.59
				c-2.316,0.355-4.75-0.924-6.215-1.68c-1.867-0.967-3.391-1.518-5.039-2.521c-1.879-1.143-4.391-2.406-5.879-3.695
				c-0.156-0.135-0.338-0.217-0.504-0.336c-2.379-1.709-4.771-3.311-7.057-4.871c-1.475-1.902-3.443-3.27-5.207-4.871
				c-1.797-1.633-3.311-3.496-4.871-5.375c-1.523-1.836-3.162-3.586-4.535-5.545c-0.695-0.992-1.076-2.221-1.68-3.359
				c-0.584-1.1-1.449-2.104-2.018-3.191c-2.414-4.627-3.996-9.714-6.215-14.783c-0.92-3.965-1.988-6.462-2.52-10.919
				c-0.279-2.348-0.65-5.244-0.84-7.056c-0.359-3.419-0.168-7.366,0-11.086c0.072-1.578-0.143-3.206,0-4.704
				c0.045-0.468,0.434-1.018,0.504-1.512c0.24-1.666,0.131-3.727,0.504-5.375c0.287-1.269,0.99-2.461,1.176-3.696
				c0.066-0.448-0.051-0.781,0-1.176c1.68-4.368,2.291-9.805,4.535-13.607c0.643-0.141,1.35-0.219,2.184-0.168
				c-0.797,2.91-1.525,5.62-2.352,8.231c-0.287,0.909-0.818,1.842-0.84,2.688c-0.006,0.233,0.301,0.206,0.338,0.336
				c0.045,0.168-0.203,0.354-0.168,0.672c0.141,1.319,1.725,2.755,2.518,3.863c0.826,1.152,1.568,2.296,2.354,3.36
				c1.73,2.346,3.779,4.302,5.207,6.383c0.807,0.201,1.018,0.998,1.848,1.176c2.135-3.969,5.088-7.119,8.064-10.247
				c-1.875-2.797-4.566-5.297-6.049-8.231c-1.42-2.809-2.812-6.013-3.361-9.407c0.541-0.193,1.172-0.397,1.682-0.168
				c1.197,7.425,5.115,12.133,9.07,16.798c1.43-0.979,2.889-1.928,3.865-3.359c-1.33-2.434-2.973-4.522-4.199-7.056
				c-1.184-2.438-2.852-4.995-3.193-8.231c0.998,0.158,1.678-0.324,2.352,0c2.842,4.719,4.107,11.012,8.064,14.614
				c0.344,1.471,2.199,2.057,1.68,3.864c-5.121,1.993-9.838,5.895-12.936,10.919c-0.994,1.616-2.264,3.562-3.023,5.543
				c-0.789,2.058-1.725,4.537-2.016,6.719c-0.053,0.388,0.193,0.754,0.168,1.176c-0.021,0.366-0.303,0.831-0.336,1.176
				c-0.414,4.177,0.188,8.914,0.504,11.591c0.5,4.241,0.877,9.003,1.848,12.431c1.184,4.173,3.031,8.026,5.209,10.919
				c0.803,2.107,2.281,3.758,3.525,5.543c2.953,4.23,6.225,8.254,9.408,12.096c1.098,1.326,2.527,2.404,3.191,4.031
				c1.883,1.598,3.439,3.494,5.207,5.207c1.756,1.701,3.379,3.586,5.377,5.041c0.172,0.723,0.746,1.043,1.008,1.68
				c1.486-3.166,1.936-6.818,2.52-10.92c0.18-1.266,0.531-2.482,0.672-3.695c0.303-2.602,0.112-5.148,0-7.727
				c-0.252-5.75-1.156-10.967-1.682-16.127c1.92-3.234,5.71-4.595,7.896-7.56c-2.191,1.719-4.811,2.829-7.055,4.368
				c-0.729,0.498-1.312,1.487-2.352,1.512c-0.475-1.076-0.199-2.431-0.338-3.696c-0.289-2.676-1.338-5.291-1.68-7.728
				c-0.832-1.187-1.207-2.642-2.016-3.863c-0.771-1.167-2-2.172-2.016-3.527c2.672,1.287,4.957,2.489,8.064,2.351
				c1.727-0.076,4.175-1.277,6.215-0.167c0.264-0.072,0.144-0.528,0.672-0.336c1.346,0.67,2.615,1.416,3.695,2.352
				c0.982,1.089,2.582,1.562,3.359,2.855c-0.434,0.965-1.959,0.84-2.184,2.016c0.922-1.204,3.877-2.593,4.031-0.504
				c0.066,0.887-1.271,1.173-1.343,2.184c-0.035,0.505,0.782,1.855,1.009,2.184c0.407,0.596,0.996,1.375,1.678,1.344
				c-0.062-2.064-0.741-3.513-1.007-5.375c1.728,0.227,2.229,2.535,2.352,4.536c0.05,0.803,0.332,2.254-0.504,2.52
				c-0.569,0.504-1.054-0.325-1.512-0.672c-0.401-0.303-1.098-0.745-1.513-1.176c-0.525-0.548-1.396-2.599-2.016-2.184
				c-0.766,0.513,0.186,1.946,0.672,2.688c1.245,1.895,2.497,3.225,4.032,4.536c0.854,0.729,1.824,1.537,2.856,1.68
				c0.75-3.645-0.195-7.646-1.176-10.583c0.648,0.302,1.295,0.607,2.016,0.84c1.129,1.659,1.534,5.761,1.344,8.4
				c-0.057,0.779-0.639,1.564,0,2.016c2.041-1.09,1.691-4.777,1.344-7.392c1.883-0.021,2.387,1.405,4.367,0.84
				c0.598-0.243,0.39-1.29,1.176-1.344c1.777-0.452,4.826-0.885,6.215-0.672c0.043,2.877-1.803,6.011-2.688,8.231
				c-0.733,1.842-1.125,3.562-1.848,5.207c-2.097,4.775-4.361,10.182-7.391,13.775c-1.471,3.289-4.073,5.445-5.376,8.902
				c-2.029,2.01-3.456,4.564-5.376,6.887c-1.39,1.686-2.967,3.398-4.367,4.873c-0.512,0.537-1.191,0.961-1.68,1.512
				c-0.697,0.787-1.133,1.893-1.848,2.688c-0.463,0.514-0.969,0.951-1.512,1.512c-4.201,4.336-9.35,8.252-14.111,11.758
				c-0.766,0.564-1.715,1.061-2.688,1.68c-1.738,1.109-4.99,4.211-6.551,2.186c0.504-6.443-2.398-10.322-5.545-13.607
				c-6.471-3.607-10.27-9.889-17.469-12.768c-0.039-0.598,0.947-0.172,0.84-0.84c1.002-4.203,2.279-8.133,3.695-11.926
				c-0.338-0.67-0.674-1.342-1.68-1.344c-0.592,1.266-1.389,2.652-1.848,4.199c-0.35,1.178-0.355,2.443-0.672,3.695
				c-0.463,1.828-1.557,3.672-1.178,5.545c-1.471-0.066-2.125-1.293-3.695-1.682c0.035-0.828,1.262,0.404,1.008-0.84
				c-0.9-0.355-1.516,0.785-2.352-0.168c-0.215-0.998,1.07-0.498,1.008-1.344c-1.525-1.584-2.908-3.648-5.039-4.703
				c-0.469-0.232-1.027-0.148-1.512-0.336c-0.426-0.166-0.723-0.652-1.176-0.84c-1.432-0.592-3.127-0.664-4.703-1.008
				c-0.381,0.402-0.371,1.199-0.672,1.68c2.049,0.746,4.846,1.242,6.551,2.352c0.662,0.432,1.576,1.186,1.512,2.016
				C25.835,104.133,24.589,103.11,23.298,102.417z M86.796,62.604c0.576-0.488,1.31-1.395,2.352-1.68
				c0.217-0.792,1.072-0.944,1.68-1.344c-0.06-1.259-0.586-1.124-1.68-1.176c-0.371,1.171-1.52,2.169-2.184,3.36
				C86.876,61.922,86.238,62.587,86.796,62.604z M8.683,50.678c1.342,0.149,2.775-0.513,4.031,0.504
				c1.512,1.223,1.627,5.056-0.168,6.719c3.289,1.051,6.898,2.584,6.217,7.055c1.604-1.139,2.896-2.59,4.367-3.864
				c-0.52-1.055-0.455-3.085-0.84-4.703c-0.668,0.115-0.725,0.842-1.008,1.344c-1.467,1.739-4.756,1.833-6.551,0.336
				c-0.043-1.252-0.662-1.357-0.672-2.352c-0.018-1.458,1.174-3.193,2.016-3.528c1.562-0.622,3.441,0.228,3.695,1.344
				c0.172,0.755,0.018,2.937-2.016,2.52c-0.602-0.336,0.025-1.123,0-1.848c-2.668-0.422-2.176,2.981,0,3.024
				c2.096,0.042,2.676-2.396,2.52-4.536C18.468,49.55,11.995,47.979,8.683,50.678z M19.771,75.204
				c-0.193-2.887-1.021-5.139-1.344-7.896c-1.443,0.237-1.879,1.482-2.855,2.184C15.778,72.588,16.772,74.897,19.771,75.204z
				 M16.747,46.814c-0.027,0.195,0.037,0.299,0.168,0.336c1.877,0.81,3.732,1.642,4.703,3.359c0.033-1.307-0.109-3.229-0.504-4.872
				C19.575,45.947,18.14,46.359,16.747,46.814z M18.259,85.284c1.238-0.395,1.557-1.721,2.184-2.689
				c0.625-0.967,1.566-1.828,1.848-3.023c-1.793-0.672-3.225-1.703-5.375-2.016C16.688,80.143,18.04,82.583,18.259,85.284z
				 M25.146,69.66c-0.1-2.028-1.564-4.146-1.68-6.719c-2.084,0.548-2.719,2.545-4.367,3.528
				C20.56,68.086,23.188,68.538,25.146,69.66z M36.905,93.682c-1.422-2.883-5.82-4.627-9.912-5.041
				c-1.426-0.143-3.332-0.395-4.367,0.506c0.648,0.668,1.598,0.359,2.352,0.504c3.207,0.613,5.75,2.189,7.391,4.367
				c-2.773,1.693-8.322,1.566-12.094,0.84c-0.145,0.135-0.1,0.461-0.336,0.504c0,0.168,0,0.336,0,0.504
				C25.624,97.336,33.298,96.665,36.905,93.682z M21.114,93.178c2.426,0.641,5.559,1.131,8.568,0.672
				c-1.533-1.996-4.545-2.512-7.729-2.855C21.601,91.649,21.038,92.092,21.114,93.178z M22.29,72.012
				c0.281,2.127,0.598,4.219,0.84,6.383c0.85-0.531,0.971-1.578,1.512-2.352c0.482-0.689,1.438-1.195,1.512-2.184
				C25.237,72.872,23.733,72.471,22.29,72.012z M35.226,89.651c-1.91-3.578-4.518-6.459-5.881-10.584
				c-2.352,1.959-3.559,5.064-5.207,7.727c-0.027,0.197,0.037,0.299,0.17,0.338C28.54,87.434,31.446,88.624,35.226,89.651z
				 M26.825,98.553c2.748,1.342,4.705,3.471,6.887,5.375c0.336-2.545-2.951-2.852-3.527-5.039c2.395-0.631,5.658-0.391,5.711-3.359
				C33.415,97.081,30.397,98.094,26.825,98.553z M28.505,33.375c0.785-0.336,0.264-1.251,0.338-1.848
				c0.377-3.12,1.076-6.696,1.68-9.743c0.365-1.854,1.105-3.521-0.506-4.872c-0.303,0.246-0.703,1.162-0.84,1.68
				c-1.098,4.166-1.014,8.864-1.68,13.774C28.079,32.457,28.007,33.202,28.505,33.375z M27.665,43.454c0,0.168,0,0.336,0,0.504
				c1.66,0.575,3.299,1.124,5.041,1.68c2.043,0.653,3.846,1.855,6.047,1.848c0.035-0.601-0.729-0.884-1.176-1.176
				c-0.998-0.65-2.307-0.93-3.529-1.68c-0.605,0.339-0.812-0.017-1.342-0.168c0.064-1.332,1.654-1.019,2.52-1.344
				c0.664-0.249,1.379-0.814,2.016-1.176c0.639-0.362,1.561-0.612,1.68-1.344C35.714,41.52,31.183,42.06,27.665,43.454z
				 M28.673,55.045c0.482,0.901,2.166,0.206,3.023,1.007c2.762-0.198,5.137,0.605,7.729,0.336c0-0.224,0-0.448,0-0.672
				c-1.07-1.104-4.574-0.878-6.217-1.512c1.426-2.159,5.391-1.777,5.713-5.039c-0.777-0.325-1.404,0.794-2.352,0.84
				c-2.004,2.196-5.223,3.176-7.896,4.704C28.673,54.821,28.673,54.934,28.673,55.045z M32.538,35.727
				c-0.023-4.994,0.365-8.621,1.51-12.599c-0.594-0.468-0.477-1.65-1.68-1.512c-0.762,4.107-1.777,10.195-1.006,13.775
				C31.892,35.363,31.923,35.838,32.538,35.727z M31.864,65.964c-0.047,0.271,0.16,0.289,0.168,0.504
				c2.377,0.316,6.234-0.344,9.24-0.84c0.328-1.201-0.725-0.767-1.512-0.84c-1.523-0.142-3.582-0.063-4.871,0.336
				c0.691-1.426,2.418-2.212,3.527-3.359c0.793-0.82,1.713-1.993,1.512-3.36C36.636,60.32,34.603,63.494,31.864,65.964z
				 M32.032,99.729c0.312,1.088,1.15,1.65,2.016,2.184c0.043-1.246,0.809-1.768,0.842-3.023
				C33.694,98.926,33.226,99.688,32.032,99.729z M34.722,37.407c0.832-0.35,0.412-1.333,0.504-2.016
				c0.4-3.042,0.863-6.208,1.848-8.567c-0.375-0.415-0.977-1.482-1.514-1.176c-0.668,0.2-0.367,0.967-0.502,1.512
				c-0.465,1.87-1.123,4.728-1.178,7.391C33.858,35.632,33.847,36.859,34.722,37.407z M36.905,38.079
				c0.541,0.299,0.998,0.682,1.848,0.672c0.635-2.612,1.387-5.109,2.52-7.224c-0.811-1.093-1.521-2.287-2.855-2.855
				C37.249,31.676,37.272,34.276,36.905,38.079z M37.745,78.563c0.752-0.182,0.816-0.988,1.176-1.512
				c0.842-1.232,1.924-2.205,3.023-3.191c0.623-0.16,1.592,0.023,1.848-0.504c-0.432-1.035-1.824-0.035-2.52,0.336
				c-0.375,0.199-0.717,0.586-1.176,0.84c-0.854,0.473-1.307,0.49-2.018,1.176c-0.309,0.301-0.449,0.721-1.006,0.84
				C36.946,77.571,37.446,77.967,37.745,78.563z M37.241,74.364c1.84,0.055,2.699-1.627,3.693-3.192
				c0.938-1.47,1.941-2.897,0.842-3.863c-1.852,1.843-2.773,4.618-4.535,6.552C37.241,74.028,37.241,74.196,37.241,74.364z
				 M39.593,107.624c2.25,0.271,4.604,0.436,6.887,0.672c-1.176-3.357-2.814-6.256-4.031-9.574c-0.465,0.041-0.385,0.625-0.672,0.84
				c0.695,2.441,1.68,4.592,2.688,6.719C43.343,107.542,39.323,105.262,39.593,107.624z M43.792,86.122
				c2.504,0.477,3.68-4.287,1.68-4.703c-0.65,0.473-0.295,1.355-1.344,1.512c-0.775,0.117-1.492-0.451-1.68-1.176
				c-0.521-2.014,1.553-3.879,3.695-3.191c-0.217-0.678-0.504-1.287-1.008-1.68c-1.754-0.066-3.859,1.734-4.535,2.855
				C38.87,82.614,41.321,84.872,43.792,86.122z M40.097,105.44c0.971-0.182,1.957,0.309,2.52,0
				c-0.223-1.457-0.795-2.562-1.176-3.863C40.71,102.583,40.284,103.893,40.097,105.44z M42.28,109.471
				c0.668,1.166,2.922,1.502,4.199,1.514c1.379,1.141,1.365,3.674,2.689,4.869c-0.074-1.775-1.238-3.912-1.85-5.709
				C45.501,110.057,44.226,109.43,42.28,109.471z M44.968,88.641c0.746,1.102,1.357,2.342,2.688,2.857
				c-0.086-2.719,1.439-3.824,3.697-4.199c-0.408-1.385-1.115-2.471-2.184-3.193C48.661,86.512,47.142,87.905,44.968,88.641z
				 M45.304,100.401c-0.143-0.031-0.158,0.066-0.168,0.168c1.283,2.525,2.1,5.518,3.361,8.062c2.768-0.223,4.887,0.867,7.559,0.506
				c-1.271-1.584-5.156-0.557-6.887-1.682C47.94,105.045,47.304,102.042,45.304,100.401z M49.169,103.928
				c-0.098,0.773,0.623,2.172,1.006,3.025c0.785,0,1.568,0,2.352,0C51.569,105.784,50.216,105.008,49.169,103.928z M49.001,110.145
				c0.322,0.992,0.934,2.443,1.344,3.695c0.395,1.207,0.488,2.693,1.512,3.359c0.893-1.818-1.18-3.201-1.01-5.377
				c1.971-0.682,6.408,1.783,7.225-0.838C54.993,110.758,52.206,110.241,49.001,110.145z M51.353,92.17
				c-0.438-0.938-0.85-1.83,0.334-2.016c0.812-0.129,1.885,1.043,1.85,2.184c-0.051,1.566-1.48,2.09-2.689,2.52
				c0.256,0.754,0.859,1.156,1.512,1.512c0.91-0.709,1.936-1.818,2.354-3.191c0.354-1.166-0.578-3.324-1.68-3.863
				c-0.674-0.33-2.291-0.098-2.688,0.168C49.386,90.12,48.894,93.143,51.353,92.17z M52.358,112.833
				c-0.023,1.312,0.51,2.066,1.01,2.855c1.598-0.193,2.068-1.516,2.855-2.52C55.063,112.926,53.728,112.864,52.358,112.833z
				 M52.526,119.047c0.043,0.211,0.336,0.17,0.338,0c3.209-1.549,5.32-4.199,7.055-7.225
				C57.774,114.551,55.532,117.18,52.526,119.047z M57.063,100.569c1.121-0.828,2.512-1.822,2.352-3.191
				c-0.127-1.07-2.377-2.535-2.855-3.527c-0.52,0.152-0.559,0.785-0.672,1.344c-0.787,0.781-1.293,1.842-2.016,2.688
				C54.546,99.167,55.843,99.831,57.063,100.569z M57.063,119.215c1.508,3.42,3.238,6.617,4.871,9.91
				c1.625-1.51,2.799-3.473,4.199-5.207c-0.668-1.023-1.957-1.412-3.023-2.016c-1.721-0.975-3.377-1.916-5.543-2.688
				C57.399,119.215,57.231,119.215,57.063,119.215z M67.813,106.786c0.08-0.924-1.041-1.406-1.68-2.018
				c-0.908-0.867-1.787-1.68-2.352-2.855c-0.643-0.211-0.943-0.781-1.512-1.344c-0.316-0.312-1.109-1.352-1.344-1.344
				c-0.908,0.029-1.045,1.85-2.016,2.352c0,0.168,0,0.336,0,0.504C61.38,104.149,64.526,105.536,67.813,106.786z M62.774,113.336
				c1.262,3.105,2.926,5.809,4.199,8.902c1.723-1.58,2.439-4.168,3.527-6.385C67.776,115.167,65.214,114.311,62.774,113.336z
				 M75.038,122.407c0.562,0.66,1.094-1.018,1.51-0.504c0.609-0.697,0.049-1.162,0-2.016C75.62,120.301,75.476,121.5,75.038,122.407
				z M76.548,119.551c1.043-0.357,3.045,0.242,3.361-0.84c-0.42-0.814-0.881-1.584-1.01-2.688c0.943-0.818,3.272,0.414,4.537-0.17
				c-0.275-2.41-2.053-3.322-2.855-5.205c2.326,0.248,3.945,1.205,6.215,1.512c-0.312-2.553-2.416-4.748-4.367-6.217
				c-1.42,0.811-1.55,2.762-1.848,4.369c-0.062,0.332-0.275,0.33-0.336,0.504c-0.58,1.668-1.402,3.207-1.68,4.871
				c-0.027,0.197-0.307,0.141-0.506,0.166C77.817,117.348,76.851,118.118,76.548,119.551z M79.405,62.604
				c0.072,0.653,0.127,1.329,0.336,1.848c0.783,0,1.567,0,2.352,0c1.35-0.945,2.176-2.415,2.855-4.031
				c-0.383-1.148-0.363-2.548-1.344-3.192c-1.181-0.776-2.686-0.389-3.863,0.504c-0.068,1.356,0.032,2.542,1.344,2.52
				c-0.155-0.852-0.197-1.229,0.336-1.68c2.96-0.806,2.514,3.831,0.672,4.368C81.171,63.209,80.608,62.504,79.405,62.604z
				 M79.741,66.132c-0.119,0.734,0.285,0.946,0.168,1.68c0.564-0.499,1.074-1.052,1.344-1.848
				C80.727,65.999,80.019,65.851,79.741,66.132z M82.429,76.715c0,0.615,0,1.232,0,1.848c0.34,0.52,0.966,1.135,1.68,1.848
				c1.051,1.051,1.827,1.924,3.191,2.855c1.38,0.943,2.141,1.107,3.527-0.168C87.784,81.215,84.997,79.073,82.429,76.715z
				 M83.268,86.961c1.846-0.17,2.792-1.24,4.032-2.016c-1.437-1.25-2.917-2.457-4.367-3.695
				C82.792,82.926,82.702,85.176,83.268,86.961z M91.163,80.747c0.341-4.809,0.071-9.111-1.512-12.599
				c-0.548,0.239-1.217,0.609-1.344,1.176c-0.148,0.658,0.484,1.188,0.672,2.016c0.406,1.786,0.031,3.799,0.168,5.543
				c-2.172-0.627-3.422-2.178-4.535-3.863c-0.855,0.041-1.066,0.727-1.68,1.008c0.925,1.539,2.416,3.314,3.863,4.535
				C88.011,79.588,89.581,80.618,91.163,80.747z M87.804,93.178c0.082,0.869,1.375,0.529,1.513,1.344
				c-0.147,1.746-2.649,2.293-3.528,0.84c-1.294-2.141,0.725-5.836,2.52-6.383c6.054-0.537,6.021,6.826,3.864,10.414
				c3.038-1.027,4.969-4.15,3.695-8.062c1.065,0.076,1.341,0.783,2.856,0.168c0.886-0.361,2.328-1.164,2.688-1.848
				c0.117-0.225-0.078-0.646,0-1.01c0.051-0.238,0.481-0.537,0.336-1.342c-0.235-1.287-3.109-2.889-3.359,0
				c0.738,0.574,0.695-0.793,1.512-0.674c1.545,0.486,1.348,2.17,0.168,2.857c-3.143,0.527-4.328-2.18-3.695-4.033
				c0.488-1.432,2.627-2.412,4.199-2.184c1.826,0.268,2.717,1.982,3.191,3.527c2.443-1.459,1.76-4.23-0.504-5.543
				c-0.429-0.248-1.244-0.643-1.344-0.672c-4.087-1.168-8.849,2.512-7.391,7.559c-1.752-0.029-2.553-2.059-4.873-1.848
				c-2.275,0.209-2.823,1.139-4.199,2.689c-0.994,1.119-2.188,2.4-2.185,4.367c0.005,2.189,1.059,3.887,2.688,4.703
				c1.049-0.225,2.467-0.094,3.36-0.84C90.845,95.932,91.032,92.649,87.804,93.178z M83.772,105.272
				c-0.048,0.271,0.158,0.289,0.168,0.504c2.412,0.223,4.271,1.398,6.887,1.848c-0.006-2.008-1.467-2.562-1.848-4.199
				C86.921,103.717,85.722,104.87,83.772,105.272z M84.78,56.221c0.337,0.67,0.742,1.273,1.008,2.016
				c0.475-0.253,0.586-0.871,0.672-1.512C85.854,56.603,85.646,56.083,84.78,56.221z M87.804,74.7
				c-0.139-1.477-0.035-2.723-0.504-4.368C84.514,71.056,85.626,73.903,87.804,74.7z M86.964,66.468
				c0.496-0.232,0.68-0.776,1.176-1.008C87.964,65.351,87.017,65.897,86.964,66.468z M88.476,65.292
				c0.549,0.045,0.355-0.651,0.841-0.672C89.063,64.218,88.476,64.886,88.476,65.292z M89.651,102.752
				c-0.048,0.271,0.159,0.289,0.168,0.504c1.488,0.197,2.723,1.186,4.2,0.504c-0.207-1.025-0.786-1.678-1.345-2.352
				C91.323,101.512,90.739,102.385,89.651,102.752z M92.844,71.171c0.579,3.677,0.896,7.179,0.167,10.583
				c2.502-0.299,1.508-4.092,2.016-6.383c1.428,0.465,3.789,3.371,5.209,1.176C97.159,75.366,95.304,72.967,92.844,71.171z
				 M93.852,100.401c0.081,0.76,1.075,0.604,1.848,0.672c0.903-0.943,1.808-1.889,2.184-3.359
				C96.312,98.381,95.142,99.452,93.852,100.401z M95.699,79.907c1.509,0.053,1.519-1.393,2.856-1.512
				c-0.618-0.727-1.938-0.75-2.521-1.512C95.905,77.934,95.456,78.967,95.699,79.907z M106.786,77.555
				c-0.687,0.678-0.488,1.516-1.512,1.344c-1.106-0.186-0.9-2.037-0.168-2.855c1.712-0.547,2.564,0.646,3.359,1.512
				c1.986-3.561-2.397-4.289-4.535-2.016c-0.322,0.342-0.955,1.416-1.008,2.016c-0.114,1.277,0.85,3.035,1.848,3.191
				C106.508,81.018,107.351,79.088,106.786,77.555z M104.602,69.492c0.276,1.115-0.167,2.255,0.169,3.192
				c0.972-0.709,1.604-1.756,2.184-2.856C105.999,69.887,105.513,69.478,104.602,69.492z"/>
		</g>
	</g>
</g>
</svg>
