<?xml version="1.0" encoding="utf-8"?>
<!-- Generator: Adobe Illustrator 15.0.0, SVG Export Plug-In . SVG Version: 6.00 Build 0)  -->
<!DOCTYPE svg PUBLIC "-//W3C//DTD SVG 1.1//EN" "http://www.w3.org/Graphics/SVG/1.1/DTD/svg11.dtd">
<svg version="1.1" id="Layer_1" xmlns="http://www.w3.org/2000/svg" xmlns:xlink="http://www.w3.org/1999/xlink" x="0px" y="0px"
	 width="233.52px" height="43.057px" viewBox="0 0 233.52 43.057" enable-background="new 0 0 233.52 43.057" xml:space="preserve">
<g>
	<g id="_x38_BYF8G.tif">
		<g>
			<path fill-rule="evenodd" clip-rule="evenodd" d="M224.968,0.358c0.491,0.044,1.308-0.282,1.914-0.12
				c0.332,0.089,0.605,0.506,1.016,0.658c1.323,0.49,3.035-0.094,4.066,0.299c0.384,0.146,0.533,0.607,0.778,0.957
				c0.274,0.392,0.579,0.638,0.777,0.957c0,0.219,0,0.439,0,0.658c-0.551,0.303,0.115,0.628-0.18,1.136
				c-0.357,0.616-1.493,0.448-2.152,0.12c-0.615,0.521-1.546,0.727-2.213,1.196c-0.249,1.266-1.208,1.987-1.316,3.289
				c-0.104,1.274-0.039,2.477-0.238,3.648c-0.185,1.084-0.487,2.133-0.778,3.169c-0.573,2.048-1.293,3.95-2.631,5.262
				c-1.198,1.177-2.843,1.385-4.664,2.213c0.171,2.095-0.709,4.037-0.539,5.98c0.038,0.432,0.252,0.842,0.3,1.256
				c0.076,0.658-0.115,1.308-0.06,1.974c0.039,0.477,0.221,1.016,0.358,1.496c0.143,0.499,0.276,1.032,0.418,1.495
				c0.389,1.258,1.283,2.123,1.495,3.467c0.228,0.168,0.654,0.411,1.256,0.479c0.642,0.072,1.197-0.086,1.315,0.419
				c0.074,0.311-0.03,0.713-0.478,0.718c0.044,0.303-0.148,0.369-0.239,0.538c-0.902,0.098-2.891,0.36-3.409-0.359
				c-0.271-0.377-0.064-0.923-0.119-1.495c-0.042-0.427-0.287-0.979-0.419-1.494c-0.267-1.048-0.541-2.106-0.837-3.11
				c-0.154-0.522-0.229-1.142-0.419-1.555c-0.151-0.329-0.466-0.545-0.598-0.837c-0.296-0.65-0.2-1.323-0.419-2.093
				c-0.178-0.628-0.575-1.178-0.777-1.794c-0.22-0.666-0.363-1.373-0.538-2.034c-0.178-0.667-0.411-1.298-0.658-1.913
				c-0.241-0.601-0.366-1.383-1.017-1.615c-0.643,0.51-0.786,1.387-1.076,2.152c-0.28,0.741-0.629,1.51-0.957,2.273
				c-0.509,1.181-1.069,2.248-1.256,3.588c-0.062,0.449-0.051,0.958-0.18,1.436c-0.136,0.505-0.51,0.828-0.598,1.315
				c-0.092,0.516,0,1.183,0,1.794c0,1.834-0.089,3.652,0.479,4.904c0.745,0.272,1.41,0.622,1.555,1.495
				c-0.15,0.249-0.47,0.328-0.896,0.299c0.004,0.183,0.219,0.311,0.06,0.478c-0.459,0-0.917,0-1.376,0
				c-0.77-0.108-1.764-0.372-1.794-1.077c-0.016-0.368,0.38-0.467,0.3-0.837c-0.788-0.109-1.859,0.064-2.273-0.418
				c-0.104-0.307-0.045-0.639,0.061-0.897c-0.861-0.636-0.898-2.052-1.256-3.17c-0.714-2.229-2.22-3.825-2.572-6.398
				c-0.243-1.778-0.623-3.315-1.136-4.844c-0.214-0.635-0.517-1.383-0.777-2.212c-0.141-0.445-0.399-2.049-0.957-2.033
				c-0.706,0.02-0.387,1.011-0.358,1.436c0.129,1.977-0.592,2.629-1.137,3.946c-0.305,0.738-0.692,1.689-0.598,2.691
				c0.031,0.333,0.23,0.701,0.239,1.017c0.02,0.72-0.31,1.474-0.538,2.273c-0.131,0.454-0.069,1.14-0.12,1.854
				c-0.103,1.435-0.306,3.786-0.179,5.023c0.138,1.36,1.531,1.303,1.793,2.571c-0.037,0.322-0.538,0.18-0.777,0.299
				c0.048,0.228,0.094,0.394-0.179,0.419c-0.678,0.056-2.241,0.427-2.571-0.419c-0.159-0.408,0.178-1.043,0.299-1.555
				c0.189-0.804,0.171-1.818,0.239-2.811c0.067-0.994,0.179-2.016,0.179-2.93c0-1.874-0.505-3.629-0.299-5.562
				c0.046-0.431,0.211-0.858,0.239-1.256c0.146-2.046-0.279-3.479-0.598-4.963c-0.218-1.011-0.343-1.969-0.718-2.811
				c-1.035,0.62-1.909,1.4-3.229,1.734c0-0.16,0-0.319,0-0.479c0.277-1.239,1.688-1.475,2.272-2.332
				c0.424-0.622,0.273-1.776,0.239-2.69c-0.025-0.694-0.062-1.386,0-2.034c0.134-1.399,0.729-2.484,1.256-3.589
				c0.295-0.616,0.532-1.066,0.896-1.554c0.333-0.446,0.812-0.797,1.137-1.316c0.349-0.558,0.554-1.347,0.777-2.093
				c0.215-0.713,0.33-1.581,0.718-2.213c0.308-0.502,1.379-1.254,2.094-1.436c1.708-0.432,2.215,0.79,2.75,1.854
				c0.212,0.421,0.698,1.921,1.196,1.974c0.374,0.04,0.738-0.432,0.956-0.778c0.749-1.183,0.644-2.855,1.018-3.528
				c0.211-0.379,0.77-0.777,0.957-0.836c2.406-0.773,4.358,0.567,5.023,2.033c0.225,0.497,0.277,1.119,0.598,1.614
				c0.357,0.552,1.491,1.264,2.033,1.914c0.648,0.778,0.975,1.596,1.436,2.393c0.522,0.904,1.439,2.244,2.332,2.631
				c0.678,0.294,2.127,0.335,2.571-0.12c0.386-0.395,0.433-1.56,0.538-2.572c0.11-1.061,0.194-2.219,0.12-3.05
				c-0.067-0.747-0.483-1.29-0.479-2.033c0.007-1.179,0.645-1.901,1.076-2.691c0.255-0.466,0.489-0.988,1.017-1.196
				c0.18,0,0.358,0,0.539,0C224.358,0.088,224.649,0.329,224.968,0.358z M204.934,23.801c-0.048,0.012-0.06,0.061-0.119,0.06
				c-0.218,1.294,0.084,2.613,0.06,3.947c-0.024,1.322-0.153,2.576,0,3.827c0.136,1.108,0.439,2.292,0.718,3.349
				c0.541,2.061,1.153,3.736,2.811,4.605c0.437-1.446,0.641-2.779,0.538-4.306c-0.083-1.244-0.566-2.411-0.479-3.648
				c0.056-0.774,0.31-1.52,0.239-2.571c-0.104-1.565-0.419-3.17-0.358-4.784c-0.008-0.17-0.293,0.004-0.538,0.06
				C206.827,24.563,205.706,24.197,204.934,23.801z"/>
		</g>
	</g>
	<g id="_x38_BYF8G.tif_1_">
		<g>
			<path fill-rule="evenodd" clip-rule="evenodd" d="M161.302,0.358c0.49,0.044,1.307-0.282,1.914-0.12
				c0.332,0.089,0.605,0.506,1.016,0.658c1.322,0.49,3.035-0.094,4.066,0.299c0.383,0.146,0.533,0.607,0.777,0.957
				c0.275,0.392,0.58,0.638,0.777,0.957c0,0.219,0,0.439,0,0.658c-0.551,0.303,0.115,0.628-0.18,1.136
				c-0.357,0.616-1.492,0.448-2.152,0.12c-0.615,0.521-1.545,0.727-2.213,1.196c-0.248,1.266-1.207,1.987-1.316,3.289
				c-0.104,1.274-0.039,2.477-0.238,3.648c-0.184,1.084-0.486,2.133-0.777,3.169c-0.574,2.048-1.293,3.95-2.631,5.262
				c-1.199,1.177-2.843,1.385-4.665,2.213c0.171,2.095-0.709,4.037-0.539,5.98c0.038,0.432,0.252,0.842,0.3,1.256
				c0.076,0.658-0.115,1.308-0.06,1.974c0.039,0.478,0.221,1.016,0.358,1.495c0.143,0.499,0.276,1.033,0.418,1.496
				c0.389,1.258,1.283,2.122,1.495,3.467c0.228,0.168,0.655,0.411,1.256,0.479c0.641,0.072,1.197-0.086,1.314,0.419
				c0.074,0.311-0.029,0.713-0.477,0.718c0.043,0.303-0.148,0.369-0.24,0.538c-0.902,0.098-2.89,0.36-3.409-0.358
				c-0.271-0.377-0.064-0.924-0.119-1.496c-0.042-0.426-0.287-0.979-0.419-1.494c-0.267-1.047-0.541-2.105-0.837-3.109
				c-0.154-0.523-0.229-1.143-0.419-1.556c-0.151-0.329-0.466-0.545-0.598-0.837c-0.296-0.65-0.2-1.322-0.419-2.094
				c-0.178-0.627-0.575-1.178-0.777-1.794c-0.22-0.665-0.363-1.372-0.538-2.034c-0.178-0.666-0.411-1.298-0.658-1.912
				c-0.241-0.601-0.366-1.383-1.017-1.615c-0.643,0.51-0.786,1.388-1.076,2.152c-0.28,0.741-0.629,1.511-0.957,2.273
				c-0.509,1.181-1.069,2.248-1.256,3.588c-0.062,0.449-0.051,0.958-0.18,1.436c-0.136,0.506-0.51,0.828-0.598,1.315
				c-0.092,0.516,0,1.183,0,1.794c0,1.834-0.089,3.652,0.479,4.904c0.745,0.271,1.41,0.622,1.555,1.494
				c-0.15,0.249-0.47,0.328-0.896,0.3c0.004,0.183,0.219,0.312,0.06,0.478c-0.459,0-0.917,0-1.376,0
				c-0.77-0.107-1.764-0.371-1.794-1.076c-0.016-0.368,0.38-0.467,0.3-0.837c-0.788-0.109-1.859,0.063-2.273-0.419
				c-0.104-0.307-0.045-0.639,0.061-0.896c-0.861-0.636-0.898-2.053-1.256-3.17c-0.714-2.229-2.22-3.824-2.572-6.398
				c-0.243-1.777-0.623-3.315-1.136-4.844c-0.214-0.636-0.517-1.383-0.777-2.213c-0.141-0.445-0.399-2.049-0.957-2.033
				c-0.706,0.02-0.387,1.012-0.358,1.436c0.129,1.977-0.592,2.629-1.137,3.946c-0.305,0.737-0.692,1.688-0.598,2.691
				c0.031,0.333,0.23,0.701,0.239,1.017c0.02,0.721-0.31,1.474-0.538,2.273c-0.131,0.453-0.069,1.139-0.12,1.854
				c-0.103,1.435-0.306,3.785-0.179,5.022c0.138,1.36,1.531,1.304,1.793,2.571c-0.037,0.322-0.538,0.18-0.777,0.299
				c0.048,0.229,0.094,0.395-0.179,0.42c-0.678,0.056-2.241,0.427-2.571-0.42c-0.159-0.407,0.178-1.043,0.299-1.555
				c0.189-0.803,0.171-1.817,0.239-2.811c0.067-0.994,0.179-2.016,0.179-2.93c0-1.874-0.505-3.63-0.299-5.562
				c0.046-0.43,0.211-0.857,0.239-1.256c0.146-2.046-0.279-3.479-0.598-4.963c-0.218-1.011-0.343-1.969-0.718-2.811
				c-1.035,0.62-1.909,1.4-3.229,1.735c0-0.16,0-0.319,0-0.479c0.277-1.239,1.688-1.475,2.272-2.332
				c0.424-0.622,0.273-1.776,0.239-2.69c-0.025-0.694-0.062-1.386,0-2.034c0.134-1.399,0.729-2.484,1.256-3.589
				c0.295-0.616,0.532-1.066,0.896-1.554c0.333-0.446,0.812-0.797,1.137-1.316c0.349-0.558,0.554-1.347,0.777-2.093
				c0.215-0.713,0.33-1.581,0.718-2.213c0.308-0.502,1.379-1.254,2.094-1.436c1.708-0.432,2.215,0.79,2.75,1.854
				c0.212,0.421,0.698,1.921,1.196,1.974c0.374,0.04,0.738-0.432,0.956-0.778c0.749-1.183,0.644-2.855,1.018-3.528
				c0.211-0.379,0.77-0.777,0.957-0.836c2.406-0.773,4.358,0.567,5.023,2.033c0.225,0.497,0.277,1.119,0.598,1.614
				c0.357,0.552,1.491,1.264,2.033,1.914c0.648,0.778,0.975,1.596,1.436,2.393c0.522,0.904,1.439,2.244,2.332,2.631
				c0.678,0.294,2.127,0.335,2.571-0.12c0.386-0.395,0.433-1.56,0.539-2.572c0.109-1.061,0.193-2.219,0.119-3.05
				c-0.066-0.747-0.483-1.29-0.478-2.033c0.007-1.179,0.644-1.901,1.076-2.691c0.256-0.466,0.49-0.988,1.018-1.196
				c0.18,0,0.357,0,0.539,0C160.692,0.088,160.983,0.329,161.302,0.358z M141.267,23.801c-0.048,0.012-0.06,0.061-0.119,0.061
				c-0.218,1.293,0.084,2.613,0.06,3.946c-0.024,1.322-0.153,2.575,0,3.827c0.136,1.108,0.439,2.291,0.718,3.35
				c0.541,2.061,1.153,3.735,2.811,4.604c0.437-1.446,0.641-2.778,0.538-4.306c-0.083-1.244-0.566-2.411-0.479-3.648
				c0.056-0.774,0.31-1.52,0.239-2.571c-0.104-1.565-0.419-3.17-0.358-4.784c-0.008-0.17-0.293,0.004-0.538,0.06
				C143.161,24.562,142.04,24.197,141.267,23.801z"/>
		</g>
	</g>
	<g id="_x38_BYF8G.tif_3_">
		<g>
			<path fill-rule="evenodd" clip-rule="evenodd" d="M97.634,0.358c0.491,0.044,1.308-0.282,1.914-0.12
				c0.332,0.089,0.605,0.506,1.016,0.658c1.323,0.49,3.035-0.094,4.066,0.299c0.384,0.146,0.533,0.607,0.778,0.957
				c0.274,0.392,0.579,0.638,0.777,0.957c0,0.219,0,0.439,0,0.658c-0.551,0.303,0.115,0.628-0.18,1.136
				c-0.357,0.616-1.493,0.448-2.152,0.12c-0.615,0.521-1.546,0.727-2.213,1.196c-0.249,1.266-1.208,1.987-1.316,3.289
				c-0.104,1.274-0.039,2.477-0.238,3.648c-0.185,1.084-0.487,2.133-0.778,3.169c-0.573,2.048-1.293,3.95-2.631,5.262
				c-1.198,1.177-2.843,1.385-4.664,2.213c0.171,2.095-0.709,4.037-0.539,5.98c0.038,0.432,0.252,0.842,0.3,1.256
				c0.076,0.658-0.115,1.308-0.06,1.974c0.039,0.478,0.221,1.016,0.358,1.495c0.143,0.499,0.276,1.033,0.418,1.496
				c0.389,1.258,1.283,2.122,1.495,3.467c0.228,0.168,0.654,0.411,1.256,0.479c0.642,0.072,1.197-0.086,1.315,0.419
				c0.074,0.311-0.03,0.713-0.478,0.718c0.044,0.303-0.148,0.369-0.239,0.538c-0.902,0.098-2.891,0.36-3.409-0.358
				c-0.271-0.377-0.064-0.924-0.119-1.496c-0.042-0.426-0.287-0.979-0.419-1.494c-0.267-1.047-0.541-2.105-0.837-3.109
				c-0.154-0.523-0.229-1.143-0.419-1.556c-0.151-0.329-0.466-0.545-0.598-0.837c-0.296-0.65-0.2-1.322-0.419-2.094
				c-0.178-0.627-0.575-1.178-0.777-1.794c-0.22-0.665-0.363-1.372-0.538-2.034c-0.178-0.666-0.411-1.298-0.658-1.912
				c-0.241-0.601-0.366-1.383-1.017-1.615c-0.643,0.51-0.786,1.388-1.076,2.152c-0.28,0.741-0.629,1.511-0.957,2.273
				c-0.509,1.181-1.069,2.248-1.256,3.588c-0.062,0.449-0.051,0.958-0.18,1.436c-0.136,0.506-0.51,0.828-0.598,1.315
				c-0.092,0.516,0,1.183,0,1.794c0,1.834-0.089,3.652,0.479,4.904c0.745,0.271,1.41,0.622,1.555,1.494
				c-0.15,0.249-0.47,0.328-0.896,0.3c0.004,0.183,0.219,0.312,0.06,0.478c-0.459,0-0.917,0-1.376,0
				c-0.77-0.107-1.764-0.371-1.794-1.076c-0.016-0.368,0.38-0.467,0.3-0.837c-0.788-0.109-1.859,0.063-2.273-0.419
				c-0.104-0.307-0.045-0.639,0.061-0.896c-0.861-0.636-0.898-2.053-1.256-3.17c-0.714-2.229-2.219-3.824-2.572-6.398
				c-0.243-1.777-0.623-3.315-1.136-4.844c-0.214-0.636-0.517-1.383-0.777-2.213c-0.141-0.445-0.399-2.049-0.957-2.033
				c-0.706,0.02-0.387,1.012-0.358,1.436c0.129,1.977-0.592,2.629-1.137,3.946c-0.305,0.737-0.692,1.688-0.598,2.691
				c0.031,0.333,0.23,0.701,0.239,1.017c0.02,0.721-0.31,1.474-0.538,2.273c-0.131,0.453-0.069,1.139-0.12,1.854
				c-0.103,1.435-0.306,3.785-0.179,5.022c0.138,1.36,1.531,1.304,1.793,2.571c-0.037,0.322-0.538,0.18-0.777,0.299
				c0.048,0.229,0.094,0.395-0.179,0.42c-0.678,0.056-2.241,0.427-2.571-0.42c-0.159-0.407,0.178-1.043,0.299-1.555
				c0.189-0.803,0.171-1.817,0.239-2.811c0.067-0.994,0.179-2.016,0.179-2.93c0-1.874-0.505-3.63-0.299-5.562
				c0.046-0.43,0.211-0.857,0.239-1.256c0.146-2.046-0.279-3.479-0.598-4.963c-0.218-1.011-0.343-1.969-0.718-2.811
				c-1.035,0.62-1.909,1.4-3.229,1.735c0-0.16,0-0.319,0-0.479c0.277-1.239,1.688-1.475,2.272-2.332
				c0.424-0.622,0.273-1.776,0.239-2.69c-0.025-0.694-0.062-1.386,0-2.034c0.134-1.399,0.729-2.484,1.256-3.589
				c0.295-0.616,0.532-1.066,0.896-1.554c0.333-0.446,0.812-0.797,1.137-1.316c0.349-0.558,0.554-1.347,0.777-2.093
				c0.215-0.713,0.33-1.581,0.718-2.213c0.308-0.502,1.379-1.254,2.094-1.436c1.708-0.432,2.215,0.79,2.75,1.854
				c0.212,0.421,0.698,1.921,1.196,1.974c0.374,0.04,0.738-0.432,0.956-0.778c0.749-1.183,0.644-2.855,1.018-3.528
				c0.211-0.379,0.77-0.777,0.957-0.836c2.406-0.773,4.358,0.567,5.023,2.033c0.225,0.497,0.277,1.119,0.598,1.614
				c0.357,0.552,1.491,1.264,2.033,1.914c0.648,0.778,0.975,1.596,1.436,2.393c0.522,0.904,1.439,2.244,2.332,2.631
				c0.678,0.294,2.127,0.335,2.571-0.12c0.386-0.395,0.433-1.56,0.538-2.572c0.11-1.061,0.194-2.219,0.12-3.05
				c-0.067-0.747-0.483-1.29-0.479-2.033c0.007-1.179,0.645-1.901,1.076-2.691C95.437,0.73,95.671,0.208,96.199,0
				c0.18,0,0.358,0,0.539,0C97.025,0.088,97.316,0.329,97.634,0.358z M77.6,23.801c-0.048,0.012-0.06,0.061-0.119,0.061
				c-0.218,1.293,0.084,2.613,0.06,3.946c-0.024,1.322-0.153,2.575,0,3.827c0.136,1.108,0.439,2.291,0.718,3.35
				c0.541,2.061,1.153,3.735,2.811,4.604c0.437-1.446,0.641-2.778,0.538-4.306c-0.083-1.244-0.566-2.411-0.479-3.648
				c0.056-0.774,0.31-1.52,0.239-2.571c-0.104-1.565-0.419-3.17-0.358-4.784c-0.008-0.17-0.293,0.004-0.538,0.06
				C79.494,24.562,78.373,24.197,77.6,23.801z"/>
		</g>
	</g>
	<g id="_x38_BYF8G.tif_2_">
		<g>
			<path fill-rule="evenodd" clip-rule="evenodd" d="M33.968,0.358c0.491,0.044,1.308-0.282,1.914-0.12
				c0.332,0.089,0.605,0.506,1.016,0.658c1.323,0.49,3.035-0.094,4.066,0.299c0.384,0.146,0.533,0.607,0.778,0.957
				c0.274,0.392,0.579,0.638,0.777,0.957c0,0.219,0,0.439,0,0.658c-0.551,0.303,0.115,0.628-0.18,1.136
				c-0.357,0.616-1.493,0.448-2.152,0.12c-0.615,0.521-1.546,0.727-2.213,1.196c-0.249,1.266-1.208,1.987-1.316,3.289
				c-0.104,1.274-0.039,2.477-0.238,3.648c-0.185,1.084-0.487,2.133-0.778,3.169c-0.573,2.048-1.293,3.95-2.631,5.262
				c-1.198,1.177-2.843,1.385-4.664,2.213c0.171,2.095-0.709,4.037-0.539,5.98c0.038,0.432,0.252,0.842,0.3,1.256
				c0.076,0.658-0.115,1.308-0.06,1.974c0.039,0.478,0.221,1.016,0.358,1.495c0.143,0.499,0.276,1.033,0.418,1.496
				c0.389,1.258,1.283,2.122,1.495,3.467c0.228,0.168,0.654,0.411,1.256,0.479c0.642,0.072,1.197-0.086,1.315,0.419
				c0.074,0.311-0.03,0.713-0.478,0.718c0.044,0.303-0.148,0.369-0.239,0.538c-0.902,0.098-2.891,0.36-3.409-0.358
				c-0.271-0.377-0.064-0.924-0.119-1.496c-0.042-0.426-0.287-0.979-0.419-1.494c-0.267-1.047-0.541-2.105-0.837-3.109
				c-0.154-0.523-0.229-1.143-0.419-1.556c-0.151-0.329-0.466-0.545-0.598-0.837c-0.296-0.65-0.2-1.322-0.419-2.094
				c-0.178-0.627-0.575-1.178-0.777-1.794c-0.22-0.665-0.363-1.372-0.538-2.034c-0.178-0.666-0.411-1.298-0.658-1.912
				c-0.241-0.601-0.366-1.383-1.017-1.615c-0.643,0.51-0.786,1.388-1.076,2.152c-0.28,0.741-0.629,1.511-0.957,2.273
				c-0.509,1.181-1.069,2.248-1.256,3.588c-0.062,0.449-0.051,0.958-0.18,1.436c-0.136,0.506-0.51,0.828-0.598,1.315
				c-0.092,0.516,0,1.183,0,1.794c0,1.834-0.089,3.652,0.479,4.904c0.745,0.271,1.41,0.622,1.555,1.494
				c-0.15,0.249-0.47,0.328-0.896,0.3c0.004,0.183,0.219,0.312,0.06,0.478c-0.459,0-0.917,0-1.376,0
				c-0.77-0.107-1.764-0.371-1.794-1.076c-0.016-0.368,0.38-0.467,0.3-0.837c-0.788-0.109-1.859,0.063-2.273-0.419
				c-0.104-0.307-0.045-0.639,0.061-0.896c-0.861-0.636-0.898-2.053-1.256-3.17c-0.714-2.229-2.22-3.824-2.572-6.398
				c-0.243-1.777-0.623-3.315-1.136-4.844C9.833,24.78,9.53,24.033,9.27,23.203c-0.141-0.445-0.399-2.049-0.957-2.033
				c-0.706,0.02-0.387,1.012-0.358,1.436c0.129,1.977-0.592,2.629-1.137,3.946c-0.305,0.737-0.692,1.688-0.598,2.691
				c0.031,0.333,0.23,0.701,0.239,1.017c0.02,0.721-0.31,1.474-0.538,2.273c-0.131,0.453-0.069,1.139-0.12,1.854
				c-0.103,1.435-0.306,3.785-0.179,5.022c0.138,1.36,1.531,1.304,1.793,2.571c-0.037,0.322-0.538,0.18-0.777,0.299
				c0.048,0.229,0.094,0.395-0.179,0.42c-0.678,0.056-2.241,0.427-2.571-0.42c-0.159-0.407,0.178-1.043,0.299-1.555
				c0.189-0.803,0.171-1.817,0.239-2.811c0.067-0.994,0.179-2.016,0.179-2.93c0-1.874-0.505-3.63-0.299-5.562
				c0.046-0.43,0.211-0.857,0.239-1.256c0.146-2.046-0.279-3.479-0.598-4.963c-0.218-1.011-0.343-1.969-0.718-2.811
				c-1.035,0.62-1.909,1.4-3.229,1.735c0-0.16,0-0.319,0-0.479c0.277-1.239,1.688-1.475,2.272-2.332
				c0.424-0.622,0.273-1.776,0.239-2.69c-0.025-0.694-0.062-1.386,0-2.034c0.134-1.399,0.729-2.484,1.256-3.589
				C4.062,10.387,4.3,9.937,4.664,9.449c0.333-0.446,0.812-0.797,1.137-1.316C6.149,7.575,6.354,6.786,6.578,6.04
				c0.215-0.713,0.33-1.581,0.718-2.213C7.604,3.325,8.675,2.573,9.39,2.391c1.708-0.432,2.215,0.79,2.75,1.854
				c0.212,0.421,0.698,1.921,1.196,1.974c0.374,0.04,0.738-0.432,0.956-0.778c0.749-1.183,0.644-2.855,1.018-3.528
				c0.211-0.379,0.77-0.777,0.957-0.836c2.406-0.773,4.358,0.567,5.023,2.033c0.225,0.497,0.277,1.119,0.598,1.614
				c0.357,0.552,1.491,1.264,2.033,1.914c0.648,0.778,0.975,1.596,1.436,2.393c0.522,0.904,1.439,2.244,2.332,2.631
				c0.678,0.294,2.127,0.335,2.571-0.12c0.386-0.395,0.433-1.56,0.538-2.572c0.11-1.061,0.194-2.219,0.12-3.05
				c-0.067-0.747-0.483-1.29-0.479-2.033c0.007-1.179,0.645-1.901,1.076-2.691C31.771,0.73,32.005,0.208,32.532,0
				c0.18,0,0.358,0,0.539,0C33.358,0.088,33.649,0.329,33.968,0.358z M13.934,23.801c-0.048,0.012-0.06,0.061-0.119,0.061
				c-0.218,1.293,0.084,2.613,0.06,3.946c-0.024,1.322-0.153,2.575,0,3.827c0.136,1.108,0.439,2.291,0.718,3.35
				c0.541,2.061,1.153,3.735,2.811,4.604c0.437-1.446,0.641-2.778,0.538-4.306c-0.083-1.244-0.566-2.411-0.479-3.648
				c0.056-0.774,0.31-1.52,0.239-2.571c-0.104-1.565-0.419-3.17-0.358-4.784c-0.008-0.17-0.293,0.004-0.538,0.06
				C15.827,24.562,14.706,24.197,13.934,23.801z"/>
		</g>
	</g>
</g>
</svg>
