<?xml version="1.0" encoding="utf-8"?>
<!-- Generator: Adobe Illustrator 15.0.0, SVG Export Plug-In . SVG Version: 6.00 Build 0)  -->
<!DOCTYPE svg PUBLIC "-//W3C//DTD SVG 1.1//EN" "http://www.w3.org/Graphics/SVG/1.1/DTD/svg11.dtd">
<svg version="1.1" id="Layer_1" xmlns="http://www.w3.org/2000/svg" xmlns:xlink="http://www.w3.org/1999/xlink" x="0px" y="0px"
	 width="499.463px" height="388.238px" viewBox="0 0 499.463 388.238" enable-background="new 0 0 499.463 388.238"
	 xml:space="preserve">
<g>
	<g id="xxentX.tif">
		<g>
			<path fill-rule="evenodd" clip-rule="evenodd" d="M271.503,233.301c-4.359-3.462-10.25-6.847-12.316-10.87
				c-1.672-3.252-3.448-10.709-2.897-14.49c0.534-3.674,3.813-5.748,4.347-9.42c0.641-4.419-1.303-11.604-2.897-18.113
				c-1.033-4.213-3.89-11.215-4.347-13.767c-0.17-0.942,0.824-1.718,0.724-2.173c-1.228-5.504-3.246-10.912-4.347-16.664
				c-3.047-15.906-8.165-38.726-3.623-56.515c3.41-13.362,11.06-25.9,19.562-36.951c13.947-18.128,30.023-32.631,51.442-42.748
				c18.165-8.584,46.735-13.534,74.627-10.868c0.941,0.09,1.809,1.284,2.897,1.448c8.451,1.272,16.812,1.197,24.635,3.623
				c12.834,3.979,26.73,12.823,36.953,22.46c4.885,4.608,8.691,11.284,13.765,15.94c5.556,5.1,11.894,8.771,15.939,13.767
				c6.368,7.859,11.901,23.544,13.043,34.778c1.23,12.105-0.314,27.81-1.45,36.229c-0.994,7.383-0.715,14.174-1.447,21.009
				c-0.135,1.258-1.256,2.991-1.45,4.347c-0.683,4.79-0.528,8.004-1.447,10.869c-3.413,10.608-12.219,17.742-17.39,28.257
				c2.944,3.736,9.213,4.466,10.142,10.144c0.282,1.721-1.649,5.317-1.447,8.694c0.209,3.523,2.374,6.046,2.173,8.694
				c-0.453,5.941-8.805,17.669-13.042,18.114c-5.073,0.531-4.901-2.629-7.245-3.622c-9.904-4.204-17.94,12.027-23.186,0.723
				c2.746-2.567,9.811-0.814,11.592-4.347c-3.879-4.552-10.844-11.024-18.111-14.491c-5.99-2.854-15.452-7.007-21.013-0.725
				c2.122,5.756,2.668,11.091-0.726,15.94c7.711,9.017-0.998,17.131-2.172,29.706c-0.501,5.36,0.533,11.415,0,17.389
				c-0.185,2.066-1.191,4.236-1.45,6.522c-2.075,18.403,0.334,38.637-1.449,50.717c-1.182,8.004-6.278,12.249-12.315,12.317
				c-2.574-5.899-1.45-13.436-1.45-21.011c0-21.382-1.585-49.349,0-68.108c0.416-4.919,5.109-14.79-4.348-14.49
				c-2.01,34.743-1.793,77.65-4.347,107.232c-3.82-0.41-9.149,0.622-10.867,0c-0.559-7.865-2.041-18.804-2.898-25.36
				c-2.732-20.888-0.725-46.827-0.725-68.106c0-4.931,2.443-14.795-3.623-14.491c-3.979,2.625-2.175,8.472-2.175,12.318
				c0,16.522-0.267,36.464,1.45,49.994c1.365,10.771,2.013,46.253-5.072,47.095c-8.214,0.976-6.543-15.891-7.971-26.082
				c-0.346-2.481-1.288-3.956-1.449-5.798c-0.549-6.268,0.588-11.636,0-18.838c-0.255-3.132-1.174-4.192-1.447-7.969
				c-0.571-7.889,0-19.187,0-29.707c0-11.404,1.74-23.985-2.898-25.36c-5.156-1.526-9.186,3.993-11.595,6.521
				c3.772-0.388,5.361,1.402,7.248,2.898c0.346,8.292,1.487,17.843,2.173,23.91c1.724,15.268-1.426,31.851,0,47.819
				c0.985,11.055,3.357,21.578,0,31.156c-4.814-0.982-10.831-0.763-13.766-3.623c-1.227-7.013-2.277-14.075-2.9-19.563
				c-1.526-13.505,0.408-28.048-1.447-41.299c-0.252-1.781-1.277-3.824-1.45-5.795c-0.56-6.396,1.333-13.57,0-20.289
				c-1.049-5.292-6.271-10.069-7.97-15.94c-2.644-9.125,0.037-17.823-2.172-27.532c-8.951-7.064-31.545-9.05-33.33,4.348
				c-0.631,4.715,3.729,5.706,2.897,13.041C282.077,241.657,275.742,236.665,271.503,233.301z M372.941,41.297
				c0,4.104,0,8.212,0,12.316c4.004,2.276,6.281,6.277,6.521,12.317c5.796,0,11.591,0,17.39,0
				C398.464,50.963,390.413,39.573,372.941,41.297z M370.765,41.297c-24.564-4.764-30.375,25.896-17.387,37.677
				c-2.568,4.435-6.49,7.516-8.695,12.316c-1.652,15.381,3.954,29.184,16.665,31.153c2.659,0.414,6.415-0.741,9.417-0.724
				c2.816,0.018,5.141,0.955,7.246,0.724c12.92-1.395,22.693-12.58,18.114-26.807c-5.073,0-10.143,0-15.215,0
				c-2.157,1.465-1.856,5.39-2.899,7.971c-0.873,3.958-5.561,4.099-5.795,8.694c-2.729-3.366-9.281-5.574-10.146-10.868
				c-0.375-2.318,1.201-7.784,2.176-9.419c2.778-4.663,8.471-5.662,15.939-5.072c-0.383-4.448,0.827-10.489-0.724-13.767
				c-16.66,2.089-19.217-14.247-8.696-20.286C370.765,49.023,370.765,45.161,370.765,41.297z M447.568,134.037
				c-4.953,21.84,10.533,21.833,28.981,19.563c5.557-4.002,4.819-12.522,5.071-21.014c0.193-6.489,1.729-10.463-2.898-13.04
				C464.937,120.976,456.394,127.65,447.568,134.037z M262.085,121.72c-2.159,12.659,0.189,22.684,3.623,32.604
				c4.372,12.646,8.633,18.812,23.91,22.462c5.58,1.333,10.874,1.827,16.662,2.898c7.263,1.343,19.097,3.54,30.433,2.172
				c5.087-0.611,9.894-3.311,14.489-5.07c4.887-1.869,10.099-2.58,13.043-5.797c-5.048-5.65-14.168-6.584-21.737-10.142
				c-13.367-6.287-25.833-16.349-39.125-24.635c-6.741-4.205-13.842-9.258-20.287-11.595c-2.14-0.774-5.618-0.536-8.692-1.448
				c-0.508-0.149-5.098-2.791-7.248-2.897C265.514,120.189,264.186,120.787,262.085,121.72z M444.67,134.762
				c-10.237,5.703-20.325,11.555-28.982,18.839c2.925,2.507,9.116,0.478,14.489,0.724c1.381,0.063,3.643,0.988,5.073,0.726
				C443.32,153.571,447.335,145.676,444.67,134.762z M476.549,157.223c-7.486,0-14.976,0-22.462,0
				c-3.431,2.365-5.583,6.01-7.97,9.419c-1.747-1.514-2.848-3.421-4.347-5.071c-1.433-1.582-2.787-2.892-4.346-4.348
				c-25.211-1.782-43.976,2.879-57.24,13.042c11.596,12.808,38.943,13.001,60.863,9.419c1.701-1.197,4.215-1.581,5.069-3.623
				c2.33-0.638,0.994,2.389,2.899,2.175c12.166-3.052,22.999-7.432,27.532-18.115C477.755,158.682,476.483,159.199,476.549,157.223z
				 M373.666,178.236c-2.225,21.492,3.588,30.612,9.418,44.195c12.656-6.011,8.861-17.01,2.899-28.981
				c-3.45-6.921-6.148-12.361-10.145-15.214C375.113,178.236,374.388,178.236,373.666,178.236z M351.203,206.493
				c2.512,6.666,4.478,13.875,9.42,18.113c2.938,0.28,0.798-4.517,1.447-6.521c2.057-5.916,4.909-11.034,7.971-15.94
				c0-7.245,0-14.49,0-21.736C359.869,182.341,357.586,198.361,351.203,206.493z"/>
			<path fill-rule="evenodd" clip-rule="evenodd" d="M296.863,263.007c0,20.286,0,40.573,0,60.86
				c4.216-0.371,9.994,0.814,13.043-0.725c0-19.321,0-38.643,0-57.963C309.191,260.822,300.984,263.957,296.863,263.007z"/>
			<path fill-rule="evenodd" clip-rule="evenodd" d="M265.708,263.007c3.458,7.168,8.805,12.446,13.04,18.836
				c6.447-4.551,5.396-14.06,0-18.836C274.404,263.007,270.056,263.007,265.708,263.007z"/>
			<path fill-rule="evenodd" clip-rule="evenodd" d="M450.465,264.455c-13.103,0.664-21.297,6.236-19.562,21.737
				c4.348,0,8.695,0,13.042,0c-1.139-7.66,1.365-11.678,6.521-13.043C450.465,270.251,450.465,267.354,450.465,264.455z"/>
			<path fill-rule="evenodd" clip-rule="evenodd" d="M456.263,265.18c-3.992,3.236-0.498,10.968,3.622,10.868
				c0.471,3.994,3.657,29.993,1.45,37.677c-1.162,4.034-4.001,4.774-6.523,6.52c0,2.416,0,4.832,0,7.245
				c6.77,1.048,15.849-2.93,18.115-9.418c1.1-3.153,2.616-36.178,0-43.473c-1.975-5.504-8.814-8.849-15.939-9.419
				C456.746,265.18,456.504,265.18,456.263,265.18z"/>
			<path fill-rule="evenodd" clip-rule="evenodd" d="M288.168,277.497c-1.171-0.204-1.248,0.684-2.173,0.726
				c-6.4,15.817-14.719,29.719-21.013,45.645c4.348,0,8.696,0,13.044,0c3.943-8.13,7.588-16.561,11.592-24.634
				c-0.518-1.968,3.415,0.518,2.897-1.45C293.458,291.439,292.076,281.386,288.168,277.497z"/>
			<path fill-rule="evenodd" clip-rule="evenodd" d="M431.628,304.305c-3.896,15.041,4.342,24.132,18.111,23.911
				c1.391-1.753,0.459-5.824,0.726-8.695c-2.741-0.642-5.103-1.659-6.521-3.623c0-3.622,0-7.245,0-10.868
				C441.121,303.506,435.614,304.667,431.628,304.305z"/>
		</g>
	</g>
	<g id="xxentX.tif_1_">
		<g>
			<path fill-rule="evenodd" clip-rule="evenodd" d="M227.96,154.937c4.359,3.462,10.25,6.847,12.316,10.87
				c1.672,3.252,3.447,10.709,2.896,14.49c-0.533,3.674-3.812,5.748-4.346,9.42c-0.641,4.419,1.303,11.604,2.896,18.113
				c1.033,4.213,3.891,11.215,4.348,13.767c0.17,0.942-0.824,1.718-0.725,2.173c1.229,5.504,3.246,10.912,4.348,16.664
				c3.047,15.906,8.164,38.726,3.623,56.514c-3.41,13.363-11.061,25.9-19.562,36.951c-13.947,18.129-30.023,32.631-51.443,42.748
				c-18.164,8.584-46.734,13.535-74.627,10.869c-0.941-0.09-1.809-1.285-2.896-1.449c-8.451-1.271-16.812-1.197-24.635-3.623
				c-12.834-3.979-26.73-12.822-36.953-22.459c-4.885-4.609-8.691-11.285-13.766-15.941c-5.555-5.1-11.893-8.77-15.939-13.766
				c-6.367-7.859-11.9-23.545-13.043-34.779c-1.23-12.105,0.314-27.809,1.451-36.228c0.994-7.383,0.715-14.174,1.447-21.009
				c0.135-1.258,1.256-2.991,1.449-4.347c0.684-4.79,0.529-8.004,1.447-10.869c3.414-10.608,12.219-17.742,17.391-28.257
				c-2.945-3.736-9.213-4.466-10.143-10.144c-0.281-1.721,1.65-5.317,1.447-8.694c-0.209-3.523-2.373-6.046-2.172-8.694
				c0.453-5.941,8.805-17.669,13.041-18.114c5.074-0.531,4.902,2.629,7.246,3.622c9.904,4.204,17.939-12.027,23.186-0.723
				c-2.746,2.567-9.811,0.814-11.592,4.347c3.879,4.552,10.844,11.024,18.111,14.491c5.99,2.854,15.451,7.007,21.012,0.725
				c-2.121-5.756-2.668-11.091,0.727-15.94c-7.711-9.017,0.998-17.131,2.172-29.706c0.5-5.36-0.533-11.415,0-17.389
				c0.184-2.066,1.191-4.236,1.449-6.522c2.076-18.403-0.334-38.637,1.449-50.717c1.182-8.004,6.279-12.249,12.316-12.317
				c2.574,5.899,1.449,13.436,1.449,21.011c0,21.382,1.586,49.349,0,68.108c-0.416,4.919-5.109,14.79,4.348,14.49
				c2.01-34.743,1.793-77.65,4.348-107.232c3.82,0.41,9.148-0.623,10.867,0c0.559,7.865,2.041,18.803,2.898,25.36
				c2.732,20.888,0.725,46.827,0.725,68.106c0,4.931-2.443,14.795,3.623,14.491c3.979-2.625,2.174-8.472,2.174-12.318
				c0-16.522,0.268-36.464-1.449-49.994c-1.365-10.771-2.014-46.253,5.072-47.095c8.213-0.976,6.543,15.891,7.971,26.082
				c0.346,2.482,1.287,3.956,1.449,5.797c0.549,6.268-0.588,11.636,0,18.838c0.254,3.132,1.174,4.192,1.447,7.969
				c0.57,7.888,0,19.186,0,29.706c0,11.404-1.74,23.985,2.898,25.36c5.156,1.526,9.186-3.993,11.594-6.521
				c-3.771,0.388-5.361-1.402-7.248-2.898c-0.346-8.292-1.486-17.843-2.172-23.91c-1.725-15.268,1.426-31.851,0-47.819
				c-0.986-11.055-3.357-21.578,0-31.156c4.814,0.982,10.83,0.762,13.766,3.623c1.227,7.013,2.277,14.075,2.9,19.563
				c1.525,13.505-0.408,28.048,1.447,41.299c0.252,1.781,1.277,3.824,1.449,5.795c0.561,6.396-1.332,13.57,0,20.289
				c1.049,5.292,6.271,10.069,7.971,15.94c2.643,9.125-0.037,17.823,2.172,27.532c8.951,7.064,31.545,9.05,33.33-4.348
				c0.631-4.715-3.73-5.706-2.898-13.041C217.386,146.581,223.722,151.573,227.96,154.937z M126.523,346.941
				c0-4.105,0-8.213,0-12.316c-4.004-2.277-6.281-6.277-6.521-12.318c-5.795,0-11.59,0-17.389,0
				C101,337.275,109.05,348.664,126.523,346.941z M128.699,346.941c24.564,4.764,30.375-25.896,17.387-37.678
				c2.568-4.434,6.49-7.516,8.695-12.316c1.652-15.38-3.955-29.183-16.666-31.153c-2.658-0.414-6.414,0.741-9.416,0.724
				c-2.816-0.018-5.141-0.955-7.246-0.724c-12.92,1.395-22.693,12.58-18.115,26.807c5.074,0,10.143,0,15.215,0
				c2.158-1.465,1.857-5.39,2.9-7.971c0.873-3.958,5.561-4.099,5.795-8.694c2.729,3.366,9.281,5.574,10.146,10.868
				c0.375,2.318-1.201,7.784-2.176,9.418c-2.779,4.664-8.471,5.662-15.939,5.072c0.383,4.449-0.828,10.49,0.723,13.768
				c16.66-2.09,19.217,14.246,8.697,20.285C128.699,339.215,128.699,343.076,128.699,346.941z M51.896,254.201
				c4.953-21.84-10.533-21.833-28.982-19.563c-5.557,4.002-4.818,12.522-5.07,21.014c-0.193,6.489-1.729,10.463,2.898,13.04
				C34.527,267.262,43.07,260.587,51.896,254.201z M237.378,266.518c2.158-12.659-0.189-22.684-3.623-32.604
				c-4.373-12.646-8.633-18.812-23.91-22.462c-5.58-1.333-10.875-1.827-16.662-2.898c-7.264-1.343-19.098-3.54-30.434-2.172
				c-5.086,0.611-9.893,3.311-14.488,5.07c-4.887,1.869-10.1,2.58-13.043,5.797c5.047,5.65,14.168,6.584,21.736,10.142
				c13.367,6.287,25.834,16.349,39.125,24.635c6.742,4.205,13.842,9.258,20.287,11.595c2.141,0.774,5.619,0.536,8.693,1.448
				c0.508,0.149,5.098,2.791,7.248,2.897C233.949,268.048,235.277,267.451,237.378,266.518z M54.792,253.476
				c10.238-5.703,20.326-11.555,28.982-18.839c-2.924-2.507-9.115-0.478-14.488-0.724c-1.381-0.063-3.643-0.988-5.074-0.726
				C56.144,234.667,52.128,242.562,54.792,253.476z M22.914,231.015c7.486,0,14.977,0,22.463,0c3.43-2.365,5.582-6.01,7.969-9.419
				c1.748,1.514,2.848,3.421,4.348,5.071c1.432,1.582,2.787,2.892,4.346,4.348c25.211,1.782,43.975-2.879,57.24-13.042
				c-11.596-12.808-38.943-13.001-60.863-9.419c-1.701,1.197-4.215,1.581-5.07,3.623c-2.33,0.638-0.994-2.389-2.898-2.175
				c-12.166,3.052-23,7.432-27.533,18.115C21.708,229.556,22.98,229.039,22.914,231.015z M125.798,210.001
				c2.225-21.492-3.588-30.612-9.418-44.195c-12.656,6.011-8.861,17.01-2.9,28.981c3.451,6.921,6.148,12.361,10.145,15.214
				C124.351,210.001,125.076,210.001,125.798,210.001z M148.261,181.745c-2.512-6.666-4.479-13.875-9.42-18.113
				c-2.939-0.28-0.799,4.517-1.447,6.521c-2.057,5.916-4.91,11.034-7.971,15.94c0,7.245,0,14.49,0,21.736
				C139.595,205.897,141.876,189.877,148.261,181.745z"/>
			<path fill-rule="evenodd" clip-rule="evenodd" d="M202.601,125.231c0-20.286,0-40.573,0-60.861
				c-4.217,0.372-9.994-0.814-13.043,0.725c0,19.322,0,38.643,0,57.963C190.273,127.416,198.48,124.281,202.601,125.231z"/>
			<path fill-rule="evenodd" clip-rule="evenodd" d="M233.755,125.231c-3.459-7.168-8.805-12.446-13.041-18.836
				c-6.447,4.551-5.396,14.06,0,18.836C225.06,125.231,229.408,125.231,233.755,125.231z"/>
			<path fill-rule="evenodd" clip-rule="evenodd" d="M48.998,123.783c13.104-0.664,21.297-6.236,19.562-21.737
				c-4.348,0-8.695,0-13.041,0c1.139,7.66-1.365,11.678-6.521,13.043C48.998,117.987,48.998,120.884,48.998,123.783z"/>
			<path fill-rule="evenodd" clip-rule="evenodd" d="M43.201,123.058c3.992-3.236,0.498-10.968-3.623-10.868
				c-0.471-3.994-3.656-29.993-1.449-37.677c1.162-4.034,4-4.774,6.523-6.52c0-2.416,0-4.832,0-7.245
				c-6.77-1.048-15.85,2.93-18.115,9.418c-1.1,3.153-2.617,36.178,0,43.473c1.975,5.504,8.814,8.849,15.939,9.419
				C42.718,123.058,42.958,123.058,43.201,123.058z"/>
			<path fill-rule="evenodd" clip-rule="evenodd" d="M211.294,110.741c1.172,0.204,1.248-0.684,2.174-0.726
				c6.4-15.817,14.719-29.719,21.012-45.645c-4.348,0-8.695,0-13.043,0c-3.943,8.13-7.588,16.561-11.592,24.634
				c0.518,1.968-3.416-0.518-2.898,1.45C206.005,96.798,207.388,106.852,211.294,110.741z"/>
			<path fill-rule="evenodd" clip-rule="evenodd" d="M67.835,83.933c3.896-15.04-4.342-24.131-18.111-23.911
				c-1.391,1.753-0.459,5.824-0.727,8.695c2.742,0.642,5.104,1.659,6.521,3.623c0,3.622,0,7.246,0,10.868
				C58.343,84.732,63.849,83.571,67.835,83.933z"/>
		</g>
	</g>
</g>
</svg>
