<?xml version="1.0" encoding="utf-8"?>
<!-- Generator: Adobe Illustrator 15.0.0, SVG Export Plug-In . SVG Version: 6.00 Build 0)  -->
<!DOCTYPE svg PUBLIC "-//W3C//DTD SVG 1.1//EN" "http://www.w3.org/Graphics/SVG/1.1/DTD/svg11.dtd">
<svg version="1.1" id="Layer_1" xmlns="http://www.w3.org/2000/svg" xmlns:xlink="http://www.w3.org/1999/xlink" x="0px" y="0px"
	 width="301px" height="142px" viewBox="0 0 301 142" enable-background="new 0 0 301 142" xml:space="preserve">
<g>
	<g id="FEVJ5a.tif">
		<g>
			<path d="M135.086,78.307c-12.184,0-27.59,0-39.085,0c-0.799,0.75-0.947,2.422-1.53,3.568c10.019,0,18.977,0,29.229,0
				c3.43,0,6.991-0.579,7.137,2.55c0.177,3.771-3.492,2.89-7.646,2.89c-9.836,0-17.093-0.287-26.68,0.17
				c-1.754,0.084-3.743-0.438-5.098-0.17c-0.932,0.184-3.521,2.633-3.738,3.567c-0.212,0.913,0.17,3.78,0.17,5.269
				c0,9.041,0,16.998,0,26.681c0,4.371,0.318,7.646-2.889,7.646c-3.194,0-2.719-3.582-2.719-7.137c0-10.242,0-18.359,0-29.229
				c-1.201,0.441-2.405,0.88-3.569,1.359c0,11.903,0,24.237,0,36.704c0,3.65,1.01,9.494-2.549,9.687
				c-4.021,0.219-3.059-5.367-3.059-9.176c0-11.99,0-24.396,0-36.195c-1.133,0-2.266,0-3.399,0c0,11.736,0,23.924,0,36.195
				c0,3.778,0.945,9.209-2.889,9.176c-3.682-0.029-2.719-5.549-2.719-9.516c0-12.188,0-24.734,0-36.705
				c-0.35-0.509-1.109-0.623-1.699-0.851c-0.617-0.237-1.276-0.479-1.869-0.681c0,9.607,0,19.002,0,29.229
				c0,3.252,0.508,6.986-2.549,7.138c-3.326,0.164-3.059-3.631-3.059-7.646c0-9.135,0-17.464,0-26.85c0-1.765,0.409-4.061,0.169-5.1
				c-0.368-1.598-2.64-2.32-3.398-3.568c-9.985,0.31-21.126,0.17-31.948,0.17c-3.836,0-7.816,0.41-7.816-2.889
				c0-3.246,3.774-2.72,7.137-2.72c9.655,0,19.756,0,29.229,0c-0.422-1.222-0.927-2.358-1.359-3.567
				c-13.784-0.578-28.509,0.766-42.823,0c-2.09-0.111-3.469-0.75-3.569-2.55c-0.226-4.022,5.375-3.06,9.177-3.06
				c11.99,0,24.396,0,36.195,0c0-1.133,0-2.265,0-3.397c-10.221,0-21.925,0-33.307,0c-4.207,0-11.921,1.304-12.065-2.72
				c-0.14-3.902,5.503-2.889,9.517-2.889c12.189,0,24.735,0,36.705,0c0.508-0.349,0.623-1.109,0.85-1.699
				c0.239-0.617,0.48-1.276,0.681-1.869c-9.606,0-19.005,0-29.229,0c-3.255,0-6.992,0.509-7.137-2.549
				c-0.158-3.326,3.625-3.06,7.646-3.06c9.136,0,17.465,0,26.85,0c1.764,0,4.06,0.41,5.099,0.17c1.598-0.368,2.321-2.64,3.568-3.398
				c-0.306-9.181-0.169-21.229-0.169-31.777c0-3.897-0.588-7.995,2.889-7.987c3.242,0.007,2.719,3.771,2.719,7.138
				c0,9.654,0,19.755,0,29.229c1.201-0.442,2.404-0.881,3.568-1.359c0-11.906,0-24.239,0-36.706c0-3.65-1.01-9.494,2.549-9.687
				c4.435-0.239,3.059,7.678,3.059,12.235c0,11.047,0,22.915,0,33.138c1.133,0,2.266,0,3.399,0c0-11.737,0-23.925,0-36.196
				c0-3.779-0.945-9.209,2.889-9.177c3.682,0.031,2.719,5.55,2.719,9.517c0,12.187,0,24.735,0,36.706
				c0.35,0.507,1.109,0.621,1.7,0.85c0.617,0.238,1.276,0.479,1.869,0.68c0-10.811,0-18.705,0-29.229
				c0-3.424-0.47-6.996,2.549-7.138c3.441-0.161,3.059,3.533,3.059,7.647c0,9.745,0,17.178,0,26.68c0,1.748-0.424,3.805-0.17,5.098
				c0.197,1.003,2.718,3.542,3.568,3.738c1.075,0.25,3.646-0.247,5.268-0.17c9.177,0.438,16.802,0.17,26.68,0.17
				c4.293,0,7.646-0.83,7.646,2.719c0,3.227-3.405,2.72-7.137,2.72c-9.984,0-19.144,0-29.229,0c0.473,1.171,0.834,2.451,1.36,3.568
				c12.147,0,25.999,0,38.745,0c3.545,0,6.939-0.69,7.647,2.209c0,0.341,0,0.68,0,1.021c-0.9,3.411-6.095,2.379-9.516,2.379
				c-12.011,0-24.441,0-35.856,0c0.111,1.078-0.224,2.602,0.17,3.397c9.995,0,22.19,0,33.138,0c4.069,0,11.749-1.119,12.065,2.379
				c0,0.34,0,0.68,0,1.021C141.785,78.667,138.735,78.307,135.086,78.307z M73.061,51.289c-6.821-0.603-12.24,2.264-15.634,5.608
				c-3.125,3.078-6.334,8.159-5.948,15.123c0.429,7.744,4.616,12.959,10.026,16.145c5.63,3.316,14.011,3.797,20.392-0.17
				c6.303-3.919,11.247-12.305,8.667-21.922c-1.67-6.224-5.16-10.454-10.876-13.085C77.652,52.05,75.591,51.512,73.061,51.289z"/>
		</g>
	</g>
	<g id="FEVJ5a.tif_1_">
		<g>
			<path d="M293.368,78.307c-12.184,0-27.59,0-39.084,0c-0.801,0.748-0.947,2.422-1.531,3.568c10.021,0,18.978,0,29.23,0
				c3.43,0,6.99-0.58,7.137,2.549c0.176,3.77-3.492,2.889-7.646,2.889c-9.836,0-17.095-0.285-26.681,0.17
				c-1.756,0.084-3.744-0.436-5.1-0.17c-0.932,0.185-3.521,2.635-3.738,3.568c-0.211,0.914,0.17,3.781,0.17,5.27
				c0,9.041,0,16.998,0,26.681c0,4.371,0.318,7.646-2.888,7.646c-3.192,0-2.719-3.582-2.719-7.137c0-10.242,0-18.361,0-29.229
				c-1.201,0.441-2.403,0.879-3.567,1.359c0,11.903,0,24.237,0,36.704c0,3.65,1.01,9.494-2.55,9.687
				c-4.021,0.219-3.059-5.367-3.059-9.176c0-11.99,0-24.396,0-36.195c-1.133,0-2.267,0-3.399,0c0,11.736,0,23.924,0,36.195
				c0,3.778,0.945,9.209-2.889,9.176c-3.682-0.029-2.719-5.549-2.719-9.516c0-12.188,0-24.734,0-36.705
				c-0.351-0.509-1.109-0.623-1.699-0.851c-0.617-0.237-1.276-0.479-1.869-0.681c0,9.607,0,19.002,0,29.229
				c0,3.252,0.508,6.986-2.549,7.138c-3.326,0.164-3.059-3.631-3.059-7.646c0-9.135,0-17.465,0-26.85
				c0-1.765,0.408-4.062,0.169-5.101c-0.368-1.598-2.641-2.319-3.398-3.567c-9.985,0.309-21.126,0.17-31.948,0.17
				c-3.836,0-7.815,0.41-7.815-2.889c0-3.246,3.773-2.72,7.137-2.72c9.655,0,19.756,0,29.229,0
				c-0.423-1.222-0.928-2.358-1.359-3.567c-13.784-0.578-28.509,0.766-42.823,0c-2.09-0.111-3.469-0.75-3.568-2.55
				c-0.227-4.022,5.375-3.06,9.177-3.06c11.99,0,24.396,0,36.194,0c0-1.133,0-2.265,0-3.397c-10.221,0-21.925,0-33.307,0
				c-4.207,0-11.921,1.304-12.064-2.72c-0.141-3.902,5.503-2.889,9.517-2.889c12.188,0,24.735,0,36.705,0
				c0.508-0.349,0.623-1.109,0.85-1.699c0.239-0.617,0.48-1.276,0.682-1.869c-9.606,0-19.006,0-29.229,0
				c-3.255,0-6.992,0.509-7.137-2.549c-0.158-3.326,3.625-3.06,7.646-3.06c9.137,0,17.465,0,26.851,0c1.764,0,4.06,0.41,5.099,0.17
				c1.598-0.368,2.321-2.64,3.568-3.398c-0.307-9.181-0.169-21.229-0.169-31.777c0-3.897-0.588-7.995,2.889-7.987
				c3.242,0.007,2.719,3.771,2.719,7.138c0,9.654,0,19.755,0,29.229c1.201-0.442,2.404-0.881,3.568-1.359
				c0-11.906,0-24.239,0-36.706c0-3.65-1.01-9.494,2.549-9.687c4.436-0.239,3.059,7.678,3.059,12.235c0,11.047,0,22.915,0,33.138
				c1.134,0,2.267,0,3.399,0c0-11.737,0-23.925,0-36.196c0-3.779-0.946-9.209,2.889-9.177c3.683,0.031,2.72,5.55,2.72,9.517
				c0,12.187,0,24.735,0,36.706c0.35,0.507,1.108,0.621,1.698,0.85c0.617,0.238,1.275,0.479,1.869,0.68c0-10.811,0-18.705,0-29.229
				c0-3.424-0.47-6.996,2.549-7.138c3.441-0.161,3.059,3.533,3.059,7.647c0,9.745,0,17.178,0,26.68c0,1.748-0.424,3.805-0.17,5.098
				c0.197,1.003,2.719,3.542,3.567,3.738c1.076,0.25,3.646-0.247,5.271-0.17c9.176,0.438,16.801,0.17,26.68,0.17
				c4.293,0,7.646-0.83,7.646,2.719c0,3.227-3.406,2.72-7.138,2.72c-9.983,0-19.146,0-29.229,0c0.473,1.171,0.836,2.451,1.361,3.568
				c12.146,0,25.998,0,38.743,0c3.546,0,6.938-0.69,7.646,2.209c0,0.341,0,0.68,0,1.021c-0.899,3.411-6.094,2.379-9.516,2.379
				c-12.012,0-24.441,0-35.854,0c0.11,1.078-0.226,2.602,0.17,3.397c9.993,0,22.188,0,33.137,0c4.068,0,11.748-1.119,12.063,2.379
				c0,0.34,0,0.68,0,1.021C300.065,78.667,297.017,78.307,293.368,78.307z M231.344,51.289c-6.822-0.603-12.241,2.264-15.634,5.608
				c-3.125,3.078-6.334,8.159-5.948,15.123c0.429,7.742,4.616,12.957,10.026,16.144c5.63,3.315,14.011,3.797,20.392-0.17
				c6.302-3.918,11.248-12.306,8.666-21.921c-1.67-6.224-5.16-10.454-10.875-13.085C235.935,52.05,233.874,51.512,231.344,51.289z"
				/>
		</g>
	</g>
</g>
</svg>
