<?xml version="1.0" encoding="utf-8"?>
<!-- Generator: Adobe Illustrator 15.0.0, SVG Export Plug-In . SVG Version: 6.00 Build 0)  -->
<!DOCTYPE svg PUBLIC "-//W3C//DTD SVG 1.1//EN" "http://www.w3.org/Graphics/SVG/1.1/DTD/svg11.dtd">
<svg version="1.1" id="Layer_1" xmlns="http://www.w3.org/2000/svg" xmlns:xlink="http://www.w3.org/1999/xlink" x="0px" y="0px"
	 width="491.945px" height="166.591px" viewBox="0 0 491.945 166.591" enable-background="new 0 0 491.945 166.591"
	 xml:space="preserve">
<g>
	<g id="FL9kZK.tif">
		<g>
			<path fill-rule="evenodd" clip-rule="evenodd" d="M327.324,85.297c-13.767,1.323-18.052,12.127-24.233,21.033
				c-2.7,0.664-4.344,2.924-7.316,4.115c-7.982,3.199-20.012,1.152-22.405,10.061c4.143,0.309,6.213-1.4,10.518-0.916
				c5.049,0.568,7.221,3.512,11.431,4.115c14.961,2.15,19.282-8.436,29.265-12.346c3.072-1.203,6.7-0.982,9.145-2.285
				c5.527-2.949,6.346-11.941,16.003-8.232c1.269,0.488,2.43,1.979,4.116,2.289c6.785,1.24,12.08-4.006,19.203-5.031
				c4.534-0.65,10.428-0.342,15.547,0c5.162,0.348,10.621,2.295,15.546,1.371c4.495-0.84,8.828-7.043,12.804-7.771
				c4.781-0.879,10.771,1.369,16.004,1.828c3.194,0.279,6.957-0.176,10.517,0c11.439,0.57,25.147,2.57,38.408,2.287
				c2.628-0.057,5.716-0.447,8.23-1.83c1.294-2.059,1.937-4.77,1.829-8.23c-11.402-3.15-23.005,1.963-34.751,1.828
				c-4.896-0.055-9.786-1.895-14.632-2.285c-8.836-0.715-18.776,2.014-28.35,1.371c-7.881-0.527-15.424-2.328-22.404-1.828
				c-12.405,0.889-23.021,10.607-35.208,7.316c1.601-1.467,5.04-4.738,8.688-5.945c3.591-1.188,10.124,0.648,15.546,0
				c4.773-0.569,7.476-3.251,11.432-3.201c-2.432-1.779-4.858-1.369-7.315-2.285c-2.869-1.07-4.604-3.225-9.603-2.743
				c-2.619,0.251-5.142,2.431-7.316,2.286c-4.983-0.333-6.095-6.619-10.517-7.775c7.958-0.194,14.698-0.191,20.119,2.288
				c3.663,1.676,6.062,4.927,10.517,5.487c5.082,0.639,11.239-1.02,16.918,0c2.653,0.476,5.006,1.963,7.316,2.286
				c10.748,1.506,23.406-0.056,35.208-0.915c6.286-0.459,11.973,1.248,17.375,1.371c8.712,0.201,17.162-3.69,25.148-1.828
				c-0.388-2.17-2.771-2.84-4.572-4.572c-1.688-1.625-2.742-4.068-4.572-4.573c-3.119-0.86-8.617,0.983-13.26,1.372
				c-4.429,0.371-8.788,1.533-12.347,1.83c-8.895,0.74-18.416,0.453-26.977,1.371c-5.309,0.568-11.15,2.23-14.633,1.372
				c-5.654-1.396-7.675-12.745-14.174-14.175c-2.343-0.518-5.037,0.66-7.773,0.912c-3.986,0.373-9,0.143-13.718,0.459
				c-6.971,0.468-11.721,1.934-16.46,0c-2.904-1.184-3.817-3.728-6.859-5.943c-5.349-0.066-10.801,1.863-16.003,0.457
				c-1.671-1.227-1.245-4.547-1.83-6.859c-3.68-3.646-7.497-8.807-14.174-11.432c-2.135-0.837-4.817-0.518-6.858-1.371
				c-1.995-0.834-3.35-3.207-5.488-3.657c-2.61-0.55-6.252,0.505-9.145,1.371c-2.746,0.821-5.668,1.546-7.772,2.286
				c-4.616,1.625-10.364,4.541-9.603,9.602c3.305-0.568,6.752,1.02,10.974,0.916c3.322-0.082,6.117-1.639,8.688-0.916
				c3.626,1.021,8.907,8.422,11.431,11.432c3.909,4.658,7.11,8.715,10.975,11.89c-6.518-1.925-14.575-2.239-21.948-4.116
				c-5.809-1.479-8.607-2.405-12.346-6.4c-1.638-1.752-2.933-3.461-4.572-5.029c-5.083-4.865-8.057-10.748-17.375-10.976
				c-10.012-0.244-20.978,8.397-14.175,20.577c3.527-1.809,7.756-2.914,11.889-4.115c2.537,2.035,4.821,4.322,5.486,8.23
				c3.757-0.818,6.813-2.332,11.432-2.287c-4.715,1.382-7.931,4.264-13.26,5.031c-0.141-3.367-2.685-4.328-3.658-6.859
				c-6.167,0.234-11.1,1.703-13.26,5.944c1.439,8.501-4.132,14.51-0.458,21.032c-0.065,2.273-1.953,3.494-2.286,5.945
				c-0.185,1.357,0.757,4.256,0.457,6.4c-0.221,1.582-1.539,4.768-0.457,6.859c1.475,2.852,5.233,2.174,8.688,2.742
				c3.738,0.617,5.281,1.732,8.23,1.371c3.689-0.451,4.93-3.336,8.23-5.484c3.826-2.492,7.375-2.863,9.603-5.945
				c1.745-2.414,2.132-5.701,3.658-8.688c1.632-3.195,5.222-6.908,8.23-9.604c1.267-1.133,2.09-2.34,3.2-2.742
				C308.97,82.037,319.218,85.834,327.324,85.297z"/>
			<path fill-rule="evenodd" clip-rule="evenodd" d="M311.778,127.366c1.609,7.225,14.612,13.857,21.033,19.203
				c2.354,1.959,4.197,4.617,6.859,6.4c5.146,3.447,13.305,5.842,20.118,8.23c16.955,5.949,44.384,10.24,53.955-5.486
				c4.491-7.379,7.469-28.105-2.286-32.922c-2.843,5.582-1.638,10.82-3.657,15.088c-3.514,7.426-15.359,12.359-25.149,9.605
				c-6.188-1.742-15.836-8.432-21.489-12.805c-5.781-4.471-8.855-7.824-14.176-13.26c-2.491-2.545-6.712-6.973-8.688-7.316
				C331.329,112.895,314.788,123.75,311.778,127.366z"/>
			<path fill-rule="evenodd" clip-rule="evenodd" d="M418.316,49.175c12.979,1.355,13.133-20.08,9.603-28.348
				c-2.125-4.982-12.024-13.607-17.833-16.461c-6.597-3.244-14.551-5.062-23.776-4.116c-4.572,0.468-9.777,2.554-14.632,4.116
				c-13.217,4.25-28.402,9.901-36.58,18.289c-3.587,3.68-5.473,7.742-7.316,11.432c-1.549,3.102-0.005,5.062,2.745,7.772
				c3.223,3.177,5.913,5.64,9.145,9.603c1.728,2.118,2.773,4.045,5.029,4.115c3.319,0.1,6.515-4.969,9.146-7.773
				c3.091-3.297,5.119-6.893,7.316-9.145c1.968-2.02,5.983-4.646,9.602-7.773c6.701-5.792,15.267-12.908,27.435-12.346
				c7.954,0.367,18.266,4.949,19.661,14.631C418.562,38.042,416.458,43.782,418.316,49.175z"/>
			<path fill-rule="evenodd" clip-rule="evenodd" d="M407.344,66.552c-0.346,1.916,1.745-0.621,1.828,1.371
				c2.848,5.633,7.363,5.879,16.004,5.486c10.444-0.475,23.882-0.686,32.464-1.372c-2.724-4.187-10.021-3.235-16.918-4.114
				c-9.678-1.234-21.756-5.822-32.007-3.203C407.509,64.583,407.535,65.675,407.344,66.552z"/>
			<path fill-rule="evenodd" clip-rule="evenodd" d="M411.001,102.215c2.144,1.68,4.519,0.512,7.772,0.916
				c3.321,0.41,7.018,1.98,10.976,2.285c7.786,0.6,18.009-1.746,26.52-1.371c7.396,0.324,15.374,1.537,18.29-4.574
				c-2.273-2.691-5.321-0.664-7.773-0.457c-9.524,0.805-16.486-2.225-25.606-2.742c-2.894-0.164-5.839,0.203-8.688,0
				C424.036,95.665,409.798,89.69,411.001,102.215z"/>
		</g>
	</g>
	<g id="FL9kZK.tif_1_">
		<g>
			<path fill-rule="evenodd" clip-rule="evenodd" d="M76.324,85.297c-13.767,1.324-18.052,12.127-24.233,21.033
				c-2.7,0.664-4.344,2.924-7.316,4.115c-7.982,3.199-20.012,1.152-22.405,10.061c4.143,0.309,6.213-1.4,10.518-0.916
				c5.049,0.568,7.221,3.512,11.431,4.115c14.961,2.15,19.282-8.436,29.265-12.346c3.072-1.203,6.7-0.982,9.145-2.285
				c5.527-2.949,6.346-11.941,16.003-8.232c1.269,0.488,2.43,1.979,4.116,2.289c6.785,1.24,12.08-4.006,19.203-5.031
				c4.534-0.65,10.428-0.342,15.547,0c5.162,0.348,10.621,2.295,15.546,1.371c4.495-0.84,8.828-7.043,12.804-7.771
				c4.781-0.879,10.771,1.369,16.004,1.828c3.194,0.279,6.957-0.176,10.517,0c11.439,0.57,25.147,2.57,38.408,2.287
				c2.628-0.057,5.716-0.447,8.23-1.83c1.294-2.059,1.937-4.77,1.829-8.23c-11.402-3.15-23.005,1.963-34.751,1.828
				c-4.896-0.055-9.786-1.895-14.632-2.285c-8.836-0.715-18.776,2.014-28.35,1.371c-7.881-0.527-15.424-2.328-22.404-1.828
				c-12.405,0.889-23.021,10.607-35.208,7.316c1.601-1.467,5.04-4.738,8.688-5.945c3.591-1.188,10.124,0.648,15.546,0
				c4.773-0.569,7.476-3.251,11.432-3.201c-2.432-1.779-4.858-1.369-7.315-2.285c-2.869-1.07-4.604-3.225-9.603-2.743
				c-2.619,0.251-5.142,2.431-7.316,2.286c-4.983-0.333-6.095-6.619-10.517-7.775c7.958-0.194,14.698-0.191,20.119,2.288
				c3.663,1.676,6.062,4.927,10.517,5.487c5.082,0.639,11.239-1.02,16.918,0c2.653,0.476,5.006,1.963,7.316,2.286
				c10.748,1.506,23.406-0.056,35.208-0.915c6.286-0.459,11.973,1.248,17.375,1.371c8.712,0.201,17.162-3.69,25.148-1.828
				c-0.388-2.17-2.771-2.84-4.572-4.572c-1.688-1.625-2.742-4.068-4.572-4.573c-3.119-0.86-8.617,0.983-13.26,1.372
				c-4.429,0.371-8.788,1.533-12.347,1.83c-8.895,0.74-18.416,0.453-26.977,1.371c-5.309,0.568-11.15,2.23-14.633,1.372
				c-5.654-1.396-7.675-12.745-14.174-14.175c-2.343-0.518-5.037,0.66-7.773,0.912c-3.986,0.373-9,0.143-13.718,0.459
				c-6.971,0.468-11.721,1.934-16.46,0c-2.904-1.184-3.817-3.728-6.859-5.943c-5.349-0.066-10.801,1.863-16.003,0.457
				c-1.671-1.227-1.245-4.547-1.83-6.859c-3.68-3.646-7.497-8.807-14.174-11.432c-2.135-0.837-4.817-0.518-6.858-1.371
				c-1.995-0.834-3.35-3.207-5.488-3.657c-2.61-0.55-6.252,0.505-9.145,1.371c-2.746,0.821-5.668,1.546-7.772,2.286
				c-4.616,1.625-10.364,4.541-9.603,9.602c3.305-0.568,6.752,1.02,10.974,0.916c3.322-0.082,6.117-1.639,8.688-0.916
				c3.626,1.021,8.907,8.422,11.431,11.432c3.909,4.658,7.11,8.715,10.975,11.89c-6.518-1.925-14.575-2.239-21.948-4.116
				c-5.809-1.479-8.607-2.405-12.346-6.4c-1.638-1.752-2.933-3.461-4.572-5.029c-5.083-4.865-8.057-10.748-17.375-10.976
				C8.7,46.188-2.266,54.829,4.537,67.009c3.527-1.809,7.756-2.914,11.889-4.115c2.537,2.035,4.821,4.322,5.486,8.23
				c3.757-0.818,6.813-2.332,11.432-2.287c-4.715,1.382-7.931,4.264-13.26,5.031c-0.141-3.367-2.685-4.328-3.658-6.859
				c-6.167,0.234-11.1,1.703-13.26,5.944c1.439,8.501-4.132,14.51-0.458,21.032c-0.065,2.273-1.953,3.494-2.286,5.945
				c-0.185,1.357,0.757,4.256,0.457,6.4c-0.221,1.582-1.539,4.768-0.457,6.859c1.475,2.852,5.233,2.174,8.688,2.742
				c3.738,0.617,5.281,1.732,8.23,1.371c3.689-0.451,4.93-3.336,8.23-5.484c3.826-2.492,7.375-2.863,9.603-5.945
				c1.745-2.414,2.132-5.701,3.658-8.688c1.632-3.195,5.222-6.908,8.23-9.604c1.267-1.133,2.09-2.34,3.2-2.742
				C57.969,82.037,68.217,85.834,76.324,85.297z"/>
			<path fill-rule="evenodd" clip-rule="evenodd" d="M60.778,127.366c1.609,7.225,14.612,13.857,21.033,19.203
				c2.354,1.959,4.197,4.617,6.859,6.4c5.146,3.447,13.305,5.842,20.118,8.23c16.955,5.949,44.384,10.24,53.955-5.486
				c4.491-7.379,7.469-28.105-2.286-32.922c-2.843,5.582-1.638,10.82-3.657,15.088c-3.514,7.426-15.359,12.359-25.149,9.605
				c-6.188-1.742-15.836-8.432-21.489-12.805c-5.781-4.471-8.855-7.824-14.176-13.26c-2.491-2.545-6.712-6.973-8.688-7.316
				C80.329,112.895,63.788,123.75,60.778,127.366z"/>
			<path fill-rule="evenodd" clip-rule="evenodd" d="M167.316,49.175c12.979,1.355,13.133-20.08,9.603-28.348
				c-2.125-4.982-12.024-13.607-17.833-16.461c-6.597-3.244-14.551-5.062-23.776-4.116c-4.572,0.468-9.777,2.554-14.632,4.116
				c-13.217,4.25-28.402,9.901-36.58,18.289c-3.587,3.68-5.473,7.742-7.316,11.432c-1.549,3.102-0.005,5.062,2.745,7.772
				c3.223,3.177,5.913,5.64,9.145,9.603c1.728,2.118,2.773,4.045,5.029,4.115c3.319,0.1,6.515-4.969,9.146-7.773
				c3.091-3.297,5.119-6.893,7.316-9.145c1.968-2.02,5.983-4.646,9.602-7.773c6.701-5.792,15.267-12.908,27.435-12.346
				c7.954,0.367,18.266,4.949,19.661,14.631C167.562,38.042,165.458,43.782,167.316,49.175z"/>
			<path fill-rule="evenodd" clip-rule="evenodd" d="M156.343,66.552c-0.346,1.916,1.745-0.621,1.828,1.371
				c2.848,5.633,7.363,5.879,16.004,5.486c10.444-0.475,23.882-0.686,32.464-1.372c-2.724-4.187-10.021-3.235-16.918-4.114
				c-9.678-1.234-21.756-5.822-32.007-3.203C156.508,64.583,156.535,65.675,156.343,66.552z"/>
			<path fill-rule="evenodd" clip-rule="evenodd" d="M160,102.215c2.144,1.68,4.519,0.512,7.772,0.916
				c3.321,0.41,7.018,1.98,10.976,2.285c7.786,0.6,18.009-1.746,26.52-1.371c7.396,0.324,15.374,1.537,18.29-4.574
				c-2.273-2.691-5.321-0.664-7.773-0.457c-9.524,0.805-16.486-2.225-25.606-2.742c-2.894-0.164-5.839,0.203-8.688,0
				C173.036,95.665,158.797,89.69,160,102.215z"/>
		</g>
	</g>
</g>
</svg>
