<?xml version="1.0" encoding="utf-8"?>
<!-- Generator: Adobe Illustrator 15.0.0, SVG Export Plug-In . SVG Version: 6.00 Build 0)  -->
<!DOCTYPE svg PUBLIC "-//W3C//DTD SVG 1.1//EN" "http://www.w3.org/Graphics/SVG/1.1/DTD/svg11.dtd">
<svg version="1.1" id="Layer_1" xmlns="http://www.w3.org/2000/svg" xmlns:xlink="http://www.w3.org/1999/xlink" x="0px" y="0px"
	 width="252.338px" height="85.039px" viewBox="0 0 252.338 85.039" enable-background="new 0 0 252.338 85.039"
	 xml:space="preserve">
<g>
	<g id="x4XMM9.tif">
		<g>
			<path fill-rule="evenodd" clip-rule="evenodd" d="M4.435,33.771C6.926,28.416,9.265,23.229,12,18.118
				c1.338-2.499,2.578-5.334,4.175-7.565c1.447-2.025,3.593-3.785,5.739-5.74c1.745-1.591,3.929-3.65,5.479-4.175
				c3.433-1.164,7.84-0.407,11.74-0.261c3.082,0.114,6.341,0.146,9.653,0.261c4.778,0.165,13.467,0.946,16.436,3.131
				c2.004,1.473,2.686,4.229,3.914,6.522c1.275,2.382,2.631,4.546,4.173,6.522c8.555,2.125,17.853,4.045,26.09,6
				c2.907,0.69,5.801,1.04,8.347,2.349c0.737,1.754,0.842,5.836,0,7.565c-4.453,1.321-9.88,0.672-15.13,0.261
				c-5.196-0.406-10.518-0.842-15.132-0.782c1.152,6.53,0.604,14.771,0.261,20.87c9.007,0.176,20.358-2.188,29.741-0.781
				c1.108,1.794,0.955,5.686,0.26,7.825c-10.843,3.331-22.918,5.431-34.437,8.088c-1.497,1.934-2.678,4.039-3.913,6.262
				c-1.187,2.137-1.965,5.021-3.652,6.521c-1.417,1.261-4.562,1.819-7.305,2.349c-6.489,1.251-11.611,1.084-18.001,1.305
				c-3.193,0.11-6.408,0.638-9.393,0.261c-3.834-0.485-8.396-3.207-10.957-5.74c-4.318-4.271-7.655-11.366-10.696-17.479
				C6.152,55.175,2.917,48.47,0,42.381C1.709,40.238,2.952,36.956,4.435,33.771z M27.132,82.035
				c-2.903-8.915-1.415-18.324,2.087-26.088c2.493-5.529,5.496-9.831,10.436-11.74c0.94-3.614-1.733-3.368-3.652-4.696
				c-2.274-1.575-4.652-6.336-6.522-10.436c-3.367-7.385-5.56-19.443-1.565-26.872c-2.82,1.056-5.462,4.079-7.826,6.262
				c-4.674,4.314-7.446,11.798-10.696,18.263c-1.275,2.536-2.776,5.067-3.914,7.565c-1.368,3.007-3.026,6.231-3.652,8.609
				c2.649,5.363,5.542,12.738,8.609,18.522C15.03,70.089,18.546,78.241,27.132,82.035z M41.48,82.296
				c0.195-5.654-2.84-10.626-2.87-16.959c-0.016-3.435,0.543-7.134,1.306-10.435c0.68-2.948,2.687-6.294,0.781-9.132
				c-4.003-0.43-7.278,4.149-9.652,8.871c-2.378,4.729-4.092,10.669-4.435,15.653c-0.328,4.75,0.582,11.077,3.391,12.523
				C32.532,84.12,38.979,83.581,41.48,82.296z M40.697,39.511c1.838-2.814-0.146-6.159-0.781-9.131
				c-0.68-3.176-1.314-6.595-1.306-9.914c0.009-3.306,0.842-6.249,1.565-9.131c0.734-2.928,1.789-5.734,1.044-8.609
				c-2.702-1.359-9.03-1.706-11.479-0.261c-2.751,1.622-3.166,8.356-2.87,12.783c0.325,4.839,2.021,10.671,4.175,15.132
				C33.263,34.974,36.584,39.967,40.697,39.511z M40.959,45.25c0.554-1.299-0.401-3.364,0.261-4.957
				C39.995,40.952,39.978,44.662,40.959,45.25z M42.264,45.512c8.516,0.789,16.899,1.709,25.567,2.347
				c2.433-2.701,2.549-8.031,0-10.695c-8.598,0.706-17.195,1.415-25.567,2.348C41.615,41.326,41.694,43.683,42.264,45.512z
				 M42.264,82.818c2.585,0.609,7.933-0.077,12-0.522c3.832-0.418,8.069-0.651,10.174-2.088c1.965-1.339,2.793-4.508,3.914-6.521
				c1.325-2.381,2.642-4.351,3.913-6.522c11.241-2.933,23.28-5.069,34.437-8.086c0.268-1.126,0.676-2.109,0.522-3.653
				c-15.604,0.245-31.676,2.46-47.481,3.653c-1.35,5.494-2.197,10.207-5.479,13.565c-3.059,3.13-7.846,4.346-11.74,6.783
				C42.419,80.538,42.776,82.114,42.264,82.818z M42.524,5.334c1.654,1.891,4.193,2.669,6.261,3.913
				c1.983,1.193,4.512,2.354,6,3.914c1.365,1.43,2.352,4.056,3.131,6c0.842,2.102,1.259,4.457,2.087,6.783
				c15.645,1.14,31.639,3.319,47.221,3.653c1.072-4.59-4.127-4.39-6.521-4.958c-6.743-1.601-11.774-2.985-18.524-4.436
				c-3.213-0.689-7.185-0.793-9.392-2.086c-2-1.172-2.847-4.366-4.173-6.783c-1.292-2.355-2.663-5.492-4.175-6.522
				c-2.281-1.557-11.015-2.636-15.131-2.87c-2.482-0.142-5.168-0.103-6.783,0.261C42.524,3.247,42.524,4.291,42.524,5.334z
				 M42.524,37.163c-0.102,1.058,1.626,0.287,2.348,0.521C44.327,37.272,43.5,37.144,42.524,37.163z M69.135,35.337
				c-3.723,0.314-7.981,1.354-12.522,1.826c-4.528,0.471-9.287,0.549-13.567,1.304c-1.083-0.249-0.053,0.781,0,0
				c4.409-0.177,9.079-0.6,13.567-1.043C61.03,36.986,65.706,37.104,69.135,35.337z M42.785,46.294
				c-0.845,0.3,0.701,0.295,1.043,0.26C44.673,46.255,43.128,46.26,42.785,46.294z M42.524,47.076c0,0.261,0,0.521,0,0.782
				c2.037-0.253,4.37-0.112,1.564-0.521C43.555,47.26,43.376,46.979,42.524,47.076z M69.135,49.945
				c-1.949-2.426-8.87-1.897-13.566-2.348c-3.872-0.37-7.537-0.978-10.958-1.044C52.642,47.829,61.943,47.833,69.135,49.945z
				 M49.829,11.075c0.895,2.076,2.765,3.804,4.175,6c1.908,2.972,3.251,6.209,3.914,10.695c1.924-1.225,0.539-3.975-0.261-6.261
				C55.938,16.605,54.312,12.999,49.829,11.075z M49.569,74.208c4.484-1.261,7.958-6.98,8.87-13.304
				c0.152-1.061,0.911-2.854-0.521-3.393C57.175,65.119,53.104,69.396,49.569,74.208z M51.916,36.902
				c6.691-0.44,12.951-1.312,18.524-2.87c1.125,0.798,1.376,2.541,1.826,3.913c0.458,1.398,1.281,3.046,1.304,4.436
				c0.048,2.93-2.118,5.69-2.609,8.348c-6.227-1.077-12.407-2.204-19.045-2.87c-0.879,0.239,1.462,1.569,1.826,2.349
				c2.64,5.646-1.169,17.463-3.392,21.393c3.374-4.365,6.612-8.866,7.044-16.175c5.461-1.322,12.688-0.878,18.524-1.827
				c1.591-6.14,1.364-15.974,0-22.175c-6.094-0.429-12.11-0.936-18.001-1.564c-1.06-1.197-0.722-2.826-1.044-4.175
				c-1.135-4.753-3.849-8.639-6.522-11.74c0.009-0.086-0.011-0.176,0-0.261c-0.145,1.125,1.234,2.676,2.088,4.957
				c1.181,3.153,2.772,10.734,1.304,15.393C53.358,35.251,52.127,35.973,51.916,36.902z M106.964,31.423
				c-0.545-0.776-1.853-0.694-2.609-0.782c-6.451-0.753-14.002-0.952-21.131-1.565c-7.828-0.674-15.818-1.934-23.741-2.087
				c-0.004,0.777-0.679,0.886-0.783,1.565c0.05,0.212,0.262,0.26,0.261,0.521c9.991,0.883,21.832,1.669,33.394,2.348
				c3.766,0.222,7.652,0.885,11.219,0.783C104.638,32.175,106.087,32.077,106.964,31.423z M58.699,55.947
				c0.036,0.92,0.747,1.166,0.783,2.086c16.038-1.421,32.063-2.471,47.22-4.175c-1.292-1.42-3.316-0.588-4.957-0.521
				c-5.137,0.206-10.996-0.063-16.174,0.521c-1.635,0.186-3.344,0.182-5.479,0.262c-1.124,0.042-2.26,0.694-3.392,0.782
				c-2.807,0.222-5.726,0.043-8.609,0.262c-2.895,0.22-5.753,0.534-8.609,0.783C59.221,55.947,58.96,55.947,58.699,55.947z"/>
		</g>
	</g>
	<g id="x4XMM9.tif_1_">
		<g>
			<path fill-rule="evenodd" clip-rule="evenodd" d="M148.435,33.771c2.491-5.354,4.83-10.541,7.565-15.652
				c1.338-2.499,2.578-5.334,4.175-7.565c1.447-2.025,3.593-3.785,5.739-5.74c1.745-1.591,3.929-3.65,5.479-4.175
				c3.433-1.164,7.84-0.407,11.74-0.261c3.082,0.114,6.341,0.146,9.652,0.261c4.778,0.165,13.467,0.946,16.437,3.131
				c2.004,1.473,2.686,4.229,3.913,6.522c1.275,2.382,2.632,4.546,4.174,6.522c8.555,2.125,17.853,4.045,26.09,6
				c2.907,0.69,5.801,1.04,8.347,2.349c0.737,1.754,0.842,5.836,0,7.565c-4.453,1.321-9.88,0.672-15.13,0.261
				c-5.196-0.406-10.518-0.842-15.132-0.782c1.152,6.53,0.604,14.771,0.261,20.87c9.007,0.176,20.358-2.188,29.741-0.781
				c1.108,1.794,0.955,5.686,0.26,7.825c-10.843,3.331-22.918,5.431-34.437,8.088c-1.497,1.934-2.679,4.039-3.913,6.262
				c-1.187,2.137-1.965,5.021-3.652,6.521c-1.417,1.261-4.562,1.819-7.305,2.349c-6.489,1.251-11.611,1.084-18.001,1.305
				c-3.193,0.11-6.408,0.638-9.393,0.261c-3.834-0.485-8.396-3.207-10.957-5.74c-4.318-4.271-7.655-11.366-10.696-17.479
				c-3.239-6.511-6.475-13.216-9.392-19.305C145.709,40.238,146.952,36.956,148.435,33.771z M171.132,82.035
				c-2.903-8.915-1.415-18.324,2.087-26.088c2.493-5.529,5.496-9.831,10.436-11.74c0.94-3.614-1.733-3.368-3.652-4.696
				c-2.274-1.575-4.652-6.336-6.522-10.436c-3.367-7.385-5.56-19.443-1.565-26.872c-2.82,1.056-5.462,4.079-7.826,6.262
				c-4.674,4.314-7.446,11.798-10.696,18.263c-1.275,2.536-2.776,5.067-3.914,7.565c-1.368,3.007-3.026,6.231-3.652,8.609
				c2.649,5.363,5.542,12.738,8.609,18.522C159.03,70.089,162.546,78.241,171.132,82.035z M185.48,82.296
				c0.195-5.654-2.84-10.626-2.87-16.959c-0.016-3.435,0.543-7.134,1.306-10.435c0.68-2.948,2.687-6.294,0.781-9.132
				c-4.003-0.43-7.278,4.149-9.652,8.871c-2.378,4.729-4.092,10.669-4.435,15.653c-0.328,4.75,0.582,11.077,3.391,12.523
				C176.532,84.12,182.979,83.581,185.48,82.296z M184.697,39.511c1.838-2.814-0.146-6.159-0.781-9.131
				c-0.68-3.176-1.314-6.595-1.306-9.914c0.009-3.306,0.842-6.249,1.565-9.131c0.734-2.928,1.789-5.734,1.044-8.609
				c-2.702-1.359-9.03-1.706-11.479-0.261c-2.751,1.622-3.166,8.356-2.87,12.783c0.325,4.839,2.021,10.671,4.175,15.132
				C177.263,34.974,180.584,39.967,184.697,39.511z M184.959,45.25c0.554-1.299-0.401-3.364,0.261-4.957
				C183.995,40.952,183.978,44.662,184.959,45.25z M186.264,45.512c8.516,0.789,16.898,1.709,25.566,2.347
				c2.434-2.701,2.549-8.031,0-10.695c-8.598,0.706-17.194,1.415-25.566,2.348C185.615,41.326,185.694,43.683,186.264,45.512z
				 M186.264,82.818c2.585,0.609,7.934-0.077,12-0.522c3.832-0.418,8.069-0.651,10.175-2.088c1.965-1.339,2.793-4.508,3.914-6.521
				c1.325-2.381,2.642-4.351,3.913-6.522c11.241-2.933,23.28-5.069,34.437-8.086c0.268-1.126,0.676-2.109,0.522-3.653
				c-15.604,0.245-31.676,2.46-47.481,3.653c-1.35,5.494-2.197,10.207-5.479,13.565c-3.059,3.13-7.846,4.346-11.739,6.783
				C186.419,80.538,186.776,82.114,186.264,82.818z M186.524,5.334c1.654,1.891,4.193,2.669,6.261,3.913
				c1.984,1.193,4.512,2.354,6,3.914c1.365,1.43,2.353,4.056,3.132,6c0.842,2.102,1.259,4.457,2.087,6.783
				c15.645,1.14,31.639,3.319,47.221,3.653c1.072-4.59-4.127-4.39-6.521-4.958c-6.743-1.601-11.774-2.985-18.524-4.436
				c-3.213-0.689-7.185-0.793-9.393-2.086c-2-1.172-2.847-4.366-4.173-6.783c-1.292-2.355-2.663-5.492-4.175-6.522
				c-2.281-1.557-11.015-2.636-15.131-2.87c-2.482-0.142-5.168-0.103-6.783,0.261C186.524,3.247,186.524,4.291,186.524,5.334z
				 M186.524,37.163c-0.102,1.058,1.626,0.287,2.348,0.521C188.327,37.272,187.5,37.144,186.524,37.163z M213.135,35.337
				c-3.723,0.314-7.981,1.354-12.522,1.826c-4.527,0.471-9.286,0.549-13.566,1.304c-1.083-0.249-0.053,0.781,0,0
				c4.409-0.177,9.079-0.6,13.566-1.043C205.03,36.986,209.706,37.104,213.135,35.337z M186.785,46.294
				c-0.845,0.3,0.701,0.295,1.043,0.26C188.673,46.255,187.128,46.26,186.785,46.294z M186.524,47.076c0,0.261,0,0.521,0,0.782
				c2.037-0.253,4.37-0.112,1.564-0.521C187.555,47.26,187.376,46.979,186.524,47.076z M213.135,49.945
				c-1.949-2.426-8.869-1.897-13.566-2.348c-3.871-0.37-7.536-0.978-10.957-1.044C196.642,47.829,205.942,47.833,213.135,49.945z
				 M193.828,11.075c0.895,2.076,2.766,3.804,4.175,6c1.908,2.972,3.252,6.209,3.914,10.695c1.924-1.225,0.539-3.975-0.262-6.261
				C199.938,16.605,198.312,12.999,193.828,11.075z M193.568,74.208c4.484-1.261,7.959-6.98,8.87-13.304
				c0.152-1.061,0.911-2.854-0.521-3.393C201.175,65.119,197.104,69.396,193.568,74.208z M195.916,36.902
				c6.691-0.44,12.951-1.312,18.523-2.87c1.125,0.798,1.377,2.541,1.826,3.913c0.458,1.398,1.281,3.046,1.304,4.436
				c0.049,2.93-2.117,5.69-2.608,8.348c-6.227-1.077-12.407-2.204-19.045-2.87c-0.879,0.239,1.462,1.569,1.826,2.349
				c2.64,5.646-1.17,17.463-3.392,21.393c3.374-4.365,6.612-8.866,7.044-16.175c5.461-1.322,12.688-0.878,18.523-1.827
				c1.591-6.14,1.364-15.974,0-22.175c-6.094-0.429-12.109-0.936-18.001-1.564c-1.06-1.197-0.722-2.826-1.044-4.175
				c-1.136-4.753-3.85-8.639-6.522-11.74c0.009-0.086-0.011-0.176,0-0.261c-0.145,1.125,1.233,2.676,2.088,4.957
				c1.181,3.153,2.771,10.734,1.304,15.393C197.358,35.251,196.127,35.973,195.916,36.902z M250.964,31.423
				c-0.545-0.776-1.853-0.694-2.609-0.782c-6.451-0.753-14.002-0.952-21.131-1.565c-7.828-0.674-15.818-1.934-23.741-2.087
				c-0.005,0.777-0.679,0.886-0.783,1.565c0.05,0.212,0.262,0.26,0.261,0.521c9.991,0.883,21.832,1.669,33.395,2.348
				c3.766,0.222,7.652,0.885,11.219,0.783C248.638,32.175,250.087,32.077,250.964,31.423z M202.699,55.947
				c0.036,0.92,0.747,1.166,0.783,2.086c16.038-1.421,32.063-2.471,47.22-4.175c-1.292-1.42-3.316-0.588-4.957-0.521
				c-5.137,0.206-10.996-0.063-16.174,0.521c-1.635,0.186-3.344,0.182-5.479,0.262c-1.124,0.042-2.26,0.694-3.393,0.782
				c-2.807,0.222-5.726,0.043-8.609,0.262c-2.895,0.22-5.753,0.534-8.608,0.783C203.221,55.947,202.96,55.947,202.699,55.947z"/>
		</g>
	</g>
</g>
</svg>
