<?xml version="1.0" encoding="utf-8"?>
<!-- Generator: Adobe Illustrator 15.0.0, SVG Export Plug-In . SVG Version: 6.00 Build 0)  -->
<!DOCTYPE svg PUBLIC "-//W3C//DTD SVG 1.1//EN" "http://www.w3.org/Graphics/SVG/1.1/DTD/svg11.dtd">
<svg version="1.1" id="Layer_1" xmlns="http://www.w3.org/2000/svg" xmlns:xlink="http://www.w3.org/1999/xlink" x="0px" y="0px"
	 width="354.326px" height="144.539px" viewBox="0 0 354.326 144.539" enable-background="new 0 0 354.326 144.539"
	 xml:space="preserve">
<g>
	<g>
		<path d="M228.655,44.532c0.883,0.415,1.737,0.621,2.564,0.621c0.685,0,1.242-0.144,1.674-0.432
			c0.395-0.288,0.613-0.612,0.647-0.972c0.146-0.684-0.09-1.673-0.702-2.968c-0.215-0.396-0.439-0.784-0.675-1.161
			c-0.235-0.379-0.405-0.657-0.513-0.838c-0.505-0.721-0.916-1.493-1.242-2.32c-0.324-0.828-0.287-1.438,0.107-1.835
			c0.18-0.18,0.416-0.263,0.703-0.243c0.287,0.018,0.574,0.063,0.865,0.134c0.969,0.287,2.373,1.368,4.211,3.24
			c0.18,0.179,0.332,0.342,0.457,0.485c0.127,0.144,0.279,0.287,0.459,0.432c-0.287-0.648-0.342-1.206-0.162-1.673
			c0.107-0.36,0.343-0.595,0.703-0.703c0.18-0.071,0.467-0.062,0.861,0.028c0.397,0.09,1.01,0.386,1.837,0.891
			c0.253,0.18,0.505,0.341,0.755,0.485c0.252,0.144,0.471,0.306,0.65,0.485c0.215,0.18,0.429,0.359,0.646,0.54
			c-0.758-0.899-1.574-1.907-2.457-3.023c-0.882-1.113-1.764-2.23-2.646-3.348c-0.879-1.114-1.699-2.194-2.457-3.237
			c-0.754-1.044-1.367-1.945-1.834-2.7c-1.294-2.087-1.765-3.743-1.404-4.966c0.252-0.721,0.668-1.206,1.242-1.459
			c0.291-0.144,0.578-0.233,0.865-0.27c0.861-0.108,1.826,0.116,2.889,0.675c1.059,0.559,2.059,1.198,2.993,1.917
			c0.938,0.72,1.737,1.395,2.405,2.023c0.664,0.631,1.034,0.98,1.107,1.054c1.041,1.044,2.031,2.015,2.969,2.915
			c0.934,0.9,2.076,1.971,3.426,3.211c1.35,1.242,2.871,2.583,4.563,4.023c5.685,4.931,10.852,9.07,15.495,12.417
			c4.641,3.348,8.491,5.993,11.551,7.935c6.262,3.959,12.248,7.208,17.951,9.746c5.705,2.536,11.131,4.381,16.277,5.533
			c6.082,1.33,11.754,1.673,17.006,1.025c2.842-0.396,5.561-1.07,8.152-2.024c2.589-0.954,5.021-2.241,7.287-3.859
			c0.541-0.396,0.997-0.775,1.378-1.134c0.377-0.36,0.792-0.802,1.242-1.323c0.45-0.522,0.89-1.125,1.321-1.808
			c0.506-0.83,0.89-1.674,1.16-2.538c0.27-0.864,0.459-1.764,0.566-2.699c0.215-2.232-0.197-4.644-1.242-7.234
			c-1.221-2.951-3.238-5.218-6.045-6.803c-1.225-0.684-2.529-1.196-3.913-1.538c-1.388-0.344-2.782-0.496-4.187-0.458
			c-2.481,0.07-4.516,0.593-6.102,1.564c-0.467,0.323-0.809,0.728-1.023,1.215c-0.215,0.486-0.388,0.963-0.512,1.431
			c-0.129,0.467-0.242,0.881-0.354,1.241c-0.104,0.36-0.27,0.558-0.484,0.595c-0.287,0.035-0.539-0.054-0.754-0.27
			c-0.073-0.109-0.129-0.235-0.163-0.379c-0.106-0.396-0.073-0.809,0.107-1.241V44.83c0.54-1.439,1.647-2.591,3.318-3.455
			c1.675-0.864,3.647-1.314,5.913-1.351c1.513-0.035,2.997,0.127,4.453,0.486c1.457,0.36,2.817,0.9,4.076,1.62
			c2.918,1.619,5.039,4.013,6.371,7.18c1.079,2.663,1.494,5.201,1.242,7.612c-0.18,2.016-0.793,3.868-1.838,5.562
			c-0.429,0.719-0.871,1.349-1.322,1.889c-0.449,0.539-0.882,0.989-1.293,1.35c-0.416,0.359-0.758,0.639-1.028,0.838
			c-0.27,0.196-0.422,0.313-0.456,0.351c-4.679,3.274-9.935,5.29-15.766,6.046c-1.764,0.216-3.581,0.325-5.453,0.325
			s-3.796-0.109-5.775-0.325c-1.979-0.216-3.996-0.559-6.048-1.026c-10.437-2.34-21.917-7.467-34.44-15.385
			c-2.774-1.764-5.456-3.564-8.048-5.399c-2.589-1.836-5.038-3.644-7.339-5.426c-2.305-1.781-4.447-3.481-6.426-5.101
			c-1.979-1.62-3.762-3.114-5.346-4.482c-1.689-1.475-3.219-2.834-4.589-4.075c-1.366-1.242-2.519-2.321-3.453-3.239
			c-0.938-0.918-1.927-1.881-2.969-2.889c0-0.035-0.315-0.352-0.944-0.945c-0.631-0.594-1.416-1.249-2.35-1.97
			c-1.654-1.295-3.098-2.105-4.318-2.429c-0.18-0.036-0.354-0.063-0.516-0.081c-0.16-0.018-0.332-0.009-0.513,0.027
			c-0.287,0.071-0.495,0.181-0.619,0.323c-0.128,0.143-0.118,0.413,0.028,0.809c0.106,0.289,0.484,0.855,1.131,1.702
			c0.65,0.846,1.449,1.844,2.404,2.995c0.952,1.152,1.98,2.402,3.076,3.753c1.098,1.35,2.143,2.682,3.132,3.995
			s1.845,2.537,2.563,3.67c0.721,1.135,1.17,2.078,1.35,2.836c0.073,0.251,0.09,0.484,0.057,0.701
			c-0.039,0.181-0.091,0.378-0.163,0.594c-0.073,0.216-0.218,0.359-0.433,0.432c-0.325,0.18-0.641,0.171-0.945-0.026
			c-0.305-0.198-0.584-0.425-0.837-0.675c-0.287-0.253-0.675-0.594-1.159-1.025c-0.488-0.433-1.035-0.901-1.646-1.405
			c-0.287-0.215-0.578-0.432-0.865-0.647c-0.253-0.18-0.512-0.36-0.782-0.54s-0.55-0.343-0.837-0.485
			c-0.143-0.072-0.287-0.127-0.434-0.162c-0.248-0.071-0.342,0.071-0.27,0.433c0.072,0.215,0.207,0.484,0.404,0.81
			c0.201,0.323,0.378,0.666,0.541,1.026c0.162,0.358,0.262,0.718,0.297,1.079c0.038,0.359-0.072,0.665-0.325,0.918
			c-0.287,0.286-0.563,0.313-0.834,0.081c-0.27-0.236-0.478-0.442-0.622-0.622c-0.143-0.18-0.305-0.377-0.484-0.594
			c-0.181-0.215-0.305-0.377-0.378-0.486c-0.471-0.539-1.011-1.132-1.619-1.78c-0.505-0.469-0.938-0.872-1.298-1.214
			s-0.682-0.622-0.973-0.838c-0.142-0.107-0.287-0.197-0.432-0.271c-0.143-0.071-0.242-0.071-0.295,0
			c-0.055,0.073-0.027,0.252,0.08,0.541c0.107,0.288,0.342,0.773,0.702,1.457c0.468,0.863,0.8,1.646,0.997,2.348
			c0.2,0.702,0.297,1.314,0.297,1.836s-0.052,0.971-0.162,1.35c-0.107,0.378-0.232,0.676-0.377,0.891
			c-0.07,0.108-0.163,0.234-0.271,0.378c-0.142,0.217-0.377,0.415-0.702,0.595c-0.646,0.432-1.35,0.647-2.104,0.647
			c-0.467,0-1.008-0.091-1.619-0.271c-1.188-0.322-2.447-0.972-3.779-1.943c-0.578-0.396-1.107-0.792-1.596-1.188
			c-0.484-0.396-0.916-0.765-1.293-1.106c-0.377-0.343-0.676-0.63-0.89-0.863c-0.218-0.234-0.343-0.371-0.381-0.405
			c-0.896-0.899-1.671-1.691-2.318-2.375c-0.65-0.684-1.242-1.323-1.782-1.917c-0.539-0.594-1.045-1.162-1.512-1.701
			s-0.973-1.115-1.512-1.727c-0.215-0.216-0.215-0.396,0-0.541c0.214-0.215,0.397-0.196,0.539,0.056
			c0.54,0.611,1.045,1.187,1.512,1.727c0.468,0.54,0.973,1.097,1.513,1.673s1.132,1.207,1.782,1.891
			c0.646,0.684,1.422,1.475,2.318,2.376c0.505,0.467,0.993,0.916,1.46,1.349c0.395,0.396,0.827,0.784,1.294,1.161
			s0.9,0.709,1.298,0.999C226.974,43.66,227.772,44.119,228.655,44.532z M315.815,68.61c-0.143-0.09-0.271-0.171-0.377-0.243
			c0.18,0,0.197-0.07,0.055-0.215c-0.072,0.035-0.1,0.081-0.083,0.134c0.021,0.055,0.011,0.046-0.028-0.025
			c0,0.036-0.034-0.019-0.106-0.163c0.038-0.106,0.038-0.197,0-0.27c-0.034-0.072-0.034-0.162,0-0.27
			c0.072-0.144,0.2-0.252,0.377-0.324c0.184-0.072,0.343-0.072,0.487,0c0.107,0.035,0.201,0.082,0.271,0.135
			c0.073,0.054,0.146,0.116,0.214,0.189c0.254,0.503,0.146,0.863-0.321,1.08C316.123,68.711,315.96,68.7,315.815,68.61z
			 M307.908,64.076c0.091-0.342,0.26-0.612,0.513-0.811c0.252-0.197,0.505-0.269,0.754-0.216c0.252,0.055,0.377,0.298,0.377,0.73
			c0.038,0.358-0.068,0.701-0.322,1.025c-0.252,0.324-0.574,0.432-0.972,0.324C307.933,64.769,307.818,64.418,307.908,64.076z
			 M255.891,43.588c0.287-0.108,0.558-0.108,0.81,0c0.291,0.072,0.506,0.145,0.647,0.217c0.18,0.144,0.343,0.305,0.487,0.485
			c0.143,0.18,0.232,0.378,0.271,0.593c0.034,0.109,0.034,0.218,0,0.325c-0.038,0.108-0.056,0.198-0.056,0.271
			c-0.072,0.106-0.152,0.224-0.242,0.35c-0.09,0.125-0.207,0.244-0.35,0.352c-0.145,0.071-0.297,0.144-0.46,0.216
			s-0.315,0.09-0.46,0.054c-0.18,0-0.322-0.026-0.433-0.081c-0.107-0.054-0.231-0.1-0.378-0.135
			c-0.287-0.216-0.484-0.45-0.592-0.701c-0.109-0.216-0.18-0.396-0.217-0.54c-0.143-0.468-0.053-0.828,0.27-1.079
			C255.406,43.768,255.638,43.66,255.891,43.588z M255.243,30.794c0.146,0.071,0.253,0.162,0.322,0.271
			c0.072,0.143,0.101,0.243,0.083,0.296c-0.017,0.053-0.045,0.136-0.083,0.243c-0.176,0.216-0.356,0.307-0.539,0.27
			c-0.181-0.035-0.322-0.125-0.43-0.27c-0.111-0.143-0.146-0.306-0.111-0.486c0.039-0.18,0.184-0.305,0.434-0.378
			C254.991,30.704,255.099,30.723,255.243,30.794z M246.496,44.722c0.218,0.072,0.397,0.198,0.54,0.379
			c0.072,0.18,0.083,0.404,0.027,0.674c-0.052,0.271-0.242,0.44-0.567,0.515c-0.069,0-0.187-0.021-0.349-0.056
			c-0.163-0.036-0.281-0.09-0.354-0.161c-0.177-0.108-0.27-0.27-0.27-0.487c0-0.214,0.037-0.377,0.11-0.484
			c0.034-0.145,0.124-0.253,0.271-0.326C246.085,44.668,246.282,44.65,246.496,44.722z"/>
		<path d="M219.396,44.938c0.219-0.072,0.398-0.056,0.54,0.054c0.107,0.035,0.197,0.054,0.271,0.054
			c0.072,0,0.145,0.035,0.217,0.107c0.287,0.218,0.468,0.467,0.541,0.757c0.034,0.072,0.034,0.144,0,0.215
			c-0.039,0.072-0.057,0.144-0.057,0.217c-0.072,0.071-0.135,0.152-0.189,0.242c-0.053,0.09-0.135,0.171-0.242,0.244
			c-0.215,0.144-0.433,0.215-0.647,0.215c-0.106,0-0.208-0.018-0.298-0.054c-0.09-0.037-0.169-0.072-0.242-0.108
			c-0.215-0.106-0.359-0.287-0.432-0.539c-0.107-0.108-0.163-0.233-0.163-0.378c-0.142-0.324-0.09-0.576,0.163-0.756
			C219.036,45.101,219.216,45.01,219.396,44.938z M193.05,31.767c0.938,1.078,1.944,2.149,3.023,3.211
			c1.08,1.062,2.268,2.025,3.564,2.888c1.439,0.972,2.935,1.71,4.48,2.214c1.08,0.359,2.125,0.558,3.133,0.594
			c-2.232-1.8-4.16-3.798-5.779-5.991c-0.035-0.073-0.287-0.478-0.754-1.215s-0.883-1.665-1.242-2.781
			c-1.008-3.058-0.484-5.471,1.566-7.233c1.008-0.936,2.232-1.52,3.672-1.755c1.439-0.234,2.879-0.098,4.318,0.404
			c1.692,0.576,3.086,1.566,4.184,2.969c1.097,1.405,1.827,3.114,2.188,5.129c0,0.074,0.027,0.297,0.079,0.675
			c0.056,0.378,0.101,0.874,0.135,1.484c0.54,0.433,1.079,0.972,1.619,1.621c1.114,1.367,1.837,2.896,2.159,4.588
			c0.287,1.584,0.18,2.951-0.322,4.103c-0.183,0.361-0.414,0.684-0.701,0.973c-0.253,0.251-0.568,0.486-0.945,0.701
			c-0.377,0.217-0.854,0.324-1.433,0.324c-0.899,0-1.94-0.234-3.132-0.702c-1.187-0.468-2.429-1.115-3.723-1.941
			c-0.146-0.109-0.287-0.208-0.433-0.298c-0.142-0.091-0.287-0.188-0.433-0.298c-3.021,0.073-6.027-0.9-9.014-2.915
			c-1.367-0.901-2.602-1.89-3.699-2.969c-1.097-1.081-2.114-2.178-3.052-3.293c-0.069-0.072-0.107-0.152-0.107-0.243
			c0-0.09,0.038-0.171,0.107-0.242C192.693,31.586,192.873,31.586,193.05,31.767z M214.646,43.75
			c0.29,0.073,0.605,0.127,0.943,0.163c0.344,0.035,0.658,0.017,0.945-0.055c0.467-0.108,0.803-0.387,1-0.836
			c0.197-0.451,0.27-0.982,0.215-1.594c-0.053-0.612-0.215-1.295-0.484-2.05c-0.271-0.757-0.641-1.514-1.107-2.27
			c-0.146-0.179-0.281-0.368-0.405-0.567c-0.124-0.196-0.276-0.386-0.46-0.565c-0.143,0.505-0.312,0.999-0.512,1.485
			c-0.197,0.485-0.457,0.944-0.783,1.375c-1.045,1.439-2.553,2.268-4.535,2.484c0.758,0.503,1.505,0.936,2.242,1.295
			c0.736,0.36,1.411,0.648,2.023,0.863C214.015,43.588,214.323,43.678,214.646,43.75z M215.617,47.476
			c0.184-0.072,0.343-0.09,0.487-0.055c0.107,0.036,0.197,0.09,0.271,0.163c0.069,0.069,0.142,0.143,0.214,0.215
			c0.107,0.181,0.136,0.379,0.08,0.595c-0.052,0.215-0.187,0.358-0.404,0.432c-0.18,0.071-0.343,0.071-0.484,0
			c-0.146-0.073-0.271-0.145-0.377-0.217c0.18-0.071,0.197-0.145,0.051-0.215c-0.068,0-0.096,0.026-0.079,0.081
			c0.017,0.054,0.011,0.062-0.028,0.026c0-0.073-0.006-0.107-0.027-0.107c-0.018,0-0.045-0.035-0.079-0.108
			c0-0.072-0.011-0.154-0.028-0.243c-0.018-0.09-0.006-0.17,0.028-0.243C215.312,47.653,215.437,47.548,215.617,47.476z
			 M210.028,40.268c0.416-0.16,0.766-0.333,1.057-0.514c0.321-0.179,0.591-0.375,0.809-0.592c0.502-0.505,0.935-1.135,1.295-1.89
			c0.359-0.756,0.595-1.602,0.702-2.539c-0.969-0.717-1.924-1.214-2.862-1.483c-0.934-0.27-1.566-0.422-1.889-0.459
			c-0.18-0.035-0.332-0.055-0.461-0.055c-0.124,0-0.242-0.035-0.349-0.107c-0.181-0.07-0.325-0.152-0.433-0.242
			s-0.143-0.243-0.107-0.46c0-0.323,0.146-0.629,0.433-0.917c0.142-0.145,0.287-0.234,0.429-0.271
			c0.219-0.071,0.363-0.125,0.434-0.161c0.072-0.035,0.145-0.054,0.217-0.054c0.181-0.036,0.502-0.062,0.973-0.082
			c0.467-0.017,1.008,0.046,1.619,0.188c0.613,0.108,1.26,0.325,1.941,0.649c-0.068-0.468-0.162-0.945-0.27-1.432
			c-0.107-0.484-0.25-0.981-0.433-1.483c-0.468-1.477-1.079-2.619-1.834-3.43c-0.755-0.809-1.519-1.403-2.294-1.78
			c-0.775-0.379-1.495-0.603-2.159-0.677c-0.668-0.07-1.181-0.106-1.54-0.106c-1.512,0.181-2.771,0.72-3.778,1.619
			c-1.765,1.548-2.215,3.707-1.35,6.479c0.146,0.36,0.304,0.737,0.484,1.134c0.184,0.36,0.388,0.765,0.623,1.215
			s0.512,0.909,0.837,1.376c0.935,1.332,1.951,2.538,3.049,3.618c1.1,1.08,2.204,2.032,3.322,2.86
			C209.104,40.564,209.617,40.43,210.028,40.268z M206.925,44.29c0.18-0.071,0.343-0.091,0.488-0.054
			c0.107,0.035,0.197,0.09,0.27,0.162c0.072,0.071,0.146,0.143,0.215,0.217c0.107,0.179,0.135,0.377,0.08,0.593
			c-0.053,0.216-0.188,0.359-0.405,0.432c-0.181,0.073-0.339,0.073-0.484,0c-0.142-0.072-0.271-0.145-0.378-0.216
			c0.073,0,0.118-0.026,0.136-0.08c0.017-0.055-0.011-0.101-0.083-0.136c-0.069,0-0.098,0.027-0.08,0.081
			c0.018,0.055,0.011,0.062-0.027,0.027c0-0.073-0.007-0.108-0.027-0.108c-0.018,0-0.045-0.036-0.08-0.107
			c0-0.073-0.007-0.153-0.027-0.242c-0.018-0.091-0.008-0.173,0.027-0.243C206.62,44.47,206.745,44.363,206.925,44.29z"/>
		<path d="M132.208,55.682c1.619,1.259,4.094,2.078,7.422,2.456c3.333,0.379,7.606,0.297,12.824-0.243
			c4.644-0.468,9.592-1.188,14.848-2.16c5.253-0.971,10.526-1.979,15.816-3.021c2.087-0.396,4.149-0.802,6.181-1.216
			c2.034-0.414,4.021-0.8,5.966-1.16c-1.945-2.268-3.752-4.49-5.426-6.667c-1.672-2.18-3.139-4.149-4.398-5.911
			c-0.291-0.433-0.584-0.864-0.893-1.296c-0.305-0.432-0.585-0.828-0.838-1.188c-0.287-0.396-0.557-0.791-0.809-1.188
			c-0.287-0.396-0.496-0.747-0.62-1.054c-0.124-0.304-0.208-0.584-0.242-0.836c-0.038-0.287,0-0.54,0.107-0.756
			c0.146-0.359,0.315-0.576,0.513-0.647s0.397-0.055,0.595,0.054c0.196,0.108,0.394,0.27,0.591,0.486
			c0.201,0.215,0.371,0.433,0.516,0.648c0.682,0.827,1.529,1.754,2.537,2.779c1.007,1.026,2.068,2.006,3.184,2.942
			c1.117,0.935,2.231,1.781,3.35,2.537c1.113,0.756,2.104,1.277,2.969,1.566c0.287,0.071,0.519,0.115,0.702,0.134
			c0.18,0.018,0.339,0.027,0.484,0.027c0.142,0,0.271-0.019,0.377-0.054c0.325-0.216,0.28-0.675-0.135-1.377
			c-0.411-0.701-1.007-1.476-1.782-2.32c-0.771-0.846-1.619-1.701-2.536-2.565c-0.917-0.863-1.737-1.565-2.456-2.105
			c-0.789-0.612-1.305-1.142-1.537-1.592c-0.235-0.45-0.01-0.855,0.675-1.216c0.287-0.144,0.574-0.196,0.862-0.161
			c0.29,0.036,0.566,0.107,0.837,0.216c0.27,0.107,0.522,0.242,0.754,0.404c0.235,0.162,0.426,0.298,0.567,0.405
			c0.827,0.613,1.568,1.305,2.215,2.079c0.646,0.773,1.197,1.511,1.646,2.213c0.45,0.702,0.8,1.296,1.053,1.781
			c0.252,0.486,0.395,0.765,0.432,0.837c0.035,0.072,0.125,0.261,0.271,0.566c0.142,0.306,0.26,0.656,0.35,1.054
			c0.09,0.395,0.135,0.8,0.135,1.214c0,0.413-0.106,0.747-0.321,0.999c-0.253,0.323-0.668,0.486-1.242,0.486
			c-0.434,0-0.955-0.107-1.568-0.323c-0.646-0.216-1.366-0.56-2.155-1.027c-0.792-0.468-1.603-1.007-2.433-1.62
			c-0.827-0.611-1.654-1.276-2.48-1.997c-0.831-0.72-1.623-1.438-2.377-2.159c1.079,1.584,2.18,3.131,3.293,4.645
			c1.115,1.51,2.16,2.914,3.132,4.21c0.973,1.295,1.834,2.411,2.592,3.347c0.755,0.936,1.294,1.619,1.62,2.053
			c4.498-0.83,8.598-1.441,12.307-1.837c3.707-0.396,6.786-0.414,9.232-0.054c5.613,0.865,9.25,2.808,10.903,5.83
			c0.36,0.72,0.612,1.476,0.758,2.268c0.142,0.685,0.208,1.466,0.187,2.35c-0.018,0.88-0.242,1.808-0.674,2.779
			c-1.008,2.338-2.682,3.941-5.021,4.805c-0.72,0.288-1.475,0.494-2.266,0.621c-0.793,0.124-1.603,0.189-2.43,0.189
			c-1.512,0-2.996-0.181-4.453-0.541c-1.457-0.359-2.744-0.828-3.861-1.403c-4.713-2.375-10.133-7.037-16.25-13.982
			c-2.014,0.396-4.076,0.801-6.18,1.215c-2.107,0.413-4.238,0.838-6.398,1.269c-5.29,1.044-10.563,2.052-15.816,3.023
			c-5.256,0.973-10.204,1.692-14.848,2.159c-2.52,0.288-4.796,0.45-6.83,0.486c-2.031,0.035-3.893-0.02-5.586-0.161
			c-3.781-0.362-6.588-1.261-8.422-2.7c-1.657-1.332-2.539-3.061-2.646-5.183c-0.035-0.073-0.027-0.424,0.027-1.053
			c0.056-0.63,0.332-1.197,0.838-1.701c0.682-0.755,1.709-1.098,3.076-1.025c0.252,0.072,0.377,0.216,0.377,0.433
			c0,0.286-0.125,0.396-0.377,0.323c-1.115-0.037-1.963,0.216-2.537,0.756c-0.145,0.144-0.27,0.324-0.377,0.54
			c-0.072,0.181-0.145,0.413-0.218,0.702c-0.073,0.287-0.107,0.61-0.107,0.972C129.96,53.054,130.769,54.602,132.208,55.682z
			 M229.386,61.025c0.287-0.826,0.467-1.565,0.539-2.213c0.07-0.648,0.062-1.368-0.027-2.159c-0.09-0.793-0.354-1.603-0.781-2.431
			c-1.513-2.771-4.952-4.569-10.312-5.397c-0.539-0.073-1.107-0.126-1.702-0.161c-0.592-0.036-1.231-0.056-1.917-0.056
			c-2.263,0-4.875,0.181-7.827,0.541c-2.951,0.36-6.118,0.845-9.501,1.456c1.764,2.161,3.625,4.23,5.588,6.21
			c1.962,1.979,3.992,3.697,6.1,5.155c2.104,1.458,4.246,2.564,6.426,3.32c2.177,0.756,4.363,0.989,6.558,0.701
			c1.259-0.18,2.321-0.521,3.187-1.025c0.861-0.503,1.564-1.062,2.104-1.674C228.465,62.646,228.987,61.891,229.386,61.025z"/>
		<path d="M180.42,44.938c0.214-0.072,0.395-0.056,0.54,0.054c0.107,0.035,0.197,0.054,0.27,0.054s0.142,0.035,0.215,0.107
			c0.287,0.218,0.467,0.467,0.539,0.757c0.039,0.072,0.039,0.144,0,0.215c-0.034,0.072-0.052,0.144-0.052,0.217
			c-0.072,0.071-0.135,0.152-0.19,0.242c-0.055,0.09-0.135,0.171-0.242,0.244c-0.218,0.144-0.432,0.215-0.646,0.215
			c-0.111,0-0.208-0.018-0.298-0.054c-0.09-0.037-0.173-0.072-0.242-0.108c-0.218-0.106-0.36-0.287-0.433-0.539
			c-0.107-0.108-0.162-0.233-0.162-0.378c-0.146-0.324-0.09-0.576,0.162-0.756C180.06,45.101,180.239,45.01,180.42,44.938z
			 M154.073,31.767c0.938,1.078,1.945,2.149,3.024,3.211s2.267,2.025,3.563,2.888c1.439,0.972,2.932,1.71,4.479,2.214
			c1.083,0.359,2.125,0.558,3.131,0.594c-2.229-1.8-4.155-3.798-5.775-5.991c-0.034-0.073-0.287-0.478-0.754-1.215
			s-0.883-1.665-1.242-2.781c-1.007-3.058-0.488-5.471,1.564-7.233c1.007-0.936,2.231-1.52,3.671-1.755
			c1.439-0.234,2.879-0.098,4.318,0.404c1.692,0.576,3.087,1.566,4.184,2.969c1.101,1.405,1.827,3.114,2.187,5.129
			c0,0.074,0.027,0.297,0.084,0.675c0.051,0.378,0.096,0.874,0.135,1.484c0.539,0.433,1.079,0.972,1.619,1.621
			c1.114,1.367,1.834,2.896,2.159,4.588c0.287,1.584,0.18,2.951-0.325,4.103c-0.18,0.361-0.412,0.684-0.703,0.973
			c-0.248,0.251-0.563,0.486-0.944,0.701c-0.377,0.217-0.854,0.324-1.429,0.324c-0.9,0-1.945-0.234-3.132-0.702
			s-2.429-1.115-3.727-1.941c-0.142-0.109-0.287-0.208-0.429-0.298c-0.146-0.091-0.287-0.188-0.433-0.298
			c-3.024,0.073-6.028-0.9-9.018-2.915c-1.366-0.901-2.599-1.89-3.695-2.969c-1.101-1.081-2.114-2.178-3.052-3.293
			c-0.073-0.072-0.107-0.152-0.107-0.243c0-0.09,0.034-0.171,0.107-0.242C153.714,31.586,153.894,31.586,154.073,31.767z
			 M175.669,43.75c0.287,0.073,0.602,0.127,0.944,0.163c0.343,0.035,0.657,0.017,0.944-0.055c0.468-0.108,0.8-0.387,1-0.836
			c0.197-0.451,0.271-0.982,0.215-1.594c-0.055-0.612-0.215-1.295-0.484-2.05c-0.27-0.757-0.641-1.514-1.107-2.27
			c-0.145-0.179-0.279-0.368-0.404-0.567c-0.129-0.196-0.28-0.386-0.461-0.565c-0.142,0.505-0.314,0.999-0.512,1.485
			c-0.197,0.485-0.46,0.944-0.781,1.375c-1.045,1.439-2.558,2.268-4.537,2.484c0.758,0.503,1.502,0.936,2.242,1.295
			c0.737,0.36,1.412,0.648,2.024,0.863C175.039,43.588,175.344,43.678,175.669,43.75z M176.642,47.476
			c0.18-0.072,0.339-0.09,0.484-0.055c0.107,0.036,0.197,0.09,0.27,0.163c0.072,0.069,0.146,0.143,0.218,0.215
			c0.107,0.181,0.136,0.379,0.079,0.595c-0.055,0.215-0.189,0.358-0.404,0.432c-0.18,0.071-0.342,0.071-0.484,0
			c-0.145-0.073-0.27-0.145-0.381-0.217c0.18-0.071,0.201-0.145,0.056-0.215c-0.073,0-0.097,0.026-0.079,0.081
			c0.018,0.054,0.006,0.062-0.028,0.026c0-0.073-0.011-0.107-0.027-0.107c-0.018,0-0.045-0.035-0.083-0.108
			c0-0.072-0.008-0.154-0.024-0.243c-0.017-0.09-0.011-0.17,0.024-0.243C176.333,47.653,176.462,47.548,176.642,47.476z
			 M171.053,40.268c0.415-0.16,0.765-0.333,1.052-0.514c0.326-0.179,0.596-0.375,0.811-0.592c0.505-0.505,0.938-1.135,1.297-1.89
			c0.359-0.756,0.592-1.602,0.699-2.539c-0.969-0.717-1.924-1.214-2.858-1.483c-0.938-0.27-1.567-0.422-1.893-0.459
			c-0.177-0.035-0.332-0.055-0.456-0.055c-0.125,0-0.242-0.035-0.354-0.107c-0.177-0.07-0.322-0.152-0.43-0.242
			c-0.11-0.09-0.141-0.243-0.11-0.46c0-0.323,0.146-0.629,0.433-0.917c0.146-0.145,0.291-0.234,0.433-0.271
			c0.214-0.071,0.36-0.125,0.433-0.161c0.072-0.035,0.145-0.054,0.215-0.054c0.18-0.036,0.505-0.062,0.972-0.082
			c0.468-0.017,1.007,0.046,1.62,0.188c0.611,0.108,1.259,0.325,1.944,0.649c-0.073-0.468-0.163-0.945-0.271-1.432
			c-0.107-0.484-0.252-0.981-0.432-1.483c-0.468-1.477-1.08-2.619-1.834-3.43c-0.758-0.809-1.523-1.403-2.298-1.78
			c-0.772-0.379-1.491-0.603-2.159-0.677c-0.664-0.07-1.177-0.106-1.537-0.106c-1.512,0.181-2.771,0.72-3.777,1.619
			c-1.766,1.548-2.215,3.707-1.35,6.479c0.142,0.36,0.305,0.737,0.484,1.134c0.18,0.36,0.387,0.765,0.619,1.215
			c0.234,0.45,0.516,0.909,0.838,1.376c0.938,1.332,1.954,2.538,3.051,3.618c1.098,1.08,2.205,2.032,3.322,2.86
			C170.126,40.564,170.638,40.43,171.053,40.268z M167.949,44.29c0.18-0.071,0.343-0.091,0.484-0.054
			c0.107,0.035,0.197,0.09,0.271,0.162c0.076,0.071,0.145,0.143,0.217,0.217c0.107,0.179,0.135,0.377,0.08,0.593
			s-0.19,0.359-0.404,0.432c-0.181,0.073-0.344,0.073-0.484,0c-0.146-0.072-0.271-0.145-0.381-0.216c0.072,0,0.117-0.026,0.135-0.08
			c0.021-0.055-0.008-0.101-0.08-0.136c-0.072,0-0.1,0.027-0.079,0.081c0.017,0.055,0.007,0.062-0.028,0.027
			c0-0.073-0.01-0.108-0.027-0.108s-0.045-0.036-0.08-0.107c0-0.073-0.01-0.153-0.027-0.242c-0.018-0.091-0.01-0.173,0.027-0.243
			C167.645,44.47,167.769,44.363,167.949,44.29z"/>
		<path d="M148.485,39.323c1.062,0.467,2.135,0.539,3.215,0.217c0.359-0.107,0.612-0.235,0.754-0.378
			c0.107-0.074,0.197-0.162,0.27-0.27c0.468-0.541,0.647-1.243,0.54-2.106c-0.106-0.864-0.304-1.709-0.595-2.537
			c-0.356-0.936-0.845-1.944-1.457-3.023c-1.328-1.944-2.401-3.328-3.211-4.157c-0.81-0.827-1.433-1.33-1.861-1.511
			c-0.506-0.216-0.865-0.145-1.08,0.216c0,0.036-0.021,0.09-0.055,0.161c-0.035,0.073-0.057,0.127-0.057,0.162
			s-0.014,0.072-0.051,0.108c-0.073,0.289-0.101,0.629-0.084,1.026c0.021,0.396,0.102,0.827,0.246,1.295
			c0.072,0.252-0.021,0.414-0.27,0.484c-0.219,0.074-0.359-0.016-0.433-0.269c-0.397-1.26-0.433-2.24-0.107-2.941
			c0.321-0.703,0.737-1.196,1.239-1.485c1.152-0.54,2.611-0.197,4.373,1.026c0.793,0.539,1.522,1.214,2.188,2.023
			c0.668,0.811,1.231,1.684,1.699,2.618c0.037,0.036,0.172,0.306,0.408,0.811c0.231,0.504,0.456,1.116,0.674,1.835
			c0.647,2.017,0.699,3.708,0.16,5.075c-0.541,1.26-1.564,2.105-3.076,2.537c-0.395,0.145-0.865,0.216-1.405,0.216
			c-1.294,0-2.679-0.468-4.155-1.404c-0.721-0.467-1.315-0.908-1.783-1.321c-0.467-0.415-0.736-0.657-0.809-0.729
			c-0.721-0.683-1.385-1.368-1.997-2.053c-0.612-0.684-1.208-1.33-1.782-1.943c-0.142-0.143-0.27-0.277-0.377-0.405
			c-0.107-0.125-0.219-0.243-0.325-0.35c-0.142-0.18-0.124-0.36,0.056-0.54c0.18-0.144,0.359-0.126,0.539,0.055
			c0.107,0.106,0.215,0.224,0.322,0.35c0.11,0.128,0.218,0.242,0.325,0.352c0.577,0.611,1.169,1.26,1.782,1.943
			c0.612,0.684,1.276,1.369,1.996,2.052c0.18,0.18,0.359,0.342,0.54,0.485c0.18,0.145,0.353,0.288,0.513,0.432
			c0.162,0.144,0.318,0.27,0.459,0.379C146.534,38.333,147.427,38.855,148.485,39.323z"/>
		<path d="M144.357,44.938c0.214-0.072,0.395-0.056,0.54,0.054c0.107,0.035,0.197,0.054,0.27,0.054s0.142,0.035,0.215,0.107
			c0.291,0.218,0.467,0.467,0.539,0.757c0.039,0.072,0.039,0.144,0,0.215c-0.034,0.072-0.051,0.144-0.051,0.217
			c-0.073,0.071-0.136,0.152-0.191,0.242c-0.052,0.09-0.135,0.171-0.242,0.244c-0.215,0.144-0.432,0.215-0.646,0.215
			c-0.107,0-0.208-0.018-0.298-0.054c-0.09-0.037-0.169-0.072-0.242-0.108c-0.218-0.106-0.36-0.287-0.433-0.539
			c-0.107-0.108-0.162-0.233-0.162-0.378c-0.146-0.324-0.09-0.576,0.162-0.756C143.997,45.101,144.177,45.01,144.357,44.938z
			 M118.011,31.767c0.938,1.078,1.945,2.149,3.024,3.211s2.267,2.025,3.564,2.888c1.439,0.972,2.935,1.71,4.481,2.214
			c1.079,0.359,2.124,0.558,3.131,0.594c-2.232-1.8-4.159-3.798-5.779-5.991c-0.033-0.073-0.287-0.478-0.754-1.215
			s-0.883-1.665-1.242-2.781c-1.007-3.058-0.488-5.471,1.564-7.233c1.01-0.936,2.231-1.52,3.671-1.755
			c1.439-0.234,2.882-0.098,4.318,0.404c1.692,0.576,3.087,1.566,4.187,2.969c1.098,1.405,1.828,3.114,2.184,5.129
			c0,0.074,0.027,0.297,0.084,0.675c0.051,0.378,0.1,0.874,0.135,1.484c0.539,0.433,1.079,0.972,1.619,1.621
			c1.114,1.367,1.834,2.896,2.159,4.588c0.287,1.584,0.18,2.951-0.325,4.103c-0.18,0.361-0.412,0.684-0.699,0.973
			c-0.252,0.251-0.567,0.486-0.945,0.701c-0.38,0.217-0.857,0.324-1.432,0.324c-0.9,0-1.945-0.234-3.132-0.702
			s-2.429-1.115-3.724-1.941c-0.145-0.109-0.29-0.208-0.432-0.298c-0.146-0.091-0.287-0.188-0.433-0.298
			c-3.024,0.073-6.028-0.9-9.018-2.915c-1.366-0.901-2.599-1.89-3.695-2.969c-1.097-1.081-2.114-2.178-3.049-3.293
			c-0.073-0.072-0.11-0.152-0.11-0.243c0-0.09,0.037-0.171,0.11-0.242C117.651,31.586,117.831,31.586,118.011,31.767z
			 M139.606,43.75c0.287,0.073,0.602,0.127,0.944,0.163c0.343,0.035,0.657,0.017,0.944-0.055c0.468-0.108,0.8-0.387,1-0.836
			c0.197-0.451,0.271-0.982,0.215-1.594c-0.052-0.612-0.215-1.295-0.484-2.05c-0.27-0.757-0.641-1.514-1.107-2.27
			c-0.145-0.179-0.279-0.368-0.404-0.567c-0.125-0.196-0.28-0.386-0.461-0.565c-0.142,0.505-0.314,0.999-0.512,1.485
			c-0.197,0.485-0.46,0.944-0.781,1.375c-1.045,1.439-2.558,2.268-4.537,2.484c0.758,0.503,1.506,0.936,2.242,1.295
			c0.74,0.36,1.412,0.648,2.024,0.863C138.977,43.588,139.281,43.678,139.606,43.75z M140.579,47.476
			c0.18-0.072,0.342-0.09,0.484-0.055c0.107,0.036,0.197,0.09,0.27,0.163c0.072,0.069,0.146,0.143,0.218,0.215
			c0.107,0.181,0.136,0.379,0.079,0.595c-0.055,0.215-0.189,0.358-0.404,0.432c-0.18,0.071-0.342,0.071-0.484,0
			c-0.145-0.073-0.27-0.145-0.381-0.217c0.184-0.071,0.201-0.145,0.056-0.215c-0.073,0-0.097,0.026-0.079,0.081
			c0.018,0.054,0.006,0.062-0.028,0.026c0-0.073-0.011-0.107-0.024-0.107c-0.021,0-0.048-0.035-0.082-0.108
			c0-0.072-0.012-0.154-0.028-0.243c-0.017-0.09-0.011-0.17,0.028-0.243C140.274,47.653,140.399,47.548,140.579,47.476z
			 M134.99,40.268c0.415-0.16,0.765-0.333,1.052-0.514c0.326-0.179,0.596-0.375,0.811-0.592c0.505-0.505,0.938-1.135,1.297-1.89
			c0.359-0.756,0.592-1.602,0.703-2.539c-0.973-0.717-1.928-1.214-2.862-1.483c-0.938-0.27-1.567-0.422-1.89-0.459
			c-0.18-0.035-0.332-0.055-0.459-0.055c-0.125,0-0.242-0.035-0.35-0.107c-0.181-0.07-0.326-0.152-0.434-0.242
			s-0.145-0.243-0.107-0.46c0-0.323,0.143-0.629,0.43-0.917c0.146-0.145,0.291-0.234,0.433-0.271
			c0.218-0.071,0.36-0.125,0.433-0.161c0.072-0.035,0.145-0.054,0.215-0.054c0.184-0.036,0.505-0.062,0.972-0.082
			c0.471-0.017,1.011,0.046,1.62,0.188c0.611,0.108,1.263,0.325,1.944,0.649c-0.073-0.468-0.163-0.945-0.271-1.432
			c-0.107-0.484-0.252-0.981-0.432-1.483c-0.468-1.477-1.08-2.619-1.834-3.43c-0.758-0.809-1.523-1.403-2.295-1.78
			c-0.775-0.379-1.494-0.603-2.158-0.677c-0.668-0.07-1.181-0.106-1.541-0.106c-1.512,0.181-2.771,0.72-3.777,1.619
			c-1.766,1.548-2.215,3.707-1.35,6.479c0.142,0.36,0.308,0.737,0.484,1.134c0.18,0.36,0.387,0.765,0.623,1.215
			c0.231,0.45,0.512,0.909,0.834,1.376c0.938,1.332,1.954,2.538,3.051,3.618c1.098,1.08,2.205,2.032,3.318,2.86
			C134.063,40.564,134.579,40.43,134.99,40.268z M131.887,44.29c0.18-0.071,0.343-0.091,0.484-0.054
			c0.11,0.035,0.2,0.09,0.271,0.162c0.072,0.071,0.145,0.143,0.217,0.217c0.107,0.179,0.135,0.377,0.08,0.593
			c-0.052,0.216-0.188,0.359-0.404,0.432c-0.181,0.073-0.344,0.073-0.484,0c-0.146-0.072-0.271-0.145-0.378-0.216
			c0.069,0,0.114-0.026,0.136-0.08c0.017-0.055-0.011-0.101-0.084-0.136c-0.072,0-0.097,0.027-0.079,0.081
			c0.017,0.055,0.007,0.062-0.028,0.027c0-0.073-0.01-0.108-0.027-0.108s-0.045-0.036-0.08-0.107c0-0.073-0.01-0.153-0.027-0.242
			c-0.018-0.091-0.01-0.173,0.027-0.243C131.582,44.47,131.706,44.363,131.887,44.29z"/>
		<path d="M57.17,55.682c1.62,1.259,4.093,2.078,7.423,2.456c3.328,0.379,7.605,0.297,12.822-0.243
			c4.641-0.468,9.592-1.188,14.846-2.16c5.256-0.971,10.525-1.979,15.816-3.021c2.09-0.396,4.148-0.802,6.184-1.216
			c2.034-0.414,4.02-0.8,5.965-1.16c-1.945-2.268-3.751-4.49-5.426-6.667c-1.674-2.18-3.139-4.149-4.401-5.911
			c-0.287-0.433-0.585-0.864-0.89-1.296s-0.584-0.828-0.837-1.188c-0.287-0.396-0.558-0.791-0.81-1.188
			c-0.287-0.396-0.494-0.747-0.619-1.054c-0.129-0.304-0.208-0.584-0.246-0.836c-0.035-0.287,0-0.54,0.111-0.756
			c0.142-0.359,0.314-0.576,0.512-0.647s0.395-0.055,0.592,0.054c0.201,0.108,0.398,0.27,0.596,0.486
			c0.196,0.215,0.369,0.433,0.512,0.648c0.685,0.827,1.529,1.754,2.539,2.779c1.008,1.026,2.07,2.006,3.184,2.942
			c1.117,0.935,2.232,1.781,3.346,2.537c1.118,0.756,2.107,1.277,2.973,1.566c0.287,0.071,0.52,0.115,0.699,0.134
			c0.18,0.018,0.343,0.027,0.488,0.027c0.142,0,0.27-0.019,0.377-0.054c0.325-0.216,0.277-0.675-0.135-1.377
			c-0.416-0.701-1.008-1.476-1.782-2.32c-0.775-0.846-1.62-1.701-2.536-2.565c-0.918-0.863-1.737-1.565-2.457-2.105
			c-0.793-0.612-1.305-1.142-1.54-1.592c-0.231-0.45-0.007-0.855,0.675-1.216c0.291-0.144,0.578-0.196,0.865-0.161
			c0.287,0.036,0.567,0.107,0.838,0.216c0.27,0.107,0.521,0.242,0.754,0.404c0.234,0.162,0.426,0.298,0.567,0.405
			c0.827,0.613,1.563,1.305,2.214,2.079c0.647,0.773,1.194,1.511,1.647,2.213c0.446,0.702,0.8,1.296,1.052,1.781
			c0.25,0.486,0.395,0.765,0.434,0.837c0.033,0.072,0.124,0.261,0.27,0.566c0.142,0.306,0.26,0.656,0.35,1.054
			c0.09,0.395,0.135,0.8,0.135,1.214c0,0.413-0.107,0.747-0.326,0.999c-0.248,0.323-0.664,0.486-1.238,0.486
			c-0.433,0-0.955-0.107-1.567-0.323c-0.647-0.216-1.366-0.56-2.159-1.027s-1.602-1.007-2.43-1.62
			c-0.826-0.611-1.653-1.276-2.484-1.997c-0.826-0.72-1.619-1.438-2.373-2.159c1.08,1.584,2.176,3.131,3.291,4.645
			c1.117,1.51,2.162,2.914,3.131,4.21c0.973,1.295,1.838,2.411,2.592,3.347c0.758,0.936,1.298,1.619,1.619,2.053
			c4.498-0.83,8.603-1.441,12.312-1.837c3.705-0.396,6.781-0.414,9.231-0.054c5.612,0.865,9.249,2.808,10.903,5.83
			c0.359,0.72,0.612,1.476,0.758,2.268c0.142,0.685,0.203,1.466,0.187,2.35c-0.018,0.88-0.242,1.808-0.671,2.779
			c-1.011,2.338-2.686,3.941-5.021,4.805c-0.723,0.288-1.477,0.494-2.27,0.621c-0.793,0.124-1.602,0.189-2.43,0.189
			c-1.512,0-2.996-0.181-4.453-0.541c-1.46-0.359-2.747-0.828-3.861-1.403c-4.717-2.375-10.131-7.037-16.249-13.982
			c-2.015,0.396-4.076,0.801-6.184,1.215c-2.104,0.413-4.235,0.838-6.395,1.269c-5.29,1.044-10.563,2.052-15.82,3.023
			c-5.253,0.973-10.2,1.692-14.845,2.159c-2.519,0.288-4.795,0.45-6.83,0.486c-2.031,0.035-3.896-0.02-5.588-0.161
			c-3.779-0.362-6.585-1.261-8.422-2.7c-1.654-1.332-2.537-3.061-2.645-5.183c-0.034-0.073-0.027-0.424,0.027-1.053
			c0.053-0.63,0.333-1.197,0.838-1.701c0.682-0.755,1.709-1.098,3.076-1.025c0.253,0.072,0.377,0.216,0.377,0.433
			c0,0.286-0.124,0.396-0.377,0.323c-1.114-0.037-1.962,0.216-2.536,0.756c-0.146,0.144-0.271,0.324-0.381,0.54
			c-0.069,0.181-0.142,0.413-0.214,0.702c-0.073,0.287-0.107,0.61-0.107,0.972C54.921,53.054,55.73,54.602,57.17,55.682z
			 M154.343,61.025c0.288-0.826,0.468-1.565,0.541-2.213c0.072-0.648,0.062-1.368-0.025-2.159c-0.093-0.793-0.352-1.603-0.785-2.431
			c-1.512-2.771-4.947-4.569-10.311-5.397c-0.541-0.073-1.104-0.126-1.699-0.161c-0.596-0.036-1.236-0.056-1.918-0.056
			c-2.266,0-4.879,0.181-7.826,0.541c-2.951,0.36-6.121,0.845-9.502,1.456c1.762,2.161,3.627,4.23,5.588,6.21
			c1.959,1.979,3.994,3.697,6.101,5.155c2.104,1.458,4.245,2.564,6.423,3.32c2.176,0.756,4.363,0.989,6.561,0.701
			c1.26-0.18,2.321-0.521,3.184-1.025c0.864-0.503,1.566-1.062,2.106-1.674C153.427,62.646,153.949,61.891,154.343,61.025z"/>
		<path d="M105.382,44.938c0.214-0.072,0.395-0.056,0.539,0.054c0.107,0.035,0.197,0.054,0.27,0.054c0.07,0,0.143,0.035,0.215,0.107
			c0.287,0.218,0.467,0.467,0.54,0.757c0.034,0.072,0.034,0.144,0,0.215c-0.034,0.072-0.056,0.144-0.056,0.217
			c-0.072,0.071-0.135,0.152-0.187,0.242c-0.056,0.09-0.135,0.171-0.242,0.244c-0.218,0.144-0.433,0.215-0.65,0.215
			c-0.107,0-0.208-0.018-0.294-0.054c-0.094-0.037-0.174-0.072-0.246-0.108c-0.215-0.106-0.359-0.287-0.43-0.539
			c-0.109-0.108-0.162-0.233-0.162-0.378c-0.145-0.324-0.09-0.576,0.162-0.756C105.019,45.101,105.198,45.01,105.382,44.938z
			 M79.035,31.767c0.935,1.078,1.944,2.149,3.024,3.211s2.266,2.025,3.561,2.888c1.439,0.972,2.934,1.71,4.48,2.214
			c1.08,0.359,2.129,0.558,3.132,0.594c-2.231-1.8-4.155-3.798-5.774-5.991c-0.039-0.073-0.288-0.478-0.758-1.215
			c-0.468-0.737-0.879-1.665-1.242-2.781c-1.008-3.058-0.485-5.471,1.566-7.233c1.008-0.936,2.232-1.52,3.672-1.755
			c1.439-0.234,2.879-0.098,4.318,0.404c1.691,0.576,3.086,1.566,4.184,2.969c1.1,1.405,1.826,3.114,2.187,5.129
			c0,0.074,0.028,0.297,0.079,0.675c0.056,0.378,0.101,0.874,0.135,1.484c0.541,0.433,1.08,0.972,1.62,1.621
			c1.118,1.367,1.837,2.896,2.163,4.588c0.287,1.584,0.176,2.951-0.326,4.103c-0.18,0.361-0.415,0.684-0.702,0.973
			c-0.253,0.251-0.567,0.486-0.944,0.701c-0.377,0.217-0.855,0.324-1.43,0.324c-0.899,0-1.944-0.234-3.131-0.702
			c-1.19-0.468-2.43-1.115-3.727-1.941c-0.143-0.109-0.287-0.208-0.434-0.298c-0.141-0.091-0.287-0.188-0.428-0.298
			c-3.025,0.073-6.028-0.9-9.018-2.915c-1.367-0.901-2.6-1.89-3.699-2.969c-1.098-1.081-2.114-2.178-3.049-3.293
			c-0.068-0.072-0.107-0.152-0.107-0.243c0-0.09,0.039-0.171,0.107-0.242C78.675,31.586,78.854,31.586,79.035,31.767z M100.63,43.75
			c0.287,0.073,0.603,0.127,0.945,0.163c0.339,0.035,0.654,0.017,0.944-0.055c0.468-0.108,0.8-0.387,0.997-0.836
			c0.197-0.451,0.27-0.982,0.218-1.594c-0.056-0.612-0.218-1.295-0.488-2.05c-0.27-0.757-0.636-1.514-1.106-2.27
			c-0.143-0.179-0.277-0.368-0.405-0.567c-0.124-0.196-0.276-0.386-0.457-0.565c-0.146,0.505-0.315,0.999-0.513,1.485
			c-0.197,0.485-0.459,0.944-0.785,1.375c-1.041,1.439-2.553,2.268-4.533,2.484c0.755,0.503,1.502,0.936,2.239,1.295
			c0.741,0.36,1.415,0.648,2.024,0.863C100.001,43.588,100.306,43.678,100.63,43.75z M101.599,47.476
			c0.181-0.072,0.344-0.09,0.488-0.055c0.107,0.036,0.197,0.09,0.27,0.163c0.073,0.069,0.143,0.143,0.215,0.215
			c0.107,0.181,0.135,0.379,0.084,0.595c-0.057,0.215-0.191,0.358-0.405,0.432c-0.184,0.071-0.343,0.071-0.488,0
			c-0.142-0.073-0.27-0.145-0.377-0.217c0.18-0.071,0.197-0.145,0.056-0.215c-0.073,0-0.101,0.026-0.084,0.081
			c0.021,0.054,0.011,0.062-0.027,0.026c0-0.073-0.007-0.107-0.023-0.107c-0.018,0-0.045-0.035-0.084-0.108
			c0-0.072-0.006-0.154-0.027-0.243c-0.018-0.09-0.007-0.17,0.027-0.243C101.295,47.653,101.423,47.548,101.599,47.476z
			 M96.015,40.268c0.412-0.16,0.765-0.333,1.052-0.514c0.321-0.179,0.592-0.375,0.81-0.592c0.506-0.505,0.934-1.135,1.294-1.89
			c0.36-0.756,0.595-1.602,0.702-2.539c-0.972-0.717-1.924-1.214-2.861-1.483c-0.934-0.27-1.564-0.422-1.889-0.459
			c-0.18-0.035-0.332-0.055-0.457-0.055c-0.128,0-0.246-0.035-0.354-0.107c-0.18-0.07-0.321-0.152-0.432-0.242
			c-0.107-0.09-0.143-0.243-0.107-0.46c0-0.323,0.145-0.629,0.432-0.917c0.146-0.145,0.287-0.234,0.434-0.271
			c0.214-0.071,0.359-0.125,0.432-0.161c0.073-0.035,0.143-0.054,0.215-0.054c0.18-0.036,0.506-0.062,0.973-0.082
			c0.467-0.017,1.007,0.046,1.619,0.188c0.612,0.108,1.26,0.325,1.945,0.649c-0.073-0.468-0.163-0.945-0.271-1.432
			c-0.11-0.484-0.253-0.981-0.433-1.483c-0.467-1.477-1.08-2.619-1.838-3.43c-0.754-0.809-1.519-1.403-2.293-1.78
			c-0.771-0.379-1.492-0.603-2.16-0.677c-0.664-0.07-1.176-0.106-1.539-0.106c-1.509,0.181-2.769,0.72-3.779,1.619
			c-1.761,1.548-2.211,3.707-1.35,6.479c0.146,0.36,0.309,0.737,0.488,1.134c0.18,0.36,0.388,0.765,0.619,1.215
			c0.236,0.45,0.513,0.909,0.838,1.376c0.938,1.332,1.951,2.538,3.049,3.618c1.1,1.08,2.207,2.032,3.321,2.86
			C95.087,40.564,95.599,40.43,96.015,40.268z M92.911,44.29c0.18-0.071,0.338-0.091,0.484-0.054c0.107,0.035,0.197,0.09,0.27,0.162
			c0.072,0.071,0.145,0.143,0.215,0.217c0.11,0.179,0.135,0.377,0.082,0.593c-0.055,0.216-0.189,0.359-0.404,0.432
			c-0.18,0.073-0.342,0.073-0.488,0c-0.142-0.072-0.27-0.145-0.377-0.216c0.072,0,0.117-0.026,0.135-0.08
			c0.018-0.055-0.006-0.101-0.079-0.136c-0.073,0-0.101,0.027-0.083,0.081c0.021,0.055,0.01,0.062-0.027,0.027
			c0-0.073-0.008-0.108-0.025-0.108c-0.017,0-0.045-0.036-0.082-0.107c0-0.073-0.008-0.153-0.027-0.242
			c-0.018-0.091-0.008-0.173,0.027-0.243C92.603,44.47,92.73,44.363,92.911,44.29z"/>
		<path d="M70.775,42.347c0.54,0.54,1.024,1.025,1.457,1.458c0.433,0.432,0.938,0.908,1.513,1.431
			c0.574,0.521,1.186,1.033,1.833,1.539c0.471,0.359,0.966,0.719,1.485,1.079c0.521,0.359,1.055,0.675,1.594,0.944
			c0.541,0.271,1.07,0.485,1.592,0.649c0.523,0.161,1.018,0.224,1.484,0.188c0.073,0,0.181-0.055,0.326-0.162
			c0.142-0.108,0.26-0.344,0.35-0.703s0.107-0.863,0.055-1.511c-0.055-0.648-0.245-1.512-0.567-2.592
			c-0.433-1.368-0.982-2.798-1.647-4.292c-0.664-1.494-1.411-2.996-2.242-4.507c-0.826-1.512-1.698-3.016-2.615-4.509
			c-0.92-1.493-1.827-2.905-2.727-4.238c-2.087-3.131-4.336-6.225-6.748-9.285c-0.29-0.396-0.612-0.836-0.973-1.322
			c-0.359-0.486-0.757-0.999-1.189-1.539c-1.977,0.108-3.965,0.197-5.965,0.27c-1.997,0.073-4.021,0.108-6.073,0.108
			c-1.401,0-2.796-0.027-4.184-0.08c-1.384-0.055-2.761-0.117-4.128-0.189c-2.703-0.18-5.148-0.478-7.343-0.892
			c-2.197-0.412-4.138-0.926-5.831-1.538c-3.958-1.476-6.498-3.526-7.611-6.155c-0.287-0.647-0.45-1.249-0.488-1.809
			c-0.035-0.557-0.018-1.053,0.055-1.484c0.107-0.503,0.253-0.971,0.434-1.403c0.611-0.972,1.619-1.565,3.02-1.78
			c0.219-0.073,0.364,0.035,0.434,0.322c0,0.254-0.107,0.396-0.322,0.432c-1.152,0.146-1.979,0.613-2.484,1.403
			c-0.215,0.397-0.332,0.82-0.35,1.27c-0.021,0.451,0,0.872,0.053,1.27c0.055,0.396,0.127,0.729,0.217,0.999
			c0.09,0.27,0.135,0.423,0.135,0.458c1.008,2.411,3.402,4.338,7.181,5.777c3.273,1.188,7.592,1.979,12.955,2.375
			c3.169,0.216,6.433,0.297,9.8,0.243c3.366-0.055,6.685-0.171,9.958-0.352c-0.356-0.468-0.716-0.926-1.079-1.377
			c-0.357-0.449-0.737-0.926-1.132-1.431c-0.181-0.18-0.343-0.377-0.487-0.594c-0.143-0.179-0.305-0.413-0.484-0.702
			c-0.181-0.287-0.395-0.629-0.648-1.025c-0.217-0.324-0.342-0.603-0.377-0.837c-0.037-0.233-0.037-0.439,0-0.62
			c0.07-0.18,0.16-0.341,0.271-0.486c0.287-0.286,0.709-0.251,1.267,0.109c0.561,0.358,1.142,0.809,1.754,1.35
			c0.686,0.646,1.439,1.421,2.27,2.319c0.215,0.217,0.45,0.486,0.699,0.812c0.219,0.287,0.488,0.611,0.811,0.972
			c0.324,0.359,0.685,0.792,1.079,1.295c1.118-0.071,2.208-0.143,3.267-0.216c1.062-0.071,2.097-0.144,3.104-0.216
			c2.377-0.18,4.547-0.333,6.506-0.458c1.961-0.127,3.574-0.172,4.834-0.137c1.366,0.038,2.653,0.127,3.857,0.271
			c1.207,0.145,2.332,0.359,3.377,0.648c1.727,0.432,3.129,1.044,4.208,1.835c0.972,0.686,1.612,1.296,1.917,1.836
			c0.309,0.539,0.478,0.827,0.516,0.863c0.035,0.108,0.023,0.217-0.027,0.324c-0.056,0.106-0.135,0.162-0.242,0.162
			c-0.146,0.036-0.271,0-0.381-0.108L97.987,18.7c0-0.035-0.139-0.296-0.408-0.783c-0.271-0.484-0.873-1.033-1.807-1.645
			c-0.758-0.505-1.596-0.919-2.512-1.242c-0.918-0.325-1.862-0.576-2.834-0.757c-0.973-0.18-1.936-0.313-2.89-0.403
			c-0.955-0.09-1.845-0.136-2.671-0.136c-1.26-0.036-2.862,0.009-4.807,0.136c-1.941,0.125-4.101,0.278-6.479,0.458
			c-0.934,0.072-1.889,0.135-2.861,0.188c-0.972,0.055-1.961,0.118-2.969,0.188c1.367,1.728,3.024,3.934,4.966,6.614
			c1.944,2.682,3.89,5.696,5.831,9.042c1.656,2.844,2.924,5.328,3.806,7.451c0.882,2.122,1.495,3.94,1.837,5.452
			c0.343,1.51,0.468,2.744,0.377,3.698c-0.09,0.953-0.279,1.665-0.566,2.132c-0.143,0.252-0.343,0.468-0.592,0.648
			c-0.184,0.18-0.434,0.342-0.758,0.486c-0.322,0.144-0.703,0.197-1.132,0.161c-1.729,0-3.868-1.008-6.426-3.023
			c-0.647-0.504-1.259-1.017-1.837-1.539c-0.574-0.521-1.08-0.998-1.509-1.43c-0.433-0.433-0.786-0.792-1.056-1.08
			c-0.27-0.287-0.422-0.451-0.457-0.485c-1.297-1.331-2.547-2.699-3.754-4.104c-1.204-1.403-2.294-2.698-3.267-3.887
			c-0.395-0.468-0.743-0.89-1.052-1.269c-0.305-0.377-0.602-0.729-0.889-1.054c-0.219-0.216-0.197-0.395,0.051-0.538
			c0.184-0.145,0.36-0.128,0.54,0.053c0.291,0.323,0.589,0.675,0.894,1.053c0.304,0.379,0.656,0.801,1.051,1.27
			c0.647,0.791,1.35,1.638,2.107,2.537c0.647,0.755,1.385,1.609,2.211,2.563C68.959,40.411,69.838,41.375,70.775,42.347z"/>
		<path d="M56.253,21.778c-0.035-0.109-0.072-0.352-0.107-0.729c-0.038-0.379-0.038-0.784,0-1.215
			c0.035-0.433,0.143-0.827,0.322-1.188s0.471-0.596,0.865-0.701c0.646-0.109,1.225,0.143,1.727,0.754
			c0.646,0.756,0.973,1.854,0.973,3.293c0.033,0.54-0.008,1.215-0.136,2.024c-0.124,0.811-0.405,1.701-0.837,2.673
			c-0.073,0.107-0.115,0.208-0.135,0.298c-0.018,0.089-0.062,0.171-0.135,0.243c0.791,1.547,1.574,2.825,2.349,3.833
			c0.775,1.008,1.181,1.529,1.215,1.564c0.142,0.181,0.128,0.36-0.056,0.54c-0.142,0.181-0.322,0.161-0.539-0.054
			c-0.035-0.036-0.305-0.369-0.811-0.999c-0.502-0.63-1.079-1.466-1.727-2.509c-0.252-0.434-0.522-0.918-0.81-1.459
			c-0.073,0.252-0.146,0.486-0.214,0.701c-0.146,0.469-0.236,0.848-0.273,1.134c-0.07,0.468-0.08,0.937-0.025,1.404
			c0.053,0.467,0.226,0.882,0.513,1.241c0.505,0.612,0.962,1.152,1.378,1.62c0.411,0.469,0.746,0.899,0.996,1.296
			c0.252,0.396,0.46,0.854,0.623,1.376c0.162,0.521,0.242,1.142,0.242,1.862c0,0.217,0.055,0.666,0.162,1.351
			c0.107,0.683,0.322,1.537,0.646,2.564c0.326,1.025,0.8,2.185,1.434,3.481c0.626,1.296,1.484,2.663,2.563,4.103
			c4.894-0.899,9.374-1.583,13.443-2.052c4.065-0.469,7.394-0.521,9.985-0.161c5.613,0.865,9.25,2.808,10.904,5.83
			c0.397,0.72,0.668,1.476,0.809,2.268c0.146,0.685,0.201,1.466,0.163,2.35c-0.034,0.88-0.27,1.808-0.702,2.779
			c-0.682,1.584-1.717,2.843-3.104,3.778c-1.385,0.937-3.139,1.53-5.264,1.783c-0.899,0.107-1.906,0.124-3.023,0.054
			c-0.936-0.072-2.031-0.208-3.291-0.405c-1.26-0.199-2.647-0.549-4.159-1.054c-2.159-0.791-4.184-1.726-6.073-2.807
			c-1.889-1.081-3.644-2.304-5.263-3.67c-1.26-1.081-2.411-2.261-3.456-3.536c-1.043-1.279-1.98-2.619-2.807-4.024
			c-1.692,0.325-3.402,0.658-5.129,0.999c-1.727,0.343-3.49,0.694-5.29,1.054c-5.291,1.044-10.563,2.052-15.817,3.023
			c-5.256,0.973-10.203,1.692-14.848,2.159c-2.519,0.288-4.795,0.45-6.83,0.486c-2.031,0.035-3.893-0.02-5.585-0.161
			c-3.782-0.362-6.589-1.261-8.422-2.7C1.079,55.015,0.181,53.288,0,51.093c0-0.037,0-0.154,0-0.352s0.024-0.432,0.079-0.701
			c0.056-0.271,0.146-0.558,0.271-0.863c0.128-0.308,0.315-0.586,0.567-0.838c0.686-0.755,1.709-1.098,3.076-1.025
			c0.252,0.072,0.377,0.216,0.377,0.433c0,0.286-0.142,0.396-0.429,0.323c-1.083-0.072-1.91,0.18-2.484,0.756
			c-0.146,0.18-0.271,0.377-0.378,0.594c-0.072,0.18-0.145,0.413-0.217,0.703c-0.073,0.286-0.107,0.592-0.107,0.917
			c0.107,1.979,0.916,3.527,2.429,4.643c1.619,1.259,4.093,2.078,7.422,2.456c3.333,0.379,7.606,0.297,12.823-0.243
			c2.305-0.216,4.707-0.513,7.208-0.891c2.502-0.378,5.046-0.791,7.637-1.242c2.592-0.449,5.212-0.936,7.854-1.457
			c2.647-0.521,5.284-1.052,7.91-1.592c1.727-0.361,3.447-0.703,5.156-1.027c1.709-0.322,3.391-0.646,5.049-0.972
			c-0.613-1.115-1.152-2.258-1.62-3.428c-0.467-1.17-0.845-2.33-1.135-3.481c-0.287-1.044-0.468-1.962-0.54-2.753
			c-0.068-0.793-0.09-1.387-0.052-1.782c0.107-1.511-0.29-2.825-1.19-3.94c-0.068-0.108-0.187-0.226-0.35-0.352
			c-0.162-0.126-0.332-0.26-0.512-0.405c-0.18-0.142-0.377-0.286-0.596-0.431c-1.187-0.721-1.709-1.783-1.563-3.186
			c0.038-0.612,0.231-1.314,0.592-2.106c0.073-0.071,0.135-0.206,0.19-0.404c0.052-0.197,0.117-0.387,0.187-0.566
			c0.11-0.217,0.2-0.45,0.271-0.703C57.136,25.485,56.575,23.686,56.253,21.778z M84.567,63.132
			c2.107,0.756,3.986,1.232,5.641,1.431c1.658,0.197,3.098,0.179,4.322-0.055c1.221-0.234,2.256-0.576,3.104-1.024
			c0.844-0.45,1.512-0.982,1.996-1.593c0.484-0.613,0.816-1.171,1-1.675c0.107-0.323,0.197-0.701,0.271-1.134
			c0.069-0.432,0.097-0.918,0.079-1.458c-0.018-0.539-0.09-1.098-0.215-1.673c-0.127-0.576-0.352-1.152-0.674-1.729
			c-1.512-2.771-4.951-4.569-10.312-5.397c-2.522-0.361-5.761-0.315-9.72,0.136c-3.959,0.449-8.312,1.124-13.062,2.023
			c1.148,1.476,2.581,2.951,4.291,4.428c1.709,1.476,3.789,2.915,6.234,4.318C80.114,61.242,82.464,62.375,84.567,63.132z
			 M58.603,23.938c0.052-0.721,0.007-1.548-0.135-2.483c-0.111-0.757-0.225-1.324-0.354-1.702c-0.124-0.377-0.252-0.63-0.377-0.756
			c-0.125-0.125-0.28-0.169-0.46-0.136c-0.215,0.29-0.339,0.738-0.378,1.352c-0.034,0.539,0.028,1.269,0.191,2.186
			c0.158,0.918,0.547,2.133,1.158,3.646C58.43,25.359,58.547,24.658,58.603,23.938z"/>
		<path d="M53.446,43.858c0.215-0.035,0.412-0.035,0.592,0l0.488,0.162c0.072,0.108,0.17,0.225,0.297,0.352
			c0.125,0.125,0.205,0.278,0.242,0.458c0,0.072-0.01,0.143-0.027,0.216c-0.018,0.071-0.027,0.144-0.027,0.216
			c-0.072,0.109-0.215,0.271-0.433,0.486c-0.287,0.143-0.519,0.216-0.698,0.216c-0.111,0-0.201-0.027-0.271-0.082
			c-0.073-0.054-0.163-0.079-0.271-0.079c-0.145-0.109-0.29-0.289-0.432-0.541c-0.039-0.072-0.066-0.135-0.084-0.188
			c-0.017-0.055-0.045-0.117-0.079-0.19c-0.072-0.358,0-0.611,0.215-0.754C53.069,44.021,53.229,43.93,53.446,43.858z
			 M33.038,31.767c0.107,0.106,0.219,0.224,0.326,0.35c0.106,0.128,0.214,0.242,0.321,0.352c1.011,1.115,2.124,2.303,3.349,3.563
			c1.223,1.259,2.537,2.41,3.941,3.454c0.721,0.575,1.492,1.079,2.322,1.512c0.72,0.396,1.509,0.756,2.373,1.08
			c0.865,0.323,1.748,0.503,2.648,0.539c1.041,0.073,1.771-0.062,2.183-0.403c0.415-0.343,0.634-0.82,0.651-1.431
			c0.017-0.613-0.118-1.306-0.406-2.08c-0.287-0.774-0.629-1.538-1.027-2.294c-0.395-0.756-0.789-1.475-1.187-2.159
			c-0.395-0.684-0.702-1.224-0.917-1.62c-0.287-0.54-0.449-1.034-0.488-1.484c-0.034-0.45,0.021-0.827,0.163-1.135
			c0.146-0.304,0.343-0.539,0.595-0.701c0.253-0.162,0.506-0.224,0.755-0.188c0.253,0,0.505,0.197,0.758,0.592
			c0.034,0.074,0.197,0.317,0.484,0.729c0.287,0.415,0.619,0.945,1,1.593c0.377,0.648,0.765,1.386,1.159,2.214s0.73,1.664,1,2.51
			s0.439,1.675,0.512,2.483c0.072,0.811-0.037,1.521-0.325,2.133c-0.501,1.151-1.563,1.799-3.183,1.943
			c-0.506,0.072-0.973,0.099-1.405,0.081c-0.433-0.019-0.81-0.062-1.132-0.135c-0.398-0.073-0.758-0.145-1.08-0.217
			c-0.938-0.215-1.893-0.576-2.861-1.079c-0.973-0.505-1.979-1.134-3.023-1.89c-1.439-1.044-2.782-2.205-4.021-3.481
			c-1.242-1.277-2.367-2.475-3.377-3.591c-0.142-0.143-0.27-0.277-0.377-0.405c-0.107-0.125-0.215-0.243-0.322-0.35
			c-0.145-0.18-0.128-0.36,0.053-0.54C32.679,31.568,32.858,31.586,33.038,31.767z M49.692,46.342
			c0.201-0.073,0.354-0.091,0.46-0.053c0.107,0.034,0.197,0.088,0.271,0.16c0.072,0.072,0.145,0.145,0.215,0.216
			c0.109,0.18,0.145,0.378,0.109,0.595c-0.037,0.216-0.18,0.378-0.432,0.486c-0.18,0.071-0.343,0.062-0.488-0.026
			c-0.142-0.091-0.249-0.172-0.322-0.244c0.143,0,0.143-0.072,0-0.216c-0.034,0.036-0.055,0.081-0.055,0.134
			c0,0.056-0.018,0.047-0.052-0.026c0-0.071-0.038-0.126-0.11-0.161c0.037-0.108,0.037-0.198,0-0.271
			c-0.035-0.072-0.035-0.161,0-0.271C49.36,46.521,49.495,46.413,49.692,46.342z M45.052,26.583
			c-0.018-0.288,0.025-0.566,0.135-0.837c0.107-0.271,0.271-0.486,0.484-0.648c0.215-0.162,0.451-0.225,0.703-0.188
			c0.252,0.072,0.433,0.253,0.539,0.539c0.107,0.29,0.197,0.631,0.271,1.027c0.073,0.431,0.09,0.917,0.056,1.457
			c0,0.288-0.246,0.359-0.73,0.216c-0.488-0.144-0.893-0.413-1.215-0.811C45.149,27.122,45.069,26.871,45.052,26.583z
			 M41.004,43.184c0.197-0.09,0.349-0.1,0.456-0.026c0.107,0.034,0.197,0.089,0.271,0.161s0.146,0.144,0.218,0.216
			c0.107,0.18,0.143,0.379,0.107,0.595c-0.035,0.215-0.18,0.358-0.433,0.432c-0.18,0.071-0.343,0.071-0.484,0
			c-0.146-0.073-0.253-0.145-0.325-0.217c0.107-0.107,0.107-0.18,0-0.215c-0.035,0-0.055,0.026-0.055,0.081
			c0,0.053-0.018,0.062-0.053,0.026c0-0.072-0.038-0.144-0.107-0.216c0.035-0.107,0.035-0.197,0-0.271
			c-0.037-0.072-0.037-0.144,0-0.216C40.668,43.391,40.804,43.274,41.004,43.184z"/>
		<path d="M16.439,44.587c0.882,0.414,1.737,0.621,2.563,0.621c0.682,0,1.242-0.144,1.672-0.434c0.398-0.287,0.616-0.61,0.65-0.97
			c0.143-0.685-0.09-1.674-0.702-2.97c-0.218-0.396-0.439-0.782-0.675-1.16s-0.404-0.658-0.512-0.838
			c-0.506-0.72-0.921-1.493-1.242-2.32c-0.326-0.827-0.287-1.439,0.107-1.835c0.145-0.144,0.332-0.226,0.566-0.244
			c0.236-0.018,0.457,0,0.676,0.055c0.214,0.054,0.422,0.127,0.619,0.215c0.197,0.092,0.332,0.154,0.404,0.189
			c0.36,0.181,0.782,0.424,1.27,0.729c0.484,0.307,1.091,0.73,1.807,1.27c0.253,0.18,0.506,0.359,0.758,0.539
			c0.253,0.179,0.467,0.36,0.647,0.54c0.218,0.18,0.433,0.359,0.647,0.54c-0.755-0.901-1.564-1.898-2.43-2.997
			c-0.861-1.097-1.717-2.194-2.564-3.294c-0.844-1.095-1.637-2.14-2.373-3.13c-0.737-0.989-1.343-1.861-1.811-2.617
			c-1.293-2.087-1.761-3.744-1.404-4.968c0.146-0.468,0.359-0.81,0.65-1.025c0.18-0.181,0.35-0.306,0.512-0.378
			c0.163-0.072,0.299-0.126,0.405-0.162c0.973-0.359,2.321-0.09,4.049,0.81c0.792,0.432,1.664,0.999,2.619,1.701
			c0.952,0.702,1.969,1.538,3.048,2.51c0.938,0.829,1.82,1.666,2.648,2.51c0.826,0.848,1.557,1.603,2.186,2.269
			c0.631,0.666,1.322,1.449,2.076,2.348c0.073,0.073,0.102,0.155,0.084,0.243c-0.018,0.091-0.062,0.171-0.135,0.243
			c-0.219,0.216-0.398,0.216-0.541,0c-0.758-0.863-1.449-1.638-2.079-2.321c-0.63-0.683-1.349-1.431-2.159-2.239
			c-0.81-0.811-1.682-1.629-2.619-2.457c-1.041-0.972-2.024-1.799-2.941-2.485c-0.917-0.682-1.771-1.24-2.564-1.672
			c-0.574-0.287-1.079-0.503-1.512-0.648c-0.18-0.07-0.395-0.125-0.646-0.161c-0.253-0.036-0.506-0.036-0.758,0
			c-0.287,0.071-0.495,0.18-0.619,0.323c-0.125,0.145-0.118,0.414,0.027,0.811c0.107,0.289,0.484,0.854,1.131,1.701
			c0.65,0.846,1.45,1.843,2.405,2.995c0.952,1.151,1.979,2.402,3.076,3.752c1.097,1.349,2.142,2.681,3.132,3.995
			c0.989,1.314,1.844,2.538,2.563,3.671s1.17,2.08,1.35,2.834c0.073,0.252,0.09,0.486,0.056,0.702
			c-0.039,0.18-0.09,0.378-0.163,0.594c-0.072,0.216-0.218,0.359-0.433,0.432c-0.395,0.216-0.775,0.171-1.135-0.136
			c-0.359-0.306-0.682-0.602-0.973-0.89c-0.395-0.323-0.889-0.755-1.484-1.296C25.778,39.54,25.139,39,24.457,38.46
			c-0.831-0.685-1.529-1.224-2.107-1.62c-0.574-0.396-1.059-0.702-1.456-0.918c-0.219-0.071-0.333,0-0.354,0.216
			c-0.018,0.218,0.246,0.828,0.785,1.836c0.467,0.863,0.799,1.647,0.996,2.35c0.201,0.701,0.299,1.312,0.299,1.835
			c0,0.521-0.057,0.972-0.163,1.351c-0.107,0.377-0.231,0.673-0.378,0.89c-0.18,0.323-0.411,0.594-0.701,0.81
			c-0.25,0.216-0.568,0.406-0.945,0.566c-0.377,0.162-0.854,0.243-1.43,0.243c-0.287-0.035-0.557-0.071-0.809-0.107
			c-0.253-0.037-0.523-0.091-0.811-0.162c-1.189-0.324-2.449-0.974-3.778-1.943c-0.577-0.397-1.106-0.793-1.595-1.188
			c-0.484-0.396-0.917-0.765-1.295-1.106c-0.377-0.341-0.674-0.63-0.893-0.864c-0.215-0.234-0.339-0.369-0.377-0.404
			c-0.899-0.899-1.671-1.692-2.322-2.376c-0.646-0.682-1.242-1.323-1.777-1.916c-0.544-0.593-1.045-1.16-1.513-1.7
			s-0.972-1.114-1.513-1.729c-0.217-0.216-0.217-0.395,0-0.538c0.215-0.216,0.395-0.199,0.541,0.053
			c0.539,0.613,1.045,1.187,1.512,1.728c0.467,0.54,0.973,1.107,1.508,1.701c0.541,0.594,1.136,1.233,1.783,1.916
			c0.65,0.683,1.422,1.476,2.321,2.374c0.54,0.468,1.045,0.919,1.513,1.351c0.432,0.397,0.871,0.784,1.321,1.16
			c0.45,0.379,0.854,0.693,1.214,0.946C14.758,43.714,15.558,44.173,16.439,44.587z"/>
	</g>
	<g>
		<path d="M228.655,115.789c0.883,0.415,1.737,0.621,2.564,0.621c0.685,0,1.242-0.144,1.674-0.432
			c0.395-0.288,0.613-0.612,0.647-0.972c0.146-0.684-0.09-1.673-0.702-2.968c-0.215-0.396-0.439-0.784-0.675-1.161
			c-0.235-0.379-0.405-0.657-0.513-0.838c-0.505-0.721-0.916-1.493-1.242-2.32c-0.324-0.828-0.287-1.438,0.107-1.835
			c0.18-0.18,0.416-0.263,0.703-0.243c0.287,0.018,0.574,0.063,0.865,0.134c0.969,0.287,2.373,1.368,4.211,3.24
			c0.18,0.179,0.332,0.342,0.457,0.485c0.127,0.144,0.279,0.287,0.459,0.432c-0.287-0.648-0.342-1.206-0.162-1.673
			c0.107-0.36,0.343-0.595,0.703-0.703c0.18-0.071,0.467-0.062,0.861,0.028c0.397,0.09,1.01,0.386,1.837,0.891
			c0.253,0.18,0.505,0.341,0.755,0.485c0.252,0.144,0.471,0.306,0.65,0.485c0.215,0.18,0.429,0.359,0.646,0.54
			c-0.758-0.899-1.574-1.907-2.457-3.023c-0.882-1.113-1.764-2.23-2.646-3.348c-0.879-1.114-1.699-2.194-2.457-3.237
			c-0.754-1.044-1.367-1.945-1.834-2.7c-1.294-2.087-1.765-3.743-1.404-4.966c0.252-0.721,0.668-1.206,1.242-1.459
			c0.291-0.144,0.578-0.233,0.865-0.27c0.861-0.108,1.826,0.116,2.889,0.675c1.059,0.559,2.059,1.198,2.993,1.917
			c0.938,0.72,1.737,1.395,2.405,2.023c0.664,0.631,1.034,0.98,1.107,1.054c1.041,1.044,2.031,2.015,2.969,2.915
			c0.934,0.9,2.076,1.971,3.426,3.211c1.35,1.242,2.871,2.583,4.563,4.023c5.685,4.931,10.852,9.07,15.495,12.417
			c4.641,3.348,8.491,5.993,11.551,7.935c6.262,3.959,12.248,7.208,17.951,9.746c5.705,2.536,11.131,4.381,16.277,5.533
			c6.082,1.33,11.754,1.673,17.006,1.025c2.842-0.396,5.561-1.07,8.152-2.024c2.589-0.954,5.021-2.241,7.287-3.859
			c0.541-0.396,0.997-0.775,1.378-1.134c0.377-0.36,0.792-0.802,1.242-1.323c0.45-0.522,0.89-1.125,1.321-1.808
			c0.506-0.83,0.89-1.674,1.16-2.538c0.27-0.864,0.459-1.764,0.566-2.699c0.215-2.232-0.197-4.644-1.242-7.234
			c-1.221-2.951-3.238-5.218-6.045-6.803c-1.225-0.684-2.529-1.196-3.913-1.538c-1.388-0.344-2.782-0.496-4.187-0.458
			c-2.481,0.07-4.516,0.593-6.102,1.564c-0.467,0.323-0.809,0.728-1.023,1.215c-0.215,0.486-0.388,0.963-0.512,1.431
			c-0.129,0.467-0.242,0.881-0.354,1.241c-0.104,0.36-0.27,0.558-0.484,0.595c-0.287,0.035-0.539-0.054-0.754-0.27
			c-0.073-0.109-0.129-0.235-0.163-0.379c-0.106-0.396-0.073-0.809,0.107-1.241v-0.108c0.54-1.439,1.647-2.591,3.318-3.455
			c1.675-0.864,3.647-1.314,5.913-1.351c1.513-0.035,2.997,0.127,4.453,0.486c1.457,0.36,2.817,0.9,4.076,1.62
			c2.918,1.619,5.039,4.013,6.371,7.18c1.079,2.663,1.494,5.201,1.242,7.612c-0.18,2.016-0.793,3.868-1.838,5.562
			c-0.429,0.719-0.871,1.349-1.322,1.889c-0.449,0.539-0.882,0.989-1.293,1.35c-0.416,0.359-0.758,0.639-1.028,0.838
			c-0.27,0.196-0.422,0.313-0.456,0.351c-4.679,3.274-9.935,5.29-15.766,6.046c-1.764,0.216-3.581,0.325-5.453,0.325
			s-3.796-0.109-5.775-0.325c-1.979-0.216-3.996-0.559-6.048-1.026c-10.437-2.34-21.917-7.467-34.44-15.385
			c-2.774-1.764-5.456-3.564-8.048-5.399c-2.589-1.836-5.038-3.644-7.339-5.426c-2.305-1.781-4.447-3.481-6.426-5.101
			c-1.979-1.62-3.762-3.114-5.346-4.482c-1.689-1.475-3.219-2.834-4.589-4.075c-1.366-1.242-2.519-2.321-3.453-3.239
			c-0.938-0.918-1.927-1.881-2.969-2.889c0-0.035-0.315-0.352-0.944-0.945c-0.631-0.594-1.416-1.249-2.35-1.97
			c-1.654-1.295-3.098-2.105-4.318-2.429c-0.18-0.036-0.354-0.063-0.516-0.081c-0.16-0.018-0.332-0.009-0.513,0.027
			c-0.287,0.071-0.495,0.181-0.619,0.323c-0.128,0.143-0.118,0.413,0.028,0.809c0.106,0.289,0.484,0.855,1.131,1.702
			c0.65,0.846,1.449,1.844,2.404,2.995c0.952,1.152,1.98,2.402,3.076,3.753c1.098,1.35,2.143,2.682,3.132,3.995
			s1.845,2.537,2.563,3.67c0.721,1.135,1.17,2.078,1.35,2.836c0.073,0.251,0.09,0.484,0.057,0.701
			c-0.039,0.181-0.091,0.378-0.163,0.594c-0.073,0.216-0.218,0.359-0.433,0.432c-0.325,0.18-0.641,0.171-0.945-0.026
			c-0.305-0.198-0.584-0.425-0.837-0.675c-0.287-0.253-0.675-0.594-1.159-1.025c-0.488-0.433-1.035-0.901-1.646-1.405
			c-0.287-0.215-0.578-0.432-0.865-0.647c-0.253-0.18-0.512-0.36-0.782-0.54s-0.55-0.343-0.837-0.485
			c-0.143-0.072-0.287-0.127-0.434-0.162c-0.248-0.071-0.342,0.071-0.27,0.433c0.072,0.215,0.207,0.484,0.404,0.81
			c0.201,0.323,0.378,0.666,0.541,1.026c0.162,0.358,0.262,0.718,0.297,1.079c0.038,0.359-0.072,0.665-0.325,0.918
			c-0.287,0.286-0.563,0.313-0.834,0.081c-0.27-0.236-0.478-0.442-0.622-0.622c-0.143-0.18-0.305-0.377-0.484-0.594
			c-0.181-0.215-0.305-0.377-0.378-0.486c-0.471-0.539-1.011-1.132-1.619-1.78c-0.505-0.469-0.938-0.872-1.298-1.214
			s-0.682-0.622-0.973-0.838c-0.142-0.107-0.287-0.197-0.432-0.271c-0.143-0.071-0.242-0.071-0.295,0
			c-0.055,0.073-0.027,0.252,0.08,0.541c0.107,0.288,0.342,0.773,0.702,1.457c0.468,0.863,0.8,1.646,0.997,2.348
			c0.2,0.702,0.297,1.314,0.297,1.836s-0.052,0.971-0.162,1.35c-0.107,0.378-0.232,0.676-0.377,0.891
			c-0.07,0.108-0.163,0.234-0.271,0.378c-0.142,0.217-0.377,0.415-0.702,0.595c-0.646,0.432-1.35,0.647-2.104,0.647
			c-0.467,0-1.008-0.091-1.619-0.271c-1.188-0.322-2.447-0.972-3.779-1.943c-0.578-0.396-1.107-0.792-1.596-1.188
			c-0.484-0.396-0.916-0.765-1.293-1.106c-0.377-0.343-0.676-0.63-0.89-0.863c-0.218-0.234-0.343-0.371-0.381-0.405
			c-0.896-0.899-1.671-1.691-2.318-2.375c-0.65-0.684-1.242-1.323-1.782-1.917c-0.539-0.594-1.045-1.162-1.512-1.701
			s-0.973-1.115-1.512-1.727c-0.215-0.216-0.215-0.396,0-0.541c0.214-0.215,0.397-0.196,0.539,0.056
			c0.54,0.611,1.045,1.187,1.512,1.727c0.468,0.54,0.973,1.097,1.513,1.673s1.132,1.207,1.782,1.891
			c0.646,0.684,1.422,1.475,2.318,2.376c0.505,0.467,0.993,0.916,1.46,1.349c0.395,0.396,0.827,0.784,1.294,1.161
			s0.9,0.709,1.298,0.999C226.974,114.917,227.772,115.376,228.655,115.789z M315.815,139.867c-0.143-0.09-0.271-0.171-0.377-0.243
			c0.18,0,0.197-0.07,0.055-0.215c-0.072,0.035-0.1,0.081-0.083,0.134c0.021,0.055,0.011,0.046-0.028-0.025
			c0,0.036-0.034-0.019-0.106-0.163c0.038-0.106,0.038-0.197,0-0.27c-0.034-0.072-0.034-0.162,0-0.27
			c0.072-0.144,0.2-0.252,0.377-0.324c0.184-0.072,0.343-0.072,0.487,0c0.107,0.035,0.201,0.082,0.271,0.135
			c0.073,0.054,0.146,0.116,0.214,0.189c0.254,0.503,0.146,0.863-0.321,1.08C316.123,139.968,315.96,139.957,315.815,139.867z
			 M307.908,135.333c0.091-0.342,0.26-0.612,0.513-0.811c0.252-0.197,0.505-0.269,0.754-0.216c0.252,0.055,0.377,0.298,0.377,0.73
			c0.038,0.358-0.068,0.701-0.322,1.025c-0.252,0.324-0.574,0.432-0.972,0.324C307.933,136.025,307.818,135.675,307.908,135.333z
			 M255.891,114.845c0.287-0.108,0.558-0.108,0.81,0c0.291,0.072,0.506,0.145,0.647,0.217c0.18,0.144,0.343,0.305,0.487,0.485
			c0.143,0.18,0.232,0.378,0.271,0.593c0.034,0.109,0.034,0.218,0,0.325c-0.038,0.108-0.056,0.198-0.056,0.271
			c-0.072,0.106-0.152,0.224-0.242,0.35c-0.09,0.125-0.207,0.244-0.35,0.352c-0.145,0.071-0.297,0.144-0.46,0.216
			s-0.315,0.09-0.46,0.054c-0.18,0-0.322-0.026-0.433-0.081c-0.107-0.054-0.231-0.1-0.378-0.135
			c-0.287-0.216-0.484-0.45-0.592-0.701c-0.109-0.216-0.18-0.396-0.217-0.54c-0.143-0.468-0.053-0.828,0.27-1.079
			C255.406,115.024,255.638,114.917,255.891,114.845z M255.243,102.051c0.146,0.071,0.253,0.162,0.322,0.271
			c0.072,0.143,0.101,0.243,0.083,0.296c-0.017,0.053-0.045,0.136-0.083,0.243c-0.176,0.216-0.356,0.307-0.539,0.27
			c-0.181-0.035-0.322-0.125-0.43-0.27c-0.111-0.143-0.146-0.306-0.111-0.486c0.039-0.18,0.184-0.305,0.434-0.378
			C254.991,101.961,255.099,101.979,255.243,102.051z M246.496,115.979c0.218,0.072,0.397,0.198,0.54,0.379
			c0.072,0.18,0.083,0.404,0.027,0.674c-0.052,0.271-0.242,0.44-0.567,0.515c-0.069,0-0.187-0.021-0.349-0.056
			c-0.163-0.036-0.281-0.09-0.354-0.161c-0.177-0.108-0.27-0.27-0.27-0.487c0-0.214,0.037-0.377,0.11-0.484
			c0.034-0.145,0.124-0.253,0.271-0.326C246.085,115.925,246.282,115.907,246.496,115.979z"/>
		<path d="M219.396,116.195c0.219-0.072,0.398-0.056,0.54,0.054c0.107,0.035,0.197,0.054,0.271,0.054
			c0.072,0,0.145,0.035,0.217,0.107c0.287,0.218,0.468,0.467,0.541,0.757c0.034,0.072,0.034,0.144,0,0.215
			c-0.039,0.072-0.057,0.144-0.057,0.217c-0.072,0.071-0.135,0.152-0.189,0.242c-0.053,0.09-0.135,0.171-0.242,0.244
			c-0.215,0.144-0.433,0.215-0.647,0.215c-0.106,0-0.208-0.018-0.298-0.054c-0.09-0.037-0.169-0.072-0.242-0.108
			c-0.215-0.106-0.359-0.287-0.432-0.539c-0.107-0.108-0.163-0.233-0.163-0.378c-0.142-0.324-0.09-0.576,0.163-0.756
			C219.036,116.357,219.216,116.267,219.396,116.195z M193.05,103.023c0.938,1.078,1.944,2.149,3.023,3.211
			c1.08,1.062,2.268,2.025,3.564,2.888c1.439,0.972,2.935,1.71,4.48,2.214c1.08,0.359,2.125,0.558,3.133,0.594
			c-2.232-1.8-4.16-3.798-5.779-5.991c-0.035-0.073-0.287-0.478-0.754-1.215s-0.883-1.665-1.242-2.781
			c-1.008-3.058-0.484-5.471,1.566-7.233c1.008-0.936,2.232-1.52,3.672-1.755c1.439-0.234,2.879-0.098,4.318,0.404
			c1.692,0.576,3.086,1.566,4.184,2.969c1.097,1.405,1.827,3.114,2.188,5.129c0,0.074,0.027,0.297,0.079,0.675
			c0.056,0.378,0.101,0.874,0.135,1.484c0.54,0.433,1.079,0.972,1.619,1.621c1.114,1.367,1.837,2.896,2.159,4.588
			c0.287,1.584,0.18,2.951-0.322,4.103c-0.183,0.361-0.414,0.684-0.701,0.973c-0.253,0.251-0.568,0.486-0.945,0.701
			c-0.377,0.217-0.854,0.324-1.433,0.324c-0.899,0-1.94-0.234-3.132-0.702c-1.187-0.468-2.429-1.115-3.723-1.941
			c-0.146-0.109-0.287-0.208-0.433-0.298c-0.142-0.091-0.287-0.188-0.433-0.298c-3.021,0.073-6.027-0.9-9.014-2.915
			c-1.367-0.901-2.602-1.89-3.699-2.969c-1.097-1.081-2.114-2.178-3.052-3.293c-0.069-0.072-0.107-0.152-0.107-0.243
			c0-0.09,0.038-0.171,0.107-0.242C192.693,102.843,192.873,102.843,193.05,103.023z M214.646,115.007
			c0.29,0.073,0.605,0.127,0.943,0.163c0.344,0.035,0.658,0.017,0.945-0.055c0.467-0.108,0.803-0.387,1-0.836
			c0.197-0.451,0.27-0.982,0.215-1.594c-0.053-0.612-0.215-1.295-0.484-2.05c-0.271-0.757-0.641-1.514-1.107-2.27
			c-0.146-0.179-0.281-0.368-0.405-0.567c-0.124-0.196-0.276-0.386-0.46-0.565c-0.143,0.505-0.312,0.999-0.512,1.485
			c-0.197,0.485-0.457,0.944-0.783,1.375c-1.045,1.439-2.553,2.268-4.535,2.484c0.758,0.503,1.505,0.936,2.242,1.295
			c0.736,0.36,1.411,0.648,2.023,0.863C214.015,114.845,214.323,114.935,214.646,115.007z M215.617,118.732
			c0.184-0.072,0.343-0.09,0.487-0.055c0.107,0.036,0.197,0.09,0.271,0.163c0.069,0.069,0.142,0.143,0.214,0.215
			c0.107,0.181,0.136,0.379,0.08,0.595c-0.052,0.215-0.187,0.358-0.404,0.432c-0.18,0.071-0.343,0.071-0.484,0
			c-0.146-0.073-0.271-0.145-0.377-0.217c0.18-0.071,0.197-0.145,0.051-0.215c-0.068,0-0.096,0.026-0.079,0.081
			c0.017,0.054,0.011,0.062-0.028,0.026c0-0.073-0.006-0.107-0.027-0.107c-0.018,0-0.045-0.035-0.079-0.108
			c0-0.072-0.011-0.154-0.028-0.243c-0.018-0.09-0.006-0.17,0.028-0.243C215.312,118.91,215.437,118.805,215.617,118.732z
			 M210.028,111.524c0.416-0.16,0.766-0.333,1.057-0.514c0.321-0.179,0.591-0.375,0.809-0.592c0.502-0.505,0.935-1.135,1.295-1.89
			c0.359-0.756,0.595-1.602,0.702-2.539c-0.969-0.717-1.924-1.214-2.862-1.483c-0.934-0.27-1.566-0.422-1.889-0.459
			c-0.18-0.035-0.332-0.055-0.461-0.055c-0.124,0-0.242-0.035-0.349-0.107c-0.181-0.07-0.325-0.152-0.433-0.242
			s-0.143-0.243-0.107-0.46c0-0.323,0.146-0.629,0.433-0.917c0.142-0.145,0.287-0.234,0.429-0.271
			c0.219-0.071,0.363-0.125,0.434-0.161c0.072-0.035,0.145-0.054,0.217-0.054c0.181-0.036,0.502-0.062,0.973-0.082
			c0.467-0.017,1.008,0.046,1.619,0.188c0.613,0.108,1.26,0.325,1.941,0.649c-0.068-0.468-0.162-0.945-0.27-1.432
			c-0.107-0.484-0.25-0.981-0.433-1.483c-0.468-1.477-1.079-2.619-1.834-3.43c-0.755-0.809-1.519-1.403-2.294-1.78
			c-0.775-0.379-1.495-0.603-2.159-0.677c-0.668-0.07-1.181-0.106-1.54-0.106c-1.512,0.181-2.771,0.72-3.778,1.619
			c-1.765,1.548-2.215,3.707-1.35,6.479c0.146,0.36,0.304,0.737,0.484,1.134c0.184,0.36,0.388,0.765,0.623,1.215
			s0.512,0.909,0.837,1.376c0.935,1.332,1.951,2.538,3.049,3.618c1.1,1.08,2.204,2.032,3.322,2.86
			C209.104,111.821,209.617,111.687,210.028,111.524z M206.925,115.547c0.18-0.071,0.343-0.091,0.488-0.054
			c0.107,0.035,0.197,0.09,0.27,0.162c0.072,0.071,0.146,0.143,0.215,0.217c0.107,0.179,0.135,0.377,0.08,0.593
			c-0.053,0.216-0.188,0.359-0.405,0.432c-0.181,0.073-0.339,0.073-0.484,0c-0.142-0.072-0.271-0.145-0.378-0.216
			c0.073,0,0.118-0.026,0.136-0.08c0.017-0.055-0.011-0.101-0.083-0.136c-0.069,0-0.098,0.027-0.08,0.081
			c0.018,0.055,0.011,0.062-0.027,0.027c0-0.073-0.007-0.108-0.027-0.108c-0.018,0-0.045-0.036-0.08-0.107
			c0-0.073-0.007-0.153-0.027-0.242c-0.018-0.091-0.008-0.173,0.027-0.243C206.62,115.727,206.745,115.62,206.925,115.547z"/>
		<path d="M132.208,126.938c1.619,1.259,4.094,2.078,7.422,2.456c3.333,0.379,7.606,0.297,12.824-0.243
			c4.644-0.468,9.592-1.188,14.848-2.16c5.253-0.971,10.526-1.979,15.816-3.021c2.087-0.396,4.149-0.802,6.181-1.216
			c2.034-0.414,4.021-0.8,5.966-1.16c-1.945-2.268-3.752-4.49-5.426-6.667c-1.672-2.18-3.139-4.149-4.398-5.911
			c-0.291-0.433-0.584-0.864-0.893-1.296c-0.305-0.432-0.585-0.828-0.838-1.188c-0.287-0.396-0.557-0.791-0.809-1.188
			c-0.287-0.396-0.496-0.747-0.62-1.054c-0.124-0.304-0.208-0.584-0.242-0.836c-0.038-0.287,0-0.54,0.107-0.756
			c0.146-0.359,0.315-0.576,0.513-0.647s0.397-0.055,0.595,0.054c0.196,0.108,0.394,0.27,0.591,0.486
			c0.201,0.215,0.371,0.433,0.516,0.648c0.682,0.827,1.529,1.754,2.537,2.779c1.007,1.026,2.068,2.006,3.184,2.942
			c1.117,0.935,2.231,1.781,3.35,2.537c1.113,0.756,2.104,1.277,2.969,1.566c0.287,0.071,0.519,0.115,0.702,0.134
			c0.18,0.018,0.339,0.027,0.484,0.027c0.142,0,0.271-0.019,0.377-0.054c0.325-0.216,0.28-0.675-0.135-1.377
			c-0.411-0.701-1.007-1.476-1.782-2.32c-0.771-0.846-1.619-1.701-2.536-2.565c-0.917-0.863-1.737-1.565-2.456-2.105
			c-0.789-0.612-1.305-1.142-1.537-1.592c-0.235-0.45-0.01-0.855,0.675-1.216c0.287-0.144,0.574-0.196,0.862-0.161
			c0.29,0.036,0.566,0.107,0.837,0.216c0.27,0.107,0.522,0.242,0.754,0.404c0.235,0.162,0.426,0.298,0.567,0.405
			c0.827,0.613,1.568,1.305,2.215,2.079c0.646,0.773,1.197,1.511,1.646,2.213c0.45,0.702,0.8,1.296,1.053,1.781
			c0.252,0.486,0.395,0.765,0.432,0.837c0.035,0.072,0.125,0.261,0.271,0.566c0.142,0.306,0.26,0.656,0.35,1.054
			c0.09,0.395,0.135,0.8,0.135,1.214c0,0.413-0.106,0.747-0.321,0.999c-0.253,0.323-0.668,0.486-1.242,0.486
			c-0.434,0-0.955-0.107-1.568-0.323c-0.646-0.216-1.366-0.56-2.155-1.027c-0.792-0.468-1.603-1.007-2.433-1.62
			c-0.827-0.611-1.654-1.276-2.48-1.997c-0.831-0.72-1.623-1.438-2.377-2.159c1.079,1.584,2.18,3.131,3.293,4.645
			c1.115,1.51,2.16,2.914,3.132,4.21c0.973,1.295,1.834,2.411,2.592,3.347c0.755,0.936,1.294,1.619,1.62,2.053
			c4.498-0.83,8.598-1.441,12.307-1.837c3.707-0.396,6.786-0.414,9.232-0.054c5.613,0.865,9.25,2.808,10.903,5.83
			c0.36,0.72,0.612,1.476,0.758,2.268c0.142,0.685,0.208,1.466,0.187,2.35c-0.018,0.88-0.242,1.808-0.674,2.779
			c-1.008,2.338-2.682,3.941-5.021,4.805c-0.72,0.288-1.475,0.494-2.266,0.621c-0.793,0.124-1.603,0.189-2.43,0.189
			c-1.512,0-2.996-0.181-4.453-0.541c-1.457-0.359-2.744-0.828-3.861-1.403c-4.713-2.375-10.133-7.037-16.25-13.982
			c-2.014,0.396-4.076,0.801-6.18,1.215c-2.107,0.413-4.238,0.838-6.398,1.269c-5.29,1.044-10.563,2.052-15.816,3.023
			c-5.256,0.973-10.204,1.692-14.848,2.159c-2.52,0.288-4.796,0.45-6.83,0.486c-2.031,0.035-3.893-0.02-5.586-0.161
			c-3.781-0.362-6.588-1.261-8.422-2.7c-1.657-1.332-2.539-3.061-2.646-5.183c-0.035-0.073-0.027-0.424,0.027-1.053
			c0.056-0.63,0.332-1.197,0.838-1.701c0.682-0.755,1.709-1.098,3.076-1.025c0.252,0.072,0.377,0.216,0.377,0.433
			c0,0.286-0.125,0.396-0.377,0.323c-1.115-0.037-1.963,0.216-2.537,0.756c-0.145,0.144-0.27,0.324-0.377,0.54
			c-0.072,0.181-0.145,0.413-0.218,0.702c-0.073,0.287-0.107,0.61-0.107,0.972C129.96,124.311,130.769,125.858,132.208,126.938z
			 M229.386,132.282c0.287-0.826,0.467-1.565,0.539-2.213c0.07-0.648,0.062-1.368-0.027-2.159c-0.09-0.793-0.354-1.603-0.781-2.431
			c-1.513-2.771-4.952-4.569-10.312-5.397c-0.539-0.073-1.107-0.126-1.702-0.161c-0.592-0.036-1.231-0.056-1.917-0.056
			c-2.263,0-4.875,0.181-7.827,0.541c-2.951,0.36-6.118,0.845-9.501,1.456c1.764,2.161,3.625,4.23,5.588,6.21
			c1.962,1.979,3.992,3.697,6.1,5.155c2.104,1.458,4.246,2.564,6.426,3.32c2.177,0.756,4.363,0.989,6.558,0.701
			c1.259-0.18,2.321-0.521,3.187-1.025c0.861-0.503,1.564-1.062,2.104-1.674C228.465,133.902,228.987,133.147,229.386,132.282z"/>
		<path d="M180.42,116.195c0.214-0.072,0.395-0.056,0.54,0.054c0.107,0.035,0.197,0.054,0.27,0.054s0.142,0.035,0.215,0.107
			c0.287,0.218,0.467,0.467,0.539,0.757c0.039,0.072,0.039,0.144,0,0.215c-0.034,0.072-0.052,0.144-0.052,0.217
			c-0.072,0.071-0.135,0.152-0.19,0.242c-0.055,0.09-0.135,0.171-0.242,0.244c-0.218,0.144-0.432,0.215-0.646,0.215
			c-0.111,0-0.208-0.018-0.298-0.054c-0.09-0.037-0.173-0.072-0.242-0.108c-0.218-0.106-0.36-0.287-0.433-0.539
			c-0.107-0.108-0.162-0.233-0.162-0.378c-0.146-0.324-0.09-0.576,0.162-0.756C180.06,116.357,180.239,116.267,180.42,116.195z
			 M154.073,103.023c0.938,1.078,1.945,2.149,3.024,3.211s2.267,2.025,3.563,2.888c1.439,0.972,2.932,1.71,4.479,2.214
			c1.083,0.359,2.125,0.558,3.131,0.594c-2.229-1.8-4.155-3.798-5.775-5.991c-0.034-0.073-0.287-0.478-0.754-1.215
			s-0.883-1.665-1.242-2.781c-1.007-3.058-0.488-5.471,1.564-7.233c1.007-0.936,2.231-1.52,3.671-1.755
			c1.439-0.234,2.879-0.098,4.318,0.404c1.692,0.576,3.087,1.566,4.184,2.969c1.101,1.405,1.827,3.114,2.187,5.129
			c0,0.074,0.027,0.297,0.084,0.675c0.051,0.378,0.096,0.874,0.135,1.484c0.539,0.433,1.079,0.972,1.619,1.621
			c1.114,1.367,1.834,2.896,2.159,4.588c0.287,1.584,0.18,2.951-0.325,4.103c-0.18,0.361-0.412,0.684-0.703,0.973
			c-0.248,0.251-0.563,0.486-0.944,0.701c-0.377,0.217-0.854,0.324-1.429,0.324c-0.9,0-1.945-0.234-3.132-0.702
			s-2.429-1.115-3.727-1.941c-0.142-0.109-0.287-0.208-0.429-0.298c-0.146-0.091-0.287-0.188-0.433-0.298
			c-3.024,0.073-6.028-0.9-9.018-2.915c-1.366-0.901-2.599-1.89-3.695-2.969c-1.101-1.081-2.114-2.178-3.052-3.293
			c-0.073-0.072-0.107-0.152-0.107-0.243c0-0.09,0.034-0.171,0.107-0.242C153.714,102.843,153.894,102.843,154.073,103.023z
			 M175.669,115.007c0.287,0.073,0.602,0.127,0.944,0.163c0.343,0.035,0.657,0.017,0.944-0.055c0.468-0.108,0.8-0.387,1-0.836
			c0.197-0.451,0.271-0.982,0.215-1.594c-0.055-0.612-0.215-1.295-0.484-2.05c-0.27-0.757-0.641-1.514-1.107-2.27
			c-0.145-0.179-0.279-0.368-0.404-0.567c-0.129-0.196-0.28-0.386-0.461-0.565c-0.142,0.505-0.314,0.999-0.512,1.485
			c-0.197,0.485-0.46,0.944-0.781,1.375c-1.045,1.439-2.558,2.268-4.537,2.484c0.758,0.503,1.502,0.936,2.242,1.295
			c0.737,0.36,1.412,0.648,2.024,0.863C175.039,114.845,175.344,114.935,175.669,115.007z M176.642,118.732
			c0.18-0.072,0.339-0.09,0.484-0.055c0.107,0.036,0.197,0.09,0.27,0.163c0.072,0.069,0.146,0.143,0.218,0.215
			c0.107,0.181,0.136,0.379,0.079,0.595c-0.055,0.215-0.189,0.358-0.404,0.432c-0.18,0.071-0.342,0.071-0.484,0
			c-0.145-0.073-0.27-0.145-0.381-0.217c0.18-0.071,0.201-0.145,0.056-0.215c-0.073,0-0.097,0.026-0.079,0.081
			c0.018,0.054,0.006,0.062-0.028,0.026c0-0.073-0.011-0.107-0.027-0.107c-0.018,0-0.045-0.035-0.083-0.108
			c0-0.072-0.008-0.154-0.024-0.243c-0.017-0.09-0.011-0.17,0.024-0.243C176.333,118.91,176.462,118.805,176.642,118.732z
			 M171.053,111.524c0.415-0.16,0.765-0.333,1.052-0.514c0.326-0.179,0.596-0.375,0.811-0.592c0.505-0.505,0.938-1.135,1.297-1.89
			c0.359-0.756,0.592-1.602,0.699-2.539c-0.969-0.717-1.924-1.214-2.858-1.483c-0.938-0.27-1.567-0.422-1.893-0.459
			c-0.177-0.035-0.332-0.055-0.456-0.055c-0.125,0-0.242-0.035-0.354-0.107c-0.177-0.07-0.322-0.152-0.43-0.242
			c-0.11-0.09-0.141-0.243-0.11-0.46c0-0.323,0.146-0.629,0.433-0.917c0.146-0.145,0.291-0.234,0.433-0.271
			c0.214-0.071,0.36-0.125,0.433-0.161c0.072-0.035,0.145-0.054,0.215-0.054c0.18-0.036,0.505-0.062,0.972-0.082
			c0.468-0.017,1.007,0.046,1.62,0.188c0.611,0.108,1.259,0.325,1.944,0.649c-0.073-0.468-0.163-0.945-0.271-1.432
			c-0.107-0.484-0.252-0.981-0.432-1.483c-0.468-1.477-1.08-2.619-1.834-3.43c-0.758-0.809-1.523-1.403-2.298-1.78
			c-0.772-0.379-1.491-0.603-2.159-0.677c-0.664-0.07-1.177-0.106-1.537-0.106c-1.512,0.181-2.771,0.72-3.777,1.619
			c-1.766,1.548-2.215,3.707-1.35,6.479c0.142,0.36,0.305,0.737,0.484,1.134c0.18,0.36,0.387,0.765,0.619,1.215
			c0.234,0.45,0.516,0.909,0.838,1.376c0.938,1.332,1.954,2.538,3.051,3.618c1.098,1.08,2.205,2.032,3.322,2.86
			C170.126,111.821,170.638,111.687,171.053,111.524z M167.949,115.547c0.18-0.071,0.343-0.091,0.484-0.054
			c0.107,0.035,0.197,0.09,0.271,0.162c0.076,0.071,0.145,0.143,0.217,0.217c0.107,0.179,0.135,0.377,0.08,0.593
			s-0.19,0.359-0.404,0.432c-0.181,0.073-0.344,0.073-0.484,0c-0.146-0.072-0.271-0.145-0.381-0.216c0.072,0,0.117-0.026,0.135-0.08
			c0.021-0.055-0.008-0.101-0.08-0.136c-0.072,0-0.1,0.027-0.079,0.081c0.017,0.055,0.007,0.062-0.028,0.027
			c0-0.073-0.01-0.108-0.027-0.108s-0.045-0.036-0.08-0.107c0-0.073-0.01-0.153-0.027-0.242c-0.018-0.091-0.01-0.173,0.027-0.243
			C167.645,115.727,167.769,115.62,167.949,115.547z"/>
		<path d="M148.485,110.58c1.062,0.467,2.135,0.539,3.215,0.217c0.359-0.107,0.612-0.235,0.754-0.378
			c0.107-0.074,0.197-0.162,0.27-0.27c0.468-0.541,0.647-1.243,0.54-2.106c-0.106-0.864-0.304-1.709-0.595-2.537
			c-0.356-0.936-0.845-1.944-1.457-3.023c-1.328-1.944-2.401-3.328-3.211-4.157c-0.81-0.827-1.433-1.33-1.861-1.511
			c-0.506-0.216-0.865-0.145-1.08,0.216c0,0.036-0.021,0.09-0.055,0.161c-0.035,0.073-0.057,0.127-0.057,0.162
			s-0.014,0.072-0.051,0.108c-0.073,0.289-0.101,0.629-0.084,1.026c0.021,0.396,0.102,0.827,0.246,1.295
			c0.072,0.252-0.021,0.414-0.27,0.484c-0.219,0.074-0.359-0.016-0.433-0.269c-0.397-1.26-0.433-2.24-0.107-2.941
			c0.321-0.703,0.737-1.196,1.239-1.485c1.152-0.54,2.611-0.197,4.373,1.026c0.793,0.539,1.522,1.214,2.188,2.023
			c0.668,0.811,1.231,1.684,1.699,2.618c0.037,0.036,0.172,0.306,0.408,0.811c0.231,0.504,0.456,1.116,0.674,1.835
			c0.647,2.017,0.699,3.708,0.16,5.075c-0.541,1.26-1.564,2.105-3.076,2.537c-0.395,0.145-0.865,0.216-1.405,0.216
			c-1.294,0-2.679-0.468-4.155-1.404c-0.721-0.467-1.315-0.908-1.783-1.321c-0.467-0.415-0.736-0.657-0.809-0.729
			c-0.721-0.683-1.385-1.368-1.997-2.053c-0.612-0.684-1.208-1.33-1.782-1.943c-0.142-0.143-0.27-0.277-0.377-0.405
			c-0.107-0.125-0.219-0.243-0.325-0.35c-0.142-0.18-0.124-0.36,0.056-0.54c0.18-0.144,0.359-0.126,0.539,0.055
			c0.107,0.106,0.215,0.224,0.322,0.35c0.11,0.128,0.218,0.242,0.325,0.352c0.577,0.611,1.169,1.26,1.782,1.943
			c0.612,0.684,1.276,1.369,1.996,2.052c0.18,0.18,0.359,0.342,0.54,0.485c0.18,0.145,0.353,0.288,0.513,0.432
			c0.162,0.144,0.318,0.27,0.459,0.379C146.534,109.59,147.427,110.112,148.485,110.58z"/>
		<path d="M144.357,116.195c0.214-0.072,0.395-0.056,0.54,0.054c0.107,0.035,0.197,0.054,0.27,0.054s0.142,0.035,0.215,0.107
			c0.291,0.218,0.467,0.467,0.539,0.757c0.039,0.072,0.039,0.144,0,0.215c-0.034,0.072-0.051,0.144-0.051,0.217
			c-0.073,0.071-0.136,0.152-0.191,0.242c-0.052,0.09-0.135,0.171-0.242,0.244c-0.215,0.144-0.432,0.215-0.646,0.215
			c-0.107,0-0.208-0.018-0.298-0.054c-0.09-0.037-0.169-0.072-0.242-0.108c-0.218-0.106-0.36-0.287-0.433-0.539
			c-0.107-0.108-0.162-0.233-0.162-0.378c-0.146-0.324-0.09-0.576,0.162-0.756C143.997,116.357,144.177,116.267,144.357,116.195z
			 M118.011,103.023c0.938,1.078,1.945,2.149,3.024,3.211s2.267,2.025,3.564,2.888c1.439,0.972,2.935,1.71,4.481,2.214
			c1.079,0.359,2.124,0.558,3.131,0.594c-2.232-1.8-4.159-3.798-5.779-5.991c-0.033-0.073-0.287-0.478-0.754-1.215
			s-0.883-1.665-1.242-2.781c-1.007-3.058-0.488-5.471,1.564-7.233c1.01-0.936,2.231-1.52,3.671-1.755
			c1.439-0.234,2.882-0.098,4.318,0.404c1.692,0.576,3.087,1.566,4.187,2.969c1.098,1.405,1.828,3.114,2.184,5.129
			c0,0.074,0.027,0.297,0.084,0.675c0.051,0.378,0.1,0.874,0.135,1.484c0.539,0.433,1.079,0.972,1.619,1.621
			c1.114,1.367,1.834,2.896,2.159,4.588c0.287,1.584,0.18,2.951-0.325,4.103c-0.18,0.361-0.412,0.684-0.699,0.973
			c-0.252,0.251-0.567,0.486-0.945,0.701c-0.38,0.217-0.857,0.324-1.432,0.324c-0.9,0-1.945-0.234-3.132-0.702
			s-2.429-1.115-3.724-1.941c-0.145-0.109-0.29-0.208-0.432-0.298c-0.146-0.091-0.287-0.188-0.433-0.298
			c-3.024,0.073-6.028-0.9-9.018-2.915c-1.366-0.901-2.599-1.89-3.695-2.969c-1.097-1.081-2.114-2.178-3.049-3.293
			c-0.073-0.072-0.11-0.152-0.11-0.243c0-0.09,0.037-0.171,0.11-0.242C117.651,102.843,117.831,102.843,118.011,103.023z
			 M139.606,115.007c0.287,0.073,0.602,0.127,0.944,0.163c0.343,0.035,0.657,0.017,0.944-0.055c0.468-0.108,0.8-0.387,1-0.836
			c0.197-0.451,0.271-0.982,0.215-1.594c-0.052-0.612-0.215-1.295-0.484-2.05c-0.27-0.757-0.641-1.514-1.107-2.27
			c-0.145-0.179-0.279-0.368-0.404-0.567c-0.125-0.196-0.28-0.386-0.461-0.565c-0.142,0.505-0.314,0.999-0.512,1.485
			c-0.197,0.485-0.46,0.944-0.781,1.375c-1.045,1.439-2.558,2.268-4.537,2.484c0.758,0.503,1.506,0.936,2.242,1.295
			c0.74,0.36,1.412,0.648,2.024,0.863C138.977,114.845,139.281,114.935,139.606,115.007z M140.579,118.732
			c0.18-0.072,0.342-0.09,0.484-0.055c0.107,0.036,0.197,0.09,0.27,0.163c0.072,0.069,0.146,0.143,0.218,0.215
			c0.107,0.181,0.136,0.379,0.079,0.595c-0.055,0.215-0.189,0.358-0.404,0.432c-0.18,0.071-0.342,0.071-0.484,0
			c-0.145-0.073-0.27-0.145-0.381-0.217c0.184-0.071,0.201-0.145,0.056-0.215c-0.073,0-0.097,0.026-0.079,0.081
			c0.018,0.054,0.006,0.062-0.028,0.026c0-0.073-0.011-0.107-0.024-0.107c-0.021,0-0.048-0.035-0.082-0.108
			c0-0.072-0.012-0.154-0.028-0.243c-0.017-0.09-0.011-0.17,0.028-0.243C140.274,118.91,140.399,118.805,140.579,118.732z
			 M134.99,111.524c0.415-0.16,0.765-0.333,1.052-0.514c0.326-0.179,0.596-0.375,0.811-0.592c0.505-0.505,0.938-1.135,1.297-1.89
			c0.359-0.756,0.592-1.602,0.703-2.539c-0.973-0.717-1.928-1.214-2.862-1.483c-0.938-0.27-1.567-0.422-1.89-0.459
			c-0.18-0.035-0.332-0.055-0.459-0.055c-0.125,0-0.242-0.035-0.35-0.107c-0.181-0.07-0.326-0.152-0.434-0.242
			s-0.145-0.243-0.107-0.46c0-0.323,0.143-0.629,0.43-0.917c0.146-0.145,0.291-0.234,0.433-0.271
			c0.218-0.071,0.36-0.125,0.433-0.161c0.072-0.035,0.145-0.054,0.215-0.054c0.184-0.036,0.505-0.062,0.972-0.082
			c0.471-0.017,1.011,0.046,1.62,0.188c0.611,0.108,1.263,0.325,1.944,0.649c-0.073-0.468-0.163-0.945-0.271-1.432
			c-0.107-0.484-0.252-0.981-0.432-1.483c-0.468-1.477-1.08-2.619-1.834-3.43c-0.758-0.809-1.523-1.403-2.295-1.78
			c-0.775-0.379-1.494-0.603-2.158-0.677c-0.668-0.07-1.181-0.106-1.541-0.106c-1.512,0.181-2.771,0.72-3.777,1.619
			c-1.766,1.548-2.215,3.707-1.35,6.479c0.142,0.36,0.308,0.737,0.484,1.134c0.18,0.36,0.387,0.765,0.623,1.215
			c0.231,0.45,0.512,0.909,0.834,1.376c0.938,1.332,1.954,2.538,3.051,3.618c1.098,1.08,2.205,2.032,3.318,2.86
			C134.063,111.821,134.579,111.687,134.99,111.524z M131.887,115.547c0.18-0.071,0.343-0.091,0.484-0.054
			c0.11,0.035,0.2,0.09,0.271,0.162c0.072,0.071,0.145,0.143,0.217,0.217c0.107,0.179,0.135,0.377,0.08,0.593
			c-0.052,0.216-0.188,0.359-0.404,0.432c-0.181,0.073-0.344,0.073-0.484,0c-0.146-0.072-0.271-0.145-0.378-0.216
			c0.069,0,0.114-0.026,0.136-0.08c0.017-0.055-0.011-0.101-0.084-0.136c-0.072,0-0.097,0.027-0.079,0.081
			c0.017,0.055,0.007,0.062-0.028,0.027c0-0.073-0.01-0.108-0.027-0.108s-0.045-0.036-0.08-0.107c0-0.073-0.01-0.153-0.027-0.242
			c-0.018-0.091-0.01-0.173,0.027-0.243C131.582,115.727,131.706,115.62,131.887,115.547z"/>
		<path d="M57.17,126.938c1.62,1.259,4.093,2.078,7.423,2.456c3.328,0.379,7.605,0.297,12.822-0.243
			c4.641-0.468,9.592-1.188,14.846-2.16c5.256-0.971,10.525-1.979,15.816-3.021c2.09-0.396,4.148-0.802,6.184-1.216
			c2.034-0.414,4.02-0.8,5.965-1.16c-1.945-2.268-3.751-4.49-5.426-6.667c-1.674-2.18-3.139-4.149-4.401-5.911
			c-0.287-0.433-0.585-0.864-0.89-1.296s-0.584-0.828-0.837-1.188c-0.287-0.396-0.558-0.791-0.81-1.188
			c-0.287-0.396-0.494-0.747-0.619-1.054c-0.129-0.304-0.208-0.584-0.246-0.836c-0.035-0.287,0-0.54,0.111-0.756
			c0.142-0.359,0.314-0.576,0.512-0.647s0.395-0.055,0.592,0.054c0.201,0.108,0.398,0.27,0.596,0.486
			c0.196,0.215,0.369,0.433,0.512,0.648c0.685,0.827,1.529,1.754,2.539,2.779c1.008,1.026,2.07,2.006,3.184,2.942
			c1.117,0.935,2.232,1.781,3.346,2.537c1.118,0.756,2.107,1.277,2.973,1.566c0.287,0.071,0.52,0.115,0.699,0.134
			c0.18,0.018,0.343,0.027,0.488,0.027c0.142,0,0.27-0.019,0.377-0.054c0.325-0.216,0.277-0.675-0.135-1.377
			c-0.416-0.701-1.008-1.476-1.782-2.32c-0.775-0.846-1.62-1.701-2.536-2.565c-0.918-0.863-1.737-1.565-2.457-2.105
			c-0.793-0.612-1.305-1.142-1.54-1.592c-0.231-0.45-0.007-0.855,0.675-1.216c0.291-0.144,0.578-0.196,0.865-0.161
			c0.287,0.036,0.567,0.107,0.838,0.216c0.27,0.107,0.521,0.242,0.754,0.404c0.234,0.162,0.426,0.298,0.567,0.405
			c0.827,0.613,1.563,1.305,2.214,2.079c0.647,0.773,1.194,1.511,1.647,2.213c0.446,0.702,0.8,1.296,1.052,1.781
			c0.25,0.486,0.395,0.765,0.434,0.837c0.033,0.072,0.124,0.261,0.27,0.566c0.142,0.306,0.26,0.656,0.35,1.054
			c0.09,0.395,0.135,0.8,0.135,1.214c0,0.413-0.107,0.747-0.326,0.999c-0.248,0.323-0.664,0.486-1.238,0.486
			c-0.433,0-0.955-0.107-1.567-0.323c-0.647-0.216-1.366-0.56-2.159-1.027s-1.602-1.007-2.43-1.62
			c-0.826-0.611-1.653-1.276-2.484-1.997c-0.826-0.72-1.619-1.438-2.373-2.159c1.08,1.584,2.176,3.131,3.291,4.645
			c1.117,1.51,2.162,2.914,3.131,4.21c0.973,1.295,1.838,2.411,2.592,3.347c0.758,0.936,1.298,1.619,1.619,2.053
			c4.498-0.83,8.603-1.441,12.312-1.837c3.705-0.396,6.781-0.414,9.231-0.054c5.612,0.865,9.249,2.808,10.903,5.83
			c0.359,0.72,0.612,1.476,0.758,2.268c0.142,0.685,0.203,1.466,0.187,2.35c-0.018,0.88-0.242,1.808-0.671,2.779
			c-1.011,2.338-2.686,3.941-5.021,4.805c-0.723,0.288-1.477,0.494-2.27,0.621c-0.793,0.124-1.602,0.189-2.43,0.189
			c-1.512,0-2.996-0.181-4.453-0.541c-1.46-0.359-2.747-0.828-3.861-1.403c-4.717-2.375-10.131-7.037-16.249-13.982
			c-2.015,0.396-4.076,0.801-6.184,1.215c-2.104,0.413-4.235,0.838-6.395,1.269c-5.29,1.044-10.563,2.052-15.82,3.023
			c-5.253,0.973-10.2,1.692-14.845,2.159c-2.519,0.288-4.795,0.45-6.83,0.486c-2.031,0.035-3.896-0.02-5.588-0.161
			c-3.779-0.362-6.585-1.261-8.422-2.7c-1.654-1.332-2.537-3.061-2.645-5.183c-0.034-0.073-0.027-0.424,0.027-1.053
			c0.053-0.63,0.333-1.197,0.838-1.701c0.682-0.755,1.709-1.098,3.076-1.025c0.253,0.072,0.377,0.216,0.377,0.433
			c0,0.286-0.124,0.396-0.377,0.323c-1.114-0.037-1.962,0.216-2.536,0.756c-0.146,0.144-0.271,0.324-0.381,0.54
			c-0.069,0.181-0.142,0.413-0.214,0.702c-0.073,0.287-0.107,0.61-0.107,0.972C54.921,124.311,55.73,125.858,57.17,126.938z
			 M154.343,132.282c0.288-0.826,0.468-1.565,0.541-2.213c0.072-0.648,0.062-1.368-0.025-2.159
			c-0.093-0.793-0.352-1.603-0.785-2.431c-1.512-2.771-4.947-4.569-10.311-5.397c-0.541-0.073-1.104-0.126-1.699-0.161
			c-0.596-0.036-1.236-0.056-1.918-0.056c-2.266,0-4.879,0.181-7.826,0.541c-2.951,0.36-6.121,0.845-9.502,1.456
			c1.762,2.161,3.627,4.23,5.588,6.21c1.959,1.979,3.994,3.697,6.101,5.155c2.104,1.458,4.245,2.564,6.423,3.32
			c2.176,0.756,4.363,0.989,6.561,0.701c1.26-0.18,2.321-0.521,3.184-1.025c0.864-0.503,1.566-1.062,2.106-1.674
			C153.427,133.902,153.949,133.147,154.343,132.282z"/>
		<path d="M105.382,116.195c0.214-0.072,0.395-0.056,0.539,0.054c0.107,0.035,0.197,0.054,0.27,0.054
			c0.07,0,0.143,0.035,0.215,0.107c0.287,0.218,0.467,0.467,0.54,0.757c0.034,0.072,0.034,0.144,0,0.215
			c-0.034,0.072-0.056,0.144-0.056,0.217c-0.072,0.071-0.135,0.152-0.187,0.242c-0.056,0.09-0.135,0.171-0.242,0.244
			c-0.218,0.144-0.433,0.215-0.65,0.215c-0.107,0-0.208-0.018-0.294-0.054c-0.094-0.037-0.174-0.072-0.246-0.108
			c-0.215-0.106-0.359-0.287-0.43-0.539c-0.109-0.108-0.162-0.233-0.162-0.378c-0.145-0.324-0.09-0.576,0.162-0.756
			C105.019,116.357,105.198,116.267,105.382,116.195z M79.035,103.023c0.935,1.078,1.944,2.149,3.024,3.211s2.266,2.025,3.561,2.888
			c1.439,0.972,2.934,1.71,4.48,2.214c1.08,0.359,2.129,0.558,3.132,0.594c-2.231-1.8-4.155-3.798-5.774-5.991
			c-0.039-0.073-0.288-0.478-0.758-1.215c-0.468-0.737-0.879-1.665-1.242-2.781c-1.008-3.058-0.485-5.471,1.566-7.233
			c1.008-0.936,2.232-1.52,3.672-1.755c1.439-0.234,2.879-0.098,4.318,0.404c1.691,0.576,3.086,1.566,4.184,2.969
			c1.1,1.405,1.826,3.114,2.187,5.129c0,0.074,0.028,0.297,0.079,0.675c0.056,0.378,0.101,0.874,0.135,1.484
			c0.541,0.433,1.08,0.972,1.62,1.621c1.118,1.367,1.837,2.896,2.163,4.588c0.287,1.584,0.176,2.951-0.326,4.103
			c-0.18,0.361-0.415,0.684-0.702,0.973c-0.253,0.251-0.567,0.486-0.944,0.701c-0.377,0.217-0.855,0.324-1.43,0.324
			c-0.899,0-1.944-0.234-3.131-0.702c-1.19-0.468-2.43-1.115-3.727-1.941c-0.143-0.109-0.287-0.208-0.434-0.298
			c-0.141-0.091-0.287-0.188-0.428-0.298c-3.025,0.073-6.028-0.9-9.018-2.915c-1.367-0.901-2.6-1.89-3.699-2.969
			c-1.098-1.081-2.114-2.178-3.049-3.293c-0.068-0.072-0.107-0.152-0.107-0.243c0-0.09,0.039-0.171,0.107-0.242
			C78.675,102.843,78.854,102.843,79.035,103.023z M100.63,115.007c0.287,0.073,0.603,0.127,0.945,0.163
			c0.339,0.035,0.654,0.017,0.944-0.055c0.468-0.108,0.8-0.387,0.997-0.836c0.197-0.451,0.27-0.982,0.218-1.594
			c-0.056-0.612-0.218-1.295-0.488-2.05c-0.27-0.757-0.636-1.514-1.106-2.27c-0.143-0.179-0.277-0.368-0.405-0.567
			c-0.124-0.196-0.276-0.386-0.457-0.565c-0.146,0.505-0.315,0.999-0.513,1.485c-0.197,0.485-0.459,0.944-0.785,1.375
			c-1.041,1.439-2.553,2.268-4.533,2.484c0.755,0.503,1.502,0.936,2.239,1.295c0.741,0.36,1.415,0.648,2.024,0.863
			C100.001,114.845,100.306,114.935,100.63,115.007z M101.599,118.732c0.181-0.072,0.344-0.09,0.488-0.055
			c0.107,0.036,0.197,0.09,0.27,0.163c0.073,0.069,0.143,0.143,0.215,0.215c0.107,0.181,0.135,0.379,0.084,0.595
			c-0.057,0.215-0.191,0.358-0.405,0.432c-0.184,0.071-0.343,0.071-0.488,0c-0.142-0.073-0.27-0.145-0.377-0.217
			c0.18-0.071,0.197-0.145,0.056-0.215c-0.073,0-0.101,0.026-0.084,0.081c0.021,0.054,0.011,0.062-0.027,0.026
			c0-0.073-0.007-0.107-0.023-0.107c-0.018,0-0.045-0.035-0.084-0.108c0-0.072-0.006-0.154-0.027-0.243
			c-0.018-0.09-0.007-0.17,0.027-0.243C101.295,118.91,101.423,118.805,101.599,118.732z M96.015,111.524
			c0.412-0.16,0.765-0.333,1.052-0.514c0.321-0.179,0.592-0.375,0.81-0.592c0.506-0.505,0.934-1.135,1.294-1.89
			c0.36-0.756,0.595-1.602,0.702-2.539c-0.972-0.717-1.924-1.214-2.861-1.483c-0.934-0.27-1.564-0.422-1.889-0.459
			c-0.18-0.035-0.332-0.055-0.457-0.055c-0.128,0-0.246-0.035-0.354-0.107c-0.18-0.07-0.321-0.152-0.432-0.242
			c-0.107-0.09-0.143-0.243-0.107-0.46c0-0.323,0.145-0.629,0.432-0.917c0.146-0.145,0.287-0.234,0.434-0.271
			c0.214-0.071,0.359-0.125,0.432-0.161c0.073-0.035,0.143-0.054,0.215-0.054c0.18-0.036,0.506-0.062,0.973-0.082
			c0.467-0.017,1.007,0.046,1.619,0.188c0.612,0.108,1.26,0.325,1.945,0.649c-0.073-0.468-0.163-0.945-0.271-1.432
			c-0.11-0.484-0.253-0.981-0.433-1.483c-0.467-1.477-1.08-2.619-1.838-3.43c-0.754-0.809-1.519-1.403-2.293-1.78
			c-0.771-0.379-1.492-0.603-2.16-0.677c-0.664-0.07-1.176-0.106-1.539-0.106c-1.509,0.181-2.769,0.72-3.779,1.619
			c-1.761,1.548-2.211,3.707-1.35,6.479c0.146,0.36,0.309,0.737,0.488,1.134c0.18,0.36,0.388,0.765,0.619,1.215
			c0.236,0.45,0.513,0.909,0.838,1.376c0.938,1.332,1.951,2.538,3.049,3.618c1.1,1.08,2.207,2.032,3.321,2.86
			C95.087,111.821,95.599,111.687,96.015,111.524z M92.911,115.547c0.18-0.071,0.338-0.091,0.484-0.054
			c0.107,0.035,0.197,0.09,0.27,0.162c0.072,0.071,0.145,0.143,0.215,0.217c0.11,0.179,0.135,0.377,0.082,0.593
			c-0.055,0.216-0.189,0.359-0.404,0.432c-0.18,0.073-0.342,0.073-0.488,0c-0.142-0.072-0.27-0.145-0.377-0.216
			c0.072,0,0.117-0.026,0.135-0.08c0.018-0.055-0.006-0.101-0.079-0.136c-0.073,0-0.101,0.027-0.083,0.081
			c0.021,0.055,0.01,0.062-0.027,0.027c0-0.073-0.008-0.108-0.025-0.108c-0.017,0-0.045-0.036-0.082-0.107
			c0-0.073-0.008-0.153-0.027-0.242c-0.018-0.091-0.008-0.173,0.027-0.243C92.603,115.727,92.73,115.62,92.911,115.547z"/>
		<path d="M70.775,113.604c0.54,0.54,1.024,1.025,1.457,1.458c0.433,0.432,0.938,0.908,1.513,1.431
			c0.574,0.521,1.186,1.033,1.833,1.539c0.471,0.359,0.966,0.719,1.485,1.079c0.521,0.359,1.055,0.675,1.594,0.944
			c0.541,0.271,1.07,0.485,1.592,0.649c0.523,0.161,1.018,0.224,1.484,0.188c0.073,0,0.181-0.055,0.326-0.162
			c0.142-0.108,0.26-0.344,0.35-0.703s0.107-0.863,0.055-1.511c-0.055-0.648-0.245-1.512-0.567-2.592
			c-0.433-1.368-0.982-2.798-1.647-4.292c-0.664-1.494-1.411-2.996-2.242-4.507c-0.826-1.512-1.698-3.016-2.615-4.509
			c-0.92-1.493-1.827-2.905-2.727-4.238c-2.087-3.131-4.336-6.225-6.748-9.285c-0.29-0.396-0.612-0.836-0.973-1.322
			c-0.359-0.486-0.757-0.999-1.189-1.539c-1.977,0.108-3.965,0.197-5.965,0.27c-1.997,0.073-4.021,0.108-6.073,0.108
			c-1.401,0-2.796-0.027-4.184-0.08c-1.384-0.055-2.761-0.117-4.128-0.189c-2.703-0.18-5.148-0.478-7.343-0.892
			c-2.197-0.412-4.138-0.926-5.831-1.538c-3.958-1.476-6.498-3.526-7.611-6.155c-0.287-0.647-0.45-1.249-0.488-1.809
			c-0.035-0.557-0.018-1.053,0.055-1.484c0.107-0.503,0.253-0.971,0.434-1.403c0.611-0.972,1.619-1.565,3.02-1.78
			c0.219-0.073,0.364,0.035,0.434,0.322c0,0.254-0.107,0.396-0.322,0.432c-1.152,0.146-1.979,0.613-2.484,1.403
			c-0.215,0.397-0.332,0.82-0.35,1.27c-0.021,0.451,0,0.872,0.053,1.27c0.055,0.396,0.127,0.729,0.217,0.999
			c0.09,0.27,0.135,0.423,0.135,0.458c1.008,2.411,3.402,4.338,7.181,5.777c3.273,1.188,7.592,1.979,12.955,2.375
			c3.169,0.216,6.433,0.297,9.8,0.243c3.366-0.055,6.685-0.171,9.958-0.352c-0.356-0.468-0.716-0.926-1.079-1.377
			c-0.357-0.449-0.737-0.926-1.132-1.431c-0.181-0.18-0.343-0.377-0.487-0.594c-0.143-0.179-0.305-0.413-0.484-0.702
			c-0.181-0.287-0.395-0.629-0.648-1.025c-0.217-0.324-0.342-0.603-0.377-0.837c-0.037-0.233-0.037-0.439,0-0.62
			c0.07-0.18,0.16-0.341,0.271-0.486c0.287-0.286,0.709-0.251,1.267,0.109c0.561,0.358,1.142,0.809,1.754,1.35
			c0.686,0.646,1.439,1.421,2.27,2.319c0.215,0.217,0.45,0.486,0.699,0.812c0.219,0.287,0.488,0.611,0.811,0.972
			c0.324,0.359,0.685,0.792,1.079,1.295c1.118-0.071,2.208-0.143,3.267-0.216c1.062-0.071,2.097-0.144,3.104-0.216
			c2.377-0.18,4.547-0.333,6.506-0.458c1.961-0.127,3.574-0.172,4.834-0.137c1.366,0.038,2.653,0.127,3.857,0.271
			c1.207,0.145,2.332,0.359,3.377,0.648c1.727,0.432,3.129,1.044,4.208,1.835c0.972,0.686,1.612,1.296,1.917,1.836
			c0.309,0.539,0.478,0.827,0.516,0.863c0.035,0.108,0.023,0.217-0.027,0.324c-0.056,0.106-0.135,0.162-0.242,0.162
			c-0.146,0.036-0.271,0-0.381-0.108l-0.104-0.108c0-0.035-0.139-0.296-0.408-0.783c-0.271-0.484-0.873-1.033-1.807-1.645
			c-0.758-0.505-1.596-0.919-2.512-1.242c-0.918-0.325-1.862-0.576-2.834-0.757c-0.973-0.18-1.936-0.313-2.89-0.403
			c-0.955-0.09-1.845-0.136-2.671-0.136c-1.26-0.036-2.862,0.009-4.807,0.136c-1.941,0.125-4.101,0.278-6.479,0.458
			c-0.934,0.072-1.889,0.135-2.861,0.188c-0.972,0.055-1.961,0.118-2.969,0.188c1.367,1.728,3.024,3.934,4.966,6.614
			c1.944,2.682,3.89,5.696,5.831,9.042c1.656,2.844,2.924,5.328,3.806,7.451c0.882,2.122,1.495,3.94,1.837,5.452
			c0.343,1.51,0.468,2.744,0.377,3.698c-0.09,0.953-0.279,1.665-0.566,2.132c-0.143,0.252-0.343,0.468-0.592,0.648
			c-0.184,0.18-0.434,0.342-0.758,0.486c-0.322,0.144-0.703,0.197-1.132,0.161c-1.729,0-3.868-1.008-6.426-3.023
			c-0.647-0.504-1.259-1.017-1.837-1.539c-0.574-0.521-1.08-0.998-1.509-1.43c-0.433-0.433-0.786-0.792-1.056-1.08
			c-0.27-0.287-0.422-0.451-0.457-0.485c-1.297-1.331-2.547-2.699-3.754-4.104c-1.204-1.403-2.294-2.698-3.267-3.887
			c-0.395-0.468-0.743-0.89-1.052-1.269c-0.305-0.377-0.602-0.729-0.889-1.054c-0.219-0.216-0.197-0.395,0.051-0.538
			c0.184-0.145,0.36-0.128,0.54,0.053c0.291,0.323,0.589,0.675,0.894,1.053c0.304,0.379,0.656,0.801,1.051,1.27
			c0.647,0.791,1.35,1.638,2.107,2.537c0.647,0.755,1.385,1.609,2.211,2.563C68.959,111.668,69.838,112.632,70.775,113.604z"/>
		<path d="M56.253,93.035c-0.035-0.109-0.072-0.352-0.107-0.729c-0.038-0.379-0.038-0.784,0-1.215
			c0.035-0.433,0.143-0.827,0.322-1.188s0.471-0.596,0.865-0.701c0.646-0.109,1.225,0.143,1.727,0.754
			c0.646,0.756,0.973,1.854,0.973,3.293c0.033,0.54-0.008,1.215-0.136,2.024c-0.124,0.811-0.405,1.701-0.837,2.673
			c-0.073,0.107-0.115,0.208-0.135,0.298c-0.018,0.089-0.062,0.171-0.135,0.243c0.791,1.547,1.574,2.825,2.349,3.833
			c0.775,1.008,1.181,1.529,1.215,1.564c0.142,0.181,0.128,0.36-0.056,0.54c-0.142,0.181-0.322,0.161-0.539-0.054
			c-0.035-0.036-0.305-0.369-0.811-0.999c-0.502-0.63-1.079-1.466-1.727-2.509c-0.252-0.434-0.522-0.918-0.81-1.459
			c-0.073,0.252-0.146,0.486-0.214,0.701c-0.146,0.469-0.236,0.848-0.273,1.134c-0.07,0.468-0.08,0.937-0.025,1.404
			c0.053,0.467,0.226,0.882,0.513,1.241c0.505,0.612,0.962,1.152,1.378,1.62c0.411,0.469,0.746,0.899,0.996,1.296
			c0.252,0.396,0.46,0.854,0.623,1.376c0.162,0.521,0.242,1.142,0.242,1.862c0,0.217,0.055,0.666,0.162,1.351
			c0.107,0.683,0.322,1.537,0.646,2.564c0.326,1.025,0.8,2.185,1.434,3.481c0.626,1.296,1.484,2.663,2.563,4.103
			c4.894-0.899,9.374-1.583,13.443-2.052c4.065-0.469,7.394-0.521,9.985-0.161c5.613,0.865,9.25,2.808,10.904,5.83
			c0.397,0.72,0.668,1.476,0.809,2.268c0.146,0.685,0.201,1.466,0.163,2.35c-0.034,0.88-0.27,1.808-0.702,2.779
			c-0.682,1.584-1.717,2.843-3.104,3.778c-1.385,0.937-3.139,1.53-5.264,1.783c-0.899,0.107-1.906,0.124-3.023,0.054
			c-0.936-0.072-2.031-0.208-3.291-0.405c-1.26-0.199-2.647-0.549-4.159-1.054c-2.159-0.791-4.184-1.726-6.073-2.807
			c-1.889-1.081-3.644-2.304-5.263-3.67c-1.26-1.081-2.411-2.261-3.456-3.536c-1.043-1.279-1.98-2.619-2.807-4.024
			c-1.692,0.325-3.402,0.658-5.129,0.999c-1.727,0.343-3.49,0.694-5.29,1.054c-5.291,1.044-10.563,2.052-15.817,3.023
			c-5.256,0.973-10.203,1.692-14.848,2.159c-2.519,0.288-4.795,0.45-6.83,0.486c-2.031,0.035-3.893-0.02-5.585-0.161
			c-3.782-0.362-6.589-1.261-8.422-2.7c-1.62-1.261-2.519-2.987-2.699-5.183c0-0.037,0-0.154,0-0.352s0.024-0.432,0.079-0.701
			c0.056-0.271,0.146-0.558,0.271-0.863c0.128-0.308,0.315-0.586,0.567-0.838c0.686-0.755,1.709-1.098,3.076-1.025
			c0.252,0.072,0.377,0.216,0.377,0.433c0,0.286-0.142,0.396-0.429,0.323c-1.083-0.072-1.91,0.18-2.484,0.756
			c-0.146,0.18-0.271,0.377-0.378,0.594c-0.072,0.18-0.145,0.413-0.217,0.703c-0.073,0.286-0.107,0.592-0.107,0.917
			c0.107,1.979,0.916,3.527,2.429,4.643c1.619,1.259,4.093,2.078,7.422,2.456c3.333,0.379,7.606,0.297,12.823-0.243
			c2.305-0.216,4.707-0.513,7.208-0.891c2.502-0.378,5.046-0.791,7.637-1.242c2.592-0.449,5.212-0.936,7.854-1.457
			c2.647-0.521,5.284-1.052,7.91-1.592c1.727-0.361,3.447-0.703,5.156-1.027c1.709-0.322,3.391-0.646,5.049-0.972
			c-0.613-1.115-1.152-2.258-1.62-3.428c-0.467-1.17-0.845-2.33-1.135-3.481c-0.287-1.044-0.468-1.962-0.54-2.753
			c-0.068-0.793-0.09-1.387-0.052-1.782c0.107-1.511-0.29-2.825-1.19-3.94c-0.068-0.108-0.187-0.226-0.35-0.352
			c-0.162-0.126-0.332-0.26-0.512-0.405c-0.18-0.142-0.377-0.286-0.596-0.431c-1.187-0.721-1.709-1.783-1.563-3.186
			c0.038-0.612,0.231-1.314,0.592-2.106c0.073-0.071,0.135-0.206,0.19-0.404c0.052-0.197,0.117-0.387,0.187-0.566
			c0.11-0.217,0.2-0.45,0.271-0.703C57.136,96.742,56.575,94.942,56.253,93.035z M84.567,134.389
			c2.107,0.756,3.986,1.232,5.641,1.431c1.658,0.197,3.098,0.179,4.322-0.055c1.221-0.234,2.256-0.576,3.104-1.024
			c0.844-0.45,1.512-0.982,1.996-1.593c0.484-0.613,0.816-1.171,1-1.675c0.107-0.323,0.197-0.701,0.271-1.134
			c0.069-0.432,0.097-0.918,0.079-1.458c-0.018-0.539-0.09-1.098-0.215-1.673c-0.127-0.576-0.352-1.152-0.674-1.729
			c-1.512-2.771-4.951-4.569-10.312-5.397c-2.522-0.361-5.761-0.315-9.72,0.136c-3.959,0.449-8.312,1.124-13.062,2.023
			c1.148,1.476,2.581,2.951,4.291,4.428c1.709,1.476,3.789,2.915,6.234,4.318C80.114,132.499,82.464,133.632,84.567,134.389z
			 M58.603,95.195c0.052-0.721,0.007-1.548-0.135-2.483c-0.111-0.757-0.225-1.324-0.354-1.702c-0.124-0.377-0.252-0.63-0.377-0.756
			c-0.125-0.125-0.28-0.169-0.46-0.136c-0.215,0.29-0.339,0.738-0.378,1.352c-0.034,0.539,0.028,1.269,0.191,2.186
			c0.158,0.918,0.547,2.133,1.158,3.646C58.43,96.616,58.547,95.915,58.603,95.195z"/>
		<path d="M53.446,115.115c0.215-0.035,0.412-0.035,0.592,0l0.488,0.162c0.072,0.108,0.17,0.225,0.297,0.352
			c0.125,0.125,0.205,0.278,0.242,0.458c0,0.072-0.01,0.143-0.027,0.216c-0.018,0.071-0.027,0.144-0.027,0.216
			c-0.072,0.109-0.215,0.271-0.433,0.486c-0.287,0.143-0.519,0.216-0.698,0.216c-0.111,0-0.201-0.027-0.271-0.082
			c-0.073-0.054-0.163-0.079-0.271-0.079c-0.145-0.109-0.29-0.289-0.432-0.541c-0.039-0.072-0.066-0.135-0.084-0.188
			c-0.017-0.055-0.045-0.117-0.079-0.19c-0.072-0.358,0-0.611,0.215-0.754C53.069,115.277,53.229,115.187,53.446,115.115z
			 M33.038,103.023c0.107,0.106,0.219,0.224,0.326,0.35c0.106,0.128,0.214,0.242,0.321,0.352c1.011,1.115,2.124,2.303,3.349,3.563
			c1.223,1.259,2.537,2.41,3.941,3.454c0.721,0.575,1.492,1.079,2.322,1.512c0.72,0.396,1.509,0.756,2.373,1.08
			c0.865,0.323,1.748,0.503,2.648,0.539c1.041,0.073,1.771-0.062,2.183-0.403c0.415-0.343,0.634-0.82,0.651-1.431
			c0.017-0.613-0.118-1.306-0.406-2.08c-0.287-0.774-0.629-1.538-1.027-2.294c-0.395-0.756-0.789-1.475-1.187-2.159
			c-0.395-0.684-0.702-1.224-0.917-1.62c-0.287-0.54-0.449-1.034-0.488-1.484c-0.034-0.45,0.021-0.827,0.163-1.135
			c0.146-0.304,0.343-0.539,0.595-0.701c0.253-0.162,0.506-0.224,0.755-0.188c0.253,0,0.505,0.197,0.758,0.592
			c0.034,0.074,0.197,0.317,0.484,0.729c0.287,0.415,0.619,0.945,1,1.593c0.377,0.648,0.765,1.386,1.159,2.214s0.73,1.664,1,2.51
			s0.439,1.675,0.512,2.483c0.072,0.811-0.037,1.521-0.325,2.133c-0.501,1.151-1.563,1.799-3.183,1.943
			c-0.506,0.072-0.973,0.099-1.405,0.081c-0.433-0.019-0.81-0.062-1.132-0.135c-0.398-0.073-0.758-0.145-1.08-0.217
			c-0.938-0.215-1.893-0.576-2.861-1.079c-0.973-0.505-1.979-1.134-3.023-1.89c-1.439-1.044-2.782-2.205-4.021-3.481
			c-1.242-1.277-2.367-2.475-3.377-3.591c-0.142-0.143-0.27-0.277-0.377-0.405c-0.107-0.125-0.215-0.243-0.322-0.35
			c-0.145-0.18-0.128-0.36,0.053-0.54C32.679,102.825,32.858,102.843,33.038,103.023z M49.692,117.599
			c0.201-0.073,0.354-0.091,0.46-0.053c0.107,0.034,0.197,0.088,0.271,0.16c0.072,0.072,0.145,0.145,0.215,0.216
			c0.109,0.18,0.145,0.378,0.109,0.595c-0.037,0.216-0.18,0.378-0.432,0.486c-0.18,0.071-0.343,0.062-0.488-0.026
			c-0.142-0.091-0.249-0.172-0.322-0.244c0.143,0,0.143-0.072,0-0.216c-0.034,0.036-0.055,0.081-0.055,0.134
			c0,0.056-0.018,0.047-0.052-0.026c0-0.071-0.038-0.126-0.11-0.161c0.037-0.108,0.037-0.198,0-0.271
			c-0.035-0.072-0.035-0.161,0-0.271C49.36,117.778,49.495,117.67,49.692,117.599z M45.052,97.84
			c-0.018-0.288,0.025-0.566,0.135-0.837c0.107-0.271,0.271-0.486,0.484-0.648c0.215-0.162,0.451-0.225,0.703-0.188
			c0.252,0.072,0.433,0.253,0.539,0.539c0.107,0.29,0.197,0.631,0.271,1.027c0.073,0.431,0.09,0.917,0.056,1.457
			c0,0.288-0.246,0.359-0.73,0.216c-0.488-0.144-0.893-0.413-1.215-0.811C45.149,98.379,45.069,98.128,45.052,97.84z M41.004,114.44
			c0.197-0.09,0.349-0.1,0.456-0.026c0.107,0.034,0.197,0.089,0.271,0.161s0.146,0.144,0.218,0.216
			c0.107,0.18,0.143,0.379,0.107,0.595c-0.035,0.215-0.18,0.358-0.433,0.432c-0.18,0.071-0.343,0.071-0.484,0
			c-0.146-0.073-0.253-0.145-0.325-0.217c0.107-0.107,0.107-0.18,0-0.215c-0.035,0-0.055,0.026-0.055,0.081
			c0,0.053-0.018,0.062-0.053,0.026c0-0.072-0.038-0.144-0.107-0.216c0.035-0.107,0.035-0.197,0-0.271
			c-0.037-0.072-0.037-0.144,0-0.216C40.668,114.647,40.804,114.531,41.004,114.44z"/>
		<path d="M16.439,115.844c0.882,0.414,1.737,0.621,2.563,0.621c0.682,0,1.242-0.144,1.672-0.434c0.398-0.287,0.616-0.61,0.65-0.97
			c0.143-0.685-0.09-1.674-0.702-2.97c-0.218-0.396-0.439-0.782-0.675-1.16s-0.404-0.658-0.512-0.838
			c-0.506-0.72-0.921-1.493-1.242-2.32c-0.326-0.827-0.287-1.439,0.107-1.835c0.145-0.144,0.332-0.226,0.566-0.244
			c0.236-0.018,0.457,0,0.676,0.055c0.214,0.054,0.422,0.127,0.619,0.215c0.197,0.092,0.332,0.154,0.404,0.189
			c0.36,0.181,0.782,0.424,1.27,0.729c0.484,0.307,1.091,0.73,1.807,1.27c0.253,0.18,0.506,0.359,0.758,0.539
			c0.253,0.179,0.467,0.36,0.647,0.54c0.218,0.18,0.433,0.359,0.647,0.54c-0.755-0.901-1.564-1.898-2.43-2.997
			c-0.861-1.097-1.717-2.194-2.564-3.294c-0.844-1.095-1.637-2.14-2.373-3.13c-0.737-0.989-1.343-1.861-1.811-2.617
			c-1.293-2.087-1.761-3.744-1.404-4.968c0.146-0.468,0.359-0.81,0.65-1.025c0.18-0.181,0.35-0.306,0.512-0.378
			c0.163-0.072,0.299-0.126,0.405-0.162c0.973-0.359,2.321-0.09,4.049,0.81c0.792,0.432,1.664,0.999,2.619,1.701
			c0.952,0.702,1.969,1.538,3.048,2.51c0.938,0.829,1.82,1.666,2.648,2.51c0.826,0.848,1.557,1.603,2.186,2.269
			c0.631,0.666,1.322,1.449,2.076,2.348c0.073,0.073,0.102,0.155,0.084,0.243c-0.018,0.091-0.062,0.171-0.135,0.243
			c-0.219,0.216-0.398,0.216-0.541,0c-0.758-0.863-1.449-1.638-2.079-2.321c-0.63-0.683-1.349-1.431-2.159-2.239
			c-0.81-0.811-1.682-1.629-2.619-2.457c-1.041-0.972-2.024-1.799-2.941-2.485c-0.917-0.682-1.771-1.24-2.564-1.672
			c-0.574-0.287-1.079-0.503-1.512-0.648c-0.18-0.07-0.395-0.125-0.646-0.161c-0.253-0.036-0.506-0.036-0.758,0
			c-0.287,0.071-0.495,0.18-0.619,0.323c-0.125,0.145-0.118,0.414,0.027,0.811c0.107,0.289,0.484,0.854,1.131,1.701
			c0.65,0.846,1.45,1.843,2.405,2.995c0.952,1.151,1.979,2.402,3.076,3.752c1.097,1.349,2.142,2.681,3.132,3.995
			c0.989,1.314,1.844,2.538,2.563,3.671s1.17,2.08,1.35,2.834c0.073,0.252,0.09,0.486,0.056,0.702
			c-0.039,0.18-0.09,0.378-0.163,0.594c-0.072,0.216-0.218,0.359-0.433,0.432c-0.395,0.216-0.775,0.171-1.135-0.136
			c-0.359-0.306-0.682-0.602-0.973-0.89c-0.395-0.323-0.889-0.755-1.484-1.296c-0.592-0.539-1.231-1.079-1.913-1.619
			c-0.831-0.685-1.529-1.224-2.107-1.62c-0.574-0.396-1.059-0.702-1.456-0.918c-0.219-0.071-0.333,0-0.354,0.216
			c-0.018,0.218,0.246,0.828,0.785,1.836c0.467,0.863,0.799,1.647,0.996,2.35c0.201,0.701,0.299,1.312,0.299,1.835
			c0,0.521-0.057,0.972-0.163,1.351c-0.107,0.377-0.231,0.673-0.378,0.89c-0.18,0.323-0.411,0.594-0.701,0.81
			c-0.25,0.216-0.568,0.406-0.945,0.566c-0.377,0.162-0.854,0.243-1.43,0.243c-0.287-0.035-0.557-0.071-0.809-0.107
			c-0.253-0.037-0.523-0.091-0.811-0.162c-1.189-0.324-2.449-0.974-3.778-1.943c-0.577-0.397-1.106-0.793-1.595-1.188
			c-0.484-0.396-0.917-0.765-1.295-1.106c-0.377-0.341-0.674-0.63-0.893-0.864c-0.215-0.234-0.339-0.369-0.377-0.404
			c-0.899-0.899-1.671-1.692-2.322-2.376c-0.646-0.682-1.242-1.323-1.777-1.916c-0.544-0.593-1.045-1.16-1.513-1.7
			s-0.972-1.114-1.513-1.729c-0.217-0.216-0.217-0.395,0-0.538c0.215-0.216,0.395-0.199,0.541,0.053
			c0.539,0.613,1.045,1.187,1.512,1.728c0.467,0.54,0.973,1.107,1.508,1.701c0.541,0.594,1.136,1.233,1.783,1.916
			c0.65,0.683,1.422,1.476,2.321,2.374c0.54,0.468,1.045,0.919,1.513,1.351c0.432,0.397,0.871,0.784,1.321,1.16
			c0.45,0.379,0.854,0.693,1.214,0.946C14.758,114.971,15.558,115.43,16.439,115.844z"/>
	</g>
</g>
</svg>
