<?xml version="1.0" encoding="utf-8"?>
<!-- Generator: Adobe Illustrator 15.0.0, SVG Export Plug-In . SVG Version: 6.00 Build 0)  -->
<!DOCTYPE svg PUBLIC "-//W3C//DTD SVG 1.1//EN" "http://www.w3.org/Graphics/SVG/1.1/DTD/svg11.dtd">
<svg version="1.1" id="Layer_1" xmlns="http://www.w3.org/2000/svg" xmlns:xlink="http://www.w3.org/1999/xlink" x="0px" y="0px"
	 width="185px" height="85px" viewBox="0 0 185 85" enable-background="new 0 0 185 85" xml:space="preserve">
<g>
	<g id="uSvG9X.tif">
		<g>
			<path d="M84.563,33.667c2.662,11.892-0.639,22.797-4.885,30.359c-0.64,1.14-1.449,2.121-2.182,3.142
				c-1.479,2.063-3.016,3.978-4.797,5.759c-1.748,1.746-3.76,3.366-5.846,4.797c-4.205,2.885-9.293,5.199-14.918,6.369
				c-6.394,1.328-13.187,1.145-19.019-0.262c-5.59-1.348-10.582-3.893-14.569-6.719c-8.155-5.779-14.5-14.307-16.925-25.647
				c-1.387-6.485-1.175-13.072,0.175-18.93c1.298-5.641,3.897-10.597,6.718-14.569C14.239,9.621,22.523,3.431,33.878,0.953
				c6.428-1.402,13.214-1.166,18.933,0.175c5.742,1.346,10.613,3.772,14.654,6.63c8.4,5.937,14.271,14.043,17.012,25.562
				c-0.172,0.172-0.172,0.383,0,0.087C84.58,33.42,84.572,33.543,84.563,33.667z M38.154,6.448
				c-0.018-0.071-0.088-0.087-0.088-0.175c10.186,0.812,17.822,4.542,24.34,8.898c0.312-1.892,0.17-4.426,0.088-6.455
				c-5.767-3.603-15.438-6.187-25.125-4.799c-0.462,0.066-0.936,0.183-1.396,0.175c0.032,0-0.233-0.077-0.174-0.087
				c-0.17,0.03,0.07,0.126,0,0.174c-0.318,0.217-1.354,0.238-1.832,0.35c-1.948,0.45-4.007,1.197-5.758,1.832
				c2.834-0.091,6.591-0.323,9.77-0.088c0.027,0.154,0.537,0.535,0.35,0.35C38.289,6.545,38.251,6.468,38.154,6.448z M10.498,21.019
				c3.49-1.488,7.599-2.313,12.127-2.53c4.588-0.22,9.222,0.431,13.26,1.396c7.928,1.895,14.826,5.308,21.025,8.637
				c1.476-1.9,2.765-4.012,3.838-6.63c0.231-0.565,0.976-2.063,0.873-2.617c-0.088-0.478-1.924-1.603-2.53-2.007
				c-4.596-3.064-9.746-5.412-15.965-6.717c-2.514-0.528-5.319-0.651-8.2-0.785c-3.913-0.183-8.528,0.423-12.039,1.047
				c-1.223,0.217-2.547,0.309-3.49,0.697c-0.898,0.371-1.686,1.337-2.529,2.094C14.457,15.766,12.104,18.354,10.498,21.019z
				 M66.244,11.16c-0.354,17.615-10.758,25.185-21.896,32.017c-0.013,5.332,0.781,9.861,1.92,14.045
				c6.687-3.908,12.988-8.49,18.406-14.481c4.393-4.856,8.272-10.798,9.51-19.193c0.179-1.215,0.512-2.778,0.349-3.751
				c-0.11-0.659-1.147-1.741-1.745-2.442C70.809,15.03,68.621,13.037,66.244,11.16z M4.305,37.594
				c0.072,0.272,0.566-0.139,0.785-0.262c3.95-2.228,9.119-4.255,15.441-4.274c9.287-0.03,16.191,3.777,22.246,6.892
				c4.188-2.453,8.565-5.276,11.604-8.724c-7.937-4.164-16.612-8.55-28.267-9.16c-7.487-0.393-13.699,1.455-18.67,4.274
				C6.035,29.728,4.861,33.352,4.305,37.594z M77.674,24.683c-0.074-0.017-0.084,0.033-0.089,0.087
				c-1.567,9.27-6.079,15.995-11.342,21.636c-5.278,5.658-11.922,10.055-18.668,14.22c1.364,3.317,3.377,6.573,5.758,8.724
				c12.354-4.918,21.015-14.617,26.084-27.48c0.343-0.868,0.692-1.83,1.048-2.791c0.35-0.949,0.91-1.977,0.959-2.792
				c0.055-0.929-0.359-2.095-0.611-3.141C80.12,30.239,78.837,27,77.674,24.683z M84.128,33.754c0.071-0.107-0.271,0.232-0.35,0.35
				C83.723,34.187,83.946,34.027,84.128,33.754z M83.432,34.453c0.069-0.107-0.271,0.232-0.351,0.349
				C83.027,34.885,83.248,34.727,83.432,34.453z M82.731,35.149c0.072-0.106-0.271,0.232-0.348,0.35
				C82.329,35.582,82.551,35.424,82.731,35.149z M82.035,35.849c0.071-0.107-0.271,0.232-0.351,0.35
				C81.631,36.279,81.852,36.122,82.035,35.849z M40.683,81.388c0.287,0.062,0.134-0.174,0-0.175
				c-11.316-9.039-16.213-24.5-16.75-44.318c-3.611-0.579-7.381-0.123-10.381,0.611c-0.205,1.02-0.02,2.394-0.438,3.228
				c-0.055,0.11,0.175-0.001,0.176,0c0.168,1.071-0.13,2.222-0.088,3.315c0.117,3.028,0.438,5.942,1.047,8.897
				c2.055,9.949,7.077,17.662,12.998,24.166c0.524,0.574,1.057,1.434,1.57,1.744c0.707,0.429,1.844,0.58,2.793,0.873
				C34.337,80.571,37.46,81.244,40.683,81.388z M40.771,42.915c-4.021-2.231-8.18-4.325-13.348-5.408
				c0.686,18.547,5.439,34.092,17.186,42.223c0.725,0.502,1.834,1.377,2.442,1.483c0.881,0.154,2.176-0.237,3.228-0.437
				c3.229-0.611,6.082-1.611,8.725-2.705c-6.805-3.596-12.094-9.307-15.18-17.186c-1.234-3.154-2.02-6.486-2.529-10.47
				c-0.254-1.972-0.617-4.122-0.438-6.021c0.002-0.018,0.355-0.354,0,0C40.656,44.076,40.828,43.381,40.771,42.915z M19.919,73.972
				c-0.566-1.105-1.406-2.08-2.094-3.141c-5.015-7.744-9.064-18.598-7.938-31.93c-2.18,0.903-4.174,1.991-5.846,3.402
				c0.211,12.752,4.973,21.193,11.342,27.655c0.026,0.026-0.132,0.13-0.088,0.174c0.027,0.028,0.125-0.128,0.175-0.087
				c0.703,0.573,1.401,1.338,2.181,2.008C18.428,72.718,19.188,73.372,19.919,73.972z M56.212,71.965
				c1.9,1.677,4.339,2.813,6.718,4.013c8.646-5.276,15.506-13.658,18.146-25.123c0.041-0.184,0.045-0.435,0.086-0.611
				c0.033-0.139,0.156-0.247,0.176-0.35c0.072-0.392,0.054-1.136,0.175-2.006c0.104-0.756,0.287-1.586,0.262-2.27
				c-3.364,7.462-8.068,14.348-14.309,19.367c-0.486,0.393-0.984,1.035-1.396,0.873c-0.104-0.123-0.034-0.008,0,0.086
				c0.028,0,0.059,0,0.087,0c0,0.06,0,0.117,0,0.176C63.078,68.304,59.875,70.365,56.212,71.965z"/>
		</g>
	</g>
	<g id="uSvG9X.tif_1_">
		<g>
			<path d="M183.563,33.667c2.662,11.892-0.639,22.796-4.885,30.359c-0.64,1.14-1.449,2.119-2.182,3.142
				c-1.479,2.063-3.016,3.978-4.797,5.759c-1.748,1.745-3.76,3.366-5.846,4.797c-4.205,2.885-9.293,5.198-14.918,6.369
				c-6.394,1.327-13.187,1.145-19.019-0.263c-5.59-1.349-10.582-3.894-14.569-6.718c-8.154-5.78-14.5-14.307-16.924-25.647
				c-1.388-6.485-1.176-13.072,0.174-18.93c1.299-5.641,3.897-10.597,6.719-14.569c5.921-8.344,14.205-14.534,25.561-17.012
				c6.428-1.402,13.213-1.166,18.932,0.175c5.742,1.346,10.613,3.772,14.656,6.63c8.399,5.937,14.27,14.043,17.012,25.562
				c-0.172,0.172-0.172,0.383,0,0.087C183.58,33.42,183.572,33.543,183.563,33.667z M137.154,6.448
				c-0.019-0.071-0.089-0.087-0.089-0.175c10.187,0.812,17.822,4.542,24.341,8.898c0.312-1.892,0.17-4.426,0.088-6.455
				c-5.767-3.603-15.438-6.187-25.125-4.799c-0.462,0.066-0.937,0.183-1.396,0.175c0.031,0-0.233-0.077-0.174-0.087
				c-0.171,0.03,0.069,0.126,0,0.174c-0.318,0.217-1.354,0.238-1.832,0.35c-1.949,0.45-4.008,1.197-5.759,1.832
				c2.834-0.091,6.591-0.323,9.771-0.088c0.027,0.154,0.537,0.535,0.35,0.35C137.289,6.545,137.252,6.468,137.154,6.448z
				 M109.498,21.019c3.49-1.488,7.599-2.313,12.127-2.53c4.588-0.22,9.222,0.431,13.261,1.396
				c7.928,1.895,14.825,5.308,21.024,8.637c1.476-1.9,2.765-4.012,3.838-6.63c0.231-0.565,0.976-2.063,0.873-2.617
				c-0.088-0.478-1.924-1.603-2.53-2.007c-4.596-3.064-9.746-5.412-15.965-6.717c-2.514-0.528-5.318-0.651-8.199-0.785
				c-3.914-0.183-8.529,0.423-12.039,1.047c-1.224,0.217-2.547,0.309-3.49,0.697c-0.898,0.371-1.687,1.337-2.529,2.094
				C113.457,15.766,111.104,18.354,109.498,21.019z M165.244,11.16c-0.354,17.615-10.758,25.185-21.896,32.017
				c-0.013,5.332,0.781,9.86,1.92,14.045c6.687-3.908,12.988-8.492,18.406-14.481c4.393-4.856,8.272-10.798,9.51-19.193
				c0.179-1.215,0.512-2.778,0.349-3.751c-0.11-0.659-1.147-1.741-1.745-2.442C169.81,15.03,167.621,13.037,165.244,11.16z
				 M103.306,37.594c0.071,0.272,0.565-0.139,0.785-0.262c3.949-2.228,9.118-4.255,15.44-4.274c9.287-0.03,16.19,3.777,22.246,6.892
				c4.188-2.453,8.565-5.276,11.604-8.724c-7.937-4.164-16.611-8.55-28.267-9.16c-7.487-0.393-13.699,1.455-18.67,4.274
				C105.035,29.728,103.861,33.352,103.306,37.594z M176.675,24.683c-0.074-0.017-0.084,0.033-0.089,0.087
				c-1.567,9.27-6.079,15.995-11.342,21.634c-5.278,5.66-11.922,10.056-18.668,14.222c1.364,3.317,3.377,6.571,5.758,8.724
				c12.354-4.918,21.015-14.617,26.084-27.48c0.343-0.868,0.692-1.83,1.048-2.791c0.35-0.949,0.91-1.977,0.959-2.792
				c0.055-0.929-0.359-2.095-0.611-3.141C179.12,30.239,177.838,27,176.675,24.683z M183.129,33.754
				c0.071-0.107-0.271,0.232-0.35,0.35C182.724,34.187,182.946,34.027,183.129,33.754z M182.433,34.453
				c0.069-0.107-0.271,0.232-0.351,0.349C182.027,34.885,182.248,34.727,182.433,34.453z M181.731,35.149
				c0.072-0.106-0.271,0.232-0.348,0.35C181.329,35.582,181.552,35.424,181.731,35.149z M181.035,35.849
				c0.071-0.107-0.271,0.232-0.351,0.35C180.632,36.279,180.853,36.122,181.035,35.849z M139.683,81.386
				c0.287,0.064,0.135-0.172,0-0.174c-11.315-9.039-16.213-24.5-16.75-44.317c-3.61-0.579-7.381-0.123-10.381,0.611
				c-0.205,1.02-0.02,2.394-0.438,3.228c-0.055,0.11,0.175-0.001,0.176,0c0.168,1.071-0.13,2.222-0.088,3.314
				c0.117,3.029,0.438,5.943,1.047,8.898c2.055,9.949,7.077,17.662,12.998,24.166c0.523,0.574,1.057,1.434,1.57,1.744
				c0.707,0.428,1.844,0.58,2.793,0.873C133.338,80.571,136.461,81.244,139.683,81.386z M139.771,42.915
				c-4.021-2.231-8.18-4.325-13.348-5.408c0.687,18.545,5.439,34.09,17.187,42.223c0.725,0.502,1.834,1.375,2.442,1.482
				c0.881,0.154,2.176-0.238,3.228-0.436c3.229-0.611,6.082-1.611,8.725-2.705c-6.805-3.596-12.094-9.307-15.18-17.186
				c-1.233-3.154-2.021-6.486-2.529-10.47c-0.254-1.972-0.616-4.123-0.438-6.021c0.002-0.018,0.355-0.354,0,0
				C139.656,44.076,139.828,43.38,139.771,42.915z M118.92,73.972c-0.565-1.106-1.405-2.082-2.094-3.141
				c-5.015-7.744-9.063-18.598-7.938-31.93c-2.18,0.903-4.174,1.991-5.846,3.402c0.211,12.752,4.973,21.193,11.342,27.654
				c0.026,0.027-0.132,0.131-0.088,0.174c0.027,0.029,0.125-0.127,0.176-0.086c0.703,0.572,1.4,1.338,2.181,2.006
				C117.429,72.718,118.188,73.371,118.92,73.972z M155.213,71.964c1.9,1.676,4.339,2.814,6.718,4.014
				c8.646-5.276,15.506-13.66,18.146-25.125c0.041-0.182,0.045-0.434,0.086-0.61c0.033-0.138,0.156-0.246,0.176-0.349
				c0.072-0.393,0.054-1.137,0.175-2.008c0.104-0.754,0.287-1.584,0.262-2.268c-3.364,7.461-8.068,14.348-14.309,19.367
				c-0.486,0.393-0.984,1.035-1.396,0.873c-0.104-0.123-0.034-0.008,0,0.086c0.028,0,0.059,0,0.087,0c0,0.059,0,0.117,0,0.176
				C162.078,68.304,158.875,70.365,155.213,71.964z"/>
		</g>
	</g>
</g>
</svg>
