<?xml version="1.0" encoding="utf-8"?>
<!-- Generator: Adobe Illustrator 15.0.0, SVG Export Plug-In . SVG Version: 6.00 Build 0)  -->
<!DOCTYPE svg PUBLIC "-//W3C//DTD SVG 1.1//EN" "http://www.w3.org/Graphics/SVG/1.1/DTD/svg11.dtd">
<svg version="1.1" id="Layer_1" xmlns="http://www.w3.org/2000/svg" xmlns:xlink="http://www.w3.org/1999/xlink" x="0px" y="0px"
	 width="276px" height="53px" viewBox="0 0 276 53" enable-background="new 0 0 276 53" xml:space="preserve">
<g>
	<g id="_x37_t1MWC.tif">
		<g>
			<path d="M66.027,0.058c-1.764,0.194-0.778,1.163-1.613,2.42c-1.022,1.544-3.816,2.23-4.032,4.034
				c-0.327,2.737,3.181,3.607,4.233,6.253c0.637,1.59,0.879,4.985-0.201,6.051c-1.042,1.028-5.176,0.605-7.262,0.605
				c-6.085,0-10.955-0.613-12.908,3.43c-0.54,1.116-0.77,2.652-0.807,3.832c-0.18,5.646,2.401,11.229,5.244,15.731
				c2.038,3.229,4.318,6.021,7.261,8.471c0.906,0.757,1.796,2.14,3.229,1.613c0.217-2.383-0.943-5.097-1.211-7.664
				c-4.736-1.965-11.041-7.387-10.286-14.926c0.391-3.896,3.897-3.63,8.875-3.63c4.808,0,10.608,0.875,12.102-2.219
				c1.104-2.293,0.406-8.369-0.402-10.287c-0.669-1.583-1.658-1.912-2.22-3.631c0.945-2.06,3.914-2.323,4.034-4.639
				C70.18,3.224,67.404,1.757,66.027,0.058z"/>
			<path d="M29.318,44.632c-1.938-2.428-3.542-5.049-5.043-7.865c-1.418-2.662-3.003-5.744-3.227-9.479
				c1.255-1.777,4.251-1.229,5.042-3.228c0.472-1.189-0.312-2.963-0.809-4.234c-0.52-1.331-1.059-2.83-2.219-3.229
				c-1.241,0.46-1.067,1.67-2.017,2.421c-1.408,1.112-3.701,0.949-4.843,2.421c-0.359,5.271,2.143,9.455,4.034,13.312
				c1.949,3.974,4.08,7.746,6.454,11.295c-4.186-1.133-9.806-1.022-13.716-3.631c-3.098-2.063-4.953-6.401-6.454-10.287
				c-0.438-1.137-1.438-3.319-1.21-4.233c0.509-2.051,4.166-1.539,5.445-3.229c0.389-1.441,0.141-3.131-0.403-4.641
				c-0.345-0.959-1.076-3.136-2.017-3.227c-1.473-0.143-1.121,1.313-2.02,2.017c-1.271,0.997-5.189,1.145-5.849,3.025
				c0.306,4.86,2.356,10.199,4.437,14.927c0.91,2.067,2.075,4.426,3.229,6.452c2.351,4.142,4.17,5.98,9.077,7.466
				c4.273,1.293,9.397,2.491,14.925,2.219c2.114-7.139,6.062-16.91,3.025-25.414c1.255-2.271,5.281-1.926,5.646-4.639
				c0.307-2.275-2-4.285-3.025-6.254c-0.345,0.043-0.521-0.344-0.604,0c-1.271-0.262-0.882,1.135-1.412,1.613
				c-1.214,1.182-5.196,1.513-5.647,3.631c-0.254,1.196,0.812,2.829,1.412,4.236c0.573,1.342,1.249,2.789,1.412,4.033
				C33.729,36.048,30.644,39.944,29.318,44.632z"/>
			<path d="M73.894,21.437c0.789,5.746,0.758,13.771,0,19.969c-0.332,2.715-1.183,5.086-0.807,6.857
				c0.127,0.6,2.917,5.096,4.233,4.639c1.184-0.408,0.746-2.963,0.809-4.234c0.273-5.725,0.043-14.176-0.403-20.371
				c1.804-2.164,6.464-1.471,7.866-4.033c0.006-2.82-1.114-5.815-2.019-7.061c-0.301-0.415-0.963-1.078-1.611-0.403
				c-0.434,0.447-0.382,1.291-1.011,1.815C79.185,20.087,75.285,19.557,73.894,21.437z"/>
			<path d="M117.864,17.203c0.334,2.103,2.371,5.196,1.411,7.463c-0.589,1.394-1.998,1.339-3.832,1.815
				c2.186,6.979,3.626,18.229,0.809,25.615c-7.865,0-15.732,0-23.6,0c-1.131-3.873-1.731-8.824-2.018-13.916
				c-0.332-5.962-0.785-14.3,2.219-17.146c3.678-3.486,19.263,0.611,22.792-2.824c0.604-0.588,0.378-1.911,1.613-1.411
				C117.497,16.896,117.718,17.014,117.864,17.203z M112.419,26.278c-2.767,0-5.731,0-8.675,0c-2.643,0-5.861-0.449-7.665,0.807
				c-1.947,1.359-1.812,5.57-1.812,8.875c0,3.533-0.493,7.605,1.412,9.076c5.188,0.334,11.754,0.334,16.939,0
				c1.957-2.016,1.434-5.646,1.211-8.875c-0.227-3.326-0.562-6.65-1.009-9.277C112.648,26.722,112.702,26.332,112.419,26.278z"/>
		</g>
	</g>
	<g id="_x37_t1MWC.tif_1_">
		<g>
			<path d="M222.027,0.058c-1.764,0.194-0.779,1.163-1.613,2.42c-1.022,1.544-3.816,2.23-4.032,4.034
				c-0.327,2.737,3.181,3.607,4.233,6.253c0.637,1.59,0.879,4.985-0.201,6.051c-1.042,1.028-5.176,0.605-7.262,0.605
				c-6.085,0-10.955-0.613-12.908,3.43c-0.54,1.116-0.77,2.652-0.807,3.832c-0.18,5.646,2.401,11.229,5.244,15.731
				c2.038,3.229,4.318,6.021,7.261,8.471c0.906,0.757,1.796,2.14,3.229,1.613c0.217-2.383-0.943-5.097-1.211-7.664
				c-4.736-1.965-11.041-7.387-10.286-14.926c0.391-3.896,3.897-3.63,8.875-3.63c4.808,0,10.608,0.875,12.102-2.219
				c1.104-2.293,0.406-8.369-0.402-10.287c-0.669-1.583-1.658-1.912-2.22-3.631c0.945-2.06,3.914-2.323,4.034-4.639
				C226.18,3.224,223.404,1.757,222.027,0.058z"/>
			<path d="M185.318,44.632c-1.938-2.428-3.542-5.049-5.043-7.865c-1.418-2.662-3.003-5.744-3.227-9.479
				c1.255-1.777,4.251-1.229,5.042-3.228c0.472-1.189-0.312-2.963-0.809-4.234c-0.52-1.331-1.059-2.83-2.219-3.229
				c-1.241,0.46-1.067,1.67-2.017,2.421c-1.408,1.112-3.701,0.949-4.843,2.421c-0.359,5.271,2.143,9.455,4.034,13.312
				c1.949,3.974,4.08,7.746,6.454,11.295c-4.186-1.133-9.806-1.022-13.716-3.631c-3.098-2.063-4.953-6.401-6.454-10.287
				c-0.438-1.137-1.438-3.319-1.21-4.233c0.509-2.051,4.166-1.539,5.445-3.229c0.389-1.441,0.141-3.131-0.403-4.641
				c-0.345-0.959-1.076-3.136-2.017-3.227c-1.473-0.143-1.121,1.313-2.02,2.017c-1.271,0.997-5.189,1.145-5.849,3.025
				c0.306,4.86,2.356,10.199,4.437,14.927c0.91,2.067,2.075,4.426,3.229,6.452c2.351,4.142,4.17,5.98,9.077,7.466
				c4.273,1.293,9.397,2.491,14.925,2.219c2.114-7.139,6.062-16.91,3.025-25.414c1.255-2.271,5.281-1.926,5.646-4.639
				c0.307-2.275-2-4.285-3.025-6.254c-0.345,0.043-0.521-0.344-0.604,0c-1.271-0.262-0.882,1.135-1.412,1.613
				c-1.214,1.182-5.196,1.513-5.647,3.631c-0.254,1.196,0.812,2.829,1.412,4.236c0.573,1.342,1.249,2.789,1.412,4.033
				C189.729,36.048,186.644,39.944,185.318,44.632z"/>
			<path d="M229.894,21.437c0.789,5.746,0.758,13.771,0,19.969c-0.332,2.715-1.183,5.086-0.807,6.857
				c0.127,0.6,2.917,5.096,4.233,4.639c1.183-0.408,0.746-2.963,0.808-4.234c0.274-5.725,0.043-14.176-0.402-20.371
				c1.804-2.164,6.464-1.471,7.865-4.033c0.006-2.82-1.113-5.815-2.018-7.061c-0.301-0.415-0.963-1.078-1.611-0.403
				c-0.434,0.447-0.382,1.291-1.011,1.815C235.185,20.087,231.285,19.557,229.894,21.437z"/>
			<path d="M273.864,17.203c0.334,2.103,2.371,5.196,1.411,7.463c-0.589,1.394-1.998,1.339-3.832,1.815
				c2.185,6.979,3.626,18.229,0.808,25.615c-7.865,0-15.731,0-23.599,0c-1.131-3.873-1.731-8.824-2.019-13.916
				c-0.332-5.962-0.785-14.3,2.22-17.146c3.678-3.486,19.263,0.611,22.792-2.824c0.604-0.588,0.378-1.911,1.613-1.411
				C273.497,16.896,273.718,17.014,273.864,17.203z M268.419,26.278c-2.767,0-5.731,0-8.675,0c-2.643,0-5.862-0.449-7.665,0.807
				c-1.947,1.359-1.812,5.57-1.812,8.875c0,3.533-0.493,7.605,1.412,9.076c5.188,0.334,11.754,0.334,16.939,0
				c1.957-2.016,1.434-5.646,1.211-8.875c-0.227-3.326-0.562-6.65-1.009-9.277C268.648,26.722,268.702,26.332,268.419,26.278z"/>
		</g>
	</g>
</g>
</svg>
