<?xml version="1.0" encoding="utf-8"?>
<!-- Generator: Adobe Illustrator 15.0.0, SVG Export Plug-In . SVG Version: 6.00 Build 0)  -->
<!DOCTYPE svg PUBLIC "-//W3C//DTD SVG 1.1//EN" "http://www.w3.org/Graphics/SVG/1.1/DTD/svg11.dtd">
<svg version="1.1" id="Layer_1" xmlns="http://www.w3.org/2000/svg" xmlns:xlink="http://www.w3.org/1999/xlink" x="0px" y="0px"
	 width="329px" height="142px" viewBox="0 0 329 142" enable-background="new 0 0 329 142" xml:space="preserve">
<g>
	<g id="LP2ggj.tif">
		<g>
			<path d="M73.234,59.563c-1.75-0.563-1.146-3.481-1.634-5.311c-0.397,0.419-0.639,0.997-1.43,1.021
				c-0.797,0.048-1.062-0.438-1.636-0.611c-0.562-1.445-0.034-3.207,0.816-3.882C74.348,50.007,72.228,56.351,73.234,59.563z"/>
			<path d="M29.121,93.67c-1.556-0.369-2.367-2.062-3.882-2.656c-2.696-1.057-5.651-0.494-6.127,2.451
				c-0.487,3.035,0.734,6.896,1.636,10.008c1.741,6.031,3.928,11.674,5.922,17.359c1.055,3.008,2.295,6.002,2.043,8.984
				c-2.127,0.91-4.029-0.428-5.924,0c-3.019,0.684-4.031,3.641-5.31,6.33c-0.43-3.629,1.201-6.965,3.676-8.373
				c2.058-0.238,4.283,0.789,5.515-0.406c0.103-1.523-0.617-3.041-1.226-4.494c-1.637-3.908-3.137-7.705-4.901-11.641
				c-2.354-5.246-5.024-11.146-5.515-16.746c-0.297-3.4,0.033-6.781,2.041-8.17c2.039-1.406,5.795-0.625,7.965-2.246
				c-0.309-2.93-1.743-6.252-3.062-9.803c-2.297-6.186-4.918-13.01-7.147-19.4c-1.15-3.297-2.896-7.299-2.859-10.213
				c0.068-5.481,5.922-6.928,9.395-3.472c-1.645-8.332-6.42-16.06-9.188-24.915c-0.752-2.405-2.312-7.392,0-8.781
				c1.676-1.007,4.433,0.253,6.535-0.205c-0.203-2.26-2.213-4.446-2.654-7.146c1.029,1.282,2.103,2.851,3.062,4.493
				c0.822,1.403,2.283,3.34,1.226,5.31c-1.951,0.8-3.51-1.333-5.514-0.816c-1.402,0.361-1.587,2.261-1.431,4.492
				c0.414,5.851,3.4,11.569,5.924,16.95c2.615,5.582,5.252,10.897,5.922,16.952c-2.5,0.15-3.514-3.309-6.534-2.86
				c-1.892,0.281-2.453,2.958-2.246,5.924C17.489,65.389,30.287,76.684,29.121,93.67z"/>
			<path d="M13.803,120.014c-2.389-0.113-2.836-2.922-5.104-2.654c-2.938,0.35-2.166,6.395-2.041,10.01
				c-1.17-2.248-3.383-9.877-0.613-12.053c1.107-0.865,3.104-0.682,5.105-0.404c-0.871-10.666-8.435-21.686-9.189-32.68
				c-0.184-2.652,0.479-5.613,2.246-6.33c1.303-0.525,3.432,0.273,4.492-0.814c-0.957-5.092-2.937-10.74-4.697-16.951
				c-0.76-2.681-1.549-5.646-2.246-8.577c-0.92-3.865-2.812-9.66,0-12.05c1.471-1.249,4.234-0.679,5.719-2.246
				c0.412-6.812-2.242-12.139-2.859-18.585c2.142,7.871,5.566,15.534,6.127,24.303c-3.336,1.062-7.428-3.422-8.168,1.636
				c-0.526,3.584,1.197,7.009,2.246,10.413c2.009,6.531,4.093,12.947,5.718,19.605c0.856,3.506,1.866,7.346,0.612,10.824
				c-1.928-0.318-2.174-2.32-4.084-2.654c-3.248,2.27-1.434,8.16-0.205,12.254c0.787,2.617,1.81,5.203,2.656,7.76
				c1.779,5.377,4.125,11.002,4.492,16.338C14.071,118.098,14.353,119.062,13.803,120.014z"/>
			<path d="M151.653,79.17c-9.422,3.846-20.129,7.285-33.491,6.535c-2.652,2.441-9.285,1.758-12.865,0.611
				c2.781,2.762,6.379,5.014,7.555,9.395c0.188,0.699-0.047,1.574,0.205,2.246c0.299,0.801,1.395,1.818,2.246,2.859
				c5.125,6.268,10.731,13.598,13.887,21.443c-5.598-5.1-11.021-10.408-16.541-15.93c-1.793-1.793-3.403-4.105-5.311-5.518
				c-0.916-0.678-2.219-1.049-3.269-1.633c-2.897-1.613-5.78-3.588-8.985-5.311c-1.961,6.303,6.034,8.012,9.19,10.621
				c-3.889-0.947-8.026-3.41-13.684-3.27c0.037,3.844,2.262,5.498,4.289,7.354c-2.32-0.541-4.689-2.799-8.578-2.451
				c1.059,4.729,3.906,7.666,6.943,10.416c-2.091-0.438-3.859-1.971-5.923-3.064c-1.991-1.057-4.241-2.029-6.739-2.451
				c-0.416,0.062-0.4,0.557-0.816,0.613c0.59,4.789,3.234,7.523,5.312,10.824c-3.384-1.785-6.408-9.045-12.867-6.74
				c0.912,3.105,1.521,6.516,3.268,8.783c-2.319-1.561-4.885-4.646-7.76-6.332c0.918,3.746,1.205,11.115-3.676,11.438
				c-0.646-3.51-1.634-6.674-2.654-9.803c-2.446,1.98-1.059,7.791-1.43,11.844c-1.402-3.904-2.474-8.145-5.925-10.006
				c-1.745,1.334-2.354,4.605-2.043,7.355c-1.077-0.832-1.018-2.539-1.633-3.678c-0.772-1.436-1.928-2.225-3.676-2.857
				c-0.623,1.16-0.797,2.793-1.021,4.492c-0.212,1.6-0.037,3.539-1.021,4.492c-0.526-3.967-1.577-7.406-4.899-8.576
				c-0.963,1.283-0.691,3.801-2.043,4.693c-0.728-2.945-1.996-5.354-5.105-5.922c0.385,2.016,1.84,4.312,2.859,6.738
				c0.953,2.271,2.549,5.166,0.815,7.557c-2.399,0.025-3.928-0.873-5.717-0.404c-2.832,0.732-3.828,3.902-5.104,6.33
				c-0.318-3.521,1.217-6.951,3.676-8.373c2.188-0.23,4.861,0.949,5.717-0.816c-1.289-4.215-3.611-8.658-5.717-13.479
				c-2.031-4.646-4.547-9.01-4.494-14.5c0.016-1.516,0.354-4.48,1.43-5.312c2.736-2.107,5.582,1.562,7.762,2.451
				c0.685-1.234,0.498-2.822,0.408-4.084c-0.658-9.172-4.145-19.75-6.332-29c-1.356-5.743-3.727-14.865,2.859-16.134
				c0.521-8.756-5.988-17.531-6.738-26.143c-0.361-4.135,0.393-8.304,5.105-7.556c-0.346-6.059-3.193-11.374-3.473-18.176
				c2.526,8.363,7.812,13.971,7.762,24.915c-1.877-0.307-6.713-4.784-7.557-0.612c-0.521,2.562,0.75,6.259,1.633,8.985
				c2.396,7.399,7.68,15.524,8.373,23.484c0.114,1.312,0.051,3.894-0.203,5.105c-1.515,0.033-2.57-2.362-4.086-2.043
				c-1.438,0.304-1.336,3.173-1.226,5.719c0.463,10.539,4.892,23.242,5.312,33.697c0.11,2.805-0.351,5.619-0.818,7.145
				c-2.262-0.596-3.035-2.682-4.9-3.676c-3.479,4.852,0.076,12.789,1.838,16.746c9.568,1.445,21.385,1.029,29.203-1.633
				c-0.395-1.943-1.445-3.646-2.246-5.311c-2.373-4.934-4.188-10.76-4.697-17.768c-0.581-7.99,2.421-13.01,5.312-17.975
				c0.785-1.35,2.066-2.785,2.246-3.881c0.246-1.504-0.567-3.904-0.408-6.125c0.189-2.662,0.89-4.443,1.839-6.332
				c-1.056-2.258-2.058-5.083-1.839-8.373c0.066-1.008,0.513-2.015,0.613-3.063c0.283-2.929-0.582-6.153,0.61-8.577
				c2.539,0.729,3.654,2.882,5.515,4.289c2.851-0.194,4.722,0.591,6.535,1.43c2.371-2.19,3.793-5.33,7.557-6.126
				c1.113-1.61,2.086-3.361,4.086-4.086C75.967,24.9,57.139,19.273,34.838,20.966c-1.379-1.396-1.272-4.309-1.633-6.943
				c-0.347-2.536-0.714-5.045-1.226-7.147c2.037,3.34,1.871,8.885,3.269,12.866c4.174,0.654,4.653-4.068,4.899-8.373
				c0.076-1.354-0.061-2.641,0-3.677c0.955,4.219,1.252,9.095,3.881,11.642c3.523-3.04,3.531-9.791,4.492-15.317
				c0.271,5.531-0.606,13.026,3.062,15.727c5.504-0.079,6.377-4.788,6.945-9.804c0.463,3.894,0.516,8.197,2.041,11.028
				c3.938-3.348,5.459-9.109,7.762-14.092c-0.209,4.348-3.035,11.295-0.818,16.134c3.764-1.139,4.965-4.839,6.943-7.761
				c-0.135,2.634-2.186,6.912-1.02,10.211c4.774-2.507,7.554-8.101,11.231-11.027c-1.916,4.372-5.474,8.968-4.289,15.113
				c4.354,1.077,5.768-2.531,7.76-4.493c-1.105,2.194-5.014,8.773-0.611,10.823c5.935-1.951,11.832-4.269,17.154-6.943
				c5.334-2.682,10.51-5.549,14.092-10.007c-0.324,1.675-1.447,3.127-2.451,4.493c-2.909,3.956-6.883,7.731-11.026,10.619
				c0.149,0.597,1.102,0.396,1.02,1.226c-0.99,3.434-3.133,5.717-5.104,8.169c4.619,0.635,8.926-0.716,13.069-1.226
				c-6.604,2.246-12.293,5.404-16.338,10.211c3.015,2.208,8.229,0.118,11.438-0.612c0.053,0.772-1.558,0.998-2.451,1.43
				c-2.5,1.205-5.658,2.713-7.148,5.105c0.857,1.045,2.228,1.302,3.677,1.431c5.344,0.478,12.246-1.352,17.563-1.431
				c-7.037,1.949-15.328,2.644-20.014,6.943c1.078,3.415,6.231,2.752,10.619,2.858c-2.812,1.317-6.48,2.076-9.189,3.673
				c-0.92,0.543-1.959,0.746-1.838,2.248c12.947,5.521,33.633,7.428,51.055,4.697C151.653,78.896,151.653,79.033,151.653,79.17z
				 M91.817,78.965c8.099,2.416,18.07,5.734,28.592,5.719c7-0.01,13.679-1.809,19.812-3.268c-18.43,1.613-35.398-4.193-48.605-9.805
				c-6.983-2.966-13.17-6.054-15.315-13.068c-0.43,2.247-0.01,4.374,0.408,6.331c-2.699-3.037-0.236-6.759-0.408-10.62
				c-0.178-3.96-2.578-7.042-6.127-7.353c-1.881-0.163-4.56,0.483-6.127,2.246c-3.647,4.1-1.129,11.864,1.633,14.705
				c3.418,3.517,9.593,4.823,12.051,9.599c0.818,1.59,1.183,4.639,2.041,5.719c1.008,1.264,4.244,2.35,6.127,3.471
				c14.303,8.521,25.853,20.883,36.76,31.043C114.42,100.152,102.346,89.432,91.817,78.965z M95.084,81.211
				c5.649,3.951,10.764,9.836,15.727,14.297c0.01,0.01,0.529,1.197,0.816,0.408c-1.56-5.574-6.793-8.512-10.211-11.438
				c3.772,0.236,11.157,3.191,14.295,1.021C108.1,84.943,101.094,82.691,95.084,81.211z M95.696,36.689
				c-0.084,0.093-1.022,0.729-0.407,1.021c7.803-3.293,15.385-7.896,19.811-13.887C109.047,28.166,100.553,31.385,95.696,36.689z
				 M79.565,80.189c0.228,1.676,0.619,3.582,0.203,5.311c10,3.141,18.342,9.025,25.938,13.887
				C97.825,92.152,89.527,85.34,79.565,80.189z M104.069,35.67c-4.825,2.118-8.393,5.495-13.479,7.353
				c-1.369,1.967-3.008,3.664-3.881,6.126c7.662-2.819,15.348-5.618,17.973-13.479C104.479,35.67,104.276,35.67,104.069,35.67z
				 M99.986,45.063c-2.926,0.589-5.793,2.367-8.373,3.88c-1.211,0.711-2.496,1.554-3.676,2.246c-1.277,0.75-3.104,1.229-3.268,2.859
				c5.565-0.368,8.891-3.623,12.252-5.922c1.182-0.809,2.789-1.178,3.678-2.451c0-0.136,0-0.271,0-0.408
				C100.338,45.258,100.317,45.007,99.986,45.063z M99.986,48.333c-4.008,2.286-8.039,4.822-12.254,6.738
				c-1.44,0.655-3.158,1.01-4.289,2.246c2.617-0.207,4.883,0.502,6.943-0.203c0.834-0.285,1.543-1.334,2.451-2.043
				c2.596-2.026,6.666-4.485,7.762-6.942C100.36,48.161,100.02,48.093,99.986,48.333z M96.719,53.438
				c-1.092,2.099-3.451,3.14-4.697,5.311c-0.699,1.219-0.945,2.758-1.635,4.085c-0.678,1.309-1.562,2.395-2.246,3.676
				c3.76,2.368,6.508,5.748,11.232,7.146C99.744,66.272,99.069,58.721,96.719,53.438z M72.619,111.027
				c-0.861,0.047-1.076-1.098-1.634-1.021c0.539,1.23,0.539,3.002,1.021,4.289c9.893-4.471,17.36-11.365,21.852-21.238
				c-4.617-2.637-10.209-5.262-17.153-4.9c0.141,2.434,1.979,6.979-0.408,7.354c-1.224,0.189-1.547-1.406-2.248-1.43
				c0.435,1.406,3.59,9.52,0.817,10.006c-1.276,0.225-1.526-1.627-2.45-2.246C72.775,103.535,75.817,110.855,72.619,111.027z
				 M85.28,63.647c2.232,0.627,4.339-1.188,4.289-3.879c-1.934-0.586-4.85-0.188-6.942-0.613
				C82.723,60.264,84.102,63.317,85.28,63.647z M76.092,74.881c-0.334,1.639-1.106,2.842-1.838,4.084
				c1.16,2.311,2.088,4.854,4.492,5.922C79.125,81.082,77.277,77.797,76.092,74.881z M73.234,80.6
				c-0.191,1.785-1.818,3.057-1.838,4.9c-0.017,1.43,1.098,3.512,1.838,4.9c0.838,1.574,1.834,3.35,3.268,3.678
				C76.389,89.412,74.793,84.494,73.234,80.6z M73.234,94.486c-0.724-2.383-1.488-4.85-3.062-6.332
				c-0.273,1.676-0.895,3.76-0.613,5.105c0.695,3.328,2.287,7.846,4.9,8.986C74.916,99.547,73.937,96.801,73.234,94.486z
				 M68.127,95.1c-1.662,1.992-0.463,4.006,0.407,6.738c1.027,3.223,1.716,6.58,4.085,7.557C73.1,103.465,70.5,98.855,68.127,95.1z
				 M69.557,107.76c-0.893-3.104-2.364-6.098-3.676-8.373c-0.978,4.113-0.308,8.422,0.815,12.254
				c0.732,2.502,1.729,5.199,3.474,6.332C71.355,114.68,70.441,110.834,69.557,107.76z M65.676,113.273
				c-1.162-3.539-2.047-7.115-4.084-8.984c-0.938,9.25,2.217,16.158,3.474,23.895C68.967,125.375,67.213,117.949,65.676,113.273z
				 M65.881,64.875c-0.844-0.521-1.336-1.39-2.043-2.042c-1.313,2.281-2.324,6.141-1.431,9.392
				C63.698,69.91,64.959,67.561,65.881,64.875z M63.023,42.613c-0.291,1.414-0.447,4.187,0.202,5.31
				c0.365-1.201,1.816-1.316,2.451-2.246C64.486,44.962,64.412,43.128,63.023,42.613z"/>
		</g>
	</g>
	<g id="LP2ggj.tif_1_">
		<g>
			<path d="M250.303,59.563c-1.75-0.563-1.146-3.481-1.634-5.311c-0.397,0.419-0.64,0.997-1.431,1.021
				c-0.797,0.048-1.062-0.438-1.635-0.611c-0.562-1.445-0.035-3.207,0.815-3.882C251.417,50.007,249.297,56.351,250.303,59.563z"/>
			<path d="M206.191,93.67c-1.557-0.369-2.367-2.062-3.883-2.656c-2.695-1.057-5.65-0.494-6.127,2.451
				c-0.486,3.035,0.734,6.896,1.637,10.008c1.74,6.031,3.928,11.674,5.922,17.359c1.055,3.008,2.295,6.002,2.043,8.984
				c-2.127,0.91-4.029-0.428-5.924,0c-3.02,0.684-4.031,3.641-5.311,6.33c-0.43-3.629,1.201-6.965,3.676-8.373
				c2.059-0.238,4.283,0.789,5.516-0.406c0.103-1.523-0.617-3.041-1.227-4.494c-1.637-3.908-3.137-7.705-4.9-11.641
				c-2.354-5.246-5.024-11.146-5.516-16.746c-0.297-3.4,0.033-6.781,2.041-8.17c2.039-1.406,5.795-0.625,7.965-2.246
				c-0.309-2.93-1.742-6.252-3.062-9.803c-2.298-6.186-4.918-13.01-7.147-19.4c-1.15-3.297-2.896-7.299-2.859-10.213
				c0.068-5.481,5.923-6.928,9.396-3.472c-1.646-8.332-6.42-16.06-9.188-24.915c-0.752-2.405-2.312-7.392,0-8.781
				c1.677-1.007,4.434,0.253,6.535-0.205c-0.203-2.26-2.213-4.446-2.653-7.146c1.028,1.282,2.103,2.851,3.062,4.493
				c0.822,1.403,2.283,3.34,1.227,5.31c-1.951,0.8-3.51-1.333-5.514-0.816c-1.402,0.361-1.588,2.261-1.432,4.492
				c0.414,5.851,3.4,11.569,5.924,16.95c2.615,5.582,5.252,10.897,5.922,16.952c-2.5,0.15-3.514-3.309-6.533-2.86
				c-1.893,0.281-2.453,2.958-2.246,5.924C194.559,65.389,207.357,76.684,206.191,93.67z"/>
			<path d="M190.872,120.014c-2.39-0.113-2.837-2.922-5.104-2.654c-2.938,0.35-2.166,6.395-2.041,10.01
				c-1.17-2.248-3.383-9.877-0.613-12.053c1.107-0.865,3.104-0.682,5.105-0.404c-0.871-10.666-8.436-21.686-9.189-32.68
				c-0.184-2.652,0.479-5.613,2.246-6.33c1.303-0.525,3.433,0.273,4.492-0.814c-0.957-5.092-2.937-10.74-4.697-16.951
				c-0.76-2.681-1.549-5.646-2.246-8.577c-0.92-3.865-2.812-9.66,0-12.05c1.472-1.249,4.234-0.679,5.72-2.246
				c0.412-6.812-2.242-12.139-2.859-18.585c2.142,7.871,5.566,15.534,6.128,24.303c-3.337,1.062-7.429-3.422-8.168,1.636
				c-0.527,3.584,1.196,7.009,2.245,10.413c2.009,6.531,4.093,12.947,5.718,19.605c0.856,3.506,1.866,7.346,0.612,10.824
				c-1.928-0.318-2.174-2.32-4.084-2.654c-3.248,2.27-1.435,8.16-0.205,12.254c0.787,2.617,1.81,5.203,2.656,7.76
				c1.778,5.377,4.125,11.002,4.492,16.338C191.141,118.098,191.422,119.062,190.872,120.014z"/>
			<path d="M328.723,79.17c-9.422,3.846-20.129,7.285-33.49,6.535c-2.652,2.441-9.285,1.758-12.865,0.611
				c2.781,2.762,6.379,5.014,7.555,9.395c0.188,0.699-0.047,1.574,0.205,2.246c0.299,0.801,1.395,1.818,2.246,2.859
				c5.125,6.268,10.73,13.598,13.887,21.443c-5.598-5.1-11.021-10.408-16.541-15.93c-1.793-1.793-3.402-4.105-5.311-5.518
				c-0.916-0.678-2.219-1.049-3.27-1.633c-2.896-1.613-5.779-3.588-8.984-5.311c-1.961,6.303,6.033,8.012,9.189,10.621
				c-3.889-0.947-8.025-3.41-13.684-3.27c0.037,3.844,2.262,5.498,4.289,7.354c-2.32-0.541-4.689-2.799-8.578-2.451
				c1.059,4.729,3.906,7.666,6.943,10.416c-2.092-0.438-3.859-1.971-5.924-3.064c-1.99-1.057-4.24-2.029-6.738-2.451
				c-0.416,0.062-0.4,0.557-0.816,0.613c0.59,4.789,3.234,7.523,5.312,10.824c-3.385-1.785-6.408-9.045-12.867-6.74
				c0.912,3.105,1.521,6.516,3.268,8.783c-2.318-1.561-4.885-4.646-7.76-6.332c0.918,3.746,1.205,11.115-3.676,11.438
				c-0.646-3.51-1.635-6.674-2.654-9.803c-2.446,1.98-1.059,7.791-1.43,11.844c-1.402-3.904-2.475-8.145-5.926-10.006
				c-1.744,1.334-2.354,4.605-2.043,7.355c-1.076-0.832-1.018-2.539-1.633-3.678c-0.771-1.436-1.928-2.225-3.676-2.857
				c-0.623,1.16-0.797,2.793-1.021,4.492c-0.212,1.6-0.037,3.539-1.021,4.492c-0.526-3.967-1.577-7.406-4.899-8.576
				c-0.963,1.283-0.691,3.801-2.043,4.693c-0.728-2.945-1.996-5.354-5.104-5.922c0.385,2.016,1.84,4.312,2.858,6.738
				c0.953,2.271,2.549,5.166,0.815,7.557c-2.399,0.025-3.929-0.873-5.718-0.404c-2.831,0.732-3.827,3.902-5.104,6.33
				c-0.318-3.521,1.217-6.951,3.676-8.373c2.188-0.23,4.861,0.949,5.717-0.816c-1.289-4.215-3.61-8.658-5.717-13.479
				c-2.031-4.646-4.547-9.01-4.494-14.5c0.017-1.516,0.354-4.48,1.431-5.312c2.735-2.107,5.582,1.562,7.762,2.451
				c0.685-1.234,0.498-2.822,0.408-4.084c-0.658-9.172-4.146-19.75-6.332-29c-1.356-5.743-3.728-14.865,2.858-16.134
				c0.521-8.756-5.987-17.531-6.737-26.143c-0.361-4.135,0.394-8.304,5.104-7.556c-0.346-6.059-3.192-11.374-3.473-18.176
				c2.525,8.363,7.812,13.971,7.762,24.915c-1.877-0.307-6.713-4.784-7.557-0.612c-0.521,2.562,0.75,6.259,1.633,8.985
				c2.396,7.399,7.68,15.524,8.373,23.484c0.114,1.312,0.051,3.894-0.203,5.105c-1.515,0.033-2.57-2.362-4.086-2.043
				c-1.438,0.304-1.336,3.173-1.227,5.719c0.464,10.539,4.893,23.242,5.312,33.697c0.11,2.805-0.351,5.619-0.818,7.145
				c-2.262-0.596-3.034-2.682-4.899-3.676c-3.479,4.852,0.076,12.789,1.838,16.746c9.567,1.445,21.386,1.029,29.203-1.633
				c-0.396-1.943-1.444-3.646-2.246-5.311c-2.373-4.934-4.188-10.76-4.696-17.768c-0.582-7.99,2.42-13.01,5.312-17.975
				c0.784-1.35,2.065-2.785,2.245-3.881c0.246-1.504-0.566-3.904-0.407-6.125c0.188-2.662,0.89-4.443,1.839-6.332
				c-1.057-2.258-2.059-5.083-1.839-8.373c0.065-1.008,0.513-2.015,0.612-3.063c0.283-2.929-0.582-6.153,0.611-8.577
				c2.538,0.729,3.653,2.882,5.514,4.289c2.852-0.194,4.723,0.591,6.535,1.43c2.371-2.19,3.793-5.33,7.558-6.126
				c1.112-1.61,2.086-3.361,4.086-4.086c-10.136-11.784-28.963-17.411-51.265-15.719c-1.379-1.396-1.271-4.309-1.633-6.943
				c-0.347-2.536-0.714-5.045-1.226-7.147c2.037,3.34,1.871,8.885,3.269,12.866c4.174,0.654,4.653-4.068,4.899-8.373
				c0.076-1.354-0.062-2.641,0-3.677c0.955,4.219,1.252,9.095,3.881,11.642c3.522-3.04,3.531-9.791,4.492-15.317
				c0.271,5.531-0.606,13.026,3.062,15.727c5.504-0.079,6.377-4.788,6.945-9.804c0.463,3.894,0.516,8.197,2.041,11.028
				c3.938-3.348,5.459-9.109,7.762-14.092c-0.209,4.348-3.035,11.295-0.817,16.134c3.764-1.139,4.965-4.839,6.942-7.761
				c-0.135,2.634-2.186,6.912-1.02,10.211c4.773-2.507,7.554-8.101,11.23-11.027c-1.916,4.372-5.474,8.968-4.289,15.113
				c4.354,1.077,5.769-2.531,7.761-4.493c-1.105,2.194-5.015,8.773-0.611,10.823c5.935-1.951,11.832-4.269,17.154-6.943
				c5.334-2.682,10.51-5.549,14.092-10.007c-0.324,1.675-1.446,3.127-2.451,4.493c-2.909,3.956-6.883,7.731-11.026,10.619
				c0.149,0.597,1.103,0.396,1.021,1.226c-0.989,3.434-3.133,5.717-5.104,8.169c4.619,0.635,8.927-0.716,13.069-1.226
				c-6.604,2.246-12.293,5.404-16.338,10.211c3.015,2.208,8.229,0.118,11.438-0.612c0.053,0.772-1.559,0.998-2.451,1.43
				c-2.5,1.205-5.658,2.713-7.148,5.105c0.857,1.045,2.229,1.301,3.678,1.43c5.344,0.479,12.246-1.351,17.562-1.43
				c-7.037,1.949-15.328,2.645-20.014,6.943c1.078,3.415,6.23,2.752,10.619,2.857c-2.812,1.318-6.48,2.077-9.189,3.675
				c-0.92,0.543-1.959,0.746-1.838,2.248c12.947,5.52,33.633,7.426,51.055,4.697C328.723,78.896,328.723,79.033,328.723,79.17z
				 M268.886,78.965c8.099,2.416,18.07,5.734,28.593,5.719c6.999-0.01,13.679-1.809,19.812-3.268
				c-18.431,1.613-35.398-4.193-48.604-9.805c-6.984-2.966-13.171-6.054-15.316-13.068c-0.43,2.247-0.01,4.374,0.408,6.331
				c-2.699-3.037-0.235-6.759-0.408-10.62c-0.178-3.96-2.577-7.042-6.127-7.353c-1.881-0.163-4.56,0.483-6.127,2.246
				c-3.646,4.1-1.129,11.864,1.634,14.705c3.418,3.517,9.593,4.823,12.051,9.599c0.817,1.59,1.183,4.639,2.041,5.719
				c1.008,1.264,4.244,2.35,6.127,3.471c14.304,8.521,25.853,20.883,36.761,31.043C291.488,100.152,279.415,89.432,268.886,78.965z
				 M272.152,81.211c5.649,3.951,10.765,9.836,15.728,14.297c0.01,0.01,0.528,1.197,0.815,0.408
				c-1.56-5.574-6.793-8.512-10.211-11.438c3.772,0.236,11.157,3.191,14.295,1.021C285.169,84.943,278.163,82.691,272.152,81.211z
				 M272.766,36.689c-0.084,0.093-1.021,0.729-0.406,1.021c7.803-3.293,15.385-7.896,19.811-13.887
				C286.115,28.166,277.622,31.385,272.766,36.689z M256.634,80.189c0.228,1.676,0.619,3.582,0.203,5.311
				c10,3.141,18.342,9.025,25.938,13.887C274.895,92.152,266.596,85.34,256.634,80.189z M281.139,35.67
				c-4.824,2.118-8.393,5.495-13.479,7.353c-1.369,1.967-3.008,3.664-3.881,6.126c7.662-2.819,15.348-5.618,17.973-13.479
				C281.548,35.67,281.345,35.67,281.139,35.67z M277.055,45.063c-2.926,0.589-5.793,2.367-8.373,3.88
				c-1.211,0.711-2.496,1.554-3.676,2.246c-1.277,0.75-3.104,1.229-3.268,2.859c5.564-0.368,8.891-3.623,12.252-5.922
				c1.182-0.809,2.789-1.178,3.678-2.451c0-0.136,0-0.271,0-0.408C277.406,45.258,277.386,45.007,277.055,45.063z M277.055,48.333
				c-4.008,2.286-8.039,4.822-12.254,6.738c-1.439,0.655-3.158,1.01-4.289,2.246c2.617-0.207,4.883,0.502,6.943-0.203
				c0.834-0.285,1.543-1.334,2.451-2.043c2.596-2.026,6.666-4.485,7.762-6.942C277.429,48.161,277.089,48.093,277.055,48.333z
				 M273.788,53.438c-1.093,2.099-3.451,3.14-4.697,5.311c-0.699,1.219-0.944,2.758-1.635,4.085
				c-0.679,1.309-1.562,2.395-2.246,3.676c3.76,2.368,6.508,5.748,11.231,7.146C276.814,66.272,276.139,58.721,273.788,53.438z
				 M249.689,111.027c-0.861,0.047-1.076-1.098-1.635-1.021c0.539,1.23,0.539,3.002,1.021,4.289
				c9.893-4.471,17.359-11.365,21.852-21.238c-4.617-2.637-10.209-5.262-17.152-4.9c0.141,2.434,1.979,6.979-0.408,7.354
				c-1.225,0.189-1.547-1.406-2.248-1.43c0.435,1.406,3.59,9.52,0.816,10.006c-1.275,0.225-1.525-1.627-2.449-2.246
				C249.844,103.535,252.886,110.855,249.689,111.027z M262.35,63.647c2.232,0.627,4.34-1.188,4.289-3.879
				c-1.934-0.586-4.85-0.188-6.941-0.613C259.792,60.264,261.171,63.317,262.35,63.647z M253.16,74.881
				c-0.334,1.639-1.105,2.842-1.838,4.084c1.16,2.311,2.088,4.854,4.492,5.922C256.193,81.082,254.346,77.797,253.16,74.881z
				 M250.303,80.6c-0.191,1.785-1.818,3.057-1.838,4.9c-0.018,1.43,1.098,3.512,1.838,4.9c0.838,1.574,1.834,3.35,3.268,3.678
				C253.458,89.412,251.861,84.494,250.303,80.6z M250.303,94.486c-0.724-2.383-1.488-4.85-3.062-6.332
				c-0.272,1.676-0.895,3.76-0.612,5.105c0.694,3.328,2.287,7.846,4.899,8.986C251.986,99.547,251.006,96.801,250.303,94.486z
				 M245.195,95.1c-1.662,1.992-0.463,4.006,0.408,6.738c1.026,3.223,1.715,6.58,4.084,7.557
				C250.169,103.465,247.568,98.855,245.195,95.1z M246.626,107.76c-0.894-3.104-2.364-6.098-3.677-8.373
				c-0.978,4.113-0.308,8.422,0.815,12.254c0.732,2.502,1.729,5.199,3.474,6.332C248.424,114.68,247.51,110.834,246.626,107.76z
				 M242.744,113.273c-1.161-3.539-2.047-7.115-4.084-8.984c-0.938,9.25,2.218,16.158,3.475,23.895
				C246.035,125.375,244.281,117.949,242.744,113.273z M242.949,64.875c-0.844-0.521-1.336-1.39-2.043-2.042
				c-1.312,2.281-2.323,6.141-1.431,9.392C240.768,69.91,242.027,67.561,242.949,64.875z M240.092,42.613
				c-0.291,1.414-0.447,4.187,0.202,5.31c0.364-1.201,1.815-1.316,2.45-2.246C241.555,44.962,241.482,43.128,240.092,42.613z"/>
		</g>
	</g>
</g>
</svg>
