<?xml version="1.0" encoding="utf-8"?>
<!-- Generator: Adobe Illustrator 15.0.0, SVG Export Plug-In . SVG Version: 6.00 Build 0)  -->
<!DOCTYPE svg PUBLIC "-//W3C//DTD SVG 1.1//EN" "http://www.w3.org/Graphics/SVG/1.1/DTD/svg11.dtd">
<svg version="1.1" id="Layer_1" xmlns="http://www.w3.org/2000/svg" xmlns:xlink="http://www.w3.org/1999/xlink" x="0px" y="0px"
	 width="346px" height="142px" viewBox="0 0 346 142" enable-background="new 0 0 346 142" xml:space="preserve">
<g>
	<g id="NJ1B0i.tif">
		<g>
			<path d="M146.422,82.185c0.059-0.184,0.187-0.297,0.436-0.29c0.516-0.688,1.226-1.365,1.888-2.032
				c0.625-0.629,1.278-1.693,2.324-1.452c0.051,2.662-0.516,5.44-0.291,8.132c0.342,4.104,3.454,7.164,2.613,12.198
				c-0.372,0.856-1.046,1.379-1.307,2.323c-0.348,1.25,0.081,2.65-0.146,4.066c-0.137,0.849-0.837,2.461-1.451,3.34
				c-0.741,1.059-1.624,1.666-2.904,1.888c-0.229-1.923,0.204-4.194-1.308-5.373c-0.011,1.841-0.553,4.563,0.146,6.244
				c0.511,1.23,2.456,1.762,3.34,2.903c0.756,0.979,1.486,3.506,0,3.922c-1.383,0.385-3.325-1.924-3.922-2.904
				c-1.771-2.916-1.394-7.686-1.888-11.473c-1.127,1.52,0.514,4.938-1.019,5.953c-1.021-0.923-1.903-2.324-2.178-3.92
				c-0.138-0.794-0.04-1.654-0.146-2.469c-0.307-2.361-0.817-4.238-1.453-6.391c-0.737-2.5-1.51-5.15-3.193-7.26
				c-0.272-0.342-0.784-0.647-1.162-1.018c-1.154-1.126-2.354-2.093-3.774-2.759c-2.67-1.253-7.417-2.224-9.729-1.599
				c-2.822,0.763-4.317,3.729-2.761,7.115c1.834,1.229,3.647,2.283,6.392,2.323c1.392,0.021,2.576-0.413,3.774-0.146
				c0.285,0.062,1.429,0.412,1.742,0.58c0.713,0.381,1.316,1.063,1.89,1.742c3.344,3.983,5.53,9.481,5.518,16.41
				c-0.45,0.904-1.482,1.227-2.032,2.033c1.259,3.643,2.571,7.156,4.355,10.02c1.274,2.047,2.825,4.512,4.502,5.81
				c1.546,1.196,3.88,1.579,5.229,3.05c1.039,1.132,1.461,3.143,1.451,5.083c-0.098,0.276-0.559,0.426-0.58,0.581
				c-0.003,0.02,0.26,0.13,0.146,0.291c-1.503,2.111-4.63,2.054-6.971,1.017c-2.775-1.231-4.531-3.071-6.244-5.518
				c-3.104-4.437-5.706-10.892-7.262-16.119c-0.058-0.167,0.065,0.054,0-0.146c-0.242-0.728-0.851-2.996-1.452-3.194
				c-1.32-0.438-2.439,1.239-2.759,1.888c-0.688,1.398-0.715,3.521-0.728,5.374c-0.033,4.947,1.085,7.054,3.34,10.021
				c0.976,1.281,3.562,3.687,3.486,5.519c-0.037,0.86-0.999,2.384-2.324,2.613c-2.228,0.387-3.949-0.996-4.938-1.742
				c-2.269-1.713-4.233-4.072-5.082-6.972c-1.001-3.42-0.909-7.926,0-11.325c0.183-0.685,0.37-1.382,0.58-2.033
				c0.414-1.282,1.236-2.453,1.161-3.776c-1.865,0.215-2.84,1.324-4.211,2.033c-0.938,1.309-1.655,2.262-2.323,3.485
				c-0.651,1.196-1.454,2.604-1.452,4.501c0.003,2.752,1.901,5.546,3.051,7.695c0.95,1.783,2.559,6.795,0.29,7.842
				c-1.472,0.68-3.213-0.557-4.065-1.161c-2.737-1.943-4.597-6.013-4.938-10.165c-0.438-5.341,1.7-10.229,2.613-13.941
				c-3.896,2.04-6.043,5.824-7.115,10.602c-0.204,0.918-0.267,2.229-0.146,3.341c0.312,2.879,2.543,6.692,1.018,9.147
				c-1.672,2.69-6.054,0.746-7.114-0.437c-1.113-1.237-1.545-3.101-1.599-5.083c-0.125-4.708,1.918-6.523,3.774-9.875
				c1.394-2.514,2.461-4.836,2.614-7.406c-3.343,0.075-4.553,1.924-6.1,3.631c-2.724,3.002-5.635,6.512-4.938,12.489
				c0.319,2.757,1.856,5.925,0.29,7.696c-1.16,1.312-3.455,0.675-4.938-0.291c-2.069-1.35-3.206-3.665-3.34-6.535
				c-0.175-3.787,1.014-5.201,2.18-7.552c0.707-1.429,1.332-2.87,2.031-4.065c1.206-2.056,2.434-3.83,3.631-5.519
				c0.394-0.552,1.1-1.019,1.162-1.742c-3.598,0.959-6.228,3.479-8.714,5.954c-2.308,2.295-5.008,5.475-5.373,9.003
				c-0.383,3.705,0.513,8.603-1.741,11.037c-1.985,0.37-3.781-0.354-4.793-1.452c-0.357-0.391-1.172-1.781-1.308-2.324
				c-0.006-0.027-0.094-0.146-0.146-0.29c-0.959-2.769-0.692-4.456,0.146-6.825c0.347-0.979,0.623-2.05,1.019-2.904
				c1.665-3.612,4.354-6.356,6.823-8.857c0.65-0.658,1.441-1.234,2.033-1.888c0.576-0.636,1.293-1.373,1.452-2.179
				c-2.523,0.567-4.777,2.074-6.825,2.759c-0.269,0.091-0.78,0.03-1.017,0.146c-0.058,0.026,0.16,0.268,0.146,0.29
				c0.017-0.024-0.464,0.162-0.437,0.146c-3.491,2.122-5.962,4.47-8.133,7.696c-0.455,1.242-1.391,2.424-1.599,4.646
				c-0.292,3.143,0.386,7.938-1.451,9.003c-1.995,1.157-4.224-0.515-4.938-1.599c-1.146-1.735-1.316-4.691-1.308-7.114
				c0.011-3.008,0.896-4.738,2.032-6.825c0.601-1.104,1.062-2.33,1.742-3.195c1.082-1.375,2.591-2.638,3.92-3.92
				c1.541-1.486,3.199-3.033,4.793-4.066c0.269-0.174,0.06-0.223,0.146-0.291c1.916-1.483,4.065-2.792,5.954-4.064
				c0.744-0.503,1.967-1.014,2.032-2.033c-0.701-0.666-1.754-0.27-2.469-0.146c-0.951,0.165-2.028,0.341-2.76,0.581
				c-1.089,0.355-2.521,1.01-3.485,1.742c-1.882,1.43-2.887,4.031-4.501,5.519c-0.406,0.375-0.762,0.843-1.162,1.017
				c-2.504,1.094-3.854-1.315-4.065-3.049c-0.229-1.888,0.461-3.615,1.162-4.502c2.184-2.761,7.435-5.182,11.183-6.826
				c0.627-0.272,1.254-0.455,2.178-0.871c1.146-0.514,2.554-1.075,1.743-2.612c-4.244-0.892-6.024,3.94-9.585,3.63
				c-1.479-0.129-2.785-1.587-2.759-3.051c0.013-0.692,0.604-1.657,1.017-2.178c1.695-2.149,5.256-3.289,7.115-5.229
				c-3.594,0.98-6.709,2.756-9.147,4.792c-2.767,2.308-5.062,5.454-6.681,8.713c-0.495,0.998-0.906,2.707-2.178,2.759
				c-1.364,0.057-2.123-1.759-3.052-1.887c-1.324,3.055-2.715,6.071-4.064,9.146c-0.474,1.078-1.248,2.246-1.309,3.195
				c-0.083,1.333,0.608,2.967,1.162,4.065c0.568,1.132,1.608,2.396,2.322,3.05c0.606,0.555,1.489,0.887,2.18,1.452
				c0.636,0.521,1.61,1.435,1.889,2.032c0.487,1.062,0.181,3.197,0.29,4.502c0.057,0.666,0.437,1.888,0.291,2.76
				c-0.25,1.497-1.599,2.988-2.904,3.484c-0.742-0.953-0.455-2.934-0.581-4.502c-0.507-1.033-1.999-1.271-2.469-2.612
				c-0.381-1.087-0.008-2.487-0.29-3.632c-0.214-0.86-0.799-1.76-1.162-2.322c-0.411-0.639-0.981-1.504-1.742-1.598
				c0.402,2.744,0.29,6.002,0.437,9.002c1.799,1.175,1.962,4.68,0.437,6.244c-0.029,2.682-1.342,4.08-3.194,4.938
				c-0.767-1.118-0.277-3.062-0.29-4.647c-1.01-1.119-1.469-2.721-1.309-4.646c1.076-1.972,1.063-4.308,1.018-7.406
				c-0.019-1.205,0.129-2.514-0.29-3.34c-0.698,1.172-1.51,1.64-1.889,3.049c-0.629,2.343,0.662,5.078-1.16,6.245
				c-0.16,0.102-0.149,0.35-0.291,0.436c-0.544,0.336-1.759,0.621-2.76,1.019c-2.279,0.901-5.484,1.824-6.534-0.437
				c0.688-1.25,2.173-1.699,3.05-2.761c0.071-3.364,1.674-5.2,4.211-6.099c1.564-2.162,3.233-4.221,4.502-6.682
				c-0.493-1.975-1.373-3.562-1.888-5.518c-0.587-0.443-1.062-1.077-1.599-1.743c-0.449-0.56-1.186-1.312-1.452-2.032
				c-0.509-1.373-0.166-3.164-0.728-4.502c-0.327-0.787-1.104-0.918-1.017-1.889c1.312-1.195,3.533-0.781,4.646,0
				c0.668,0.469,1.707,1.803,1.888,2.614c0.137,0.61-0.048,1.356,0,2.032c0.176,2.429,1.062,4.717,1.889,6.244
				c1.215-2.078,1.706-4.101,2.613-6.535c0.518-1.385,1.271-3.523,1.743-5.229c0.189-0.689,0.506-1.361,0.437-1.888
				c-0.088-0.655-1.249-2.44-1.599-3.052c-0.646-1.127-1.633-2.156-1.598-3.193c0.057-1.614,2.252-2.475,3.774-3.34
				c3.666-2.086,6.826-3.764,10.021-5.954c1.723-1.183,3.788-2.089,3.921-4.647c-2.361-0.819-5.14-0.73-7.551-0.289
				c-2.447,0.447-5.271,1.68-7.843,3.194c-4.502,2.65-6.459,4.743-7.986,10.021c-0.366,1.263-0.968,4.68-2.033,4.938
				c-1.707,0.415-2.169-1.266-3.05-1.888c-0.373-2.048-0.854-4.386-0.58-6.681c0.237-1.994,1.324-3.604,1.451-4.938
				c-0.982,0.411-1.515,1.312-2.179,2.033c-0.604,0.651-1.388,1.325-1.889,2.469c-0.777,1.772-0.417,4.192-1.308,5.664
				c-0.864,1.427-2.938,1.474-4.066,0.581c-1.406-1.113-2.262-4.055-1.888-6.535c0.54-3.581,3.994-5.555,5.083-7.697
				c-2.335-0.016-4.114,0.629-5.229,1.598c-1.704,1.483-3.193,4.099-3.484,6.682c-0.729,1.018-2.486,1.395-3.341,0.436
				c-0.241-0.271-0.111-0.822-0.291-1.307c-0.075-0.207-0.103,0.021-0.146,0c-0.693-0.368-0.711-3.568-0.581-4.355
				c0.155-0.948,1.119-2.846,1.599-3.484c1.192-1.602,3.209-2.42,3.483-3.775c-1.568-0.222-2.57,0.913-3.774,1.598
				c-1.139,0.646-2.606,1.399-4.355,1.451c-2.313,0.068-5.672-1.429-6.825-2.758c-0.087-0.101-0.052-0.342-0.146-0.437
				c-0.354-0.354-0.883-0.528-1.16-0.871c-1.985-2.451-1.232-4.198,0.726-6.245c1.109-1.16,2.688-2.104,4.066-2.613
				c0.358-0.134,0.795-0.386,1.017-0.437c3.188-0.72,5.631,0.565,7.262,1.597c0.888,0.562,1.899,1.596,3.193,1.018
				c-0.719-1.635-2.587-2.375-3.63-3.774c-1.601-2.149-1.582-4.865-1.018-7.552c0.477-0.371,0.333-0.512,0.581-1.162
				c0.68-0.405,1.427-0.996,2.323-0.727c1.08,0.323,1.595,3.708,2.178,4.646c0.424,0.679,0.771,1.086,1.309,1.744
				c1.592,1.946,2.97,2.932,6.535,2.759c-1.591-2.021-4.262-3.768-5.229-6.681c-1.054-3.17,0.402-7.647,3.05-8.132
				c3.76-0.688,2.861,4.569,4.065,7.116c0.51,1.076,1.396,1.675,1.889,2.178c0.739,0.755,1.17,1.622,2.032,1.741
				c-0.825-1.947-1.671-5.747-1.307-8.856c0.217-1.869,1.155-3.557,2.178-4.066c2.459-1.229,2.754,1.95,3.195,3.631
				c0.466,1.778,0.834,3.353,1.597,4.792c1.562,2.951,3.465,4.344,6.391,6.099c2.978,1.786,5.771,3.151,9.729,3.631
				c1.85,0.224,4.533,0.353,6.1-0.871c-0.34-0.728-0.699-1.431-1.017-2.179c-1.218-0.979-2.688-1.767-4.212-2.759
				c-0.67-0.438-1.393-0.83-2.18-1.308c-0.659-0.399-1.301-1.021-2.031-1.452c-1.254-0.74-3.008-1.427-4.646-2.323
				c-1.587-0.868-3.419-1.931-3.631-3.34c-0.17-1.13,0.781-2.442,1.452-3.631c0.628-1.112,1.278-2.077,1.742-3.049
				c-1.484-4.663-2.988-9.308-4.938-13.505c-0.515,1.204-1.06,2.366-1.451,3.921c-0.388,1.521-0.062,3.17-0.438,4.646
				c-0.081,0.319-0.581,0.79-1.018,1.308c-1.183,1.402-3.728,2.972-5.519,1.017c-0.05-0.777,0.802-1.372,1.017-1.888
				c0.446-1.067,0.192-2.883,0.728-4.356c0.181-0.498,0.969-1.52,1.162-1.743c0.317-0.368,0.45-0.697,0.727-1.017
				c0.351-0.404,0.732-0.711,1.018-1.161c0.774-1.233,1.926-4.073,1.741-5.519c-0.168-1.331-1.287-2.418-2.031-3.485
				c-0.735-1.052-1.497-2.547-2.324-3.193c-0.746-0.586-1.693-0.701-2.323-1.308c-1.067-1.03-1.766-2.938-1.741-5.083
				c-1.225-0.713-2.681-1.191-3.051-2.759c1.968-2,5.174-0.683,6.972,0c0.842,0.318,1.83,0.575,2.322,0.871
				c0.186,0.109-0.02,0.416,0,0.437c0.072,0.072,0.255-0.177,0.438,0c1.589,1.544,0.427,3.562,0.87,5.953
				c0.238,1.281,1.277,2.524,2.18,3.341c0.089-3.158,0.45-5.712,0-8.133c-0.173-0.929-0.749-1.693-0.872-2.613
				c-0.104-0.779-0.02-1.799,0.146-2.47c0.209-0.852,1.01-1.514,1.161-2.468c0.184-1.147-0.82-3.177,0.437-4.065
				c1.354,0.033,2.783,2.457,2.903,3.193c0.003,0.017,0.169,0.148,0.146,0c0.098,0.615-0.078,1.312,0,1.743
				c0.773,0.86,1.349,2.38,1.018,3.921c-0.217,1.002-1.164,1.539-1.452,2.179c-0.075,2.213,0.039,4.759-0.146,6.824
				c-0.074,0.846-0.605,1.698-0.146,2.324c0.947-1.342,2.274-2.246,2.761-4.212c0.279-1.139-0.068-2.381,0.29-3.484
				c0.413-1.271,1.703-1.699,2.322-2.613c0.328-1.463-0.047-3.629,0.871-4.502c1.106,0.438,2.547,2.045,2.761,3.775
				c0.071,0.593-0.226,1.688-0.291,2.759c-0.068,1.12,0.086,2.303,0,3.05c-0.27,2.329-3.298,3.653-4.646,4.646
				c-1.166,1.674-2.604,3.829-3.05,5.954c-0.294,1.402,0.14,1.737,0.581,2.759c0.937,2.158,1.709,4.171,2.613,6.1
				c0.711,1.513,1.55,3.021,2.18,4.356c0.927-0.282,1.852-1.784,3.192-1.599c0.856,0.119,1.373,1.318,1.89,2.323
				c0.514,1.001,1.068,2.054,1.452,2.759c2.082,3.834,5.099,6.646,8.423,8.567c1.819,1.053,3.684,2.023,5.953,2.614
				c-1.765-1.947-5.13-3.126-6.972-5.083c-0.572-0.609-1.206-1.639-1.16-2.614c0.091-1.954,2.257-3.227,4.354-2.613
				c2.411,0.705,4.523,4.254,8.134,3.34c0-0.531,0-1.064,0-1.598c-3.315-1.563-8.514-3.583-11.765-5.81
				c-1.72-1.179-3.851-2.72-4.501-4.646c-0.956-2.831,0.7-6.404,3.194-5.954c2.514,0.453,3.094,2.988,4.502,4.792
				c0.811,1.037,1.852,1.892,2.903,2.469c1.746,0.958,3.362,1.553,5.52,1.889c0.604,0.095,1.646,0.382,2.322-0.146
				c-0.074-1.087-1.255-1.382-2.032-1.889c-4.845-3.148-9.372-6.869-13.215-10.892c-1.259-1.316-1.892-1.994-2.76-3.484
				c-1.229-2.109-2.544-4.454-2.76-7.261c-0.136-1.764-0.057-4.373,0.438-6.101c0.035-0.127,0.329-0.324,0.436-0.581
				c0.122-0.295,0.043-0.678,0.146-0.871c0.973-1.848,3.598-3.432,5.663-1.742c1.411,2.073,0.676,5.948,1.017,9.003
				c0.435,3.869,4.41,8.168,6.682,10.021c2.468,2.014,5.407,3.012,8.276,4.211c0.921,0.386,1.941,1.073,3.05,0.871
				c-3.649-4.312-9.109-8.624-11.326-14.667c-0.655-1.789-1.191-3.477-0.871-5.81c0.171-1.238,1.232-3.564,1.742-4.211
				c0.748-0.952,2.808-2.457,4.501-2.034c1.323,0.332,2.038,2.68,2.179,4.938c0.249,4.014,0.022,7.518,1.162,9.875
				c0.198,0.415,0.681,0.958,1.017,1.453c2.118,3.109,5.813,6.76,8.713,8.566c0.963,0.601,2.101,1.119,3.341,1.162
				c-0.258-0.197-0.259-0.452-0.437-0.727c-0.352-0.542-0.416-0.555-0.58-0.727c-0.104-0.105-0.208-0.335-0.291-0.437
				c-2.229-2.708-3.911-5.951-5.519-9.147c-0.615-1.225-1.419-2.462-1.743-3.63C82.2,8.694,83.719,4.68,86.587,2.743
				c1.105-0.18,2.683-1.301,4.211-0.582c0.644,0.304,1.218,1.7,1.308,2.614c0.188,1.918-0.815,3.857-1.017,5.664
				c-0.423,3.798,0.558,6.395,1.887,8.423c0.997,1.521,2.01,2.833,3.051,4.065c1.557,1.846,3.367,3.648,6.101,3.484
				c-0.062-2.299-1.049-4.298-2.033-6.244c-0.462-0.911-0.891-1.909-1.452-2.759c-1.347-2.037-2.685-3.391-2.904-6.681
				c-0.149-2.255,0.236-4.028,0.871-5.229c0.985-1.861,2.937-3.71,5.664-3.34c2.511,0.341,2.908,3.161,2.47,5.955
				c-0.362,2.307-1.56,4.262-1.452,6.535c0.122,2.593,1.021,4.463,1.889,6.243c1.396,2.867,2.797,4.482,5.663,5.81
				c-1.13-2.823-2.472-6.867-2.76-10.891c-0.271-3.781,0.49-6.84,1.599-9.149c0.771-1.613,1.662-2.565,2.759-3.484
				c1.095-0.917,2.483-1.827,4.356-1.599c1.462,0.996,1.364,3.024,1.161,4.502c-0.519,3.76-4.381,6.921-4.065,11.183
				c0.084,1.139,0.743,2.418,1.308,3.63c1.489,3.204,3.42,5.892,6.972,6.245c-1.222-3.93-3.47-8.35-2.76-13.94
				c0.076-0.605,0.391-1.444,0.581-2.178c0.803-3.076,2.429-5.452,4.211-7.116c0.896-0.834,2.426-2.02,3.632-2.324
				c2.584-0.653,4.632,0.576,4.646,2.614c0.007,0.966-0.709,1.805-1.308,2.613c-0.611,0.827-1.348,1.509-1.889,2.179
				c-1.996,2.479-3.774,5.513-3.774,9.729c0,1.651,0.151,4.463,0.727,5.81c0.314,0.738,1.571,2.66,2.904,2.178
				c0.49-0.177,0.539-0.899,0.871-1.888c0.474-1.409,0.754-1.835,1.017-2.759c1.146-4.022,2.797-7.76,4.502-10.747
				c1.396-2.439,2.494-4.497,4.501-6.534c1.453-1.475,4.371-3.895,7.264-3.775c0.924,0.038,2.646,0.667,3.34,1.452
				c1.145,1.299,0.604,4.25-0.146,5.664c-0.61,1.152-1.989,1.706-3.192,2.323c-0.926,0.474-2.08,0.874-2.761,1.451
				c-1.065,0.908-2.095,2.447-3.051,3.775c-0.438,0.608-0.907,1.35-1.307,2.033c-0.446,0.767-0.979,1.504-1.308,2.178
				c-0.979,2.004-1.486,4.062-2.322,5.954c-0.248,0.561-0.674,1.065-0.729,1.743c0.812,0.844,1.938,1.199,2.18,2.323
				c0.281,1.312-0.332,3.353-0.58,4.792c-0.696,4.045-1.99,7.167-3.922,9.729c-0.778,1.034-1.769,2.451-2.76,3.051
				c-1.94,1.172-4.27,0.312-6.681,0.581c-1.903,0.213-4.781,1.428-5.52,2.759c-1.682,3.038,0.517,5.302,2.18,6.535
				c5.323,0.6,10.223-0.874,12.925-3.051c2.696-2.171,4.078-4.63,5.229-8.132c0.816-2.495,1.655-5.233,1.889-8.132
				c0.05-0.627-0.104-1.264,0-1.889c0.11-0.673,0.574-1.412,0.871-2.032c0.288-0.603,0.495-1.603,1.307-1.743
				c1.821,0.658-0.46,4.42,1.162,5.664c-0.211-4.071,0.621-9.897,2.324-12.198c0.488-0.662,2.198-2.229,3.193-2.032
				c1.263,0.249,1.105,2.393,0.437,3.484c-0.698,1.141-3.041,1.722-3.63,3.775c-0.207,0.72-0.099,1.837-0.146,2.904
				c-0.043,0.933-0.621,2.194,0.29,2.759c0.979-1.294,0.946-3.352,1.019-5.229c2.397,0.454,4.016,2.842,4.354,5.519
				c0.179,1.396-0.18,2.73,0.146,3.921c0.242,0.892,1.116,1.568,1.307,2.47c0.171,0.811,0.134,2.229,0,3.34
				c-0.312,2.618-2.314,5.369-2.614,8.567c-0.157,1.706-0.102,3.445,0,4.938c0.072,1.06,0.781,2.415,0,3.05
				c-1.041,0.043-1.56-0.841-2.322-1.598c-0.446-0.443-1.643-2.053-2.179-2.033c-0.145,0.006-1.89,1.893-1.889,1.889
				c-0.067,0.115,0.199,0.242,0.146,0.437c-0.081,0.294-0.491,0.748-0.727,1.017c-1.438,1.653-2.544,0.25-3.631-0.871
				c-1.829,0.603-1.34,4.893-3.34,4.791c-1.214-0.06-0.86-1.522-2.033-1.888c-1.316,0.343-1.558,3.386-1.742,3.921
				c-0.997,0.383-1.969-0.428-3.194-0.291c-0.241,1.361-0.548,3.521,0.289,4.502c0.956-0.207,1.599-0.729,2.905-0.582
				c0.481,1.551,0.331,3.734,1.889,4.211c0.686-0.719,1.021-1.787,2.032-2.178c1.843,0.965,1.275,4.34,3.484,4.938
				c0.683-0.721,0.961-1.848,2.76-1.451C144.575,79.478,144.683,81.198,146.422,82.185z M148.743,94.673
				c-0.671-0.151-1.436-0.211-1.598-0.871c-0.072-0.604,0.426-0.641,0.29-1.308c-1.702,0.427-1.574,4.573,0,4.646
				C148.285,97.181,148.924,96.111,148.743,94.673z M148.743,47.188c0.215-1.424-0.39-2.031-1.161-2.469
				c-1.839,0.003-1.66,3.921-0.437,4.502c0.79-0.169-0.271-0.59,0-1.162C147.178,47.266,148.136,47.4,148.743,47.188z"/>
		</g>
	</g>
	<g id="NJ1B0i.tif_1_">
		<g>
			<path d="M338.422,82.185c0.059-0.184,0.187-0.297,0.436-0.29c0.517-0.688,1.227-1.365,1.889-2.032
				c0.625-0.629,1.277-1.693,2.323-1.452c0.052,2.662-0.516,5.44-0.291,8.132c0.343,4.104,3.454,7.164,2.613,12.198
				c-0.372,0.856-1.046,1.379-1.307,2.323c-0.348,1.25,0.082,2.65-0.146,4.066c-0.137,0.849-0.837,2.461-1.451,3.34
				c-0.74,1.059-1.624,1.666-2.903,1.888c-0.229-1.923,0.204-4.194-1.309-5.373c-0.011,1.841-0.553,4.563,0.146,6.244
				c0.511,1.23,2.456,1.762,3.34,2.903c0.756,0.979,1.487,3.506,0,3.922c-1.383,0.385-3.325-1.924-3.922-2.904
				c-1.771-2.916-1.394-7.686-1.887-11.473c-1.127,1.52,0.513,4.938-1.02,5.953c-1.02-0.923-1.903-2.324-2.178-3.92
				c-0.137-0.794-0.04-1.654-0.146-2.469c-0.307-2.361-0.817-4.238-1.452-6.391c-0.738-2.5-1.511-5.15-3.194-7.26
				c-0.272-0.342-0.784-0.647-1.162-1.018c-1.154-1.126-2.354-2.093-3.774-2.759c-2.67-1.253-7.417-2.224-9.729-1.599
				c-2.822,0.763-4.317,3.729-2.76,7.115c1.834,1.229,3.646,2.283,6.391,2.323c1.392,0.021,2.576-0.413,3.775-0.146
				c0.285,0.062,1.428,0.412,1.741,0.58c0.714,0.381,1.316,1.063,1.89,1.742c3.344,3.983,5.531,9.481,5.518,16.41
				c-0.45,0.904-1.481,1.227-2.032,2.033c1.26,3.643,2.571,7.156,4.355,10.02c1.275,2.047,2.825,4.512,4.502,5.81
				c1.546,1.196,3.88,1.579,5.229,3.05c1.039,1.132,1.461,3.143,1.45,5.083c-0.098,0.276-0.559,0.426-0.58,0.581
				c-0.003,0.02,0.261,0.13,0.146,0.291c-1.503,2.111-4.63,2.054-6.97,1.017c-2.776-1.231-4.532-3.071-6.245-5.518
				c-3.104-4.437-5.706-10.892-7.261-16.119c-0.059-0.167,0.064,0.054,0-0.146c-0.242-0.728-0.852-2.996-1.452-3.194
				c-1.321-0.438-2.44,1.239-2.759,1.888c-0.688,1.398-0.716,3.521-0.729,5.374c-0.033,4.947,1.085,7.054,3.34,10.021
				c0.977,1.281,3.562,3.687,3.486,5.519c-0.037,0.86-0.999,2.384-2.324,2.613c-2.227,0.387-3.949-0.996-4.938-1.742
				c-2.27-1.713-4.234-4.072-5.082-6.972c-1.001-3.42-0.909-7.926,0-11.325c0.182-0.685,0.369-1.382,0.579-2.033
				c0.414-1.282,1.236-2.453,1.161-3.776c-1.864,0.215-2.84,1.324-4.211,2.033c-0.938,1.309-1.654,2.262-2.322,3.485
				c-0.652,1.196-1.454,2.604-1.452,4.501c0.003,2.752,1.9,5.546,3.05,7.695c0.951,1.783,2.559,6.795,0.29,7.842
				c-1.471,0.68-3.212-0.557-4.065-1.161c-2.736-1.943-4.597-6.013-4.938-10.165c-0.438-5.341,1.7-10.229,2.613-13.941
				c-3.896,2.04-6.043,5.824-7.115,10.602c-0.205,0.918-0.268,2.229-0.146,3.341c0.312,2.879,2.543,6.692,1.018,9.147
				c-1.672,2.69-6.053,0.746-7.114-0.437c-1.113-1.237-1.545-3.101-1.599-5.083c-0.125-4.708,1.918-6.523,3.774-9.875
				c1.394-2.514,2.461-4.836,2.614-7.406c-3.342,0.075-4.553,1.924-6.1,3.631c-2.724,3.002-5.635,6.512-4.938,12.489
				c0.32,2.757,1.857,5.925,0.29,7.696c-1.16,1.312-3.455,0.675-4.938-0.291c-2.068-1.35-3.205-3.665-3.34-6.535
				c-0.175-3.787,1.014-5.201,2.18-7.552c0.707-1.429,1.332-2.87,2.031-4.065c1.207-2.056,2.435-3.83,3.631-5.519
				c0.394-0.552,1.1-1.019,1.162-1.742c-3.598,0.959-6.228,3.479-8.713,5.954c-2.309,2.295-5.009,5.475-5.373,9.003
				c-0.384,3.705,0.512,8.603-1.742,11.037c-1.985,0.37-3.78-0.354-4.793-1.452c-0.356-0.391-1.172-1.781-1.307-2.324
				c-0.006-0.027-0.094-0.146-0.145-0.29c-0.959-2.769-0.693-4.456,0.145-6.825c0.346-0.979,0.623-2.05,1.018-2.904
				c1.666-3.612,4.354-6.356,6.824-8.857c0.649-0.658,1.44-1.234,2.032-1.888c0.576-0.636,1.293-1.373,1.452-2.179
				c-2.523,0.567-4.777,2.074-6.824,2.759c-0.268,0.091-0.781,0.03-1.016,0.146c-0.059,0.026,0.16,0.268,0.145,0.29
				c0.016-0.024-0.465,0.162-0.436,0.146c-3.492,2.122-5.963,4.47-8.133,7.696c-0.455,1.242-1.391,2.424-1.601,4.646
				c-0.29,3.143,0.388,7.938-1.45,9.003c-1.994,1.157-4.224-0.515-4.938-1.599c-1.146-1.735-1.315-4.691-1.308-7.114
				c0.013-3.008,0.896-4.738,2.033-6.825c0.601-1.104,1.062-2.33,1.742-3.195c1.082-1.375,2.59-2.638,3.92-3.92
				c1.541-1.486,3.199-3.033,4.793-4.066c0.268-0.174,0.059-0.223,0.146-0.291c1.916-1.483,4.064-2.792,5.953-4.064
				c0.744-0.503,1.967-1.014,2.033-2.033c-0.701-0.666-1.754-0.27-2.47-0.146c-0.95,0.165-2.028,0.341-2.76,0.581
				c-1.088,0.355-2.521,1.01-3.485,1.742c-1.882,1.43-2.888,4.031-4.5,5.519c-0.406,0.375-0.763,0.843-1.162,1.017
				c-2.504,1.094-3.855-1.315-4.066-3.049c-0.229-1.888,0.461-3.615,1.162-4.502c2.184-2.761,7.434-5.182,11.182-6.826
				c0.627-0.272,1.254-0.455,2.178-0.871c1.148-0.514,2.555-1.075,1.744-2.612c-4.244-0.892-6.025,3.94-9.586,3.63
				c-1.479-0.129-2.785-1.587-2.758-3.051c0.012-0.692,0.605-1.657,1.016-2.178c1.695-2.149,5.256-3.289,7.115-5.229
				c-3.592,0.98-6.709,2.756-9.146,4.792c-2.768,2.308-5.063,5.454-6.682,8.713c-0.494,0.998-0.906,2.707-2.178,2.759
				c-1.363,0.057-2.123-1.759-3.051-1.887c-1.324,3.055-2.715,6.071-4.064,9.146c-0.473,1.078-1.248,2.246-1.309,3.195
				c-0.082,1.333,0.609,2.967,1.162,4.065c0.568,1.132,1.609,2.396,2.322,3.05c0.606,0.555,1.489,0.887,2.18,1.452
				c0.635,0.521,1.611,1.435,1.889,2.032c0.488,1.062,0.18,3.197,0.289,4.502c0.057,0.666,0.438,1.888,0.291,2.76
				c-0.25,1.497-1.598,2.988-2.904,3.484c-0.742-0.953-0.455-2.934-0.58-4.502c-0.508-1.033-2-1.271-2.469-2.612
				c-0.381-1.087-0.008-2.487-0.291-3.632c-0.213-0.86-0.799-1.76-1.162-2.322c-0.41-0.639-0.98-1.504-1.742-1.598
				c0.402,2.744,0.291,6.002,0.438,9.002c1.797,1.175,1.961,4.68,0.437,6.244c-0.029,2.682-1.343,4.08-3.195,4.938
				c-0.766-1.118-0.277-3.062-0.289-4.647c-1.01-1.119-1.469-2.721-1.309-4.646c1.075-1.972,1.063-4.308,1.018-7.406
				c-0.02-1.205,0.129-2.514-0.291-3.34c-0.699,1.172-1.51,1.64-1.889,3.049c-0.629,2.343,0.662,5.078-1.16,6.245
				c-0.16,0.102-0.15,0.35-0.291,0.436c-0.543,0.336-1.758,0.621-2.76,1.019c-2.279,0.901-5.484,1.824-6.533-0.437
				c0.686-1.25,2.172-1.699,3.049-2.761c0.072-3.364,1.674-5.2,4.211-6.099c1.564-2.162,3.234-4.221,4.502-6.682
				c-0.494-1.975-1.373-3.562-1.887-5.518c-0.588-0.443-1.062-1.077-1.601-1.743c-0.448-0.56-1.184-1.312-1.45-2.032
				c-0.511-1.373-0.166-3.164-0.728-4.502c-0.328-0.787-1.104-0.918-1.019-1.889c1.312-1.195,3.533-0.781,4.646,0
				c0.668,0.469,1.707,1.803,1.889,2.614c0.137,0.61-0.049,1.356,0,2.032c0.176,2.429,1.062,4.717,1.889,6.244
				c1.216-2.078,1.705-4.101,2.613-6.535c0.519-1.385,1.271-3.523,1.742-5.229c0.191-0.689,0.506-1.361,0.438-1.888
				c-0.088-0.655-1.25-2.44-1.6-3.052c-0.645-1.127-1.633-2.156-1.598-3.193c0.057-1.614,2.252-2.475,3.775-3.34
				c3.666-2.086,6.826-3.764,10.021-5.954c1.724-1.183,3.787-2.089,3.92-4.647c-2.36-0.819-5.139-0.73-7.551-0.289
				c-2.447,0.447-5.271,1.68-7.843,3.194c-4.502,2.65-6.459,4.743-7.985,10.021c-0.367,1.263-0.967,4.68-2.033,4.938
				c-1.707,0.415-2.17-1.266-3.051-1.888c-0.373-2.048-0.854-4.386-0.58-6.681c0.238-1.994,1.324-3.604,1.451-4.938
				c-0.981,0.411-1.515,1.312-2.179,2.033c-0.604,0.651-1.387,1.325-1.889,2.469c-0.777,1.772-0.416,4.192-1.307,5.664
				c-0.865,1.427-2.939,1.474-4.066,0.581c-1.406-1.113-2.262-4.055-1.889-6.535c0.541-3.581,3.994-5.555,5.084-7.697
				c-2.336-0.016-4.115,0.629-5.229,1.598c-1.703,1.483-3.193,4.099-3.484,6.682c-0.73,1.018-2.486,1.395-3.34,0.436
				c-0.242-0.271-0.113-0.822-0.291-1.307c-0.076-0.207-0.104,0.021-0.146,0c-0.693-0.368-0.711-3.568-0.58-4.355
				c0.154-0.948,1.119-2.846,1.598-3.484c1.193-1.602,3.21-2.42,3.484-3.775c-1.568-0.222-2.57,0.913-3.774,1.598
				c-1.14,0.646-2.607,1.399-4.355,1.451c-2.313,0.068-5.672-1.429-6.825-2.758c-0.086-0.101-0.052-0.342-0.146-0.437
				c-0.354-0.354-0.884-0.528-1.162-0.871c-1.983-2.45-1.231-4.198,0.728-6.245c1.108-1.16,2.686-2.104,4.065-2.613
				c0.358-0.134,0.795-0.386,1.017-0.437c3.188-0.72,5.631,0.565,7.262,1.597c0.887,0.562,1.9,1.596,3.193,1.018
				c-0.72-1.635-2.586-2.375-3.63-3.774c-1.6-2.149-1.581-4.865-1.018-7.552c0.477-0.371,0.334-0.512,0.582-1.162
				c0.678-0.405,1.426-0.996,2.321-0.727c1.08,0.323,1.597,3.708,2.179,4.646c0.424,0.679,0.771,1.086,1.309,1.744
				c1.593,1.946,2.97,2.932,6.535,2.759c-1.59-2.021-4.262-3.768-5.229-6.681c-1.055-3.17,0.402-7.647,3.049-8.132
				c3.761-0.688,2.861,4.569,4.066,7.116c0.51,1.076,1.396,1.675,1.889,2.178c0.738,0.755,1.17,1.622,2.031,1.741
				c-0.824-1.947-1.67-5.747-1.307-8.856c0.217-1.869,1.156-3.557,2.178-4.066c2.459-1.229,2.754,1.95,3.195,3.631
				c0.467,1.778,0.834,3.353,1.598,4.792c1.562,2.951,3.465,4.344,6.391,6.099c2.978,1.786,5.771,3.151,9.729,3.631
				c1.851,0.224,4.533,0.353,6.101-0.871c-0.34-0.728-0.699-1.431-1.019-2.179c-1.217-0.979-2.688-1.767-4.211-2.759
				c-0.67-0.438-1.394-0.83-2.18-1.308c-0.66-0.399-1.302-1.021-2.031-1.452c-1.254-0.74-3.008-1.427-4.646-2.323
				c-1.588-0.868-3.42-1.931-3.631-3.34c-0.17-1.13,0.78-2.442,1.45-3.631c0.63-1.112,1.279-2.077,1.742-3.049
				c-1.483-4.663-2.987-9.308-4.938-13.505c-0.514,1.204-1.059,2.366-1.451,3.921c-0.387,1.521-0.061,3.17-0.438,4.646
				c-0.08,0.319-0.58,0.79-1.016,1.308c-1.184,1.402-3.729,2.972-5.52,1.017c-0.05-0.777,0.803-1.372,1.018-1.888
				c0.445-1.067,0.191-2.883,0.727-4.356c0.18-0.498,0.969-1.52,1.162-1.743c0.318-0.368,0.451-0.697,0.727-1.017
				c0.351-0.404,0.732-0.711,1.017-1.161c0.774-1.233,1.926-4.073,1.742-5.519c-0.168-1.331-1.287-2.418-2.031-3.485
				c-0.735-1.052-1.498-2.547-2.324-3.193c-0.745-0.586-1.692-0.701-2.323-1.308c-1.066-1.03-1.767-2.938-1.74-5.083
				c-1.225-0.713-2.682-1.191-3.051-2.759c1.967-2,5.174-0.683,6.971,0c0.842,0.318,1.83,0.575,2.322,0.871
				c0.186,0.109-0.021,0.416,0,0.437c0.071,0.072,0.256-0.177,0.438,0c1.588,1.544,0.426,3.562,0.871,5.953
				c0.238,1.281,1.277,2.524,2.178,3.341c0.09-3.158,0.451-5.712,0-8.133c-0.172-0.929-0.748-1.693-0.871-2.613
				c-0.104-0.779-0.02-1.799,0.146-2.47c0.209-0.852,1.008-1.514,1.16-2.468c0.184-1.147-0.82-3.177,0.436-4.065
				c1.354,0.033,2.785,2.457,2.904,3.193c0.004,0.017,0.17,0.148,0.146,0c0.098,0.615-0.078,1.312,0,1.743
				c0.772,0.86,1.348,2.38,1.018,3.921c-0.217,1.002-1.164,1.539-1.453,2.179c-0.076,2.213,0.039,4.759-0.146,6.824
				c-0.074,0.846-0.604,1.698-0.145,2.324c0.947-1.342,2.273-2.246,2.76-4.212c0.279-1.139-0.068-2.381,0.289-3.484
				c0.414-1.271,1.703-1.699,2.324-2.613c0.328-1.463-0.047-3.629,0.871-4.502c1.104,0.438,2.547,2.045,2.76,3.775
				c0.072,0.593-0.225,1.688-0.291,2.759c-0.068,1.12,0.086,2.303,0,3.05c-0.27,2.329-3.297,3.653-4.646,4.646
				c-1.166,1.674-2.604,3.829-3.051,5.954c-0.293,1.402,0.141,1.737,0.582,2.759c0.936,2.158,1.709,4.171,2.613,6.1
				c0.711,1.513,1.549,3.021,2.18,4.356c0.926-0.282,1.852-1.784,3.193-1.599c0.855,0.119,1.373,1.318,1.889,2.323
				c0.514,1.001,1.068,2.054,1.451,2.759c2.082,3.834,5.1,6.646,8.424,8.567c1.82,1.053,3.684,2.023,5.953,2.614
				c-1.764-1.947-5.131-3.126-6.971-5.083c-0.574-0.609-1.207-1.639-1.162-2.614c0.092-1.954,2.258-3.227,4.355-2.613
				c2.412,0.705,4.522,4.254,8.135,3.34c0-0.531,0-1.064,0-1.598c-3.316-1.563-8.514-3.583-11.766-5.81
				c-1.72-1.179-3.851-2.72-4.5-4.646c-0.957-2.831,0.698-6.404,3.192-5.954c2.515,0.453,3.094,2.988,4.502,4.792
				c0.812,1.037,1.853,1.892,2.903,2.469c1.746,0.958,3.363,1.553,5.521,1.889c0.604,0.095,1.646,0.382,2.322-0.146
				c-0.074-1.087-1.254-1.382-2.033-1.889c-4.844-3.148-9.371-6.869-13.215-10.892c-1.258-1.316-1.892-1.994-2.758-3.484
				c-1.23-2.109-2.546-4.454-2.761-7.261c-0.137-1.764-0.057-4.373,0.437-6.101c0.037-0.127,0.33-0.324,0.437-0.581
				c0.123-0.295,0.043-0.678,0.146-0.871c0.974-1.848,3.599-3.432,5.664-1.742c1.41,2.073,0.674,5.948,1.017,9.003
				c0.434,3.869,4.409,8.168,6.682,10.021c2.467,2.014,5.406,3.012,8.274,4.211c0.921,0.386,1.942,1.073,3.05,0.871
				c-3.648-4.312-9.107-8.624-11.324-14.667c-0.656-1.789-1.193-3.477-0.871-5.81c0.17-1.238,1.232-3.564,1.742-4.211
				c0.748-0.952,2.807-2.457,4.5-2.034c1.324,0.332,2.037,2.68,2.18,4.938c0.249,4.014,0.021,7.518,1.162,9.875
				c0.197,0.415,0.68,0.958,1.016,1.453c2.118,3.109,5.814,6.76,8.713,8.566c0.963,0.601,2.102,1.119,3.342,1.162
				c-0.259-0.197-0.26-0.452-0.438-0.727c-0.352-0.542-0.416-0.555-0.58-0.727c-0.104-0.105-0.208-0.335-0.291-0.437
				c-2.229-2.708-3.911-5.951-5.518-9.147c-0.615-1.225-1.42-2.462-1.743-3.63c-1.337-4.795,0.182-8.81,3.05-10.746
				c1.105-0.18,2.684-1.301,4.211-0.582c0.645,0.304,1.218,1.7,1.309,2.614c0.188,1.918-0.815,3.857-1.018,5.664
				c-0.422,3.798,0.559,6.395,1.887,8.423c0.997,1.521,2.01,2.833,3.051,4.065c1.558,1.846,3.367,3.648,6.101,3.484
				c-0.062-2.299-1.048-4.298-2.033-6.244c-0.462-0.911-0.89-1.909-1.452-2.759c-1.347-2.037-2.684-3.391-2.904-6.681
				c-0.149-2.255,0.236-4.028,0.871-5.229c0.985-1.861,2.937-3.71,5.664-3.34c2.512,0.341,2.908,3.161,2.471,5.955
				c-0.363,2.307-1.561,4.262-1.452,6.535c0.122,2.593,1.021,4.463,1.888,6.243c1.396,2.867,2.797,4.482,5.663,5.81
				c-1.13-2.823-2.471-6.867-2.759-10.891c-0.271-3.781,0.49-6.84,1.598-9.149c0.772-1.613,1.662-2.565,2.759-3.484
				c1.096-0.917,2.483-1.827,4.356-1.599c1.462,0.996,1.365,3.024,1.162,4.502c-0.52,3.76-4.381,6.921-4.066,11.183
				c0.084,1.139,0.743,2.418,1.309,3.63c1.488,3.204,3.42,5.892,6.971,6.245c-1.221-3.93-3.469-8.35-2.759-13.94
				c0.076-0.605,0.39-1.444,0.581-2.178c0.802-3.076,2.428-5.452,4.211-7.116c0.895-0.834,2.425-2.02,3.631-2.324
				c2.584-0.653,4.632,0.576,4.646,2.614c0.008,0.966-0.709,1.805-1.308,2.613c-0.611,0.827-1.347,1.509-1.888,2.179
				c-1.996,2.479-3.775,5.513-3.775,9.729c0,1.651,0.152,4.463,0.728,5.81c0.313,0.738,1.57,2.66,2.903,2.178
				c0.49-0.177,0.539-0.899,0.871-1.888c0.474-1.409,0.754-1.835,1.017-2.759c1.146-4.022,2.798-7.76,4.503-10.747
				c1.395-2.439,2.493-4.497,4.501-6.534c1.453-1.475,4.371-3.895,7.263-3.775c0.924,0.038,2.647,0.667,3.34,1.452
				c1.146,1.299,0.604,4.25-0.146,5.664c-0.611,1.152-1.989,1.706-3.193,2.323c-0.925,0.474-2.08,0.874-2.76,1.451
				c-1.066,0.908-2.096,2.447-3.051,3.775c-0.438,0.608-0.907,1.35-1.308,2.033c-0.446,0.767-0.979,1.504-1.307,2.178
				c-0.979,2.004-1.487,4.062-2.323,5.954c-0.248,0.561-0.673,1.065-0.729,1.743c0.812,0.844,1.938,1.199,2.181,2.323
				c0.281,1.312-0.333,3.353-0.581,4.792c-0.696,4.045-1.99,7.167-3.921,9.729c-0.779,1.034-1.77,2.451-2.76,3.051
				c-1.941,1.172-4.271,0.312-6.682,0.581c-1.903,0.213-4.781,1.428-5.519,2.759c-1.683,3.038,0.516,5.302,2.179,6.535
				c5.324,0.6,10.223-0.874,12.925-3.051c2.696-2.171,4.078-4.63,5.229-8.132c0.815-2.495,1.654-5.233,1.888-8.132
				c0.05-0.627-0.104-1.264,0-1.889c0.111-0.673,0.574-1.412,0.871-2.032c0.288-0.603,0.495-1.603,1.307-1.743
				c1.821,0.658-0.46,4.42,1.162,5.664c-0.211-4.071,0.621-9.897,2.324-12.198c0.489-0.662,2.199-2.229,3.194-2.032
				c1.262,0.249,1.104,2.393,0.436,3.484c-0.698,1.141-3.041,1.722-3.63,3.775c-0.207,0.72-0.098,1.837-0.146,2.904
				c-0.043,0.933-0.62,2.194,0.29,2.759c0.979-1.294,0.946-3.352,1.019-5.229c2.397,0.454,4.016,2.842,4.354,5.519
				c0.18,1.396-0.18,2.73,0.146,3.921c0.243,0.892,1.117,1.568,1.307,2.47c0.171,0.811,0.134,2.229,0,3.34
				c-0.312,2.618-2.313,5.369-2.614,8.567c-0.156,1.706-0.102,3.445,0,4.938c0.072,1.06,0.781,2.415,0,3.05
				c-1.04,0.043-1.56-0.841-2.321-1.598c-0.447-0.443-1.644-2.053-2.179-2.033c-0.146,0.006-1.891,1.893-1.89,1.889
				c-0.066,0.115,0.199,0.242,0.146,0.437c-0.081,0.294-0.492,0.748-0.728,1.017c-1.438,1.653-2.544,0.25-3.631-0.871
				c-1.829,0.603-1.34,4.893-3.34,4.791c-1.213-0.06-0.86-1.522-2.033-1.888c-1.315,0.343-1.557,3.386-1.742,3.921
				c-0.997,0.383-1.969-0.428-3.193-0.291c-0.242,1.362-0.549,3.521,0.289,4.502c0.956-0.207,1.598-0.729,2.904-0.582
				c0.481,1.551,0.331,3.734,1.89,4.211c0.685-0.719,1.02-1.787,2.032-2.178c1.843,0.965,1.274,4.34,3.483,4.938
				c0.683-0.721,0.961-1.848,2.76-1.451C336.576,79.478,336.683,81.198,338.422,82.185z M340.744,94.673
				c-0.672-0.151-1.437-0.211-1.599-0.871c-0.071-0.604,0.426-0.641,0.29-1.308c-1.702,0.427-1.574,4.573,0,4.646
				C340.286,97.181,340.924,96.111,340.744,94.673z M340.744,47.188c0.215-1.424-0.391-2.031-1.161-2.469
				c-1.839,0.003-1.661,3.921-0.438,4.502c0.79-0.169-0.27-0.59,0-1.162C339.178,47.266,340.136,47.4,340.744,47.188z"/>
		</g>
	</g>
</g>
</svg>
