<?xml version="1.0" encoding="utf-8"?>
<!-- Generator: Adobe Illustrator 15.0.0, SVG Export Plug-In . SVG Version: 6.00 Build 0)  -->
<!DOCTYPE svg PUBLIC "-//W3C//DTD SVG 1.1//EN" "http://www.w3.org/Graphics/SVG/1.1/DTD/svg11.dtd">
<svg version="1.1" id="Layer_1" xmlns="http://www.w3.org/2000/svg" xmlns:xlink="http://www.w3.org/1999/xlink" x="0px" y="0px"
	 width="395px" height="41px" viewBox="0 0 395 41" enable-background="new 0 0 395 41" xml:space="preserve">
<g>
	<g id="hG0die.tif">
		<g>
			<path d="M182.113,15.006c-0.751-0.088-0.734,0.594-0.854,1.137C182.024,16.124,182.625,15.493,182.113,15.006z"/>
			<path d="M180.974,18.133c0-0.189,0-0.38,0-0.568c-0.188,0-0.379,0-0.567,0c0,0.188,0,0.379,0,0.568
				C180.596,18.133,180.786,18.133,180.974,18.133z"/>
			<path d="M179.837,21.26c0.133-0.605-0.406-0.542-0.853-0.57c0.054,0.23,0.284,0.283,0.283,0.57
				C179.458,21.26,179.648,21.26,179.837,21.26z"/>
			<path d="M179.554,22.964c-0.124-0.351-0.363-0.584-0.854-0.567C178.825,22.745,179.064,22.977,179.554,22.964z"/>
			<path d="M179.554,19.553c0.111-0.551-1.295-0.416-0.854,0.284c0.188,0,0.38,0,0.568,0
				C179.217,19.596,179.379,19.57,179.554,19.553z"/>
			<path d="M179.269,16.143c0.134-0.887-0.715-1.018-1.138-0.569C178.32,15.956,178.741,16.104,179.269,16.143z"/>
			<path d="M178.701,13.869c0.061-0.485-0.484-0.737,0-0.853c-0.188-0.853-0.607,0.271-1.137,0
				C177.811,13.432,177.99,13.917,178.701,13.869z"/>
			<path d="M177.28,24.387c-0.036,0.51,0.349,0.6,0.284,1.137C178.389,25.473,178.248,24.172,177.28,24.387z"/>
			<path d="M177.28,12.731c0-0.379,0-0.758,0-1.137c-0.854-0.287-0.504,0.633-0.567,1.137
				C176.902,12.731,177.09,12.731,177.28,12.731z"/>
			<path d="M176.997,14.436c0.096-0.569-0.06-0.89-0.569-0.853c0,0.284,0,0.568,0,0.853
				C176.617,14.436,176.806,14.436,176.997,14.436z"/>
			<path d="M176.711,26.375C176.521,25.071,174.992,26.602,176.711,26.375L176.711,26.375z"/>
			<path d="M175.575,10.458c-0.381,0.188-0.529,0.607-0.569,1.137C175.802,11.639,175.933,10.791,175.575,10.458z"/>
			<path d="M171.311,31.207c-0.12-0.543-0.104-1.224-0.854-1.138C170.912,30.279,170.393,31.461,171.311,31.207z"/>
			<path d="M170.458,9.889c0-0.188,0-0.379,0-0.567c-0.188,0-0.379,0-0.569,0c0,0.188,0,0.379,0,0.567
				C170.08,9.889,170.269,9.889,170.458,9.889z"/>
			<path d="M169.889,31.774c0.553,0.112,0.416-1.296-0.282-0.854c0,0.189,0,0.38,0,0.568
				C169.847,31.438,169.873,31.6,169.889,31.774z"/>
			<path d="M168.183,8.467c0.133-0.89-0.246-1.269-1.137-1.138C167.082,8.055,167.459,8.434,168.183,8.467z"/>
			<path d="M166.478,7.616c0.212-0.876-0.779-0.547-0.567-1.422c-0.896-0.137-1.112,0.404-1.706,0.568
				C164.877,7.524,165.333,6.598,166.478,7.616z"/>
			<path d="M163.352,34.902c0.097-0.571-0.06-0.893-0.568-0.854c0,0.283,0,0.567,0,0.854
				C162.973,34.902,163.162,34.902,163.352,34.902z"/>
			<path d="M162.784,32.346c0.112-0.553-1.294-0.416-0.854,0.282c0.188,0,0.38,0,0.568,0
				C162.447,32.389,162.61,32.358,162.784,32.346z"/>
			<path d="M159.087,33.197c1.276,0.525-1.216,2.305,1.139,2.271c-0.103-0.373-0.502-0.447-0.569-0.854
				c1.126,0.277,2.215,0.305,2.559-0.854C160.795,34.639,160.204,33.436,159.087,33.197z"/>
			<path d="M161.362,32.628C160.371,33.959,162.795,33.771,161.362,32.628L161.362,32.628z"/>
			<path d="M160.793,6.477c0-0.188,0-0.379,0-0.566c-0.189,0-0.38,0-0.567,0c0,0.188,0,0.378,0,0.566
				C160.415,6.477,160.604,6.477,160.793,6.477z"/>
			<path d="M159.373,4.772c-0.707,0.043-0.084,0.963,0,1.139C160.324,5.653,159.621,5.272,159.373,4.772z"/>
			<path d="M158.52,33.766c0.052-0.619-0.232-0.903-0.854-0.854C157.615,33.532,157.899,33.814,158.52,33.766z"/>
			<path d="M157.667,34.617c-0.275-1.038-2.885-0.746-2.273,0.854C155.992,34.439,156.338,34.918,157.667,34.617z"/>
			<path d="M157.667,4.772c0.103-0.729-2.319-0.639-1.99,0.567c0.531-0.557,1.041-0.088,1.705,0
				C157.336,5.012,157.446,4.833,157.667,4.772z"/>
			<path d="M157.382,6.764c0-0.19,0-0.381,0-0.569c-0.188,0-0.379,0-0.567,0c0,0.188,0,0.379,0,0.569
				C157.002,6.764,157.193,6.764,157.382,6.764z"/>
			<path d="M157.099,8.75c-0.068-0.5-0.488-0.646-1.137-0.566C156.148,8.565,156.569,8.711,157.099,8.75z"/>
			<path d="M156.813,3.067c-0.335-0.518-1.481-0.223-1.989-0.568C154.468,4.102,156.411,3.713,156.813,3.067z"/>
			<path d="M156.531,33.766c0-0.283,0-0.566,0-0.854c-0.285,0-0.568,0-0.854,0C155.625,33.532,155.91,33.814,156.531,33.766z"/>
			<path d="M154.255,34.617c-0.323-0.055-0.158-0.285,0-0.284c-0.428-0.401-1.227-1.052-1.706-0.567
				c0.84,0.348,0.791,1.422,2.56,1.422c-0.558-0.53-0.087-1.041,0-1.705c-0.284,0-0.568,0-0.854,0
				C153.985,34.012,155.106,34.432,154.255,34.617z"/>
			<path d="M154.54,4.489c0.133-0.607-0.406-0.542-0.854-0.569c0.055,0.23,0.285,0.284,0.284,0.569
				C154.162,4.489,154.351,4.489,154.54,4.489z"/>
			<path d="M154.255,30.352c0.08-0.457-0.269-0.487-0.284-0.852C153.419,29.391,153.556,30.796,154.255,30.352z"/>
			<path d="M153.972,6.477c-0.5,0.067-0.647,0.49-0.567,1.139C153.904,7.546,154.051,7.125,153.972,6.477z"/>
			<path d="M153.687,32.912c-0.207-0.506-0.518-0.041-0.853,0C153.042,33.418,153.351,32.953,153.687,32.912z"/>
			<path d="M153.404,35.186c-0.065-0.408-0.85-0.101-0.854-0.568C151.695,34.975,153.183,35.779,153.404,35.186z"/>
			<path d="M153.404,5.057c0.074-1.145-2.322-0.642-1.706,0.567C152.849,6.018,152.597,5.008,153.404,5.057z"/>
			<path d="M152.55,3.067c-0.12,0.594,0.195,0.753,0.285,1.138C153.66,4.153,153.519,2.854,152.55,3.067z"/>
			<path d="M152.55,7.33c0-0.188,0-0.379,0-0.565c-0.188,0-0.379,0-0.567,0c0,0.188,0,0.377,0,0.565
				C152.17,7.33,152.361,7.33,152.55,7.33z"/>
			<path d="M152.266,3.067c0-0.189,0-0.379,0-0.568c-0.188,0-0.379,0-0.567,0c0,0.189,0,0.379,0,0.568
				C151.887,3.067,152.077,3.067,152.266,3.067z"/>
			<path d="M151.981,36.323c0.097-0.569-0.06-0.892-0.567-0.854c0,0.284,0,0.568,0,0.854
				C151.603,36.323,151.792,36.323,151.981,36.323z"/>
			<path d="M151.981,32.912c-0.146-1.408-1.297,0.16-1.989,0C150.514,34.277,150.769,32.497,151.981,32.912z"/>
			<path d="M151.698,27.227c0-0.188,0-0.379,0-0.568c-0.189,0-0.379,0-0.568,0c0,0.189,0,0.38,0,0.568
				C151.319,27.227,151.508,27.227,151.698,27.227z"/>
			<path d="M151.415,35.186c-0.198-0.229-0.443-0.777,0-0.854c-0.288-0.47-1.209-0.308-1.706-0.566
				C149.621,34.893,150.253,35.305,151.415,35.186z"/>
			<path d="M151.128,7.616c0-0.189,0-0.38,0-0.569c-0.188,0-0.379,0-0.567,0c0,0.189,0,0.38,0,0.569
				C150.75,7.616,150.939,7.616,151.128,7.616z"/>
			<path d="M149.993,8.184c0-0.188,0-0.379,0-0.567c-0.189,0-0.379,0-0.568,0c0,0.188,0,0.379,0,0.567
				C149.614,8.184,149.803,8.184,149.993,8.184z"/>
			<path d="M149.708,5.911c-0.208-0.508-0.518-0.041-0.853,0C149.063,6.415,149.373,5.951,149.708,5.911z"/>
			<path d="M148.571,31.774c-0.351,0.125-0.583,0.362-0.568,0.854C148.61,32.764,148.543,32.223,148.571,31.774z"/>
			<path d="M148.288,7.616c0-0.189,0-0.38,0-0.569c-0.189,0-0.379,0-0.569,0c0,0.189,0,0.38,0,0.569
				C147.909,7.616,148.098,7.616,148.288,7.616z"/>
			<path d="M148.001,5.057c-0.486,0.364-1.117,0.588-1.137,1.422C147.665,6.424,148.077,5.983,148.001,5.057z"/>
			<path d="M147.435,31.774c-0.092-1.122-0.881,0.212-1.139-0.567C145.301,31.688,146.853,31.936,147.435,31.774z"/>
			<path d="M147.435,28.646c0-0.188,0-0.379,0-0.566c-0.19,0-0.38,0-0.569,0c0,0.188,0,0.379,0,0.566
				C147.056,28.646,147.245,28.646,147.435,28.646z"/>
			<path d="M146.866,27.227C147.357,26.145,146.042,29.037,146.866,27.227L146.866,27.227z"/>
			<path d="M145.445,4.489c0.67-0.008,0.837,0.49,1.705,0.283c0.133-0.606-0.405-0.541-0.854-0.567c0.341-0.374,0.11-0.446,0-0.853
				C145.548,3.266,145.365,3.745,145.445,4.489z"/>
			<path d="M144.307,5.057c0.199,1.258,1.663,0.619,0.854,2.272c1.021-0.209,0.927-1.536,1.421-2.272
				C145.921,5.912,145.372,5.225,144.307,5.057z"/>
			<path d="M146.013,9.889C145.081,10.577,146.803,11.247,146.013,9.889L146.013,9.889z"/>
			<path d="M145.729,25.807c-0.116-0.709-1.104-0.018-0.854,0.567C145.506,26.531,145.281,25.832,145.729,25.807z"/>
			<path d="M144.592,31.207c0.553,0.113,0.415-1.295-0.285-0.854c0,0.189,0,0.381,0,0.568
				C144.549,30.87,144.576,31.033,144.592,31.207z"/>
			<path d="M144.875,27.514c0-0.189,0-0.379,0-0.568c-0.188,0-0.379,0-0.569,0c0,0.189,0,0.379,0,0.568
				C144.498,27.514,144.687,27.514,144.875,27.514z"/>
			<path d="M144.592,18.985c0-0.189,0-0.379,0-0.568c-0.189,0-0.38,0-0.567,0c0,0.189,0,0.379,0,0.568
				C144.211,18.985,144.402,18.985,144.592,18.985z"/>
			<path d="M144.592,6.764c-0.188-0.384-0.607-0.53-1.138-0.569c0.174,0.265,0.662,1.049-0.283,0.853
				C143.518,7.907,144.254,6.846,144.592,6.764z"/>
			<path d="M144.023,8.467c0-0.188,0-0.379,0-0.567c-0.19,0-0.38,0-0.569,0c0,0.188,0,0.38,0,0.567
				C143.644,8.467,143.833,8.467,144.023,8.467z"/>
			<path d="M143.74,33.479c0-0.188,0-0.379,0-0.566c-0.189,0-0.379,0-0.568,0c0,0.188,0,0.379,0,0.566
				C143.361,33.479,143.55,33.479,143.74,33.479z"/>
			<path d="M143.74,21.826c0-0.188,0-0.379,0-0.566c-0.189,0-0.379,0-0.568,0c0,0.188,0,0.379,0,0.566
				C143.361,21.826,143.55,21.826,143.74,21.826z"/>
			<path d="M143.455,24.669c-0.124-0.349-0.363-0.583-0.853-0.567C142.726,24.451,142.965,24.684,143.455,24.669z"/>
			<path d="M142.886,27.227c0.834-0.239-0.17-0.916,0-1.422C141.906,26.016,142.697,26.661,142.886,27.227z"/>
			<path d="M142.886,15.006c-0.983-0.199-1.02,0.996-0.567,1.42C143.208,16.061,142.463,15.839,142.886,15.006z"/>
			<path d="M142.886,7.045c-0.508-0.578-1.049-0.078-0.567-1.136c-0.745,0.299-1.277,1.086-1.139-0.567
				c-0.84,0.409-0.243,0.633-0.566,1.703C141.263,7.227,142.327,7.61,142.886,7.045z"/>
			<path d="M142.602,31.207c-0.526-0.421-0.427-1.47-1.423-1.422C141.306,30.605,141.781,31.081,142.602,31.207z"/>
			<path d="M142.317,32.628c0.086-0.749-0.395-0.933-1.139-0.854C141.095,32.524,141.575,32.709,142.317,32.628z"/>
			<path d="M142.317,11.879c-0.124-0.351-0.363-0.584-0.854-0.568c-0.08,0.459,0.27,0.488,0.284,0.853
				C141.979,12.109,142.033,11.878,142.317,11.879z"/>
			<path d="M142.034,25.238C141.915,24.006,140.384,25.537,142.034,25.238L142.034,25.238z"/>
			<path d="M140.896,31.491c0.188,0,0.378,0,0.567,0c-0.053-0.242,0.11-0.271,0.284-0.284
				C141.863,30.655,140.455,30.792,140.896,31.491z"/>
			<path d="M141.465,22.964c0.086-0.749-0.394-0.933-1.137-0.853C140.576,22.527,140.752,23.014,141.465,22.964z"/>
			<path d="M141.465,21.542c0-0.188,0-0.378,0-0.567c-0.229,0.15-0.461,0.296-0.853,0.285
				C140.771,21.85,141.055,21.86,141.465,21.542z"/>
			<path d="M141.18,24.1c-0.265,0.305-1.048,0.088-0.852,0.854C140.593,24.649,141.375,24.865,141.18,24.1z"/>
			<path d="M140.896,32.628c0.052-0.62-0.233-0.903-0.854-0.854C140.347,32.04,140.132,32.823,140.896,32.628z"/>
			<path d="M140.613,29.219c-0.056-0.801-0.495-1.213-1.422-1.139C139.289,28.836,139.937,29.04,140.613,29.219z"/>
			<path d="M140.613,11.594c0-0.188,0-0.379,0-0.567c-0.189,0-0.38,0-0.568,0c0,0.188,0,0.379,0,0.567
				C140.232,11.594,140.423,11.594,140.613,11.594z"/>
			<path d="M140.043,15.574C139.925,14.342,138.394,15.874,140.043,15.574L140.043,15.574z"/>
			<path d="M140.043,8.467c0.437-0.873-1.855-0.873-1.422,0C139.096,8.467,139.57,8.467,140.043,8.467z"/>
			<path d="M139.759,30.069c0-0.188,0-0.38,0-0.567c-0.188,0-0.379,0-0.567,0c0,0.188,0,0.379,0,0.567
				C139.379,30.069,139.57,30.069,139.759,30.069z"/>
			<path d="M139.759,12.731c0.099-0.57-0.058-0.889-0.567-0.853c0,0.283,0,0.568,0,0.853
				C139.379,12.731,139.57,12.731,139.759,12.731z"/>
			<path d="M138.337,13.016C138.148,11.712,136.618,13.244,138.337,13.016L138.337,13.016z"/>
			<path d="M138.337,8.184c0.418-0.83-1.271-0.83-0.853,0C137.77,8.184,138.054,8.184,138.337,8.184z"/>
			<path d="M137.202,14.436c0.418-0.828-1.271-0.828-0.854,0C136.633,14.436,136.917,14.436,137.202,14.436z"/>
			<path d="M137.202,8.467c0.086-0.748-0.395-0.934-1.138-0.853C135.979,8.364,136.458,8.546,137.202,8.467z"/>
			<path d="M136.917,25.238c0.036-0.512-0.348-0.602-0.284-1.139C135.826,24.137,136.086,25.311,136.917,25.238z"/>
			<path d="M136.349,8.467c-0.686-0.115-0.617,0.521-1.422,0.283C134.833,10.157,136.501,9.492,136.349,8.467z"/>
			<path d="M136.063,26.09c-0.579,0.086-0.558,0.771-1.138,0.854C135.119,27.562,136.417,26.951,136.063,26.09z"/>
			<path d="M136.063,14.721c-0.031-0.537-0.939-0.196-0.854-0.853C134.445,14.124,135.343,15.022,136.063,14.721z"/>
			<path d="M136.063,13.869c0-0.188,0-0.379,0-0.567c-0.189,0-0.378,0-0.568,0c0,0.188,0,0.379,0,0.567
				C135.686,13.869,135.874,13.869,136.063,13.869z"/>
			<path d="M135.496,24.669c-0.284,0-0.568,0-0.853,0c-0.696,0.38,0.513,0.858-0.284,1.14
				C134.863,26.652,135.873,25.641,135.496,24.669z"/>
			<path d="M135.21,11.026c-0.262-0.971-1.138-1.332-1.706-0.568C133.539,11.184,134.458,11.022,135.21,11.026z"/>
			<path d="M134.643,16.996C133.729,17.666,135.643,18.143,134.643,16.996L134.643,16.996z"/>
			<path d="M134.358,27.514c0.552,0.11,0.416-1.295-0.284-0.854c0,0.19,0,0.38,0,0.569
				C134.316,27.178,134.343,27.338,134.358,27.514z"/>
			<path d="M134.358,9.321c0-0.189,0-0.379,0-0.57c-0.459-0.079-0.489,0.271-0.854,0.285c0,0.189,0,0.38,0,0.568
				C133.966,9.684,133.996,9.336,134.358,9.321z"/>
			<path d="M134.075,18.701c-0.544,0.119-1.223,0.103-1.137,0.853C133.481,19.434,134.162,19.45,134.075,18.701z"/>
			<path d="M134.075,13.869c0.052-0.62-0.232-0.905-0.854-0.853c0,0.283,0,0.567,0,0.853
				C133.504,13.869,133.79,13.869,134.075,13.869z"/>
			<path d="M133.79,23.248c0-0.188,0-0.379,0-0.566c-0.188,0-0.379,0-0.568,0c0,0.188,0,0.379,0,0.566
				C133.412,23.248,133.601,23.248,133.79,23.248z"/>
			<path d="M133.222,15.006c0.344-0.099,0.229-0.758,0-0.854C132.606,13.895,132.563,15.194,133.222,15.006z"/>
			<path d="M131.232,13.301c0.288,0.543,2.064,0.191,1.705-0.854C132.356,12.719,131.812,13.028,131.232,13.301z"/>
			<path d="M132.084,12.731c0.281-0.105,0.179-0.83,0-0.853C131.414,11.794,131.265,13.042,132.084,12.731z"/>
			<path d="M131.8,27.227c0-0.188,0-0.379,0-0.568c-0.188,0-0.379,0-0.566,0c0,0.189,0,0.38,0,0.568
				C131.42,27.227,131.612,27.227,131.8,27.227z"/>
			<path d="M130.948,12.163c-0.386,0.089-0.235,0.712-0.283,1.139C131.323,13.221,131.316,12.541,130.948,12.163z"/>
			<path d="M113.608,18.985c-0.886-0.133-1.017,0.715-0.568,1.137C113.421,19.934,113.57,19.514,113.608,18.985z"/>
			<path d="M112.473,20.69c-0.304-0.266-0.088-1.049-0.853-0.854C111.567,20.458,111.852,20.742,112.473,20.69z"/>
			<path d="M109.062,19.268c-0.672-0.006-0.839,0.49-1.707,0.285C107.757,20.02,109.207,20.545,109.062,19.268z"/>
			<path d="M86.605,21.26c-0.043-0.708-0.963-0.082-1.137,0C85.512,21.965,86.432,21.342,86.605,21.26z"/>
			<path d="M86.322,20.69c0-0.189,0-0.379,0-0.568c-0.188,0-0.379,0-0.567,0c0,0.189,0,0.379,0,0.568
				C85.943,20.69,86.133,20.69,86.322,20.69z"/>
			<path d="M82.626,21.26c0.043-0.708-0.447-0.881-0.568-1.422C81.406,20.061,81.782,21.598,82.626,21.26z"/>
			<path d="M78.363,21.26c0-0.188,0-0.38,0-0.57c-0.188,0-0.378,0-0.567,0c0,0.189,0,0.38,0,0.57
				C77.985,21.26,78.174,21.26,78.363,21.26z"/>
			<path d="M72.962,20.975C72.101,19.924,72.005,21.837,72.962,20.975L72.962,20.975z"/>
			<path d="M71.826,17.279c0.418-0.829-1.271-0.829-0.854,0C71.258,17.279,71.54,17.279,71.826,17.279z"/>
			<path d="M69.835,21.26c0.079-0.458-0.27-0.49-0.285-0.853C69,20.293,69.137,21.701,69.835,21.26z"/>
			<path d="M67.277,20.407c-0.353,0.918,0.92,0.217,0.567,1.135C68.844,21.365,68.1,20.356,67.277,20.407z"/>
			<path d="M64.436,22.682c-0.336-0.422-0.246-1.271-1.139-1.14C63.396,22.202,63.481,22.875,64.436,22.682z"/>
			<path d="M63.014,22.682c0-0.189,0-0.379,0-0.568c-0.188,0-0.379,0-0.568,0c0,0.189,0,0.379,0,0.568
				C62.635,22.682,62.825,22.682,63.014,22.682z"/>
			<path d="M60.74,22.393c-0.459-0.078-0.489,0.271-0.854,0.285c0.056,0.23,0.287,0.283,0.285,0.568
				C60.521,23.124,60.755,22.885,60.74,22.393z"/>
			<path d="M55.622,22.964c-0.045-0.333-0.518-0.237-0.852-0.282c0,0.282,0,0.566,0,0.853
				C55.144,23.432,55.219,23.031,55.622,22.964z"/>
			<path d="M53.633,22.111c-0.049-0.824-1.351-0.688-1.137,0.281C52.75,22.176,53.139,22.09,53.633,22.111z"/>
			<path d="M52.496,23.814c0-0.188,0-0.379,0-0.566c-0.189,0-0.379,0-0.568,0c0,0.188,0,0.379,0,0.566
				C52.118,23.814,52.307,23.814,52.496,23.814z"/>
			<path d="M51.644,21.26c0-0.188,0-0.38,0-0.57c-0.189,0-0.38,0-0.568,0c0,0.189,0,0.38,0,0.57
				C51.266,21.26,51.454,21.26,51.644,21.26z"/>
			<path d="M51.644,15.29c-0.829-0.417-0.829,1.271,0,0.854C51.644,15.858,51.644,15.574,51.644,15.29z"/>
			<path d="M50.791,22.682c-0.304-0.268-0.089-1.051-0.853-0.854C49.769,22.562,50.053,22.85,50.791,22.682z"/>
			<path d="M49.654,22.393c-0.257-0.776-1.047,0.558-1.138-0.566c-0.385,0.089-0.234,0.712-0.283,1.138
				C48.606,22.676,49.281,22.684,49.654,22.393z"/>
			<path d="M47.949,23.814c0-0.188,0-0.379,0-0.566c-0.188,0-0.379,0-0.567,0c0,0.188,0,0.379,0,0.566
				C47.57,23.814,47.76,23.814,47.949,23.814z"/>
			<path d="M47.096,15.574c0.285,0,0.568,0,0.854,0C48.367,14.745,46.678,14.745,47.096,15.574z"/>
			<path d="M47.096,23.532c-0.535-0.905,0.072-1.188-0.283-2.272c-0.289,0.186-0.294,0.652-0.854,0.566
				C46.344,22.391,45.824,23.855,47.096,23.532z"/>
			<path d="M45.676,21.26c-0.116-0.708-1.104-0.019-0.854,0.566C45.195,21.725,45.269,21.326,45.676,21.26z"/>
			<path d="M45.391,22.111c-0.381,0.188-0.529,0.605-0.567,1.137C45.322,23.182,45.471,22.76,45.391,22.111z"/>
			<path d="M44.537,24.387c-0.088-0.388-0.711-0.236-1.137-0.285C43.479,24.762,44.16,24.754,44.537,24.387z"/>
			<path d="M43.117,22.964c0.804,0.046,0.662-0.854,1.421-0.853C44.159,21.391,42.68,21.932,43.117,22.964z"/>
			<path d="M43.4,21.826c0-0.188,0-0.379,0-0.566c-0.189,0-0.379,0-0.569,0c0,0.188,0,0.379,0,0.566
				C43.021,21.826,43.21,21.826,43.4,21.826z"/>
			<path d="M42.264,22.393c-0.088-0.385-0.711-0.233-1.137-0.281c0,0.474,0,0.945,0,1.421
				C42.096,23.742,41.596,22.483,42.264,22.393z"/>
			<path d="M39.705,21.826c0-0.188,0-0.379,0-0.566c-0.189,0-0.379,0-0.568,0c0,0.188,0,0.379,0,0.566
				C39.327,21.826,39.516,21.826,39.705,21.826z"/>
			<path d="M39.705,20.975c0.42-0.828-1.271-0.828-0.853,0C39.137,20.975,39.421,20.975,39.705,20.975z"/>
			<path d="M38.285,24.387c0.052-0.621-0.231-0.904-0.854-0.854C37.38,24.152,37.664,24.436,38.285,24.387z"/>
			<path d="M36.01,22.393c-0.758-1.133-2.004,1.943-0.283,1.707C35.891,23.6,35.383,22.432,36.01,22.393z"/>
			<path d="M33.452,23.248C32.719,22.268,32.766,24.71,33.452,23.248L33.452,23.248z"/>
			<path d="M32.031,22.964c0.097-0.569-0.058-0.89-0.567-0.853c0,0.281,0,0.566,0,0.853C31.652,22.964,31.842,22.964,32.031,22.964z
				"/>
			<path d="M30.61,22.111c-0.07-0.311-0.564-0.193-0.568-0.569c-0.289,0.187-0.294,0.654-0.853,0.569
				c-0.114,1.061,0.228,1.668,1.137,1.703C30.212,23.061,29.1,22.199,30.61,22.111z"/>
			<path d="M30.041,14.721c0.053-0.619-0.231-0.903-0.853-0.853C29.137,14.489,29.421,14.772,30.041,14.721z"/>
			<path d="M29.758,24.387c-0.125-0.352-0.364-0.584-0.854-0.568c-0.079,0.459,0.271,0.488,0.285,0.853
				C29.417,24.615,29.473,24.385,29.758,24.387z"/>
			<path d="M28.904,22.682c-0.063-0.41-0.849-0.101-0.853-0.568C27.139,22.432,28.326,22.922,28.904,22.682z"/>
			<path d="M28.62,14.436c-0.123-0.35-0.363-0.584-0.854-0.567c-0.079,0.459,0.27,0.489,0.285,0.853
				C28.282,14.667,28.333,14.436,28.62,14.436z"/>
			<path d="M28.051,21.826C27.862,20.524,26.331,22.057,28.051,21.826L28.051,21.826z"/>
			<path d="M27.482,23.532c-0.475-0.563,0.025-0.361,0-1.14c-0.379,0-0.758,0-1.137,0C27,22.499,26.618,23.641,27.482,23.532z"/>
			<path d="M26.346,13.584c0.235,0.803-0.4,0.736-0.283,1.422C27.156,15.088,27.575,13.667,26.346,13.584z"/>
			<path d="M25.494,22.964c0.134-0.604-0.405-0.542-0.854-0.567c0.056,0.229,0.287,0.283,0.285,0.567
				C25.114,22.964,25.303,22.964,25.494,22.964z"/>
			<path d="M24.356,15.006c0.78-0.106,1.522-1.002,0.853-1.705C24.521,13.463,24.577,14.374,24.356,15.006z"/>
			<path d="M25.208,21.542c0-0.188,0-0.378,0-0.567c-0.188,0-0.379,0-0.568,0c0,0.189,0,0.378,0,0.567
				C24.83,21.542,25.02,21.542,25.208,21.542z"/>
			<path d="M24.641,24.387c0-0.189,0-0.381,0-0.568c-0.189,0-0.379,0-0.567,0c0,0.188,0,0.379,0,0.568
				C24.262,24.387,24.451,24.387,24.641,24.387z"/>
			<path d="M24.073,13.584c-0.954-0.195-1.04,0.477-1.138,1.137C23.889,14.917,23.975,14.245,24.073,13.584z"/>
			<path d="M23.788,22.682c-0.005-0.437-2.106-0.623-1.706,0.282C22.783,23.001,23.452,23.008,23.788,22.682z"/>
			<path d="M21.514,22.964c0.418-0.827-1.271-0.827-0.853,0C20.945,22.964,21.229,22.964,21.514,22.964z"/>
			<path d="M20.376,15.006c-0.031-0.727-0.951-0.563-1.705-0.568C19.021,14.844,19.648,14.975,20.376,15.006z"/>
			<path d="M19.524,24.387c0-0.189,0-0.381,0-0.568c-0.19,0-0.379,0-0.569,0c0,0.188,0,0.379,0,0.568
				C19.146,24.387,19.333,24.387,19.524,24.387z"/>
			<path d="M18.955,23.248c-0.262-0.495,0.01-1.523-0.853-1.422C18.046,22.641,18.068,23.378,18.955,23.248z"/>
			<path d="M18.103,15.006c0.292-0.955-0.886-0.443-1.421-0.568C16.921,14.86,17.598,14.848,18.103,15.006z"/>
			<path d="M17.535,22.964c0-0.188,0-0.379,0-0.567c-0.188,0-0.379,0-0.567,0c0,0.188,0,0.379,0,0.567
				C17.156,22.964,17.346,22.964,17.535,22.964z"/>
			<path d="M17.25,13.869c-0.123-0.351-0.363-0.584-0.853-0.567C16.149,14.286,16.835,14.275,17.25,13.869z"/>
			<path d="M16.397,21.542c0-0.188,0-0.378,0-0.567c-0.19,0-0.379,0-0.569,0c0,0.189,0,0.378,0,0.567
				C16.019,21.542,16.207,21.542,16.397,21.542z"/>
			<path d="M16.114,23.814c-0.125-0.35-0.363-0.584-0.854-0.566c-0.08,0.459,0.27,0.489,0.285,0.854
				C15.774,24.047,15.829,23.814,16.114,23.814z"/>
			<path d="M13.84,22.393c-0.092,0.66,0.045,1.094,0.283,1.422C14.926,23.836,14.648,22.355,13.84,22.393z"/>
			<path d="M14.691,22.111c0-0.19,0-0.381,0-0.569c-0.188,0-0.379,0-0.568,0c0,0.188,0,0.379,0,0.569
				C14.312,22.111,14.503,22.111,14.691,22.111z"/>
			<path d="M14.691,13.869c-0.206-0.233-1.969-0.763-1.705,0.284c0.33,0.047,0.506-0.062,0.568-0.284
				c0.59,0.071,0.076,1.248,0.567,1.421C14.745,15.248,14.733,14.574,14.691,13.869z"/>
			<path d="M13.271,22.682c-0.276-1.299-2.638-0.82-2.843,0.282C11.368,22.289,12.602,23.198,13.271,22.682z"/>
			<path d="M9.86,23.532c0.831-0.317-0.361-0.924-0.854-0.854C8.564,23.688,9.973,22.85,9.86,23.532z"/>
			<path d="M9.292,20.69c0-0.283,0-0.568,0-0.854c-0.975-0.464-0.854,0.034-1.423,0.569C7.823,21.021,8.878,20.535,9.292,20.69z"/>
			<path d="M8.155,23.248c0.854-0.873-1.348-1.104-2.273-1.137C5.809,23.85,7.549,22.676,8.155,23.248z"/>
			<path d="M8.155,16.996c0.502,0.09,0.508-1.593-0.284-1.138C7.75,16.452,8.064,16.611,8.155,16.996z"/>
			<path d="M8.155,18.701c0-0.379,0-0.758,0-1.138c-0.379,0-0.759,0-1.137,0C7.141,18.198,7.52,18.577,8.155,18.701z"/>
			<path d="M7.301,20.69c0-0.189,0-0.379,0-0.568c-0.188,0-0.377,0-0.566,0c0,0.189,0,0.379,0,0.568
				C6.924,20.69,7.113,20.69,7.301,20.69z"/>
			<path d="M7.301,16.71c0-0.188,0-0.378,0-0.567c-0.188,0-0.377,0-0.566,0c0,0.189,0,0.379,0,0.567
				C6.924,16.71,7.113,16.71,7.301,16.71z"/>
			<path d="M6.449,19.268C7,19.38,6.864,17.973,6.166,18.416c0,0.188,0,0.379,0,0.568C6.407,18.934,6.434,19.096,6.449,19.268z"/>
			<path d="M6.165,17.563c0-0.189,0-0.379,0-0.567c-0.189,0-0.38,0-0.569,0c0,0.188,0,0.378,0,0.567
				C5.786,17.563,5.976,17.563,6.165,17.563z"/>
			<path d="M5.88,13.869c-1.129-0.274-0.884,0.823-1.138,1.421c0.229,0.245,0.778,0.168,0.853,0.568
				C6.813,15.428,5.019,14.883,5.88,13.869z"/>
			<path d="M5.028,16.426c-0.205-1.352-1.164-0.471-2.273-0.567c-0.08,0.509,0.27,0.584,0.284,0.284
				c0.333,0.045,0.239,0.519,0.283,0.854C4.367,16.701,3.585,15.908,5.028,16.426z"/>
			<path d="M175.575,33.766c-2.592,1.609-5.825,2.979-8.812,3.979c-13.624,4.573-29.442,3.794-38.089-3.411
				c-3.228-2.688-5.431-8.728-9.096-10.519c-2.973-1.45-7.895-1.156-12.792-1.137c-13.187,0.06-28.924,0.265-40.362,1.422
				c-12.045,1.221-25.239,3.146-37.521,2.843C20.176,26.725,5.1,29.171,1.332,22.963c-1.134-1.867-1.87-6.408,0-8.811
				c1.632-2.097,7.57-2.421,13.359-2.56c5.256-0.125,10.856,0.264,15.634,0.568c10.535,0.675,20.948,1.838,29.846,2.559
				c15.232,1.232,29.65,3.03,44.912,2.559c4.884-0.151,11.121,0.324,14.496-1.137c2.558-1.107,4.157-3.451,5.969-5.4
				c1.771-1.906,3.566-4.167,5.97-5.686c11.746-7.418,31.94-5.084,42.637,0.854c3.273,1.815,7.215,4.589,8.812,7.392
				c1.358,2.381,1.608,7.148,1.421,8.525C183.583,27.725,180.033,30.997,175.575,33.766z M175.575,9.604
				c-0.33-0.76-1.508-0.024-1.137,0.854c-0.606-0.342-1.55-0.346-1.706-1.137c0.528,0.039,0.948,0.188,1.137,0.568
				c0.88-0.515,0.152-0.871,0.284-1.99c-0.379,1.257-0.947,0.529-1.705,0c-0.422,0.123,0.112,0.363,0,0.853
				c-1.504,0.167-0.182-1.169-0.854-1.421c-1.191-0.104-0.203,0.928-0.283,1.421c-1-0.325-1.097-1.558-1.705-2.272
				c-0.746,1.313-2.229-0.023-3.128-0.283c0.248-0.416,0.426-0.9,1.138-0.854c-0.275-1.076-1.779,0.133-2.273,0.568
				c-0.372-0.955-1.745-0.909-1.989-1.991c-0.374,0.103-0.447,0.501-0.854,0.569c0.303,0.818,0.861,0.941,1.705,0.568
				c0.113,1.25-1.293,0.979-1.989,1.42c-0.212-0.026-0.212-1.109,0-1.138c-0.177-1.161-1.188-0.161-1.138-1.137
				c-0.776-0.207-0.573,0.565-1.137,0.567c-0.639-0.836,0.232-1.885-0.854-2.272c0.569-0.271,3.337-0.313,2.559,1.706
				c1.677-0.102-0.144-0.854,0.568-1.422c1.006,0.095,0.699,0.781,1.705,0.283c-0.525,1.271,0.256,0.734,0.854,0.285
				c0.58,0.508,0.08,1.05,1.138,0.566c0.676,0.084-0.316,0.771-0.568,0.854c0.374,0.719,0.934-0.743,1.705-0.566
				c0.862,0.273,1.515,0.76,2.273,1.139c-0.119,0.637-1.508,0.006-1.705,0.567c0.194,0.356,2.168,0.103,2.272-0.567
				c0.72,0.535-0.262,0.994,0.285,1.703c0.499-0.066,0.647-0.486,0.568-1.136c0.741,0.721,1.97,0.115,2.272,1.705
				c0.538-0.505,1.988-0.318,1.706,0.853c1.268-0.591,2.163,1.358,3.695,1.422c-0.127,0.252-0.25,0.51-0.568,0.568
				c2.013,0.641,2.547,2.76,3.979,3.979c-1.549-0.03-1.557,1.065-0.568,2.273c0.486,0.014,0.736-0.211,0.854-0.566
				c1.45,0.918-0.082,3.944,1.421,4.264c0.357-5.239-2.624-9.055-5.686-11.371c-2.785-2.107-9.746-5.071-13.929-6.253
				c-1.548-0.438-3.347-1.302-5.116-0.853c-0.229-0.246-0.778-0.17-0.853-0.568c-0.479,0.498,0.994,1.455,1.137,2.273
				c-0.187,0.381-0.606,0.527-1.137,0.567c-0.303-0.505-0.022-1.298-1.138-0.567c-0.049-0.713,0.438-0.891,0.854-1.139
				c-1.19-0.469-2.852-0.493-3.979-0.284c0.158,0.58,0.854,0.56,0.284,1.14c-0.729-0.029-0.457-1.062-0.853-1.422
				c-0.707,0.562-2.143,0.037-2.274-0.854c-0.474,0-0.946,0-1.421,0c-0.277,0.204,1.683,0.574,1.99,1.137
				c-0.188,0.854-0.608-0.271-1.138,0c0.084,0.58,0.77,0.56,0.853,1.14c-0.339,0.584-1.541-0.607-1.137,1.137
				c-0.712,0.047-0.89-0.438-1.137-0.854c0.208-0.268,0.517-0.432,0.853-0.568c-0.29-0.373-0.279-1.049-0.568-1.422
				c-0.771-0.203,0.203,1.341-0.568,1.138c-0.628-0.036-0.12-1.206-0.283-1.705c-0.609,0.493-0.95,2.256,0.283,2.274
				c-0.303,0.264-0.088,1.048-0.854,0.853c-0.51-0.533-0.627-1.458-1.137-1.989c-0.887-0.135-0.135,0.37-0.284,0.567
				c-0.357,0.474-1.542,0.287-1.421,1.422c-0.736-0.366-0.894-0.589-0.569-1.422c-0.498,0.26-0.986,0.528-0.853,1.422
				c0.229,0.149,0.462,0.296,0.853,0.284c0.12,0.973-0.851,0.854-1.136,1.422c-0.221-0.729-0.817-1.079-1.991-0.854
				c0.287-1.107,0.979-0.045,1.991-0.285c-0.201-0.842-1.635-0.45-1.706-1.42c-0.622,0.041-0.609,0.716-0.567,1.42
				c-0.705-0.041-1.381-0.053-1.423,0.568c-0.681,0.111,0.159-1.296-0.853-0.854c-0.163,1.016-0.065,1.679-1.421,1.988
				c0.035,0.629,1.206,0.121,1.705,0.285c-0.269,1.366-2.297,0.186-2.843,0c-0.124,0.658-1.256,0.76-0.568,1.422
				c-1.107-0.381-1.474,0.146-2.273-0.285c-0.08-0.647,0.068-1.068,0.568-1.137c-0.602-0.943-0.825,0.854-1.705,0.566
				c1.424,0.584,1.084,3.62,1.42,4.833c-0.555-0.222-1.721-1.283-0.852-1.989c-0.651-0.816-1.062,0.527-0.568,1.137
				c-0.089,0.387-0.712,0.235-1.138,0.285c-0.333-0.046-0.239-0.519-0.283-0.854c-0.455-0.164-0.772,2.121-2.274,1.138
				c0.055,1.476-0.771,2.069-1.706,2.558c0.694,0.949,1.491-0.381,1.706-0.853c0.599,0.255,1.696,0.009,1.422,1.138
				c0.451-0.285,1.144-0.27,0.567-0.854c1.704,0.554-0.56,3.206,1.706,0c0.113,0.73,0.091,1.578,1.137,1.988
				c-0.661,0.059-2.492,0.623-2.843-0.283c-1.065-0.214-0.62,1.085-1.421,1.137c-0.725-0.626,0.733-1.505,0-2.558
				c-0.407,0.351-0.539,0.978-0.568,1.704c-0.229-0.243-0.778-0.168-0.854-0.567c-0.781,0.254,0.662,1.153-0.854,0.854
				c0.597,1.031,1.421,0.078,2.274,0.853c0.133,0.892-0.715,0.801-1.137,1.138c-0.712,0.047-0.891-0.438-1.139-0.854
				c-0.693,1.417,2.006,1.438,2.559,1.422c0.332,0.427,0.822,0.694,0.854,1.421c-0.764,0.023-1.622-0.555-2.559-1.137
				c0.16,1.601-1.117,0-1.137,1.422c-0.441-0.344-1.107-0.908-1.705-0.285c0.187,0.852,0.606-0.271,1.137,0
				c0.211,0.875-0.78,0.547-0.568,1.42c0.718-0.96,1.596-0.071,1.705-1.42c0.267,0.209,0.432,0.518,0.568,0.854
				c-0.008,0.276-0.348,0.22-0.568,0.283c-0.519,0.223,0.171,0.307,0.568,0.284c0.222-0.253,0.307-0.641,0.285-1.135
				c1.688,0.438,2.653,0.122,3.126,1.988c-0.882,0.028-0.812-0.895-1.989-0.568c0.446,1.488-0.573,1.512-0.853,2.273
				c0.799-0.291,1.21-0.321,1.136,0.854c0.427-0.332,1.164-0.354,1.423-0.854c0.547,0.115,0.224,1.103,1.136,0.854
				c0.08-0.459-0.268-0.489-0.283-0.854c1.157,0.234,0.979,0.045,2.273,0c0.232,1.086-0.605,1.101-1.137,1.422
				c0.098,0.66,0.184,1.332,1.137,1.137c0.286,0.855-0.634,0.505-1.137,0.568c0.653,0.783,1.743,1.039,2.558,0.285
				c-0.171,0.697-1.271,1.932,0.284,1.988c-0.364-0.375-0.364-1.048,0-1.422c0.584,0.079,0.568,0.76,0.854,1.137
				c-0.763,0.28-0.522,1.223,0,1.706c-0.412,0.63-1.274,0.812-1.706,1.423c0.07,0.309,0.565,0.191,0.568,0.566
				c-0.247,0.84-0.426-0.659-1.137-0.284c0.592,0.566,0.01,1.216-0.569,1.421c0.651,0.633,1.307-1.145,2.56-0.852
				c-0.147-0.422-0.42-0.719-0.568-1.139c0.688,0.211,0.854-1.033,1.706-1.422c0.156-0.631-0.542-0.404-0.568-0.854
				c0.277-0.291,0.562-0.575,0.854-0.852c0.401,0.752,0.146,1.594-0.284,2.558c0.822-0.126,1.296-0.601,1.421-1.423
				c0.503,0.257,0.83,0.688,1.422,0.854c-0.262,0.496-0.889,0.627-1.706,0.568c0.081,0.962,1.783,0.302,1.137,1.988
				c1.095-0.851,2.354-0.357,3.411,0.283c0.116,0.687-0.52,0.618-0.283,1.422c-0.819-0.033-1.86,0.155-2.273-0.283
				c-0.122-0.459,1.06-0.953,1.137-0.284c0.241,0.053,0.269-0.11,0.284-0.284c0-0.284,0-0.566,0-0.854
				c-0.371,0.672-1.805,0.279-1.705,1.422c-0.582,0.16-2.133-0.088-1.138-0.568c-0.41-0.839-1.146,0.339-0.854,1.139
				c1.008-0.479,1.617,0.29,2.274-0.283c0.41,0.348,0.431,1.084,0.852,1.42c0.512,0.037,0.602-0.349,1.139-0.283
				c0.203-0.771-1.341,0.203-1.139-0.568c0.363-0.681,2.369,0.284,1.706-1.422c0.331,0.047,0.507-0.062,0.568-0.284
				c0.49,0.849,0.43,2.908,1.706,3.695c0.411-0.988,0.969-2.179,3.127-1.421c-0.059-0.984-1.567-0.518-2.274-0.854
				c0.353,0.791-0.92,0.791-0.567,0c-0.388,0.088-0.236,0.713-0.284,1.137c-1.376-0.063-0.272-0.846-0.854-1.705
				c0.126-0.252,0.25-0.508,0.569-0.568c0.067,0.786,1.402,0.303,1.705,0.854c0.127,0.031,0.162-1.75,0.568-0.282
				c0.471-0.288,0.309-1.207,0.567-1.705c-0.188,0-0.379,0-0.567,0c0.113-0.458,1.668,0.01,1.989,0.282
				c-0.124,0.423-0.363-0.111-0.853,0c0.271,1.287,1.438,2.396,2.558,1.99c0.498,0.066-0.426,1.058-0.567,1.42
				c0.587,0.396,1.634-0.726,2.843,0c-0.222,0.254-0.306,0.644-0.284,1.14c1.021-0.453,0.451-1.646,1.705-0.569
				c0.036-0.51-0.349-0.599-0.284-1.137c-1.02,0.55-1.042-0.109-1.99-0.284c1.813-1.14,2.957,0.073,3.696,0.854
				c0.035,0.51-0.349,0.6-0.285,1.138c0.92,0.351,0.218-0.921,1.138-0.569c0.005-0.416-1.197-0.9,0-0.854
				c-0.079-0.658-0.76-0.652-1.138-0.283c0.499-1.271,1.676-1.118,2.559-1.422c0.516,0.086-0.287,1.195-0.567,1.422
				c-0.122,0.785,1.061,0.268,1.137,0.854c0.281-0.474-0.353-0.764-0.283-1.705c1.062-0.306,0.81,0.705,1.706,0.567
				c0.898-2.124,2.9,0.039,3.979-1.422c0.357,0.284-0.756,1.147,0.284,1.706c0.667-1.266,1.042-1.73,0.284-2.844
				c-0.333,0.047-0.239,0.519-0.284,0.854c-0.378-0.285-1.059-0.27-1.137-0.854c0.278-0.383,0.758-0.567,1.137-0.854
				c0.581,1.383,1.978,0.829,1.989,3.127c0.254-0.601,1.213-0.492,1.138-1.422c-0.775-0.206-0.572,0.564-1.138,0.569
				c0.226-0.998,0.799-0.938,0-1.705c1.748-1.854,2.714,1.065,3.41,1.42c-0.447-1.009,0.049-1.313-0.567-2.272
				c0.431-0.859,1.247,0.234,1.99,0c-0.771-1.139,0.742-1.18,1.704-0.854c0.135-0.893-0.715-0.803-1.137-1.139
				c0.454-0.797,1.279,0.398,2.273,0c-0.896-1.069,1.349-1.219,1.99-0.853c-0.084-0.58-0.77-0.558-0.854-1.139
				c1.031,0.149,1.765-0.019,2.273,1.139c0.583-0.88-1.148-1.875-2.273-1.989c0.32-0.604,1.453,0.519,1.706-0.567
				c0.525,0.043,0.174,0.962,0.567,1.137c0.066-1.26,1.244-1.408,1.705-2.272c0.637,0.123,0.115,1.399,0.284,1.988
				c1.202-0.132,0.609-2.404-0.567-2.558c0.418-0.909,1.765-0.89,1.988-1.99c-0.647,0.079-1.067-0.067-1.137-0.567
				c0.193-0.384,0.865,0.248,1.137-0.567c0.241,0.61,1.048,0.657,1.99,0.567c0.079,0.459-0.27,0.488-0.284,0.854
				c-0.804,0.234-0.736-0.4-1.422-0.284c0.15,0.229,0.297,0.461,0.284,0.853c0.62,0.184,0.904-0.806,0.854,0.285
				c0.878-0.733,1.149-2.069,1.138-3.695c-0.423,0.24-0.411,0.917-0.568,1.421c-0.743,0.08-1.224-0.104-1.138-0.854
				c0.101-0.399,0.501-0.023,0.568,0.282c0.789-0.725-1.01-1.436-1.705-0.852c0.263-1.063,1.938-0.715,1.705-2.273
				c-0.42,0.329-0.717,0.329-1.138,0c0.222-0.254,0.307-0.643,0.284-1.138c-0.913,0.176-0.39-1.022-1.137-0.283
				c-0.737-0.542,0.198-2.968-1.138-3.127c0.927-1.521-1.023-1.536-1.138-2.843c-1.158,0.211-0.979-0.916-2.272-0.568
				C175.514,10.544,174.877,9.637,175.575,9.604z M182.681,24.953c-0.528-0.604-1.119,1.141-1.422,1.705
				C182.272,26.631,182.093,25.409,182.681,24.953z M181.542,25.238c0.052-0.621-0.231-0.904-0.853-0.854
				c0.036,0.51-0.35,0.6-0.284,1.137C180.917,25.557,181.005,25.176,181.542,25.238z M178.701,27.796
				C177.649,28.658,179.564,28.753,178.701,27.796L178.701,27.796z M177.28,30.069c-0.761-0.681-1.291,0.173-2.274-0.284
				C175.413,30.799,176.765,30.047,177.28,30.069z M174.153,32.059c0.834-0.241-0.169-0.916,0-1.422
				C173.156,30.862,173.825,31.635,174.153,32.059z M167.616,36.605c0.113-0.551-1.294-0.413-0.854,0.285c0.189,0,0.379,0,0.568,0
				C167.279,36.649,167.443,36.623,167.616,36.605z M163.068,36.605c0.104-0.481-0.223-0.534-0.568-0.566
				c0.052,0.242-0.111,0.27-0.284,0.284C162.261,36.656,162.732,36.561,163.068,36.605z M160.509,37.178
				c0.803-0.187-0.653-0.33-0.853-0.285C159.084,37.021,159.427,37.428,160.509,37.178z M151.128,38.883
				c-0.221-0.254-0.306-0.644-0.284-1.139C150.343,37.654,150.337,39.337,151.128,38.883z M149.993,38.598
				c-0.352-0.689-0.239-1.846-1.137-1.988C149.391,37.112,148.856,38.689,149.993,38.598z M148.855,36.323
				c0.851-0.188-0.272-0.606,0-1.138C148.147,35.227,148.772,36.146,148.855,36.323z M148.571,36.605
				c-0.771,0.801-0.706,0.227-1.705,0c-0.116,0.688,0.52,0.619,0.284,1.424C147.735,37.666,148.592,37.575,148.571,36.605z
				 M147.718,40.016C147.529,38.715,145.998,40.246,147.718,40.016L147.718,40.016z M143.455,39.449c0-0.188,0-0.379,0-0.566
				c-0.189,0-0.378,0-0.568,0c0,0.188,0,0.379,0,0.566C143.077,39.449,143.265,39.449,143.455,39.449z M138.623,38.311
				c0.021-0.969-1.053-0.84-1.989-0.853C137.052,38.248,137.731,37.645,138.623,38.311z M137.486,32.628
				c-0.036,0.511,0.348,0.601,0.284,1.138C138.578,33.729,138.316,32.555,137.486,32.628z M137.202,35.473
				C136.149,36.332,138.064,36.43,137.202,35.473L137.202,35.473z M137.202,5.911c-0.447-0.217-0.425-0.902-1.138-0.854
				C136.312,5.473,136.29,6.157,137.202,5.911z M136.917,35.186c0.104-0.482-0.222-0.536-0.568-0.568
				c0.054,0.241-0.11,0.27-0.284,0.285C136.11,35.235,136.582,35.141,136.917,35.186z M136.917,32.059
				C136.049,32.684,137.246,33.88,136.917,32.059L136.917,32.059z M136.633,34.333c0-0.188,0-0.379,0-0.567c-0.189,0-0.38,0-0.568,0
				c0,0.188,0,0.381,0,0.567C136.252,34.333,136.442,34.333,136.633,34.333z M135.496,31.207c0.273-1.305-1.508-1.665-1.705-0.854
				c-0.309-0.068-0.192-0.563-0.568-0.567c0.089-1.126,0.987,0.317,0.854-0.853c-0.933-0.108-1.253-0.832-1.989-1.139
				c-0.234-0.804,0.4-0.734,0.284-1.421c-1.385,0.247-1.317-0.957-2.274-1.137c0.734,2.676,2.959,3.862,3.979,6.253
				C134.759,31.605,134.692,30.973,135.496,31.207z M135.21,4.489c-0.208-0.506-0.517-0.041-0.853,0
				C134.566,4.995,134.875,4.53,135.21,4.489z M133.504,32.059c-0.146-0.422-0.419-0.717-0.566-1.138
				C132.31,31.037,132.557,32.589,133.504,32.059z M133.222,32.912c-0.209-0.506-0.517-0.041-0.853,0
				C132.578,33.418,132.886,32.953,133.222,32.912z M130.378,28.646c-0.269,0.49-1.051,0.467-0.853,1.423
				c1.11-0.276,1.97,1.147,0.853,1.422c0.46,0.438,2.068-0.381,1.99-1.422C131.516,31.1,129.745,29.864,130.378,28.646z
				 M131.8,8.184C130.749,9.045,132.665,9.141,131.8,8.184L131.8,8.184z M131.8,29.219c0.105-0.484-0.221-0.537-0.566-0.568
				c0.052,0.242-0.111,0.269-0.285,0.285C130.994,29.266,131.466,29.172,131.8,29.219z M129.811,25.52
				c-1.065-0.164-1.043-0.025-1.989-0.566c0,0.285,0,0.566,0,0.854c0.567,0,1.137,0,1.705,0c0.005,0.416-1.199,0.899,0,0.853
				C129.491,26.149,129.874,26.059,129.811,25.52z M129.527,31.207c0-0.189,0-0.379,0-0.566c-0.189,0-0.379,0-0.568,0
				c0,0.188,0,0.377,0,0.566C129.147,31.207,129.336,31.207,129.527,31.207z M129.242,30.352
				C129.124,29.122,127.593,30.653,129.242,30.352L129.242,30.352z M128.674,32.628C129.537,33.051,126.627,31.627,128.674,32.628
				L128.674,32.628z M128.674,22.964c-0.238-0.329-0.375-0.762-0.284-1.422c-1.015,0.476-0.563,0.765-0.854,1.706
				C127.79,23.027,128.179,22.942,128.674,22.964z M127.537,23.532c-0.942,0.446-0.854,1.019-0.568,1.706
				C127.439,24.951,127.277,24.03,127.537,23.532z M126.968,22.964c0.733-0.067-0.391-0.487,0-1.138c-0.188,0-0.379,0-0.567,0
				c0.053,0.241-0.111,0.27-0.284,0.285C126.029,22.766,126.937,22.428,126.968,22.964z M126.116,26.09
				c-0.304-0.265-0.088-1.048-0.854-0.852C125.566,25.503,125.351,26.286,126.116,26.09z M125.546,18.417
				c0.521-0.354-0.491-1.098-1.137-0.568C124.206,18.62,125.75,17.643,125.546,18.417z M120.146,18.133
				C119.286,17.081,119.188,18.995,120.146,18.133L120.146,18.133z M119.009,19.837C119.988,19.102,117.549,19.151,119.009,19.837
				L119.009,19.837z M118.724,20.69c-0.349,0.125-0.583,0.365-0.567,0.852C118.763,21.676,118.698,21.139,118.724,20.69z
				 M117.02,20.407c-0.434-0.598-1.767,0.299-1.705,1.135C115.938,21.221,116.259,20.592,117.02,20.407z M114.746,19.837
				c1.033,0.576,1.612-0.036,1.99-0.853c-0.574-1.438-0.945-0.028-1.99-0.568c0.043,0.621,0.717,0.61,1.422,0.568
				C116.306,19.88,114.864,19.198,114.746,19.837c-0.826-0.247-0.319-0.426-0.283-1.137c-0.981,0.224-1.25-0.267-1.422-0.853
				c-0.506,0.207-0.041,0.517,0,0.853c-0.847,0.408-1.73-0.997-1.705,0.284c-0.876-0.662-1.029-0.227-1.705,0
				c-0.291,0.097-1.125-0.559-1.422-0.568c-0.95-0.033-2.384,0.393-3.411,0.284c-0.384-0.04-0.825-0.569-0.853-0.567
				c-0.351,0.01-0.483,0.486-0.854,0.567c-1.123,0.247-1.587-0.224-2.843,0.284c-0.333-0.047-0.239-0.52-0.284-0.854
				c-0.68-0.617-2.159,0.571-2.272,0.568c-0.171-0.004-1.542-1.385-1.422,0c-0.727-0.28-1.189-0.999-1.705,0
				c-0.504-0.255-0.362-1.153-1.422-0.854c0.15,0.229,0.297,0.461,0.284,0.854c-0.624,0.119-0.413-0.493-0.853-0.568
				c-0.665-0.113-0.352,0.536-0.569,0.568c-0.277,0.042-0.544-0.497-0.853-0.568c-0.453-0.104-0.493,0.288-0.854,0.284
				c-0.586-0.008-0.93-0.978-1.42,0c-0.767,0.195-0.551-0.588-0.854-0.853c-0.655-0.088-0.313,0.82-0.853,0.853
				c-0.867,0.017-0.683-1.024-1.705-0.853c0.611,0.621-0.072,0.609-0.854,0.567c0.15-0.229,0.297-0.461,0.284-0.854
				c-0.334,0.081-1.183,1.253-1.138,0c-0.67,0.088-0.528,0.987-1.422,0.854c-0.408-0.063-0.099-0.849-0.567-0.854
				c-0.606-0.134-0.541,0.407-0.568,0.854c-0.803,0.044-0.712-0.804-1.137-1.137c-0.351,0.124-0.584,0.364-0.569,0.853
				c-0.35-0.123-0.584-0.363-0.568-0.853c-0.379,1.233-1.238-0.052-1.705,0c-0.278,0.03-0.699,0.552-1.137,0.567
				c-0.533,0.02-0.687-0.562-0.854-0.567c-0.189-0.009-0.596,0.563-0.568,0.567c-0.572-0.105-0.242-0.633-0.568-0.854
				c-0.745-0.501-2.409-0.354-3.694-0.283c-0.022,0.002,0.026,0.562,0,0.568c-1.529,0.35-4.457,0.443-5.969-0.854
				c-0.774,1.388-1.54-0.237-2.56-0.285c0.959,0.964-1.99,0.67-1.99,0c-1.006,1.127-2.188,0.72-2.842-0.283
				c-1.334,1.302-1.759-0.624-3.41-0.567c-0.211,0.968,1.047,0.468,1.138,1.138c-0.953,1.023-1.234-1.024-2.274-0.854
				c-0.056,0.799,1.227,0.819-0.283,0.854c-0.423-0.125,0.11-0.364,0-0.854c-0.529-0.039-0.951-0.187-1.138-0.567
				c-0.584,0.553-0.694,1.578-1.705,1.705c0.034-0.725,0.413-1.103,1.138-1.138c-0.338-0.517-1.482-0.224-1.99-0.567
				c0.101,0.373,0.5,0.446,0.568,0.853c-1.803-2.2-3.763,0.522-5.97-0.853c0,0.379,0,0.758,0,1.137
				c-0.627,0.119-1.567-0.853-0.853-1.137c-0.543-0.582-1.234-0.57-1.99-0.285c0.161,0.592,0.812,0.92,0.283,1.422
				c-1.016-0.361-0.747-0.926-0.566-1.989c-0.991,0.431-1.652,1.19-3.412,0.853c-0.023-0.402-0.047-0.806,0.285-0.853
				c-0.902-0.792-1.923,0.718-2.843,0.853c-0.013-0.485,0.211-0.735,0.567-0.853c-0.725-0.47-1.904-0.479-2.559-0.284
				c0.046,0.332,0.52,0.24,0.854,0.284c0.08,0.459-0.269,0.489-0.283,0.853c-0.801-0.053-1.213-0.494-1.139-1.42
				c-3.748,0.148-4.783-0.012-8.527-0.285c-0.357,1.586-1.077,0.779-1.989,1.138c-0.099,0.039,0.41,0.334,0.569,0.284
				c-1.057,0.332-0.971-0.754-2.56-0.854c0.706-0.87,1.726,0.342,2.843,0c-0.633-1.691-1.285-0.463-3.41-0.568
				c0.149,0.229,0.297,0.461,0.283,0.854c-0.188,0-0.379,0-0.567,0c-0.616,0.048-0.13-1.009-0.284-1.421
				c-0.616,0.926-2.229-0.547-1.705,1.137c-0.926,0.239-2.146-0.666-1.706-0.853c-0.694-0.338-1.015,1.014-2.558,0.283
				c0.046,0.33-0.063,0.506-0.285,0.568c0.043,0.525,0.963,0.174,1.138,0.568c0.036,0.51-0.348,0.6-0.284,1.137
				c-1.101,0.248-0.465-1.241-1.705-0.854c-0.156,0.632,0.543,0.406,0.567,0.854c-0.394,0.07-1.312,0.02-1.705-0.854
				c1.22,0.02,0.831-0.957-0.567-1.137c-0.054,1.282-0.533,1.604,0.567,1.989c-0.426,0.938-0.694-0.591-1.421-0.283
				c-0.206-0.87,0.291-1.036,0.284-1.706c-0.284,0-0.568,0-0.854,0c0.135,1.068,0.881,2.441-1.137,2.273
				c0.641-0.776,0.73-1.256,0.854-1.989c-0.348-0.511-1.746,0.319-2.844,0c0.121,0.595-0.193,0.752-0.283,1.138
				c-0.252-0.127-0.509-0.25-0.567-0.568c-1.486,1.295-1.048,2.627-1.99,3.41c0.279,0.871,0.759-0.326,1.138-0.284
				c0.536,0.214,0.196,0.849,0.854,0.284C3.771,18.41,2.42,20,2.468,20.971c0.778,1.032,0.668-1.205,1.139-1.42
				c0.357,0.069,0.287,0.564,0,0.567c0.188,0.853,0.607-0.271,1.137,0c0.153,1.006-1.007,0.699-0.854,1.705
				c0.949,0.285,0.934-0.396,0.854-1.137c0.721,0.512,1.611-0.539,1.99,0.568c-0.461,0.426-1.368-0.188-1.99,0.568
				c0.709,0.714,1.391,1.452,2.273,1.988c1.156-1.174,1.878,0.703,3.412,0c0.047,0.711-0.438,0.893-0.854,1.139
				c-0.765,0.193-0.549-0.588-0.853-0.854c-0.229,0.054-0.284,0.285-0.568,0.283c0,0.284,0,0.568,0,0.854
				c0.738-0.767,0.855,0.348,1.705,0.282c-0.048-0.994,1.001-0.895,1.421-1.42c0.849,0.793-0.545,1.562,1.706,1.42
				c-0.188-0.381-0.607-0.527-1.137-0.566c0.343-0.439,0.906-1.105,0.283-1.705c0.592,0.293,3.151,1.219,1.705,1.705
				c0.26,0.493,0.996,0.734,1.422,0.284c0.156-0.632-0.543-0.404-0.568-0.854c1.072-1.054,1.072,1.377,2.273,1.137
				c-0.233-0.866-0.8-0.682-0.283-1.705c0.673,1.033,2.963,0.447,3.41,1.705c-0.097-0.643,0.616-1.722,1.422-2.271
				c0.721,0.467-0.924,0.951-0.569,1.989c0.451,0.022,1.086-0.138,1.138,0.282c0.787-0.121,0.016-0.895-0.568-0.566
				c-0.137-0.896,0.873-0.645,0.568-1.705c2.316,0.448,0.696,2.117,0.854,2.271c0.203,0.203,1.484-1.861,1.705,0.285
				c0.387-0.088,0.236-0.713,0.285-1.138c0.698,0.558,2.547,0.442,2.558-0.567c0.386,0.088,0.235,0.711,0.284,1.138
				c1.572-0.103,3.039-0.729,3.41,0.853c0.422-0.124-0.111-0.361,0-0.853c0.92,0.026,0.606,1.288,1.989,0.853
				c-0.888-0.344-1.127-1.336-2.272-1.421c0.63-0.66,0.251-0.761,0.568-1.421c1.316,0.463-0.429,0.693,0.283,1.421
				c0.319,0.327,1.204-0.272,1.137-0.284c0.647,0.096,0.277,0.989,0.854,1.424c0.387-1.228,1.872-0.721,2.273,0.281
				c0.864-0.35-0.308-0.978,0-1.705c0.125-0.35,0.364-0.584,0.854-0.566c0.839,0.248-0.66,0.426-0.285,1.137
				c0.379,0,0.759,0,1.138,0c-0.244,0.229-0.17,0.779-0.568,0.854c0.376,0.629,1.226-0.646,1.422-1.138
				c2.2,1.323,3.549-0.56,6.254,0.569c-0.081-0.459,0.27-0.49,0.283-0.854c0.447,0.121,0.242,0.896,1.138,0.567
				c-0.103-0.373-0.501-0.447-0.567-0.853c1.071,0.426,3.59,0.375,2.842-0.854c0.46-0.08,0.488,0.271,0.854,0.283
				c0.211,0.875-0.781,0.547-0.568,1.422c0.55-0.879,2.66-0.949,1.42-1.422c0.584-1.013,1.009,0.478,1.139,0.854
				c1.312,0.109,3.332-1.208,3.979,0c0.387-0.088,0.235-0.711,0.283-1.137c1.375,0.304,1.577,0.09,2.844,0.283
				c-0.006-1.132-1.455-0.818-1.138-2.273c0.405,1.355,2.142,1.104,1.706,2.273c0.731,0.012,2.482,0.125,2.842-0.853
				c-0.373,0.604,2.479,0.881,3.127-0.285c0.765-0.194,0.549,0.588,0.854,0.854c1.259-0.417-0.439-0.753,0-1.99
				c1.041,0.002,0.417,1.668,1.706,1.423c0.034-0.512-0.349-0.601-0.285-1.139c0.396,0.46,0.806,0.9,1.138,1.422
				c0.831-0.459,0.111-0.898,0.568-1.422c0.564,0.193,0.65,0.866,1.137,1.139c0.327-0.863,0.688,0.036,1.139,0
				c0.291-0.025,1.156-1.341,1.42,0c0.334-0.047,0.24-0.519,0.285-0.854c0.446,0.123,0.242,0.896,1.137,0.567
				c0.023-0.448-0.137-1.084,0.283-1.138c0.387,0.089,0.236,0.714,0.285,1.138c1.08,0.037,1.34-0.744,1.422-1.705
				c0.283,0,0.567,0,0.853,0c-0.128,0.996-0.909,0.895-0.853,1.421c0.067,0.703,1.414-1.279,1.137,0.568
				c0.333-0.426,1.181-0.336,1.137-1.14c0.484-0.104,0.536,0.224,0.568,0.567c0.667-0.092,0.637-0.879,1.138-1.136
				c0.13,1.796,2.452-0.043,3.126,1.136c0.926-0.211,0.864-1.408,1.422-1.988c0.863,0.352-0.309,0.978,0,1.705
				c2.153,0.421,2.732-1.013,3.979,0c0.171-1.625,0.438-0.188,0.854,0c0.511,0.23,5.104,0.104,4.833-0.853
				c0.164,0.876,1.085,1,2.272,0.853c-0.149-0.229-0.297-0.463-0.283-0.853c0.606-0.132,0.542,0.406,0.568,0.853
				c0.681-0.207,1.637-1.069,1.989,0c0.655,0.088,0.315-0.821,0.854-0.853c0.333,0.044,0.239,0.519,0.283,0.853
				c1.621-0.745,3.587,0.503,3.979-1.136c0.765-0.195,0.549,0.585,0.853,0.852c0.921-0.271,2.428,0.041,1.706-1.135
				c0.583,0.078,0.567,0.758,0.853,1.135c1.275-0.401,1.955,0.126,2.844-0.852c0.332,0.047,0.24,0.518,0.283,0.852
				C112.159,20.993,114.356,22.037,114.746,19.837z M22.65,23.814c-0.553-0.111-0.415,1.297,0.284,0.854c0-0.188,0-0.379,0-0.567
				C22.693,24.153,22.667,23.989,22.65,23.814z M10.712,13.301C10.655,12.379,10.812,14.897,10.712,13.301L10.712,13.301z
				 M38.569,14.153c0.111-0.553-1.295-0.415-0.854,0.283c0.188,0,0.379,0,0.568,0C38.231,14.195,38.396,14.168,38.569,14.153z
				 M6.165,24.387c-0.124-0.636-0.503-1.015-1.138-1.139C5.062,23.973,5.44,24.35,6.165,24.387z M2.469,19.268
				c0.387-0.088,0.236-0.711,0.285-1.137c-0.373,0.102-0.447,0.502-0.854,0.568C1.971,19.008,2.467,18.893,2.469,19.268z"/>
			<path d="M159.087,6.477c-0.446-0.217-0.425-0.9-1.137-0.854C157.865,6.375,158.544,6.358,159.087,6.477z"/>
			<path d="M151.415,28.934C152.162,29.637,153.061,28.113,151.415,28.934L151.415,28.934z"/>
			<path d="M145.729,34.617c0.436-0.003,0.935-0.773,0-0.566c0.254-0.505,1.152-0.361,0.853-1.423
				c-0.655-0.087-0.316,0.821-0.853,0.854c-0.23-0.055-0.284-0.285-0.568-0.283c0.646-0.441,0.536-0.594,0.284-1.422
				c-0.604,0.533-0.95,1.324-1.421,1.988C144.887,33.754,145.894,33.6,145.729,34.617z"/>
			<path d="M144.023,32.346c0.875-0.283-0.317-0.77-0.569-0.854C142.578,31.777,144.271,31.762,144.023,32.346z"/>
			<path d="M138.337,26.658c-0.679,0.271-1.854,0.902-1.137,1.705C137.802,28.016,137.999,27.266,138.337,26.658z"/>
			<path d="M134.358,11.594C133.658,12.342,135.179,13.242,134.358,11.594L134.358,11.594z"/>
			<path d="M132.938,20.407c0.542-0.197-0.308-0.443-0.284,0c-0.351-0.125-0.584-0.364-0.568-0.854
				c-0.893,0.32-0.751-0.082-1.421,0.283c0.312,0.919,0.767,1.696,1.136,2.558c-0.054,0.23-0.284,0.285-0.282,0.568
				c-1.266,0.312-1.505-1.255-2.275-0.568c-0.169,0.969,2.029,0.806,0.569,1.422c0.512,0.4,2.518-0.123,3.127-0.567
				c-0.122-1.017-0.715-1.56-1.421-1.989C131.864,20.848,132.601,20.828,132.938,20.407z"/>
			<path d="M132.084,18.417c0.182-0.625,0.374-0.943,0-1.706c-0.829,0.253-0.979,0.363-1.421-0.284
				c-0.834,0.021-1.057,0.65-1.423,1.139c0.26,0.837,0.985,2.218,1.991,1.421c0.085-0.748-0.396-0.933-1.139-0.853
				c0.329-0.422,0.329-0.718,0-1.138c0.189,0,0.379,0,0.569,0C131.331,17.276,131.135,18.418,132.084,18.417z"/>
			<path d="M130.378,12.448c0.171-0.173-1.967-0.289-1.705,0.568c0.33,0.045,0.506-0.063,0.567-0.285
				c0.682-0.111-0.156,1.296,0.854,0.854C130.119,13.135,129.958,12.5,130.378,12.448z"/>
			<path d="M74.667,20.122c-0.921-0.352-0.218,0.919-1.138,0.568C73.62,21.292,74.878,20.751,74.667,20.122z"/>
			<path d="M73.531,17.848c0.537-0.023-0.067-1.217-0.853-0.853C72.592,17.651,73.5,17.311,73.531,17.848z"/>
			<path d="M58.75,22.111C60.092,21.668,59.128,20.704,58.75,22.111L58.75,22.111z"/>
			<path d="M40.273,22.393c0.441-0.375-0.779-0.078-1.705-0.281c0.525,0.158,1.418,1.395,0.568,1.988
				C40.367,24.973,39.95,22.887,40.273,22.393z"/>
			<path d="M38,21.542c-0.962-0.106-0.447,1.261-1.705,0.854c-0.08,0.459,0.27,0.49,0.283,0.854c0.19,0,0.379,0,0.568,0
				C36.76,22.01,38.248,22.641,38,21.542z"/>
			<path d="M9.86,20.975c-0.661,0.191-1.194,0.511-1.137,1.419C9.46,22.28,9.542,21.512,9.86,20.975z"/>
			<path d="M5.596,20.122c-0.008-0.275-0.349-0.221-0.567-0.284c0.115-0.548,1.103-0.225,0.853-1.137
				c-1.065,0.914-1.447-1.368-2.272,0.567C4.782,19.042,4.469,20.301,5.596,20.122z"/>
		</g>
	</g>
	<g id="hG0die.tif_1_">
		<g>
			<path d="M392.482,15.006c-0.751-0.088-0.734,0.594-0.854,1.137C392.395,16.124,392.994,15.493,392.482,15.006z"/>
			<path d="M391.345,18.133c0-0.189,0-0.38,0-0.568c-0.188,0-0.379,0-0.567,0c0,0.188,0,0.379,0,0.568
				C390.966,18.133,391.155,18.133,391.345,18.133z"/>
			<path d="M390.207,21.26c0.134-0.606-0.405-0.542-0.853-0.57c0.054,0.23,0.284,0.283,0.283,0.57
				C389.828,21.26,390.019,21.26,390.207,21.26z"/>
			<path d="M389.924,22.964c-0.124-0.351-0.363-0.584-0.854-0.567C389.194,22.745,389.435,22.977,389.924,22.964z"/>
			<path d="M389.924,19.553c0.11-0.551-1.296-0.416-0.854,0.284c0.188,0,0.38,0,0.568,0
				C389.586,19.596,389.749,19.57,389.924,19.553z"/>
			<path d="M389.64,16.143c0.134-0.887-0.715-1.018-1.139-0.569C388.689,15.956,389.11,16.104,389.64,16.143z"/>
			<path d="M389.07,13.869c0.062-0.485-0.484-0.737,0-0.853c-0.188-0.853-0.607,0.271-1.137,0
				C388.182,13.432,388.359,13.917,389.07,13.869z"/>
			<path d="M387.649,24.387c-0.036,0.51,0.349,0.6,0.284,1.137C388.759,25.473,388.617,24.172,387.649,24.387z"/>
			<path d="M387.649,12.731c0-0.379,0-0.758,0-1.137c-0.854-0.287-0.504,0.633-0.567,1.137
				C387.271,12.731,387.459,12.731,387.649,12.731z"/>
			<path d="M387.366,14.436c0.096-0.569-0.06-0.89-0.569-0.853c0,0.284,0,0.568,0,0.853
				C386.986,14.436,387.176,14.436,387.366,14.436z"/>
			<path d="M387.081,26.375C386.891,25.071,385.361,26.602,387.081,26.375L387.081,26.375z"/>
			<path d="M385.944,10.458c-0.381,0.188-0.529,0.607-0.569,1.137C386.171,11.639,386.303,10.791,385.944,10.458z"/>
			<path d="M381.682,31.207c-0.12-0.543-0.104-1.224-0.854-1.138C381.281,30.279,380.764,31.461,381.682,31.207z"/>
			<path d="M380.827,9.889c0-0.188,0-0.379,0-0.567c-0.188,0-0.379,0-0.568,0c0,0.188,0,0.379,0,0.567
				C380.449,9.889,380.64,9.889,380.827,9.889z"/>
			<path d="M380.259,31.774c0.553,0.112,0.416-1.296-0.282-0.854c0,0.189,0,0.38,0,0.568
				C380.217,31.438,380.242,31.6,380.259,31.774z"/>
			<path d="M378.554,8.467c0.133-0.89-0.246-1.269-1.138-1.138C377.451,8.055,377.829,8.434,378.554,8.467z"/>
			<path d="M376.849,7.616c0.212-0.876-0.779-0.547-0.567-1.422c-0.896-0.137-1.112,0.404-1.706,0.568
				C375.247,7.524,375.702,6.598,376.849,7.616z"/>
			<path d="M373.723,34.902c0.097-0.571-0.061-0.893-0.568-0.854c0,0.283,0,0.567,0,0.854
				C373.343,34.902,373.531,34.902,373.723,34.902z"/>
			<path d="M373.153,32.346c0.112-0.553-1.294-0.416-0.854,0.282c0.188,0,0.38,0,0.567,0
				C372.816,32.389,372.979,32.358,373.153,32.346z"/>
			<path d="M369.457,33.197c1.276,0.525-1.216,2.305,1.14,2.271c-0.104-0.373-0.502-0.447-0.569-0.854
				c1.126,0.277,2.215,0.305,2.559-0.854C371.165,34.639,370.573,33.436,369.457,33.197z"/>
			<path d="M371.731,32.628C370.74,33.959,373.165,33.771,371.731,32.628L371.731,32.628z"/>
			<path d="M371.163,6.477c0-0.188,0-0.379,0-0.566c-0.188,0-0.38,0-0.566,0c0,0.188,0,0.378,0,0.566
				C370.784,6.477,370.974,6.477,371.163,6.477z"/>
			<path d="M369.742,4.772c-0.707,0.043-0.084,0.963,0,1.139C370.693,5.653,369.99,5.272,369.742,4.772z"/>
			<path d="M368.891,33.766c0.052-0.619-0.232-0.903-0.854-0.854C367.984,33.532,368.27,33.814,368.891,33.766z"/>
			<path d="M368.036,34.617c-0.274-1.038-2.885-0.746-2.272,0.854C366.361,34.439,366.708,34.918,368.036,34.617z"/>
			<path d="M368.036,4.772c0.104-0.729-2.318-0.639-1.99,0.567c0.531-0.557,1.041-0.088,1.705,0
				C367.706,5.012,367.815,4.833,368.036,4.772z"/>
			<path d="M367.751,6.764c0-0.19,0-0.381,0-0.569c-0.188,0-0.379,0-0.566,0c0,0.188,0,0.379,0,0.569
				C367.372,6.764,367.562,6.764,367.751,6.764z"/>
			<path d="M367.469,8.75c-0.068-0.5-0.488-0.646-1.138-0.566C366.519,8.565,366.938,8.711,367.469,8.75z"/>
			<path d="M367.184,3.067c-0.335-0.518-1.481-0.223-1.989-0.568C364.837,4.102,366.78,3.713,367.184,3.067z"/>
			<path d="M366.9,33.766c0-0.283,0-0.566,0-0.854c-0.285,0-0.568,0-0.854,0C365.994,33.532,366.279,33.814,366.9,33.766z"/>
			<path d="M364.625,34.617c-0.322-0.055-0.157-0.285,0-0.284c-0.428-0.401-1.227-1.052-1.706-0.567
				c0.841,0.348,0.791,1.422,2.561,1.422c-0.559-0.53-0.087-1.041,0-1.705c-0.284,0-0.568,0-0.854,0
				C364.354,34.012,365.477,34.432,364.625,34.617z"/>
			<path d="M364.909,4.489c0.133-0.607-0.406-0.542-0.854-0.569c0.055,0.23,0.285,0.284,0.283,0.569
				C364.531,4.489,364.722,4.489,364.909,4.489z"/>
			<path d="M364.625,30.352c0.08-0.457-0.269-0.487-0.283-0.852C363.789,29.391,363.926,30.796,364.625,30.352z"/>
			<path d="M364.342,6.477c-0.5,0.067-0.647,0.49-0.567,1.139C364.273,7.546,364.42,7.125,364.342,6.477z"/>
			<path d="M364.058,32.912c-0.207-0.506-0.519-0.041-0.854,0C363.412,33.418,363.722,32.953,364.058,32.912z"/>
			<path d="M363.773,35.186c-0.065-0.408-0.85-0.101-0.854-0.568C362.064,34.975,363.553,35.779,363.773,35.186z"/>
			<path d="M363.773,5.057c0.074-1.145-2.322-0.642-1.706,0.567C363.219,6.018,362.967,5.008,363.773,5.057z"/>
			<path d="M362.919,3.067c-0.119,0.594,0.195,0.753,0.285,1.138C364.029,4.153,363.89,2.854,362.919,3.067z"/>
			<path d="M362.919,7.33c0-0.188,0-0.379,0-0.565c-0.188,0-0.379,0-0.566,0c0,0.188,0,0.377,0,0.565
				C362.54,7.33,362.73,7.33,362.919,7.33z"/>
			<path d="M362.636,3.067c0-0.189,0-0.379,0-0.568c-0.188,0-0.379,0-0.567,0c0,0.189,0,0.379,0,0.568
				C362.257,3.067,362.446,3.067,362.636,3.067z"/>
			<path d="M362.352,36.323c0.097-0.569-0.061-0.892-0.567-0.854c0,0.284,0,0.568,0,0.854
				C361.974,36.323,362.161,36.323,362.352,36.323z"/>
			<path d="M362.352,32.912c-0.146-1.408-1.297,0.16-1.989,0C360.884,34.277,361.14,32.497,362.352,32.912z"/>
			<path d="M362.067,27.227c0-0.188,0-0.379,0-0.568c-0.189,0-0.379,0-0.568,0c0,0.189,0,0.38,0,0.568
				C361.688,27.227,361.877,27.227,362.067,27.227z"/>
			<path d="M361.784,35.186c-0.198-0.229-0.442-0.777,0-0.854c-0.288-0.47-1.209-0.308-1.706-0.566
				C359.99,34.893,360.623,35.305,361.784,35.186z"/>
			<path d="M361.498,7.616c0-0.189,0-0.38,0-0.569c-0.188,0-0.379,0-0.566,0c0,0.189,0,0.38,0,0.569
				C361.119,7.616,361.31,7.616,361.498,7.616z"/>
			<path d="M360.362,8.184c0-0.188,0-0.379,0-0.567c-0.188,0-0.379,0-0.568,0c0,0.188,0,0.379,0,0.567
				C359.983,8.184,360.172,8.184,360.362,8.184z"/>
			<path d="M360.077,5.911c-0.208-0.508-0.518-0.041-0.853,0C359.434,6.415,359.742,5.951,360.077,5.911z"/>
			<path d="M358.94,31.774c-0.351,0.125-0.583,0.362-0.568,0.854C358.979,32.764,358.913,32.223,358.94,31.774z"/>
			<path d="M358.657,7.616c0-0.189,0-0.38,0-0.569c-0.188,0-0.379,0-0.569,0c0,0.189,0,0.38,0,0.569
				C358.278,7.616,358.468,7.616,358.657,7.616z"/>
			<path d="M358.371,5.057c-0.485,0.364-1.117,0.588-1.137,1.422C358.034,6.424,358.446,5.983,358.371,5.057z"/>
			<path d="M357.806,31.774c-0.093-1.122-0.881,0.212-1.14-0.567C355.67,31.688,357.224,31.936,357.806,31.774z"/>
			<path d="M357.806,28.646c0-0.188,0-0.379,0-0.566c-0.19,0-0.38,0-0.569,0c0,0.188,0,0.379,0,0.566
				C357.426,28.646,357.614,28.646,357.806,28.646z"/>
			<path d="M357.235,27.227C357.728,26.145,356.411,29.037,357.235,27.227L357.235,27.227z"/>
			<path d="M355.814,4.489c0.67-0.008,0.837,0.49,1.705,0.283c0.133-0.606-0.405-0.541-0.854-0.567c0.342-0.374,0.11-0.446,0-0.853
				C355.917,3.266,355.734,3.745,355.814,4.489z"/>
			<path d="M354.677,5.057c0.198,1.258,1.662,0.619,0.854,2.272c1.021-0.209,0.927-1.536,1.421-2.272
				C356.291,5.912,355.741,5.225,354.677,5.057z"/>
			<path d="M356.383,9.889C355.45,10.577,357.172,11.247,356.383,9.889L356.383,9.889z"/>
			<path d="M356.1,25.807c-0.116-0.709-1.104-0.018-0.854,0.567C355.875,26.531,355.65,25.832,356.1,25.807z"/>
			<path d="M354.961,31.207c0.554,0.113,0.415-1.295-0.284-0.854c0,0.189,0,0.381,0,0.568
				C354.918,30.87,354.945,31.033,354.961,31.207z"/>
			<path d="M355.245,27.514c0-0.189,0-0.379,0-0.568c-0.188,0-0.379,0-0.568,0c0,0.189,0,0.379,0,0.568
				C354.867,27.514,355.058,27.514,355.245,27.514z"/>
			<path d="M354.961,18.985c0-0.189,0-0.379,0-0.568c-0.188,0-0.38,0-0.566,0c0,0.189,0,0.379,0,0.568
				C354.581,18.985,354.771,18.985,354.961,18.985z"/>
			<path d="M354.961,6.764c-0.188-0.384-0.606-0.53-1.138-0.569c0.174,0.265,0.662,1.049-0.283,0.853
				C353.889,7.907,354.624,6.846,354.961,6.764z"/>
			<path d="M354.394,8.467c0-0.188,0-0.379,0-0.567c-0.19,0-0.38,0-0.569,0c0,0.188,0,0.38,0,0.567
				C354.015,8.467,354.202,8.467,354.394,8.467z"/>
			<path d="M354.109,33.479c0-0.188,0-0.379,0-0.566c-0.189,0-0.379,0-0.568,0c0,0.188,0,0.379,0,0.566
				C353.73,33.479,353.919,33.479,354.109,33.479z"/>
			<path d="M354.109,21.826c0-0.188,0-0.379,0-0.566c-0.189,0-0.379,0-0.568,0c0,0.188,0,0.379,0,0.566
				C353.73,21.826,353.919,21.826,354.109,21.826z"/>
			<path d="M353.824,24.669c-0.124-0.349-0.363-0.583-0.853-0.567C353.097,24.451,353.334,24.684,353.824,24.669z"/>
			<path d="M353.255,27.227c0.834-0.239-0.17-0.916,0-1.422C352.275,26.016,353.066,26.661,353.255,27.227z"/>
			<path d="M353.255,15.006c-0.982-0.199-1.02,0.996-0.566,1.42C353.577,16.061,352.833,15.839,353.255,15.006z"/>
			<path d="M353.255,7.045c-0.508-0.578-1.049-0.078-0.566-1.136c-0.745,0.299-1.277,1.086-1.139-0.567
				c-0.841,0.409-0.243,0.633-0.566,1.703C351.633,7.227,352.696,7.61,353.255,7.045z"/>
			<path d="M352.973,31.207c-0.526-0.421-0.428-1.47-1.423-1.422C351.676,30.605,352.15,31.081,352.973,31.207z"/>
			<path d="M352.688,32.628c0.086-0.749-0.396-0.933-1.139-0.854C351.464,32.524,351.944,32.709,352.688,32.628z"/>
			<path d="M352.688,11.879c-0.124-0.351-0.363-0.584-0.854-0.568c-0.08,0.459,0.271,0.488,0.284,0.853
				C352.35,12.109,352.402,11.878,352.688,11.879z"/>
			<path d="M352.403,25.238C352.284,24.006,350.753,25.537,352.403,25.238L352.403,25.238z"/>
			<path d="M351.267,31.491c0.188,0,0.378,0,0.566,0c-0.053-0.242,0.11-0.271,0.284-0.284
				C352.232,30.655,350.824,30.792,351.267,31.491z"/>
			<path d="M351.834,22.964c0.086-0.749-0.394-0.933-1.137-0.853C350.945,22.527,351.122,23.014,351.834,22.964z"/>
			<path d="M351.834,21.542c0-0.188,0-0.378,0-0.567c-0.229,0.15-0.461,0.296-0.853,0.285
				C351.142,21.85,351.425,21.86,351.834,21.542z"/>
			<path d="M351.55,24.1c-0.266,0.305-1.049,0.088-0.853,0.854C350.962,24.649,351.745,24.865,351.55,24.1z"/>
			<path d="M351.267,32.628c0.052-0.62-0.233-0.903-0.854-0.854C350.717,32.04,350.501,32.823,351.267,32.628z"/>
			<path d="M350.982,29.219c-0.056-0.801-0.495-1.213-1.422-1.139C349.658,28.836,350.308,29.04,350.982,29.219z"/>
			<path d="M350.982,11.594c0-0.188,0-0.379,0-0.567c-0.189,0-0.38,0-0.568,0c0,0.188,0,0.379,0,0.567
				C350.603,11.594,350.792,11.594,350.982,11.594z"/>
			<path d="M350.413,15.574C350.294,14.342,348.765,15.874,350.413,15.574L350.413,15.574z"/>
			<path d="M350.413,8.467c0.438-0.873-1.854-0.873-1.422,0C349.466,8.467,349.939,8.467,350.413,8.467z"/>
			<path d="M350.128,30.069c0-0.188,0-0.38,0-0.567c-0.188,0-0.379,0-0.566,0c0,0.188,0,0.379,0,0.567
				C349.749,30.069,349.939,30.069,350.128,30.069z"/>
			<path d="M350.128,12.731c0.1-0.57-0.058-0.889-0.566-0.853c0,0.283,0,0.568,0,0.853
				C349.749,12.731,349.939,12.731,350.128,12.731z"/>
			<path d="M348.707,13.016C348.519,11.712,346.987,13.244,348.707,13.016L348.707,13.016z"/>
			<path d="M348.707,8.184c0.418-0.83-1.271-0.83-0.853,0C348.141,8.184,348.424,8.184,348.707,8.184z"/>
			<path d="M347.571,14.436c0.418-0.828-1.271-0.828-0.854,0C347.002,14.436,347.286,14.436,347.571,14.436z"/>
			<path d="M347.571,8.467c0.086-0.748-0.395-0.934-1.138-0.853C346.35,8.364,346.827,8.546,347.571,8.467z"/>
			<path d="M347.286,25.238c0.036-0.512-0.348-0.602-0.284-1.139C346.195,24.137,346.456,25.311,347.286,25.238z"/>
			<path d="M346.719,8.467c-0.687-0.115-0.617,0.521-1.423,0.283C345.202,10.157,346.871,9.492,346.719,8.467z"/>
			<path d="M346.434,26.09c-0.579,0.086-0.559,0.771-1.139,0.854C345.488,27.562,346.787,26.951,346.434,26.09z"/>
			<path d="M346.434,14.721c-0.031-0.537-0.939-0.196-0.854-0.853C344.814,14.124,345.712,15.022,346.434,14.721z"/>
			<path d="M346.434,13.869c0-0.188,0-0.379,0-0.567c-0.189,0-0.378,0-0.568,0c0,0.188,0,0.379,0,0.567
				C346.057,13.869,346.243,13.869,346.434,13.869z"/>
			<path d="M345.865,24.669c-0.284,0-0.568,0-0.853,0c-0.696,0.38,0.513,0.858-0.284,1.14
				C345.232,26.652,346.242,25.641,345.865,24.669z"/>
			<path d="M345.58,11.026c-0.262-0.971-1.138-1.332-1.706-0.568C343.908,11.184,344.827,11.022,345.58,11.026z"/>
			<path d="M345.014,16.996C344.1,17.666,346.014,18.143,345.014,16.996L345.014,16.996z"/>
			<path d="M344.729,27.514c0.552,0.11,0.416-1.295-0.284-0.854c0,0.19,0,0.38,0,0.569
				C344.687,27.178,344.712,27.338,344.729,27.514z"/>
			<path d="M344.729,9.321c0-0.189,0-0.379,0-0.57c-0.459-0.079-0.489,0.271-0.854,0.285c0,0.189,0,0.38,0,0.568
				C344.335,9.684,344.365,9.336,344.729,9.321z"/>
			<path d="M344.444,18.701c-0.544,0.119-1.223,0.103-1.137,0.853C343.852,19.434,344.531,19.45,344.444,18.701z"/>
			<path d="M344.444,13.869c0.052-0.62-0.232-0.905-0.854-0.853c0,0.283,0,0.567,0,0.853
				C343.874,13.869,344.159,13.869,344.444,13.869z"/>
			<path d="M344.159,23.248c0-0.188,0-0.379,0-0.566c-0.188,0-0.379,0-0.567,0c0,0.188,0,0.379,0,0.566
				C343.781,23.248,343.972,23.248,344.159,23.248z"/>
			<path d="M343.592,15.006c0.344-0.099,0.229-0.758,0-0.854C342.977,13.895,342.934,15.194,343.592,15.006z"/>
			<path d="M341.603,13.301c0.288,0.543,2.063,0.191,1.705-0.854C342.727,12.719,342.183,13.028,341.603,13.301z"/>
			<path d="M342.454,12.731c0.281-0.105,0.18-0.83,0-0.853C341.783,11.794,341.635,13.042,342.454,12.731z"/>
			<path d="M342.169,27.227c0-0.188,0-0.379,0-0.568c-0.188,0-0.379,0-0.565,0c0,0.189,0,0.38,0,0.568
				C341.79,27.227,341.981,27.227,342.169,27.227z"/>
			<path d="M341.317,12.163c-0.386,0.089-0.235,0.712-0.283,1.139C341.692,13.221,341.687,12.541,341.317,12.163z"/>
			<path d="M323.979,18.985c-0.886-0.133-1.018,0.715-0.568,1.138C323.791,19.934,323.939,19.514,323.979,18.985z"/>
			<path d="M322.843,20.69c-0.305-0.266-0.089-1.049-0.854-0.854C321.938,20.458,322.223,20.742,322.843,20.69z"/>
			<path d="M319.433,19.268c-0.672-0.006-0.839,0.49-1.707,0.285C318.126,20.02,319.576,20.545,319.433,19.268z"/>
			<path d="M296.975,21.26c-0.043-0.708-0.963-0.082-1.138,0C295.882,21.965,296.802,21.342,296.975,21.26z"/>
			<path d="M296.691,20.69c0-0.188,0-0.379,0-0.567c-0.189,0-0.379,0-0.568,0c0,0.188,0,0.379,0,0.567
				C296.312,20.69,296.502,20.69,296.691,20.69z"/>
			<path d="M292.996,21.26c0.043-0.708-0.446-0.881-0.567-1.422C291.775,20.061,292.15,21.598,292.996,21.26z"/>
			<path d="M288.732,21.26c0-0.188,0-0.379,0-0.57c-0.189,0-0.379,0-0.568,0c0,0.189,0,0.38,0,0.57
				C288.354,21.26,288.543,21.26,288.732,21.26z"/>
			<path d="M283.332,20.975C282.472,19.924,282.375,21.837,283.332,20.975L283.332,20.975z"/>
			<path d="M282.195,17.279c0.418-0.829-1.271-0.829-0.854,0C281.627,17.279,281.91,17.279,282.195,17.279z"/>
			<path d="M280.205,21.26c0.08-0.458-0.27-0.49-0.285-0.852C279.369,20.293,279.507,21.701,280.205,21.26z"/>
			<path d="M277.646,20.408c-0.354,0.917,0.92,0.217,0.565,1.134C279.213,21.365,278.47,20.356,277.646,20.408z"/>
			<path d="M274.806,22.682c-0.336-0.422-0.246-1.271-1.14-1.14C273.766,22.202,273.852,22.875,274.806,22.682z"/>
			<path d="M273.384,22.682c0-0.189,0-0.379,0-0.568c-0.188,0-0.38,0-0.568,0c0,0.189,0,0.379,0,0.568
				C273.004,22.682,273.193,22.682,273.384,22.682z"/>
			<path d="M271.109,22.393c-0.459-0.078-0.49,0.271-0.855,0.285c0.058,0.23,0.287,0.283,0.285,0.568
				C270.891,23.124,271.125,22.885,271.109,22.393z"/>
			<path d="M265.992,22.964c-0.045-0.333-0.518-0.237-0.852-0.282c0,0.282,0,0.566,0,0.853
				C265.515,23.432,265.588,23.031,265.992,22.964z"/>
			<path d="M264.002,22.111c-0.049-0.824-1.35-0.688-1.137,0.281C263.119,22.176,263.509,22.09,264.002,22.111z"/>
			<path d="M262.865,23.814c0-0.188,0-0.379,0-0.566c-0.188,0-0.379,0-0.567,0c0,0.188,0,0.379,0,0.566
				C262.486,23.814,262.677,23.814,262.865,23.814z"/>
			<path d="M262.015,21.26c0-0.188,0-0.379,0-0.57c-0.189,0-0.381,0-0.568,0c0,0.189,0,0.38,0,0.57
				C261.636,21.26,261.824,21.26,262.015,21.26z"/>
			<path d="M262.015,15.29c-0.83-0.417-0.83,1.271,0,0.854C262.015,15.858,262.015,15.574,262.015,15.29z"/>
			<path d="M261.16,22.682c-0.303-0.268-0.088-1.051-0.852-0.854C260.14,22.562,260.423,22.85,261.16,22.682z"/>
			<path d="M260.023,22.393c-0.258-0.776-1.047,0.558-1.139-0.566c-0.386,0.089-0.234,0.712-0.283,1.138
				C258.977,22.676,259.65,22.684,260.023,22.393z"/>
			<path d="M258.318,23.814c0-0.188,0-0.379,0-0.566c-0.189,0-0.379,0-0.568,0c0,0.188,0,0.379,0,0.566
				C257.939,23.814,258.129,23.814,258.318,23.814z"/>
			<path d="M257.466,15.574c0.284,0,0.567,0,0.854,0C258.736,14.745,257.048,14.745,257.466,15.574z"/>
			<path d="M257.466,23.532c-0.535-0.905,0.071-1.188-0.283-2.272c-0.289,0.186-0.293,0.652-0.854,0.566
				C256.713,22.391,256.193,23.855,257.466,23.532z"/>
			<path d="M256.045,21.26c-0.114-0.708-1.104-0.019-0.854,0.566C255.564,21.725,255.64,21.326,256.045,21.26z"/>
			<path d="M255.761,22.111c-0.382,0.188-0.529,0.605-0.566,1.137C255.691,23.182,255.841,22.76,255.761,22.111z"/>
			<path d="M254.906,24.387c-0.088-0.388-0.711-0.236-1.137-0.285C253.85,24.762,254.529,24.754,254.906,24.387z"/>
			<path d="M253.486,22.964c0.803,0.046,0.662-0.854,1.42-0.853C254.527,21.391,253.05,21.932,253.486,22.964z"/>
			<path d="M253.77,21.826c0-0.188,0-0.379,0-0.566c-0.189,0-0.379,0-0.568,0c0,0.188,0,0.379,0,0.566
				C253.391,21.826,253.58,21.826,253.77,21.826z"/>
			<path d="M252.634,22.393c-0.089-0.385-0.711-0.233-1.138-0.281c0,0.474,0,0.945,0,1.421
				C252.466,23.742,251.966,22.483,252.634,22.393z"/>
			<path d="M250.074,21.826c0-0.188,0-0.379,0-0.566c-0.188,0-0.379,0-0.567,0c0,0.188,0,0.379,0,0.566
				C249.695,21.826,249.886,21.826,250.074,21.826z"/>
			<path d="M250.074,20.975c0.42-0.828-1.27-0.828-0.852,0C249.507,20.975,249.791,20.975,250.074,20.975z"/>
			<path d="M248.654,24.387c0.051-0.621-0.231-0.904-0.854-0.854C247.75,24.152,248.033,24.436,248.654,24.387z"/>
			<path d="M246.379,22.393c-0.758-1.133-2.004,1.943-0.282,1.707C246.261,23.6,245.752,22.432,246.379,22.393z"/>
			<path d="M243.82,23.248C243.088,22.268,243.136,24.71,243.82,23.248L243.82,23.248z"/>
			<path d="M242.4,22.964c0.096-0.569-0.059-0.89-0.568-0.853c0,0.281,0,0.566,0,0.853C242.021,22.964,242.211,22.964,242.4,22.964z
				"/>
			<path d="M240.979,22.111c-0.07-0.311-0.564-0.193-0.568-0.569c-0.289,0.187-0.294,0.654-0.853,0.569
				c-0.114,1.061,0.228,1.668,1.137,1.703C240.582,23.061,239.47,22.199,240.979,22.111z"/>
			<path d="M240.411,14.721c0.054-0.619-0.23-0.903-0.853-0.853C239.507,14.489,239.791,14.772,240.411,14.721z"/>
			<path d="M240.127,24.387c-0.125-0.352-0.363-0.584-0.854-0.568c-0.079,0.459,0.271,0.488,0.285,0.853
				C239.787,24.615,239.843,24.385,240.127,24.387z"/>
			<path d="M239.273,22.682c-0.063-0.41-0.849-0.101-0.854-0.568C237.509,22.432,238.695,22.922,239.273,22.682z"/>
			<path d="M238.989,14.436c-0.123-0.35-0.363-0.584-0.854-0.567c-0.079,0.459,0.27,0.489,0.284,0.853
				C238.651,14.667,238.703,14.436,238.989,14.436z"/>
			<path d="M238.42,21.826C238.231,20.524,236.701,22.057,238.42,21.826L238.42,21.826z"/>
			<path d="M237.853,23.532c-0.476-0.563,0.024-0.361,0-1.14c-0.379,0-0.758,0-1.137,0
				C237.369,22.499,236.987,23.641,237.853,23.532z"/>
			<path d="M236.716,13.584c0.234,0.803-0.4,0.736-0.283,1.422C237.525,15.088,237.944,13.667,236.716,13.584z"/>
			<path d="M235.863,22.964c0.134-0.604-0.405-0.542-0.854-0.567c0.056,0.229,0.286,0.283,0.284,0.567
				C235.483,22.964,235.673,22.964,235.863,22.964z"/>
			<path d="M234.727,15.006c0.78-0.106,1.521-1.002,0.853-1.705C234.891,13.463,234.946,14.374,234.727,15.006z"/>
			<path d="M235.578,21.542c0-0.188,0-0.378,0-0.567c-0.188,0-0.379,0-0.567,0c0,0.189,0,0.378,0,0.567
				C235.2,21.542,235.39,21.542,235.578,21.542z"/>
			<path d="M235.011,24.387c0-0.189,0-0.381,0-0.568c-0.189,0-0.379,0-0.567,0c0,0.188,0,0.379,0,0.568
				C234.632,24.387,234.82,24.387,235.011,24.387z"/>
			<path d="M234.442,13.584c-0.954-0.195-1.04,0.477-1.138,1.137C234.259,14.917,234.345,14.245,234.442,13.584z"/>
			<path d="M234.158,22.682c-0.005-0.437-2.105-0.623-1.706,0.282C233.152,23.001,233.821,23.008,234.158,22.682z"/>
			<path d="M231.884,22.964c0.418-0.827-1.271-0.827-0.854,0C231.314,22.964,231.6,22.964,231.884,22.964z"/>
			<path d="M230.746,15.006c-0.03-0.727-0.951-0.563-1.705-0.568C229.392,14.844,230.019,14.975,230.746,15.006z"/>
			<path d="M229.895,24.387c0-0.189,0-0.381,0-0.568c-0.19,0-0.379,0-0.569,0c0,0.188,0,0.379,0,0.568
				C229.516,24.387,229.703,24.387,229.895,24.387z"/>
			<path d="M229.325,23.248c-0.262-0.495,0.01-1.523-0.853-1.422C228.416,22.641,228.438,23.378,229.325,23.248z"/>
			<path d="M228.473,15.006c0.292-0.955-0.887-0.443-1.421-0.568C227.291,14.86,227.968,14.848,228.473,15.006z"/>
			<path d="M227.904,22.964c0-0.188,0-0.379,0-0.567c-0.188,0-0.379,0-0.567,0c0,0.188,0,0.379,0,0.567
				C227.525,22.964,227.716,22.964,227.904,22.964z"/>
			<path d="M227.619,13.869c-0.123-0.351-0.362-0.584-0.853-0.567C226.52,14.286,227.205,14.275,227.619,13.869z"/>
			<path d="M226.768,21.542c0-0.188,0-0.378,0-0.567c-0.19,0-0.379,0-0.569,0c0,0.189,0,0.378,0,0.567
				C226.389,21.542,226.577,21.542,226.768,21.542z"/>
			<path d="M226.483,23.814c-0.125-0.35-0.363-0.584-0.854-0.566c-0.079,0.459,0.271,0.489,0.285,0.854
				C226.145,24.047,226.198,23.814,226.483,23.814z"/>
			<path d="M224.209,22.393c-0.092,0.66,0.045,1.094,0.283,1.422C225.295,23.836,225.019,22.355,224.209,22.393z"/>
			<path d="M225.062,22.111c0-0.19,0-0.381,0-0.569c-0.188,0-0.379,0-0.568,0c0,0.188,0,0.379,0,0.569
				C224.683,22.111,224.873,22.111,225.062,22.111z"/>
			<path d="M225.062,13.869c-0.206-0.233-1.969-0.763-1.705,0.284c0.33,0.047,0.506-0.062,0.568-0.284
				c0.59,0.071,0.075,1.248,0.566,1.421C225.115,15.248,225.104,14.574,225.062,13.869z"/>
			<path d="M223.641,22.682c-0.276-1.299-2.639-0.82-2.843,0.282C221.737,22.289,222.972,23.198,223.641,22.682z"/>
			<path d="M220.229,23.532c0.831-0.317-0.361-0.924-0.854-0.854C218.935,23.688,220.343,22.85,220.229,23.532z"/>
			<path d="M219.662,20.69c0-0.282,0-0.567,0-0.854c-0.975-0.464-0.854,0.034-1.423,0.569
				C218.192,21.021,219.248,20.535,219.662,20.69z"/>
			<path d="M218.524,23.248c0.854-0.873-1.348-1.104-2.273-1.137C216.179,23.85,217.918,22.676,218.524,23.248z"/>
			<path d="M218.524,16.996c0.502,0.09,0.508-1.593-0.284-1.138C218.119,16.452,218.435,16.611,218.524,16.996z"/>
			<path d="M218.524,18.701c0-0.379,0-0.758,0-1.138c-0.379,0-0.759,0-1.137,0C217.511,18.198,217.89,18.577,218.524,18.701z"/>
			<path d="M217.67,20.69c0-0.188,0-0.379,0-0.567c-0.188,0-0.377,0-0.565,0c0,0.188,0,0.379,0,0.567
				C217.293,20.69,217.482,20.69,217.67,20.69z"/>
			<path d="M217.67,16.71c0-0.188,0-0.378,0-0.567c-0.188,0-0.377,0-0.565,0c0,0.189,0,0.379,0,0.567
				C217.293,16.71,217.482,16.71,217.67,16.71z"/>
			<path d="M216.818,19.268c0.552,0.112,0.415-1.295-0.283-0.853c0,0.188,0,0.379,0,0.568
				C216.776,18.934,216.804,19.096,216.818,19.268z"/>
			<path d="M216.535,17.563c0-0.189,0-0.379,0-0.567c-0.188,0-0.38,0-0.568,0c0,0.188,0,0.378,0,0.567
				C216.155,17.563,216.346,17.563,216.535,17.563z"/>
			<path d="M216.25,13.869c-1.129-0.274-0.884,0.823-1.138,1.421c0.229,0.245,0.778,0.168,0.854,0.568
				C217.184,15.428,215.389,14.883,216.25,13.869z"/>
			<path d="M215.397,16.426c-0.205-1.352-1.164-0.471-2.273-0.567c-0.08,0.509,0.271,0.584,0.284,0.284
				c0.333,0.045,0.239,0.519,0.283,0.854C214.736,16.701,213.955,15.908,215.397,16.426z"/>
			<path d="M385.944,33.766c-2.592,1.609-5.825,2.979-8.812,3.979c-13.624,4.573-29.442,3.794-38.09-3.411
				c-3.228-2.688-5.431-8.728-9.096-10.519c-2.973-1.45-7.895-1.156-12.792-1.137c-13.187,0.06-28.925,0.265-40.362,1.422
				c-12.045,1.221-25.237,3.146-37.521,2.843c-8.728-0.218-23.803,2.229-27.571-3.979c-1.134-1.867-1.87-6.408,0-8.811
				c1.632-2.097,7.57-2.421,13.359-2.56c5.256-0.125,10.855,0.264,15.634,0.568c10.535,0.675,20.949,1.838,29.845,2.559
				c15.232,1.232,29.65,3.03,44.912,2.559c4.884-0.151,11.121,0.324,14.496-1.137c2.558-1.107,4.157-3.451,5.969-5.4
				c1.771-1.906,3.566-4.167,5.971-5.686c11.746-7.418,31.939-5.084,42.637,0.854c3.272,1.815,7.215,4.589,8.812,7.392
				c1.358,2.381,1.608,7.148,1.422,8.525C393.952,27.725,390.402,30.997,385.944,33.766z M385.944,9.604
				c-0.33-0.76-1.508-0.024-1.137,0.854c-0.606-0.342-1.55-0.346-1.706-1.137c0.527,0.039,0.948,0.188,1.137,0.568
				c0.88-0.515,0.152-0.871,0.284-1.99c-0.379,1.257-0.947,0.529-1.705,0c-0.422,0.123,0.112,0.363,0,0.853
				c-1.504,0.167-0.182-1.169-0.854-1.421c-1.19-0.104-0.202,0.928-0.282,1.421c-1-0.325-1.098-1.558-1.705-2.272
				c-0.746,1.313-2.229-0.023-3.128-0.283c0.248-0.416,0.426-0.9,1.138-0.854c-0.275-1.076-1.779,0.133-2.273,0.568
				c-0.371-0.955-1.744-0.909-1.988-1.991c-0.374,0.103-0.447,0.501-0.854,0.569c0.303,0.818,0.861,0.941,1.705,0.568
				c0.113,1.25-1.293,0.979-1.989,1.42c-0.212-0.026-0.212-1.109,0-1.138c-0.177-1.161-1.188-0.161-1.138-1.137
				c-0.776-0.207-0.573,0.565-1.137,0.567c-0.64-0.836,0.231-1.885-0.854-2.272c0.569-0.271,3.337-0.313,2.56,1.706
				c1.677-0.102-0.145-0.854,0.567-1.422c1.006,0.095,0.699,0.781,1.705,0.283c-0.524,1.271,0.256,0.734,0.854,0.285
				c0.58,0.508,0.08,1.05,1.138,0.566c0.676,0.084-0.315,0.771-0.568,0.854c0.374,0.719,0.935-0.743,1.705-0.566
				c0.862,0.273,1.516,0.76,2.273,1.139c-0.119,0.637-1.508,0.006-1.705,0.567c0.194,0.356,2.168,0.103,2.272-0.567
				c0.72,0.535-0.263,0.994,0.284,1.703c0.499-0.066,0.647-0.486,0.568-1.136c0.741,0.721,1.97,0.115,2.272,1.705
				c0.537-0.505,1.987-0.318,1.705,0.853c1.269-0.591,2.163,1.358,3.695,1.422c-0.127,0.252-0.25,0.51-0.567,0.568
				c2.013,0.641,2.547,2.76,3.979,3.979c-1.549-0.03-1.557,1.065-0.568,2.273c0.486,0.014,0.736-0.211,0.854-0.566
				c1.45,0.918-0.082,3.943,1.421,4.265c0.357-5.24-2.624-9.056-5.686-11.372c-2.785-2.107-9.746-5.071-13.93-6.253
				c-1.548-0.438-3.347-1.302-5.116-0.853c-0.229-0.246-0.777-0.17-0.853-0.568c-0.479,0.498,0.994,1.455,1.137,2.273
				c-0.187,0.381-0.605,0.527-1.137,0.567c-0.303-0.505-0.022-1.298-1.138-0.567c-0.049-0.713,0.438-0.891,0.854-1.139
				c-1.189-0.469-2.852-0.493-3.979-0.284c0.157,0.58,0.854,0.56,0.284,1.14c-0.729-0.029-0.457-1.062-0.854-1.422
				c-0.707,0.562-2.143,0.037-2.274-0.854c-0.474,0-0.945,0-1.421,0c-0.276,0.204,1.684,0.574,1.99,1.137
				c-0.188,0.854-0.607-0.271-1.138,0c0.084,0.58,0.77,0.56,0.853,1.14c-0.339,0.584-1.541-0.607-1.137,1.137
				c-0.712,0.047-0.89-0.438-1.137-0.854c0.208-0.268,0.517-0.432,0.853-0.568c-0.29-0.373-0.279-1.049-0.567-1.422
				c-0.771-0.203,0.202,1.341-0.568,1.138c-0.628-0.036-0.12-1.206-0.283-1.705c-0.608,0.493-0.95,2.256,0.283,2.274
				c-0.303,0.264-0.088,1.048-0.854,0.853c-0.51-0.533-0.627-1.458-1.137-1.989c-0.887-0.135-0.135,0.37-0.284,0.567
				c-0.356,0.474-1.542,0.287-1.421,1.422c-0.735-0.366-0.894-0.589-0.568-1.422c-0.498,0.26-0.986,0.528-0.854,1.422
				c0.229,0.149,0.462,0.296,0.854,0.284c0.119,0.973-0.852,0.854-1.137,1.422c-0.221-0.729-0.816-1.079-1.99-0.854
				c0.286-1.107,0.979-0.045,1.99-0.285c-0.201-0.842-1.635-0.45-1.706-1.42c-0.622,0.041-0.608,0.716-0.566,1.42
				c-0.705-0.041-1.381-0.053-1.423,0.568c-0.682,0.111,0.158-1.296-0.854-0.854c-0.163,1.016-0.064,1.679-1.421,1.988
				c0.035,0.629,1.206,0.121,1.705,0.285c-0.27,1.366-2.297,0.186-2.843,0c-0.124,0.658-1.256,0.76-0.568,1.422
				c-1.106-0.381-1.474,0.146-2.272-0.285c-0.08-0.647,0.067-1.068,0.567-1.137c-0.602-0.943-0.825,0.854-1.705,0.566
				c1.424,0.584,1.084,3.62,1.42,4.833c-0.555-0.222-1.721-1.283-0.852-1.989c-0.651-0.816-1.062,0.527-0.568,1.137
				c-0.089,0.387-0.712,0.235-1.138,0.285c-0.333-0.046-0.239-0.519-0.283-0.854c-0.455-0.164-0.771,2.121-2.273,1.138
				c0.055,1.476-0.771,2.069-1.706,2.558c0.693,0.949,1.49-0.381,1.706-0.853c0.599,0.255,1.695,0.009,1.422,1.138
				c0.451-0.285,1.144-0.27,0.566-0.854c1.704,0.554-0.56,3.206,1.706,0c0.113,0.73,0.091,1.578,1.138,1.988
				c-0.661,0.059-2.492,0.623-2.844-0.283c-1.064-0.214-0.62,1.085-1.421,1.137c-0.725-0.626,0.733-1.505,0-2.558
				c-0.407,0.351-0.539,0.978-0.567,1.704c-0.229-0.243-0.778-0.168-0.854-0.567c-0.781,0.254,0.662,1.153-0.854,0.854
				c0.597,1.031,1.421,0.078,2.273,0.853c0.133,0.892-0.715,0.801-1.137,1.138c-0.712,0.047-0.892-0.438-1.139-0.854
				c-0.693,1.417,2.006,1.438,2.559,1.422c0.332,0.427,0.822,0.694,0.854,1.42c-0.764,0.024-1.621-0.556-2.559-1.138
				c0.16,1.603-1.117,0-1.137,1.423c-0.441-0.345-1.107-0.908-1.705-0.285c0.187,0.853,0.605-0.271,1.137,0
				c0.211,0.875-0.78,0.547-0.568,1.42c0.719-0.959,1.597-0.07,1.705-1.42c0.268,0.209,0.433,0.519,0.568,0.854
				c-0.008,0.276-0.348,0.22-0.568,0.283c-0.519,0.223,0.171,0.307,0.568,0.284c0.222-0.253,0.307-0.641,0.285-1.135
				c1.688,0.438,2.653,0.123,3.126,1.988c-0.882,0.029-0.812-0.894-1.989-0.567c0.446,1.487-0.573,1.512-0.853,2.272
				c0.799-0.291,1.21-0.32,1.136,0.854c0.427-0.332,1.164-0.354,1.423-0.854c0.547,0.116,0.224,1.104,1.136,0.854
				c0.08-0.459-0.268-0.489-0.282-0.854c1.156,0.235,0.979,0.045,2.272,0c0.232,1.086-0.604,1.102-1.137,1.422
				c0.098,0.66,0.184,1.332,1.137,1.138c0.286,0.854-0.634,0.505-1.137,0.567c0.653,0.783,1.743,1.039,2.558,0.285
				c-0.171,0.698-1.271,1.933,0.284,1.989c-0.364-0.375-0.364-1.048,0-1.422c0.584,0.079,0.568,0.76,0.854,1.138
				c-0.764,0.279-0.522,1.221,0,1.705c-0.412,0.629-1.274,0.811-1.706,1.422c0.069,0.31,0.564,0.192,0.567,0.567
				c-0.247,0.84-0.426-0.659-1.137-0.284c0.592,0.566,0.01,1.215-0.569,1.421c0.651,0.632,1.308-1.145,2.561-0.852
				c-0.147-0.421-0.42-0.718-0.568-1.138c0.688,0.211,0.854-1.033,1.706-1.422c0.156-0.632-0.542-0.404-0.568-0.854
				c0.277-0.291,0.562-0.575,0.854-0.853c0.401,0.752,0.146,1.594-0.284,2.559c0.822-0.126,1.296-0.602,1.421-1.424
				c0.503,0.258,0.83,0.688,1.422,0.854c-0.262,0.496-0.889,0.627-1.706,0.568c0.081,0.962,1.783,0.302,1.138,1.989
				c1.095-0.852,2.354-0.358,3.411,0.283c0.115,0.686-0.521,0.617-0.283,1.422c-0.819-0.033-1.86,0.154-2.273-0.283
				c-0.122-0.459,1.061-0.954,1.137-0.285c0.241,0.053,0.27-0.11,0.284-0.284c0-0.284,0-0.567,0-0.853
				c-0.371,0.672-1.805,0.278-1.705,1.422c-0.582,0.16-2.133-0.088-1.138-0.569c-0.41-0.839-1.146,0.339-0.854,1.138
				c1.008-0.479,1.616,0.291,2.273-0.283c0.41,0.349,0.431,1.084,0.853,1.42c0.512,0.037,0.602-0.348,1.139-0.282
				c0.203-0.771-1.341,0.202-1.139-0.568c0.362-0.681,2.368,0.284,1.706-1.422c0.33,0.047,0.507-0.062,0.567-0.284
				c0.49,0.85,0.43,2.908,1.706,3.695c0.411-0.988,0.969-2.18,3.127-1.421c-0.059-0.984-1.566-0.519-2.273-0.854
				c0.353,0.791-0.921,0.791-0.567,0c-0.388,0.088-0.236,0.713-0.284,1.137c-1.376-0.062-0.271-0.846-0.854-1.705
				c0.126-0.252,0.25-0.508,0.568-0.567c0.067,0.786,1.402,0.304,1.705,0.854c0.127,0.031,0.162-1.75,0.568-0.283
				c0.471-0.288,0.309-1.207,0.566-1.705c-0.188,0-0.379,0-0.566,0c0.113-0.458,1.668,0.01,1.989,0.283
				c-0.124,0.422-0.363-0.112-0.854,0c0.271,1.287,1.438,2.396,2.559,1.99c0.497,0.065-0.427,1.057-0.567,1.42
				c0.587,0.395,1.634-0.727,2.843,0c-0.222,0.254-0.306,0.643-0.284,1.139c1.021-0.453,0.451-1.646,1.705-0.569
				c0.036-0.51-0.349-0.599-0.284-1.137c-1.02,0.55-1.042-0.109-1.989-0.284c1.812-1.139,2.957,0.073,3.695,0.854
				c0.035,0.511-0.349,0.601-0.284,1.139c0.92,0.351,0.218-0.921,1.138-0.569c0.005-0.416-1.197-0.899,0-0.854
				c-0.079-0.657-0.76-0.651-1.138-0.282c0.498-1.271,1.676-1.118,2.559-1.422c0.516,0.086-0.287,1.194-0.567,1.422
				c-0.122,0.785,1.062,0.267,1.138,0.854c0.28-0.475-0.354-0.765-0.283-1.705c1.062-0.307,0.81,0.705,1.706,0.566
				c0.897-2.124,2.899,0.039,3.979-1.422c0.357,0.284-0.756,1.146,0.284,1.706c0.667-1.267,1.042-1.729,0.284-2.845
				c-0.333,0.048-0.239,0.52-0.284,0.854c-0.378-0.284-1.059-0.271-1.137-0.854c0.277-0.383,0.758-0.566,1.137-0.853
				c0.581,1.382,1.979,0.829,1.989,3.127c0.254-0.601,1.213-0.493,1.138-1.422c-0.774-0.206-0.572,0.565-1.138,0.569
				c0.226-0.998,0.799-0.938,0-1.705c1.748-1.854,2.714,1.066,3.41,1.42c-0.447-1.008,0.049-1.314-0.567-2.273
				c0.431-0.858,1.247,0.235,1.99,0c-0.771-1.138,0.742-1.179,1.704-0.853c0.135-0.892-0.715-0.802-1.138-1.138
				c0.454-0.797,1.279,0.397,2.273,0c-0.896-1.07,1.349-1.219,1.99-0.854c-0.084-0.58-0.771-0.558-0.854-1.139
				c1.031,0.148,1.766-0.02,2.273,1.139c0.583-0.88-1.148-1.875-2.273-1.988c0.32-0.604,1.453,0.518,1.706-0.568
				c0.525,0.043,0.174,0.962,0.567,1.137c0.065-1.26,1.244-1.408,1.705-2.273c0.637,0.123,0.114,1.4,0.284,1.989
				c1.201-0.132,0.608-2.405-0.567-2.558c0.418-0.909,1.765-0.889,1.988-1.99c-0.647,0.079-1.067-0.068-1.138-0.568
				c0.193-0.383,0.865,0.248,1.138-0.566c0.24,0.609,1.048,0.656,1.989,0.566c0.079,0.459-0.27,0.489-0.283,0.854
				c-0.805,0.233-0.736-0.401-1.423-0.284c0.15,0.229,0.298,0.461,0.284,0.854c0.62,0.183,0.904-0.807,0.854,0.285
				c0.878-0.734,1.148-2.07,1.138-3.696c-0.423,0.239-0.411,0.917-0.568,1.421c-0.742,0.08-1.224-0.104-1.138-0.854
				c0.102-0.398,0.501-0.022,0.568,0.283c0.789-0.725-1.01-1.437-1.705-0.853c0.263-1.062,1.938-0.713,1.705-2.272
				c-0.42,0.329-0.717,0.329-1.139,0c0.223-0.254,0.308-0.644,0.284-1.138c-0.913,0.176-0.39-1.021-1.137-0.283
				c-0.737-0.542,0.198-2.968-1.138-3.127c0.927-1.521-1.023-1.536-1.139-2.843c-1.157,0.211-0.979-0.916-2.271-0.568
				C385.884,10.544,385.247,9.637,385.944,9.604z M393.051,24.953c-0.528-0.604-1.119,1.141-1.423,1.705
				C392.643,26.631,392.462,25.409,393.051,24.953z M391.912,25.238c0.053-0.621-0.23-0.904-0.853-0.854
				c0.036,0.51-0.351,0.6-0.284,1.137C391.286,25.557,391.375,25.176,391.912,25.238z M389.07,27.796
				C388.02,28.658,389.935,28.753,389.07,27.796L389.07,27.796z M387.649,30.069c-0.761-0.681-1.291,0.173-2.274-0.284
				C385.782,30.799,387.135,30.047,387.649,30.069z M384.522,32.059c0.834-0.241-0.169-0.916,0-1.422
				C383.525,30.862,384.194,31.635,384.522,32.059z M377.985,36.605c0.113-0.551-1.294-0.413-0.854,0.285c0.188,0,0.379,0,0.567,0
				C377.648,36.649,377.812,36.623,377.985,36.605z M373.438,36.605c0.104-0.481-0.224-0.534-0.568-0.566
				c0.052,0.242-0.11,0.27-0.284,0.284C372.63,36.656,373.103,36.561,373.438,36.605z M370.878,37.178
				c0.804-0.187-0.652-0.33-0.853-0.285C369.454,37.021,369.796,37.428,370.878,37.178z M361.498,38.883
				c-0.221-0.254-0.306-0.644-0.283-1.139C360.712,37.654,360.707,39.337,361.498,38.883z M360.362,38.598
				c-0.352-0.689-0.239-1.846-1.137-1.988C359.762,37.112,359.227,38.689,360.362,38.598z M359.226,36.323
				c0.851-0.188-0.272-0.606,0-1.138C358.518,35.227,359.143,36.146,359.226,36.323z M358.94,36.605
				c-0.771,0.801-0.706,0.227-1.705,0c-0.116,0.688,0.52,0.619,0.284,1.424C358.104,37.666,358.961,37.575,358.94,36.605z
				 M358.087,40.016C357.898,38.715,356.367,40.246,358.087,40.016L358.087,40.016z M353.824,39.449c0-0.188,0-0.379,0-0.566
				c-0.188,0-0.378,0-0.567,0c0,0.188,0,0.379,0,0.566C353.446,39.449,353.635,39.449,353.824,39.449z M348.992,38.311
				c0.021-0.969-1.053-0.84-1.989-0.853C347.421,38.248,348.102,37.645,348.992,38.311z M347.855,32.628
				c-0.036,0.511,0.348,0.601,0.284,1.138C348.947,33.729,348.687,32.555,347.855,32.628z M347.571,35.473
				C346.52,36.332,348.435,36.43,347.571,35.473L347.571,35.473z M347.571,5.911c-0.447-0.217-0.425-0.902-1.138-0.854
				C346.683,5.473,346.659,6.157,347.571,5.911z M347.286,35.186c0.104-0.482-0.222-0.536-0.567-0.568
				c0.054,0.241-0.11,0.27-0.284,0.285C346.479,35.235,346.951,35.141,347.286,35.186z M347.286,32.059
				C346.418,32.684,347.615,33.88,347.286,32.059L347.286,32.059z M347.002,34.333c0-0.188,0-0.379,0-0.567c-0.188,0-0.38,0-0.567,0
				c0,0.188,0,0.381,0,0.567C346.622,34.333,346.812,34.333,347.002,34.333z M345.865,31.207c0.273-1.305-1.508-1.665-1.705-0.854
				c-0.309-0.068-0.191-0.563-0.567-0.567c0.089-1.126,0.986,0.317,0.854-0.853c-0.933-0.108-1.253-0.832-1.989-1.139
				c-0.233-0.804,0.4-0.734,0.284-1.421c-1.385,0.247-1.316-0.957-2.273-1.137c0.733,2.676,2.959,3.862,3.979,6.253
				C345.128,31.605,345.062,30.973,345.865,31.207z M345.58,4.489c-0.208-0.506-0.517-0.041-0.853,0
				C344.937,4.995,345.245,4.53,345.58,4.489z M343.874,32.059c-0.146-0.422-0.419-0.717-0.565-1.138
				C342.681,31.037,342.927,32.589,343.874,32.059z M343.592,32.912c-0.209-0.506-0.518-0.041-0.854,0
				C342.947,33.418,343.255,32.953,343.592,32.912z M340.748,28.646c-0.269,0.49-1.051,0.467-0.853,1.423
				c1.109-0.276,1.97,1.147,0.853,1.422c0.46,0.438,2.068-0.381,1.99-1.422C341.887,31.1,340.114,29.864,340.748,28.646z
				 M342.169,8.184C341.118,9.045,343.034,9.141,342.169,8.184L342.169,8.184z M342.169,29.219c0.105-0.484-0.221-0.537-0.565-0.568
				c0.052,0.242-0.111,0.269-0.285,0.285C341.363,29.266,341.835,29.172,342.169,29.219z M340.182,25.52
				c-1.065-0.164-1.043-0.025-1.989-0.566c0,0.285,0,0.566,0,0.854c0.567,0,1.137,0,1.705,0c0.005,0.416-1.199,0.899,0,0.853
				C339.86,26.149,340.243,26.059,340.182,25.52z M339.896,31.207c0-0.189,0-0.379,0-0.566c-0.189,0-0.379,0-0.568,0
				c0,0.188,0,0.377,0,0.566C339.518,31.207,339.706,31.207,339.896,31.207z M339.611,30.352
				C339.493,29.122,337.962,30.653,339.611,30.352L339.611,30.352z M339.043,32.628C339.906,33.051,336.997,31.627,339.043,32.628
				L339.043,32.628z M339.043,22.964c-0.237-0.329-0.375-0.762-0.283-1.422c-1.016,0.476-0.563,0.765-0.854,1.706
				C338.159,23.027,338.549,22.942,339.043,22.964z M337.906,23.532c-0.941,0.446-0.854,1.019-0.568,1.706
				C337.81,24.951,337.646,24.03,337.906,23.532z M337.337,22.964c0.733-0.067-0.391-0.487,0-1.138c-0.188,0-0.379,0-0.566,0
				c0.053,0.241-0.111,0.27-0.284,0.285C336.398,22.766,337.308,22.428,337.337,22.964z M336.485,26.09
				c-0.304-0.265-0.088-1.048-0.854-0.852C335.937,25.503,335.722,26.286,336.485,26.09z M335.916,18.417
				c0.521-0.354-0.49-1.098-1.137-0.568C334.575,18.62,336.119,17.643,335.916,18.417z M330.517,18.133
				C329.655,17.081,329.559,18.995,330.517,18.133L330.517,18.133z M329.378,19.837C330.357,19.102,327.918,19.151,329.378,19.837
				L329.378,19.837z M329.095,20.69c-0.35,0.125-0.583,0.365-0.567,0.852C329.133,21.676,329.067,21.139,329.095,20.69z
				 M327.391,20.408c-0.435-0.599-1.768,0.299-1.705,1.134C326.309,21.221,326.628,20.592,327.391,20.408z M325.115,19.837
				c1.033,0.576,1.612-0.036,1.99-0.853c-0.574-1.438-0.945-0.028-1.99-0.568c0.043,0.621,0.717,0.61,1.422,0.568
				C326.676,19.88,325.233,19.198,325.115,19.837c-0.826-0.247-0.319-0.426-0.283-1.137c-0.98,0.224-1.25-0.267-1.422-0.853
				c-0.506,0.207-0.041,0.517,0,0.853c-0.847,0.408-1.729-0.997-1.705,0.284c-0.876-0.662-1.028-0.227-1.705,0
				c-0.291,0.097-1.125-0.559-1.422-0.568c-0.95-0.033-2.384,0.393-3.411,0.284c-0.384-0.04-0.824-0.569-0.853-0.567
				c-0.352,0.01-0.483,0.486-0.854,0.567c-1.123,0.247-1.587-0.224-2.843,0.284c-0.333-0.047-0.239-0.52-0.284-0.854
				c-0.68-0.617-2.158,0.571-2.271,0.568c-0.171-0.004-1.542-1.385-1.422,0c-0.728-0.28-1.189-0.999-1.705,0
				c-0.504-0.255-0.362-1.153-1.422-0.854c0.149,0.229,0.297,0.461,0.283,0.854c-0.623,0.119-0.412-0.493-0.854-0.568
				c-0.664-0.113-0.352,0.536-0.568,0.568c-0.276,0.042-0.545-0.497-0.854-0.568c-0.453-0.104-0.492,0.288-0.854,0.284
				c-0.586-0.008-0.93-0.978-1.42,0c-0.766,0.195-0.551-0.588-0.854-0.853c-0.656-0.088-0.314,0.82-0.854,0.853
				c-0.866,0.017-0.682-1.024-1.705-0.853c0.611,0.621-0.071,0.609-0.854,0.567c0.149-0.229,0.297-0.461,0.285-0.854
				c-0.334,0.081-1.185,1.253-1.14,0c-0.67,0.088-0.526,0.987-1.422,0.854c-0.408-0.063-0.098-0.849-0.565-0.854
				c-0.607-0.134-0.541,0.407-0.568,0.854c-0.803,0.044-0.713-0.804-1.137-1.137c-0.353,0.124-0.584,0.364-0.57,0.853
				c-0.35-0.123-0.584-0.363-0.568-0.853c-0.379,1.233-1.237-0.052-1.704,0c-0.277,0.03-0.699,0.552-1.138,0.567
				c-0.533,0.02-0.686-0.562-0.854-0.567c-0.189-0.009-0.597,0.563-0.568,0.567c-0.572-0.105-0.242-0.633-0.568-0.854
				c-0.743-0.501-2.407-0.354-3.692-0.283c-0.023,0.002,0.024,0.562,0,0.568c-1.529,0.35-4.457,0.443-5.969-0.854
				c-0.775,1.388-1.541-0.237-2.562-0.285c0.959,0.964-1.99,0.67-1.99,0c-1.006,1.127-2.188,0.72-2.842-0.283
				c-1.334,1.302-1.758-0.624-3.41-0.567c-0.211,0.968,1.047,0.468,1.14,1.138c-0.953,1.023-1.234-1.024-2.275-0.854
				c-0.055,0.799,1.228,0.819-0.283,0.854c-0.422-0.125,0.111-0.364,0-0.854c-0.528-0.039-0.951-0.187-1.137-0.567
				c-0.584,0.553-0.695,1.578-1.705,1.705c0.033-0.725,0.412-1.103,1.137-1.138c-0.338-0.517-1.481-0.224-1.989-0.567
				c0.102,0.373,0.5,0.446,0.567,0.853c-1.803-2.2-3.762,0.522-5.969-0.853c0,0.379,0,0.758,0,1.137
				c-0.627,0.119-1.568-0.853-0.854-1.137c-0.543-0.582-1.233-0.57-1.989-0.285c0.162,0.592,0.812,0.92,0.283,1.422
				c-1.017-0.361-0.746-0.926-0.566-1.989c-0.99,0.431-1.652,1.19-3.412,0.853c-0.023-0.402-0.047-0.806,0.285-0.853
				c-0.902-0.792-1.922,0.718-2.842,0.853c-0.015-0.485,0.211-0.735,0.565-0.853c-0.725-0.47-1.903-0.479-2.559-0.284
				c0.047,0.332,0.52,0.24,0.854,0.284c0.08,0.459-0.268,0.489-0.282,0.853c-0.802-0.053-1.213-0.494-1.139-1.42
				c-3.748,0.148-4.783-0.012-8.526-0.285c-0.357,1.586-1.077,0.779-1.989,1.138c-0.1,0.039,0.41,0.334,0.568,0.284
				c-1.057,0.332-0.971-0.754-2.56-0.854c0.706-0.87,1.726,0.342,2.843,0c-0.633-1.691-1.285-0.463-3.41-0.568
				c0.149,0.229,0.298,0.461,0.283,0.854c-0.188,0-0.379,0-0.566,0c-0.616,0.048-0.13-1.009-0.284-1.421
				c-0.616,0.926-2.229-0.547-1.705,1.137c-0.926,0.239-2.146-0.666-1.706-0.853c-0.694-0.338-1.015,1.014-2.558,0.283
				c0.046,0.33-0.063,0.506-0.285,0.568c0.043,0.525,0.963,0.174,1.138,0.568c0.036,0.51-0.348,0.6-0.284,1.137
				c-1.101,0.248-0.465-1.241-1.705-0.854c-0.155,0.632,0.543,0.406,0.567,0.854c-0.395,0.07-1.312,0.02-1.705-0.854
				c1.22,0.02,0.831-0.957-0.567-1.137c-0.054,1.282-0.532,1.604,0.567,1.989c-0.426,0.938-0.694-0.591-1.421-0.283
				c-0.206-0.87,0.291-1.036,0.284-1.706c-0.284,0-0.568,0-0.854,0c0.135,1.068,0.881,2.441-1.137,2.273
				c0.641-0.776,0.729-1.256,0.854-1.989c-0.348-0.511-1.745,0.319-2.844,0c0.121,0.595-0.192,0.752-0.283,1.138
				c-0.252-0.127-0.509-0.25-0.566-0.568c-1.486,1.295-1.048,2.627-1.99,3.41c0.279,0.871,0.759-0.326,1.138-0.284
				c0.536,0.214,0.196,0.849,0.854,0.284c0.165,0.849-1.187,2.438-1.14,3.41c0.778,1.032,0.668-1.205,1.14-1.42
				c0.356,0.069,0.287,0.564,0,0.566c0.188,0.854,0.606-0.271,1.137,0c0.153,1.006-1.007,0.699-0.854,1.706
				c0.948,0.285,0.934-0.396,0.854-1.137c0.721,0.512,1.611-0.539,1.99,0.568c-0.461,0.426-1.368-0.188-1.99,0.568
				c0.709,0.714,1.391,1.452,2.273,1.988c1.155-1.174,1.878,0.703,3.412,0c0.047,0.711-0.438,0.893-0.854,1.139
				c-0.765,0.193-0.549-0.588-0.853-0.854c-0.229,0.054-0.284,0.285-0.568,0.283c0,0.284,0,0.568,0,0.854
				c0.738-0.767,0.854,0.348,1.705,0.282c-0.048-0.994,1.001-0.895,1.421-1.42c0.849,0.793-0.545,1.562,1.706,1.42
				c-0.188-0.381-0.607-0.527-1.137-0.566c0.343-0.439,0.905-1.105,0.282-1.705c0.593,0.293,3.151,1.219,1.705,1.705
				c0.261,0.493,0.996,0.734,1.422,0.284c0.156-0.632-0.543-0.404-0.567-0.854c1.072-1.054,1.072,1.377,2.272,1.137
				c-0.232-0.866-0.8-0.682-0.282-1.705c0.673,1.033,2.963,0.447,3.409,1.705c-0.097-0.643,0.616-1.722,1.423-2.271
				c0.721,0.467-0.925,0.951-0.569,1.989c0.451,0.022,1.086-0.138,1.138,0.282c0.787-0.121,0.017-0.895-0.567-0.566
				c-0.138-0.896,0.873-0.645,0.567-1.705c2.316,0.448,0.696,2.117,0.854,2.271c0.203,0.203,1.483-1.861,1.705,0.285
				c0.387-0.088,0.235-0.713,0.284-1.138c0.698,0.558,2.548,0.442,2.559-0.567c0.386,0.088,0.234,0.711,0.284,1.138
				c1.571-0.103,3.039-0.729,3.41,0.853c0.421-0.124-0.111-0.361,0-0.853c0.919,0.026,0.606,1.288,1.989,0.853
				c-0.889-0.344-1.127-1.336-2.272-1.421c0.63-0.66,0.251-0.761,0.567-1.421c1.316,0.463-0.429,0.693,0.283,1.421
				c0.32,0.327,1.205-0.272,1.137-0.284c0.648,0.096,0.277,0.989,0.854,1.424c0.387-1.228,1.873-0.721,2.272,0.281
				c0.865-0.35-0.307-0.978,0-1.705c0.125-0.35,0.365-0.584,0.855-0.566c0.838,0.248-0.66,0.426-0.285,1.137
				c0.379,0,0.758,0,1.137,0c-0.243,0.229-0.17,0.779-0.567,0.854c0.377,0.629,1.227-0.646,1.422-1.138
				c2.201,1.323,3.549-0.56,6.254,0.569c-0.08-0.459,0.271-0.49,0.283-0.854c0.447,0.121,0.242,0.896,1.139,0.567
				c-0.104-0.373-0.502-0.447-0.567-0.853c1.071,0.426,3.59,0.375,2.842-0.854c0.461-0.08,0.487,0.271,0.854,0.283
				c0.211,0.875-0.781,0.547-0.567,1.422c0.551-0.879,2.659-0.949,1.42-1.422c0.584-1.013,1.01,0.478,1.139,0.854
				c1.312,0.109,3.332-1.208,3.979,0c0.387-0.088,0.235-0.711,0.282-1.137c1.375,0.304,1.578,0.09,2.845,0.283
				c-0.007-1.132-1.455-0.818-1.138-2.273c0.404,1.355,2.142,1.104,1.705,2.273c0.732,0.012,2.482,0.125,2.842-0.853
				c-0.373,0.604,2.48,0.881,3.127-0.285c0.767-0.194,0.55,0.588,0.854,0.854c1.26-0.417-0.439-0.753,0-1.99
				c1.041,0.002,0.418,1.668,1.707,1.423c0.033-0.512-0.35-0.601-0.285-1.139c0.396,0.46,0.805,0.9,1.137,1.422
				c0.832-0.459,0.111-0.898,0.568-1.422c0.564,0.193,0.65,0.866,1.137,1.139c0.328-0.863,0.689,0.036,1.14,0
				c0.291-0.025,1.155-1.341,1.42,0c0.334-0.047,0.239-0.519,0.285-0.854c0.446,0.123,0.241,0.896,1.137,0.567
				c0.022-0.448-0.137-1.084,0.283-1.138c0.387,0.089,0.235,0.714,0.284,1.138c1.08,0.037,1.341-0.744,1.423-1.705
				c0.282,0,0.567,0,0.854,0c-0.129,0.996-0.91,0.895-0.854,1.421c0.067,0.703,1.414-1.28,1.137,0.568
				c0.334-0.426,1.182-0.336,1.137-1.14c0.484-0.104,0.537,0.224,0.568,0.567c0.668-0.092,0.637-0.879,1.139-1.136
				c0.129,1.796,2.451-0.043,3.125,1.136c0.926-0.211,0.865-1.408,1.422-1.988c0.863,0.352-0.309,0.976,0,1.705
				c2.154,0.421,2.732-1.013,3.979,0c0.172-1.625,0.438-0.188,0.854,0c0.511,0.23,5.104,0.104,4.832-0.853
				c0.164,0.876,1.085,1,2.272,0.853c-0.149-0.229-0.297-0.463-0.283-0.853c0.606-0.133,0.542,0.406,0.568,0.853
				c0.681-0.207,1.637-1.07,1.988,0c0.655,0.088,0.315-0.821,0.854-0.853c0.333,0.044,0.239,0.519,0.283,0.853
				c1.621-0.745,3.587,0.503,3.979-1.136c0.765-0.194,0.549,0.585,0.854,0.852c0.921-0.271,2.428,0.041,1.706-1.135
				c0.583,0.078,0.566,0.758,0.853,1.135c1.275-0.401,1.955,0.126,2.844-0.852c0.332,0.047,0.24,0.518,0.283,0.852
				C322.528,20.994,324.727,22.037,325.115,19.837z M233.021,23.814c-0.553-0.111-0.415,1.297,0.284,0.854c0-0.188,0-0.379,0-0.567
				C233.062,24.153,233.037,23.989,233.021,23.814z M221.082,13.301C221.024,12.379,221.183,14.897,221.082,13.301L221.082,13.301z
				 M248.938,14.153c0.111-0.553-1.295-0.415-0.854,0.283c0.189,0,0.379,0,0.568,0C248.602,14.195,248.766,14.168,248.938,14.153z
				 M216.535,24.387c-0.124-0.636-0.503-1.015-1.138-1.139C215.432,23.973,215.811,24.35,216.535,24.387z M212.838,19.268
				c0.388-0.088,0.236-0.711,0.285-1.137c-0.373,0.102-0.446,0.502-0.854,0.568C212.341,19.008,212.836,18.893,212.838,19.268z"/>
			<path d="M369.457,6.477c-0.445-0.217-0.425-0.9-1.137-0.854C368.234,6.375,368.914,6.358,369.457,6.477z"/>
			<path d="M361.784,28.934C362.531,29.637,363.432,28.113,361.784,28.934L361.784,28.934z"/>
			<path d="M356.1,34.617c0.436-0.003,0.935-0.773,0-0.566c0.254-0.505,1.151-0.361,0.853-1.423
				c-0.655-0.087-0.315,0.821-0.853,0.854c-0.23-0.055-0.284-0.285-0.568-0.283c0.646-0.441,0.536-0.594,0.284-1.422
				c-0.604,0.533-0.95,1.324-1.421,1.988C355.257,33.754,356.265,33.6,356.1,34.617z"/>
			<path d="M354.394,32.346c0.875-0.283-0.317-0.77-0.569-0.854C352.947,31.777,354.641,31.762,354.394,32.346z"/>
			<path d="M348.707,26.658c-0.679,0.271-1.854,0.902-1.137,1.705C348.171,28.016,348.368,27.266,348.707,26.658z"/>
			<path d="M344.729,11.594C344.027,12.342,345.549,13.242,344.729,11.594L344.729,11.594z"/>
			<path d="M343.308,20.408c0.542-0.197-0.309-0.444-0.284,0c-0.351-0.125-0.584-0.365-0.568-0.854
				c-0.893,0.321-0.751-0.082-1.421,0.284c0.312,0.918,0.768,1.696,1.136,2.557c-0.054,0.231-0.283,0.285-0.281,0.569
				c-1.267,0.312-1.505-1.255-2.275-0.569c-0.169,0.97,2.029,0.807,0.569,1.423c0.512,0.399,2.518-0.123,3.127-0.567
				c-0.122-1.017-0.715-1.561-1.421-1.988C342.233,20.848,342.972,20.828,343.308,20.408z"/>
			<path d="M342.454,18.417c0.183-0.625,0.374-0.943,0-1.706c-0.829,0.253-0.979,0.363-1.421-0.284
				c-0.834,0.021-1.057,0.65-1.423,1.139c0.26,0.837,0.985,2.218,1.991,1.421c0.085-0.748-0.396-0.933-1.14-0.853
				c0.329-0.422,0.329-0.718,0-1.138c0.189,0,0.38,0,0.569,0C341.7,17.276,341.504,18.418,342.454,18.417z"/>
			<path d="M340.748,12.448c0.171-0.173-1.967-0.289-1.705,0.568c0.33,0.045,0.507-0.063,0.567-0.285
				c0.682-0.111-0.156,1.296,0.854,0.854C340.488,13.135,340.327,12.5,340.748,12.448z"/>
			<path d="M285.037,20.122c-0.92-0.354-0.217,0.918-1.137,0.566C283.988,21.292,285.248,20.75,285.037,20.122z"/>
			<path d="M283.9,17.848c0.537-0.023-0.068-1.217-0.854-0.853C282.961,17.651,283.869,17.311,283.9,17.848z"/>
			<path d="M269.119,22.111C270.461,21.668,269.498,20.704,269.119,22.111L269.119,22.111z"/>
			<path d="M250.643,22.393c0.44-0.375-0.779-0.078-1.705-0.281c0.524,0.158,1.418,1.395,0.567,1.988
				C250.736,24.973,250.318,22.887,250.643,22.393z"/>
			<path d="M248.369,21.542c-0.961-0.106-0.446,1.261-1.705,0.854c-0.08,0.459,0.271,0.49,0.283,0.854c0.191,0,0.379,0,0.568,0
				C247.129,22.01,248.617,22.641,248.369,21.542z"/>
			<path d="M220.229,20.975c-0.661,0.191-1.194,0.511-1.137,1.419C219.83,22.28,219.912,21.512,220.229,20.975z"/>
			<path d="M215.966,20.122c-0.009-0.275-0.35-0.222-0.567-0.285c0.115-0.548,1.103-0.225,0.853-1.137
				c-1.064,0.914-1.446-1.368-2.271,0.568C215.151,19.042,214.838,20.301,215.966,20.122z"/>
		</g>
	</g>
</g>
</svg>
