<?xml version="1.0" encoding="utf-8"?>
<!-- Generator: Adobe Illustrator 15.0.0, SVG Export Plug-In . SVG Version: 6.00 Build 0)  -->
<!DOCTYPE svg PUBLIC "-//W3C//DTD SVG 1.1//EN" "http://www.w3.org/Graphics/SVG/1.1/DTD/svg11.dtd">
<svg version="1.1" id="Layer_1" xmlns="http://www.w3.org/2000/svg" xmlns:xlink="http://www.w3.org/1999/xlink" x="0px" y="0px"
	 width="341px" height="259px" viewBox="0 0 341 259" enable-background="new 0 0 341 259" xml:space="preserve">
<g>
	<g id="FanW3D.tif">
		<g>
			<path d="M170.5,0.33c-2.058,3.381-2.779,6.877-5.219,9.738c-3.753,4.409-9.322,7.154-14.606,10.086
				c8.355-0.339,14.813-5.589,19.13-11.129c5.76,4.791,10.543,10.556,20.174,11.478C181.721,15.54,172.92,11.127,170.5,0.33z"/>
			<path d="M268.581,12.503c7.964,3.979,16.062,7.821,19.479,16.347c-2.776-0.142-7.655-0.54-10.782,0.695
				c1.571,3.066,2.802,6.474,4.174,9.739c0.36,1.166,1.629-0.744,2.435-1.391c1.188-0.954,2.102-1.798,3.479-2.435
				c6.289-0.725,9.36,1.77,9.738,6.956c6.134-3.544,4.781-12.573,0.694-17.391C291.853,18.014,279.719,11.991,268.581,12.503z"/>
			<path d="M52.243,29.198c3.336-8.606,11.091-12.794,19.479-16.347c-9.733-1.097-21.192,4.198-27.129,10.086
				c-2.163,2.146-5.146,5.931-5.563,9.042c-0.611,4.539,1.648,7.607,3.825,10.782c1.297-2.989,1.795-6.474,5.218-7.304
				c4.644-1.126,8.126,1.561,10.435,4.174c2.118-2.751,2.542-7.197,4.87-9.738C60.56,28.307,55.75,28.37,52.243,29.198z"/>
			<path d="M262.32,20.85c-10.357-0.273-19.721,3.466-21.562,12.869c2.287-0.084,3.793,0.612,6.26,0.348
				C248.879,26.419,254.78,22.816,262.32,20.85z"/>
			<path d="M93.285,34.067c2.573,0.255,4.248-0.389,6.608-0.348c-2.347-9.016-10.244-12.479-20.868-13.216
				c-0.891-0.015-0.424,0.258-0.35,0.696C86.195,22.84,91.644,26.549,93.285,34.067z"/>
			<path d="M216.409,21.546c-0.229,0-0.463,0-0.694,0c3.508,3.332,11.818,5.037,11.826,12.173c0.004,4.555-4.127,7.301-7.652,9.739
				c-0.146-3.206,0.105-5.988-2.436-7.651c-4.408-2.887-14.052-0.81-19.478-4.173c-2.987-1.853-3.302-3.857-4.869-7.652
				c-2.925,5.656-1.644,12.953,3.479,14.608c3.797,1.228,8.812,0.211,12.521,1.392c4.364,1.389,7.205,5.222,4.521,11.129
				c2.836-0.288,5.737-2.512,9.043-4.174c3.092-1.555,6.752-2.999,9.043-4.869c2.461-2.01,5.381-5.818,3.825-10.434
				C233.489,25.544,223.412,22.738,216.409,21.546z"/>
			<path d="M124.936,21.894c-5.438,0.182-11.815,1.646-15.999,4.869c-2.631,2.026-5.761,5.938-4.175,10.435
				c0.622,1.762,3.182,4.312,4.87,5.565c4.767,3.534,12.277,6.123,17.042,8.347c-0.617-1.948-1.168-4.609-0.694-6.608
				c1.905-8.07,18.55-2.477,21.91-9.392c1.637-3.881,0.855-8.202-0.347-11.478c-1.521,2.953-1.553,5.12-3.479,6.957
				c-5.859,5.584-20.024,0.65-23.651,8.347c-0.14,1.647,0.621,2.394,0.349,4.174c-2.912-1.175-7.11-4.154-7.65-8
				C112.065,27.672,119.811,24.552,124.936,21.894z"/>
			<path d="M269.276,26.763c-0.296-0.063-0.328,0.136-0.349,0.348c1.375,4.266,2.136,7.349,1.738,12.173
				c-0.869,10.599-8.406,17.719-14.955,22.608c1.707,19.497-9.563,28.888-21.218,36.172c3.632-0.829,6.993-2.819,10.437-4.522
				c9.945-4.918,19.982-11.504,25.39-21.215c-9.871-1.701-2.677-17.168,6.608-10.436c4.781-5.073,8.262-11.449,9.043-20.521
				c-2.812,4.146-6.178,7.734-10.436,10.435C278.871,43.193,275.479,31.646,269.276,26.763z"/>
			<path d="M163.89,26.763c-2.286,4.786-4.652,9.491-10.436,10.782c1.941,1.885,3.134,4.519,2.783,8.695
				c0.032,1.224,1.939-0.788,2.436-1.391C161.821,41.001,164.3,34.64,163.89,26.763z"/>
			<path d="M177.107,27.459c-0.404-0.057-0.619,0.077-0.695,0.348c-0.066,8.764,3.363,15.881,7.999,18.782
				c-1.056-3.504,0.308-7.252,2.437-8.695C182.061,35.954,178.785,32.504,177.107,27.459z"/>
			<path d="M102.675,42.762c2.05,0.583,3.41,2.392,5.219,3.479c7.593,4.562,16.901,6.407,23.997,11.478
				c7.182,5.132,11.734,11.357,15.652,20.174c3.535-3.188,8.714-6.588,13.563-7.304c-5.766,3.427-9.457,9.061-11.479,15.998
				c-0.62,2.131-0.846,5.015-2.782,6.608c-0.906-6.86-2.825-12.709-7.304-15.999c-10.089,0.124-18.927-0.615-24.348-4.521
				c-4.157-2.995-6.169-7.914-10.086-11.825c-2.667-0.75-5.845,0.836-8,1.739c-0.446,0.361-2.084,2.47-2.087,1.043
				c-0.92-2.665,1.005-5.482,2.087-7.303c-2.584-1.706-4.993-3.586-8.695-4.174c-0.456,2.435,0.725,5.062,0.349,6.261
				c-4.395-4.141-11.579-11.279-11.13-19.825c0.243-4.625,3.366-8.035,6.606-10.782c-5.87,15.831,11.421,20.462,22.607,24.694
				C104.807,49.905,103.285,46.791,102.675,42.762z M112.416,54.24c-1.642,15.1,11.152,18.75,25.736,18.782
				c1.394-0.441-0.75-1.391-1.043-1.738c-1.626-1.933-3.631-4.936-4.87-7.305c-3.033,3.053-8.481,4.919-12.521,2.087
				c-1.419-0.993-3.099-3.066-3.13-4.87c-0.059-3.158,2.577-3.732,4.173-5.912C118.107,54.808,115.84,53.945,112.416,54.24z
				 M123.196,61.892c1.382,1.298,4.604,1.417,5.564-0.348C127.811,58.811,122.942,56.78,123.196,61.892z"/>
			<path d="M170.5,38.24c-1.521,2.803-2.484,5.995-4.521,8.348c-4.058,4.688-10.484,7.512-17.043,8.347
				c0.491,2.706,3.352,5.005,4.521,8.348c0.619,1.768,0.72,3.633,0.696,5.913c2.342-1.6,3.469-4.414,3.13-8.696
				c4.855-1.519,9.654-3.098,12.869-6.26c3.397,2.861,7.461,5.061,12.869,5.913c-0.224,3.932,0.835,6.585,2.434,8.695
				c1.296-2.072,1.291-4.781,2.437-7.304c1.049-2.308,2.738-4.18,3.826-6.26C181.293,52.954,172.969,48.521,170.5,38.24z"/>
			<path d="M189.629,45.544c3.795,2.351,8.512,3.778,10.088,8.347c-1.412,5.081-4.345,8.644-5.914,13.564
				c4.557-5.184,8.509-10.97,15.306-13.912C205.549,48.154,198.986,43.979,189.629,45.544z"/>
			<path d="M252.584,63.283c-4.08,2.08-7.084,4.643-11.826,5.217c-1.812,0.219-4.015-0.789-5.912-0.348
				c-2.385,0.553-6.896,6.479-9.393,7.999c-4.49,2.737-8.111,2.976-12.869,4.522c8.149,1.559,17.449,2.057,23.651,5.563
				c1.791,1.015,3.159,2.933,4.869,3.479c-0.812-6.611-5.83-9.01-10.782-11.479c1.395-1.338,2.729-3.65,4.869-4.521
				c1.65-0.67,3.635-0.262,5.217-0.695C245.562,71.609,250.047,67.922,252.584,63.283z"/>
			<path d="M88.763,63.631c-0.621-0.098-0.714,0.328-0.349,0.347c2.326,3.819,5.249,6.589,9.739,8.349
				c4.298,1.684,9.38,1.284,11.825,5.565c-4.549,3.104-10.145,5.161-10.782,12.172c6.449-6.071,16.878-8.164,28.521-9.042
				c-2.849-1.572-5.985-1.919-8.694-3.13c-5.239-2.347-9.37-5.692-13.217-9.739C99.089,69.565,93.402,66.779,88.763,63.631z"/>
			<path d="M267.189,81.717c5.225,5.791,10.877,11.152,11.131,21.912c8.109-6.816,1.71-22.348-3.827-27.825
				C271.799,77.514,270.049,80.17,267.189,81.717z"/>
			<path d="M61.982,103.629c0.64-8.979,5.052-16.895,11.479-21.217c-2.078-2.443-5.071-3.973-6.956-6.608
				C60.129,80.435,54.311,96.355,61.982,103.629z"/>
			<path d="M199.02,86.586c12.74-1.455,23.076,2.396,30.26,7.65c-0.818-3.121-2.355-5.525-3.479-8.347
				c-4.268-1.524-10.475-3.142-16.349-2.783C205.568,83.346,201.34,84.183,199.02,86.586z"/>
			<path d="M114.502,85.891c-1.158,2.898-2.412,5.703-3.479,8.695c7.047-5.651,17.561-9.486,30.606-8
				C135.075,81.338,121.9,83.062,114.502,85.891z"/>
			<path d="M231.715,103.629c3.724,5.443,8.11,12.053,6.606,21.563c0.422,1.38,1.358-0.665,1.394-0.696
				c5.02-4.854,10.215-16.906,3.824-24.692C239.586,101.067,236.521,103.217,231.715,103.629z"/>
			<path d="M101.98,125.542c-1.119-10.625,3.029-15.982,6.607-21.912c-4.615-0.603-7.884-2.551-11.826-3.825
				C90.705,107.868,96.013,122.36,101.98,125.542z"/>
			<path d="M294.318,60.153c0.102-4.773-0.783-9.619-1.738-14.26c-1.014,0.783-1.596,2.317-2.087,3.478
				c-2.562,6.05-4.878,12.641-8.694,18.086c-1.141,1.625-2.621,2.816-3.826,4.521c0.147-0.21-1.364,1.24,0,1.043
				c5.328-2.208,9.972-5.102,13.218-9.391c1.272,4.781-0.958,8.992-3.13,11.478c25.505-8.812,40.935-30.714,52.519-54.606
				c-0.389-0.91-1.461,1.153-2.086,2.087c-2.081,3.104-4.008,6.679-6.608,9.738C322.146,43.777,308.641,53.177,294.318,60.153z"/>
			<path d="M0.421,20.502C5.17,32.433,12.231,43.799,20.594,53.196c8.333,9.362,18.65,17.662,31.649,21.912
				c-2.13-2.749-3.896-6.895-3.479-11.131c2.3,0.427,3.354,3.273,5.563,4.87c2.314,1.67,5.237,2.688,8,3.825
				c1.428-0.519-1.101-1.651-1.737-2.435c-5.171-6.325-8.976-16.164-12.174-24.695c-1.928,3.64-2,9.13-2.436,14.26
				C27.549,51.343,10.618,38.361,0.421,20.502z"/>
			<path d="M71.72,26.763c-5.882,3.988-10.788,15.062-6.607,24.695c-3.969-1.597-8.124-6.019-10.435-10.435
				c-0.092,7.526,4.021,15.897,8.694,20.869c5.663-3.747,13.312,0.541,11.479,6.608c-0.682,2.252-2.688,2.479-4.521,4.172
				c1.107,3.684,4.331,5.927,6.956,8.35c7.69,7.098,17.697,12.971,28.521,17.391c-1.996-2.156-4.96-3.342-7.305-5.218
				c-6.898-5.521-13.263-13.612-13.912-25.042c-0.104-1.844,0.611-4.429,0-6.261c-0.528-1.584-3.299-2.856-5.218-4.522
				C72.467,51.369,66.254,39.185,71.72,26.763z"/>
			<path d="M188.932,74.413c1.439,0.965,2.238,2.938,4.175,3.131c1.05-3.439,3.003-6.445,4.868-9.043
				c1.882-2.617,4.213-5.536,6.607-7.651c9.244-8.162,23.182-10.368,33.043-18.086c-0.257,4.265-2.324,6.719-3.826,9.738
				c6.397-3.037,17.453-5.924,21.563-11.129c2.829-3.584,2.472-9.24,0.694-13.564c3.777,2.377,7.521,7.659,6.609,14.26
				c-0.759,5.482-6.175,12.018-9.393,14.956c-0.182,0.164-1.444,1.892-1.739,0.696c0.349-1.465,1.46-4.421,0-5.565
				c-3.272,0.9-6.305,2.043-7.999,4.521c1.262,1.869,2.333,3.928,2.087,7.303c-2.967-1.555-5.549-3.495-10.087-3.478
				c-4.307,4.386-6.068,9.454-10.781,12.521c-5.438,3.541-14.244,4.476-23.998,4.175c-4.694,3.189-5.752,10.016-7.651,15.998
				c-2.39-5.857-3.323-12.135-6.956-16.693c-2.008-2.519-5.059-3.76-6.262-6.262C182.777,72.029,186.2,72.586,188.932,74.413z
				 M219.192,55.284c1.608,1.769,4.077,2.273,4.521,4.521c1.508,7.628-11.527,10.377-14.957,4.173
				c-2.809,2.526-3.873,6.794-7.304,8.694c7.033,0.943,16.541-0.639,21.912-4.869c2.972-2.338,6.677-8.315,4.174-13.912
				C224.487,54.085,221.951,54.796,219.192,55.284z M211.887,61.892c1.25,1.113,4.094,1.507,5.219,0
				C217.719,56.66,212.061,58.647,211.887,61.892z"/>
			<path d="M151.021,45.544c-9.576-1.915-15.339,2.974-19.825,7.304c5.895,3.845,10.865,8.613,14.956,14.26
				c0.185,0.536,0.361,0.023,0.349-0.348c-0.877-2.201-1.67-4.126-2.782-6.261c-1.771-3.393-3.979-5.947-1.393-9.391
				c1.036-1.378,2.552-2.256,4.175-3.13C148.048,47.147,149.793,46.74,151.021,45.544z"/>
		</g>
	</g>
	<g id="FanW3D.tif_1_">
		<g>
			<path d="M170.5,133.33c-2.058,3.381-2.779,6.877-5.219,9.738c-3.753,4.409-9.322,7.154-14.606,10.086
				c8.355-0.339,14.813-5.589,19.13-11.129c5.76,4.791,10.543,10.556,20.174,11.478C181.721,148.54,172.92,144.127,170.5,133.33z"/>
			<path d="M268.581,145.503c7.964,3.979,16.062,7.821,19.479,16.348c-2.776-0.143-7.655-0.54-10.782,0.694
				c1.571,3.066,2.802,6.475,4.174,9.739c0.36,1.166,1.629-0.744,2.435-1.391c1.188-0.954,2.102-1.799,3.479-2.436
				c6.289-0.725,9.36,1.771,9.738,6.956c6.134-3.544,4.781-12.573,0.694-17.391C291.853,151.015,279.719,144.991,268.581,145.503z"
				/>
			<path d="M52.243,162.198c3.336-8.606,11.091-12.794,19.479-16.347c-9.733-1.098-21.192,4.197-27.129,10.086
				c-2.163,2.146-5.146,5.931-5.563,9.042c-0.611,4.539,1.648,7.606,3.825,10.781c1.297-2.988,1.795-6.474,5.218-7.304
				c4.644-1.126,8.126,1.562,10.435,4.174c2.118-2.751,2.542-7.196,4.87-9.737C60.56,161.308,55.75,161.37,52.243,162.198z"/>
			<path d="M262.32,153.851c-10.357-0.273-19.721,3.466-21.562,12.868c2.287-0.084,3.793,0.612,6.26,0.349
				C248.879,159.419,254.78,155.816,262.32,153.851z"/>
			<path d="M93.285,167.067c2.573,0.255,4.248-0.39,6.608-0.349c-2.347-9.016-10.244-12.479-20.868-13.216
				c-0.891-0.015-0.424,0.258-0.35,0.696C86.195,155.84,91.644,159.549,93.285,167.067z"/>
			<path d="M216.409,154.546c-0.229,0-0.463,0-0.694,0c3.508,3.332,11.818,5.037,11.826,12.173c0.004,4.556-4.127,7.302-7.652,9.739
				c-0.146-3.206,0.105-5.988-2.436-7.65c-4.408-2.888-14.052-0.811-19.478-4.174c-2.987-1.853-3.302-3.856-4.869-7.651
				c-2.925,5.656-1.644,12.953,3.479,14.607c3.797,1.229,8.812,0.211,12.521,1.393c4.364,1.389,7.205,5.222,4.521,11.129
				c2.836-0.288,5.737-2.512,9.043-4.174c3.092-1.556,6.752-2.999,9.043-4.869c2.461-2.01,5.381-5.818,3.825-10.435
				C233.489,158.544,223.412,155.738,216.409,154.546z"/>
			<path d="M124.936,154.895c-5.438,0.182-11.815,1.646-15.999,4.869c-2.631,2.025-5.761,5.938-4.175,10.435
				c0.622,1.762,3.182,4.312,4.87,5.565c4.767,3.533,12.277,6.122,17.042,8.347c-0.617-1.948-1.168-4.609-0.694-6.608
				c1.905-8.069,18.55-2.477,21.91-9.392c1.637-3.881,0.855-8.202-0.347-11.479c-1.521,2.953-1.553,5.12-3.479,6.957
				c-5.859,5.584-20.024,0.65-23.651,8.348c-0.14,1.646,0.621,2.394,0.349,4.174c-2.912-1.175-7.11-4.154-7.65-8
				C112.065,160.672,119.811,157.552,124.936,154.895z"/>
			<path d="M269.276,159.764c-0.296-0.063-0.328,0.136-0.349,0.348c1.375,4.266,2.136,7.349,1.738,12.173
				c-0.869,10.599-8.406,17.719-14.955,22.608c1.707,19.497-9.563,28.888-21.218,36.172c3.632-0.829,6.993-2.819,10.437-4.522
				c9.945-4.918,19.982-11.504,25.39-21.215c-9.871-1.701-2.677-17.168,6.608-10.436c4.781-5.073,8.262-11.449,9.043-20.521
				c-2.812,4.146-6.178,7.734-10.436,10.436C278.871,176.193,275.479,164.646,269.276,159.764z"/>
			<path d="M163.89,159.764c-2.286,4.785-4.652,9.49-10.436,10.781c1.941,1.886,3.134,4.52,2.783,8.695
				c0.032,1.224,1.94-0.788,2.436-1.391C161.821,174.001,164.3,167.641,163.89,159.764z"/>
			<path d="M177.107,160.459c-0.404-0.057-0.619,0.077-0.695,0.349c-0.066,8.764,3.363,15.881,7.999,18.781
				c-1.056-3.504,0.308-7.252,2.437-8.694C182.061,168.954,178.785,165.504,177.107,160.459z"/>
			<path d="M102.675,175.762c2.05,0.583,3.41,2.393,5.219,3.479c7.593,4.562,16.901,6.407,23.997,11.478
				c7.182,5.133,11.734,11.357,15.652,20.175c3.535-3.188,8.714-6.588,13.563-7.305c-5.766,3.428-9.457,9.062-11.479,15.998
				c-0.62,2.131-0.846,5.016-2.782,6.608c-0.906-6.86-2.825-12.709-7.304-15.999c-10.089,0.124-18.927-0.615-24.348-4.521
				c-4.157-2.994-6.169-7.914-10.086-11.824c-2.667-0.75-5.845,0.836-8,1.738c-0.446,0.361-2.084,2.471-2.087,1.043
				c-0.92-2.665,1.005-5.481,2.087-7.303c-2.584-1.706-4.993-3.586-8.695-4.174c-0.456,2.435,0.725,5.062,0.349,6.261
				c-4.395-4.141-11.579-11.279-11.13-19.825c0.243-4.625,3.366-8.034,6.606-10.781c-5.87,15.831,11.421,20.462,22.607,24.693
				C104.807,182.905,103.285,179.791,102.675,175.762z M112.416,187.24c-1.642,15.1,11.152,18.75,25.736,18.782
				c1.394-0.441-0.75-1.392-1.043-1.738c-1.626-1.933-3.631-4.936-4.87-7.305c-3.033,3.053-8.481,4.919-12.521,2.087
				c-1.419-0.993-3.099-3.066-3.13-4.87c-0.059-3.158,2.577-3.732,4.173-5.912C118.107,187.809,115.84,186.945,112.416,187.24z
				 M123.196,194.893c1.382,1.298,4.604,1.417,5.564-0.349C127.811,191.812,122.942,189.78,123.196,194.893z"/>
			<path d="M170.5,171.24c-1.521,2.803-2.484,5.995-4.521,8.348c-4.058,4.688-10.484,7.513-17.043,8.348
				c0.491,2.706,3.352,5.005,4.521,8.348c0.619,1.768,0.72,3.633,0.696,5.913c2.342-1.6,3.469-4.414,3.13-8.696
				c4.855-1.519,9.654-3.098,12.869-6.26c3.397,2.861,7.461,5.061,12.869,5.913c-0.224,3.932,0.835,6.585,2.434,8.695
				c1.296-2.072,1.291-4.781,2.437-7.305c1.049-2.308,2.738-4.18,3.826-6.26C181.293,185.954,172.969,181.521,170.5,171.24z"/>
			<path d="M189.629,178.544c3.795,2.352,8.512,3.778,10.088,8.348c-1.412,5.081-4.345,8.644-5.914,13.563
				c4.557-5.184,8.509-10.97,15.306-13.912C205.549,181.154,198.986,176.979,189.629,178.544z"/>
			<path d="M252.584,196.283c-4.08,2.08-7.084,4.643-11.826,5.217c-1.812,0.219-4.015-0.789-5.912-0.348
				c-2.385,0.553-6.896,6.479-9.393,7.999c-4.49,2.737-8.111,2.976-12.869,4.521c8.149,1.56,17.449,2.058,23.651,5.563
				c1.791,1.015,3.159,2.933,4.869,3.479c-0.812-6.61-5.83-9.01-10.782-11.479c1.395-1.338,2.729-3.65,4.869-4.521
				c1.65-0.67,3.635-0.262,5.217-0.694C245.562,204.609,250.047,200.922,252.584,196.283z"/>
			<path d="M88.763,196.631c-0.621-0.098-0.714,0.328-0.349,0.348c2.326,3.818,5.249,6.589,9.739,8.349
				c4.298,1.684,9.38,1.284,11.825,5.565c-4.549,3.104-10.145,5.16-10.782,12.172c6.449-6.071,16.878-8.164,28.521-9.042
				c-2.849-1.572-5.985-1.919-8.694-3.13c-5.239-2.348-9.37-5.692-13.217-9.739C99.089,202.565,93.402,199.779,88.763,196.631z"/>
			<path d="M267.189,214.717c5.225,5.791,10.877,11.152,11.131,21.912c8.109-6.815,1.71-22.348-3.827-27.824
				C271.799,210.515,270.049,213.17,267.189,214.717z"/>
			<path d="M61.982,236.629c0.64-8.979,5.052-16.895,11.479-21.217c-2.078-2.443-5.071-3.973-6.956-6.608
				C60.129,213.436,54.311,229.355,61.982,236.629z"/>
			<path d="M199.02,219.586c12.74-1.455,23.076,2.396,30.26,7.65c-0.818-3.121-2.355-5.525-3.479-8.347
				c-4.268-1.524-10.475-3.143-16.349-2.783C205.568,216.347,201.34,217.184,199.02,219.586z"/>
			<path d="M114.502,218.892c-1.158,2.897-2.412,5.702-3.479,8.694c7.047-5.65,17.561-9.485,30.606-8
				C135.075,214.338,121.9,216.062,114.502,218.892z"/>
			<path d="M231.715,236.629c3.724,5.443,8.11,12.054,6.606,21.563c0.422,1.38,1.358-0.665,1.394-0.696
				c5.02-4.854,10.215-16.906,3.824-24.692C239.586,234.067,236.521,236.217,231.715,236.629z"/>
			<path d="M101.98,258.542c-1.119-10.625,3.029-15.981,6.607-21.912c-4.615-0.603-7.884-2.551-11.826-3.824
				C90.705,240.868,96.013,255.36,101.98,258.542z"/>
			<path d="M294.318,193.153c0.102-4.773-0.783-9.619-1.738-14.26c-1.014,0.782-1.596,2.316-2.087,3.478
				c-2.562,6.05-4.878,12.641-8.694,18.086c-1.141,1.625-2.621,2.816-3.826,4.521c0.147-0.21-1.364,1.239,0,1.043
				c5.328-2.208,9.972-5.103,13.218-9.392c1.272,4.781-0.958,8.992-3.13,11.479c25.505-8.812,40.935-30.714,52.519-54.606
				c-0.389-0.91-1.461,1.153-2.086,2.087c-2.081,3.104-4.008,6.68-6.608,9.738C322.146,176.777,308.641,186.177,294.318,193.153z"/>
			<path d="M0.421,153.502c4.749,11.932,11.811,23.297,20.173,32.694c8.333,9.362,18.65,17.662,31.649,21.912
				c-2.13-2.749-3.896-6.896-3.479-11.131c2.3,0.427,3.354,3.272,5.563,4.87c2.314,1.67,5.237,2.688,8,3.824
				c1.428-0.519-1.101-1.65-1.737-2.435c-5.171-6.325-8.976-16.164-12.174-24.695c-1.928,3.641-2,9.13-2.436,14.26
				C27.549,184.343,10.618,171.361,0.421,153.502z"/>
			<path d="M71.72,159.764c-5.882,3.987-10.788,15.062-6.607,24.694c-3.969-1.597-8.124-6.019-10.435-10.435
				c-0.092,7.525,4.021,15.896,8.694,20.869c5.663-3.747,13.312,0.541,11.479,6.607c-0.682,2.252-2.688,2.479-4.521,4.172
				c1.107,3.685,4.331,5.928,6.956,8.351c7.69,7.098,17.697,12.971,28.521,17.391c-1.996-2.156-4.96-3.342-7.305-5.218
				c-6.898-5.521-13.263-13.612-13.912-25.042c-0.104-1.844,0.611-4.429,0-6.261c-0.528-1.584-3.299-2.856-5.218-4.522
				C72.467,184.369,66.254,172.186,71.72,159.764z"/>
			<path d="M188.932,207.413c1.439,0.965,2.238,2.938,4.175,3.131c1.05-3.438,3.003-6.444,4.868-9.043
				c1.882-2.617,4.213-5.536,6.607-7.65c9.244-8.162,23.182-10.368,33.043-18.086c-0.257,4.265-2.324,6.719-3.826,9.737
				c6.397-3.037,17.453-5.924,21.563-11.129c2.829-3.584,2.472-9.24,0.694-13.563c3.777,2.377,7.521,7.658,6.609,14.26
				c-0.759,5.481-6.175,12.018-9.393,14.956c-0.182,0.164-1.444,1.892-1.739,0.696c0.349-1.466,1.46-4.422,0-5.565
				c-3.272,0.9-6.305,2.043-7.999,4.521c1.262,1.869,2.333,3.929,2.087,7.304c-2.967-1.556-5.549-3.495-10.087-3.479
				c-4.307,4.387-6.068,9.454-10.781,12.521c-5.438,3.541-14.244,4.476-23.998,4.175c-4.694,3.189-5.752,10.016-7.651,15.998
				c-2.39-5.857-3.323-12.135-6.956-16.693c-2.008-2.519-5.059-3.76-6.262-6.262C182.777,205.029,186.2,205.586,188.932,207.413z
				 M219.192,188.284c1.608,1.769,4.077,2.273,4.521,4.521c1.508,7.628-11.527,10.377-14.957,4.173
				c-2.809,2.525-3.873,6.794-7.304,8.693c7.033,0.943,16.541-0.639,21.912-4.869c2.972-2.338,6.677-8.314,4.174-13.911
				C224.487,187.085,221.951,187.796,219.192,188.284z M211.887,194.893c1.25,1.112,4.094,1.507,5.219,0
				C217.719,189.66,212.061,191.647,211.887,194.893z"/>
			<path d="M151.021,178.544c-9.576-1.915-15.339,2.975-19.825,7.305c5.895,3.845,10.865,8.612,14.956,14.26
				c0.185,0.536,0.361,0.022,0.349-0.349c-0.877-2.2-1.67-4.126-2.782-6.261c-1.771-3.393-3.979-5.947-1.393-9.391
				c1.036-1.378,2.552-2.256,4.175-3.13C148.048,180.147,149.793,179.74,151.021,178.544z"/>
		</g>
	</g>
</g>
</svg>
