<?xml version="1.0" encoding="utf-8"?>
<!-- Generator: Adobe Illustrator 15.0.0, SVG Export Plug-In . SVG Version: 6.00 Build 0)  -->
<!DOCTYPE svg PUBLIC "-//W3C//DTD SVG 1.1//EN" "http://www.w3.org/Graphics/SVG/1.1/DTD/svg11.dtd">
<svg version="1.1" id="Layer_1" xmlns="http://www.w3.org/2000/svg" xmlns:xlink="http://www.w3.org/1999/xlink" x="0px" y="0px"
	 width="473px" height="229px" viewBox="0 0 473 229" enable-background="new 0 0 473 229" xml:space="preserve">
<g>
	<g id="IfPBdz.tif">
		<g>
			<path d="M143.302,57.612c2.767,6.599-0.223,15.858,0,23.606c1.085,0.463,2.67,0.425,4.257,0.387
				c0.84-3.675,2.064-6.966,3.096-10.448c0.793,1.692,1.227,4.716,0.774,6.966c-0.381,1.904-2.22,2.401-1.548,3.482
				c1.111-0.055,3.018,1.075,3.87,0c0.603-1.376-1.313-0.233-1.161-1.161c0.239-6.727,0.671-13.259,0.772-20.123
				c-0.508-1.668,1.844-0.479,1.549-1.935c-1.438-0.627-3.807-0.322-5.805-0.388c-1.203,3.312-1.903,7.126-3.097,10.449
				c-1.183-2.481,0.499-5.429,0-8.514c-0.268-1.041,0.8-0.748,1.161-1.161C146.741,57.526,145.042,57.549,143.302,57.612z"/>
			<path d="M142.526,66.515c-3.633,2.195-7.323,8.673-4.256,13.931c0-2.063,0-4.128,0-6.191c1.273-0.017,1.926-0.653,3.482-0.388
				c0.594,2.115,0.342,5.076,0.387,7.74c-7.398,1.926-11.111-3.037-10.061-10.836c1.128-1.71,3.048-2.627,3.869-4.644
				c-1.031,0-2.063,0-3.096,0c-0.328-2.511-0.789-4.888-0.773-7.739C138.055,56.058,144.127,58.853,142.526,66.515z M137.497,59.936
				c-1.432,0.827,0.173,4.201,0,4.644C137.817,63.754,137.299,62.791,137.497,59.936z"/>
			<path d="M158.395,58.773c0.022,8.923-2.804,14.998-3.871,22.832c3.013,1.048,6.684,1.956,10.449,1.161
				c2.666-6.235,2.215-15.587,5.418-21.284c-1.056-1.266-3.725-0.92-5.418-1.548c-1.716,6.41-2.635,13.618-4.256,20.123
				c-0.666-6.987,2.893-13.103,3.096-20.51C161.715,59.581,160.594,58.638,158.395,58.773z"/>
			<path d="M123.952,59.548c-2.289-0.227-3.691,0.436-5.03,1.16c-0.642,2.585,0.005,6.455-1.161,8.514
				c-1.487-0.507-1.46-2.191-1.936-3.87c-0.403-1.427,0.299-3.856-1.549-3.869c-1.645,1.381,0.029,3.811,0.389,5.418
				c1.245,5.604,2.333,12.261,4.257,17.414c1.458,0.298,1.85-0.473,3.096-0.387c0.076-4.182,0.793-7.72,0.773-11.997
				c1.961,2.54,2.621,7.165,1.936,11.223c1.436,0.274,1.66-0.661,3.096-0.387c-2.906-5.994-2.77-15.032-5.03-21.671
				C122.948,60.351,124.292,60.79,123.952,59.548z"/>
			<path d="M110.796,61.87c-2.323,1.921,1.114,4.479,2.321,5.418C114.073,65.288,112.679,62.316,110.796,61.87z"/>
			<path d="M181.612,66.126c0.361,3.415-1.508,6.929-3.096,11.223c-1.181,3.189-2.521,8.682-5.031,9.288
				c-2.356,0.569-4.141-1.854-6.967-2.322c-0.539-4.537,1.86-6.138,2.322-9.675c2.145,0.05,2.983,1.401,5.417,1.161
				c0.604-3.785,3.417-7.416,3.097-10.836c-1.188,1.264-1.586,3.316-1.936,5.418c-2.17,0.364-2.624-0.988-4.257-1.161
				c0.562-2.274,0.66-5.014,1.935-6.578C177.093,61.253,180.008,63.88,181.612,66.126z M173.1,77.735
				c-1.311,1.657-2.099,3.836-2.322,6.579C172.088,82.659,172.876,80.479,173.1,77.735z"/>
			<path d="M110.021,85.862c-2.023,0.169-3.391,0.995-5.805,0.774c0.535-3.981,0.395-8.664-1.936-10.836
				c-1.649,3.529,0.405,7.105,0.388,11.223c-1.947-0.271-2.697,0.656-4.646,0.387c0.427-5.14-1.964-9.564,0.774-12.771
				c-1.888-1.981-2.021-5.72-1.936-9.675c2.085-2.171,6.816-1.697,10.449-2.321C106.192,71.025,108.106,79.271,110.021,85.862z
				 M101.895,64.579c-2.531,2.336-0.34,7.418,0.387,10.062C104.277,71.936,102.007,67.663,101.895,64.579z"/>
			<path d="M62.422,74.253c-4.154,1.781-7.442,6.487-5.806,12.771c0.963-1.36,0.79-3.854,0.774-6.192
				c1.722-0.303,2.323,0.516,3.87,0.388c0.198,2.648-0.688,4.215-0.387,6.965c-11.762,4.383-11.61-12.741-5.031-15.479
				c-1.143-0.277-2.396-0.442-3.096-1.161c-0.269-2.719,0.653-4.247,0.387-6.966C60.637,62.853,64.788,66.339,62.422,74.253z
				 M58.553,66.126c-1.163,0.771-1.316,3.291-0.774,4.644C58.374,69.56,58.529,67.911,58.553,66.126z"/>
			<path d="M94.542,65.74c0.818,6.663,1.469,13.494,1.548,20.896c-1.644,1.881-6.478,2.049-8.515,0.387
				c-1.482-6.127-1.684-13.537-1.548-21.284C88.308,64.244,92.244,64.354,94.542,65.74z M90.285,67.288
				c-0.689,6.189,0.345,12.398,1.16,18.188c1.063,0.966,0.367,0.447,0.388,0C92.03,80.835,90.896,70.681,90.285,67.288z"/>
			<path d="M84.094,66.9c0,2.451,0,4.901,0,7.353c-3.553,2.013-7.058,9.897-3.483,13.544c0.288-2.481-0.452-3.934-0.387-6.191
				c1.396-0.229,2.595-0.652,3.87,0c0,2.322,0,4.644,0,6.966c-12.025,3.991-11.4-10.93-6.192-15.479
				c-1.114-0.046-2.534,0.211-3.096-0.387c-0.198-2.253-0.572-4.33-0.387-6.966C77.963,64.982,81.827,64.759,84.094,66.9z
				 M79.449,66.515c-0.893,1.17-0.136,3.99-0.387,5.805C80.725,71.206,80.026,68.327,79.449,66.515z"/>
			<path d="M63.97,65.353c-0.135,2.07,0.17,3.7,0.774,5.031c1.027-0.9,0.617-2.085,0.387-3.482c0.902,0,1.806,0,2.708,0
				c0.136,3.36-0.093,6.355-0.387,9.287c-0.646,0-1.29,0-1.936,0c-0.641-0.391-0.42-1.644-0.774-2.322
				c-1.613,0.859-2.11,4.65-0.773,6.192c1.889,0.212,0.172-3.182,2.708-2.322c1.2,2.546,0.872,7.051,0,9.675
				c-0.694,0.049-0.816-0.474-1.547-0.387c-1.523-0.122,0.436-2.186-0.774-3.096c-1.202,0.346-1.674,1.422-1.935,2.709
				c1.423,2.551,6.496,3.163,10.062,2.321c-1.96-6.54,0.478-13.817,0-21.284c-0.065-0.968,0.595-1.211,1.161-1.548
				C71.182,65.105,67.419,65.388,63.97,65.353z"/>
			<path d="M116.985,116.82c-0.448,2.385,1.063,2.807,1.937,3.871c0.063,4.318,2.41,6.359,3.096,10.061
				c1.891,1.207,4.484,1.709,6.965,2.322c5.402-2.725,7.404-8.848,13.933-10.447c0.608-2.506,4.354-4.336,5.03-7.354
				c1.041-4.648-1.278-7.917-3.096-11.224c-12.435,0.078-17.881,7.146-25.154,12.384
				C119.087,117.529,117.623,115.561,116.985,116.82z"/>
			<path d="M43.461,112.564c-0.958,0.373,0.533,1.485,0,2.709c-0.663,0.018-1.002-0.29-1.161-0.774
				c-0.904,2.075,2.725,2.944,3.481,4.645c0.886-1.543-0.713-3.92-0.773-5.806C44.126,113.447,43.554,113.245,43.461,112.564z"/>
			<path d="M47.717,114.113c-1.124,0.539,0.108,1.909,0.387,2.321C49.231,115.893,47.418,115.102,47.717,114.113z"/>
			<path d="M38.43,115.66c-0.702,1.105,0.902,3.213,3.096,2.709C40.989,116.969,39.079,116.945,38.43,115.66z"/>
			<path d="M106.15,146.619c2.887-2.92,4.872-6.738,5.806-11.609c1.609,3.938,3.713,7.381,5.029,11.609
				c5.793-3.529,3.297-15.475-1.16-18.576c-0.157-0.932,0.707-0.84,0.388-1.934c-5.438-4.998-12.461,5.523-12.383,13.156
				C103.86,142.342,105.208,144.656,106.15,146.619z"/>
			<path d="M48.104,125.334c-2.886-0.092-4.393,3.01-2.322,4.646c0.686-0.734,0.36-2.479,1.161-3.098
				c0.77,0.006,0.492,1.057,1.548,0.773C48.542,126.703,48.55,125.793,48.104,125.334z"/>
			<path d="M57.392,134.236c-2.926-0.471-4.918,3.334-8.126,3.869c0.604,1.201,1.582,2.027,2.322,3.096
				C53.592,138.949,56.365,137.467,57.392,134.236z"/>
			<path d="M33.012,135.01c-1.375,0.947-1.646,3-2.322,4.645C32.169,138.812,32.962,137.281,33.012,135.01z"/>
			<path d="M36.107,228.66c-0.058-0.717-1.311-0.238-1.548-0.775c-3.542-15.807-7.574-32.752-5.805-52.629
				c-5.063-2.029-7.474-6.717-9.287-11.996c-3.684-1.221-4.834-4.971-5.806-8.9c-2.683-0.93-3.198-4.023-5.417-5.418
				c-1.402,0.865-4.667,3.309-6.192,1.549c3.295-1.479,6.031-3.516,8.127-6.191c-0.88-0.279-0.115-2.207-1.548-1.936
				c-0.103-1.133,0.875-1.188,0.772-2.32c-2.146-3.367-3.293-7.533-2.708-11.998c0.394-3,0.272-4.385,0-7.354
				c-0.644-7.027,2.722-14.854,0.388-19.734c1.599,0.336,2.657,1.211,4.257,1.547c1.074,0.579-0.672,1.583,0.387,1.936
				c4.756,0.791,6.184,4.911,11.609,5.032c-0.284-2.103,2.411-3.25,1.935-4.258c-3.134-0.548-5.481,1.731-8.127,0.387
				c1.521-0.931,4.395-0.509,5.805-1.548c-1.619-3.718-7.003,1.448-9.674-1.161c1.517-0.807,4.208-0.436,5.417-1.548
				c-1.09-3.126-6.521-0.354-8.9-1.549c1.19-0.485,2.933-0.421,3.482-1.547c-1.928-0.721-3.063,0.172-5.418,0
				c-0.511-0.969,1.53-1.212,0.388-1.549c-1.231-0.059-1.703-0.877-3.097-0.773c0.364,1.959,2.574,2.07,3.097,3.869
				c-0.664-0.065-1.522,2.195-1.549,0.388c0.918-1.245-2.208-3.221-3.096-5.03c0.237-0.537,1.49-0.059,1.548-0.774
				c-1.586-0.994-3.98-1.179-5.031-2.709c3.143-0.304,4.77,0.907,7.354,1.161c0.671-1.135,0.913-2.7,0.774-4.645
				c0.454-1.222,2.154-1.198,2.708-2.321c-0.573-3.632,2.496-6.303,3.096-9.288c0.323-1.607-0.192-3.338,0-4.644
				c0.759-5.136,4.744-6.68,6.191-10.835c0.247-0.708-0.083-1.67,0-2.322c0.585-4.588,3.959-6.518,6.192-10.062
				c-1.493-1.351-4.833-2.899-4.257-5.03c1.816,1.794,4.191,3.031,7.353,3.482c0.838-1.355,2.427-1.96,2.322-4.257
				c1.648-0.229,2.56,0.278,3.87,0.387c0.213-1.205,0.316-2.521,0.772-3.482c-4.206-2.934-9.756-7.593-14.317-10.448
				c-1.283-0.804-5.941-1.809-3.483-4.645c0.037,0.608-0.052,1.342,0.774,1.161c0.296-1.122,0.611-2.226,1.547-2.709
				c15.454,9.313,29.68,19.854,45.664,28.637c0.57-6.116-3.933-7.16-6.965-9.675c1.496,0.652,5.689-0.521,5.031-1.935
				c-2.102,0.35-4.154,0.748-5.419,1.935c-1.478-0.844-3.127-1.516-4.257-2.709c1.612,0.195,2.258,1.354,3.87,1.549
				c-0.389-1.663,5.562-0.033,5.806-2.322c-1.553-4.898-0.645-12.256-3.87-15.479c-1.729,2.553-3.288,6.375-6.579,6.192
				c-1.744,1.738-2.151,4.814-3.483,6.965c-10.255-4.45-17.684-11.727-27.863-16.253c-1.344,0.591-2.271,1.6-3.096,2.709
				c0.664-2.175,2.249-3.427,4.257-4.257c1.691,1.663,3.612,3.095,6.191,3.869c1.427-0.766,3.123-1.263,4.644-1.935
				c1.913,1.544,4.251,2.498,6.579,5.418c1.037,1.301,2.618,6.137,4.257,6.191c1.424,0.049,4.202-5.766,6.191-5.03
				c0.451-4.58,5.021-5.041,7.74-7.354c-1.413-2.714-3.312-4.942-4.645-7.739c2.16,0.279,2.378,3.727,5.031,2.322
				c-0.678-1.257-0.483-3.387-1.161-4.644C71.428,4.061,86.93,1.503,103.827,0.34c5.547,0,11.093,0,16.64,0
				c17.731,1.229,33.979,3.943,47.212,9.675c0.189,2.64-0.063,4.839-1.161,6.191c-1.184-1.461,0.502-3.354,0.387-5.03
				c-5.133-1.702-9.217-4.457-15.479-5.03c2.253,1.355,0.037,1.499,2.708,2.708c-0.319,1.229-2.11,0.985-1.547,3.096
				c-3.307-0.179-6.186-0.781-9.288-1.161c2.93,1.587,8.326,0.704,10.449,3.097c-0.81,1.153-2.036-0.515-3.483,0
				c2.413,1.297-0.997,1.518,1.161,2.708c-0.12,0.525-0.968,0.321-1.548,0.388c1.176,0.579,0.214,1.164,0.773,1.935
				c1.369-0.208,1.994,0.328,2.322,1.161c-0.355,1.055-1.211-0.541-2.322,0c-0.207,0.558,1.509,0.944,0.388,1.161
				c-1.841,0.077,0.672,0.998,0.772,1.548c-0.715,1.183-1.839-0.447-3.096,0c0.649,0.768,2.221,0.617,2.708,1.548
				c0.021,1.57-0.789,2.307-1.936,2.709c0.259,0.634,2.344,1.618,0,1.548c2.548,0.935,0.054,0.939,0.773,2.709
				c-2.109,0.175-3.18-0.689-5.417-0.388c1.403,0.79,3.828,0.558,5.417,1.161c-0.123,0.897,0.062,1.486,0.387,1.936
				c-0.354,1.055-1.209-0.541-2.32,0c0.105,0.797,1.439,0.364,1.548,1.16c-0.046,1.012-4.281-0.188-3.097,0.774
				c1.436-0.274,1.66,0.661,3.097,0.387c-1.212,1.797-1.868,0.442,0,2.322c-0.665,1.011-2.003-0.546-3.482,0
				c0.637,0.653,2.101,0.479,2.709,1.161c-1.662,0.532-2.287,2.1-5.031,1.548c1.068,0.865,3.066,0.803,5.031,0.771
				c1.01,0.273-0.394,0.312-0.388,1.161c0.011,1.634,0.706,0.682,0,2.709c-0.526,1.51-1.149,3.336-0.774,5.03
				c4.279-0.021,8.535-0.021,11.225,1.549c-8.633-0.047-18.93-1.453-28.639-0.774c-1.164-0.39-0.686,0.862-0.771,1.548
				c-6.491-3.172-14.44-0.953-22.832,1.161c-6.424,1.618-11.727,3.558-19.351,3.482c-1.02-0.116-1.27,0.536-1.16,1.549
				c-7.744-4.388-22.208-2.312-34.828-3.097c-5.385-0.334-11.205-1.236-11.61-4.256c-0.353-2.636,2.339-3.803,4.257-5.031
				c-4.577,0.069-9.518,3.122-11.608,6.965c0.855,3.016,5.831,1.91,8.514,3.097c-0.531,0.759-2.371,0.209-3.096,0.773
				c-0.332,1.59,1.731-0.459,2.321,0.774c-0.733,0.685-2.478,0.36-3.096,1.161c0.288,0.872,2.171,0.151,3.096,0.387
				c-0.104,1.443-2.587,0.509-3.096,1.548c0.536,1.012,3.284-0.188,3.87,0.774c-0.822,0.726-2.849,0.247-3.483,1.161
				c0.167,0.865,1.907,0.156,2.709,0.387c0.013,1.302-1.792,0.788-2.321,1.548c0.167,0.865,1.906,0.157,2.708,0.387
				c-0.039,0.993-1.442,0.622-1.935,1.161c-0.119,0.893,1.118,0.43,1.16,1.161c0.224,4.162,1.56,7.212,1.548,11.609
				c-2.721-2.052-0.819-8.726-4.257-10.062c0.251-0.394,0.89-0.4,0.774-1.161c-0.562-0.212-2,0.452-1.936-0.387
				c2.708,4.056,1.856,12.629,2.322,20.123c-1.742-4.53-0.32-7.639-0.774-11.61c-0.964-8.436-8.778-13.016-5.03-20.896
				c-0.347-0.686-1.571-0.493-1.161-1.936c-0.153-2.603,2.344-2.557,2.709-4.643c-2.5-1.249-2.25,1.294-5.031,0.771
				c-2.07,5.412-4.034,10.929-7.74,14.705c1.005,5.481-3.77,8.152-4.643,12.384c-0.484,2.345,0.886,5.562-0.774,8.127
				c1.172,0.762,3.251,0.618,4.644,1.161c0.899,2.854,2.348,2.336,1.548,5.804c-0.771,1.695,0.754-0.089,1.161,0.388
				c1.321,1.551,1.051,6.034,3.096,7.353c2.1-0.223,2.941-1.703,4.644-2.321c-0.736-1.586-4.658,0.014-5.418-1.549
				c0.136-0.481,2.23,0.318,3.482,0c-0.471-2.237-3.046-2.372-4.645-3.482c-0.276-0.628,1.825-0.628,1.549,0
				c0.724-1.638-1.993-3.157-3.097-4.257c1.772-0.999-0.423-2.644-0.387-4.257c-0.704,0.457-0.304,2.018-0.774,2.709
				c-0.951-1.229-0.178-4.033,0-5.418c1.177-0.518,2.153,2.48,3.483,3.096c1.164,0.961,0.953-0.623,1.936-0.387
				c0.532,0.128,4.797,4.278,5.417,4.257c0.961-0.033,0.917-1.343,1.935-1.548c-0.141,1.25-1.754,2.309-0.774,3.482
				c1.095-0.324,2.39-0.449,3.483-0.773c1.042,0.941-1.449,1.624-0.774,3.482c1.646-0.16,2.937-0.677,3.87-1.548
				c2.079,0.718,4.159,4.385,6.579,2.322c1.786,0.922,3.093,2.324,4.645,3.482c1.822-0.628,3.399-1.501,6.191-1.161
				c0.513,1.152,0.396,1.964-0.387,2.709c-1.021,0.118-0.998-0.808-1.161-1.548c-1.488,1.091-4.804,0.356-4.257,3.483
				c0.682,0.963,0.64,0.563,1.548,0c-0.98,6.084,2.792,8.554,1.161,13.157c2.122-0.2,2.676-1.969,3.096-3.87
				c-0.221-1.069-0.41-2.17-1.935-1.936c0.967-2.476,1.471-5.366,0.773-8.514c3.184,0.816,0.883,7.116,2.708,9.288
				c4.438,1.089,8.179-4.378,4.258-5.805c-0.081,0.662,0.659,1.002,0,1.161c-1.542-1.268-0.531-4.998-0.388-6.966
				c-1.64-0.092-2.74,0.356-3.87,0.774c-0.6-0.948-0.576-2.52-0.772-3.87c36.13,2.141,82.433-17.2,114.16-0.774
				c-0.403,1.403-2.271,1.342-2.709,2.709c-3.639-1.264-7-2.803-10.448-4.257c1.412,1.559,6.367,2.918,9.288,4.257
				c1.37,0.043-0.821,1.279,0.388,1.161c2.539-0.169,4.573-0.844,4.645-3.482c4.697,1.146,9.807,4.809,9.287,9.287
				c-0.674,5.812-8.943,3.099-13.932,3.483c5.297,2.482,14.233,1.199,15.479-3.87c1.423-5.795-3.351-7.065-6.579-10.062
				c2.95,0.532,4.752,2.213,6.579,3.869c-0.46-3.337,2.131-7.386,5.418-9.674c0.53-0.37,2.034-1.378,2.708-1.548
				c0.701-0.178,1.628,0.329,2.32,0c3.121-1.48,6.803-5.091,6.968-7.74c0.061-0.974-0.83-3.773-1.55-4.644
				c-7.836-9.497-24.64-16.979-40.246-19.736c2.285-11.776,3.318-24.803,5.418-36.764c1.283,0.008,0.394,2.188,1.16,2.709
				c1.803-1.423,3.418-3.031,5.418-4.256c-0.984,3.143-3.611,4.643-4.645,7.739c2.612,3.192,5.186,6.424,8.514,8.9
				c1.365-0.054,1.73-1.107,3.097-1.161c-3.484,3.9-11.089,7.32-15.866,11.223c-0.024,2.813-1.062,4.613-0.774,7.74
				c13.538-9.165,26.442-18.965,40.633-27.477c1.011,0.668,1.961,1.393,1.937,3.097c0.615-3.2-2.642-5.87-4.646-7.74
				c-1.388-0.098-1.418,1.162-2.709,1.161c-0.818-0.721,1.776-1.299,2.322-1.936c2.272,1.073,4.819,3.439,5.805,5.805
				c0.348,0.831-0.313,2.157,0.773,2.322c-4.648,6.314-13.682,8.247-18.575,14.318c0.798,1.396,2.326,2.061,1.936,4.645
				c2.653,0.57,4.517,1.933,6.966,2.708c-0.393,0.642-1.645,0.421-2.322,0.774c2.006,2.767,3.819,5.727,5.417,8.9
				c3.455-0.371,7.842-0.699,11.223,0c-1.691,1.661-6.698,0.009-7.354,2.709c0.867,3.391,3.859,4.654,4.645,8.127
				c-1.116,1.092-1.025,4.624,1.548,4.257c-0.798,3.282,2.838,5.042,3.87,7.739c1.916,0.11,2.31-1.303,3.869-1.548
				c0.504,2.835-2.571,3.854-2.709,6.579c-0.076,1.525,1.61,3.644,1.938,6.191c0.562,4.414,0.146,8.116,0.771,12.383
				c2.89,1.111,5.998,2.001,8.9,3.097c-2.271,0.844-6.607,0.423-8.514-0.387c-2.289,3.419-0.24,8.415-0.773,12.771
				c-0.275,2.256-0.3,3.494,0,6.189c0.531,4.773-0.848,8.701-3.096,11.998c0.67,2.961,0.585,7.559-0.388,10.062
				c2.953,0.398,5.382,1.326,6.966,3.098c-2.222,0.148-6.216-1.262-10.062-0.775c-0.6,2.756-0.671,6.037-3.87,6.191
				c-0.688,3.953-2.953,6.336-5.416,8.514c-0.567,3.818-3.013,5.762-4.645,8.516c3.21,19.426-0.312,40.535-6.191,54.562
				c-6.022-1.484-10.792-5.43-15.479-8.514c-4.826-3.174-9.729-6.131-13.933-10.062c1.289-3.611,5.407-4.396,6.58-8.127
				c-4.348,0.039-4.896,3.875-7.74,5.418c-0.857,0.215-0.551-0.736-1.161-0.773c-2.099,0.74-3.352,2.326-4.257,4.258
				c-2.612-0.42-2.967,1.42-4.645,1.936c0.272,2.951,1.318,5.133,1.161,8.514c-1.809-1.934-2.084-5.396-3.87-7.354
				c-0.45,0.062-0.688-0.086-0.773-0.387c-3.877,0.381-4.393,4.121-8.514,4.256c-0.23-1.656,3.227-2.957,3.87-5.029
				c-4.393,0.252-6.796,2.49-10.449,3.482c4.188-2.648,7.784-5.891,14.706-5.805c1.403,0.371,0.396-1.67,1.161-1.938
				c1.896-0.422,3.317-1.326,4.644-2.318c0.076-1.496,0.015-2.855-0.387-3.871c0.782-0.881,1.286,1.787,2.708,1.549
				c7.009-1.119,9.806-6.449,16.642-7.74c0.652-1.023,0.896-2.459,1.549-3.482c0.476,0.168,0.794,0.494,0.773,1.16
				c0.926-1.652,0.746-4.412,2.709-5.029c-1.203,8.473-5.699,13.65-8.899,20.123c4.834,2.52,8.394,6.312,13.931,8.127
				c0.606-2.748,1.431-5.277,4.257-5.807c-1.628-1.549-0.627-2.875,0-5.029c-0.09-1.199-1.373-1.207-2.322-1.549
				c1.809-2.566,3.621-8.691,1.937-11.223c2.098-3.449,3.647-7.445,4.645-11.996c0.336-1.498-0.944-1.377-1.162-2.322
				c1.728-3.174-0.135-6.623,0-10.447c-2.446-3.229-6.854-4.498-9.286-7.738c1.094-0.32,1.002,0.545,1.935,0.387
				c-1.646-3.133-3.194,1.381-4.257,3.098c-1.447,2.338-2.914,5.074-3.87,6.576c1.479,3.424,3.003,6.803,3.097,11.609
				c-1.532-0.402-1.507-2.363-1.549-4.258c-1.863-0.496-4.346,1.953-5.031,4.645c-0.441,1.744,1.119,4.627-1.159,5.418
				c-2.559-2.346-1.796-8.01-1.937-12.77c-1.514,0.422-2.838,1.033-5.029,0.771c-2.896,3.43-0.188,12.455-2.709,16.256
				c-3.571-2.938-1.116-10.061-1.162-15.094c-1.79-1.812-3.597-3.637-5.415-5.418c-1.679-1.643-3.496-3.748-6.192-4.256
				c-1.458,2.928,1.305,10.076-1.936,11.221c-3.547-2.645,0.809-13.189-3.482-15.092c-1.684,10.188-0.336,23.398-3.481,32.119
				c-8.946,4.715-11.539,16.293-23.22,17.414c-13.507,1.299-17.568-11.074-25.154-17.801c-0.771-13.16-1.474-26.391-5.418-36.377
				c-0.987,0.043-1.354,0.709-1.935,1.162c-1.114-1.264-2.458-2.379-3.483-3.871c-0.915-1.332-1.349-3.225-2.709-4.256
				c-0.166,4.781,4.87,4.707,5.418,8.127c0.407,2.537-2.195,6.59-3.87,8.898c-1.833,2.529-4.504,4.506-6.191,6.191
				c-5.08,0.309-6.432-3.115-10.448-3.869c1.939,2.703,6.667,2.621,8.514,5.418c-0.586,1.17-1.698-0.322-2.709,0
				c-1.394,2.236-2.446,5.316-2.321,8.514c0.104,2.654,2.136,5.348,0,6.967c-3.333-1.053-2.521-6.252-2.708-10.449
				c-1.653-1.441-2.121-4.07-4.258-5.029c-1.131,2.996-0.711,7.543-0.773,11.607c-4.104-0.281-3.571-5.199-4.645-8.514
				c-1.697,4.488-0.605,11.975,0.388,16.254c0.028-2.645,3.021,0.258,5.03,1.549c2.128,1.363,4.03,2.49,4.258,3.48
				c3.86,0.525,6.649,2.121,8.899,4.258c1.709-2.291,2.494-5.504,5.418-6.58c-0.615,2.48-1.495,4.697-2.321,6.969
				c2.208,1.145,4.648,2.059,6.19,3.867c6.184-1.326,12.048,0.441,15.479,3.098c-1.87,0.186-5.948-0.756-9.288-0.389
				c2.541,2.748,5.754,4.824,7.738,8.129c-4.979-2.633-8.436-6.785-15.092-7.74c-0.551,3.576-2.733,5.521-3.871,8.514
				c-0.541-2.867,1.718-6.277,1.162-10.447c-4.015,0.875-5.875-3.639-11.223-2.709c0.078,1.602,2.146,1.207,1.935,3.098
				c-3.095,4.211-8.309,6.723-13.156,10.061c-4.769,3.283-9.282,7.461-14.318,9.289C37.654,228.66,36.881,228.66,36.107,228.66z
				 M135.562,193.443c-0.354-0.818-1.556,0.729-2.709,0.387c0.352-3.26,2.83-4.393,3.482-7.352c0.062-0.453,0.706-0.326,1.161-0.389
				c0.314-9.357,1.249-18.1,1.548-27.477c-1.265,0.801-0.541,3.588-1.161,5.029c-1.735-2.133-0.017-7.725-1.161-10.447
				c-2.394,2.586-0.887,7.562-1.16,12.385c-0.527,9.277-2.666,18.328-5.805,24.768c-0.87-0.162-0.011-2.055-0.773-2.322
				c-1.489,0.188-1.354,2.002-2.321,2.709c-0.865-0.166-0.156-1.906-0.388-2.709c-2.25-0.188-2.701,1.428-3.481,2.709
				c-0.857-0.818-0.963-2.393-2.709-2.322c0.225,1.518-0.333,2.248-0.773,3.096c-1.078,0.176,0.303-2.107-0.772-1.934
				c-3.152-0.443-2.845,2.574-4.259,3.869c-1.2-0.346-0.388-2.707-1.159-3.482c-1.325-0.164-1.163,1.158-1.936,1.547
				c-1.668-0.137-1.468-2.143-3.87-1.547c-1.057-1.137-0.825-3.561-1.548-5.029c2.438,0.398,2.314,3.359,4.257,4.256
				c-0.261-1.938,0.358-2.994,0.388-4.645c1.559,0.432-0.157,2.129,0.387,3.869c1.44-1.395,1.137-4.537,1.161-7.352
				c-1.656-0.109-1.913,1.182-3.87,0.771c0.046,1.115-0.211,2.533,0.387,3.096c-1.951-1.271-2.681-3.768-4.256-5.418
				c-1.221,3.551,0.604,7.393,1.935,9.678c-2.991,0.293-6.038-1.027-9.675-0.775c0,0.646,0,1.291,0,1.938
				c-6.433-7.498-6.192-21.67-6.579-35.217c-2.464,0.244-1.255,4.162-1.547,6.578c-1.605-1.748-1.666-5.041-1.936-8.127
				c-1.342,0.312-1.487-0.576-2.708-0.387c3.935,8.941,4.474,20.967,5.417,31.73c0.21,2.396-0.252,6.258,0.773,8.516
				c0.888,1.953,3.857,4.842,6.579,7.354c4.342,4.008,6.359,8.047,11.61,8.9c5.467,0.889,9.087-0.994,12.771-2.709
				c-0.737-1.205-1.681,0.604-2.709,0.387c1.75-3.926,4.246-7.105,8.9-8.127c0.377,1.037-1.523,3.109-2.709,3.871
				C128.344,201.703,131.18,195.771,135.562,193.443z M92.22,30.138c0.768-1.142-2.275,0.674-2.709-0.387
				c0.489-1.317,2.202-1.41,3.87-1.548c-0.945-1.06-0.142-2.715,0.387-3.483c-1.752,0.288,0.592-1.062-1.161-0.771
				c-0.056-1.217,0.992-1.33,1.936-1.549c0.007-0.565-1.632-1.226,0-1.16c-0.533-1.015-1.421-1.676-3.097-1.549
				c-1.333-0.322,0.718-0.559,0.773-1.16c0.017-0.178-0.706-0.922-0.773-0.773c0.752-1.641,1.021-0.117,1.161-1.549
				c0.067-0.679,1.265-0.778,1.548-0.773c-0.26-0.551-2.366-1.195-1.16-1.936c-0.562-1.146-1.51,0.51-2.708,0
				c0.268-0.764,1.031-1.031,1.935-1.161c0.181-0.739-1.192-1.665,0.387-1.548c-2.266-0.313-2.387-2.771-3.87-3.869
				c0.169-0.477,0.495-0.795,1.161-0.773c0.141-0.604-0.969-0.131-1.161-0.388c-0.421-0.565,0.508-1.524,0.773-1.161
				c-1.864-2.542-6.803-0.134-9.674,0.387c1.306,17.656,2.019,35.905,4.257,52.63c1.873-0.836,4.583-0.834,7.353-0.773
				c0.976-1.218,1.221-3.166,2.708-3.87c-0.119-0.525-0.968-0.321-1.548-0.387c-0.143-1.304,1.627-0.695,1.548-1.936
				c-0.645,0-1.29,0-1.935,0c0.108-0.795,1.034-0.772,1.548-1.16c-0.119-0.525-0.968-0.321-1.548-0.388
				c0.388-1.03,1.562-1.275,2.322-1.935c-0.69-0.729-1.047-1.791-1.936-2.322c0.269-0.764,1.033-1.031,1.936-1.16
				c-0.288-0.873-2.171-0.151-3.097-0.388c1.577-0.707,0.261-2.009,1.547-2.708c-0.119-0.525-0.969-0.321-1.547-0.388
				c-0.114-1.018,1.501-0.305,1.161-1.548c-1.147-0.143-1.909-0.671-2.321-1.548c1.305-1.552,0.039-3.315,2.707-4.644
				c-0.372-0.788-1.485-0.836-2.707-0.774C90.038,30.277,91.087,30.165,92.22,30.138z M67.065,8.466
				c-2.368-1.069-4.289,1.638-6.579,1.935c3.126,14.805,5.725,30.137,8.515,45.277c0.952,0.3,3.847-0.303,5.417,0.387
				C72.978,39.447,67.62,24.683,67.065,8.466z M165.747,27.042c-1.17,3.86-1.08,8.981-1.936,13.157
				c3.816-1.342,6.111-4.207,9.674-5.805c-0.875-0.931-1.438-2.172-2.709-2.709c-0.681,2.158-2.571,3.104-3.871,4.644
				C167.544,32.388,168.811,29.128,165.747,27.042z M171.939,114.5c6.084,3.075,11.557,6.76,17.026,10.448
				c-1.376,4.137,3.334,5.4,3.095,9.676c4.691,1.113,12.488-0.879,14.707,2.709c-0.551,2.584-3.729,1-5.418,1.16
				c-3.219,0.305-6.406,1.582-9.287,1.936c0.383,0.482,3.028-0.045,3.869-0.387c-0.963,1.357-3.322,1.32-5.029,1.936
				c-0.672,2.164-1.15,4.523-2.709,5.805c-0.1-1.654,1.906-4.537,2.709-6.578c-2.637,1.49-2.428,5.83-4.645,7.738
				c0.217,1.121,0.604-0.594,1.161-0.387c-2.223,5.689,5.589,10.047,6.189,16.641c5.453-1.643,6.931-7.262,9.289-11.996
				c-1.834-1.52-4.498-2.209-6.58-3.482c2.93-0.729,6.338,1.396,9.677,1.549c-2.031-1.949,1.963-2.709,1.547-5.416
				c0.645,0,1.291,0,1.936,0c-1.257-3.98,0.643-7.77,2.321-10.062c-2.09-5.359,0.3-11.779,2.322-15.479
				c-4.219-4.752,2.379-13.196-1.549-17.416c1.273-0.919,0.621-3.765,0.773-5.805c-2.966-1.678-6.576-2.712-10.449-3.483
				c2.414-2.201,7.724,1.393,10.062-0.773c-0.265-1.447-1.286,0.286-1.55-1.161c1.711-7.604-2.318-9.847-2.707-16.253
				c-5.049-3.338-5.54-11.229-8.901-16.254c-3.468,1.336-5.875-1.556-6.191-4.644c-3.504-0.021-5.625,1.341-8.899,1.548
				c0.186-1.885,4.838-2.64,6.966-3.869c-1.354-2.492-3.179-6.025-5.418-7.74c-4.184-3.204-7.387,0.296-11.608,3.482
				c-2.912,2.198-6.018,4.076-7.354,6.191c5.834,0.435,12.419,3.754,18.575,6.967c5.66,2.955,11.877,6.322,14.704,10.448
				c2.763,4.027,2.122,9.178-0.773,13.157c-7.427,1.988-10.308,8.524-14.318,13.932c2.394,10.064-10.149,11.396-18.188,8.9
				c-1.361,0.259-2.234,4.004-3.482,1.937c0.039,2.312,2.979,2.776,4.645,3.868c5.128,3.363,11.154,7.9,17.025,10.835
				C182.875,120.59,175.497,118.424,171.939,114.5z M188.579,128.818c-0.604,2.545,1.68,5.539,1.935,8.514
				c4.061-0.326,8.268-0.506,12.771-0.387c2.045-0.148-0.177,1.564,1.935,1.16c0.252-0.396,0.89-0.4,0.774-1.16
				c-3.992-2.908-9.771,0.744-13.546-1.549C189.92,133.859,190.927,130.936,188.579,128.818z M47.33,49.1
				c1.083,0.498-1.22,0.801-0.774,1.935c1.476-0.829,1.973,0.595,1.935,2.322c2.451,1.548,6.319,1.678,10.448,1.548
				c-1.071-1.688-5.699-3.823-8.514-5.805c-1.205-0.849-2.162-2.323-2.322-2.321C47.567,46.78,44.781,49.616,47.33,49.1z
				 M33.786,56.452c-2.314,2.921-0.61,7.857,0.773,10.449c0.932,0.158,0.841-0.707,1.936-0.387
				c-0.777-1.449-2.119-1.262-0.773-3.096c-0.903-0.13-1.667-0.397-1.935-1.162c0.062-0.453,0.705-0.326,1.16-0.387
				c-0.038-0.994-1.511-0.553-1.548-1.548c0.062-0.454,0.706-0.326,1.161-0.387c0.07-0.845-0.316-1.231-1.161-1.161
				c-0.411-1.443,1.451-0.613,1.161-1.935C34.108,56.901,33.871,56.754,33.786,56.452z M34.946,67.288
				c0.055,1.107,1.614,0.707,2.708,0.773C37.601,66.955,36.041,67.354,34.946,67.288z M29.528,88.185
				c-1.093,0.871,0.637,2.177,0.774,3.097c0.854-0.048,0.164-1.642,0.387-2.322C29.913,89.09,29.479,88.879,29.528,88.185z
				 M147.559,92.055c3.375,1.013,7.346,1.425,10.836,2.322C156.485,91.897,151.362,92.635,147.559,92.055z M161.489,94.376
				c-0.989-0.017-0.473,0.287-0.387,0.774c1.582,1.978,6.155,2.224,6.965,5.03c1.129,3.917-1.59,6.579-5.418,7.353
				c3.008,0.676,6.803-1.652,7.354-3.87C171.36,98.203,164.92,96.644,161.489,94.376z M41.138,120.691
				c1.09-1.064,1.979,1.354,3.483,1.16c2.892-2.396,5.974-4.605,9.287-6.578c0.033-1.969,0.17-4.042-0.773-5.031
				c-2.073-0.511-4.682,1.057-5.418,3.096c0.952-3.836-3.268-5.121-3.87-7.739c-0.601-2.608,1.24-4.437,0.774-8.127
				c0.886,0.662,0.142,2.954,0.387,4.257c2.576,0.263,3.869,1.807,5.805,2.709c2.783-4.76-2.998-9.379-6.579-9.287
				c-0.748,0.019-1.471-0.177-0.772,0.773c-5.715-4.46-10.838,2.044-15.094,3.869c-2.685,8.461,7.339,7.295,8.515,13.158
				c-3.428-0.83-6.542-5.324-9.674-7.739c-0.857,7.031,4.955,7.239,8.514,11.608c2.882,3.539,3.817,7.992,8.126,5.418
				C43.067,121.6,41.499,121.75,41.138,120.691z M84.094,100.567c12.01,4.31,29.769-1.567,40.633-5.03
				c0.411-0.131,4.762-1.201,0-0.774c-3.097,0.278-9.656,2.323-12.771,3.097C103.074,100.063,94.88,102.093,84.094,100.567z
				 M170.004,98.247c1.061,2.024,1.625,5.068,0.387,7.353c1.774,0.805,4.275,0.884,6.965,0.773
				c-0.584-0.575-1.697-0.623-2.707-0.773c0.51-1.296,4.352,0.739,4.256-1.161c-1.159,0-2.32,0-3.481,0
				c0.562-0.599,1.509-0.812,2.708-0.774c1.115-0.647-1.979-0.308-2.708-0.387c0.206-1.084,1.864-0.716,2.708-1.161
				c-0.665-1.011-2.004,0.546-3.481,0c0.254-0.52,0.826-0.721,1.547-0.773c-0.643-0.857-2.09,0.073-1.159-1.549
				C172.382,100.016,172.751,96.87,170.004,98.247z M94.154,160.938c0.31-0.725,0.647-1.418,0.774-2.322
				c-0.557,0.217-0.944,0.604-1.161,1.16c-0.75-0.539-0.577-2.002-1.161-2.707c0.545-1.262,2.739-0.873,3.483-1.938
				c1.31,0.496,0.605,3.004,1.547,3.869c1.762-0.301,2.038-2.09,3.482-2.709c0.792,0.627-0.018,2.855,0.773,3.482
				c1.032,0,2.064,0,3.096,0c0.302-0.859,0.813-1.51,0.774-2.709c0.878,0.412,0.147,2.434,0.387,3.482
				c2.016-0.209,2.868,0.742,4.645,0.773c0.727-0.562,0.046-2.533,0.773-3.096c0.779,0.77,1.266,1.828,2.322,2.32
				c0.845,0.07,1.231-0.314,1.161-1.162c1.207,0.215,0.594,2.244,1.161,3.098c0.777-1.672,3.984-0.914,4.257-3.098
				c1.371-0.209,0.952,1.371,2.322,1.162c0.614-0.932,1.813-1.281,2.321-2.32c0.52,0.254,0.721,0.826,0.773,1.547
				c0.77-0.521,1.842-0.736,2.708-1.16c0-0.646,0-1.289,0-1.938c1.927-0.164,3.771-0.973,5.418,0.775
				c0.863-1.719,1.224-3.938,1.548-6.193c-1.479,0.455-0.779,3.096-1.548,4.26c-1.987,0.309-0.548-2.809-1.937-3.098
				c3.468-7.232,9.78,2.535,15.093-0.771c1.529-0.955,6.435-7.596,7.353-10.062c1.004-2.699,1.24-5.678,0.774-8.9
				c-1.757-1.338-3.328-2.863-5.418-3.869c-0.034-5.996,4.133-12.561,3.482-18.961c-0.127-1.25-1.108-2.632-1.549-4.257
				c-0.502-1.859-0.134-3.972-0.772-5.031c-4.011-6.636-17.396,0.416-23.993,1.161c-1.866,2.262-3.608,4.646-7.354,5.031
				c-0.652-0.07,0.181-1.84,1.16-1.548c-2.793-1.11-5.408,1.294-7.353,2.321c-6.731-0.54-10.932,1.452-17.027,1.548
				c1.578,2.033,3.874,3.352,6.579,4.257c2.439,6.21-1.27,11.853-2.322,17.027c-4.016-0.15-7.393,2.711-10.835,0.771
				c0.12-0.523,0.969-0.318,1.548-0.387c-3.688-4.051-8.324-7.154-11.997-11.223c-0.376,0.012-0.301,0.475-0.387,0.773
				c-2.987-2.896-1.595-9.317-0.774-13.544c-2.578-0.518-4.698-1.494-7.353-1.936c-1.134,2.529,0.143,5.715,1.549,6.966
				c-0.419,2.554-0.569,6.721,0,10.063c0.339,1.986,2.282,5.266,2.321,5.029c-0.287,1.717-4.396,2.545-5.804,3.869
				c0.902,6.592,3.96,13.49,7.353,17.414c1.031,1.193,3.984,4.105,5.417,4.258c3.811,0.41,8.716-6.6,11.222-0.387
				c-0.006,0.59-2.867,0.848-2.321-0.389c-1.017,4.115,1.486,8.057,1.548,12.385c2.729-0.945,1.678,3.91,5.418,3.096
				c1.152,1.559,1.34,4.078,1.936,6.191c1.387-1.451,1.741-3.936,2.321-6.191c1.174-0.012,0.964,1.357,1.161,2.322
				c1.575-0.186,2.626,1.438,3.87,0.387c0.537,0.494,0.235,1.826,0.772,2.322c1.909-0.232,2.349,1.006,4.257,0.773
				c0.234-0.93,0.557-1.768,0.388-3.098c1.518-0.355,0.281,2.041,1.161,2.322c0.879-0.67,2.162-0.936,3.87-0.773
				c0-1.031,0-2.064,0-3.096c0.573,0.328,0.831,0.973,0.772,1.936c1.08-0.463,2.354-0.443,3.096,0.387
				c1.219-2.646-0.016-6.17-0.772-8.127c-0.613-0.031-1.478,0.188-1.548-0.389c-1.266,0.674-0.928,2.943-1.548,4.258
				c-0.841,0.064-0.177-1.373-0.388-1.936c-0.508,0.139-0.608,0.682-1.162,0.773c-0.707-0.582-0.909-1.668-1.547-2.322
				c-1.418,1.162-1.453,3.709-1.548,6.193c-0.548-2.418-1.196-4.738-1.935-6.969c-2.409,0.172-2.871,2.289-3.097,4.646
				c-0.997-2.734-1.445-3.887-3.87-5.418c-0.912,0.764-0.536,2.814-1.16,3.869c-0.665-1.271-1.024-2.848-1.162-4.645
				c-0.52,0.254-0.721,0.826-0.774,1.547c-0.599-0.561-0.812-1.51-0.773-2.709c-1.096,1.102-1.417,2.971-1.936,4.646
				c-0.878-0.412-0.146-2.434-0.387-3.482C96.246,159.621,95.102,159.803,94.154,160.938z M153.362,101.342
				c-1.017,3.739,1.795,6.613,1.16,11.224c3.193,4.727-2.17,8.553-2.707,13.157c1.239,1.193,1.363-0.91,2.707-0.773
				c0.312,1.342-0.576,1.488-0.387,2.709c3.664-5.262,4.926-14.471,3.87-23.219C155.675,104.189,155.852,101.434,153.362,101.342z
				 M67.453,103.664c-2.452,8.409,1.766,16.44,3.481,23.219C71.927,118.539,69.926,109.834,67.453,103.664z M55.457,115.66
				c-6.738,2.291-12.224,9.189-18.962,12.771c-0.716-0.059-0.237-1.311-0.773-1.549c1.645-0.045,4.557-0.748,5.03-3.096
				c-3.737-1.164-7.282-2.52-8.9-5.805c-1.273,0.016-1.927,0.65-3.482,0.387c0.547,2.291,1.677,4,2.321,6.191
				c1.987-0.312,2.939,0.414,4.257,0.771c-0.71,0.561-3.534-0.061-4.644-0.387c-2.2-3.861-2.581-9.545-7.354-10.834
				c-0.169-1.331,0.152-2.17,0.388-3.098c-3.559-1.988-7.696-3.396-10.836-5.804c-3.695,2.738,0.037,6.915-0.388,12.382
				c-0.32,4.152-2.673,11.951,0.388,16.256c0.063,1.225-1.028,1.293-0.773,2.709c3.402-0.982,5.236-3.535,8.126-5.031
				c-0.539,2.176-3.871,4.895-6.191,6.58c-1.002,3.762,1.718,5.055-0.387,6.965c1.396,2.602,2.907,5.09,3.097,8.898
				c2.787,2.115,5.106,4.697,5.417,9.287c4.069,1.479,5.748,5.348,9.675,6.969c1.732-3.43,2.8-7.521,6.19-9.287
				c-0.9,2.967-4.309,3.43-4.257,7.352c2.544-1.842,2.758-6.014,6.579-6.578c-0.517-1.535-0.72-5.053-1.935-4.645
				c-0.326-1.617,0.752-1.828,0.773-3.098c-1.033,0-2.063,0-3.096,0c-0.009-0.91,0.667-1.139,0.387-2.32
				c-2.662-1.078-3.405-4.074-5.029-6.191c-4.354-0.096-7.375,1.141-11.997,0.773c6.743-2.396,14.721-2.361,16.253,4.258
				c0.722-2.793-2.301-5.178-3.097-7.74c-4.052,1.623-9.308,2.043-15.093,1.936c0.094,0.682,0.667,0.883,1.548,0.773
				c-0.326,0.912-1.995-0.023-2.321-0.387c3.916-1.678,8.235-4.418,13.156-3.869c-0.136-0.51-0.681-0.609-0.773-1.162
				c0.237-0.383,2.604,0.359,3.482-0.387c1.147-2.465,1.413-5.812,3.097-7.74c-0.724-0.697-1.725,1.611-1.936,2.709
				c-0.905-1.82,1.603-3.549,1.936-5.418c1.049,0.758,2.11,1.502,2.321,3.096c1.934-1.678,4.008-3.215,5.031-5.803
				c-1.78,0.928-2.839,2.578-5.418,2.707C43.038,124.396,49.192,119.975,55.457,115.66z M26.433,106.76
				c-2.578,0.39-1.205,4.729-2.708,6.191c1.898,2.099,3.571,4.425,7.354,4.644c-0.083-2.367-2.466-2.438-3.87-3.481
				C26.909,111.701,26.361,109.54,26.433,106.76z M65.518,112.952c-3.831-0.088-6.882,3.951-9.674,6.191
				c3.635,1.051,5.499-3.014,8.514-3.869C63.691,113.991,64.59,113.594,65.518,112.952z M161.877,113.726
				c-1.421,0.146,1.332,2.512,2.321,3.096c1.463,0.861,3.66,1.209,5.031,1.549C167.369,116.232,164.805,114.796,161.877,113.726z
				 M170.004,115.66c-0.716,1.121,1.844,2.271,2.321,3.482c-0.121,0.439-1.834,1.479-1.549,0c-4.791,3.219-8.021-2.336-11.996-3.482
				c0,0.773,0,1.549,0,2.322c3.48,1.293,6.173,3.373,9.287,5.031c3.265-1.936,4.375,4.529,8.127,4.643
				c-0.301-0.344-0.416-0.873-0.387-1.547c0.68,0.092,0.881,0.666,0.773,1.547c0.877-0.412,1.405-1.174,1.548-2.322
				c1.294,1.072-0.739,2.072-0.388,3.484c0.817,0.344,1.145,1.178,2.321,1.16c0.455-1.998,1.244-3.658,1.549-5.807
				c-2.748-1.639-5.182-3.592-8.127-5.029c1.598-0.555,3.549,1.859,5.031,2.709C177.821,119.189,172.36,117.947,170.004,115.66z
				 M67.065,116.82c-4.702,1.414-8.938,6.887-14.317,3.098c-2.882,2.535-6.213,4.621-9.288,6.965
				c0.586,1.865,0.904,3.996,1.548,5.807c4.681-4.25,10.134-7.281,15.866-10.836C63.228,120.395,65.842,119.125,67.065,116.82z
				 M48.104,137.332c-1.258-1.225-6.432-4.807-7.353,0.387c-0.79-1.451,1.619-5.07,3.482-3.869c0.73-0.633-0.01-3.062-1.161-3.098
				c0.014,0.059,0.654,0.961,0.388,1.162c-0.43,0.322-1.832-0.773-2.322,2.322c-1.628-2.543,1.936-3.217,1.935-5.418
				c-8.108,6.912-1.643,22.504,10.062,21.283c-1.108-1.602-4.271-1.146-6.191-1.938c1.104-0.832,3.237-0.633,4.257-1.547
				c-0.173-6.324-3.938-3.281-6.578-0.773c-0.96-0.199-1.378-0.941-1.936-1.549c1.018-1.561,2.535-2.623,4.257-3.48
				c0.605-1.225-0.213-1.699-0.387-3.098c2.03,2.1,3.573,4.684,5.417,6.967c-0.237-1.703-2.598-4.621-3.87-6.578
				c2.129,1.869,3.781,4.217,5.418,6.578c1.55-0.771,3.094-1.551,4.645-2.322c-0.053-1.496-1.569-1.525-1.936-2.709
				c-0.282-1.055,0.77-0.777,0.774-1.547c-0.822,1.529,1.457,4.404,5.029,3.869c-0.423-2.027-0.734-4.166-2.709-4.645
				c-0.064-1.354,1.362-1.219,1.937-1.936c1.756,0.18,2.151,1.719,1.935,3.869c2.646-0.193,3.323-2.354,5.418-3.098
				c-0.587-2.369-0.82-6.408,1.161-7.352c-1.224-0.672-2.419,2.193-4.644,0.771c1.138-1.055,2.603-1.781,3.87-2.709
				c-0.349-1.133-0.349-1.188,0-2.32c-4.622,0.15-6.93,2.615-8.515,5.805c-0.909-4.525,4.699-5.875,7.74-7.738
				c-0.172-1.248-0.741-2.098-0.773-3.482c-7.272,4.725-14.695,9.297-21.284,14.705C46.242,135.58,47.158,136.471,48.104,137.332z
				 M158.78,119.529c0.189,3.168,7.656,2.404,6.578,8.127c-2.358-2.025-4.448-4.32-8.125-5.029
				c-0.041,3.779,3.602,3.879,5.806,5.416c-2.253,0.955-4.132-1.795-6.192-2.32c-0.671,1.65-1.845,2.799-2.709,4.258
				c1.003,2.223,3.091,3.357,3.097,6.578c2.023,0.812,3.14,2.537,5.418,3.096c-1.609-0.949-2.211-4.873-0.773-6.578
				c1.688,0.377,2.787,1.342,4.257,1.936c-0.428,0.773-2.078-0.473-3.482,0c0.104,1.314-0.301,3.139,0.388,3.869
				c1.094-0.322,2.388-0.447,3.481-0.771c-0.055,1.105-1.615,0.707-2.709,0.771c1.911,2.221,6.228,2.029,8.127,4.258
				c1.2-0.992,1.727-2.658,2.709-3.869c-3.319-2.871-7.569-4.812-11.224-7.354c4.28-2.129,8.041,3.268,12.383,3.869
				c-0.062,1.096-0.709,1.611-0.773,2.709c1.575-2.035,3.495-3.729,3.482-7.354C171.419,127.789,166.457,122.303,158.78,119.529z
				 M183.161,123.787c-0.982,1.77,1.979,2.914,3.096,3.869c-0.062,0.453-0.706,0.326-1.161,0.387
				c0.371,0.791,0.791,1.531,1.161,2.322c0.21-1.844,0.847-2.91,1.161-5.418C186.43,125.457,183.663,124.992,183.161,123.787z
				 M182.774,126.496c-0.625,0.775,1.354,2.238,1.547,3.482c-1.364-0.055-1.729-1.107-3.096-1.16c0,1.031,0,2.061,0,3.096
				c1.338,0.34,2.68,0.672,3.482,1.547C185.955,130.789,184.015,127.971,182.774,126.496z M176.194,139.652
				c-0.588,1.732-1.418,3.227-2.321,4.645c1.63,1.105,4.668,2.355,6.19,0.389c-1.242,3.658-5.819,3.982-10.062,4.645
				c1.161,0,2.32,0,3.482,0c7.264-1.25,10.093-6.938,11.996-13.545c-1.768-0.941-2.918-2.498-5.03-3.096
				c-1.022,1.428-2.063,2.838-2.321,5.029c2.056,0.268,3.125,1.521,5.031,1.936c0.101,1.133-0.875,1.188-0.774,2.322
				c-2.447-0.615-3.66-3.012-5.805-2.709c-3.521,0.494-4.683,7.635-7.739,9.287c1.712,0.041,2.401-2.715,3.48-4.258
				C173.564,142.529,174.929,140.848,176.194,139.652z M155.298,141.977c2.204,0.814,4.128,2.32,6.191,3.482
				c1.979,1.113,4.265,2.873,6.578,2.32c0.482-1.5-1.801-1.373-2.709-1.936c-2.642-1.633-5.771-4.604-8.898-6.191
				C155.155,139.514,155.814,141.33,155.298,141.977z M56.617,147.395c2.059,6.527,10.034-4.408,14.318-5.807
				c0.288-1.189-1.062-0.744-0.772-1.936c-2.019,0.615-4.153,1.283-6.192,3.098C61.827,144.654,59.489,150.768,56.617,147.395z
				 M45.396,160.551c-5.926,2.588-8.975,8.055-14.706,10.836c-3.588,18.32,0.366,38.633,4.645,53.789
				c5.751-2.115,9.054-6.682,14.706-8.898c0-1.809,0-3.611,0-5.418c-2.21-1.4-2.256-4.969-4.645-6.191
				c-0.288-1.189,1.062-0.744,0.774-1.936c-2.888-8.83-6.192-19.172-3.097-29.023c0.411-1.309,1.738-2.547,1.936-3.869
				c0.444-2.986-1.069-5.098-1.162-7.354c3.208,1.051,4.562,3.951,6.192,6.578c0.517-0.795-1.205-2.648-1.549-3.869
				c1.979,1.893,3.518,4.223,5.031,6.578c3.099-1.674,5.168-4.377,8.514-5.805c2.266-8.184,7.726-13.172,13.157-18.188
				c-0.717-1.346-1.472-2.656-3.096-3.096c-3.848,2.215-6.577,5.549-8.901,9.287c-1.221,0.188-1.365-0.697-2.709-0.389
				c-0.339,1.242,1.003,0.805,1.161,1.547c-0.124,0.91-1.197,0.867-1.548,1.551c-0.575-0.328-0.56-1.246-0.774-1.938
				c-3.857,1.561-5.778,5.057-10.061,6.191c0.005,0.77,1.056,0.492,0.774,1.547c-0.55-0.031-1.097-0.062-1.161,0.389
				c-2.281-0.17-2.748-2.152-3.87-3.48C44.223,159.271,45.087,160.508,45.396,160.551z M151.815,147.006
				c4.789,5.789,11.301,9.855,13.543,18.189c2.205,1.02,3.57,2.881,6.58,3.096c1.205-2.922,3.334-4.92,4.645-7.74
				c-5.824-0.367-6.277-6.104-11.225-7.352c0,0.645,0,1.289,0,1.934c-0.623,0.109-0.666-0.363-1.16-0.387
				c-1.053-1.004,1.477-2.486-0.387-3.482c-0.523,0.119-0.32,0.971-0.387,1.549C159.46,151.172,157.508,145.648,151.815,147.006z
				 M144.85,159.391c1.819-3.082,4.461-5.344,6.191-8.516c-0.054-1.605-0.254-0.078-0.773,0
				C148.797,154.049,145.483,155.381,144.85,159.391z M37.654,150.488c-0.864,0.166-0.156,1.908-0.387,2.709
				c1.257,0.225,1.801-0.264,2.708-0.387c0.637,1.041,1.214,2.141,1.937,3.096C42.504,153.037,39.957,152.021,37.654,150.488z
				 M156.46,165.969c2.907,0.711,5.787-1.947,6.189-5.029C160.23,162.256,158.957,164.727,156.46,165.969z M154.137,168.678
				c0.611-1.086,1.385,2.088,2.323,0.773c0.042-0.963,0.726-1.199,0-1.936c-0.524,0.117-0.321,0.969-0.389,1.549
				c-0.969-0.32-1.225-1.355-1.936-1.938c0.674-1.391,2.158-1.971,3.87-2.32c-0.303-1.98,0.543-2.812,0.388-4.645
				c-1.355,0.318-1.812,1.541-2.322,2.707c-2.645-0.451-2.303-3.889-2.321-6.965c-1.724-0.303-2.323,0.516-3.87,0.387
				c-1.977,3.936,0.14,8.34,2.322,10.449c-2.833-1.166-3.618-4.381-5.807-6.191c0.33,1.896,2.405,4.504,4.258,6.578
				c1.943,2.182,4.666,3.92,6.191,6.191c3.324-1.707,7.338-2.725,8.9-6.191c-2.316,0.27-5.033,3.479-7.74,4.646
				C156.295,171.164,155.114,170.021,154.137,168.678z M72.483,157.068c-0.59,1.217-0.937,2.676-1.549,3.869
				c-1.458-0.297-1.85,0.473-3.096,0.387c-0.246,2.076-1.537,3.105-1.548,5.418c1.362,0.443,2.762,0.85,3.482,1.936
				c-2.27,0.588-4.006-2.695-6.579-3.096c0.014,2.438,2.434,2.467,3.87,3.482c0.065,0.838-1.373,0.174-1.935,0.387
				c-0.102,2.68,2.91,2.25,4.256,3.482c4.67-3.457,8.638-7.615,10.062-14.318c-0.813,0.941-1.72-0.342-2.321,0.387
				c0.108,0.625-0.366,0.666-0.388,1.162c-0.017,0.988,0.287,0.471,0.773,0.387c-0.371,1.178-0.456,2.641-1.548,3.096
				C73.373,162.885,74.384,158.521,72.483,157.068z M132.079,158.615c-0.77,0.006-0.492,1.057-1.549,0.773
				c0.3,1.848-0.604,2.49-0.387,4.258c-1.929-0.006-1.043-2.826-3.097-2.709c-0.811,2.328-0.092,4.822,0,7.354
				c1.068-0.479,1.966-1.131,3.482-1.162c0.102-1.775,0.412-1.869,0-3.482c1.473-0.568,0.076,1.729,1.549,1.162
				C133.347,163.436,132.864,160.143,132.079,158.615z M124.339,161.324c-4.091,2.311-0.28,7.891,0.388,11.223
				c1.545-2.193,1.616-5.863,1.547-9.676c-0.987,0.045-0.769,1.297-0.772,2.322C124.626,164.393,125.024,162.316,124.339,161.324z
				 M187.418,161.711c-1.181,0.254,1.124,1.586,1.936,2.322c0.961,0.875,2.426,1.818,3.096,2.709
				c2.93,3.9,3.339,10.062,4.258,15.865c0.353,0.768,1.3,0.768,0.387,0C197.032,172.477,194.704,164.615,187.418,161.711z
				 M123.952,176.416c-1.022,3.158-2.778,7.029-1.936,10.836c1.694-0.756,1.6-3.303,3.096-4.256
				C125.276,180.25,124.239,178.709,123.952,176.416z M129.758,177.191c-1.32,2.42-3.479,4.002-3.482,7.738
				c0.912,0.01,1.14-0.666,2.32-0.389C129.521,182.631,129.946,180.219,129.758,177.191z M101.507,177.578
				c-2.78,1.545-2.515,8.803,0.387,10.062C103.616,183.566,101.895,182.703,101.507,177.578z M95.703,177.965
				c-1.77,3.072-0.635,8.861,3.096,8.9C96.848,184.779,97.536,180.84,95.703,177.965z M131.691,179.9
				c-1.533,0.916-1.48,3.418-1.934,5.416C131.212,184.48,132.439,181.686,131.691,179.9z M120.857,180.287
				c-1.183,1.785-3.492,2.443-3.871,5.029c-0.854-0.047-0.164-1.643-0.387-2.32c-1.16,0-2.32,0-3.482,0
				c-0.851,1.818-0.18,4.246,0.388,5.805C119.391,191.002,121.842,184.979,120.857,180.287z M61.262,206.988
				c-1.154-2.979-6.942-4.666-6.966-10.062c-0.811-0.479-1.455-1.125-1.936-1.934C52.479,198.549,57.392,204.609,61.262,206.988z
				 M196.317,199.635c-1.065,2.748-2.393,10.113-1.936,11.225C195.162,207.25,196.473,204.176,196.317,199.635z M164.973,208.148
				c3.983,0.791,7.951,4.945,11.609,7.354c-0.013,0.375-0.476,0.301-0.773,0.389c3.918,3.562,8.916,6.047,14.705,7.738
				c-6.185-5.098-13.499-9.379-20.51-13.932c-2.125-1.379-4.134-3.9-6.965-3.482c-0.127,2.545,2.938,3.955,5.03,5.418
				c2.209,1.541,4.86,3.016,6.966,4.258C173.492,213.043,166.982,211.816,164.973,208.148z M36.494,227.498
				c2.155,0.236,2.558-1.65,3.869-2.709c3.47-2.795,7.932-5.139,11.997-7.74c4.118-2.633,7.871-5.738,12.384-7.352
				c0.062-0.449-0.086-0.689-0.388-0.773c-2.021-1.205-5.372,2.174-8.127,4.258C49.728,218.096,40.329,222.164,36.494,227.498z"/>
			<path d="M196.705,19.688c-1.86,0.24-4.353-0.942-6.191-0.773c-6.042,0.557-7.619,9.128-10.062,10.836
				C186.623,27.148,190.991,22.748,196.705,19.688z"/>
			<path d="M40.751,86.638c0.066,1.745,2.487,4.474,3.87,6.191c1.116-0.174,0.915-1.665,1.935-1.936
				c-0.037-0.735-1.51,0.24-1.548,0.774C42.921,90.66,42.644,87.84,40.751,86.638z"/>
			<path d="M52.36,94.764c-1.859,0.183-0.849-2.505-2.708-2.322c0.383,1.294,1.553,1.803,1.936,3.097
				c2.501-0.854,4.742-1.967,6.966-3.097C57.974,91.703,54.158,94.168,52.36,94.764z"/>
			<path d="M39.59,107.92c-2.987-0.498-7.975-2.343-7.354-7.739c-1.471-0.31-0.491,1.83-0.773,2.709
				c1.937,3.61,5.95,5.143,8.513,8.126c1.024-0.215-0.568-2.54,0.774-1.16c0.737-0.041-0.309-1.442-0.388-1.937
				c2.407-4.086,1.047-11.332-4.644-10.835c0.906,2.447,3.633,3.075,4.256,5.805c-0.882,0.107-1.455-0.093-1.547-0.774
				c-0.929,0.749-1.182,2.172-2.709,2.322C36.707,105.902,38.355,106.704,39.59,107.92z"/>
			<path d="M164.198,129.979c-0.428-1.377-2.803-0.811-3.869-1.549c-0.312-0.203-0.631-0.402-1.161-0.387
				C160.384,129.15,161.768,130.088,164.198,129.979z"/>
		</g>
	</g>
	<g id="IfPBdz.tif_1_">
		<g>
			<path d="M389.302,57.612c2.767,6.599-0.223,15.858,0,23.606c1.085,0.463,2.67,0.425,4.257,0.387
				c0.84-3.675,2.064-6.966,3.096-10.448c0.793,1.692,1.227,4.716,0.774,6.966c-0.381,1.904-2.22,2.401-1.548,3.482
				c1.111-0.055,3.018,1.075,3.87,0c0.603-1.376-1.313-0.233-1.161-1.161c0.239-6.727,0.671-13.259,0.773-20.123
				c-0.508-1.668,1.843-0.479,1.548-1.935c-1.438-0.627-3.806-0.322-5.804-0.388c-1.203,3.312-1.904,7.126-3.098,10.449
				c-1.183-2.481,0.499-5.429,0-8.514c-0.267-1.041,0.801-0.748,1.161-1.161C392.742,57.526,391.042,57.549,389.302,57.612z"/>
			<path d="M388.527,66.515c-3.633,2.195-7.324,8.673-4.256,13.931c0-2.063,0-4.128,0-6.191c1.272-0.017,1.926-0.653,3.481-0.388
				c0.594,2.115,0.342,5.076,0.387,7.74c-7.397,1.926-11.11-3.037-10.062-10.836c1.128-1.71,3.048-2.627,3.869-4.644
				c-1.031,0-2.063,0-3.096,0c-0.328-2.511-0.789-4.888-0.773-7.739C384.055,56.058,390.127,58.853,388.527,66.515z M383.497,59.936
				c-1.431,0.827,0.173,4.201,0,4.644C383.818,63.754,383.299,62.791,383.497,59.936z"/>
			<path d="M404.395,58.773c0.022,8.923-2.804,14.998-3.871,22.832c3.013,1.048,6.684,1.956,10.449,1.161
				c2.666-6.235,2.215-15.587,5.418-21.284c-1.056-1.266-3.725-0.92-5.418-1.548c-1.716,6.41-2.635,13.618-4.256,20.123
				c-0.666-6.987,2.893-13.103,3.096-20.51C407.715,59.581,406.594,58.638,404.395,58.773z"/>
			<path d="M369.952,59.548c-2.289-0.227-3.691,0.436-5.03,1.16c-0.641,2.585,0.005,6.455-1.161,8.514
				c-1.487-0.507-1.46-2.191-1.935-3.87c-0.404-1.427,0.298-3.856-1.55-3.869c-1.645,1.381,0.029,3.811,0.389,5.418
				c1.245,5.604,2.333,12.261,4.257,17.414c1.458,0.298,1.85-0.473,3.096-0.387c0.076-4.182,0.793-7.72,0.773-11.997
				c1.961,2.54,2.621,7.165,1.936,11.223c1.436,0.274,1.66-0.661,3.096-0.387c-2.906-5.994-2.77-15.032-5.03-21.671
				C368.949,60.351,370.292,60.79,369.952,59.548z"/>
			<path d="M356.796,61.87c-2.323,1.921,1.114,4.479,2.322,5.418C360.073,65.288,358.679,62.316,356.796,61.87z"/>
			<path d="M427.613,66.126c0.361,3.415-1.508,6.929-3.096,11.223c-1.182,3.189-2.522,8.682-5.031,9.288
				c-2.357,0.569-4.142-1.854-6.967-2.322c-0.539-4.537,1.859-6.138,2.321-9.675c2.146,0.05,2.983,1.401,5.417,1.161
				c0.604-3.785,3.417-7.416,3.098-10.836c-1.188,1.264-1.586,3.316-1.937,5.418c-2.17,0.364-2.624-0.988-4.257-1.161
				c0.562-2.274,0.66-5.014,1.935-6.578C423.093,61.253,426.008,63.88,427.613,66.126z M419.1,77.735
				c-1.311,1.657-2.099,3.836-2.322,6.579C418.088,82.659,418.876,80.479,419.1,77.735z"/>
			<path d="M356.021,85.862c-2.022,0.169-3.391,0.995-5.805,0.774c0.535-3.981,0.395-8.664-1.937-10.836
				c-1.648,3.529,0.406,7.105,0.389,11.223c-1.947-0.271-2.697,0.656-4.646,0.387c0.429-5.14-1.963-9.564,0.774-12.771
				c-1.888-1.981-2.021-5.72-1.936-9.675c2.084-2.171,6.815-1.697,10.449-2.321C352.192,71.025,354.107,79.271,356.021,85.862z
				 M347.895,64.579c-2.531,2.336-0.34,7.418,0.387,10.062C350.276,71.936,348.007,67.663,347.895,64.579z"/>
			<path d="M308.422,74.253c-4.154,1.781-7.441,6.487-5.806,12.771c0.963-1.36,0.789-3.854,0.773-6.192
				c1.723-0.303,2.323,0.516,3.87,0.388c0.198,2.648-0.688,4.215-0.387,6.965c-11.762,4.383-11.61-12.741-5.031-15.479
				c-1.143-0.277-2.396-0.442-3.096-1.161c-0.27-2.719,0.652-4.247,0.387-6.966C306.637,62.853,310.788,66.339,308.422,74.253z
				 M304.553,66.126c-1.163,0.771-1.316,3.291-0.773,4.644C304.374,69.56,304.528,67.911,304.553,66.126z"/>
			<path d="M340.542,65.74c0.818,6.663,1.469,13.494,1.548,20.896c-1.644,1.881-6.478,2.049-8.515,0.387
				c-1.482-6.127-1.684-13.537-1.549-21.284C334.309,64.244,338.244,64.354,340.542,65.74z M336.285,67.288
				c-0.689,6.189,0.345,12.398,1.159,18.188c1.063,0.966,0.367,0.447,0.389,0C338.03,80.835,336.896,70.681,336.285,67.288z"/>
			<path d="M330.094,66.9c0,2.451,0,4.901,0,7.353c-3.553,2.013-7.058,9.897-3.482,13.544c0.287-2.481-0.453-3.934-0.387-6.191
				c1.396-0.229,2.594-0.652,3.869,0c0,2.322,0,4.644,0,6.966c-12.025,3.991-11.4-10.93-6.191-15.479
				c-1.114-0.046-2.533,0.211-3.097-0.387c-0.198-2.253-0.571-4.33-0.387-6.966C323.963,64.982,327.827,64.759,330.094,66.9z
				 M325.448,66.515c-0.893,1.17-0.135,3.99-0.387,5.805C326.725,71.206,326.026,68.327,325.448,66.515z"/>
			<path d="M309.97,65.353c-0.135,2.07,0.17,3.7,0.774,5.031c1.026-0.9,0.616-2.085,0.387-3.482c0.901,0,1.807,0,2.708,0
				c0.136,3.36-0.093,6.355-0.387,9.287c-0.646,0-1.29,0-1.936,0c-0.642-0.391-0.421-1.644-0.773-2.322
				c-1.614,0.859-2.111,4.65-0.774,6.192c1.889,0.212,0.172-3.182,2.708-2.322c1.2,2.546,0.872,7.051,0,9.675
				c-0.694,0.049-0.815-0.474-1.547-0.387c-1.522-0.122,0.437-2.186-0.774-3.096c-1.201,0.346-1.674,1.422-1.935,2.709
				c1.423,2.551,6.496,3.163,10.062,2.321c-1.959-6.54,0.479-13.817,0-21.284c-0.064-0.968,0.596-1.211,1.162-1.548
				C317.182,65.105,313.419,65.388,309.97,65.353z"/>
			<path d="M362.985,116.82c-0.448,2.385,1.063,2.807,1.937,3.871c0.064,4.318,2.41,6.359,3.096,10.061
				c1.891,1.207,4.484,1.709,6.965,2.322c5.402-2.725,7.404-8.848,13.933-10.447c0.608-2.506,4.354-4.336,5.03-7.354
				c1.041-4.648-1.278-7.917-3.096-11.224c-12.435,0.078-17.881,7.146-25.154,12.384
				C365.087,117.529,363.623,115.561,362.985,116.82z"/>
			<path d="M289.461,112.564c-0.958,0.373,0.533,1.485,0,2.709c-0.663,0.018-1.002-0.29-1.161-0.774
				c-0.903,2.075,2.726,2.944,3.48,4.645c0.887-1.543-0.713-3.92-0.772-5.806C290.126,113.447,289.554,113.245,289.461,112.564z"/>
			<path d="M293.717,114.113c-1.124,0.539,0.108,1.909,0.387,2.321C295.232,115.893,293.418,115.102,293.717,114.113z"/>
			<path d="M284.43,115.66c-0.701,1.105,0.902,3.213,3.096,2.709C286.989,116.969,285.079,116.945,284.43,115.66z"/>
			<path d="M352.149,146.619c2.888-2.92,4.873-6.738,5.807-11.609c1.609,3.938,3.713,7.381,5.029,11.609
				c5.794-3.529,3.298-15.475-1.16-18.576c-0.157-0.932,0.707-0.84,0.388-1.934c-5.438-4.998-12.461,5.523-12.383,13.156
				C349.86,142.342,351.208,144.656,352.149,146.619z"/>
			<path d="M294.104,125.334c-2.886-0.092-4.393,3.01-2.322,4.646c0.687-0.734,0.361-2.479,1.162-3.098
				c0.77,0.006,0.492,1.057,1.547,0.773C294.542,126.703,294.55,125.793,294.104,125.334z"/>
			<path d="M303.393,134.236c-2.927-0.471-4.918,3.334-8.127,3.869c0.604,1.201,1.582,2.027,2.322,3.096
				C299.592,138.949,302.364,137.467,303.393,134.236z"/>
			<path d="M279.012,135.01c-1.375,0.947-1.646,3-2.322,4.645C278.169,138.812,278.962,137.281,279.012,135.01z"/>
			<path d="M282.107,228.66c-0.058-0.717-1.311-0.238-1.547-0.775c-3.543-15.807-7.574-32.752-5.806-52.629
				c-5.063-2.029-7.475-6.717-9.287-11.996c-3.683-1.221-4.834-4.971-5.806-8.9c-2.683-0.93-3.198-4.023-5.417-5.418
				c-1.402,0.865-4.667,3.309-6.192,1.549c3.295-1.479,6.031-3.516,8.127-6.191c-0.88-0.279-0.115-2.207-1.548-1.936
				c-0.104-1.133,0.875-1.188,0.771-2.32c-2.146-3.367-3.293-7.533-2.707-11.998c0.394-3,0.271-4.385,0-7.354
				c-0.645-7.027,2.722-14.854,0.388-19.734c1.6,0.336,2.657,1.211,4.257,1.547c1.074,0.579-0.672,1.583,0.388,1.936
				c4.756,0.791,6.184,4.911,11.608,5.032c-0.284-2.103,2.411-3.25,1.935-4.258c-3.134-0.548-5.48,1.731-8.127,0.387
				c1.521-0.931,4.396-0.509,5.805-1.548c-1.618-3.718-7.002,1.448-9.674-1.161c1.518-0.807,4.209-0.436,5.418-1.548
				c-1.09-3.126-6.521-0.354-8.9-1.549c1.189-0.485,2.933-0.421,3.482-1.547c-1.929-0.721-3.063,0.172-5.418,0
				c-0.512-0.969,1.529-1.212,0.388-1.549c-1.231-0.059-1.703-0.877-3.097-0.773c0.363,1.959,2.573,2.07,3.097,3.869
				c-0.664-0.065-1.522,2.195-1.55,0.388c0.918-1.245-2.207-3.221-3.096-5.03c0.237-0.537,1.49-0.059,1.549-0.774
				c-1.586-0.994-3.98-1.179-5.03-2.709c3.142-0.304,4.769,0.907,7.353,1.161c0.671-1.135,0.913-2.7,0.774-4.645
				c0.454-1.222,2.153-1.198,2.708-2.321c-0.573-3.632,2.496-6.303,3.096-9.288c0.323-1.607-0.192-3.338,0-4.644
				c0.759-5.136,4.744-6.68,6.191-10.835c0.246-0.708-0.084-1.67,0-2.322c0.584-4.588,3.959-6.518,6.191-10.062
				c-1.492-1.351-4.832-2.899-4.257-5.03c1.816,1.794,4.191,3.031,7.353,3.482c0.838-1.355,2.428-1.96,2.322-4.257
				c1.648-0.229,2.562,0.278,3.87,0.387c0.214-1.205,0.316-2.521,0.771-3.482c-4.205-2.934-9.756-7.593-14.316-10.448
				c-1.282-0.804-5.94-1.809-3.483-4.645c0.037,0.608-0.051,1.342,0.774,1.161c0.296-1.122,0.611-2.226,1.547-2.709
				c15.454,9.313,29.681,19.854,45.664,28.637c0.57-6.116-3.933-7.16-6.965-9.675c1.496,0.652,5.689-0.521,5.031-1.935
				c-2.102,0.35-4.154,0.748-5.42,1.935c-1.478-0.844-3.127-1.516-4.256-2.709c1.611,0.195,2.258,1.354,3.869,1.549
				c-0.389-1.663,5.562-0.033,5.807-2.322c-1.553-4.898-0.645-12.256-3.87-15.479c-1.729,2.553-3.288,6.375-6.579,6.192
				c-1.744,1.738-2.151,4.814-3.483,6.965c-10.255-4.45-17.684-11.727-27.863-16.253c-1.344,0.591-2.271,1.6-3.096,2.709
				c0.664-2.175,2.25-3.427,4.258-4.257c1.69,1.663,3.611,3.095,6.19,3.869c1.427-0.766,3.123-1.263,4.644-1.935
				c1.914,1.544,4.252,2.498,6.58,5.418c1.037,1.301,2.617,6.137,4.256,6.191c1.425,0.049,4.203-5.766,6.191-5.03
				c0.451-4.58,5.021-5.041,7.74-7.354c-1.413-2.714-3.312-4.942-4.646-7.739c2.16,0.279,2.379,3.727,5.031,2.322
				c-0.678-1.257-0.482-3.387-1.16-4.644c12.49-5.568,27.992-8.125,44.891-9.288c5.547,0,11.093,0,16.64,0
				c17.732,1.229,33.98,3.943,47.212,9.675c0.188,2.64-0.063,4.839-1.161,6.191c-1.184-1.461,0.502-3.354,0.387-5.03
				c-5.133-1.702-9.217-4.457-15.479-5.03c2.253,1.355,0.037,1.499,2.708,2.708c-0.319,1.229-2.11,0.985-1.547,3.096
				c-3.306-0.179-6.185-0.781-9.288-1.161c2.93,1.587,8.326,0.704,10.449,3.097c-0.809,1.153-2.036-0.515-3.483,0
				c2.413,1.297-0.997,1.518,1.161,2.708c-0.12,0.525-0.968,0.321-1.548,0.388c1.176,0.579,0.214,1.164,0.774,1.935
				c1.369-0.208,1.994,0.328,2.321,1.161c-0.356,1.055-1.211-0.541-2.321,0c-0.207,0.558,1.508,0.944,0.387,1.161
				c-1.84,0.077,0.672,0.998,0.773,1.548c-0.716,1.183-1.84-0.447-3.097,0c0.649,0.768,2.222,0.617,2.708,1.548
				c0.021,1.57-0.789,2.307-1.936,2.709c0.259,0.634,2.344,1.618,0,1.548c2.548,0.935,0.054,0.939,0.773,2.709
				c-2.109,0.175-3.18-0.689-5.417-0.388c1.403,0.79,3.828,0.558,5.417,1.161c-0.123,0.897,0.062,1.486,0.387,1.936
				c-0.354,1.055-1.209-0.541-2.32,0c0.105,0.797,1.439,0.364,1.548,1.16c-0.046,1.012-4.281-0.188-3.097,0.774
				c1.436-0.274,1.66,0.661,3.097,0.387c-1.212,1.797-1.868,0.442,0,2.322c-0.665,1.011-2.003-0.546-3.481,0
				c0.637,0.653,2.1,0.479,2.709,1.161c-1.662,0.532-2.287,2.1-5.031,1.548c1.067,0.865,3.065,0.803,5.031,0.771
				c1.01,0.273-0.395,0.312-0.389,1.161c0.012,1.634,0.706,0.682,0,2.709c-0.525,1.51-1.148,3.336-0.773,5.03
				c4.278-0.021,8.535-0.021,11.224,1.549c-8.632-0.047-18.929-1.453-28.638-0.774c-1.164-0.39-0.687,0.862-0.772,1.548
				c-6.491-3.172-14.44-0.953-22.832,1.161c-6.424,1.618-11.727,3.558-19.352,3.482c-1.02-0.116-1.27,0.536-1.159,1.549
				c-7.744-4.388-22.208-2.312-34.828-3.097c-5.386-0.334-11.205-1.236-11.609-4.256c-0.354-2.636,2.338-3.803,4.256-5.031
				c-4.576,0.069-9.518,3.122-11.607,6.965c0.855,3.016,5.831,1.91,8.514,3.097c-0.53,0.759-2.371,0.209-3.096,0.773
				c-0.332,1.59,1.73-0.459,2.32,0.774c-0.732,0.685-2.478,0.36-3.096,1.161c0.288,0.872,2.172,0.151,3.096,0.387
				c-0.104,1.443-2.586,0.509-3.096,1.548c0.536,1.012,3.284-0.188,3.87,0.774c-0.821,0.726-2.849,0.247-3.483,1.161
				c0.168,0.865,1.908,0.156,2.709,0.387c0.014,1.302-1.791,0.788-2.32,1.548c0.167,0.865,1.906,0.157,2.708,0.387
				c-0.039,0.993-1.442,0.622-1.935,1.161c-0.119,0.893,1.117,0.43,1.16,1.161c0.223,4.162,1.559,7.212,1.547,11.609
				c-2.721-2.052-0.819-8.726-4.257-10.062c0.251-0.394,0.89-0.4,0.774-1.161c-0.562-0.212-2,0.452-1.937-0.387
				c2.709,4.056,1.856,12.629,2.322,20.123c-1.742-4.53-0.32-7.639-0.773-11.61c-0.965-8.436-8.778-13.016-5.03-20.896
				c-0.347-0.686-1.571-0.493-1.161-1.936c-0.153-2.603,2.344-2.557,2.709-4.643c-2.5-1.249-2.25,1.294-5.031,0.771
				c-2.069,5.412-4.034,10.929-7.739,14.705c1.004,5.481-3.771,8.152-4.644,12.384c-0.483,2.345,0.886,5.562-0.774,8.127
				c1.172,0.762,3.252,0.618,4.645,1.161c0.898,2.854,2.348,2.336,1.548,5.804c-0.771,1.695,0.754-0.089,1.161,0.388
				c1.32,1.551,1.051,6.034,3.096,7.353c2.101-0.223,2.941-1.703,4.644-2.321c-0.735-1.586-4.657,0.014-5.418-1.549
				c0.137-0.481,2.23,0.318,3.482,0c-0.471-2.237-3.046-2.372-4.646-3.482c-0.275-0.628,1.826-0.628,1.55,0
				c0.724-1.638-1.993-3.157-3.097-4.257c1.771-0.999-0.424-2.644-0.387-4.257c-0.705,0.457-0.305,2.018-0.775,2.709
				c-0.95-1.229-0.178-4.033,0-5.418c1.178-0.518,2.154,2.48,3.484,3.096c1.163,0.961,0.952-0.623,1.935-0.387
				c0.532,0.128,4.798,4.278,5.418,4.257c0.961-0.033,0.917-1.343,1.935-1.548c-0.141,1.25-1.754,2.309-0.774,3.482
				c1.096-0.324,2.391-0.449,3.483-0.773c1.042,0.941-1.448,1.624-0.774,3.482c1.646-0.16,2.938-0.677,3.871-1.548
				c2.078,0.718,4.158,4.385,6.578,2.322c1.787,0.922,3.094,2.324,4.646,3.482c1.821-0.628,3.399-1.501,6.19-1.161
				c0.514,1.152,0.396,1.964-0.387,2.709c-1.021,0.118-0.998-0.808-1.16-1.548c-1.488,1.091-4.805,0.356-4.258,3.483
				c0.682,0.963,0.641,0.563,1.549,0c-0.98,6.084,2.791,8.554,1.16,13.157c2.122-0.2,2.676-1.969,3.096-3.87
				c-0.221-1.069-0.41-2.17-1.935-1.936c0.967-2.476,1.472-5.366,0.773-8.514c3.184,0.816,0.883,7.116,2.707,9.288
				c4.438,1.089,8.18-4.378,4.259-5.805c-0.081,0.662,0.659,1.002,0,1.161c-1.542-1.268-0.531-4.998-0.388-6.966
				c-1.641-0.092-2.739,0.356-3.871,0.774c-0.6-0.948-0.575-2.52-0.771-3.87c36.13,2.141,82.434-17.2,114.16-0.774
				c-0.403,1.403-2.271,1.342-2.709,2.709c-3.639-1.264-7-2.803-10.448-4.257c1.412,1.559,6.367,2.918,9.288,4.257
				c1.37,0.043-0.82,1.279,0.389,1.161c2.539-0.169,4.572-0.844,4.644-3.482c4.698,1.146,9.807,4.809,9.288,9.287
				c-0.674,5.812-8.944,3.099-13.932,3.483c5.297,2.482,14.232,1.199,15.479-3.87c1.423-5.795-3.35-7.065-6.579-10.062
				c2.95,0.532,4.752,2.213,6.579,3.869c-0.46-3.337,2.131-7.386,5.418-9.674c0.531-0.37,2.035-1.378,2.708-1.548
				c0.702-0.178,1.628,0.329,2.321,0c3.121-1.48,6.802-5.091,6.967-7.74c0.061-0.974-0.83-3.773-1.549-4.644
				c-7.836-9.497-24.641-16.979-40.246-19.736c2.285-11.776,3.318-24.803,5.418-36.764c1.283,0.008,0.393,2.188,1.16,2.709
				c1.802-1.423,3.418-3.031,5.418-4.256c-0.985,3.143-3.612,4.643-4.646,7.739c2.612,3.192,5.187,6.424,8.515,8.9
				c1.364-0.054,1.729-1.107,3.096-1.161c-3.484,3.9-11.088,7.32-15.866,11.223c-0.024,2.813-1.062,4.613-0.774,7.74
				c13.539-9.165,26.442-18.965,40.634-27.477c1.01,0.668,1.961,1.393,1.936,3.097c0.615-3.2-2.641-5.87-4.645-7.74
				c-1.389-0.098-1.418,1.162-2.709,1.161c-0.819-0.721,1.775-1.299,2.321-1.936c2.272,1.073,4.819,3.439,5.806,5.805
				c0.347,0.831-0.314,2.157,0.772,2.322c-4.647,6.314-13.682,8.247-18.575,14.318c0.799,1.396,2.326,2.061,1.936,4.645
				c2.654,0.57,4.517,1.933,6.966,2.708c-0.392,0.642-1.644,0.421-2.322,0.774c2.006,2.767,3.819,5.727,5.417,8.9
				c3.455-0.371,7.843-0.699,11.224,0c-1.692,1.661-6.699,0.009-7.354,2.709c0.867,3.391,3.859,4.654,4.646,8.127
				c-1.117,1.092-1.026,4.624,1.547,4.257c-0.797,3.282,2.838,5.042,3.871,7.739c1.916,0.11,2.309-1.303,3.869-1.548
				c0.504,2.835-2.572,3.854-2.709,6.579c-0.076,1.525,1.609,3.644,1.937,6.191c0.562,4.414,0.147,8.116,0.772,12.383
				c2.889,1.111,5.997,2.001,8.899,3.097c-2.271,0.844-6.606,0.423-8.514-0.387c-2.289,3.419-0.24,8.415-0.773,12.771
				c-0.274,2.256-0.3,3.494,0,6.189c0.531,4.773-0.848,8.701-3.096,11.998c0.67,2.961,0.585,7.559-0.387,10.062
				c2.952,0.398,5.381,1.326,6.965,3.098c-2.222,0.148-6.215-1.262-10.062-0.775c-0.6,2.756-0.671,6.037-3.87,6.191
				c-0.688,3.953-2.953,6.336-5.416,8.514c-0.567,3.818-3.013,5.762-4.645,8.516c3.21,19.426-0.312,40.535-6.191,54.562
				c-6.022-1.484-10.791-5.43-15.479-8.514c-4.826-3.174-9.729-6.131-13.932-10.062c1.289-3.611,5.406-4.396,6.58-8.127
				c-4.349,0.039-4.896,3.875-7.74,5.418c-0.858,0.215-0.551-0.736-1.162-0.773c-2.098,0.74-3.352,2.326-4.256,4.258
				c-2.613-0.42-2.967,1.42-4.646,1.936c0.272,2.951,1.318,5.133,1.161,8.514c-1.809-1.934-2.084-5.396-3.87-7.354
				c-0.45,0.062-0.688-0.086-0.772-0.387c-3.877,0.381-4.394,4.121-8.515,4.256c-0.229-1.656,3.228-2.957,3.87-5.029
				c-4.393,0.252-6.796,2.49-10.449,3.482c4.188-2.648,7.784-5.891,14.706-5.805c1.403,0.371,0.396-1.67,1.161-1.938
				c1.896-0.422,3.316-1.326,4.645-2.318c0.076-1.496,0.014-2.855-0.387-3.871c0.781-0.881,1.285,1.787,2.707,1.549
				c7.01-1.119,9.807-6.449,16.643-7.74c0.652-1.023,0.896-2.459,1.548-3.482c0.476,0.168,0.794,0.494,0.774,1.16
				c0.926-1.652,0.746-4.412,2.709-5.029c-1.203,8.473-5.699,13.65-8.9,20.123c4.834,2.52,8.395,6.312,13.931,8.127
				c0.606-2.748,1.431-5.277,4.257-5.807c-1.627-1.549-0.627-2.875,0-5.029c-0.09-1.199-1.373-1.207-2.322-1.549
				c1.809-2.566,3.622-8.691,1.937-11.223c2.098-3.449,3.648-7.445,4.646-11.996c0.336-1.498-0.945-1.377-1.162-2.322
				c1.727-3.174-0.136-6.623,0-10.447c-2.447-3.229-6.854-4.498-9.287-7.738c1.094-0.32,1.002,0.545,1.936,0.387
				c-1.647-3.133-3.195,1.381-4.258,3.098c-1.447,2.338-2.914,5.074-3.87,6.576c1.479,3.424,3.003,6.803,3.097,11.609
				c-1.532-0.402-1.506-2.363-1.549-4.258c-1.863-0.496-4.346,1.953-5.031,4.645c-0.441,1.744,1.119,4.627-1.159,5.418
				c-2.558-2.346-1.796-8.01-1.937-12.77c-1.514,0.422-2.838,1.033-5.029,0.771c-2.896,3.43-0.188,12.455-2.709,16.256
				c-3.571-2.938-1.116-10.061-1.162-15.094c-1.79-1.812-3.596-3.637-5.415-5.418c-1.679-1.643-3.496-3.748-6.192-4.256
				c-1.458,2.928,1.305,10.076-1.936,11.221c-3.547-2.645,0.809-13.189-3.482-15.092c-1.684,10.188-0.336,23.398-3.48,32.119
				c-8.947,4.715-11.539,16.293-23.221,17.414c-13.507,1.299-17.567-11.074-25.153-17.801c-0.771-13.16-1.475-26.391-5.418-36.377
				c-0.987,0.043-1.354,0.709-1.936,1.162c-1.114-1.264-2.458-2.379-3.482-3.871c-0.916-1.332-1.35-3.225-2.709-4.256
				c-0.166,4.781,4.869,4.707,5.418,8.127c0.406,2.537-2.196,6.59-3.871,8.898c-1.832,2.529-4.504,4.506-6.19,6.191
				c-5.08,0.309-6.432-3.115-10.448-3.869c1.938,2.703,6.667,2.621,8.515,5.418c-0.586,1.17-1.698-0.322-2.709,0
				c-1.395,2.236-2.446,5.316-2.321,8.514c0.104,2.654,2.136,5.348,0,6.967c-3.334-1.053-2.521-6.252-2.709-10.449
				c-1.652-1.441-2.12-4.07-4.256-5.029c-1.132,2.996-0.711,7.543-0.774,11.607c-4.104-0.281-3.571-5.199-4.644-8.514
				c-1.699,4.488-0.606,11.975,0.387,16.254c0.029-2.645,3.021,0.258,5.031,1.549c2.127,1.363,4.028,2.49,4.256,3.48
				c3.86,0.525,6.649,2.121,8.899,4.258c1.709-2.291,2.494-5.504,5.418-6.58c-0.614,2.48-1.494,4.697-2.321,6.969
				c2.209,1.145,4.648,2.059,6.19,3.867c6.185-1.326,12.049,0.441,15.479,3.098c-1.869,0.186-5.947-0.756-9.287-0.389
				c2.541,2.748,5.754,4.824,7.738,8.129c-4.979-2.633-8.437-6.785-15.093-7.74c-0.551,3.576-2.733,5.521-3.871,8.514
				c-0.541-2.867,1.718-6.277,1.162-10.447c-4.015,0.875-5.875-3.639-11.223-2.709c0.078,1.602,2.146,1.207,1.936,3.098
				c-3.096,4.211-8.31,6.723-13.157,10.061c-4.769,3.283-9.281,7.461-14.317,9.289C283.653,228.66,282.881,228.66,282.107,228.66z
				 M381.562,193.443c-0.354-0.818-1.556,0.729-2.709,0.387c0.352-3.26,2.83-4.393,3.482-7.352c0.062-0.453,0.706-0.326,1.161-0.389
				c0.315-9.357,1.249-18.1,1.548-27.477c-1.264,0.801-0.541,3.588-1.161,5.029c-1.735-2.133-0.016-7.725-1.161-10.447
				c-2.394,2.586-0.887,7.562-1.16,12.385c-0.527,9.277-2.666,18.328-5.805,24.768c-0.87-0.162-0.011-2.055-0.773-2.322
				c-1.489,0.188-1.354,2.002-2.321,2.709c-0.865-0.166-0.156-1.906-0.388-2.709c-2.25-0.188-2.701,1.428-3.481,2.709
				c-0.856-0.818-0.963-2.393-2.709-2.322c0.226,1.518-0.333,2.248-0.772,3.096c-1.078,0.176,0.303-2.107-0.773-1.934
				c-3.152-0.443-2.845,2.574-4.259,3.869c-1.2-0.346-0.389-2.707-1.159-3.482c-1.325-0.164-1.163,1.158-1.937,1.547
				c-1.668-0.137-1.468-2.143-3.869-1.547c-1.058-1.137-0.826-3.561-1.549-5.029c2.438,0.398,2.314,3.359,4.258,4.256
				c-0.262-1.938,0.357-2.994,0.388-4.645c1.559,0.432-0.157,2.129,0.387,3.869c1.44-1.395,1.137-4.537,1.161-7.352
				c-1.656-0.109-1.913,1.182-3.87,0.771c0.046,1.115-0.211,2.533,0.387,3.096c-1.951-1.271-2.681-3.768-4.256-5.418
				c-1.221,3.551,0.604,7.393,1.936,9.678c-2.991,0.293-6.038-1.027-9.676-0.775c0,0.646,0,1.291,0,1.938
				c-6.433-7.498-6.191-21.67-6.578-35.217c-2.465,0.244-1.256,4.162-1.547,6.578c-1.605-1.748-1.666-5.041-1.937-8.127
				c-1.343,0.312-1.487-0.576-2.708-0.387c3.936,8.941,4.475,20.967,5.417,31.73c0.21,2.396-0.252,6.258,0.773,8.516
				c0.888,1.953,3.856,4.842,6.578,7.354c4.342,4.008,6.359,8.047,11.61,8.9c5.467,0.889,9.087-0.994,12.771-2.709
				c-0.738-1.205-1.682,0.604-2.709,0.387c1.75-3.926,4.246-7.105,8.899-8.127c0.377,1.037-1.522,3.109-2.709,3.871
				C374.344,201.703,377.18,195.771,381.562,193.443z M338.22,30.138c0.769-1.142-2.274,0.674-2.709-0.387
				c0.489-1.317,2.202-1.41,3.87-1.548c-0.945-1.06-0.142-2.715,0.387-3.483c-1.752,0.288,0.592-1.062-1.16-0.771
				c-0.057-1.217,0.992-1.33,1.936-1.549c0.007-0.565-1.632-1.226,0-1.16c-0.533-1.015-1.421-1.676-3.098-1.549
				c-1.332-0.322,0.719-0.559,0.773-1.16c0.018-0.178-0.706-0.922-0.773-0.773c0.752-1.641,1.021-0.117,1.162-1.549
				c0.066-0.679,1.265-0.778,1.547-0.773c-0.26-0.551-2.365-1.195-1.159-1.936c-0.562-1.146-1.511,0.51-2.708,0
				c0.268-0.764,1.031-1.031,1.935-1.161c0.182-0.739-1.191-1.665,0.387-1.548c-2.266-0.313-2.387-2.771-3.869-3.869
				c0.168-0.477,0.494-0.795,1.16-0.773c0.142-0.604-0.969-0.131-1.16-0.388c-0.422-0.565,0.508-1.524,0.772-1.161
				c-1.864-2.542-6.803-0.134-9.674,0.387c1.306,17.656,2.019,35.905,4.257,52.63c1.873-0.836,4.583-0.834,7.354-0.773
				c0.976-1.218,1.221-3.166,2.707-3.87c-0.118-0.525-0.967-0.321-1.547-0.387c-0.144-1.304,1.627-0.695,1.547-1.936
				c-0.645,0-1.289,0-1.935,0c0.108-0.795,1.034-0.772,1.548-1.16c-0.119-0.525-0.968-0.321-1.548-0.388
				c0.388-1.03,1.562-1.275,2.322-1.935c-0.69-0.729-1.047-1.791-1.936-2.322c0.269-0.764,1.032-1.031,1.936-1.16
				c-0.288-0.873-2.171-0.151-3.098-0.388c1.578-0.707,0.262-2.009,1.548-2.708c-0.119-0.525-0.97-0.321-1.548-0.388
				c-0.113-1.018,1.502-0.305,1.162-1.548c-1.147-0.143-1.91-0.671-2.321-1.548c1.305-1.552,0.038-3.315,2.708-4.644
				c-0.373-0.788-1.486-0.836-2.708-0.774C336.038,30.277,337.087,30.165,338.22,30.138z M313.065,8.466
				c-2.369-1.069-4.289,1.638-6.58,1.935c3.127,14.805,5.726,30.137,8.516,45.277c0.952,0.3,3.847-0.303,5.417,0.387
				C318.979,39.447,313.62,24.683,313.065,8.466z M411.747,27.042c-1.17,3.86-1.08,8.981-1.935,13.157
				c3.815-1.342,6.11-4.207,9.674-5.805c-0.875-0.931-1.439-2.172-2.709-2.709c-0.682,2.158-2.572,3.104-3.871,4.644
				C413.544,32.388,414.811,29.128,411.747,27.042z M417.939,114.5c6.084,3.075,11.557,6.76,17.026,10.448
				c-1.376,4.137,3.334,5.4,3.095,9.676c4.691,1.113,12.488-0.879,14.707,2.709c-0.551,2.584-3.729,1-5.418,1.16
				c-3.219,0.305-6.405,1.582-9.287,1.936c0.384,0.482,3.028-0.045,3.869-0.387c-0.963,1.357-3.321,1.32-5.028,1.936
				c-0.673,2.164-1.151,4.523-2.709,5.805c-0.101-1.654,1.905-4.537,2.709-6.578c-2.638,1.49-2.429,5.83-4.646,7.738
				c0.217,1.121,0.604-0.594,1.161-0.387c-2.222,5.689,5.589,10.047,6.19,16.641c5.452-1.643,6.93-7.262,9.289-11.996
				c-1.834-1.52-4.498-2.209-6.58-3.482c2.929-0.729,6.338,1.396,9.676,1.549c-2.031-1.949,1.963-2.709,1.547-5.416
				c0.645,0,1.291,0,1.936,0c-1.257-3.98,0.643-7.77,2.321-10.062c-2.09-5.359,0.3-11.779,2.322-15.479
				c-4.218-4.752,2.379-13.196-1.548-17.416c1.272-0.919,0.621-3.765,0.772-5.805c-2.966-1.678-6.576-2.712-10.448-3.483
				c2.413-2.201,7.723,1.393,10.062-0.773c-0.264-1.447-1.286,0.286-1.549-1.161c1.71-7.604-2.319-9.847-2.708-16.253
				c-5.048-3.338-5.54-11.229-8.901-16.254c-3.468,1.336-5.875-1.556-6.19-4.644c-3.505-0.021-5.625,1.341-8.9,1.548
				c0.186-1.885,4.838-2.64,6.966-3.869c-1.353-2.492-3.179-6.025-5.418-7.74c-4.183-3.204-7.387,0.296-11.608,3.482
				c-2.912,2.198-6.018,4.076-7.354,6.191c5.834,0.435,12.419,3.754,18.575,6.967c5.661,2.955,11.877,6.322,14.705,10.448
				c2.762,4.027,2.122,9.178-0.774,13.157c-7.427,1.988-10.308,8.524-14.318,13.932c2.394,10.064-10.149,11.396-18.188,8.9
				c-1.361,0.259-2.234,4.004-3.482,1.937c0.039,2.312,2.979,2.776,4.645,3.868c5.128,3.363,11.154,7.9,17.025,10.835
				C428.875,120.59,421.497,118.424,417.939,114.5z M434.579,128.818c-0.604,2.545,1.68,5.539,1.935,8.514
				c4.062-0.326,8.269-0.506,12.771-0.387c2.045-0.148-0.176,1.564,1.935,1.16c0.252-0.396,0.891-0.4,0.774-1.16
				c-3.992-2.908-9.771,0.744-13.545-1.549C435.92,133.859,436.927,130.936,434.579,128.818z M293.33,49.1
				c1.083,0.498-1.22,0.801-0.774,1.935c1.476-0.829,1.974,0.595,1.935,2.322c2.451,1.548,6.32,1.678,10.449,1.548
				c-1.07-1.688-5.699-3.823-8.515-5.805c-1.205-0.849-2.162-2.323-2.321-2.321C293.567,46.78,290.78,49.616,293.33,49.1z
				 M279.786,56.452c-2.314,2.921-0.61,7.857,0.773,10.449c0.932,0.158,0.84-0.707,1.936-0.387
				c-0.777-1.449-2.119-1.262-0.773-3.096c-0.903-0.13-1.667-0.397-1.935-1.162c0.062-0.453,0.704-0.326,1.159-0.387
				c-0.036-0.994-1.51-0.553-1.547-1.548c0.062-0.454,0.705-0.326,1.16-0.387c0.07-0.845-0.315-1.231-1.16-1.161
				c-0.412-1.443,1.451-0.613,1.16-1.935C280.108,56.901,279.871,56.754,279.786,56.452z M280.946,67.288
				c0.055,1.107,1.613,0.707,2.707,0.773C283.602,66.955,282.041,67.354,280.946,67.288z M275.528,88.185
				c-1.094,0.871,0.637,2.177,0.773,3.097c0.854-0.048,0.164-1.642,0.387-2.322C275.913,89.09,275.479,88.879,275.528,88.185z
				 M393.559,92.055c3.375,1.013,7.346,1.425,10.836,2.322C402.486,91.897,397.363,92.635,393.559,92.055z M407.49,94.376
				c-0.99-0.017-0.473,0.287-0.387,0.774c1.582,1.978,6.154,2.224,6.965,5.03c1.129,3.917-1.59,6.579-5.418,7.353
				c3.008,0.676,6.802-1.652,7.354-3.87C417.361,98.203,410.92,96.644,407.49,94.376z M287.138,120.691
				c1.091-1.064,1.979,1.354,3.483,1.16c2.892-2.396,5.974-4.605,9.286-6.578c0.033-1.969,0.171-4.042-0.772-5.031
				c-2.072-0.511-4.682,1.057-5.418,3.096c0.952-3.836-3.269-5.121-3.87-7.739c-0.601-2.608,1.24-4.437,0.774-8.127
				c0.886,0.662,0.142,2.954,0.387,4.257c2.576,0.263,3.869,1.807,5.805,2.709c2.783-4.76-2.998-9.379-6.578-9.287
				c-0.748,0.019-1.472-0.177-0.772,0.773c-5.715-4.46-10.838,2.044-15.093,3.869c-2.686,8.461,7.338,7.295,8.514,13.158
				c-3.428-0.83-6.542-5.324-9.674-7.739c-0.856,7.031,4.955,7.239,8.514,11.608c2.882,3.539,3.817,7.992,8.126,5.418
				C289.067,121.6,287.499,121.75,287.138,120.691z M330.094,100.567c12.01,4.31,29.77-1.567,40.633-5.03
				c0.411-0.131,4.762-1.201,0-0.774c-3.097,0.278-9.656,2.323-12.771,3.097C349.073,100.063,340.88,102.093,330.094,100.567z
				 M416.004,98.247c1.061,2.024,1.625,5.068,0.387,7.353c1.774,0.805,4.275,0.884,6.965,0.773
				c-0.584-0.575-1.697-0.623-2.707-0.773c0.51-1.296,4.352,0.739,4.256-1.161c-1.159,0-2.32,0-3.481,0
				c0.562-0.599,1.509-0.812,2.708-0.774c1.115-0.647-1.979-0.308-2.708-0.387c0.206-1.084,1.864-0.716,2.708-1.161
				c-0.665-1.011-2.004,0.546-3.48,0c0.254-0.52,0.826-0.721,1.547-0.773c-0.644-0.857-2.09,0.073-1.16-1.549
				C418.382,100.016,418.751,96.87,416.004,98.247z M340.153,160.938c0.311-0.725,0.647-1.418,0.774-2.322
				c-0.557,0.217-0.944,0.604-1.161,1.16c-0.75-0.539-0.576-2.002-1.16-2.707c0.545-1.262,2.738-0.873,3.482-1.938
				c1.311,0.496,0.604,3.004,1.547,3.869c1.762-0.301,2.038-2.09,3.481-2.709c0.793,0.627-0.018,2.855,0.773,3.482
				c1.032,0,2.064,0,3.096,0c0.303-0.859,0.813-1.51,0.774-2.709c0.878,0.412,0.146,2.434,0.388,3.482
				c2.016-0.209,2.867,0.742,4.645,0.773c0.728-0.562,0.046-2.533,0.773-3.096c0.778,0.77,1.266,1.828,2.321,2.32
				c0.845,0.07,1.231-0.314,1.161-1.162c1.207,0.215,0.594,2.244,1.161,3.098c0.777-1.672,3.985-0.914,4.257-3.098
				c1.371-0.209,0.952,1.371,2.322,1.162c0.615-0.932,1.814-1.281,2.322-2.32c0.519,0.254,0.72,0.826,0.772,1.547
				c0.771-0.521,1.843-0.736,2.708-1.16c0-0.646,0-1.289,0-1.938c1.928-0.164,3.771-0.973,5.418,0.775
				c0.863-1.719,1.225-3.938,1.548-6.193c-1.479,0.455-0.778,3.096-1.548,4.26c-1.986,0.309-0.548-2.809-1.936-3.098
				c3.467-7.232,9.779,2.535,15.092-0.771c1.529-0.955,6.436-7.596,7.354-10.062c1.004-2.699,1.239-5.678,0.773-8.9
				c-1.758-1.338-3.328-2.863-5.418-3.869c-0.034-5.996,4.133-12.561,3.482-18.961c-0.127-1.25-1.108-2.632-1.549-4.257
				c-0.502-1.859-0.134-3.972-0.773-5.031c-4.01-6.636-17.396,0.416-23.992,1.161c-1.866,2.262-3.608,4.646-7.354,5.031
				c-0.652-0.07,0.18-1.84,1.16-1.548c-2.793-1.11-5.408,1.294-7.353,2.321c-6.731-0.54-10.932,1.452-17.026,1.548
				c1.577,2.033,3.873,3.352,6.578,4.257c2.439,6.21-1.27,11.853-2.322,17.027c-4.016-0.15-7.393,2.711-10.834,0.771
				c0.119-0.523,0.969-0.318,1.547-0.387c-3.688-4.051-8.323-7.154-11.996-11.223c-0.377,0.012-0.301,0.475-0.387,0.773
				c-2.988-2.896-1.596-9.317-0.774-13.544c-2.578-0.518-4.698-1.494-7.353-1.936c-1.135,2.529,0.143,5.715,1.549,6.966
				c-0.42,2.554-0.57,6.721,0,10.063c0.338,1.986,2.281,5.266,2.32,5.029c-0.287,1.717-4.396,2.545-5.805,3.869
				c0.903,6.592,3.961,13.49,7.354,17.414c1.031,1.193,3.984,4.105,5.418,4.258c3.81,0.41,8.715-6.6,11.221-0.387
				c-0.006,0.59-2.867,0.848-2.32-0.389c-1.018,4.115,1.486,8.057,1.548,12.385c2.729-0.945,1.678,3.91,5.418,3.096
				c1.151,1.559,1.34,4.078,1.936,6.191c1.388-1.451,1.742-3.936,2.322-6.191c1.174-0.012,0.963,1.357,1.16,2.322
				c1.575-0.186,2.626,1.438,3.87,0.387c0.537,0.494,0.234,1.826,0.771,2.322c1.91-0.232,2.35,1.006,4.258,0.773
				c0.234-0.93,0.557-1.768,0.388-3.098c1.518-0.355,0.28,2.041,1.161,2.322c0.879-0.67,2.161-0.936,3.869-0.773
				c0-1.031,0-2.064,0-3.096c0.574,0.328,0.832,0.973,0.773,1.936c1.08-0.463,2.354-0.443,3.096,0.387
				c1.219-2.646-0.016-6.17-0.772-8.127c-0.613-0.031-1.478,0.188-1.548-0.389c-1.266,0.674-0.928,2.943-1.549,4.258
				c-0.84,0.064-0.176-1.373-0.387-1.936c-0.508,0.139-0.608,0.682-1.162,0.773c-0.707-0.582-0.91-1.668-1.547-2.322
				c-1.418,1.162-1.453,3.709-1.549,6.193c-0.548-2.418-1.195-4.738-1.935-6.969c-2.409,0.172-2.871,2.289-3.098,4.646
				c-0.996-2.734-1.445-3.887-3.869-5.418c-0.913,0.764-0.537,2.814-1.161,3.869c-0.664-1.271-1.023-2.848-1.161-4.645
				c-0.52,0.254-0.721,0.826-0.774,1.547c-0.599-0.561-0.812-1.51-0.773-2.709c-1.096,1.102-1.417,2.971-1.936,4.646
				c-0.877-0.412-0.146-2.434-0.387-3.482C342.246,159.621,341.102,159.803,340.153,160.938z M399.363,101.342
				c-1.018,3.739,1.795,6.613,1.16,11.224c3.192,4.727-2.17,8.553-2.707,13.157c1.238,1.193,1.362-0.91,2.707-0.773
				c0.312,1.342-0.576,1.488-0.388,2.709c3.664-5.262,4.927-14.471,3.87-23.219C401.675,104.189,401.852,101.434,399.363,101.342z
				 M313.453,103.664c-2.452,8.409,1.766,16.44,3.481,23.219C317.927,118.539,315.926,109.834,313.453,103.664z M301.457,115.66
				c-6.738,2.291-12.224,9.189-18.962,12.771c-0.717-0.059-0.237-1.311-0.773-1.549c1.646-0.045,4.558-0.748,5.03-3.096
				c-3.736-1.164-7.282-2.52-8.9-5.805c-1.272,0.016-1.927,0.65-3.481,0.387c0.547,2.291,1.677,4,2.321,6.191
				c1.986-0.312,2.938,0.414,4.256,0.771c-0.709,0.561-3.533-0.061-4.644-0.387c-2.2-3.861-2.581-9.545-7.353-10.834
				c-0.171-1.331,0.151-2.17,0.387-3.098c-3.56-1.988-7.695-3.396-10.836-5.804c-3.695,2.738,0.037,6.915-0.388,12.382
				c-0.32,4.152-2.674,11.951,0.388,16.256c0.063,1.225-1.027,1.293-0.773,2.709c3.402-0.982,5.236-3.535,8.127-5.031
				c-0.539,2.176-3.871,4.895-6.191,6.58c-1.002,3.762,1.718,5.055-0.387,6.965c1.396,2.602,2.906,5.09,3.097,8.898
				c2.787,2.115,5.106,4.697,5.417,9.287c4.068,1.479,5.748,5.348,9.675,6.969c1.731-3.43,2.8-7.521,6.19-9.287
				c-0.9,2.967-4.31,3.43-4.258,7.352c2.545-1.842,2.758-6.014,6.58-6.578c-0.518-1.535-0.721-5.053-1.936-4.645
				c-0.326-1.617,0.752-1.828,0.772-3.098c-1.033,0-2.062,0-3.096,0c-0.009-0.91,0.667-1.139,0.387-2.32
				c-2.662-1.078-3.404-4.074-5.028-6.191c-4.354-0.096-7.375,1.141-11.997,0.773c6.742-2.396,14.721-2.361,16.253,4.258
				c0.722-2.793-2.302-5.178-3.097-7.74c-4.053,1.623-9.309,2.043-15.094,1.936c0.094,0.682,0.668,0.883,1.549,0.773
				c-0.325,0.912-1.996-0.023-2.321-0.387c3.916-1.678,8.235-4.418,13.155-3.869c-0.135-0.51-0.681-0.609-0.772-1.162
				c0.238-0.383,2.604,0.359,3.481-0.387c1.147-2.465,1.414-5.812,3.098-7.74c-0.725-0.697-1.725,1.611-1.936,2.709
				c-0.905-1.82,1.603-3.549,1.936-5.418c1.049,0.758,2.109,1.502,2.32,3.096c1.935-1.678,4.009-3.215,5.031-5.803
				c-1.779,0.928-2.839,2.578-5.418,2.707C289.038,124.396,295.192,119.975,301.457,115.66z M272.434,106.76
				c-2.578,0.39-1.205,4.729-2.709,6.191c1.898,2.099,3.571,4.425,7.354,4.644c-0.083-2.367-2.466-2.438-3.87-3.481
				C272.91,111.701,272.36,109.54,272.434,106.76z M311.518,112.952c-3.83-0.088-6.882,3.951-9.674,6.191
				c3.635,1.051,5.499-3.014,8.514-3.869C309.691,113.991,310.59,113.594,311.518,112.952z M407.877,113.726
				c-1.421,0.146,1.332,2.512,2.322,3.096c1.462,0.861,3.66,1.209,5.031,1.549C413.369,116.232,410.805,114.796,407.877,113.726z
				 M416.004,115.66c-0.716,1.121,1.844,2.271,2.322,3.482c-0.122,0.439-1.834,1.479-1.549,0c-4.791,3.219-8.022-2.336-11.996-3.482
				c0,0.773,0,1.549,0,2.322c3.479,1.293,6.172,3.373,9.287,5.031c3.264-1.936,4.375,4.529,8.127,4.643
				c-0.301-0.344-0.416-0.873-0.387-1.547c0.68,0.092,0.881,0.666,0.772,1.547c0.877-0.412,1.405-1.174,1.548-2.322
				c1.294,1.072-0.739,2.072-0.387,3.484c0.816,0.344,1.144,1.178,2.32,1.16c0.455-1.998,1.244-3.658,1.549-5.807
				c-2.748-1.639-5.182-3.592-8.127-5.029c1.598-0.555,3.55,1.859,5.031,2.709C423.822,119.189,418.361,117.947,416.004,115.66z
				 M313.065,116.82c-4.703,1.414-8.938,6.887-14.317,3.098c-2.882,2.535-6.213,4.621-9.288,6.965
				c0.586,1.865,0.904,3.996,1.548,5.807c4.682-4.25,10.135-7.281,15.866-10.836C309.229,120.395,311.842,119.125,313.065,116.82z
				 M294.104,137.332c-1.258-1.225-6.432-4.807-7.353,0.387c-0.79-1.451,1.619-5.07,3.482-3.869c0.729-0.633-0.01-3.062-1.162-3.098
				c0.015,0.059,0.654,0.961,0.389,1.162c-0.43,0.322-1.832-0.773-2.322,2.322c-1.628-2.543,1.937-3.217,1.935-5.418
				c-8.107,6.912-1.643,22.504,10.062,21.283c-1.107-1.602-4.271-1.146-6.191-1.938c1.104-0.832,3.237-0.633,4.259-1.547
				c-0.175-6.324-3.938-3.281-6.579-0.773c-0.96-0.199-1.378-0.941-1.936-1.549c1.018-1.561,2.534-2.623,4.256-3.48
				c0.605-1.225-0.213-1.699-0.387-3.098c2.03,2.1,3.573,4.684,5.418,6.967c-0.238-1.703-2.599-4.621-3.871-6.578
				c2.129,1.869,3.781,4.217,5.418,6.578c1.551-0.771,3.094-1.551,4.646-2.322c-0.054-1.496-1.569-1.525-1.937-2.709
				c-0.281-1.055,0.771-0.777,0.774-1.547c-0.821,1.529,1.457,4.404,5.03,3.869c-0.425-2.027-0.735-4.166-2.709-4.645
				c-0.065-1.354,1.36-1.219,1.936-1.936c1.756,0.18,2.151,1.719,1.936,3.869c2.646-0.193,3.322-2.354,5.418-3.098
				c-0.588-2.369-0.82-6.408,1.16-7.352c-1.224-0.672-2.418,2.193-4.644,0.771c1.138-1.055,2.603-1.781,3.87-2.709
				c-0.349-1.133-0.349-1.188,0-2.32c-4.622,0.15-6.931,2.615-8.515,5.805c-0.909-4.525,4.699-5.875,7.74-7.738
				c-0.173-1.248-0.742-2.098-0.773-3.482c-7.272,4.725-14.695,9.297-21.284,14.705C292.241,135.58,293.157,136.471,294.104,137.332
				z M404.781,119.529c0.188,3.168,7.656,2.404,6.578,8.127c-2.359-2.025-4.449-4.32-8.125-5.029
				c-0.041,3.779,3.601,3.879,5.805,5.416c-2.253,0.955-4.131-1.795-6.192-2.32c-0.671,1.65-1.845,2.799-2.709,4.258
				c1.003,2.223,3.091,3.357,3.097,6.578c2.023,0.812,3.14,2.537,5.418,3.096c-1.609-0.949-2.211-4.873-0.773-6.578
				c1.688,0.377,2.787,1.342,4.257,1.936c-0.428,0.773-2.077-0.473-3.481,0c0.104,1.314-0.301,3.139,0.387,3.869
				c1.094-0.322,2.388-0.447,3.482-0.771c-0.056,1.105-1.615,0.707-2.709,0.771c1.91,2.221,6.227,2.029,8.127,4.258
				c1.199-0.992,1.726-2.658,2.709-3.869c-3.32-2.871-7.57-4.812-11.225-7.354c4.28-2.129,8.041,3.268,12.383,3.869
				c-0.062,1.096-0.709,1.611-0.773,2.709c1.576-2.035,3.496-3.729,3.482-7.354C417.419,127.789,412.457,122.303,404.781,119.529z
				 M429.161,123.787c-0.982,1.77,1.979,2.914,3.096,3.869c-0.062,0.453-0.706,0.326-1.161,0.387
				c0.371,0.791,0.791,1.531,1.161,2.322c0.21-1.844,0.847-2.91,1.161-5.418C432.43,125.457,429.663,124.992,429.161,123.787z
				 M428.775,126.496c-0.625,0.775,1.354,2.238,1.547,3.482c-1.365-0.055-1.73-1.107-3.096-1.16c0,1.031,0,2.061,0,3.096
				c1.338,0.34,2.68,0.672,3.481,1.547C431.955,130.789,430.015,127.971,428.775,126.496z M422.195,139.652
				c-0.588,1.732-1.418,3.227-2.322,4.645c1.63,1.105,4.668,2.355,6.191,0.389c-1.242,3.658-5.82,3.982-10.062,4.645
				c1.161,0,2.32,0,3.482,0c7.264-1.25,10.093-6.938,11.996-13.545c-1.768-0.941-2.918-2.498-5.029-3.096
				c-1.023,1.428-2.064,2.838-2.322,5.029c2.057,0.268,3.125,1.521,5.031,1.936c0.101,1.133-0.875,1.188-0.774,2.322
				c-2.446-0.615-3.659-3.012-5.805-2.709c-3.521,0.494-4.683,7.635-7.739,9.287c1.712,0.041,2.401-2.715,3.48-4.258
				C419.564,142.529,420.929,140.848,422.195,139.652z M401.298,141.977c2.204,0.814,4.128,2.32,6.192,3.482
				c1.978,1.113,4.264,2.873,6.578,2.32c0.481-1.5-1.801-1.373-2.709-1.936c-2.643-1.633-5.771-4.604-8.899-6.191
				C401.156,139.514,401.814,141.33,401.298,141.977z M302.618,147.395c2.058,6.527,10.033-4.408,14.316-5.807
				c0.289-1.189-1.062-0.744-0.771-1.936c-2.02,0.615-4.153,1.283-6.192,3.098C307.827,144.654,305.489,150.768,302.618,147.395z
				 M291.396,160.551c-5.927,2.588-8.976,8.055-14.707,10.836c-3.588,18.32,0.366,38.633,4.646,53.789
				c5.751-2.115,9.054-6.682,14.706-8.898c0-1.809,0-3.611,0-5.418c-2.21-1.4-2.255-4.969-4.645-6.191
				c-0.289-1.189,1.062-0.744,0.773-1.936c-2.888-8.83-6.191-19.172-3.097-29.023c0.41-1.309,1.738-2.547,1.936-3.869
				c0.444-2.986-1.069-5.098-1.162-7.354c3.208,1.051,4.562,3.951,6.192,6.578c0.517-0.795-1.205-2.648-1.55-3.869
				c1.979,1.893,3.519,4.223,5.031,6.578c3.1-1.674,5.168-4.377,8.515-5.805c2.266-8.184,7.726-13.172,13.157-18.188
				c-0.717-1.346-1.473-2.656-3.097-3.096c-3.848,2.215-6.577,5.549-8.901,9.287c-1.221,0.188-1.364-0.697-2.709-0.389
				c-0.338,1.242,1.004,0.805,1.162,1.547c-0.125,0.91-1.196,0.867-1.549,1.551c-0.574-0.328-0.56-1.246-0.772-1.938
				c-3.858,1.561-5.779,5.057-10.062,6.191c0.004,0.77,1.055,0.492,0.773,1.547c-0.55-0.031-1.097-0.062-1.161,0.389
				c-2.281-0.17-2.748-2.152-3.87-3.48C290.223,159.271,291.087,160.508,291.396,160.551z M397.816,147.006
				c4.789,5.789,11.301,9.855,13.543,18.189c2.205,1.02,3.569,2.881,6.58,3.096c1.205-2.922,3.334-4.92,4.644-7.74
				c-5.824-0.367-6.277-6.104-11.224-7.352c0,0.645,0,1.289,0,1.934c-0.623,0.109-0.666-0.363-1.16-0.387
				c-1.053-1.004,1.476-2.486-0.387-3.482c-0.524,0.119-0.32,0.971-0.388,1.549C405.46,151.172,403.508,145.648,397.816,147.006z
				 M390.85,159.391c1.819-3.082,4.461-5.344,6.191-8.516c-0.053-1.605-0.254-0.078-0.773,0
				C394.797,154.049,391.484,155.381,390.85,159.391z M283.653,150.488c-0.863,0.166-0.155,1.908-0.387,2.709
				c1.258,0.225,1.801-0.264,2.709-0.387c0.637,1.041,1.213,2.141,1.937,3.096C288.504,153.037,285.957,152.021,283.653,150.488z
				 M402.46,165.969c2.907,0.711,5.787-1.947,6.19-5.029C406.23,162.256,404.957,164.727,402.46,165.969z M400.137,168.678
				c0.611-1.086,1.385,2.088,2.323,0.773c0.042-0.963,0.726-1.199,0-1.936c-0.524,0.117-0.321,0.969-0.388,1.549
				c-0.969-0.32-1.226-1.355-1.937-1.938c0.675-1.391,2.158-1.971,3.87-2.32c-0.303-1.98,0.543-2.812,0.389-4.645
				c-1.356,0.318-1.812,1.541-2.322,2.707c-2.646-0.451-2.303-3.889-2.322-6.965c-1.723-0.303-2.323,0.516-3.87,0.387
				c-1.976,3.936,0.14,8.34,2.322,10.449c-2.833-1.166-3.618-4.381-5.806-6.191c0.33,1.896,2.404,4.504,4.258,6.578
				c1.942,2.182,4.666,3.92,6.19,6.191c3.324-1.707,7.339-2.725,8.9-6.191c-2.316,0.27-5.033,3.479-7.74,4.646
				C402.295,171.164,401.115,170.021,400.137,168.678z M318.483,157.068c-0.59,1.217-0.938,2.676-1.549,3.869
				c-1.459-0.297-1.851,0.473-3.097,0.387c-0.246,2.076-1.537,3.105-1.548,5.418c1.362,0.443,2.762,0.85,3.481,1.936
				c-2.27,0.588-4.006-2.695-6.578-3.096c0.014,2.438,2.434,2.467,3.869,3.482c0.065,0.838-1.373,0.174-1.935,0.387
				c-0.102,2.68,2.91,2.25,4.256,3.482c4.67-3.457,8.638-7.615,10.062-14.318c-0.812,0.941-1.719-0.342-2.32,0.387
				c0.107,0.625-0.366,0.666-0.389,1.162c-0.017,0.988,0.287,0.471,0.773,0.387c-0.371,1.178-0.456,2.641-1.548,3.096
				C319.373,162.885,320.384,158.521,318.483,157.068z M378.079,158.615c-0.769,0.006-0.492,1.057-1.548,0.773
				c0.299,1.848-0.605,2.49-0.387,4.258c-1.93-0.006-1.043-2.826-3.098-2.709c-0.811,2.328-0.092,4.822,0,7.354
				c1.068-0.479,1.966-1.131,3.482-1.162c0.102-1.775,0.412-1.869,0-3.482c1.473-0.568,0.076,1.729,1.549,1.162
				C379.347,163.436,378.865,160.143,378.079,158.615z M370.339,161.324c-4.091,2.311-0.28,7.891,0.388,11.223
				c1.545-2.193,1.616-5.863,1.547-9.676c-0.987,0.045-0.769,1.297-0.772,2.322C370.626,164.393,371.025,162.316,370.339,161.324z
				 M433.418,161.711c-1.18,0.254,1.124,1.586,1.936,2.322c0.961,0.875,2.427,1.818,3.097,2.709
				c2.929,3.9,3.338,10.062,4.257,15.865c0.353,0.768,1.3,0.768,0.387,0C443.033,172.477,440.704,164.615,433.418,161.711z
				 M369.952,176.416c-1.022,3.158-2.778,7.029-1.935,10.836c1.693-0.756,1.6-3.303,3.096-4.256
				C371.277,180.25,370.24,178.709,369.952,176.416z M375.758,177.191c-1.32,2.42-3.479,4.002-3.482,7.738
				c0.912,0.01,1.14-0.666,2.32-0.389C375.521,182.631,375.947,180.219,375.758,177.191z M347.507,177.578
				c-2.78,1.545-2.514,8.803,0.388,10.062C349.616,183.566,347.895,182.703,347.507,177.578z M341.703,177.965
				c-1.771,3.072-0.636,8.861,3.096,8.9C342.848,184.779,343.536,180.84,341.703,177.965z M377.691,179.9
				c-1.533,0.916-1.48,3.418-1.934,5.416C377.212,184.48,378.439,181.686,377.691,179.9z M366.857,180.287
				c-1.183,1.785-3.492,2.443-3.871,5.029c-0.854-0.047-0.164-1.643-0.387-2.32c-1.16,0-2.32,0-3.481,0
				c-0.851,1.818-0.181,4.246,0.388,5.805C365.391,191.002,367.842,184.979,366.857,180.287z M307.262,206.988
				c-1.154-2.979-6.941-4.666-6.966-10.062c-0.811-0.479-1.455-1.125-1.936-1.934C298.479,198.549,303.393,204.609,307.262,206.988z
				 M442.318,199.635c-1.066,2.748-2.394,10.113-1.937,11.225C441.162,207.25,442.473,204.176,442.318,199.635z M410.973,208.148
				c3.983,0.791,7.951,4.945,11.609,7.354c-0.012,0.375-0.475,0.301-0.773,0.389c3.918,3.562,8.916,6.047,14.705,7.738
				c-6.185-5.098-13.499-9.379-20.51-13.932c-2.125-1.379-4.134-3.9-6.965-3.482c-0.127,2.545,2.938,3.955,5.031,5.418
				c2.209,1.541,4.859,3.016,6.965,4.258C419.493,213.043,412.982,211.816,410.973,208.148z M282.494,227.498
				c2.155,0.236,2.558-1.65,3.868-2.709c3.471-2.795,7.933-5.139,11.998-7.74c4.117-2.633,7.871-5.738,12.384-7.352
				c0.062-0.449-0.087-0.689-0.388-0.773c-2.021-1.205-5.373,2.174-8.127,4.258C295.729,218.096,286.329,222.164,282.494,227.498z"
				/>
			<path d="M442.705,19.688c-1.86,0.24-4.353-0.942-6.191-0.773c-6.042,0.557-7.619,9.128-10.062,10.836
				C432.623,27.148,436.992,22.748,442.705,19.688z"/>
			<path d="M286.751,86.638c0.066,1.745,2.486,4.474,3.87,6.191c1.116-0.174,0.915-1.665,1.935-1.936
				c-0.036-0.735-1.51,0.24-1.548,0.774C288.921,90.66,288.645,87.84,286.751,86.638z"/>
			<path d="M298.36,94.764c-1.859,0.183-0.85-2.505-2.709-2.322c0.384,1.294,1.554,1.803,1.937,3.097
				c2.501-0.854,4.742-1.967,6.966-3.097C303.975,91.703,300.157,94.168,298.36,94.764z"/>
			<path d="M285.59,107.92c-2.986-0.498-7.976-2.343-7.354-7.739c-1.471-0.31-0.49,1.83-0.772,2.709
				c1.938,3.61,5.95,5.143,8.514,8.126c1.023-0.215-0.568-2.54,0.773-1.16c0.737-0.041-0.31-1.442-0.388-1.937
				c2.406-4.086,1.048-11.332-4.645-10.835c0.906,2.447,3.633,3.075,4.256,5.805c-0.882,0.107-1.455-0.093-1.547-0.774
				c-0.929,0.749-1.182,2.172-2.709,2.322C282.707,105.902,284.355,106.704,285.59,107.92z"/>
			<path d="M410.199,129.979c-0.428-1.377-2.803-0.811-3.87-1.549c-0.312-0.203-0.63-0.402-1.161-0.387
				C406.384,129.15,407.768,130.088,410.199,129.979z"/>
		</g>
	</g>
</g>
</svg>
