<?xml version="1.0" encoding="utf-8"?>
<!-- Generator: Adobe Illustrator 15.0.0, SVG Export Plug-In . SVG Version: 6.00 Build 0)  -->
<!DOCTYPE svg PUBLIC "-//W3C//DTD SVG 1.1//EN" "http://www.w3.org/Graphics/SVG/1.1/DTD/svg11.dtd">
<svg version="1.1" id="Layer_1" xmlns="http://www.w3.org/2000/svg" xmlns:xlink="http://www.w3.org/1999/xlink" x="0px" y="0px"
	 width="326px" height="78px" viewBox="0 0 326 78" enable-background="new 0 0 326 78" xml:space="preserve">
<g>
	<g id="YfksRB.tif">
		<g>
			<path d="M36.836,0.468c-4.121,2.057-6.312,6.044-8.555,9.979c2.29,0.266,4.168-1.632,6.273-2.564
				c2.854-1.269,5.648-2.188,8.84-3.422c-0.91-0.519-3.638-0.413-4.562,0C37.609,3.687,37.657,1.643,36.836,0.468z"/>
			<path d="M52.804,3.604c-0.008-0.276-0.349-0.221-0.57-0.285c-14.44,3.136-26.945,9.419-34.218,19.105
				c-1.209,1.609-3.087,3.846-2.565,5.132c0.753,1.855,2.499,1.267,5.132,0.57c10.43-2.761,25.007-3.438,36.214-0.57
				c-7.636-3.294-16.054-5.81-25.948-6.843c1.951-4.343,5.811-6.979,9.41-9.695C44.096,8.119,48.145,5.691,52.804,3.604z"/>
			<path d="M141.766,6.17c0.054-0.242-0.109-0.271-0.283-0.285c-10.062,2.391-20.795,4.106-32.793,4.562
				c0.769,1.859,3.309,6.431,5.703,6.846c1.185,0.203,2.966-0.707,4.277-1.143c1.41-0.466,2.665-0.911,3.992-1.426
				c-1.982,3.153-5.109,5.938-7.984,8.555c-0.852,0.773-2.187,1.455-2.281,2.566C123.961,21.059,134.184,14.936,141.766,6.17z"/>
			<path d="M87.876,20.713c-1.328,1.521-2.697,3.004-3.707,4.848c3.362,1.295,6.395,2.921,9.41,4.562c0.745-0.487-0.4-1.477,0-2.564
				c2.007-2.867,6.02-3.528,9.41-4.847c3.438-1.34,6.928-2.76,9.979-4.277c-0.877-1.118-2.141-1.854-3.137-2.854
				C103.184,17.963,96.768,20.575,87.876,20.713z"/>
			<path d="M117.815,17.861c-5.602,2.623-12.352,7.604-17.108,12.261c-4.856,4.758-10.813,9.905-11.405,17.68
				c3.381,0.326,6.075,1.34,9.694,1.427c-1.258-1.401-3.796-1.526-5.417-2.566C98.645,34.048,109.348,27.07,117.815,17.861z"/>
			<path d="M64.494,22.993c8.46,3.896,16.2,8.514,21.957,15.112c2.885-1.771,4.666-4.646,7.128-6.844
				c-3.107-2.32-7.093-3.519-11.121-4.85C77.097,24.645,71.681,23.187,64.494,22.993z"/>
			<path d="M21.723,29.837c11.066,5.853,20.781,13.056,25.093,25.662c2.761-1.24,5.315-1.785,7.414-3.423
				c3.72-2.899,5.611-7.987,10.835-9.409c-9.287-0.027-16.269-2.359-21.386-6.559c11.465-2.505,25.635-0.198,36.214,1.711
				c0.166-1.133-2.16-1.523-3.422-1.996C62.248,30.519,40.42,25.016,21.723,29.837z"/>
			<path d="M11.742,36.966c2.807-0.135,6.257-1.979,9.98-1.996c3.236-0.019,6.155,1.264,8.84,1.996
				c-1.537-1.737-3.892-3.049-6.273-4.277c-0.133-0.068-0.42,0.021-0.57,0C19.271,32.066,14.54,35.056,11.742,36.966z"/>
			<path d="M78.181,39.531c-9.875,1.149-18.4,6.12-22.812,13.688c-2.929,1.062-5.462,2.521-8.269,3.707
				c0.624,5.472-1.429,8.266-2.852,11.688c16.798-2.108,37.308-2.916,54.177-0.285c-2.035-1.702-4.369-3.483-7.127-5.132
				c-0.865-0.518-1.896-1.271-2.566-1.426c-4.438-1.014-11.631,0.207-16.254-0.285c-3.386-0.359-6.54-0.734-8.554-3.137
				c-0.266-4.786,2.469-8.289,4.848-11.121C71.404,44.097,74.546,41.505,78.181,39.531z"/>
			<path d="M36.836,17.861c17.35,5.842,33.971,12.412,48.476,21.103c-0.854-1.754-2.607-3.226-4.277-4.562
				c-8.377-6.712-19.028-11.514-30.511-15.683c-1.988-0.725-4.688-1.749-7.128-2.281C41.283,15.975,37.892,14.588,36.836,17.861z"/>
			<path d="M43.679,14.725c4.249,2.1,9.726,2.645,13.973,4.848c1.442,0.748,2.963,2.362,3.991,2.566
				c8.77-0.216,16.057,1.053,21.956,3.707c-4.513-4.992-12.188-6.822-19.959-8.555c4.126-1.462,10.991-1.845,15.113-0.855
				c-0.532-0.83-1.958-1.356-3.137-1.711c-3.274-0.985-7.943-1.252-12.832-1.141c6.63-2.193,16.089-0.781,21.386,1.711
				c-3.609-5.926-13.08-6.973-22.812-6.273C54.286,9.527,48.023,12.52,43.679,14.725z"/>
			<path d="M105.841,40.673c2.598-2.42,5.774-4.832,9.694-5.703c16.444-3.654,31.731,12.648,25.093,29.084
				c-2.781,6.888-10.13,13.553-20.244,13.4c-9.306-0.139-14.381-4.962-18.535-10.835c-0.443,0.603-1.058,1.033-2.281,0.854
				c-3.531-2.266-7.358-4.236-9.694-7.698c0.526-0.804,1.202-1.459,1.427-2.565c3.203,1.183,5.269,4.979,8.838,4.849
				c-0.766-2.306-1.287-5.291-0.854-7.984c-3.095-0.328-5.892-0.952-9.409-0.854c-0.544-1.07-0.646-2.586-0.57-4.276
				c2.842-0.06,6.928,1.039,10.551,1.142C101.12,46.116,103.173,43.156,105.841,40.673z M118.673,42.667
				c-1.154,0.827-1.129,3.961-0.285,5.133c4.08-0.943,8.846,2.625,11.405-1.142C127.268,43.659,123.931,42.394,118.673,42.667z
				 M108.406,50.938c1.733,0.006,3.28,0.935,4.562,0.569c2.424-0.688,2.875-4.614,1.711-7.127
				C111.431,45.406,109.575,47.828,108.406,50.938z M108.406,68.046c3.241,4.215,10.505,6.739,17.108,5.133
				c8.388-2.043,15.723-13.043,11.406-23.383c0.115-1.027-0.521-0.392-0.285,0.285C142.664,67.921,120.065,79.647,108.406,68.046z
				 M127.796,51.222c1.774,3.265,0.206,9.869,4.562,10.552c0.951-0.886,1.5-3.124,1.711-4.849c0.305-2.502-0.874-5.529-1.711-7.129
				C130.018,49.454,128.942,50.371,127.796,51.222z M107.552,58.066c-0.312,1.547,0.574,1.896,0.569,3.137
				c1.722-0.274,2.749-1.241,4.562-1.426C111.658,58.587,109.656,57.276,107.552,58.066z M118.673,69.187
				c5.492,1.273,16.161-3.824,8.838-7.698c-2.062,0.884-3.23,2.661-5.986,2.853C120.64,66.021,118.324,66.273,118.673,69.187z
				 M109.548,63.198c0.816,3.305,7.504,7.225,7.698,0.855c-0.647-1.159-2.304-1.311-2.853-2.566
				C112.483,61.763,111.168,62.632,109.548,63.198z"/>
			<path d="M41.683,58.352c-0.519,9.183-7.674,16.694-15.113,18.534C14.171,79.949,1.922,71.788,0.622,59.491
				C-0.866,45.406,9.964,35.53,22.293,36.396C34.216,37.23,42.362,46.306,41.683,58.352z M18.586,44.38
				c-0.639,1.231-0.316,3.649,0.57,4.274c3.924-0.954,7.785,2.324,10.836-0.569c-0.613-1.649-2.669-2.805-4.562-3.423
				C23.435,44.013,20.965,43.782,18.586,44.38z M15.45,45.52c-3.814,1.51-6.688,5.478-6.844,9.694
				c0.623,1.383,2.434,1.398,3.991,1.142C13.091,52.454,17.249,49.897,15.45,45.52z M36.551,49.511c-0.66-0.651,0.097,0.89,0,1.427
				C37.387,50.695,36.38,50.02,36.551,49.511z M28.281,52.077c1.791,3.15,0.312,9.572,4.277,10.553
				c1.947-2.904,1.861-9.354-0.285-11.979C30.986,50.128,29.352,51.46,28.281,52.077z M37.121,51.222
				c-0.068,2.007,0.546,4.879,0.285,7.13C36.223,68.55,24.954,75.462,14.88,72.037c-1.781-0.604-2.979-1.666-4.562-2.565
				c0.65,0.371-1.295-1.234-0.57,0C21.892,80.288,43.103,68.661,37.121,51.222z M8.606,58.636c0.056,2.94,2.409,6.961,4.562,8.555
				c2.688,1.99,4.33,1.066,4.847-2.564C14.269,63.237,13.788,58.587,8.606,58.636z M19.156,69.472
				c4.92,0.836,8.784-1.346,11.406-3.707c-0.229-1.672-1.247-2.555-2.281-3.422c-2.549,0.492-3.254,2.828-6.273,2.852
				C21.213,66.776,19.098,67.036,19.156,69.472z"/>
		</g>
	</g>
	<g id="YfksRB.tif_1_">
		<g>
			<path d="M220.135,0.468c-4.12,2.057-6.312,6.044-8.555,9.979c2.289,0.266,4.168-1.632,6.271-2.564
				c2.854-1.269,5.648-2.188,8.84-3.422c-0.908-0.519-3.637-0.413-4.562,0C220.908,3.687,220.955,1.643,220.135,0.468z"/>
			<path d="M236.102,3.604c-0.008-0.276-0.35-0.221-0.568-0.285c-14.44,3.136-26.945,9.419-34.219,19.105
				c-1.209,1.609-3.088,3.846-2.564,5.132c0.752,1.855,2.498,1.267,5.132,0.57c10.43-2.761,25.008-3.438,36.215-0.57
				c-7.638-3.294-16.056-5.81-25.949-6.843c1.951-4.343,5.812-6.979,9.41-9.695C227.395,8.119,231.443,5.691,236.102,3.604z"/>
			<path d="M325.064,6.17c0.055-0.242-0.108-0.271-0.283-0.285c-10.062,2.391-20.795,4.106-32.793,4.562
				c0.77,1.859,3.31,6.431,5.703,6.846c1.186,0.203,2.966-0.707,4.277-1.143c1.41-0.466,2.665-0.911,3.992-1.426
				c-1.982,3.153-5.109,5.938-7.984,8.555c-0.852,0.773-2.188,1.455-2.281,2.566C307.26,21.059,317.482,14.936,325.064,6.17z"/>
			<path d="M271.175,20.713c-1.328,1.521-2.697,3.004-3.707,4.848c3.362,1.295,6.396,2.921,9.409,4.562
				c0.746-0.487-0.399-1.477,0-2.564c2.008-2.867,6.021-3.528,9.41-4.847c3.438-1.34,6.929-2.76,9.979-4.277
				c-0.877-1.118-2.142-1.854-3.137-2.854C286.482,17.963,280.066,20.575,271.175,20.713z"/>
			<path d="M301.113,17.861c-5.602,2.623-12.352,7.604-17.107,12.261c-4.856,4.758-10.812,9.905-11.405,17.68
				c3.381,0.326,6.075,1.34,9.694,1.427c-1.258-1.401-3.797-1.526-5.418-2.566C281.943,34.048,292.646,27.07,301.113,17.861z"/>
			<path d="M247.793,22.993c8.459,3.896,16.199,8.514,21.957,15.112c2.885-1.771,4.666-4.646,7.127-6.844
				c-3.106-2.32-7.092-3.519-11.12-4.85C260.395,24.645,254.979,23.187,247.793,22.993z"/>
			<path d="M205.021,29.837c11.065,5.853,20.781,13.056,25.092,25.662c2.762-1.24,5.316-1.785,7.414-3.423
				c3.721-2.899,5.611-7.987,10.836-9.409c-9.287-0.027-16.27-2.359-21.387-6.559c11.465-2.505,25.635-0.198,36.215,1.711
				c0.166-1.133-2.16-1.523-3.422-1.996C245.547,30.519,223.719,25.016,205.021,29.837z"/>
			<path d="M195.041,36.966c2.808-0.135,6.257-1.979,9.979-1.996c3.236-0.019,6.155,1.264,8.84,1.996
				c-1.537-1.737-3.892-3.049-6.271-4.277c-0.133-0.068-0.42,0.021-0.569,0C202.568,32.066,197.839,35.056,195.041,36.966z"/>
			<path d="M261.479,39.531c-9.875,1.149-18.4,6.12-22.812,13.688c-2.928,1.062-5.461,2.521-8.269,3.707
				c0.623,5.472-1.43,8.266-2.853,11.688c16.798-2.108,37.308-2.916,54.177-0.285c-2.035-1.702-4.369-3.483-7.127-5.132
				c-0.865-0.518-1.896-1.271-2.565-1.426c-4.438-1.014-11.632,0.207-16.255-0.285c-3.387-0.359-6.538-0.734-8.555-3.137
				c-0.267-4.786,2.469-8.289,4.849-11.121C254.703,44.097,257.845,41.505,261.479,39.531z"/>
			<path d="M220.135,17.861c17.352,5.842,33.972,12.412,48.477,21.103c-0.854-1.754-2.607-3.226-4.277-4.562
				c-8.377-6.712-19.027-11.514-30.512-15.683c-1.988-0.725-4.688-1.749-7.127-2.281C224.582,15.975,221.189,14.588,220.135,17.861z
				"/>
			<path d="M226.977,14.725c4.25,2.1,9.727,2.645,13.975,4.848c1.441,0.748,2.963,2.362,3.99,2.566
				c8.77-0.216,16.057,1.053,21.955,3.707c-4.513-4.992-12.188-6.822-19.959-8.555c4.125-1.462,10.99-1.845,15.112-0.855
				c-0.532-0.83-1.958-1.356-3.138-1.711c-3.273-0.985-7.941-1.252-12.832-1.141c6.631-2.193,16.09-0.781,21.387,1.711
				c-3.609-5.926-13.08-6.973-22.812-6.273C237.584,9.527,231.32,12.52,226.977,14.725z"/>
			<path d="M289.14,40.673c2.599-2.42,5.774-4.832,9.694-5.703c16.443-3.654,31.73,12.648,25.093,29.084
				c-2.781,6.888-10.13,13.553-20.244,13.4c-9.306-0.139-14.381-4.962-18.535-10.835c-0.442,0.603-1.058,1.033-2.28,0.854
				c-3.531-2.266-7.358-4.236-9.694-7.698c0.526-0.804,1.202-1.459,1.427-2.565c3.203,1.183,5.27,4.979,8.838,4.849
				c-0.766-2.306-1.287-5.291-0.854-7.984c-3.096-0.328-5.893-0.952-9.409-0.854c-0.544-1.07-0.646-2.586-0.57-4.276
				c2.843-0.06,6.929,1.039,10.552,1.142C284.418,46.116,286.472,43.156,289.14,40.673z M301.972,42.667
				c-1.154,0.827-1.129,3.961-0.285,5.133c4.08-0.943,8.846,2.625,11.405-1.142C310.566,43.659,307.229,42.394,301.972,42.667z
				 M291.705,50.938c1.732,0.006,3.279,0.935,4.562,0.569c2.424-0.688,2.875-4.614,1.711-7.127
				C294.729,45.406,292.873,47.828,291.705,50.938z M291.705,68.046c3.24,4.215,10.505,6.739,17.107,5.133
				c8.389-2.043,15.723-13.043,11.406-23.383c0.115-1.027-0.521-0.392-0.285,0.285C325.963,67.921,303.363,79.647,291.705,68.046z
				 M311.095,51.222c1.774,3.265,0.206,9.869,4.562,10.552c0.951-0.886,1.5-3.124,1.711-4.849c0.306-2.502-0.873-5.529-1.711-7.129
				C313.316,49.454,312.24,50.371,311.095,51.222z M290.85,58.066c-0.312,1.547,0.574,1.896,0.568,3.137
				c1.723-0.274,2.75-1.241,4.562-1.426C294.957,58.587,292.955,57.276,290.85,58.066z M301.972,69.187
				c5.492,1.273,16.161-3.824,8.838-7.698c-2.062,0.884-3.229,2.661-5.986,2.853C303.938,66.021,301.623,66.273,301.972,69.187z
				 M292.847,63.198c0.815,3.305,7.504,7.225,7.698,0.855c-0.647-1.159-2.305-1.311-2.854-2.566
				C295.781,61.763,294.467,62.632,292.847,63.198z"/>
			<path d="M224.98,58.352c-0.519,9.183-7.674,16.694-15.111,18.534c-12.399,3.062-24.647-5.099-25.948-17.396
				c-1.488-14.085,9.342-23.961,21.671-23.096C217.515,37.23,225.66,46.306,224.98,58.352z M201.885,44.38
				c-0.639,1.231-0.314,3.649,0.57,4.274c3.924-0.954,7.783,2.324,10.836-0.569c-0.612-1.649-2.67-2.805-4.562-3.423
				C206.732,44.013,204.265,43.782,201.885,44.38z M198.748,45.52c-3.813,1.51-6.688,5.478-6.844,9.694
				c0.623,1.383,2.435,1.398,3.99,1.142C196.39,52.454,200.548,49.897,198.748,45.52z M219.85,49.511
				c-0.66-0.651,0.096,0.89,0,1.427C220.686,50.695,219.679,50.02,219.85,49.511z M211.58,52.077
				c1.791,3.15,0.312,9.572,4.275,10.553c1.947-2.904,1.861-9.354-0.285-11.979C214.285,50.128,212.65,51.46,211.58,52.077z
				 M220.42,51.222c-0.067,2.007,0.546,4.879,0.285,7.13c-1.184,10.198-12.452,17.11-22.526,13.686
				c-1.781-0.604-2.979-1.666-4.562-2.565c0.648,0.371-1.297-1.234-0.57,0C205.189,80.288,226.4,68.661,220.42,51.222z
				 M191.904,58.636c0.057,2.94,2.408,6.961,4.562,8.555c2.688,1.99,4.33,1.066,4.847-2.564
				C197.566,63.237,197.087,58.587,191.904,58.636z M202.455,69.472c4.92,0.836,8.783-1.346,11.404-3.707
				c-0.229-1.672-1.246-2.555-2.279-3.422c-2.551,0.492-3.254,2.828-6.272,2.852C204.513,66.776,202.396,67.036,202.455,69.472z"/>
		</g>
	</g>
</g>
</svg>
