<?xml version="1.0" encoding="utf-8"?>
<!-- Generator: Adobe Illustrator 15.0.0, SVG Export Plug-In . SVG Version: 6.00 Build 0)  -->
<!DOCTYPE svg PUBLIC "-//W3C//DTD SVG 1.1//EN" "http://www.w3.org/Graphics/SVG/1.1/DTD/svg11.dtd">
<svg version="1.1" id="Layer_1" xmlns="http://www.w3.org/2000/svg" xmlns:xlink="http://www.w3.org/1999/xlink" x="0px" y="0px"
	 width="301px" height="46px" viewBox="0 0 301 46" enable-background="new 0 0 301 46" xml:space="preserve">
<g>
	<g>
		<path d="M76.488,1.699c1.709-1.005,3.815-1.507,6.32-1.507c3.194,0,7.438,1.343,12.731,4.026c0.556,0.285,1.028,0.517,1.417,0.697
			c0.285,0,0.629-0.09,1.036-0.271c0.629-0.27,0.958-0.412,0.988-0.427c3.283-1.095,5.772-1.644,7.468-1.644
			c0.51,0,1.279,0.021,2.306,0.058c1.027,0.038,1.797,0.056,2.307,0.056c0.06,0,0.172-0.021,0.337-0.065
			c0.165-0.046,0.27-0.068,0.313-0.068c0.376-0.06,0.826-0.09,1.352-0.09c1.724,0,3.351,0.428,4.881,1.282
			c0.944,0.524,1.935,1.281,2.97,2.271c0.494,0.465,1.357,1.365,2.585,2.699c1.665,1.801,2.836,3.606,3.51,5.421
			c4.124-0.074,7.565,0.788,10.324,2.587c3.18,2.085,4.77,5.105,4.77,9.065c0,3.21-1.627,5.767-4.881,7.67
			c-0.66,0.392-1.013,0.623-1.057,0.696c-0.136,3.42-0.879,6.119-2.228,8.099c-1.636,2.369-4.049,3.554-7.243,3.554
			c-3.569,0-6.613-1.515-9.132-4.543c-2.399-2.88-3.6-6.134-3.6-9.763c0-0.358,0.054-0.896,0.157-1.606
			c0.105-0.713,0.158-1.256,0.158-1.631c0-0.137-0.278-0.451-0.833-0.945c-1.186-1.021-1.837-1.604-1.957-1.756
			c-0.84-0.943-1.478-1.664-1.912-2.159l-9.334-12.934c-0.3-0.42-0.525-0.705-0.675-0.855c-1.8-1.647-2.774-2.474-2.925-2.474
			c-0.284,0-0.427,0.562-0.427,1.688c0,1.648,0.494,3.306,1.483,4.971c1.2,2.024,2.422,3.037,3.667,3.037h0.516
			c1.381,0.075,2.146,0.127,2.295,0.157c0.734,0.09,1.103,0.547,1.103,1.37c0,0.602-0.547,0.901-1.643,0.901
			c-0.164,0-0.42-0.026-0.764-0.079c-0.345-0.053-0.601-0.079-0.765-0.079c-0.21,0-0.368,0.054-0.473,0.158
			c-0.029-0.391-0.315-0.586-0.854-0.586c-0.465,0-0.697,0.511-0.697,1.53c0,1.799,0.195,3.089,0.584,3.869v-2.588
			c0-0.989,0.263-1.68,0.789-2.069c0,0.195-0.042,0.487-0.124,0.878s-0.124,0.683-0.124,0.877c0,2.595,1.537,5.203,4.61,7.828
			c0.315,0,0.781,0.024,1.395,0.079c0.615,0.053,1.065,0.078,1.352,0.078c0.149,0,0.362,0.056,0.641,0.169
			c0.278,0.112,0.491,0.168,0.641,0.168h0.157c0-0.089,0.017-0.226,0.045-0.403c0.031-0.181,0.045-0.316,0.045-0.406
			c0-1.198-0.486-2.392-1.461-3.576c0-0.014-0.938-0.959-2.812-2.834c0.031-0.136,0.136-0.201,0.315-0.201
			c0.091,0,0.263,0.119,0.517,0.357c0.871,0.826,1.351,1.291,1.44,1.396c1.335,1.755,2.323,3.074,2.97,3.959l0.045,0.066v0.045
			l-0.045,0.113c-0.091-0.181-0.181-0.308-0.271-0.383c-0.03,0.045-0.082,0.082-0.157,0.112v2.069
			c0.705,0.705,1.042,1.268,1.014,1.687c0.21-0.299,0.313-0.472,0.313-0.519c0-0.389-0.078-0.828-0.235-1.314
			c-0.158-0.486-0.236-0.844-0.236-1.068v-0.066c0.494,0.359,0.742,1.012,0.742,1.957v0.652c-0.136,0.256-0.383,0.486-0.742,0.695
			c-0.15,0.092-0.472,0.24-0.968,0.45c-0.06,0-0.153,0.012-0.281,0.034c-0.127,0.021-0.229,0.033-0.304,0.033h-0.584
			c-1.306,0-2.732-0.203-4.285-0.606c-1.554-0.405-2.224-0.606-2.014-0.606c-0.331,0-0.639,0.338-0.923,1.012
			c-0.165,0.511-0.33,1.02-0.494,1.529c-0.119-0.104-0.18-0.246-0.18-0.428c0-0.42,0.168-0.88,0.505-1.384
			c0.337-0.502,0.506-0.798,0.506-0.89v-0.11c-3.599-2.655-5.397-5.496-5.397-8.525c0-1.694,0.637-3.111,1.911-4.251v-0.158
			c-3.389-1.799-5.083-4.184-5.083-7.152c0-1.064,0.142-1.927,0.427-2.587c0.045-0.136,0.277-0.495,0.697-1.079
			c0.345-0.48,0.517-0.824,0.517-1.034V6.018c-0.165-0.164-0.293-0.27-0.382-0.313c0.089,0,0.217,0.02,0.382,0.057
			s0.285,0.056,0.359,0.056c-0.015-0.255-0.404-0.645-1.168-1.17c-3.75-2.579-7.597-3.869-11.54-3.869
			c-2.459,0-4.445,0.429-5.96,1.283c-1.92,1.079-2.88,2.751-2.88,5.017c0,2.188,0.893,4.02,2.677,5.487
			c1.694,1.364,3.659,2.047,5.893,2.047c1.41,0,2.625-0.307,3.645-0.923c1.215-0.719,1.821-1.737,1.821-3.059
			c0-1.169-0.366-2.084-1.103-2.744c-0.299-0.254-1.169-0.771-2.61-1.552h0.429c1.064,0,1.976,0.469,2.732,1.404
			c0.757,0.938,1.136,1.954,1.136,3.049c0,1.455-0.683,2.558-2.047,3.307c-1.079,0.586-2.414,0.878-4.003,0.878
			c-2.488,0-4.656-0.688-6.5-2.069c-2.023-1.515-3.037-3.472-3.037-5.871C73.384,4.69,74.419,2.915,76.488,1.699z M94.753,5.276
			h0.068c0.03,0,0.052,0.016,0.066,0.044c-0.015,0.031-0.025,0.062-0.032,0.091c-0.009,0.03-0.026,0.06-0.058,0.09
			c-0.029-0.029-0.053-0.062-0.066-0.102c-0.016-0.037-0.03-0.062-0.046-0.079C94.701,5.306,94.723,5.292,94.753,5.276z
			 M97.857,7.66l-0.786-1.013V6.76C97.07,6.835,97.332,7.135,97.857,7.66z M105.707,12.812c0.991,1.319,2.521,3.6,4.588,6.838
			c1.891,2.983,3.45,5.242,4.68,6.771h0.157c1.589-1.8,3.112-2.933,4.566-3.396c-0.046-0.479-0.519-0.878-1.417-1.192
			c-0.675-0.209-1.351-0.412-2.024-0.606c-0.869-0.435-1.521-0.771-1.957-1.012c-3.104-1.829-5.068-3.967-5.893-6.411
			c-0.57-1.665-0.854-3.622-0.854-5.871c0-0.899,0.105-1.589,0.314-2.069c0.046-0.225,0.188-0.54,0.428-0.943V4.646
			c-1.125-0.284-2.52-0.427-4.185-0.427c-2.713,0-4.747,0.442-6.096,1.326C102.438,9.444,105.003,11.867,105.707,12.812z
			 M100.084,17.512c0.18,0,0.322-0.066,0.427-0.202h0.045c0-0.104-0.014-0.18-0.045-0.225c-0.568-0.24-0.989-0.412-1.26-0.519
			h-0.112C99.561,17.018,99.874,17.333,100.084,17.512z M99.567,18.727c0,0.12,0.029,0.195,0.09,0.227
			c0.075,0,0.113-0.075,0.113-0.227v-0.045c0.014,0,0.029,0,0.044,0h0.022c0.045,0,0.075-0.03,0.089-0.09v-0.045v-0.022
			c0.017,0,0.031,0,0.046,0h0.022c0.045,0,0.076-0.028,0.09-0.09v-0.022c0-0.06-0.03-0.091-0.09-0.091h-0.022
			c-0.046,0-0.074,0.031-0.09,0.091v0.022c-0.015-0.015-0.029-0.022-0.045-0.022h-0.022c-0.044,0.016-0.074,0.061-0.091,0.136
			c-0.014-0.015-0.029-0.022-0.044-0.022h-0.022c-0.061,0-0.09,0.045-0.09,0.137V18.727z M99.725,18.547
			c0.029,0.015,0.046,0.053,0.046,0.113v0.021c-0.03-0.015-0.046-0.045-0.046-0.09V18.547z M99.926,18.524
			c-0.028-0.028-0.044-0.06-0.044-0.09C99.897,18.45,99.912,18.479,99.926,18.524z M100.826,24.508h0.021
			c0.017,0,0.03-0.015,0.047-0.045V24.44l-0.023-0.021l-0.045-0.021c-0.03,0.015-0.06,0.037-0.09,0.066
			C100.751,24.494,100.781,24.508,100.826,24.508z M101.793,18.412h0.968c0.766,0,1.319-0.104,1.664-0.313h-0.742
			c-0.12,0-0.312,0.037-0.573,0.112c-0.263,0.074-0.454,0.11-0.574,0.11h-0.067l0.271-0.382c-0.21-0.104-0.457-0.156-0.742-0.156
			c-0.419,0-0.72,0.104-0.9,0.314C101.127,18.308,101.359,18.412,101.793,18.412z M105.394,3.792
			c1.469,0.181,2.526,0.271,3.172,0.271c0.391,0,0.87-0.285,1.438-0.854c-0.434-0.136-0.953-0.202-1.552-0.202h-1.664
			c-1.92,0-3.45,0.195-4.588,0.584C102.979,3.56,104.042,3.626,105.394,3.792z M103.684,18.953c0.886,0,1.327-0.195,1.327-0.586
			l-0.046-0.046c-0.733,0.347-1.334,0.557-1.799,0.632H103.684z M105.978,31.032c0.255,0.119,0.66,0.277,1.215,0.472h0.27
			l-2.608-1.483v0.158C105.333,30.537,105.707,30.821,105.978,31.032z M105.123,24.058c0-0.029,0.03-0.052,0.09-0.065h0.022
			c0.016,0,0.029,0.028,0.045,0.09l-0.112,0.112c-0.03-0.016-0.045-0.047-0.045-0.092V24.058z M107.54,30.649
			c0.472,0.33,0.867,0.494,1.181,0.494c0.646,0,0.97-0.299,0.97-0.899c0-0.224-0.429-0.419-1.283-0.584
			c-0.689-0.15-1.237-0.226-1.643-0.226c-0.148,0-0.217,0.09-0.202,0.271C106.742,30.004,107.068,30.319,107.54,30.649z
			 M110.252,16.096c0.509,0.57,0.832,0.899,0.967,0.989c-1.095-1.41-2.03-2.888-2.812-4.433
			C108.407,13.523,109.021,14.671,110.252,16.096z M108.834,9.617h0.157c1.201-0.63,2.206-0.944,3.015-0.944
			c1.351,0,2.812,0.457,4.387,1.372c1.44,0.825,2.625,1.813,3.554,2.97h-0.156c-2.685-2.685-5.257-4.026-7.716-4.026
			c-1.56,0-2.586,0.392-3.082,1.171c0.376,1.919,1.665,4.197,3.869,6.838c2.385,2.818,4.447,4.229,6.187,4.229h0.225
			c0.391-1.904,0.811-3.142,1.26-3.712c0.601-0.749,0.99-1.191,1.17-1.326c0.18-0.136,0.27-0.292,0.27-0.473
			c0-0.495-0.39-1.342-1.169-2.542c-2.294-3.539-5.684-6.133-10.167-7.782c-0.675-0.256-1.133-0.383-1.373-0.383
			c-0.464,0-0.696,0.713-0.696,2.137C108.565,8.164,108.655,8.987,108.834,9.617z M108.768,32.043c0.074,0,0.149-0.036,0.224-0.112
			c-0.014-0.029-0.074-0.045-0.18-0.045h-0.067c-0.075,0-0.135,0.016-0.179,0.045C108.639,32.007,108.707,32.043,108.768,32.043z
			 M110.004,31.662c0.42,0,0.63-0.21,0.63-0.63c0-0.256-0.128-0.436-0.382-0.54l-0.833,1.012
			C109.523,31.608,109.719,31.662,110.004,31.662z M126.268,14.138h0.313c0-1.14-0.757-2.466-2.271-3.98
			c0.704,1.17,1.057,1.928,1.057,2.271c0,0.076-0.022,0.15-0.067,0.226c-0.479-0.72-0.81-1.267-0.989-1.642
			c-0.721-1.335-1.612-2.489-2.677-3.464c-1.064-0.976-2.669-1.89-4.813-2.745c-2.311-0.914-4.057-1.372-5.241-1.372
			c-0.284,0-0.652,0.083-1.103,0.247c-0.524,0.211-0.786,0.429-0.786,0.653v0.045C115.373,6.011,120.898,9.265,126.268,14.138z
			 M120.374,6.131c-0.645-0.84-1.648-1.545-3.014-2.114c-1.306-0.54-2.521-0.811-3.646-0.811h-1.081
			C114.555,3.671,117.133,4.646,120.374,6.131z M117.989,40.749c2.37,3.014,5.271,4.521,8.705,4.521
			c3.075,0,5.384-1.104,6.928-3.308c1.35-1.92,2.024-4.483,2.024-7.692c-0.584,0-1.443,0.094-2.575,0.28
			c-1.132,0.188-1.99,0.281-2.576,0.281c-5.083,0-10.257-2.046-15.521-6.142c-0.181,0.36-0.271,0.697-0.271,1.014v1.529
			C114.704,34.757,115.8,37.929,117.989,40.749z M123.23,31.503c0.719,0,1.199-0.045,1.439-0.135
			c0.464-0.164,0.696-0.539,0.696-1.125c0-0.944-0.449-1.725-1.349-2.34c-0.871-0.555-1.567-0.996-2.093-1.326
			c-0.93-0.84-1.642-1.867-2.136-3.082c-0.69,0-1.515,0.421-2.476,1.26c-0.915,0.796-1.499,1.545-1.754,2.25
			C117.884,30.004,120.442,31.503,123.23,31.503z M116.146,7.907c0,0.092,0.029,0.137,0.09,0.137h0.044
			c0.12,0,0.18-0.055,0.18-0.158V7.862c0-0.135-0.06-0.202-0.18-0.202h-0.044c-0.061,0-0.09,0.062-0.09,0.181V7.907z
			 M118.643,10.001c1.68,1.754,3.051,3.516,4.115,5.286c0.165,0.015,0.525-0.1,1.08-0.34c0.63-0.254,1.035-0.403,1.215-0.448v-0.271
			l-0.584-0.473c-2.459-2.009-3.823-3.104-4.094-3.284c-1.679-1.154-2.557-1.755-2.632-1.8c-0.585-0.299-0.944-0.509-1.081-0.629
			C117.472,8.913,118.132,9.564,118.643,10.001z M122.758,18.569c0-0.42-0.143-0.997-0.427-1.73c-0.24,0-0.519,0.157-0.833,0.472
			c-1.14,1.141-1.709,2.467-1.709,3.981C121.769,21.292,122.758,20.384,122.758,18.569z M120.125,22.867
			c3.66-0.075,6.36,1.161,8.1,3.711c0.359,0.539,0.622,0.944,0.786,1.215c0.061,0.104,0.113,0.181,0.158,0.226
			c0.24-0.256,0.473-0.383,0.697-0.383c0.239,0,0.483,0.09,0.73,0.27c0.246,0.181,0.446,0.271,0.596,0.271
			c0.404,0,0.908-0.11,1.508-0.337c0.72-0.255,1.079-0.531,1.079-0.832V26.78c-1.378-3.629-3.517-6.89-6.41-9.783
			c-0.375,2.039-1.208,3.447-2.497,4.229c-1.035,0.646-2.677,0.997-4.927,1.059C119.945,22.461,120.006,22.656,120.125,22.867z
			 M122.172,25.858c1.201,1.004,2.085,1.506,2.654,1.506c0.135,0,0.331-0.059,0.585-0.18c0.254-0.119,0.449-0.18,0.584-0.18
			c0.285,0,0.638,0.202,1.057,0.607c0.42,0.404,0.773,0.605,1.06,0.605c0.06,0,0.16-0.011,0.303-0.033
			c0.143-0.021,0.251-0.025,0.326-0.012c-0.675-1.498-1.685-2.681-3.026-3.543c-1.342-0.861-2.837-1.292-4.486-1.292
			c-0.57,0-0.854,0.052-0.854,0.156C120.374,24.065,120.975,24.854,122.172,25.858z M120.801,6.558V6.49
			c-0.015-0.09-0.045-0.163-0.09-0.225c-0.045,0-0.066,0.045-0.066,0.135v0.022C120.629,6.513,120.681,6.558,120.801,6.558z
			 M121.498,32.201c2.58,1.409,5.616,2.114,9.109,2.114c2.189,0,3.794-0.211,4.813-0.629c0.044-0.076,0.067-0.188,0.067-0.338
			c0-0.688-0.157-1.731-0.472-3.127c-0.346-1.619-0.683-2.43-1.013-2.43h-0.067c-1.021,0.436-1.867,0.787-2.542,1.059
			c-0.256,0.523-0.398,0.967-0.429,1.326c-1.035,1.516-2.9,2.271-5.601,2.271c-1.274,0-2.603-0.172-3.98-0.518
			C121.4,32.007,121.438,32.097,121.498,32.201z M122.331,21.764c1.349,0,2.466-0.465,3.353-1.395
			c0.884-0.931,1.326-2.076,1.326-3.441v-0.473c-0.345-0.45-0.63-0.787-0.854-1.013c-0.09-0.016-0.158-0.029-0.203-0.046
			c-0.449,0-0.998,0.091-1.642,0.271c-0.779,0.226-1.169,0.486-1.169,0.787c0,0.225,0.026,0.562,0.078,1.012
			c0.053,0.45,0.078,0.788,0.078,1.013c0,1.38-0.494,2.476-1.484,3.284H122.331z M123.499,17.918c0.016-0.09,0.046-0.135,0.09-0.135
			h0.046c0.044,0,0.075,0.045,0.091,0.135v0.045c-0.016,0.091-0.047,0.136-0.091,0.136h-0.046c-0.044,0-0.074-0.045-0.09-0.136
			V17.918z M125.525,32.201c1.035,0,2.068-0.173,3.104-0.517c1.396-0.451,2.092-1.072,2.092-1.867h-1.281
			c0,0.584-0.053,0.988-0.158,1.215c-0.074,0.06-0.143,0.098-0.202,0.111v-1.979h-1.283c-0.119,0-0.209,0.158-0.269,0.473
			c-0.09,0.404-0.144,0.622-0.157,0.651c-0.45,0.825-1.312,1.463-2.587,1.912H125.525z M129.709,18.321
			c1.455,1.785,2.707,3.832,3.756,6.143c0.45,0.989,0.787,1.747,1.014,2.271c0.539,0,1.102-0.885,1.687-2.653
			c0.044,0.03,0.082,0.082,0.112,0.157c0,1.14-0.51,2.166-1.53,3.08c0.629,2.011,1.049,4.004,1.26,5.984
			c0.076,0.029,0.143,0.045,0.202,0.045c0.18,0,0.488-0.119,0.922-0.359c3.134-1.829,4.701-4.229,4.701-7.198
			c0-3.299-1.454-5.961-4.362-7.985c-2.596-1.813-5.608-2.722-9.043-2.722h-1.214C127.856,15.968,128.688,17.048,129.709,18.321z"/>
		<path d="M85.868,28.017c2.685,2.295,4.258,3.441,4.724,3.441c0.105,0,0.255-0.025,0.449-0.078c0.196-0.053,0.346-0.079,0.45-0.079
			c0-0.21-0.014-0.442-0.045-0.696c-0.105-0.721-0.788-1.838-2.046-3.353c-1.485-1.771-2.363-2.909-2.633-3.419
			c0-0.182,0.146-0.438,0.438-0.775c0.292-0.339,0.521-0.507,0.688-0.507c0.21,0,0.516,0.053,0.921,0.157
			c0.404,0.104,0.712,0.157,0.921,0.157c0.569,0,0.854-0.144,0.854-0.429V22.28l-0.854-0.833c0-0.328,0.232-0.493,0.698-0.493
			c0.494,0,0.982,0.165,1.462,0.493c0.54,0.375,0.81,0.797,0.81,1.261c0,0.104-0.052,0.244-0.157,0.416
			c-0.104,0.174-0.156,0.318-0.156,0.438v0.09l3.912,3.982h-0.155l-4.185-3.802h-2.653v0.248c0.765,0.823,1.335,1.446,1.709,1.866
			c0.75,0.811,1.5,1.627,2.25,2.451c0.869,1.096,1.305,2.062,1.305,2.901c0,0.841-0.532,1.261-1.597,1.261
			c-1.439,0-3.72-1.381-6.839-4.141c-0.239-0.209-0.382-0.344-0.428-0.404h0.157V28.017z M88.634,23.405h1.801v-0.27
			c-0.645-0.104-1.319-0.157-2.025-0.157v0.202C88.409,23.331,88.485,23.405,88.634,23.405z"/>
		<path d="M69.402,27.748c0.045,0.03,0.998,0.778,2.855,2.249c1.29,1.035,2.294,1.552,3.016,1.552c0.313,0,0.473-0.187,0.473-0.562
			c0-0.645-0.75-1.912-2.25-3.801c-1.035-1.229-2.062-2.459-3.082-3.689v-0.359h0.674v-0.314l-0.854-1.282
			c1.318,0,2.084,0.083,2.294,0.248c0.104,0.074,0.562,0.787,1.372,2.137c0.285,0,0.465-0.12,0.541-0.36
			c0.434-1.454,0.869-2.182,1.305-2.182h0.854c2.203,0,4.3,0.93,6.287,2.789c1.987,1.86,2.979,3.885,2.979,6.073
			c0,1.965-0.953,2.946-2.856,2.946c-0.359,0-0.75-0.119-1.17-0.358c0.136,0,0.322,0.024,0.562,0.078
			c0.24,0.053,0.427,0.079,0.562,0.079c0.392,0,0.584-0.105,0.584-0.315v-0.114c-1.188-0.315-2.311-0.787-3.368-1.418
			c-0.208,0-0.348,0.053-0.423,0.157c-0.833-0.524-1.322-0.794-1.472-0.81c0,0.136,0,0.338,0,0.607c0,0.269,0,0.473,0,0.606
			c0,0.194-0.368,0.491-1.103,0.89c-0.734,0.396-1.229,0.596-1.485,0.596c-0.389,0-0.884-0.174-1.484-0.519
			c0.15,0,0.363,0.054,0.643,0.158c0.276,0.104,0.489,0.157,0.64,0.157c0.391,0,0.585-0.092,0.585-0.271
			c0-0.135-0.06-0.238-0.18-0.314c-0.556-0.299-0.981-0.518-1.282-0.651c-1.185-0.63-2.219-1.312-3.104-2.047
			c-0.148,0-0.225-0.022-0.225-0.068c0-0.014,0-0.036,0-0.065c-0.21-0.137-0.577-0.442-1.102-0.924
			c-0.525-0.479-0.788-0.765-0.788-0.854v-0.044H69.402z M80.268,24.351h0.314v-0.27c-0.599-0.631-1.131-1.155-1.597-1.575
			c-0.615-0.57-1.462-0.854-2.542-0.854h-0.855c-0.494,0-0.743,0.457-0.743,1.372C76.541,23.023,78.347,23.466,80.268,24.351z
			 M77.747,29.019c1.89,1.912,3.607,2.867,5.151,2.867c0.076,0,0.18-0.012,0.314-0.033c0.135-0.022,0.247-0.033,0.337-0.033
			c0.166-0.075,0.248-0.285,0.248-0.631c0-1.185-1.553-3.125-4.655-5.826c-1.426-1.243-2.61-1.866-3.555-1.866H75.07l-0.157,0.157
			v0.181C74.914,25.378,75.858,27.106,77.747,29.019z"/>
		<path d="M49.428,27.208c1.065,0.885,2.138,1.764,3.217,2.632c1.515,1.14,2.67,1.709,3.464,1.709c0.345,0,0.517-0.187,0.517-0.562
			c0-0.479-0.705-1.562-2.114-3.25c-1.408-1.688-2.113-2.92-2.113-3.699c0-1.38,0.404-2.07,1.215-2.07
			c0.569,0,1.102,0.195,1.597,0.585c-0.148,0-0.363-0.052-0.641-0.158c-0.277-0.104-0.491-0.157-0.642-0.157
			c-0.449,0-0.675,0.145-0.675,0.429c0,0.21,0.053,0.368,0.158,0.473c0.345,0,0.84,0.116,1.484,0.349
			c0.646,0.232,1.14,0.35,1.484,0.35c0.181,0,0.264-0.091,0.247-0.271c0.541,0.301,1.462,1.052,2.768,2.25
			c1.185,1.11,2.047,1.771,2.586,1.979c0.149-0.045,0.255-0.082,0.314-0.112v-0.203c-1.335-1.873-2.002-3.179-2.002-3.914
			c0-1.062,0.458-1.597,1.373-1.597c0.57,0,1.245,0.248,2.024,0.742c-0.209,0-0.502-0.078-0.877-0.236
			c-0.375-0.157-0.667-0.236-0.877-0.236c-0.524,0-0.787,0.195-0.787,0.587c0,0.39,0.104,0.584,0.314,0.584
			c0.135,0,0.337-0.025,0.607-0.079c0.27-0.053,0.472-0.078,0.606-0.078c0.15,0,0.379,0.025,0.688,0.078
			c0.307,0.054,0.536,0.079,0.686,0.079l0.067-0.271l-0.112-0.157c0.314,0,2.115,1.643,5.398,4.927h-0.112
			c-0.27-0.239-0.479-0.421-0.63-0.54c-0.674-0.585-1.35-1.17-2.025-1.756c-0.809-0.688-1.543-1.198-2.204-1.527
			c-0.314,0.045-0.547,0.082-0.697,0.111c0,0.57,0.128,1.013,0.383,1.326c3.029,3.766,4.543,6.008,4.543,6.727
			c0,0.045-0.014,0.105-0.045,0.182c-0.03,0.074-0.045,0.135-0.045,0.18c0,0.136,0.067,0.263,0.202,0.383H68.39
			c-0.703,0-1.371-0.053-2.001-0.157c-2.234-2.354-3.606-3.771-4.116-4.252c-1.65-1.574-3.194-2.789-4.635-3.644
			c-1.095-0.66-1.821-0.99-2.182-0.99c-0.09,0-0.221,0.016-0.394,0.046c-0.173,0.028-0.305,0.045-0.395,0.045v0.629
			c0.944,1.08,1.882,2.151,2.812,3.218c1.245,1.561,1.866,2.752,1.866,3.575c0,0.405-0.276,0.772-0.833,1.103
			c-0.494,0.285-0.959,0.429-1.395,0.429c-0.959,0-2.354-0.81-4.184-2.431c-0.66-0.555-1.155-0.967-1.485-1.235
			c-0.915-0.854-1.589-1.509-2.024-1.958v-0.162H49.428z M56.806,32.787v-0.384c-0.645-0.209-1.004-0.313-1.079-0.313h-0.203
			C55.524,32.554,55.951,32.787,56.806,32.787z"/>
		<path d="M25.405,7.502l0.091-0.001l12.042,16.417c0.119,0.168,0.207,0.274,0.266,0.321c0-0.075,0.089-0.105,0.266-0.092
			c0-0.164-0.02-0.404-0.057-0.719c-0.036-0.315-0.056-0.556-0.056-0.721c0-0.914,0.584-1.372,1.754-1.372
			c2.369,0,4.694,0.99,6.974,2.97c2.368,2.039,3.554,4.229,3.554,6.568c0,1.77-0.615,2.654-1.844,2.654
			c-0.391,0-0.818-0.09-1.282-0.271c0.24,0.016,0.458,0.021,0.651,0.021c0.66,0,0.989-0.239,0.989-0.719
			c-0.09-0.016-0.225-0.02-0.405-0.012c-0.18,0.008-0.307,0.012-0.382,0.012c-0.359,0-0.812-0.125-1.36-0.371
			c-0.547-0.248-0.956-0.371-1.227-0.371c-0.6,0-1.574-0.614-2.924-1.844h-0.203c0,0.148,0.042,0.373,0.124,0.674
			c0.083,0.301,0.124,0.531,0.124,0.696c0,1.455-0.472,2.183-1.417,2.183c-0.18,0-0.375-0.062-0.584-0.18
			c0.495,0.014,0.742-0.158,0.742-0.518c0-0.165-0.104-0.271-0.315-0.314c-0.585-0.121-1.02-0.203-1.305-0.248
			c-0.72-0.33-1.259-0.584-1.62-0.766h-0.044c-0.795,0-1.695-0.523-2.7-1.574c-0.733-0.869-1.477-1.738-2.227-2.609h0.112
			c3.344,2.82,5.429,4.229,6.253,4.229c0.375,0,0.562-0.187,0.562-0.562c0-0.135-0.367-0.848-1.102-2.137
			c-0.601-1.064-1.042-1.859-1.327-2.386l-12.123-16.26V7.502z M38.901,23.608c0,0.375,0,0.668,0,0.877
			c-0.045,0.24-0.075,0.375-0.09,0.406c0.284,0.898,1.146,2.062,2.587,3.484c1.334,1.305,2.496,2.242,3.485,2.812
			c0.766,0.42,1.702,0.629,2.812,0.629c0.18-0.135,0.271-0.346,0.271-0.629c0-1.035-1.084-2.59-3.25-4.668
			c-2.167-2.076-3.768-3.116-4.803-3.116c-0.255,0-0.57,0.03-0.945,0.091c0.105-0.271,0.487-0.405,1.147-0.405
			c0.359,0,0.885,0.095,1.574,0.281c0.689,0.188,1.207,0.28,1.552,0.28c0-0.479-0.518-0.95-1.552-1.417
			c-0.899-0.389-1.649-0.584-2.249-0.584c-0.585,0-0.938,0.202-1.058,0.607c-0.045,0.134-0.067,0.584-0.067,1.349h0.585V23.608z
			 M40.071,33.235c0-0.045,0.037-0.074,0.112-0.09c0.029,0.016,0.045,0.053,0.045,0.112c-0.045,0.046-0.083,0.067-0.112,0.067
			c-0.03,0-0.045-0.021-0.045-0.067V33.235z M46.526,32.876l0.066,0.066c-0.029,0.045-0.066,0.074-0.111,0.091
			c-0.03-0.017-0.045-0.046-0.045-0.091C46.451,32.914,46.482,32.892,46.526,32.876z"/>
		<path d="M22.977,29.546c0.21,0.076,0.651,0.113,1.326,0.113v-0.227c-0.959-0.959-1.807-2.031-2.542-3.217
			c-0.21-0.344-0.314-0.756-0.314-1.236c0-0.164,0.195-0.621,0.585-1.373c0.494-0.942,0.816-1.506,0.967-1.686
			c0.404-0.465,0.982-0.697,1.732-0.697c1.26,0,2.545,0.349,3.856,1.046c1.312,0.697,2.32,1.571,3.025,2.622
			c0.943,1.379,1.649,2.42,2.114,3.125c-0.165-0.015-0.247,0.067-0.247,0.248c0,0.314,0.025,0.791,0.079,1.43
			c0.052,0.637,0.078,1.119,0.078,1.449c0,0.449-0.382,0.916-1.146,1.396c-0.585,0.375-1.192,0.562-1.822,0.562
			c-1.215,0-2.478-0.494-3.791-1.482c-1.312-0.989-1.938-1.485-1.878-1.485c-0.93,0-1.519-0.028-1.766-0.09
			c-0.248-0.06-0.762-0.308-1.541-0.742c-1.005-0.538-1.508-0.968-1.508-1.282C21.221,28.737,22.151,29.248,22.977,29.546z
			 M23.134,25.476c0.498,0.524,0.995,1.058,1.493,1.598c0.468,0.585,0.792,1.23,0.973,1.935c1.944,2.159,3.821,3.238,5.63,3.238
			l0.339-0.271c-0.016-0.06-0.016-0.148,0-0.27c0-0.12,0-0.203,0-0.248c0-1.289-0.938-2.872-2.812-4.746
			c-1.575-1.561-3.111-2.736-4.61-3.531l0.156-0.091c0.045-0.014,0.105-0.021,0.181-0.021c0.449,0,1.102,0.169,1.957,0.507
			c0.854,0.338,1.507,0.507,1.957,0.507v-0.315c-1.274-1.515-2.586-2.271-3.938-2.271c-0.765,0-1.251,0.367-1.461,1.103
			c-0.075,0.301-0.113,0.976-0.113,2.024C22.885,24.981,22.968,25.267,23.134,25.476z M29.386,32.673v-0.271h-0.404v0.271H29.386z"
			/>
		<path d="M0.37,27.208c1.064,0.885,2.137,1.764,3.216,2.632c1.516,1.14,2.669,1.709,3.464,1.709c0.346,0,0.518-0.187,0.518-0.562
			c0-0.479-0.704-1.562-2.114-3.25c-1.409-1.688-2.114-2.92-2.114-3.699c0-1.38,0.404-2.07,1.214-2.07
			c0.57,0,1.103,0.195,1.598,0.585c-0.15,0-0.364-0.052-0.643-0.158c-0.276-0.104-0.49-0.157-0.641-0.157
			c-0.45,0-0.675,0.145-0.675,0.429c0,0.21,0.053,0.368,0.157,0.473c0.345,0,0.84,0.116,1.483,0.349
			c0.646,0.232,1.14,0.35,1.485,0.35c0.18,0,0.263-0.091,0.247-0.271c0.541,0.301,1.462,1.052,2.767,2.25
			c1.186,1.11,2.047,1.771,2.586,1.979c0.15-0.045,0.255-0.082,0.315-0.112v-0.203c-1.335-1.873-2.002-3.179-2.002-3.914
			c0-1.062,0.458-1.597,1.372-1.597c0.569,0,1.244,0.248,2.023,0.742c-0.209,0-0.501-0.078-0.877-0.236
			c-0.375-0.157-0.667-0.236-0.877-0.236c-0.523,0-0.787,0.195-0.787,0.587c0,0.39,0.105,0.584,0.314,0.584
			c0.135,0,0.338-0.025,0.606-0.079c0.271-0.053,0.473-0.078,0.607-0.078c0.149,0,0.379,0.025,0.686,0.078
			c0.309,0.054,0.537,0.079,0.687,0.079l0.066-0.271l-0.111-0.157c0.313,0,2.113,1.643,5.397,4.927h-0.111
			c-0.271-0.239-0.48-0.421-0.631-0.54c-0.675-0.585-1.35-1.17-2.024-1.756c-0.811-0.688-1.544-1.198-2.204-1.527
			c-0.315,0.045-0.547,0.082-0.697,0.111c0,0.57,0.127,1.013,0.382,1.326c3.029,3.766,4.544,6.008,4.544,6.727
			c0,0.045-0.015,0.105-0.045,0.182c-0.029,0.075-0.045,0.135-0.045,0.18c0,0.136,0.068,0.263,0.203,0.383h-0.383
			c-0.704,0-1.372-0.053-2.001-0.157c-2.234-2.354-3.606-3.771-4.116-4.252c-1.648-1.574-3.193-2.789-4.634-3.644
			c-1.095-0.66-1.822-0.99-2.182-0.99c-0.091,0-0.222,0.016-0.394,0.046c-0.173,0.028-0.304,0.045-0.394,0.045v0.629
			c0.944,1.08,1.882,2.151,2.812,3.218c1.245,1.561,1.867,2.752,1.867,3.575c0,0.405-0.277,0.772-0.833,1.103
			c-0.495,0.285-0.959,0.429-1.394,0.429c-0.959,0-2.354-0.81-4.185-2.431c-0.66-0.555-1.155-0.967-1.485-1.235
			c-0.914-0.854-1.589-1.509-2.023-1.958v-0.162H0.37z M7.747,32.787v-0.384c-0.644-0.209-1.004-0.313-1.08-0.313H6.464
			C6.465,32.554,6.894,32.787,7.747,32.787z"/>
	</g>
	<g>
		<path d="M235.02,1.699c1.709-1.005,3.816-1.507,6.32-1.507c3.193,0,7.438,1.343,12.73,4.026c0.557,0.285,1.029,0.517,1.418,0.697
			c0.285,0,0.629-0.09,1.035-0.271c0.629-0.27,0.959-0.412,0.987-0.427c3.285-1.095,5.772-1.644,7.47-1.644
			c0.51,0,1.278,0.021,2.306,0.058c1.026,0.038,1.797,0.056,2.306,0.056c0.061,0,0.172-0.021,0.338-0.065
			c0.165-0.046,0.27-0.068,0.314-0.068c0.376-0.06,0.824-0.09,1.35-0.09c1.725,0,3.352,0.428,4.881,1.282
			c0.945,0.524,1.937,1.281,2.971,2.271c0.494,0.465,1.356,1.365,2.586,2.699c1.664,1.801,2.836,3.606,3.511,5.421
			c4.123-0.074,7.563,0.788,10.323,2.587c3.18,2.085,4.769,5.105,4.769,9.065c0,3.209-1.627,5.767-4.881,7.67
			c-0.66,0.392-1.013,0.623-1.058,0.696c-0.135,3.42-0.879,6.119-2.227,8.099c-1.635,2.369-4.049,3.554-7.244,3.554
			c-3.568,0-6.611-1.515-9.132-4.543c-2.399-2.88-3.599-6.134-3.599-9.763c0-0.358,0.053-0.896,0.156-1.606
			c0.104-0.713,0.158-1.256,0.158-1.631c0-0.137-0.277-0.451-0.832-0.945c-1.186-1.021-1.838-1.605-1.957-1.756
			c-0.841-0.943-1.478-1.664-1.912-2.159l-9.334-12.934c-0.302-0.42-0.525-0.705-0.677-0.855c-1.8-1.647-2.774-2.474-2.925-2.474
			c-0.284,0-0.426,0.562-0.426,1.688c0,1.648,0.494,3.306,1.482,4.971c1.199,2.024,2.422,3.037,3.668,3.037h0.517
			c1.381,0.075,2.146,0.127,2.295,0.157c0.733,0.09,1.103,0.547,1.103,1.37c0,0.602-0.548,0.901-1.643,0.901
			c-0.164,0-0.42-0.026-0.766-0.079c-0.344-0.053-0.6-0.079-0.764-0.079c-0.211,0-0.369,0.054-0.473,0.158
			c-0.03-0.391-0.316-0.586-0.855-0.586c-0.465,0-0.697,0.511-0.697,1.53c0,1.799,0.195,3.089,0.584,3.869v-2.588
			c0-0.989,0.265-1.68,0.789-2.069c0,0.195-0.043,0.487-0.125,0.878s-0.123,0.683-0.123,0.877c0,2.595,1.537,5.203,4.609,7.828
			c0.316,0,0.781,0.024,1.396,0.078s1.064,0.078,1.351,0.078c0.15,0,0.363,0.057,0.642,0.17c0.276,0.11,0.49,0.168,0.641,0.168
			h0.158c0-0.09,0.016-0.226,0.045-0.403c0.031-0.181,0.045-0.316,0.045-0.406c0-1.199-0.487-2.392-1.462-3.576
			c0-0.014-0.938-0.959-2.813-2.834c0.031-0.136,0.137-0.201,0.316-0.201c0.09,0,0.263,0.119,0.518,0.357
			c0.869,0.826,1.35,1.291,1.439,1.396c1.336,1.754,2.324,3.074,2.969,3.959l0.045,0.066v0.045l-0.045,0.113
			c-0.09-0.181-0.18-0.308-0.27-0.383c-0.03,0.045-0.082,0.082-0.157,0.112v2.067c0.704,0.707,1.042,1.269,1.013,1.688
			c0.21-0.299,0.314-0.474,0.314-0.519c0-0.389-0.078-0.828-0.236-1.314s-0.236-0.844-0.236-1.068v-0.066
			c0.494,0.359,0.742,1.012,0.742,1.957v0.652c-0.135,0.256-0.382,0.486-0.742,0.695c-0.149,0.092-0.473,0.24-0.968,0.45
			c-0.06,0-0.153,0.012-0.28,0.034c-0.127,0.021-0.229,0.033-0.305,0.033h-0.584c-1.305,0-2.732-0.203-4.285-0.606
			c-1.553-0.405-2.223-0.606-2.013-0.606c-0.331,0-0.64,0.338-0.923,1.012c-0.165,0.51-0.33,1.02-0.494,1.529
			c-0.12-0.104-0.18-0.246-0.18-0.428c0-0.421,0.168-0.88,0.505-1.384c0.337-0.502,0.507-0.8,0.507-0.89v-0.11
			c-3.6-2.655-5.398-5.496-5.398-8.525c0-1.694,0.637-3.111,1.91-4.251v-0.158c-3.387-1.799-5.082-4.184-5.082-7.152
			c0-1.064,0.143-1.927,0.428-2.587c0.045-0.136,0.276-0.495,0.697-1.079c0.346-0.48,0.518-0.824,0.518-1.034V6.018
			c-0.166-0.164-0.293-0.27-0.383-0.313c0.09,0,0.217,0.02,0.383,0.057c0.164,0.037,0.285,0.056,0.359,0.056
			c-0.016-0.255-0.404-0.645-1.17-1.17c-3.749-2.579-7.596-3.869-11.539-3.869c-2.459,0-4.445,0.429-5.961,1.283
			c-1.92,1.079-2.879,2.751-2.879,5.017c0,2.188,0.893,4.02,2.676,5.487c1.695,1.364,3.659,2.047,5.895,2.047
			c1.408,0,2.624-0.307,3.644-0.923c1.216-0.719,1.822-1.737,1.822-3.059c0-1.169-0.367-2.084-1.103-2.744
			c-0.299-0.254-1.17-0.771-2.609-1.552h0.429c1.063,0,1.976,0.469,2.731,1.404c0.759,0.938,1.137,1.954,1.137,3.049
			c0,1.455-0.684,2.558-2.048,3.307c-1.078,0.586-2.413,0.878-4.003,0.878c-2.488,0-4.655-0.688-6.502-2.069
			c-2.022-1.515-3.035-3.472-3.035-5.871C231.915,4.69,232.949,2.915,235.02,1.699z M253.283,5.276h0.068
			c0.029,0,0.053,0.016,0.066,0.044c-0.016,0.031-0.025,0.062-0.032,0.091c-0.009,0.03-0.026,0.061-0.058,0.09
			c-0.03-0.029-0.055-0.062-0.067-0.102c-0.015-0.037-0.028-0.062-0.046-0.079C253.232,5.306,253.254,5.292,253.283,5.276z
			 M256.388,7.66l-0.786-1.013V6.76C255.602,6.835,255.863,7.135,256.388,7.66z M264.238,12.812c0.99,1.319,2.52,3.6,4.588,6.838
			c1.891,2.983,3.451,5.24,4.68,6.771h0.158c1.588-1.8,3.111-2.933,4.566-3.396c-0.047-0.479-0.52-0.878-1.418-1.192
			c-0.677-0.209-1.351-0.412-2.024-0.606c-0.869-0.435-1.521-0.771-1.957-1.012c-3.104-1.829-5.069-3.967-5.894-6.411
			c-0.57-1.665-0.854-3.622-0.854-5.871c0-0.899,0.104-1.589,0.313-2.069c0.045-0.225,0.188-0.54,0.428-0.943V4.646
			c-1.125-0.284-2.52-0.427-4.186-0.427c-2.713,0-4.746,0.442-6.095,1.326C260.969,9.444,263.533,11.867,264.238,12.812z
			 M258.615,17.512c0.18,0,0.322-0.066,0.428-0.202h0.045c0-0.104-0.016-0.18-0.045-0.225c-0.57-0.24-0.99-0.412-1.26-0.519h-0.113
			C258.091,17.018,258.404,17.333,258.615,17.512z M258.098,18.727c0,0.12,0.03,0.195,0.09,0.227c0.075,0,0.113-0.075,0.113-0.227
			v-0.045c0.014,0,0.03,0,0.044,0h0.022c0.046,0,0.076-0.03,0.09-0.09v-0.045v-0.022c0.016,0,0.031,0,0.046,0h0.022
			c0.045,0,0.076-0.028,0.09-0.09v-0.022c0-0.06-0.03-0.091-0.09-0.091h-0.022c-0.046,0-0.075,0.031-0.09,0.091v0.022
			c-0.015-0.015-0.03-0.022-0.046-0.022h-0.022c-0.044,0.016-0.073,0.061-0.09,0.136c-0.015-0.015-0.03-0.022-0.044-0.022h-0.023
			c-0.06,0-0.09,0.045-0.09,0.137V18.727L258.098,18.727z M258.255,18.547c0.03,0.015,0.046,0.053,0.046,0.113v0.021
			c-0.029-0.015-0.046-0.045-0.046-0.09V18.547z M258.457,18.524c-0.029-0.028-0.044-0.06-0.044-0.09
			C258.428,18.45,258.443,18.479,258.457,18.524z M259.357,24.508h0.021c0.018,0,0.031-0.015,0.047-0.045V24.44l-0.023-0.021
			l-0.045-0.021c-0.028,0.014-0.061,0.037-0.09,0.066C259.281,24.494,259.312,24.508,259.357,24.508z M260.324,18.412h0.969
			c0.764,0,1.318-0.104,1.664-0.313h-0.743c-0.12,0-0.312,0.037-0.573,0.112c-0.262,0.074-0.453,0.11-0.574,0.11h-0.065l0.271-0.382
			c-0.211-0.104-0.457-0.156-0.742-0.156c-0.42,0-0.721,0.104-0.9,0.314C259.658,18.308,259.89,18.412,260.324,18.412z
			 M263.924,3.792c1.469,0.181,2.527,0.271,3.172,0.271c0.391,0,0.869-0.285,1.439-0.854c-0.436-0.136-0.953-0.202-1.553-0.202
			h-1.664c-1.92,0-3.449,0.195-4.588,0.584C261.509,3.56,262.572,3.626,263.924,3.792z M262.214,18.953
			c0.886,0,1.328-0.195,1.328-0.586l-0.046-0.046c-0.734,0.347-1.335,0.557-1.799,0.632H262.214z M264.508,31.03
			c0.256,0.121,0.661,0.279,1.215,0.474h0.271l-2.609-1.483v0.158C263.863,30.537,264.238,30.821,264.508,31.03z M263.654,24.058
			c0-0.029,0.029-0.052,0.09-0.065h0.021c0.017,0,0.03,0.028,0.046,0.09l-0.111,0.112c-0.03-0.016-0.045-0.047-0.045-0.092V24.058z
			 M266.07,30.649c0.473,0.33,0.867,0.494,1.182,0.494c0.646,0,0.969-0.301,0.969-0.899c0-0.226-0.428-0.421-1.283-0.584
			c-0.688-0.15-1.236-0.226-1.642-0.226c-0.149,0-0.218,0.09-0.203,0.271C265.273,30.004,265.6,30.319,266.07,30.649z
			 M268.783,16.096c0.509,0.57,0.83,0.899,0.967,0.989c-1.096-1.41-2.031-2.888-2.812-4.433
			C266.938,13.523,267.553,14.671,268.783,16.096z M267.365,9.617h0.156c1.2-0.63,2.205-0.944,3.016-0.944
			c1.35,0,2.812,0.457,4.385,1.372c1.441,0.825,2.626,1.813,3.555,2.97h-0.156c-2.685-2.685-5.256-4.026-7.717-4.026
			c-1.559,0-2.586,0.392-3.082,1.171c0.377,1.919,1.666,4.197,3.869,6.838c2.385,2.818,4.447,4.229,6.188,4.229h0.224
			c0.391-1.904,0.811-3.142,1.26-3.712c0.602-0.749,0.989-1.191,1.17-1.326c0.182-0.136,0.271-0.292,0.271-0.473
			c0-0.495-0.391-1.342-1.17-2.542c-2.295-3.539-5.684-6.133-10.167-7.782c-0.675-0.256-1.134-0.383-1.372-0.383
			c-0.465,0-0.697,0.713-0.697,2.137C267.096,8.164,267.186,8.987,267.365,9.617z M267.298,32.043c0.075,0,0.149-0.036,0.224-0.112
			c-0.014-0.029-0.072-0.045-0.18-0.045h-0.066c-0.076,0-0.135,0.016-0.18,0.045C267.17,32.007,267.238,32.043,267.298,32.043z
			 M268.535,31.662c0.42,0,0.63-0.211,0.63-0.632c0-0.254-0.128-0.434-0.382-0.538l-0.834,1.012
			C268.055,31.608,268.25,31.662,268.535,31.662z M284.798,14.138h0.313c0-1.14-0.756-2.466-2.271-3.98
			c0.704,1.17,1.058,1.928,1.058,2.271c0,0.076-0.022,0.15-0.067,0.226c-0.479-0.72-0.81-1.267-0.989-1.642
			c-0.72-1.335-1.611-2.489-2.677-3.464c-1.065-0.976-2.668-1.89-4.813-2.745c-2.31-0.914-4.056-1.372-5.24-1.372
			c-0.285,0-0.652,0.083-1.104,0.247c-0.523,0.211-0.786,0.429-0.786,0.653v0.045C273.904,6.011,279.429,9.265,284.798,14.138z
			 M278.904,6.131c-0.646-0.84-1.648-1.545-3.015-2.114c-1.305-0.54-2.52-0.811-3.645-0.811h-1.08
			C273.086,3.671,275.664,4.646,278.904,6.131z M276.52,40.749c2.37,3.014,5.271,4.521,8.705,4.521c3.075,0,5.385-1.104,6.93-3.308
			c1.35-1.92,2.023-4.483,2.023-7.692c-0.585,0-1.443,0.094-2.576,0.28c-1.131,0.188-1.99,0.281-2.574,0.281
			c-5.084,0-10.258-2.046-15.521-6.142c-0.182,0.36-0.271,0.697-0.271,1.014v1.529C273.234,34.757,274.331,37.929,276.52,40.749z
			 M281.762,31.503c0.719,0,1.199-0.045,1.439-0.135c0.465-0.164,0.695-0.539,0.695-1.125c0-0.945-0.449-1.725-1.349-2.34
			c-0.871-0.555-1.565-0.996-2.092-1.326c-0.931-0.84-1.644-1.867-2.138-3.082c-0.689,0-1.516,0.421-2.476,1.26
			c-0.915,0.795-1.499,1.545-1.754,2.25C276.415,30.004,278.973,31.503,281.762,31.503z M274.676,7.907
			c0,0.092,0.03,0.137,0.09,0.137h0.045c0.119,0,0.18-0.055,0.18-0.158V7.862c0-0.135-0.061-0.202-0.18-0.202h-0.045
			c-0.06,0-0.09,0.062-0.09,0.181V7.907z M277.173,10.001c1.681,1.754,3.052,3.516,4.116,5.286c0.165,0.015,0.525-0.1,1.08-0.34
			c0.63-0.254,1.033-0.403,1.215-0.448v-0.271l-0.585-0.473c-2.46-2.009-3.824-3.104-4.095-3.284c-1.68-1.154-2.558-1.755-2.631-1.8
			c-0.586-0.299-0.945-0.509-1.082-0.629C276.003,8.913,276.663,9.564,277.173,10.001z M281.289,18.569
			c0-0.42-0.143-0.997-0.428-1.73c-0.24,0-0.519,0.157-0.832,0.472c-1.141,1.141-1.709,2.467-1.709,3.981
			C280.299,21.292,281.289,20.384,281.289,18.569z M278.656,22.867c3.66-0.075,6.358,1.161,8.099,3.711
			c0.36,0.539,0.622,0.944,0.786,1.215c0.061,0.104,0.113,0.181,0.158,0.226c0.24-0.256,0.473-0.383,0.697-0.383
			c0.239,0,0.483,0.09,0.731,0.27c0.246,0.181,0.444,0.271,0.595,0.271c0.405,0,0.907-0.112,1.508-0.337
			c0.721-0.256,1.08-0.533,1.08-0.832V26.78c-1.38-3.629-3.517-6.89-6.41-9.783c-0.375,2.039-1.207,3.447-2.498,4.229
			c-1.033,0.646-2.676,0.997-4.926,1.059C278.477,22.461,278.537,22.656,278.656,22.867z M280.703,25.858
			c1.201,1.004,2.086,1.506,2.654,1.506c0.135,0,0.33-0.061,0.586-0.18c0.254-0.119,0.449-0.18,0.584-0.18
			c0.285,0,0.639,0.201,1.057,0.607c0.421,0.404,0.773,0.605,1.059,0.605c0.062,0,0.16-0.011,0.305-0.033
			c0.144-0.021,0.25-0.025,0.326-0.012c-0.676-1.499-1.686-2.681-3.026-3.543c-1.343-0.861-2.837-1.292-4.486-1.292
			c-0.569,0-0.854,0.052-0.854,0.156C278.904,24.065,279.505,24.853,280.703,25.858z M279.332,6.558V6.49
			c-0.016-0.09-0.045-0.163-0.09-0.225c-0.045,0-0.067,0.045-0.067,0.135v0.022C279.16,6.513,279.212,6.558,279.332,6.558z
			 M280.029,32.201c2.58,1.409,5.615,2.114,9.108,2.114c2.188,0,3.794-0.211,4.813-0.631c0.045-0.074,0.066-0.188,0.066-0.336
			c0-0.688-0.156-1.731-0.472-3.127c-0.345-1.621-0.683-2.43-1.013-2.43h-0.066c-1.02,0.436-1.867,0.787-2.542,1.057
			c-0.255,0.525-0.397,0.967-0.429,1.328c-1.034,1.514-2.9,2.271-5.602,2.271c-1.273,0-2.602-0.172-3.979-0.518
			C279.932,32.007,279.969,32.095,280.029,32.201z M280.861,21.764c1.35,0,2.467-0.465,3.353-1.395
			c0.884-0.931,1.327-2.076,1.327-3.441v-0.473c-0.346-0.45-0.631-0.787-0.855-1.013c-0.09-0.016-0.158-0.029-0.203-0.046
			c-0.449,0-0.996,0.091-1.642,0.271c-0.778,0.226-1.169,0.486-1.169,0.787c0,0.225,0.025,0.562,0.078,1.012
			s0.078,0.788,0.078,1.013c0,1.38-0.494,2.476-1.484,3.284H280.861z M282.029,17.918c0.018-0.09,0.047-0.135,0.092-0.135h0.045
			c0.045,0,0.076,0.045,0.09,0.135v0.045c-0.014,0.091-0.045,0.136-0.09,0.136h-0.045c-0.045,0-0.074-0.045-0.092-0.136V17.918z
			 M284.056,32.201c1.034,0,2.069-0.173,3.104-0.519c1.396-0.449,2.093-1.07,2.093-1.867h-1.282c0,0.586-0.052,0.99-0.158,1.215
			c-0.072,0.062-0.142,0.099-0.201,0.113v-1.979h-1.283c-0.118,0-0.209,0.157-0.27,0.474c-0.09,0.404-0.144,0.622-0.156,0.651
			c-0.451,0.825-1.312,1.463-2.588,1.912H284.056z M288.24,18.321c1.455,1.785,2.705,3.832,3.756,6.143
			c0.449,0.989,0.787,1.747,1.013,2.271c0.539,0,1.103-0.885,1.687-2.652c0.045,0.029,0.082,0.082,0.113,0.156
			c0,1.141-0.512,2.168-1.531,3.082c0.631,2.01,1.051,4.004,1.261,5.982c0.075,0.03,0.144,0.045,0.202,0.045
			c0.181,0,0.488-0.119,0.923-0.359c3.134-1.828,4.7-4.229,4.7-7.197c0-3.299-1.453-5.961-4.362-7.985
			c-2.597-1.813-5.608-2.722-9.043-2.722h-1.215C286.387,15.968,287.219,17.048,288.24,18.321z"/>
		<path d="M244.398,28.017c2.687,2.295,4.26,3.441,4.726,3.441c0.104,0,0.255-0.025,0.448-0.078
			c0.195-0.053,0.347-0.079,0.449-0.079c0-0.21-0.014-0.442-0.045-0.696c-0.104-0.721-0.787-1.838-2.045-3.354
			c-1.484-1.77-2.363-2.908-2.633-3.418c0-0.182,0.146-0.438,0.439-0.775c0.291-0.339,0.52-0.507,0.686-0.507
			c0.211,0,0.518,0.053,0.922,0.157c0.405,0.104,0.713,0.157,0.922,0.157c0.57,0,0.855-0.144,0.855-0.429V22.28l-0.855-0.833
			c0-0.328,0.232-0.493,0.697-0.493c0.495,0,0.982,0.165,1.463,0.493c0.539,0.375,0.809,0.797,0.809,1.261
			c0,0.104-0.051,0.244-0.155,0.416c-0.104,0.174-0.157,0.318-0.157,0.438v0.09l3.913,3.982h-0.157l-4.185-3.802h-2.653v0.248
			c0.766,0.823,1.335,1.446,1.709,1.864c0.751,0.812,1.5,1.629,2.249,2.453c0.871,1.095,1.306,2.062,1.306,2.901
			s-0.531,1.261-1.598,1.261c-1.439,0-3.719-1.381-6.838-4.141c-0.24-0.209-0.382-0.344-0.43-0.404h0.158V28.017z M247.166,23.405
			h1.799v-0.27c-0.645-0.104-1.318-0.157-2.023-0.157v0.202C246.941,23.331,247.018,23.405,247.166,23.405z"/>
		<path d="M227.934,27.748c0.045,0.028,0.997,0.778,2.856,2.249c1.29,1.033,2.294,1.552,3.015,1.552
			c0.314,0,0.473-0.188,0.473-0.562c0-0.646-0.75-1.912-2.25-3.801c-1.033-1.23-2.062-2.459-3.08-3.689v-0.359h0.674v-0.314
			l-0.854-1.282c1.317,0,2.084,0.083,2.293,0.248c0.104,0.074,0.562,0.787,1.371,2.137c0.285,0,0.467-0.12,0.541-0.36
			c0.434-1.454,0.869-2.182,1.305-2.182h0.854c2.204,0,4.3,0.93,6.288,2.789c1.986,1.86,2.979,3.885,2.979,6.073
			c0,1.965-0.951,2.946-2.854,2.946c-0.36,0-0.75-0.121-1.17-0.358c0.135,0,0.321,0.024,0.562,0.078
			c0.24,0.053,0.428,0.077,0.562,0.077c0.391,0,0.585-0.104,0.585-0.313v-0.114c-1.188-0.315-2.312-0.789-3.368-1.418
			c-0.208,0-0.35,0.053-0.423,0.157c-0.833-0.524-1.323-0.794-1.474-0.81c0,0.135,0,0.338,0,0.607c0,0.269,0,0.473,0,0.606
			c0,0.194-0.367,0.491-1.103,0.89c-0.733,0.395-1.229,0.596-1.485,0.596c-0.389,0-0.884-0.174-1.482-0.519
			c0.15,0,0.363,0.054,0.642,0.158c0.277,0.104,0.49,0.155,0.642,0.155c0.391,0,0.584-0.09,0.584-0.27
			c0-0.135-0.06-0.238-0.18-0.314c-0.556-0.301-0.98-0.518-1.281-0.651c-1.186-0.631-2.221-1.312-3.104-2.047
			c-0.149,0-0.226-0.022-0.226-0.068c0-0.014,0-0.036,0-0.065c-0.211-0.137-0.576-0.443-1.102-0.924
			c-0.525-0.479-0.787-0.765-0.787-0.854v-0.043H227.934z M238.798,24.351h0.315v-0.27c-0.601-0.631-1.133-1.155-1.599-1.575
			c-0.614-0.57-1.461-0.854-2.542-0.854h-0.854c-0.494,0-0.742,0.457-0.742,1.372C235.072,23.023,236.879,23.466,238.798,24.351z
			 M236.277,29.019c1.891,1.912,3.606,2.867,5.151,2.867c0.076,0,0.181-0.012,0.313-0.033c0.136-0.022,0.248-0.035,0.339-0.035
			c0.166-0.073,0.248-0.284,0.248-0.629c0-1.185-1.554-3.127-4.656-5.826c-1.426-1.243-2.61-1.866-3.556-1.866H233.6l-0.156,0.157
			v0.181C233.445,25.378,234.389,27.106,236.277,29.019z"/>
		<path d="M207.959,27.207c1.064,0.886,2.137,1.765,3.216,2.633c1.517,1.14,2.67,1.709,3.465,1.709c0.347,0,0.519-0.188,0.519-0.562
			c0-0.479-0.705-1.562-2.115-3.25c-1.408-1.688-2.113-2.92-2.113-3.699c0-1.38,0.404-2.07,1.215-2.07
			c0.569,0,1.103,0.195,1.596,0.585c-0.147,0-0.362-0.052-0.641-0.158c-0.277-0.104-0.49-0.157-0.641-0.157
			c-0.45,0-0.676,0.145-0.676,0.429c0,0.21,0.054,0.368,0.158,0.473c0.346,0,0.84,0.116,1.483,0.349
			c0.646,0.232,1.142,0.35,1.483,0.35c0.182,0,0.265-0.091,0.248-0.271c0.541,0.301,1.463,1.051,2.768,2.25
			c1.186,1.11,2.047,1.77,2.587,1.979c0.149-0.045,0.255-0.082,0.313-0.112v-0.203c-1.334-1.873-2.002-3.179-2.002-3.914
			c0-1.062,0.459-1.597,1.373-1.597c0.569,0,1.244,0.248,2.023,0.742c-0.209,0-0.502-0.078-0.877-0.236
			c-0.375-0.157-0.667-0.236-0.877-0.236c-0.525,0-0.787,0.195-0.787,0.587c0,0.39,0.104,0.584,0.314,0.584
			c0.135,0,0.338-0.025,0.606-0.079c0.271-0.053,0.474-0.078,0.607-0.078c0.149,0,0.379,0.025,0.686,0.078
			c0.308,0.054,0.537,0.079,0.687,0.079l0.068-0.271l-0.113-0.157c0.314,0,2.115,1.643,5.398,4.926h-0.111
			c-0.271-0.238-0.48-0.42-0.631-0.539c-0.675-0.585-1.351-1.17-2.024-1.756c-0.81-0.688-1.543-1.199-2.204-1.527
			c-0.314,0.045-0.547,0.082-0.697,0.111c0,0.57,0.128,1.013,0.383,1.326c3.029,3.766,4.543,6.008,4.543,6.727
			c0,0.045-0.014,0.105-0.045,0.18c-0.029,0.076-0.045,0.137-0.045,0.182c0,0.136,0.068,0.263,0.203,0.382h-0.383
			c-0.704,0-1.371-0.052-2.001-0.156c-2.235-2.354-3.606-3.771-4.116-4.252c-1.65-1.574-3.195-2.789-4.635-3.646
			c-1.094-0.658-1.822-0.988-2.182-0.988c-0.09,0-0.222,0.016-0.395,0.046c-0.173,0.028-0.304,0.045-0.395,0.045v0.629
			c0.944,1.08,1.883,2.151,2.812,3.218c1.245,1.561,1.867,2.752,1.867,3.575c0,0.405-0.277,0.772-0.833,1.103
			c-0.494,0.285-0.959,0.428-1.396,0.428c-0.959,0-2.354-0.809-4.184-2.43c-0.66-0.555-1.154-0.967-1.484-1.236
			c-0.914-0.855-1.59-1.508-2.023-1.957v-0.163H207.959z M215.337,32.787v-0.384c-0.646-0.209-1.004-0.313-1.08-0.313h-0.202
			C214.055,32.552,214.482,32.787,215.337,32.787z"/>
		<path d="M183.938,7.502l0.09-0.001l12.043,16.416c0.117,0.168,0.205,0.275,0.266,0.32c0-0.074,0.088-0.104,0.266-0.09
			c0-0.166-0.02-0.405-0.057-0.72c-0.037-0.315-0.057-0.556-0.057-0.721c0-0.914,0.584-1.372,1.754-1.372
			c2.369,0,4.695,0.99,6.975,2.969c2.369,2.04,3.553,4.229,3.553,6.569c0,1.769-0.615,2.653-1.844,2.653
			c-0.391,0-0.818-0.09-1.281-0.271c0.238,0.015,0.457,0.022,0.651,0.022c0.659,0,0.989-0.24,0.989-0.721
			c-0.09-0.015-0.225-0.019-0.404-0.011c-0.182,0.007-0.309,0.011-0.383,0.011c-0.359,0-0.812-0.123-1.361-0.371
			c-0.547-0.246-0.955-0.371-1.226-0.371c-0.601,0-1.574-0.613-2.925-1.844h-0.201c0,0.149,0.041,0.375,0.123,0.674
			c0.082,0.301,0.123,0.533,0.123,0.697c0,1.455-0.471,2.184-1.416,2.184c-0.18,0-0.375-0.062-0.586-0.182
			c0.496,0.016,0.742-0.156,0.742-0.517c0-0.166-0.104-0.271-0.314-0.315c-0.584-0.119-1.02-0.201-1.305-0.246
			c-0.719-0.33-1.26-0.586-1.619-0.767h-0.045c-0.795,0-1.694-0.524-2.699-1.574c-0.734-0.868-1.477-1.739-2.227-2.608h0.111
			c3.344,2.82,5.43,4.229,6.253,4.229c0.375,0,0.562-0.188,0.562-0.562c0-0.135-0.366-0.848-1.102-2.137
			c-0.6-1.063-1.042-1.859-1.326-2.385l-12.125-16.263V7.502H183.938z M197.434,23.608c0,0.375,0,0.668,0,0.877
			c-0.046,0.24-0.076,0.375-0.091,0.404c0.285,0.9,1.146,2.062,2.586,3.486c1.335,1.305,2.496,2.242,3.486,2.812
			c0.766,0.42,1.702,0.629,2.812,0.629c0.18-0.135,0.271-0.346,0.271-0.629c0-1.035-1.084-2.59-3.25-4.668
			c-2.168-2.076-3.769-3.116-4.804-3.116c-0.254,0-0.569,0.03-0.944,0.091c0.104-0.271,0.487-0.405,1.147-0.405
			c0.359,0,0.885,0.095,1.574,0.281c0.689,0.188,1.207,0.28,1.553,0.28c0-0.479-0.519-0.95-1.553-1.417
			c-0.9-0.389-1.65-0.584-2.25-0.584c-0.584,0-0.938,0.202-1.057,0.607c-0.045,0.134-0.068,0.584-0.068,1.349h0.588V23.608z
			 M198.604,33.235c0-0.045,0.036-0.075,0.11-0.09c0.031,0.015,0.045,0.053,0.045,0.112c-0.045,0.046-0.082,0.067-0.11,0.067
			c-0.031,0-0.045-0.021-0.045-0.067V33.235z M205.059,32.876l0.066,0.066c-0.03,0.045-0.066,0.074-0.112,0.09
			c-0.03-0.016-0.045-0.045-0.045-0.09C204.982,32.914,205.013,32.892,205.059,32.876z"/>
		<path d="M181.507,29.546c0.21,0.076,0.651,0.113,1.326,0.113v-0.227c-0.959-0.959-1.808-2.031-2.541-3.217
			c-0.211-0.345-0.315-0.757-0.315-1.236c0-0.164,0.195-0.621,0.586-1.373c0.493-0.943,0.816-1.507,0.967-1.687
			c0.404-0.465,0.981-0.697,1.731-0.697c1.261,0,2.546,0.349,3.856,1.046c1.312,0.697,2.32,1.571,3.025,2.621
			c0.945,1.381,1.65,2.422,2.115,3.127c-0.166-0.016-0.248,0.066-0.248,0.248c0,0.313,0.026,0.791,0.079,1.428
			c0.052,0.638,0.079,1.121,0.079,1.451c0,0.448-0.383,0.914-1.146,1.395c-0.586,0.375-1.192,0.562-1.822,0.562
			c-1.215,0-2.479-0.494-3.791-1.483c-1.312-0.99-1.938-1.485-1.879-1.485c-0.93,0-1.518-0.029-1.766-0.09
			c-0.246-0.061-0.76-0.309-1.539-0.743c-1.006-0.539-1.509-0.967-1.509-1.28C179.752,28.737,180.684,29.248,181.507,29.546z
			 M181.665,25.476c0.498,0.523,0.995,1.058,1.491,1.598c0.47,0.585,0.793,1.229,0.974,1.935c1.944,2.158,3.821,3.238,5.63,3.238
			l0.34-0.271c-0.015-0.06-0.015-0.148,0-0.27c0-0.12,0-0.203,0-0.248c0-1.289-0.938-2.872-2.812-4.746
			c-1.575-1.561-3.112-2.736-4.611-3.531l0.156-0.091c0.045-0.014,0.104-0.021,0.181-0.021c0.45,0,1.104,0.169,1.957,0.507
			s1.508,0.507,1.956,0.507v-0.315c-1.272-1.515-2.586-2.271-3.937-2.271c-0.766,0-1.252,0.367-1.461,1.103
			c-0.075,0.301-0.112,0.976-0.112,2.024C181.417,24.979,181.499,25.265,181.665,25.476z M187.917,32.673v-0.271h-0.404v0.271
			H187.917z"/>
		<path d="M158.901,27.207c1.063,0.886,2.137,1.765,3.216,2.633c1.515,1.14,2.669,1.709,3.464,1.709
			c0.346,0,0.519-0.188,0.519-0.562c0-0.479-0.705-1.562-2.115-3.25c-1.408-1.688-2.113-2.92-2.113-3.699
			c0-1.38,0.404-2.07,1.215-2.07c0.569,0,1.103,0.195,1.598,0.585c-0.149,0-0.364-0.052-0.643-0.158
			c-0.277-0.104-0.49-0.157-0.641-0.157c-0.449,0-0.675,0.145-0.675,0.429c0,0.21,0.053,0.368,0.156,0.473
			c0.347,0,0.84,0.116,1.484,0.349c0.646,0.232,1.141,0.35,1.484,0.35c0.181,0,0.264-0.091,0.247-0.271
			c0.54,0.301,1.463,1.051,2.768,2.25c1.185,1.11,2.047,1.77,2.587,1.979c0.15-0.045,0.255-0.082,0.313-0.112v-0.203
			c-1.334-1.873-2.002-3.179-2.002-3.914c0-1.062,0.458-1.597,1.373-1.597c0.569,0,1.244,0.248,2.023,0.742
			c-0.209,0-0.502-0.078-0.877-0.236c-0.375-0.157-0.666-0.236-0.877-0.236c-0.525,0-0.787,0.195-0.787,0.587
			c0,0.39,0.104,0.584,0.313,0.584c0.136,0,0.339-0.025,0.607-0.079c0.271-0.053,0.473-0.078,0.607-0.078
			c0.149,0,0.379,0.025,0.686,0.078c0.31,0.054,0.537,0.079,0.688,0.079l0.066-0.271l-0.112-0.157c0.314,0,2.114,1.643,5.398,4.926
			h-0.112c-0.271-0.238-0.479-0.42-0.63-0.539c-0.675-0.585-1.352-1.17-2.023-1.756c-0.812-0.688-1.545-1.199-2.205-1.527
			c-0.314,0.045-0.547,0.082-0.697,0.111c0,0.57,0.128,1.013,0.383,1.326c3.029,3.766,4.544,6.008,4.544,6.727
			c0,0.045-0.015,0.105-0.045,0.18c-0.03,0.076-0.046,0.137-0.046,0.182c0,0.136,0.068,0.263,0.203,0.382h-0.383
			c-0.705,0-1.371-0.052-2.002-0.156c-2.234-2.354-3.605-3.771-4.115-4.252c-1.65-1.574-3.195-2.789-4.635-3.646
			c-1.095-0.658-1.821-0.988-2.183-0.988c-0.09,0-0.221,0.016-0.393,0.046c-0.174,0.028-0.305,0.045-0.396,0.045v0.629
			c0.945,1.08,1.884,2.151,2.812,3.218c1.245,1.561,1.867,2.752,1.867,3.575c0,0.405-0.277,0.772-0.833,1.103
			c-0.494,0.285-0.959,0.428-1.395,0.428c-0.96,0-2.354-0.809-4.185-2.43c-0.659-0.555-1.154-0.967-1.484-1.236
			c-0.914-0.855-1.59-1.508-2.022-1.957v-0.163H158.901z M166.278,32.787v-0.384c-0.646-0.209-1.004-0.313-1.08-0.313h-0.202
			C164.996,32.552,165.424,32.787,166.278,32.787z"/>
	</g>
</g>
</svg>
