<?xml version="1.0" encoding="utf-8"?>
<!-- Generator: Adobe Illustrator 15.0.0, SVG Export Plug-In . SVG Version: 6.00 Build 0)  -->
<!DOCTYPE svg PUBLIC "-//W3C//DTD SVG 1.1//EN" "http://www.w3.org/Graphics/SVG/1.1/DTD/svg11.dtd">
<svg version="1.1" id="Layer_1" xmlns="http://www.w3.org/2000/svg" xmlns:xlink="http://www.w3.org/1999/xlink" x="0px" y="0px"
	 width="205px" height="85px" viewBox="0 0 205 85" enable-background="new 0 0 205 85" xml:space="preserve">
<g>
	<g>
		<path d="M90.968,8.883c0,0.527-0.049,1.325-0.145,2.393c-0.098,1.068-0.146,1.866-0.146,2.394c0,0.222,0.459,0.65,1.373,1.289
			c0.111,0.084,0.457,0.443,1.041,1.082c1.941,2.22,3.105,4.438,3.494,6.656c0.306,1.971,0.457,4.16,0.457,6.573
			c0,4.188-0.805,8.558-2.412,13.105c-0.11,0.276-0.526,1.082-1.248,2.414c-0.555,0.971-0.833,1.803-0.833,2.496
			c0,0.582,0.049,1.463,0.146,2.641c0.097,1.18,0.146,2.061,0.146,2.643c0,5.632-1.747,10.4-5.241,14.312
			c-3.635,4.049-8.225,6.074-13.771,6.074c-2.22,0-4.271-0.486-6.158-1.457l-5.698-2.953c-0.333-0.223-0.598-0.416-0.791-0.582
			c-2.856-2.441-4.285-6.686-4.285-12.732c-0.527,0-1.324,0.084-2.392,0.25s-1.88,0.25-2.435,0.25c-6.13,0-9.194-3.438-9.194-10.317
			c0-2.855,0.791-5.797,2.371-8.82h-0.208c-2.689,2.413-4.757,4.189-6.198,5.326c-6.186,4.771-10.887,8.293-14.104,10.565
			c-2.746,2.025-4.368,3.595-4.867,4.701c-0.999,2.164-1.498,5.299-1.498,9.404c0,4.076,0.847,7.613,2.538,10.607
			c2.08,3.635,4.992,5.451,8.736,5.451c4.577,0,8.308-1.969,11.191-5.908c2.606-3.578,3.91-7.738,3.91-12.48
			c0-2.969-0.609-5.422-1.83-7.365c-1.415-2.356-3.522-3.535-6.324-3.535c-3.217,0-5.823,1.429-7.82,4.285
			c-1.775,2.523-2.663,5.479-2.663,8.861c0,2.164,0.597,5.201,1.789,9.111c-0.915,0-1.636-1.346-2.163-4.035
			c-0.389-1.941-0.583-3.703-0.583-5.285c0-3.604,0.999-6.766,2.996-9.484c2.219-3.022,5.075-4.535,8.569-4.535
			c3.272,0,5.881,1.498,7.821,4.492c1.691,2.58,2.538,5.59,2.538,9.029c0,4.742-1.471,9.014-4.41,12.814
			c-3.162,4.076-7.045,6.115-11.648,6.115c-4.438,0-7.904-2.039-10.4-6.115c-2.081-3.439-3.121-7.545-3.121-12.316
			c0-1.191,0.14-2.703,0.416-4.533c0.389-2.387,0.61-3.883,0.666-4.494v-0.457c-8.376,5.408-13.896,8.113-16.559,8.113
			c-1.305,0-1.955-0.555-1.955-1.666c0-0.969,0.624-1.912,1.872-2.828l19.637-14.645l9.819-7.323
			c2.829-2.302,4.84-3.979,6.031-5.034l12.023-10.151c-0.277,0.361-0.513,0.624-0.707,0.791c-5.187,5.188-9.14,8.849-11.857,10.983
			c0,0.056-0.014,0.111-0.041,0.166c3.634-1.636,5.574-2.538,5.824-2.704c1.442-1.165,2.455-2.023,3.037-2.579l6.074-5.076v0.291
			l-4.701,5.201h0.291c0.472-0.222,0.999-0.484,1.581-0.791c2.606-3.384,3.911-5.117,3.911-5.2c0-0.193-0.098-0.291-0.291-0.291
			l4.203-4.118v0.208l-0.75,1.373v0.374c0.083,0,0.229-0.015,0.437-0.041c0.207-0.027,0.354-0.042,0.437-0.042
			c0.25,0,0.375,0.223,0.375,0.665c0,1.525-1.04,3.343-3.12,5.45c-3.19,3.219-5.118,5.298-5.783,6.24
			c-2.08,2.968-3.121,6.229-3.121,9.778c0,3.135,2.732,4.701,8.196,4.701c2.023,0,3.3-0.416,3.828-1.248
			c0.666-5.216,1.553-9.334,2.662-12.357l6.448-17.766c0.777-1.497,1.4-2.636,1.873-3.411c5.519-9.07,11.011-13.604,16.476-13.604
			C88.889,0.271,90.968,3.142,90.968,8.883z M90.968,49.156c-3.022,3.551-6.156,6.158-9.401,7.822
			c-1.775,4.742-4.119,8.141-7.031,10.192c-0.389,0.277-1.193,0.707-2.413,1.289c-1.055,0.474-1.816,0.931-2.288,1.373
			c1.554,0.916,3.508,1.373,5.866,1.373c4.632,0,8.487-1.914,11.565-5.742c2.885-3.575,4.326-7.737,4.326-12.479
			c0-1.58-0.098-2.926-0.291-4.035C91.161,49.004,91.051,49.074,90.968,49.156z M60.889,54.066v0.457
			c0,5.104,2.287,9.776,6.864,14.021h0.582c2.19,0,4.576-1.317,7.156-3.953c2.163-2.245,3.771-4.59,4.826-7.03h-0.416
			c-0.416,0-1.048,0.057-1.895,0.166c-0.846,0.11-1.49,0.168-1.935,0.168c-2.246,0-4.133-0.416-5.658-1.248
			c-1.108-0.64-2.606-1.9-4.493-3.787c-0.359-0.443-0.624-0.791-0.79-1.039h-0.5C62.136,53.262,60.889,54.012,60.889,54.066z
			 M57.539,58.852c-0.042,0.193-0.062,0.332-0.062,0.416c0,1.607,0.567,3.494,1.705,5.658c1.275,2.412,2.635,3.619,4.077,3.619
			c-3.135-3.578-5.033-6.977-5.699-10.193C57.587,58.49,57.58,58.656,57.539,58.852z M1.645,61.514
			c-0.39,0.389-0.651,0.707-0.791,0.957v0.207c0,0.25,0.264,0.375,0.791,0.375c0.638,0,1.512-0.25,2.621-0.748
			c1.83-0.889,4.658-2.469,8.486-4.744c4.326-2.604,6.894-4.367,7.696-5.283c0.666-1.108,1.151-2.012,1.456-2.704
			c1.221-2.107,2.469-3.884,3.745-5.324L1.645,61.514z M57.27,57.561c-0.141,0.027-0.194,0.084-0.167,0.166v0.084
			c0,0.195,0.084,0.291,0.25,0.291c0.083,0,0.125-0.067,0.125-0.207v-0.084c0-0.139-0.042-0.223-0.125-0.25H57.27z M77.614,40.545
			c-2.109,2.58-4.119,4.604-6.034,6.074c-3.771,2.885-5.658,4.451-5.658,4.701c2.523,2.938,5.783,4.41,9.777,4.41
			c2.801,0,4.541-0.242,5.221-0.729c0.681-0.483,1.366-1.905,2.061-4.265c0.416-1.637,0.832-3.272,1.248-4.909v0.5
			c0,1.414-0.526,4.021-1.58,7.819h0.124c1.025,0,2.621-1.012,4.785-3.037c2.163-2.022,3.244-3.521,3.244-4.491
			c0-3.855-2.553-8.142-7.653-12.856h-0.291C81.108,36.01,79.36,38.271,77.614,40.545z M44.455,49.447
			c0,0.916,0.416,1.664,1.248,2.248c0.832,0.582,1.72,0.873,2.663,0.873c-1.831-1.303-3.135-2.51-3.911-3.619V49.447z
			 M37.174,40.045c-5.354,3.273-9.264,6.311-11.731,9.111c0.139,0,2.163-1.482,6.074-4.451c3.909-2.968,5.963-4.617,6.156-4.951
			C37.452,39.893,37.285,39.989,37.174,40.045z M43.498,47.783v0.043c0,0.027,0.042,0.041,0.125,0.041h0.083
			c0.057,0,0.11-0.027,0.167-0.084v-0.041c-0.027-0.084-0.098-0.139-0.208-0.166C43.581,47.658,43.525,47.729,43.498,47.783z
			 M43.457,47.076v0.043c0,0.082,0.056,0.139,0.166,0.166h0.083c0.167,0,0.25-0.057,0.25-0.166v-0.043
			c0-0.082-0.083-0.139-0.25-0.166h-0.083C43.54,46.91,43.484,46.967,43.457,47.076z M60.598,46.619
			c0.776-0.193,1.399-0.389,1.873-0.582v-0.5c0,0.027-0.125-0.762-0.375-2.371c-0.39-2.414-0.582-4.244-0.582-5.492
			C60.901,40.365,60.598,43.346,60.598,46.619z M73.993,11.629c-2.272,2.719-4.285,5.658-6.031,8.82
			c-3.801,6.822-5.701,12.563-5.701,17.225c0,5.242,0.431,7.863,1.291,7.863c2.552-2.886,4.41-5.076,5.574-6.574
			c3.605-4.548,5.506-6.961,5.699-7.239c0.693-1.054,1.221-1.844,1.582-2.371v-0.291c-1.498-0.915-2.912-1.69-4.244-2.33
			c-1.082,1.831-1.442,4.342-1.082,7.53l-0.166,0.291l-0.291-0.499c0-0.249-0.021-0.604-0.062-1.061
			c-0.041-0.458-0.062-0.783-0.062-0.979c0-6.158,2.219-11.219,6.656-15.186c0.166-0.14,1.359-0.806,3.578-1.997
			c1.803-0.943,2.705-1.691,2.705-2.247v-4.7c0-0.333-0.119-0.77-0.354-1.311s-0.508-0.812-0.812-0.812
			C80.026,5.763,77.268,7.719,73.993,11.629z M83.938,31.891v0.624c3.522,3.578,6.227,7.821,8.112,12.731
			c2.83-3.468,4.244-8.834,4.244-16.103c0-6.185-1.608-10.747-4.826-13.688c-0.139-0.14-0.401-0.306-0.791-0.5h-0.166
			C89.014,21.088,86.821,26.73,83.938,31.891z M84.604,44.373v0.207c0,0.307-0.041,0.457-0.125,0.457h-0.041
			c-0.084-0.137-0.125-0.291-0.125-0.457v-0.125c0.026-0.359,0.098-0.541,0.209-0.541C84.575,44.082,84.604,44.234,84.604,44.373z
			 M84.812,40.627v1.582c0,0.084-0.029,0.139-0.084,0.166c-0.14-0.109-0.207-0.375-0.207-0.791v-0.416
			c0-0.416,0.067-0.691,0.207-0.832C84.782,40.393,84.812,40.49,84.812,40.627z M71.081,40.836c0.166,0,0.361-0.099,0.582-0.291
			c3.635-2.996,6.422-5.937,8.363-8.821v-0.208c0-0.275-0.264-0.575-0.791-0.895c-0.527-0.318-0.957-0.479-1.289-0.479
			C76.255,33.333,73.966,36.896,71.081,40.836z M38.172,39.213v0.083c0,0.083,0.083,0.14,0.25,0.167h0.083
			c0.166-0.027,0.249-0.084,0.249-0.167v-0.083c0-0.083-0.083-0.139-0.249-0.166h-0.083C38.255,39.074,38.172,39.13,38.172,39.213z
			 M83.646,14.666c-0.914,4.188-2.551,8.89-4.908,14.104c0.914,0.915,1.76,1.373,2.537,1.373c1.719-2.023,3.301-4.549,4.742-7.572
			c1.608-3.411,2.414-6.24,2.414-8.486l-1.082-0.042C85.296,14.015,84.062,14.223,83.646,14.666z M49.947,29.353l0.582-0.291
			l1.248-2.039C50.557,27.938,49.947,28.715,49.947,29.353z M53.462,24.797c-1.29,1.596-2.005,2.85-2.143,3.766
			c2.022-1.554,3.591-3.022,4.701-4.41c0.388-0.472,0.582-1.054,0.582-1.748C55.798,22.403,54.751,23.202,53.462,24.797z
			 M74.243,22.32c-1.025,1.775-1.553,2.815-1.58,3.12c1.803,1.082,3.203,1.873,4.201,2.372h0.5c0.305-0.359,0.498-0.666,0.582-0.915
			c1.775-2.939,3.217-5.907,4.326-8.903c0.389-1.055,0.584-2.163,0.584-3.328C79.473,15.638,76.602,18.188,74.243,22.32z
			 M83.542,6.865c0.265,0.568,0.396,1.006,0.396,1.311v5.201h0.291c0.473,0,1.201-0.049,2.186-0.146
			c0.984-0.097,1.728-0.146,2.226-0.146V8.343c0-0.5-0.265-1.089-0.789-1.769c-0.527-0.681-1.027-1.021-1.498-1.021h-3.203
			C83.147,5.859,83.278,6.297,83.542,6.865z M78.612,5.43l-0.291,0.167c-1.277,1.055-2.178,1.914-2.705,2.579
			c0.971-0.582,2.273-1.553,3.91-2.912h-0.207C79.069,5.264,78.833,5.318,78.612,5.43z"/>
	</g>
	<g>
		<path d="M198.86,8.883c0,0.527-0.049,1.325-0.146,2.393c-0.098,1.068-0.146,1.866-0.146,2.394c0,0.222,0.459,0.65,1.373,1.289
			c0.111,0.084,0.457,0.443,1.041,1.082c1.94,2.22,3.104,4.438,3.494,6.656c0.305,1.971,0.457,4.16,0.457,6.573
			c0,4.188-0.806,8.558-2.412,13.105c-0.111,0.276-0.527,1.082-1.248,2.414c-0.556,0.971-0.834,1.803-0.834,2.496
			c0,0.582,0.049,1.463,0.146,2.641c0.098,1.18,0.146,2.061,0.146,2.643c0,5.632-1.748,10.4-5.242,14.312
			c-3.635,4.049-8.224,6.074-13.771,6.074c-2.221,0-4.271-0.486-6.158-1.457l-5.699-2.953c-0.333-0.223-0.597-0.416-0.791-0.582
			c-2.856-2.441-4.285-6.686-4.285-12.732c-0.527,0-1.324,0.084-2.391,0.25c-1.068,0.166-1.881,0.25-2.437,0.25
			c-6.129,0-9.193-3.438-9.193-10.317c0-2.855,0.791-5.797,2.371-8.82h-0.208c-2.69,2.413-4.758,4.189-6.198,5.326
			c-6.187,4.771-10.887,8.293-14.104,10.565c-2.746,2.025-4.368,3.595-4.867,4.701c-0.998,2.164-1.497,5.299-1.497,9.404
			c0,4.076,0.847,7.613,2.537,10.607c2.08,3.635,4.992,5.451,8.736,5.451c4.577,0,8.309-1.969,11.192-5.908
			c2.605-3.578,3.91-7.738,3.91-12.48c0-2.969-0.61-5.422-1.83-7.365c-1.415-2.356-3.523-3.535-6.324-3.535
			c-3.217,0-5.824,1.429-7.821,4.285c-1.774,2.523-2.663,5.479-2.663,8.861c0,2.164,0.598,5.201,1.789,9.111
			c-0.915,0-1.636-1.346-2.163-4.035c-0.389-1.941-0.583-3.703-0.583-5.285c0-3.604,0.999-6.766,2.996-9.484
			c2.219-3.022,5.075-4.535,8.57-4.535c3.271,0,5.88,1.498,7.821,4.492c1.69,2.58,2.537,5.59,2.537,9.029
			c0,4.742-1.471,9.014-4.409,12.814c-3.162,4.076-7.045,6.115-11.649,6.115c-4.438,0-7.904-2.039-10.4-6.115
			c-2.08-3.439-3.12-7.545-3.12-12.316c0-1.191,0.14-2.703,0.416-4.533c0.389-2.387,0.609-3.883,0.666-4.494v-0.457
			c-8.376,5.408-13.896,8.113-16.56,8.113c-1.304,0-1.955-0.555-1.955-1.666c0-0.969,0.624-1.912,1.872-2.828l19.637-14.645
			l9.819-7.323c2.829-2.302,4.84-3.979,6.032-5.034l12.022-10.151c-0.276,0.361-0.513,0.624-0.707,0.791
			c-5.187,5.188-9.14,8.849-11.856,10.983c0,0.056-0.014,0.111-0.041,0.166c3.633-1.636,5.574-2.538,5.824-2.704
			c1.441-1.165,2.455-2.023,3.037-2.579l6.073-5.076v0.291l-4.701,5.201h0.291c0.473-0.222,0.999-0.484,1.581-0.791
			c2.606-3.384,3.911-5.117,3.911-5.2c0-0.193-0.098-0.291-0.291-0.291l4.203-4.118v0.208l-0.75,1.373v0.374
			c0.084,0,0.229-0.015,0.438-0.041c0.207-0.027,0.354-0.042,0.436-0.042c0.25,0,0.375,0.223,0.375,0.665
			c0,1.525-1.039,3.343-3.119,5.45c-3.19,3.219-5.119,5.298-5.784,6.24c-2.079,2.968-3.12,6.229-3.12,9.778
			c0,3.135,2.731,4.701,8.195,4.701c2.025,0,3.301-0.416,3.828-1.248c0.666-5.216,1.553-9.334,2.662-12.357l6.449-17.766
			c0.776-1.497,1.399-2.636,1.873-3.411c5.518-9.07,11.01-13.604,16.475-13.604C196.78,0.271,198.86,3.142,198.86,8.883z
			 M198.86,49.156c-3.023,3.551-6.157,6.158-9.402,7.822c-1.775,4.742-4.119,8.141-7.031,10.192
			c-0.389,0.277-1.192,0.707-2.412,1.289c-1.056,0.474-1.817,0.931-2.288,1.373c1.553,0.916,3.508,1.373,5.865,1.373
			c4.632,0,8.487-1.914,11.565-5.742c2.885-3.575,4.326-7.737,4.326-12.479c0-1.58-0.098-2.926-0.291-4.035
			C199.054,49.004,198.942,49.074,198.86,49.156z M168.78,54.066v0.457c0,5.104,2.288,9.776,6.865,14.021h0.582
			c2.189,0,4.576-1.317,7.155-3.953c2.163-2.245,3.771-4.59,4.826-7.03h-0.416c-0.416,0-1.048,0.057-1.894,0.166
			c-0.846,0.11-1.491,0.168-1.936,0.168c-2.246,0-4.133-0.416-5.657-1.248c-1.109-0.64-2.607-1.9-4.493-3.787
			c-0.36-0.443-0.624-0.791-0.79-1.039h-0.5C170.028,53.262,168.78,54.012,168.78,54.066z M165.433,58.852
			c-0.042,0.193-0.062,0.332-0.062,0.416c0,1.607,0.568,3.494,1.705,5.658c1.276,2.412,2.635,3.619,4.078,3.619
			c-3.135-3.578-5.034-6.977-5.7-10.193C165.48,58.49,165.474,58.656,165.433,58.852z M109.537,61.514
			c-0.389,0.389-0.651,0.707-0.791,0.957v0.207c0,0.25,0.264,0.375,0.791,0.375c0.638,0,1.512-0.25,2.621-0.748
			c1.83-0.889,4.659-2.469,8.487-4.744c4.326-2.604,6.893-4.367,7.695-5.283c0.666-1.108,1.151-2.012,1.456-2.704
			c1.222-2.107,2.47-3.884,3.745-5.324L109.537,61.514z M165.161,57.561c-0.14,0.027-0.194,0.084-0.167,0.166v0.084
			c0,0.195,0.084,0.291,0.25,0.291c0.083,0,0.125-0.067,0.125-0.207v-0.084c0-0.139-0.042-0.223-0.125-0.25H165.161z
			 M185.507,40.545c-2.108,2.58-4.118,4.604-6.033,6.074c-3.772,2.885-5.658,4.451-5.658,4.701c2.522,2.938,5.783,4.41,9.776,4.41
			c2.802,0,4.541-0.242,5.222-0.729c0.68-0.483,1.365-1.905,2.06-4.265c0.416-1.637,0.832-3.272,1.248-4.909v0.5
			c0,1.414-0.526,4.021-1.58,7.819h0.124c1.025,0,2.621-1.012,4.785-3.037c2.162-2.022,3.244-3.521,3.244-4.491
			c0-3.855-2.553-8.142-7.653-12.856h-0.291C189.001,36.01,187.253,38.271,185.507,40.545z M152.348,49.447
			c0,0.916,0.416,1.664,1.248,2.248c0.831,0.582,1.72,0.873,2.662,0.873c-1.831-1.303-3.135-2.51-3.91-3.619V49.447z
			 M145.067,40.045c-5.354,3.273-9.264,6.311-11.732,9.111c0.14,0,2.163-1.482,6.074-4.451c3.91-2.968,5.963-4.617,6.157-4.951
			C145.344,39.893,145.177,39.989,145.067,40.045z M151.391,47.783v0.043c0,0.027,0.042,0.041,0.125,0.041h0.083
			c0.056,0,0.109-0.027,0.167-0.084v-0.041c-0.028-0.084-0.099-0.139-0.208-0.166C151.474,47.658,151.417,47.729,151.391,47.783z
			 M151.35,47.076v0.043c0,0.082,0.055,0.139,0.166,0.166h0.083c0.167,0,0.25-0.057,0.25-0.166v-0.043
			c0-0.082-0.083-0.139-0.25-0.166h-0.083C151.433,46.91,151.376,46.967,151.35,47.076z M168.489,46.619
			c0.777-0.193,1.4-0.389,1.873-0.582v-0.5c0,0.027-0.125-0.762-0.375-2.371c-0.389-2.414-0.582-4.244-0.582-5.492
			C168.794,40.365,168.489,43.346,168.489,46.619z M181.887,11.629c-2.273,2.719-4.285,5.658-6.031,8.82
			c-3.801,6.822-5.701,12.563-5.701,17.225c0,5.242,0.43,7.863,1.291,7.863c2.551-2.886,4.41-5.076,5.574-6.574
			c3.604-4.548,5.506-6.961,5.698-7.239c0.693-1.054,1.222-1.844,1.582-2.371v-0.291c-1.498-0.915-2.911-1.69-4.243-2.33
			c-1.082,1.831-1.443,4.342-1.082,7.53l-0.166,0.291l-0.291-0.499c0-0.249-0.021-0.604-0.062-1.061
			c-0.041-0.458-0.062-0.783-0.062-0.979c0-6.158,2.219-11.219,6.655-15.186c0.166-0.14,1.359-0.806,3.578-1.997
			c1.804-0.943,2.705-1.691,2.705-2.247v-4.7c0-0.333-0.119-0.77-0.354-1.311s-0.508-0.812-0.812-0.812
			C187.919,5.763,185.159,7.719,181.887,11.629z M191.829,31.891v0.624c3.523,3.578,6.227,7.821,8.113,12.731
			c2.83-3.468,4.244-8.834,4.244-16.103c0-6.185-1.609-10.747-4.826-13.688c-0.139-0.14-0.402-0.306-0.791-0.5h-0.166
			C196.905,21.088,194.714,26.73,191.829,31.891z M192.495,44.373v0.207c0,0.307-0.041,0.457-0.125,0.457h-0.041
			c-0.084-0.137-0.125-0.291-0.125-0.457v-0.125c0.027-0.359,0.098-0.541,0.209-0.541C192.468,44.082,192.495,44.234,192.495,44.373
			z M192.704,40.627v1.582c0,0.084-0.029,0.139-0.084,0.166c-0.139-0.109-0.207-0.375-0.207-0.791v-0.416
			c0-0.416,0.068-0.691,0.207-0.832C192.675,40.393,192.704,40.49,192.704,40.627z M178.975,40.836c0.166,0,0.36-0.099,0.582-0.291
			c3.635-2.996,6.422-5.937,8.362-8.821v-0.208c0-0.275-0.264-0.575-0.791-0.895c-0.526-0.318-0.957-0.479-1.289-0.479
			C184.147,33.333,181.858,36.896,178.975,40.836z M146.065,39.213v0.083c0,0.083,0.083,0.14,0.25,0.167h0.083
			c0.166-0.027,0.249-0.084,0.249-0.167v-0.083c0-0.083-0.083-0.139-0.249-0.166h-0.083
			C146.148,39.074,146.065,39.13,146.065,39.213z M191.538,14.666c-0.914,4.188-2.551,8.89-4.908,14.104
			c0.914,0.915,1.76,1.373,2.537,1.373c1.719-2.023,3.301-4.549,4.742-7.572c1.609-3.411,2.414-6.24,2.414-8.486l-1.082-0.042
			C193.188,14.015,191.954,14.223,191.538,14.666z M157.839,29.353l0.582-0.291l1.248-2.039
			C158.448,27.938,157.839,28.715,157.839,29.353z M161.354,24.797c-1.289,1.596-2.004,2.85-2.144,3.766
			c2.023-1.554,3.593-3.022,4.701-4.41c0.389-0.472,0.582-1.054,0.582-1.748C163.69,22.403,162.645,23.202,161.354,24.797z
			 M182.137,22.32c-1.025,1.775-1.554,2.815-1.58,3.12c1.803,1.082,3.202,1.873,4.2,2.372h0.5c0.306-0.359,0.498-0.666,0.582-0.915
			c1.775-2.939,3.217-5.907,4.326-8.903c0.389-1.055,0.584-2.163,0.584-3.328C187.364,15.638,184.493,18.188,182.137,22.32z
			 M191.435,6.865c0.265,0.568,0.396,1.006,0.396,1.311v5.201h0.291c0.473,0,1.2-0.049,2.187-0.146
			c0.983-0.097,1.727-0.146,2.225-0.146V8.343c0-0.5-0.264-1.089-0.789-1.769c-0.527-0.681-1.027-1.021-1.498-1.021h-3.203
			C191.04,5.859,191.171,6.297,191.435,6.865z M186.505,5.43l-0.291,0.167c-1.276,1.055-2.178,1.914-2.705,2.579
			c0.972-0.582,2.273-1.553,3.91-2.912h-0.207C186.962,5.264,186.727,5.318,186.505,5.43z"/>
	</g>
</g>
</svg>
