<svg xmlns="http://www.w3.org/2000/svg" xmlns:xlink="http://www.w3.org/1999/xlink" width="1284.0200000000002" height="81.00000000000001"><path fill="#000000" transform="scale(-1,1) translate(-1281.0200000000002,0)" stroke="#000000" stroke-width="0.5" d="M87.05 41.06L87.52 42.57Q84.67 43.40 81.70 44.25Q78.73 45.09 75.85 45.81Q72.97 46.53 70.27 47.07Q67.57 47.61 65.27 47.83L65.27 47.83Q65.09 47.86 64.94 47.86Q64.80 47.86 64.62 47.86L64.62 47.86Q63.36 47.86 62.15 47.40Q60.95 46.93 60.01 46.10L60.01 46.10Q59.51 45.63 59.09 45.04Q58.68 44.44 58.57 43.83L58.57 43.83Q58.39 44.19 58.14 44.52Q57.89 44.84 57.60 45.13L57.60 45.13Q56.23 46.39 54.40 47.13Q52.56 47.86 50.69 47.86L50.69 47.86Q48.53 47.86 47.07 46.86Q45.61 45.85 45.14 44.08L45.14 44.08Q44.71 42.46 45.05 40.88Q45.40 39.30 46.44 37.78L46.44 37.78Q46.69 37.42 47.09 37.05Q47.48 36.67 47.93 36.31Q48.38 35.95 48.89 35.64Q49.39 35.34 49.86 35.12L49.86 35.12Q46.04 35.52 42.26 36.22Q38.48 36.92 34.76 37.84Q31.03 38.76 27.38 39.80Q23.72 40.84 20.23 41.89L20.23 41.89Q19.66 42.07 19.10 42.23Q18.54 42.39 17.96 42.57L17.96 42.57L17.50 41.06Q18.11 40.88 18.67 40.72Q19.22 40.56 19.80 40.38L19.80 40.38Q23.94 39.15 28.01 38Q32.08 36.85 36.25 35.91Q40.43 34.98 44.78 34.35Q49.14 33.72 53.86 33.54L53.86 33.54L54.29 33.54Q56.66 33.54 58.21 34.76L58.21 34.76Q59.54 35.80 59.98 37.53L59.98 37.53L60.88 37.75Q60.80 37.93 60.75 38.14Q60.70 38.36 60.62 38.61L60.62 38.61Q60.37 39.37 60.12 40.36Q59.87 41.35 59.87 42.39L59.87 42.39Q59.87 43.33 60.26 43.94Q60.66 44.55 61.06 44.95L61.06 44.95Q61.85 45.67 62.95 46.03Q64.04 46.39 65.09 46.28L65.09 46.28Q67.36 46.06 70.02 45.52Q72.68 44.98 75.53 44.26Q78.37 43.54 81.31 42.72Q84.24 41.89 87.05 41.06L87.05 41.06ZM56.52 43.98L56.52 43.98Q58.03 42.50 58.50 40.52L58.50 40.52Q58.50 40.45 58.52 40.39Q58.54 40.34 58.54 40.27L58.54 40.27Q58.64 39.55 58.61 38.97L58.61 38.97Q58.54 37.03 57.24 35.98L57.24 35.98Q56.16 35.12 54.29 35.12L54.29 35.12Q52.45 35.12 50.87 35.91L50.87 35.91Q50.33 36.20 49.46 36.87Q48.60 37.53 47.84 38.52Q47.09 39.51 46.67 40.83Q46.26 42.14 46.66 43.65L46.66 43.65Q46.87 44.52 47.39 45.04Q47.92 45.56 48.53 45.83Q49.14 46.10 49.72 46.17Q50.29 46.24 50.69 46.24L50.69 46.24Q52.27 46.24 53.82 45.63Q55.37 45.02 56.52 43.98ZM128.92 47.94L128.92 47.94Q127.84 47.94 126.72 47.68Q125.60 47.43 124.60 46.93Q123.59 46.42 122.76 45.65Q121.93 44.88 121.43 43.83L121.43 43.83Q120.89 42.64 120.67 41.11Q120.46 39.58 120.49 37.80Q120.53 36.02 120.74 34.08Q120.96 32.13 121.28 30.12L121.28 30.12Q118.80 31.56 116.17 32.60Q113.54 33.64 110.59 34.69L110.59 34.69Q109.40 35.12 108.16 35.57Q106.92 36.02 105.59 36.52L105.59 36.52Q103.68 37.28 101.48 38.05Q99.29 38.83 96.97 39.62Q94.64 40.41 92.25 41.17Q89.86 41.92 87.55 42.61L87.55 42.61L87.08 41.10Q89.39 40.41 91.76 39.67Q94.14 38.94 96.46 38.14Q98.78 37.35 100.96 36.58Q103.14 35.80 105.05 35.05L105.05 35.05Q106.34 34.54 107.60 34.09Q108.86 33.64 110.05 33.21L110.05 33.21Q113.29 32.06 116.14 30.89Q118.98 29.72 121.61 28.03L121.61 28.03Q121.93 26.34 122.44 24.19Q122.94 22.05 123.61 19.77Q124.27 17.48 125.08 15.21Q125.89 12.94 126.81 10.96Q127.73 8.98 128.77 7.49Q129.82 6.00 130.93 5.24L130.93 5.24Q131.69 4.74 132.26 4.81Q132.84 4.88 133.13 5.02L133.13 5.02Q133.85 5.42 134.24 6.39Q134.64 7.36 134.64 8.73L134.64 8.73Q134.64 12.84 133.34 16.33Q132.05 19.82 129.24 23.20L129.24 23.20Q127.73 25.04 126.20 26.44Q124.67 27.85 123.05 28.96L123.05 28.96Q123.01 29.14 122.99 29.32Q122.98 29.50 122.94 29.68L122.94 29.68Q122.72 30.94 122.47 32.73Q122.22 34.51 122.11 36.42Q122.00 38.32 122.15 40.12Q122.29 41.92 122.87 43.15L122.87 43.15Q123.30 44.05 124.06 44.70Q124.81 45.34 125.75 45.74Q126.68 46.14 127.71 46.28Q128.74 46.42 129.67 46.32L129.67 46.32Q131.29 46.17 133.42 45.87Q135.54 45.56 137.97 45.15Q140.40 44.73 142.96 44.25Q145.51 43.76 147.98 43.24Q150.44 42.72 152.69 42.16Q154.94 41.60 156.74 41.10L156.74 41.10L157.21 42.61Q155.41 43.15 153.13 43.69Q150.84 44.23 148.34 44.77Q145.84 45.31 143.24 45.79Q140.65 46.28 138.20 46.69Q135.76 47.11 133.60 47.41Q131.44 47.72 129.82 47.90L129.82 47.90Q129.60 47.90 129.38 47.92Q129.17 47.94 128.92 47.94ZM132.23 6.39L132.23 6.39Q132.08 6.39 131.83 6.57L131.83 6.57Q131.00 7.11 130.18 8.28Q129.35 9.45 128.54 11.04Q127.73 12.62 127.01 14.55Q126.29 16.47 125.62 18.52Q124.96 20.58 124.42 22.66Q123.88 24.75 123.48 26.70L123.48 26.70Q124.63 25.76 125.77 24.66Q126.90 23.56 128.02 22.20L128.02 22.20Q130.64 19.03 131.87 15.79Q133.09 12.55 133.09 8.73L133.09 8.73Q133.09 7.80 132.88 7.18Q132.66 6.57 132.37 6.43L132.37 6.43Q132.34 6.39 132.23 6.39ZM226.40 40.99L226.84 42.50Q221.44 44.12 215.77 45.25Q210.10 46.39 204.77 46.96L204.77 46.96Q201.06 47.36 197.62 47.58Q194.18 47.79 190.98 47.79L190.98 47.79L189.90 47.79Q187.78 47.76 186.34 46.77Q184.90 45.78 184.43 44.01L184.43 44.01Q184.03 42.39 184.37 40.81Q184.72 39.22 185.76 37.71L185.76 37.71Q186.26 36.99 186.84 36.42Q187.42 35.84 187.99 35.41L187.99 35.41Q184.18 35.80 180.58 36.45Q176.98 37.10 173.47 37.95Q169.96 38.79 166.50 39.80Q163.04 40.81 159.52 41.85L159.52 41.85L157.25 42.50L156.78 40.99Q157.39 40.81 157.95 40.66Q158.51 40.52 159.08 40.34L159.08 40.34Q163.22 39.12 167.29 37.96Q171.36 36.81 175.54 35.88Q179.71 34.94 184.07 34.31Q188.42 33.68 193.14 33.50L193.14 33.50Q194.36 33.43 195.50 33.70Q196.63 33.97 197.53 34.69L197.53 34.69Q198.32 35.30 198.95 36.40Q199.58 37.50 199.55 38.68L199.55 38.68Q199.48 40.27 198.11 41.28L198.11 41.28Q197.06 41.96 195.70 42.14Q194.33 42.32 193.00 42.39L193.00 42.39Q192.49 42.43 192.04 42.45Q191.59 42.46 191.20 42.54L191.20 42.54Q191.02 42.57 190.84 42.59Q190.66 42.61 190.48 42.64L190.48 42.64Q189.90 42.72 189.27 42.81Q188.64 42.90 188.05 43.04Q187.45 43.18 186.95 43.42Q186.44 43.65 186.08 43.98L186.08 43.98Q186.34 44.70 186.80 45.13Q187.27 45.56 187.83 45.81Q188.39 46.06 188.95 46.14Q189.50 46.21 189.94 46.21L189.94 46.21Q193.25 46.24 196.97 46.05Q200.70 45.85 204.62 45.42L204.62 45.42Q209.88 44.84 215.46 43.71Q221.04 42.57 226.40 40.99L226.40 40.99ZM190.15 35.88L190.15 35.88Q189.68 36.09 188.93 36.65Q188.17 37.21 187.47 38.04Q186.77 38.86 186.28 39.93Q185.80 40.99 185.80 42.25L185.80 42.25Q186.73 41.67 187.94 41.46Q189.14 41.24 190.26 41.06L190.26 41.06Q190.44 41.06 190.62 41.04Q190.80 41.02 190.98 40.99L190.98 40.99Q191.41 40.92 191.90 40.88Q192.38 40.84 192.92 40.81L192.92 40.81Q194.08 40.74 195.26 40.59Q196.45 40.45 197.21 39.94L197.21 39.94Q197.96 39.48 198.00 38.61L198.00 38.61Q198.04 37.96 197.62 37.21Q197.21 36.45 196.56 35.91L196.56 35.91Q195.41 35.05 193.57 35.05L193.57 35.05Q192.67 35.05 191.84 35.26Q191.02 35.48 190.15 35.88ZM296.10 41.06L296.53 42.57Q293.54 43.44 290.54 44.30Q287.53 45.16 284.67 45.87Q281.81 46.57 279.16 47.09Q276.52 47.61 274.25 47.83L274.25 47.83L274.21 47.83Q272.95 47.94 271.94 47.94L271.94 47.94Q269.89 47.94 268.51 47.63Q267.12 47.32 266.15 46.69Q265.18 46.06 264.53 45.13Q263.88 44.19 263.34 42.93L263.34 42.93Q263.27 42.75 263.20 42.59Q263.12 42.43 263.05 42.25L263.05 42.25Q262.33 43.51 261.61 44.64Q260.89 45.78 260.10 46.57L260.10 46.57Q258.70 47.97 257.08 47.97L257.08 47.97Q256.18 47.97 255.28 47.54L255.28 47.54L255.96 46.10Q256.82 46.50 257.56 46.32Q258.30 46.14 259.00 45.45Q259.70 44.77 260.41 43.62Q261.11 42.46 261.97 40.95L261.97 40.95Q262.04 40.81 262.13 40.68Q262.22 40.56 262.30 40.38L262.30 40.38Q262.04 39.66 261.86 39.10Q261.68 38.54 261.50 38.11L261.50 38.11Q260.82 36.56 259.54 35.77Q258.26 34.98 256.46 35.19L256.46 35.19Q253.15 35.52 250.24 36.06Q247.32 36.60 244.57 37.28Q241.81 37.96 239.13 38.77Q236.45 39.58 233.60 40.48L233.60 40.48Q231.98 40.99 230.31 41.51Q228.64 42.03 226.84 42.57L226.84 42.57L226.37 41.06Q228.17 40.52 229.84 40.00Q231.52 39.48 233.14 38.97L233.14 38.97Q235.87 38.11 238.57 37.28Q241.27 36.45 244.08 35.75Q246.89 35.05 249.91 34.49Q252.94 33.93 256.28 33.61L256.28 33.61Q258.62 33.32 260.44 34.42Q262.26 35.52 262.98 37.60L262.98 37.60Q263.05 37.82 263.14 38.11Q263.23 38.40 263.30 38.68L263.30 38.68Q263.48 38.29 263.75 37.75Q264.02 37.21 264.35 36.67L264.35 36.67Q264.78 35.95 265.32 35.35Q265.86 34.76 266.60 34.35Q267.34 33.93 268.36 33.73Q269.39 33.54 270.83 33.57L270.83 33.57L270.79 35.16Q269.35 35.08 268.43 35.32Q267.52 35.55 266.90 36.04Q266.29 36.52 265.82 37.28Q265.36 38.04 264.85 39.01L264.85 39.01Q264.67 39.40 264.47 39.73Q264.28 40.05 264.02 40.52L264.02 40.52Q264.20 40.92 264.37 41.35Q264.53 41.78 264.78 42.28L264.78 42.28Q265.28 43.44 265.88 44.26Q266.47 45.09 267.46 45.60Q268.45 46.10 270.04 46.28Q271.62 46.46 274.10 46.28L274.10 46.28Q276.34 46.06 278.95 45.54Q281.56 45.02 284.38 44.32Q287.21 43.62 290.18 42.77Q293.15 41.92 296.10 41.06L296.10 41.06ZM365.58 41.06L366.05 42.57Q363.20 43.40 360.23 44.25Q357.26 45.09 354.38 45.81Q351.50 46.53 348.80 47.07Q346.10 47.61 343.80 47.83L343.80 47.83Q343.62 47.86 343.48 47.86Q343.33 47.86 343.15 47.86L343.15 47.86Q341.89 47.86 340.69 47.40Q339.48 46.93 338.54 46.10L338.54 46.10Q338.04 45.63 337.63 45.04Q337.21 44.44 337.10 43.83L337.10 43.83Q336.92 44.19 336.67 44.52Q336.42 44.84 336.13 45.13L336.13 45.13Q334.76 46.39 332.93 47.13Q331.09 47.86 329.22 47.86L329.22 47.86Q327.06 47.86 325.60 46.86Q324.14 45.85 323.68 44.08L323.68 44.08Q323.24 42.46 323.59 40.88Q323.93 39.30 324.97 37.78L324.97 37.78Q325.22 37.42 325.62 37.05Q326.02 36.67 326.47 36.31Q326.92 35.95 327.42 35.64Q327.92 35.34 328.39 35.12L328.39 35.12Q324.58 35.52 320.80 36.22Q317.02 36.92 313.29 37.84Q309.56 38.76 305.91 39.80Q302.26 40.84 298.76 41.89L298.76 41.89Q298.19 42.07 297.63 42.23Q297.07 42.39 296.50 42.57L296.50 42.57L296.03 41.06Q296.64 40.88 297.20 40.72Q297.76 40.56 298.33 40.38L298.33 40.38Q302.47 39.15 306.54 38Q310.61 36.85 314.78 35.91Q318.96 34.98 323.32 34.35Q327.67 33.72 332.39 33.54L332.39 33.54L332.82 33.54Q335.20 33.54 336.74 34.76L336.74 34.76Q338.08 35.80 338.51 37.53L338.51 37.53L339.41 37.75Q339.34 37.93 339.28 38.14Q339.23 38.36 339.16 38.61L339.16 38.61Q338.90 39.37 338.65 40.36Q338.40 41.35 338.40 42.39L338.40 42.39Q338.40 43.33 338.80 43.94Q339.19 44.55 339.59 44.95L339.59 44.95Q340.38 45.67 341.48 46.03Q342.58 46.39 343.62 46.28L343.62 46.28Q345.89 46.06 348.55 45.52Q351.22 44.98 354.06 44.26Q356.90 43.54 359.84 42.72Q362.77 41.89 365.58 41.06L365.58 41.06ZM335.05 43.98L335.05 43.98Q336.56 42.50 337.03 40.52L337.03 40.52Q337.03 40.45 337.05 40.39Q337.07 40.34 337.07 40.27L337.07 40.27Q337.18 39.55 337.14 38.97L337.14 38.97Q337.07 37.03 335.77 35.98L335.77 35.98Q334.69 35.12 332.82 35.12L332.82 35.12Q330.98 35.12 329.40 35.91L329.40 35.91Q328.86 36.20 328.00 36.87Q327.13 37.53 326.38 38.52Q325.62 39.51 325.21 40.83Q324.79 42.14 325.19 43.65L325.19 43.65Q325.40 44.52 325.93 45.04Q326.45 45.56 327.06 45.83Q327.67 46.10 328.25 46.17Q328.82 46.24 329.22 46.24L329.22 46.24Q330.80 46.24 332.35 45.63Q333.90 45.02 335.05 43.98ZM449.57 41.10L450.00 42.61Q447.16 43.44 444.19 44.28Q441.22 45.13 438.34 45.85Q435.46 46.57 432.74 47.11Q430.02 47.65 427.72 47.90L427.72 47.90L427.10 47.90Q425.92 47.90 424.73 47.47Q423.54 47.04 422.64 46.24L422.64 46.24Q420.84 44.73 420.73 42.46L420.73 42.46Q420.73 42.10 420.71 41.33Q420.70 40.56 420.73 39.40L420.73 39.40Q420.77 38.32 420.41 37.44Q420.05 36.56 419.33 36.02L419.33 36.02Q418.28 35.16 415.98 35.16L415.98 35.16L415.94 35.16Q413.93 35.16 412.58 35.73Q411.23 36.31 410.33 37.28Q409.43 38.25 408.83 39.55Q408.24 40.84 407.77 42.32L407.77 42.32Q407.56 43.08 407.29 43.87Q407.02 44.66 406.75 45.36Q406.48 46.06 406.24 46.62Q406.01 47.18 405.86 47.47L405.86 47.47L404.46 46.82Q404.71 46.28 405.11 45.27Q405.50 44.26 405.88 43.15Q406.26 42.03 406.53 41.01Q406.80 39.98 406.80 39.40L406.80 39.40Q406.84 38.32 406.48 37.44Q406.12 36.56 405.40 36.02L405.40 36.02Q404.82 35.55 403.96 35.32Q403.09 35.08 402.05 35.16L402.05 35.16Q397.40 35.34 393.07 35.97Q388.73 36.60 384.57 37.51Q380.41 38.43 376.36 39.58Q372.31 40.74 368.17 41.96L368.17 41.96Q367.63 42.14 367.09 42.28Q366.55 42.43 366.05 42.61L366.05 42.61L365.58 41.10Q366.12 40.92 366.66 40.77Q367.20 40.63 367.74 40.48L367.74 40.48Q371.92 39.26 376.00 38.09Q380.09 36.92 384.28 35.98Q388.48 35.05 392.87 34.40Q397.26 33.75 402.01 33.57L402.01 33.57Q403.31 33.50 404.44 33.82Q405.58 34.15 406.37 34.76L406.37 34.76Q407.70 35.80 408.13 37.53L408.13 37.53Q408.60 36.81 409.10 36.27L409.10 36.27Q411.59 33.54 415.94 33.54L415.94 33.54L415.98 33.54Q416.95 33.54 418.16 33.79Q419.36 34.04 420.30 34.76L420.30 34.76Q421.31 35.55 421.83 36.78Q422.35 38 422.32 39.44L422.32 39.44Q422.24 41.67 422.32 42.39L422.32 42.39Q422.35 43.36 422.78 44.01Q423.22 44.66 423.65 45.06L423.65 45.06Q424.44 45.74 425.48 46.08Q426.53 46.42 427.54 46.32L427.54 46.32Q429.80 46.10 432.47 45.56Q435.13 45.02 437.99 44.30Q440.86 43.58 443.81 42.75Q446.76 41.92 449.57 41.10L449.57 41.10ZM519.12 41.06L519.59 42.54Q517.72 43.08 515.25 43.65Q512.78 44.23 510.05 44.77Q507.31 45.31 504.47 45.79Q501.62 46.28 499.01 46.68Q496.40 47.07 494.19 47.38Q491.98 47.68 490.46 47.83L490.46 47.83Q489.56 47.83 488.68 47.59Q487.80 47.36 486.94 46.60L486.94 46.60Q486.11 45.81 485.55 44.70Q484.99 43.58 484.85 42.32L484.85 42.32Q484.45 43.04 483.95 43.76Q483.44 44.48 482.83 45.09L482.83 45.09Q481.46 46.35 479.63 47.11Q477.79 47.86 475.92 47.86L475.92 47.86Q473.76 47.86 472.28 46.86Q470.81 45.85 470.34 44.05L470.34 44.05Q469.94 42.43 470.29 40.84Q470.63 39.26 471.67 37.75L471.67 37.75Q472.18 37.06 472.90 36.45Q473.62 35.84 474.37 35.34L474.37 35.34Q472.14 35.62 470.16 36.04Q468.18 36.45 466.34 36.99Q464.51 37.53 462.74 38.16Q460.98 38.79 459.22 39.44L459.22 39.44Q457.24 40.16 454.99 40.95Q452.74 41.74 450.00 42.54L450.00 42.54L449.57 41.06Q452.27 40.23 454.45 39.48Q456.62 38.72 458.68 37.96L458.68 37.96Q461.12 37.06 463.63 36.25Q466.13 35.44 468.72 34.85Q471.31 34.26 473.99 33.90Q476.68 33.54 479.52 33.54L479.52 33.54Q481.93 33.54 483.44 34.72L483.44 34.72Q484.06 35.23 484.52 36.04Q484.99 36.85 485.21 37.68L485.21 37.68Q485.60 34.98 486.13 32.35Q486.65 29.72 487.19 27.02L487.19 27.02Q487.58 25.15 488.07 22.99Q488.56 20.83 489.11 18.65Q489.67 16.47 490.32 14.37Q490.97 12.26 491.74 10.48Q492.52 8.70 493.40 7.35Q494.28 6.00 495.29 5.31L495.29 5.31Q496.04 4.81 496.60 4.86Q497.16 4.92 497.45 5.10L497.45 5.10Q498.17 5.49 498.58 6.45Q499.00 7.40 499.00 8.77L499.00 8.77Q499.00 9.60 498.65 10.95Q498.31 12.30 497.77 13.93Q497.23 15.57 496.55 17.35Q495.86 19.14 495.16 20.85Q494.46 22.56 493.79 24.07Q493.13 25.58 492.66 26.62L492.66 26.62Q491.04 30.15 489.47 33.43Q487.91 36.70 486.54 39.26L486.54 39.26Q486.47 39.94 486.41 40.48Q486.36 41.02 486.36 41.42L486.36 41.42Q486.36 42.18 486.61 43.08Q486.86 43.98 487.37 44.70Q487.87 45.42 488.61 45.88Q489.35 46.35 490.32 46.24L490.32 46.24Q491.80 46.10 493.99 45.81Q496.19 45.52 498.78 45.13Q501.37 44.73 504.18 44.25Q506.99 43.76 509.69 43.24Q512.39 42.72 514.84 42.16Q517.28 41.60 519.12 41.06L519.12 41.06ZM488.74 27.34L488.74 27.34Q488.34 29.40 487.84 31.43Q487.33 33.46 486.94 35.62L486.94 35.62Q488.02 33.28 489.20 30.62Q490.39 27.96 491.56 25.24Q492.73 22.52 493.79 19.91Q494.86 17.30 495.65 15.10Q496.44 12.91 496.93 11.25Q497.41 9.60 497.41 8.77L497.41 8.77Q497.41 8.52 497.38 8.05Q497.34 7.58 497.21 7.20Q497.09 6.82 496.84 6.61Q496.58 6.39 496.15 6.61L496.15 6.61Q495.25 7.22 494.46 8.50Q493.67 9.78 492.97 11.52Q492.26 13.27 491.65 15.30Q491.04 17.34 490.52 19.44Q490.00 21.55 489.55 23.60Q489.10 25.65 488.74 27.34ZM481.75 43.94L481.75 43.94Q482.47 43.22 483.03 42.18Q483.59 41.13 483.79 40.02Q483.98 38.90 483.71 37.82Q483.44 36.74 482.47 35.95L482.47 35.95Q481.32 35.08 479.52 35.08L479.52 35.08Q477.65 35.08 476.06 35.91L476.06 35.91Q475.52 36.20 474.66 36.87Q473.80 37.53 473.04 38.52Q472.28 39.51 471.87 40.83Q471.46 42.14 471.85 43.65L471.85 43.65Q472.07 44.52 472.59 45.04Q473.11 45.56 473.72 45.83Q474.34 46.10 474.93 46.17Q475.52 46.24 475.92 46.24L475.92 46.24Q477.50 46.24 479.05 45.63Q480.60 45.02 481.75 43.94ZM567.68 47.94L567.68 47.94Q566.96 47.94 566.01 47.85Q565.06 47.76 564.03 47.49Q563.00 47.22 562.00 46.73Q560.99 46.24 560.20 45.42L560.20 45.42Q557.86 43.15 558.25 39.15L558.25 39.15Q558.32 38.29 558.52 37.17Q558.72 36.06 558.94 35.12L558.94 35.12L552.17 35.16Q551.12 35.41 549.40 35.77Q547.67 36.13 545.40 36.60L545.40 36.60Q542.77 37.14 539.55 37.80Q536.33 38.47 532.93 39.24Q529.52 40.02 526.10 40.86Q522.68 41.71 519.62 42.61L519.62 42.61L519.16 41.10Q522.22 40.20 525.67 39.33Q529.13 38.47 532.55 37.69Q535.97 36.92 539.21 36.25Q542.45 35.59 545.11 35.05L545.11 35.05Q547.42 34.58 549.16 34.22Q550.91 33.86 551.88 33.61L551.88 33.61L551.95 33.57L560.95 33.54L560.70 34.54Q560.59 34.90 560.47 35.48Q560.34 36.06 560.21 36.72Q560.09 37.39 559.98 38.05Q559.87 38.72 559.84 39.30L559.84 39.30Q559.51 42.54 561.31 44.30L561.31 44.30Q562.21 45.24 563.45 45.67Q564.70 46.10 565.87 46.24Q567.04 46.39 567.90 46.35Q568.76 46.32 568.98 46.32L568.98 46.32Q572.40 45.96 576.00 44.95Q579.60 43.94 583.42 42.72L583.42 42.72Q584.71 42.32 586.04 41.91Q587.38 41.49 588.74 41.10L588.74 41.10L589.18 42.61Q586.48 43.44 583.88 44.23L583.88 44.23Q580.00 45.45 576.34 46.48Q572.69 47.50 569.12 47.86L569.12 47.86Q568.94 47.90 568.57 47.92Q568.19 47.94 567.68 47.94ZM658.22 41.06L658.69 42.57Q655.85 43.40 652.88 44.25Q649.91 45.09 647.03 45.81Q644.15 46.53 641.45 47.07Q638.75 47.61 636.44 47.83L636.44 47.83Q636.26 47.86 636.12 47.86Q635.98 47.86 635.80 47.86L635.80 47.86Q634.54 47.86 633.33 47.40Q632.12 46.93 631.19 46.10L631.19 46.10Q630.68 45.63 630.27 45.04Q629.86 44.44 629.75 43.83L629.75 43.83Q629.57 44.19 629.32 44.52Q629.06 44.84 628.78 45.13L628.78 45.13Q627.41 46.39 625.57 47.13Q623.74 47.86 621.86 47.86L621.86 47.86Q619.70 47.86 618.25 46.86Q616.79 45.85 616.32 44.08L616.32 44.08Q615.89 42.46 616.23 40.88Q616.57 39.30 617.62 37.78L617.62 37.78Q617.87 37.42 618.26 37.05Q618.66 36.67 619.11 36.31Q619.56 35.95 620.06 35.64Q620.57 35.34 621.04 35.12L621.04 35.12Q617.22 35.52 613.44 36.22Q609.66 36.92 605.93 37.84Q602.21 38.76 598.55 39.80Q594.90 40.84 591.41 41.89L591.41 41.89Q590.83 42.07 590.27 42.23Q589.72 42.39 589.14 42.57L589.14 42.57L588.67 41.06Q589.28 40.88 589.84 40.72Q590.40 40.56 590.98 40.38L590.98 40.38Q595.12 39.15 599.18 38Q603.25 36.85 607.43 35.91Q611.60 34.98 615.96 34.35Q620.32 33.72 625.03 33.54L625.03 33.54L625.46 33.54Q627.84 33.54 629.39 34.76L629.39 34.76Q630.72 35.80 631.15 37.53L631.15 37.53L632.05 37.75Q631.98 37.93 631.93 38.14Q631.87 38.36 631.80 38.61L631.80 38.61Q631.55 39.37 631.30 40.36Q631.04 41.35 631.04 42.39L631.04 42.39Q631.04 43.33 631.44 43.94Q631.84 44.55 632.23 44.95L632.23 44.95Q633.02 45.67 634.12 46.03Q635.22 46.39 636.26 46.28L636.26 46.28Q638.53 46.06 641.20 45.52Q643.86 44.98 646.70 44.26Q649.55 43.54 652.48 42.72Q655.42 41.89 658.22 41.06L658.22 41.06ZM627.70 43.98L627.70 43.98Q629.21 42.50 629.68 40.52L629.68 40.52Q629.68 40.45 629.69 40.39Q629.71 40.34 629.71 40.27L629.71 40.27Q629.82 39.55 629.78 38.97L629.78 38.97Q629.71 37.03 628.42 35.98L628.42 35.98Q627.34 35.12 625.46 35.12L625.46 35.12Q623.63 35.12 622.04 35.91L622.04 35.91Q621.50 36.20 620.64 36.87Q619.78 37.53 619.02 38.52Q618.26 39.51 617.85 40.83Q617.44 42.14 617.83 43.65L617.83 43.65Q618.05 44.52 618.57 45.04Q619.09 45.56 619.70 45.83Q620.32 46.10 620.89 46.17Q621.47 46.24 621.86 46.24L621.86 46.24Q623.45 46.24 625.00 45.63Q626.54 45.02 627.70 43.98ZM709.49 47.83L709.49 47.83Q707.44 47.83 705.96 46.89L705.96 46.89Q705.49 46.60 705.02 46.14Q704.56 45.67 704.20 44.98Q703.84 44.30 703.64 43.36Q703.44 42.43 703.55 41.20L703.55 41.20Q703.66 39.76 703.82 38.56Q703.98 37.35 704.18 36.27Q704.38 35.19 704.59 34.20Q704.81 33.21 705.06 32.17L705.06 32.17Q705.13 31.81 705.22 31.43Q705.31 31.05 705.42 30.66L705.42 30.66Q703.15 32.28 700.45 33.79Q697.75 35.30 694.69 36.49L694.69 36.49Q692.78 37.24 690.59 38.02Q688.39 38.79 686.07 39.58Q683.75 40.38 681.35 41.13Q678.96 41.89 676.66 42.57L676.66 42.57L676.22 41.06Q678.53 40.38 680.89 39.64Q683.24 38.90 685.57 38.11Q687.89 37.32 690.07 36.54Q692.24 35.77 694.15 35.01L694.15 35.01Q697.64 33.64 700.60 31.90Q703.55 30.15 705.92 28.32L705.92 28.32Q706.46 26.01 707.08 23.60Q707.69 21.19 708.39 18.85Q709.09 16.51 709.87 14.35Q710.64 12.19 711.49 10.39Q712.33 8.59 713.27 7.26Q714.20 5.92 715.18 5.28L715.18 5.28Q715.93 4.77 716.49 4.83Q717.05 4.88 717.34 5.02L717.34 5.02Q718.06 5.42 718.47 6.39Q718.88 7.36 718.88 8.73L718.88 8.73Q718.88 10.57 718.58 12.28Q718.27 13.99 717.62 15.73Q716.98 17.48 715.97 19.30Q714.96 21.12 713.52 23.13L713.52 23.13Q712.69 24.28 711.14 25.89Q709.60 27.49 707.36 29.22L707.36 29.22Q707.22 29.72 707.11 30.17Q707.00 30.62 706.93 30.98L706.93 30.98Q706.86 31.38 706.77 31.75Q706.68 32.13 706.61 32.53L706.61 32.53Q706.36 33.54 706.14 34.51Q705.92 35.48 705.73 36.52Q705.53 37.57 705.38 38.74Q705.24 39.91 705.13 41.31L705.13 41.31Q704.92 44.34 706.79 45.56L706.79 45.56Q707.44 45.96 708.25 46.12Q709.06 46.28 709.96 46.23Q710.86 46.17 711.81 45.88Q712.76 45.60 713.63 45.09L713.63 45.09Q715.14 44.23 715.97 42.93Q716.80 41.64 717.21 40.23Q717.62 38.83 717.71 37.50Q717.80 36.16 717.84 35.23L717.84 35.23Q717.88 34.90 717.88 34.65Q717.88 34.40 717.91 34.18L717.91 34.18L719.39 33.93Q719.68 34.47 720.43 35.35Q721.19 36.24 722.16 37.15Q723.13 38.07 724.16 38.92Q725.18 39.76 726.01 40.30L726.01 40.30Q733.00 44.62 745.81 41.06L745.81 41.06L746.24 42.57Q739.37 44.52 733.93 44.23L733.93 44.23Q728.86 43.90 725.18 41.64L725.18 41.64Q724.54 41.20 723.76 40.61Q722.99 40.02 722.21 39.33Q721.44 38.65 720.70 37.93Q719.96 37.21 719.39 36.52L719.39 36.52Q719.32 37.60 719.12 38.95Q718.92 40.30 718.38 41.69Q717.84 43.08 716.90 44.34Q715.97 45.60 714.42 46.46L714.42 46.46Q712.01 47.83 709.49 47.83ZM716.47 6.39L716.47 6.39Q716.33 6.39 716.04 6.57L716.04 6.57Q715.61 6.86 715.03 7.53Q714.46 8.19 713.75 9.43Q713.05 10.68 712.26 12.58Q711.47 14.49 710.57 17.23L710.57 17.23Q709.78 19.68 709.11 22.14Q708.44 24.61 707.94 26.70L707.94 26.70Q709.45 25.40 710.53 24.25Q711.61 23.10 712.22 22.23L712.22 22.23Q713.59 20.29 714.56 18.58Q715.54 16.87 716.15 15.25Q716.76 13.63 717.03 12.03Q717.30 10.42 717.30 8.73L717.30 8.73Q717.30 7.80 717.08 7.18Q716.87 6.57 716.62 6.43L716.62 6.43Q716.58 6.39 716.47 6.39ZM794.34 47.94L794.34 47.94Q793.62 47.94 792.67 47.85Q791.71 47.76 790.69 47.49Q789.66 47.22 788.65 46.73Q787.64 46.24 786.85 45.42L786.85 45.42Q784.51 43.15 784.91 39.15L784.91 39.15Q784.98 38.29 785.18 37.17Q785.38 36.06 785.59 35.12L785.59 35.12L778.82 35.16Q777.78 35.41 776.05 35.77Q774.32 36.13 772.06 36.60L772.06 36.60Q769.43 37.14 766.21 37.80Q762.98 38.47 759.58 39.24Q756.18 40.02 752.76 40.86Q749.34 41.71 746.28 42.61L746.28 42.61L745.81 41.10Q748.87 40.20 752.33 39.33Q755.78 38.47 759.20 37.69Q762.62 36.92 765.86 36.25Q769.10 35.59 771.77 35.05L771.77 35.05Q774.07 34.58 775.82 34.22Q777.56 33.86 778.54 33.61L778.54 33.61L778.61 33.57L787.61 33.54L787.36 34.54Q787.25 34.90 787.12 35.48Q787.00 36.06 786.87 36.72Q786.74 37.39 786.64 38.05Q786.53 38.72 786.49 39.30L786.49 39.30Q786.17 42.54 787.97 44.30L787.97 44.30Q788.87 45.24 790.11 45.67Q791.35 46.10 792.52 46.24Q793.69 46.39 794.56 46.35Q795.42 46.32 795.64 46.32L795.64 46.32Q799.06 45.96 802.66 44.95Q806.26 43.94 810.07 42.72L810.07 42.72Q811.37 42.32 812.70 41.91Q814.03 41.49 815.40 41.10L815.40 41.10L815.83 42.61Q813.13 43.44 810.54 44.23L810.54 44.23Q806.65 45.45 803.00 46.48Q799.34 47.50 795.78 47.86L795.78 47.86Q795.60 47.90 795.22 47.92Q794.84 47.94 794.34 47.94ZM885.02 41.06L885.46 42.57Q883.01 43.29 880.34 43.85Q877.68 44.41 874.87 44.79Q872.06 45.16 869.22 45.36Q866.38 45.56 863.57 45.56L863.57 45.56Q859.00 45.56 856.04 44.59L856.04 44.59Q855.94 44.73 855.81 44.88Q855.68 45.02 855.50 45.16L855.50 45.16Q854.17 46.42 852.32 47.16Q850.46 47.90 848.59 47.90L848.59 47.90Q846.43 47.90 844.97 46.89Q843.52 45.88 843.05 44.12L843.05 44.12Q842.62 42.50 842.96 40.90Q843.30 39.30 844.34 37.78L844.34 37.78Q844.60 37.42 845.01 37.03Q845.42 36.63 845.91 36.27Q846.40 35.91 846.88 35.62Q847.37 35.34 847.76 35.16L847.76 35.16Q843.95 35.55 840.17 36.25Q836.39 36.96 832.66 37.87Q828.94 38.79 825.28 39.84Q821.63 40.88 818.10 41.92L818.10 41.92L815.83 42.57L815.36 41.10Q815.98 40.92 816.53 40.75Q817.09 40.59 817.67 40.41L817.67 40.41Q821.81 39.19 825.86 38.04Q829.91 36.88 834.03 35.95Q838.15 35.01 842.49 34.38Q846.83 33.75 851.54 33.57L851.54 33.57L852.19 33.57Q854.64 33.57 856.12 34.76L856.12 34.76Q857.05 35.48 857.54 36.56Q858.02 37.64 858.10 38.94L858.10 38.94Q858.17 40.05 857.88 41.15Q857.59 42.25 857.02 43.26L857.02 43.26Q859.72 43.98 863.57 43.98L863.57 43.98Q866.30 43.98 869.11 43.78Q871.92 43.58 874.66 43.22Q877.39 42.86 880.02 42.32Q882.65 41.78 885.02 41.06L885.02 41.06ZM852.52 38.68L852.52 38.68Q852.52 41.35 855.50 42.68L855.50 42.68Q856.62 40.99 856.55 39.01L856.55 39.01Q856.51 38.29 856.31 37.71Q856.12 37.14 855.79 36.67L855.79 36.67Q855.58 36.45 854.98 36.25Q854.39 36.06 853.78 36.34L853.78 36.34Q853.34 36.56 852.93 37.10Q852.52 37.64 852.52 38.68ZM848.59 46.28L848.59 46.28Q850.18 46.28 851.72 45.67Q853.27 45.06 854.42 43.98L854.42 43.98Q854.46 43.98 854.46 43.94L854.46 43.94Q850.93 42.18 850.93 38.68L850.93 38.68Q850.93 38.07 851.13 37.48Q851.33 36.88 851.71 36.40Q852.08 35.91 852.62 35.62Q853.16 35.34 853.81 35.34L853.81 35.34Q853.34 35.23 852.86 35.17Q852.37 35.12 852.19 35.12L852.19 35.12Q850.36 35.12 848.77 35.95L848.77 35.95Q848.23 36.24 847.37 36.90Q846.50 37.57 845.75 38.56Q844.99 39.55 844.58 40.86Q844.16 42.18 844.56 43.69L844.56 43.69Q844.78 44.55 845.30 45.07Q845.82 45.60 846.43 45.87Q847.04 46.14 847.62 46.21Q848.20 46.28 848.59 46.28ZM954.61 41.10L955.04 42.61Q953.14 43.04 950.78 43.56Q948.42 44.08 945.85 44.62Q943.27 45.16 940.61 45.70Q937.94 46.24 935.44 46.69Q932.94 47.14 930.71 47.47Q928.48 47.79 926.82 47.94L926.82 47.94Q925.74 48.04 924.62 47.79Q923.51 47.54 922.50 47.02Q921.49 46.50 920.66 45.69Q919.84 44.88 919.33 43.83L919.33 43.83Q918.79 42.64 918.58 41.11Q918.36 39.58 918.38 37.80Q918.40 36.02 918.61 34.08Q918.83 32.13 919.15 30.12L919.15 30.12Q915.12 32.06 911.02 33.72Q906.91 35.37 902.70 36.87Q898.49 38.36 894.19 39.76Q889.88 41.17 885.49 42.61L885.49 42.61L885.02 41.10Q889.20 39.69 893.63 38.27Q898.06 36.85 902.50 35.28Q906.95 33.72 911.25 31.93Q915.55 30.15 919.51 28.03L919.51 28.03Q919.76 26.77 920.09 25.26Q920.41 23.74 920.84 22.09L920.84 22.09Q919.58 21.84 918.20 21.57Q916.81 21.30 915.35 21.10Q913.90 20.90 912.44 20.79Q910.98 20.68 909.65 20.76L909.65 20.76Q909.32 20.76 908.73 20.81Q908.14 20.86 907.43 21.01Q906.73 21.15 906.01 21.44Q905.29 21.73 904.72 22.23L904.72 22.23L903.71 21.04Q904.46 20.40 905.33 20.04Q906.19 19.68 907.00 19.48Q907.81 19.28 908.51 19.23Q909.22 19.17 909.61 19.17L909.61 19.17Q912.46 19.10 915.37 19.55Q918.29 20.00 921.28 20.54L921.28 20.54Q921.92 18.20 922.75 15.81Q923.58 13.41 924.53 11.34Q925.49 9.27 926.57 7.67Q927.65 6.07 928.80 5.31L928.80 5.31Q929.56 4.81 930.13 4.86Q930.71 4.92 931.00 5.06L931.00 5.06Q931.72 5.46 932.11 6.43Q932.51 7.40 932.51 8.77L932.51 8.77Q932.51 12.55 931.45 15.73Q930.38 18.92 928.04 22.05L928.04 22.05Q929.66 22.41 931.32 22.66Q932.98 22.92 934.76 23.01Q936.54 23.10 938.48 22.95Q940.43 22.81 942.59 22.38L942.59 22.38L942.91 23.92Q941.08 24.28 939.42 24.45Q937.76 24.61 936.22 24.61L936.22 24.61Q933.62 24.61 931.36 24.27Q929.09 23.92 926.93 23.46L926.93 23.46Q925.45 25.22 923.98 26.57Q922.50 27.92 920.92 29.00L920.92 29.00Q920.66 30.30 920.38 32.19Q920.09 34.08 919.96 36.07Q919.84 38.07 919.98 39.96Q920.12 41.85 920.74 43.15L920.74 43.15Q921.17 44.05 921.92 44.70Q922.68 45.34 923.62 45.74Q924.55 46.14 925.58 46.28Q926.60 46.42 927.54 46.32L927.54 46.32Q929.16 46.17 931.28 45.87Q933.41 45.56 935.84 45.15Q938.27 44.73 940.82 44.25Q943.38 43.76 945.85 43.24Q948.31 42.72 950.56 42.18Q952.81 41.64 954.61 41.10L954.61 41.10ZM929.70 6.61L929.70 6.61Q928.76 7.26 927.81 8.68Q926.86 10.10 925.97 12.03Q925.09 13.95 924.28 16.24Q923.47 18.52 922.79 20.90L922.79 20.90Q923.65 21.08 924.53 21.28Q925.42 21.48 926.35 21.69L926.35 21.69Q928.73 18.63 929.84 15.54Q930.96 12.44 930.96 8.77L930.96 8.77Q930.96 7.83 930.74 7.22Q930.53 6.61 930.24 6.46L930.24 6.46Q930.20 6.43 930.13 6.43L930.13 6.43Q929.95 6.43 929.70 6.61ZM925.20 23.06L925.20 23.06Q924.52 22.92 923.83 22.74Q923.15 22.56 922.39 22.41L922.39 22.41Q922.10 23.53 921.85 24.59Q921.60 25.65 921.38 26.70L921.38 26.70Q922.36 25.94 923.31 25.02Q924.26 24.10 925.20 23.06ZM988.16 76.27L988.16 76.27Q986.44 75.08 986.62 69.68L986.62 69.68Q986.65 68.67 986.76 67.57Q986.87 66.48 987.03 65.43Q987.19 64.39 987.41 63.42Q987.62 62.44 987.88 61.65L987.88 61.65Q989.03 57.94 990.50 55.62Q991.98 53.30 993.82 51.79L993.82 51.79Q993.31 50.20 992.50 48.82Q991.69 47.43 990.40 46.68L990.40 46.68Q989.03 45.92 987.25 46.15Q985.46 46.39 983.56 47.76L983.56 47.76L982.62 46.50Q982.66 46.50 982.85 46.30Q983.05 46.10 983.36 45.79Q983.66 45.49 984.01 45.15Q984.35 44.80 984.67 44.48L984.67 44.48Q985.32 43.80 986.11 42.99Q986.90 42.18 987.79 41.28Q988.67 40.38 989.60 39.48Q990.54 38.58 991.44 37.75L991.44 37.75Q991.73 37.46 992.02 37.21Q992.30 36.96 992.59 36.70L992.59 36.70Q992.34 36.60 992.12 36.47Q991.91 36.34 991.69 36.24L991.69 36.24Q990.90 35.80 990.25 35.52L990.25 35.52Q989.75 35.34 989.08 35.21Q988.42 35.08 987.55 35.05L987.55 35.05Q984.96 34.94 981.74 35.46Q978.52 35.98 974.99 36.85Q971.46 37.71 967.75 38.81Q964.04 39.91 960.48 40.99L960.48 40.99Q959.04 41.42 957.71 41.82Q956.38 42.21 955.08 42.61L955.08 42.61L954.65 41.10Q955.91 40.70 957.24 40.30Q958.57 39.91 960.01 39.48L960.01 39.48Q963.61 38.36 967.36 37.24Q971.10 36.13 974.72 35.26Q978.34 34.40 981.63 33.90Q984.92 33.39 987.59 33.50L987.59 33.50Q989.57 33.54 990.83 34.04L990.83 34.04Q991.22 34.22 991.64 34.44Q992.05 34.65 992.45 34.83L992.45 34.83Q992.81 35.05 993.17 35.23Q993.53 35.41 993.89 35.59L993.89 35.59Q995.47 34.29 996.25 33.93Q997.02 33.57 997.42 33.57L997.42 33.57Q997.92 33.61 998.26 33.84Q998.60 34.08 998.77 34.44Q998.93 34.80 998.93 35.19Q998.93 35.59 998.78 35.91L998.78 35.91Q998.60 36.34 998.21 36.67Q997.81 36.99 997.33 37.19Q996.84 37.39 996.34 37.48Q995.83 37.57 995.47 37.57L995.47 37.57Q994.86 37.57 994.21 37.35L994.21 37.35Q993.82 37.71 993.38 38.09Q992.95 38.47 992.45 38.97L992.45 38.97Q991.69 39.69 990.86 40.48Q990.04 41.28 989.21 42.10Q988.38 42.93 987.61 43.71Q986.83 44.48 986.18 45.13L986.18 45.13Q987.52 44.55 988.87 44.66Q990.22 44.77 991.15 45.31L991.15 45.31Q993.78 46.82 995.15 50.82L995.15 50.82Q996.37 49.99 997.69 49.38Q999.00 48.76 1000.40 48.22L1000.40 48.22Q1004.08 46.75 1008.16 45.58Q1012.25 44.41 1016.39 43.29L1016.39 43.29Q1018.37 42.75 1020.37 42.21Q1022.36 41.67 1024.31 41.10L1024.31 41.10L1024.74 42.61Q1022.80 43.18 1020.78 43.74Q1018.76 44.30 1016.82 44.80L1016.82 44.80Q1012.54 45.96 1008.58 47.11Q1004.62 48.26 1001.02 49.66L1001.02 49.66Q999.50 50.28 998.15 50.91Q996.80 51.54 995.62 52.40L995.62 52.40Q995.87 53.44 996.05 54.74L996.05 54.74Q996.23 56.11 996.30 57.57Q996.37 59.02 996.32 60.52Q996.26 62.01 996.10 63.47Q995.94 64.93 995.65 66.26L995.65 66.26Q995.36 67.56 995.04 68.91Q994.72 70.26 994.19 71.55Q993.67 72.85 992.90 74Q992.12 75.15 990.97 76.02L990.97 76.02Q990.36 76.48 989.55 76.63Q988.74 76.77 988.16 76.27ZM994.28 53.34L994.28 53.34Q992.81 54.70 991.58 56.83Q990.36 58.95 989.39 62.12L989.39 62.12Q989.17 62.88 988.97 63.79Q988.78 64.71 988.61 65.70Q988.45 66.69 988.34 67.74Q988.24 68.78 988.20 69.75L988.20 69.75Q988.09 72.27 988.40 73.50Q988.70 74.72 989.06 75.01L989.06 75.01Q989.24 75.12 989.53 75.12Q989.82 75.12 990.04 74.94L990.04 74.94Q991.01 74.22 991.67 73.15Q992.34 72.09 992.81 70.89Q993.28 69.68 993.56 68.40Q993.85 67.12 994.10 65.94L994.10 65.94Q994.32 64.96 994.48 63.70Q994.64 62.44 994.72 61.00Q994.79 59.56 994.73 58.03Q994.68 56.50 994.46 54.96L994.46 54.96Q994.43 54.60 994.39 54.16Q994.36 53.73 994.28 53.34ZM997.67 34.98L997.67 34.98Q997.52 34.87 997.29 34.94Q997.06 35.01 996.75 35.17Q996.44 35.34 996.14 35.55Q995.83 35.77 995.58 35.95L995.58 35.95Q995.72 35.95 996.14 35.91Q996.55 35.88 996.93 35.77Q997.31 35.66 997.56 35.46Q997.81 35.26 997.67 34.98ZM1122.08 41.10L1122.55 42.61Q1119.71 43.44 1116.74 44.28Q1113.77 45.13 1110.89 45.85Q1108.01 46.57 1105.29 47.11Q1102.57 47.65 1100.27 47.86L1100.27 47.86Q1100.09 47.90 1099.96 47.90Q1099.84 47.90 1099.66 47.90L1099.66 47.90Q1098.47 47.90 1097.28 47.47Q1096.09 47.04 1095.19 46.24L1095.19 46.24Q1093.39 44.70 1093.32 42.46L1093.32 42.46Q1093.28 42.10 1093.27 41.33Q1093.25 40.56 1093.28 39.40L1093.28 39.40Q1093.32 38.32 1092.98 37.44Q1092.64 36.56 1091.92 35.98L1091.92 35.98Q1090.76 35.12 1088.53 35.12L1088.53 35.12Q1086.52 35.12 1085.20 35.68Q1083.89 36.24 1083.01 37.19Q1082.12 38.14 1081.57 39.42Q1081.01 40.70 1080.54 42.18L1080.54 42.18Q1080.32 42.93 1080.02 43.74Q1079.71 44.55 1079.41 45.29Q1079.10 46.03 1078.85 46.60Q1078.60 47.18 1078.45 47.47L1078.45 47.47L1077.05 46.82Q1077.48 45.92 1078.09 44.44Q1078.70 42.97 1079.06 41.40Q1079.42 39.84 1079.26 38.38Q1079.10 36.92 1077.98 35.98L1077.98 35.98Q1076.83 35.12 1074.60 35.12L1074.60 35.12Q1072.58 35.12 1071.27 35.68Q1069.96 36.24 1069.09 37.17Q1068.23 38.11 1067.67 39.40Q1067.11 40.70 1066.64 42.14L1066.64 42.14Q1066.43 42.90 1066.12 43.72Q1065.82 44.55 1065.51 45.27Q1065.20 45.99 1064.93 46.59Q1064.66 47.18 1064.52 47.47L1064.52 47.47L1063.12 46.82Q1063.48 46.03 1063.85 45.09Q1064.23 44.16 1064.57 43.17Q1064.92 42.18 1065.15 41.20Q1065.38 40.23 1065.46 39.40L1065.46 39.40Q1065.53 38.32 1065.15 37.44Q1064.77 36.56 1064.05 36.02L1064.05 36.02Q1063.48 35.55 1062.61 35.32Q1061.75 35.08 1060.70 35.16L1060.70 35.16Q1056.06 35.34 1051.74 35.97Q1047.42 36.60 1043.26 37.51Q1039.10 38.43 1035.05 39.58Q1031.00 40.74 1026.86 41.96L1026.86 41.96Q1026.32 42.14 1025.78 42.28Q1025.24 42.43 1024.74 42.61L1024.74 42.61L1024.27 41.10Q1024.81 40.92 1025.35 40.77Q1025.89 40.63 1026.40 40.48L1026.40 40.48Q1030.57 39.26 1034.68 38.09Q1038.78 36.92 1042.97 35.98Q1047.17 35.05 1051.54 34.40Q1055.92 33.75 1060.67 33.57L1060.67 33.57Q1061.96 33.50 1063.10 33.84Q1064.23 34.18 1065.02 34.80L1065.02 34.80Q1066.32 35.77 1066.79 37.53L1066.79 37.53Q1067.26 36.81 1067.76 36.27L1067.76 36.27Q1070.21 33.57 1074.60 33.57L1074.60 33.57Q1075.57 33.57 1076.80 33.81Q1078.02 34.04 1078.96 34.76L1078.96 34.76Q1080.29 35.80 1080.72 37.53L1080.72 37.53Q1081.19 36.81 1081.69 36.27L1081.69 36.27Q1084.07 33.57 1088.53 33.57L1088.53 33.57Q1089.50 33.57 1090.73 33.81Q1091.95 34.04 1092.89 34.76L1092.89 34.76Q1093.86 35.55 1094.38 36.78Q1094.90 38 1094.87 39.44L1094.87 39.44Q1094.83 40.56 1094.85 41.29Q1094.87 42.03 1094.87 42.39L1094.87 42.39Q1094.94 43.36 1095.35 44.01Q1095.77 44.66 1096.20 45.06L1096.20 45.06Q1096.99 45.74 1098.04 46.08Q1099.08 46.42 1100.12 46.32L1100.12 46.32Q1102.39 46.10 1105.04 45.56Q1107.68 45.02 1110.55 44.30Q1113.41 43.58 1116.34 42.75Q1119.28 41.92 1122.08 41.10L1122.08 41.10ZM1191.60 41.06L1192.07 42.57Q1189.22 43.40 1186.25 44.25Q1183.28 45.09 1180.40 45.81Q1177.52 46.53 1174.82 47.07Q1172.12 47.61 1169.82 47.83L1169.82 47.83Q1169.64 47.86 1169.50 47.86Q1169.35 47.86 1169.17 47.86L1169.17 47.86Q1167.91 47.86 1166.71 47.40Q1165.50 46.93 1164.56 46.10L1164.56 46.10Q1164.06 45.63 1163.65 45.04Q1163.23 44.44 1163.12 43.83L1163.12 43.83Q1162.94 44.19 1162.69 44.52Q1162.44 44.84 1162.15 45.13L1162.15 45.13Q1160.78 46.39 1158.95 47.13Q1157.11 47.86 1155.24 47.86L1155.24 47.86Q1153.08 47.86 1151.62 46.86Q1150.16 45.85 1149.70 44.08L1149.70 44.08Q1149.26 42.46 1149.61 40.88Q1149.95 39.30 1150.99 37.78L1150.99 37.78Q1151.24 37.42 1151.64 37.05Q1152.04 36.67 1152.49 36.31Q1152.94 35.95 1153.44 35.64Q1153.94 35.34 1154.41 35.12L1154.41 35.12Q1150.60 35.52 1146.82 36.22Q1143.04 36.92 1139.31 37.84Q1135.58 38.76 1131.93 39.80Q1128.28 40.84 1124.78 41.89L1124.78 41.89Q1124.21 42.07 1123.65 42.23Q1123.09 42.39 1122.52 42.57L1122.52 42.57L1122.05 41.06Q1122.66 40.88 1123.22 40.72Q1123.78 40.56 1124.35 40.38L1124.35 40.38Q1128.49 39.15 1132.56 38Q1136.63 36.85 1140.80 35.91Q1144.98 34.98 1149.34 34.35Q1153.69 33.72 1158.41 33.54L1158.41 33.54L1158.84 33.54Q1161.22 33.54 1162.76 34.76L1162.76 34.76Q1164.10 35.80 1164.53 37.53L1164.53 37.53L1165.43 37.75Q1165.36 37.93 1165.30 38.14Q1165.25 38.36 1165.18 38.61L1165.18 38.61Q1164.92 39.37 1164.67 40.36Q1164.42 41.35 1164.42 42.39L1164.42 42.39Q1164.42 43.33 1164.82 43.94Q1165.21 44.55 1165.61 44.95L1165.61 44.95Q1166.40 45.67 1167.50 46.03Q1168.60 46.39 1169.64 46.28L1169.64 46.28Q1171.91 46.06 1174.57 45.52Q1177.24 44.98 1180.08 44.26Q1182.92 43.54 1185.86 42.72Q1188.79 41.89 1191.60 41.06L1191.60 41.06ZM1161.07 43.98L1161.07 43.98Q1162.58 42.50 1163.05 40.52L1163.05 40.52Q1163.05 40.45 1163.07 40.39Q1163.09 40.34 1163.09 40.27L1163.09 40.27Q1163.20 39.55 1163.16 38.97L1163.16 38.97Q1163.09 37.03 1161.79 35.98L1161.79 35.98Q1160.71 35.12 1158.84 35.12L1158.84 35.12Q1157.00 35.12 1155.42 35.91L1155.42 35.91Q1154.88 36.20 1154.02 36.87Q1153.15 37.53 1152.40 38.52Q1151.64 39.51 1151.23 40.83Q1150.81 42.14 1151.21 43.65L1151.21 43.65Q1151.42 44.52 1151.95 45.04Q1152.47 45.56 1153.08 45.83Q1153.69 46.10 1154.27 46.17Q1154.84 46.24 1155.24 46.24L1155.24 46.24Q1156.82 46.24 1158.37 45.63Q1159.92 45.02 1161.07 43.98ZM1275.59 41.10L1276.02 42.61Q1273.18 43.44 1270.21 44.28Q1267.24 45.13 1264.36 45.85Q1261.48 46.57 1258.76 47.11Q1256.04 47.65 1253.74 47.90L1253.74 47.90L1253.12 47.90Q1251.94 47.90 1250.75 47.47Q1249.56 47.04 1248.66 46.24L1248.66 46.24Q1246.86 44.73 1246.75 42.46L1246.75 42.46Q1246.75 42.10 1246.73 41.33Q1246.72 40.56 1246.75 39.40L1246.75 39.40Q1246.79 38.32 1246.43 37.44Q1246.07 36.56 1245.35 36.02L1245.35 36.02Q1244.30 35.16 1242.00 35.16L1242.00 35.16L1241.96 35.16Q1239.95 35.16 1238.60 35.73Q1237.25 36.31 1236.35 37.28Q1235.45 38.25 1234.85 39.55Q1234.26 40.84 1233.79 42.32L1233.79 42.32Q1233.58 43.08 1233.31 43.87Q1233.04 44.66 1232.77 45.36Q1232.50 46.06 1232.26 46.62Q1232.03 47.18 1231.88 47.47L1231.88 47.47L1230.48 46.82Q1230.73 46.28 1231.13 45.27Q1231.52 44.26 1231.90 43.15Q1232.28 42.03 1232.55 41.01Q1232.82 39.98 1232.82 39.40L1232.82 39.40Q1232.86 38.32 1232.50 37.44Q1232.14 36.56 1231.42 36.02L1231.42 36.02Q1230.84 35.55 1229.98 35.32Q1229.11 35.08 1228.07 35.16L1228.07 35.16Q1223.42 35.34 1219.09 35.97Q1214.75 36.60 1210.59 37.51Q1206.43 38.43 1202.38 39.58Q1198.33 40.74 1194.19 41.96L1194.19 41.96Q1193.65 42.14 1193.11 42.28Q1192.57 42.43 1192.07 42.61L1192.07 42.61L1191.60 41.10Q1192.14 40.92 1192.68 40.77Q1193.22 40.63 1193.76 40.48L1193.76 40.48Q1197.94 39.26 1202.02 38.09Q1206.11 36.92 1210.30 35.98Q1214.50 35.05 1218.89 34.40Q1223.28 33.75 1228.03 33.57L1228.03 33.57Q1229.33 33.50 1230.46 33.82Q1231.60 34.15 1232.39 34.76L1232.39 34.76Q1233.72 35.80 1234.15 37.53L1234.15 37.53Q1234.62 36.81 1235.12 36.27L1235.12 36.27Q1237.61 33.54 1241.96 33.54L1241.96 33.54L1242.00 33.54Q1242.97 33.54 1244.18 33.79Q1245.38 34.04 1246.32 34.76L1246.32 34.76Q1247.33 35.55 1247.85 36.78Q1248.37 38 1248.34 39.44L1248.34 39.44Q1248.26 41.67 1248.34 42.39L1248.34 42.39Q1248.37 43.36 1248.80 44.01Q1249.24 44.66 1249.67 45.06L1249.67 45.06Q1250.46 45.74 1251.50 46.08Q1252.55 46.42 1253.56 46.32L1253.56 46.32Q1255.82 46.10 1258.49 45.56Q1261.15 45.02 1264.01 44.30Q1266.88 43.58 1269.83 42.75Q1272.78 41.92 1275.59 41.10L1275.59 41.10Z"/></svg>