<svg xmlns="http://www.w3.org/2000/svg" xmlns:xlink="http://www.w3.org/1999/xlink" width="702.116" height="81.00000000000001"><path fill="#000000" transform="scale(-1,1) translate(-699.116,0)" stroke="#000000" stroke-width="0.5" d="M30.60 75.94L30.60 75.94L30.31 75.94Q28.91 75.76 28.01 74.13Q27.11 72.49 26.93 69.72L26.93 69.72Q26.82 68.02 26.69 65.14Q26.57 62.26 26.60 58.34Q26.64 54.42 26.87 49.56Q27.11 44.70 27.72 39.08L27.72 39.08Q27.11 38.22 26.71 37.51Q26.32 36.81 26.24 36.31L26.24 36.31Q26.14 35.62 26.24 35.14Q26.35 34.65 26.55 34.35Q26.75 34.04 26.98 33.88Q27.22 33.72 27.40 33.64L27.40 33.64Q27.76 33.46 28.37 33.46L28.37 33.46Q28.48 32.74 28.57 32.06Q28.66 31.38 28.76 30.66L28.76 30.66L28.76 30.62Q26.50 32.24 23.81 33.75Q21.13 35.26 18.07 36.42L18.07 36.42Q16.13 37.17 13.93 37.96Q11.74 38.76 9.41 39.55Q7.09 40.34 4.70 41.10Q2.30 41.85 0 42.54L0 42.54L-0.43 41.02Q1.87 40.34 4.23 39.58Q6.59 38.83 8.91 38.05Q11.23 37.28 13.41 36.51Q15.59 35.73 17.50 34.98L17.50 34.98Q20.92 33.64 23.85 31.92Q26.78 30.19 29.16 28.39L29.16 28.39Q29.63 25.94 30.40 22.86Q31.18 19.78 32.22 16.65L32.22 16.65Q35.35 7.33 38.56 5.17L38.56 5.17Q39.31 4.66 39.87 4.74Q40.43 4.81 40.72 4.95L40.72 4.95Q41.44 5.35 41.85 6.32Q42.26 7.29 42.26 8.66L42.26 8.66Q42.26 10.50 41.96 12.21Q41.65 13.92 41.00 15.66Q40.36 17.41 39.35 19.24Q38.34 21.08 36.90 23.10L36.90 23.10Q36.07 24.25 34.47 25.87Q32.87 27.49 30.60 29.25L30.60 29.25Q30.53 29.68 30.46 30.08Q30.38 30.48 30.31 30.87L30.31 30.87Q30.20 31.66 30.10 32.42Q29.99 33.18 29.92 33.97L29.92 33.97Q30.64 34.36 31.18 35.05L31.18 35.05Q32.44 36.70 33.46 38.94Q34.49 41.17 35.24 43.94L35.24 43.94Q35.60 44.19 35.96 44.34L35.96 44.34Q36.90 44.80 37.93 45.07Q38.95 45.34 40.01 45.49Q41.08 45.63 42.12 45.67Q43.16 45.70 44.10 45.70L44.10 45.70Q45.47 45.74 48.02 45.47Q50.58 45.20 53.93 44.62Q57.28 44.05 61.18 43.17Q65.09 42.28 69.19 41.02L69.19 41.02L69.66 42.50Q65.45 43.80 61.47 44.71Q57.49 45.63 54.11 46.21Q50.72 46.78 48.11 47.05Q45.50 47.32 44.06 47.29L44.06 47.29Q42.12 47.22 39.94 47.04Q37.76 46.86 35.71 45.96L35.71 45.96Q36.07 47.58 36.31 49.25Q36.54 50.92 36.72 52.72L36.72 52.72Q36.94 55.10 36.95 57.49Q36.97 59.89 36.81 62.10Q36.65 64.32 36.34 66.26Q36.04 68.20 35.57 69.68L35.57 69.68Q34.63 72.74 33.34 74.34Q32.04 75.94 30.60 75.94ZM29.12 40.77L29.12 40.77Q28.62 46.06 28.40 50.64Q28.19 55.21 28.17 58.88Q28.15 62.55 28.28 65.27Q28.40 67.99 28.51 69.61L28.51 69.61Q28.69 71.98 29.29 73.14Q29.88 74.29 30.49 74.36L30.49 74.36Q31.21 74.43 32.18 73.23Q33.16 72.02 34.06 69.21L34.06 69.21Q34.63 67.38 34.97 64.59Q35.32 61.80 35.33 58.52Q35.35 55.24 35.01 51.73Q34.67 48.22 33.88 44.95L33.88 44.95Q32.58 44.12 31.37 43.02Q30.17 41.92 29.12 40.77ZM29.34 38.61L29.34 38.61Q30.06 39.55 31.05 40.54Q32.04 41.53 33.16 42.46L33.16 42.46Q32.54 40.59 31.75 38.97Q30.96 37.35 29.92 36.02L29.92 36.02Q29.84 35.91 29.66 35.73L29.66 35.73Q29.59 36.45 29.50 37.17Q29.41 37.89 29.34 38.61ZM28.19 35.05L28.19 35.05Q28.04 35.05 28.01 35.08L28.01 35.08Q27.79 35.16 27.79 35.53Q27.79 35.91 27.83 36.09L27.83 36.09Q27.83 36.24 28.01 36.60L28.01 36.60Q28.04 36.20 28.08 35.82Q28.12 35.44 28.19 35.05ZM39.85 6.32L39.85 6.32Q39.71 6.32 39.42 6.50L39.42 6.50Q38.59 7.08 37.76 8.28Q36.94 9.49 36.14 11.13Q35.35 12.76 34.61 14.73Q33.88 16.69 33.23 18.76Q32.58 20.83 32.02 22.90Q31.46 24.97 31.07 26.84L31.07 26.84Q32.69 25.47 33.82 24.28Q34.96 23.10 35.60 22.16L35.60 22.16Q36.97 20.22 37.94 18.51Q38.92 16.80 39.53 15.18Q40.14 13.56 40.41 11.95Q40.68 10.35 40.68 8.66L40.68 8.66Q40.68 7.72 40.46 7.11Q40.25 6.50 40.00 6.36L40.00 6.36Q39.96 6.32 39.85 6.32ZM138.85 40.99L139.28 42.50Q133.88 44.12 128.21 45.25Q122.54 46.39 117.22 46.96L117.22 46.96Q113.51 47.36 110.07 47.58Q106.63 47.79 103.43 47.79L103.43 47.79L102.35 47.79Q100.22 47.76 98.78 46.77Q97.34 45.78 96.88 44.01L96.88 44.01Q96.48 42.39 96.82 40.81Q97.16 39.22 98.21 37.71L98.21 37.71Q98.71 36.99 99.29 36.42Q99.86 35.84 100.44 35.41L100.44 35.41Q96.62 35.80 93.02 36.45Q89.42 37.10 85.91 37.95Q82.40 38.79 78.95 39.80Q75.49 40.81 71.96 41.85L71.96 41.85L69.70 42.50L69.23 40.99Q69.84 40.81 70.40 40.66Q70.96 40.52 71.53 40.34L71.53 40.34Q75.67 39.12 79.74 37.96Q83.81 36.81 87.98 35.88Q92.16 34.94 96.52 34.31Q100.87 33.68 105.59 33.50L105.59 33.50Q106.81 33.43 107.95 33.70Q109.08 33.97 109.98 34.69L109.98 34.69Q110.77 35.30 111.40 36.40Q112.03 37.50 112.00 38.68L112.00 38.68Q111.92 40.27 110.56 41.28L110.56 41.28Q109.51 41.96 108.14 42.14Q106.78 42.32 105.44 42.39L105.44 42.39Q104.94 42.43 104.49 42.45Q104.04 42.46 103.64 42.54L103.64 42.54Q103.46 42.57 103.28 42.59Q103.10 42.61 102.92 42.64L102.92 42.64Q102.35 42.72 101.72 42.81Q101.09 42.90 100.49 43.04Q99.90 43.18 99.40 43.42Q98.89 43.65 98.53 43.98L98.53 43.98Q98.78 44.70 99.25 45.13Q99.72 45.56 100.28 45.81Q100.84 46.06 101.39 46.14Q101.95 46.21 102.38 46.21L102.38 46.21Q105.70 46.24 109.42 46.05Q113.15 45.85 117.07 45.42L117.07 45.42Q122.33 44.84 127.91 43.71Q133.49 42.57 138.85 40.99L138.85 40.99ZM102.60 35.88L102.60 35.88Q102.13 36.09 101.38 36.65Q100.62 37.21 99.92 38.04Q99.22 38.86 98.73 39.93Q98.24 40.99 98.24 42.25L98.24 42.25Q99.18 41.67 100.39 41.46Q101.59 41.24 102.71 41.06L102.71 41.06Q102.89 41.06 103.07 41.04Q103.25 41.02 103.43 40.99L103.43 40.99Q103.86 40.92 104.35 40.88Q104.83 40.84 105.37 40.81L105.37 40.81Q106.52 40.74 107.71 40.59Q108.90 40.45 109.66 39.94L109.66 39.94Q110.41 39.48 110.45 38.61L110.45 38.61Q110.48 37.96 110.07 37.21Q109.66 36.45 109.01 35.91L109.01 35.91Q107.86 35.05 106.02 35.05L106.02 35.05Q105.12 35.05 104.29 35.26Q103.46 35.48 102.60 35.88ZM187.38 47.94L187.38 47.94Q186.66 47.94 185.71 47.85Q184.75 47.76 183.73 47.49Q182.70 47.22 181.69 46.73Q180.68 46.24 179.89 45.42L179.89 45.42Q177.55 43.15 177.95 39.15L177.95 39.15Q178.02 38.29 178.22 37.17Q178.42 36.06 178.63 35.12L178.63 35.12L171.86 35.16Q170.82 35.41 169.09 35.77Q167.36 36.13 165.10 36.60L165.10 36.60Q162.47 37.14 159.25 37.80Q156.02 38.47 152.62 39.24Q149.22 40.02 145.80 40.86Q142.38 41.71 139.32 42.61L139.32 42.61L138.85 41.10Q141.91 40.20 145.37 39.33Q148.82 38.47 152.24 37.69Q155.66 36.92 158.90 36.25Q162.14 35.59 164.81 35.05L164.81 35.05Q167.11 34.58 168.86 34.22Q170.60 33.86 171.58 33.61L171.58 33.61L171.65 33.57L180.65 33.54L180.40 34.54Q180.29 34.90 180.16 35.48Q180.04 36.06 179.91 36.72Q179.78 37.39 179.68 38.05Q179.57 38.72 179.53 39.30L179.53 39.30Q179.21 42.54 181.01 44.30L181.01 44.30Q181.91 45.24 183.15 45.67Q184.39 46.10 185.56 46.24Q186.73 46.39 187.60 46.35Q188.46 46.32 188.68 46.32L188.68 46.32Q192.10 45.96 195.70 44.95Q199.30 43.94 203.11 42.72L203.11 42.72Q204.41 42.32 205.74 41.91Q207.07 41.49 208.44 41.10L208.44 41.10L208.87 42.61Q206.17 43.44 203.58 44.23L203.58 44.23Q199.69 45.45 196.04 46.48Q192.38 47.50 188.82 47.86L188.82 47.86Q188.64 47.90 188.26 47.92Q187.88 47.94 187.38 47.94ZM277.92 41.06L278.39 42.57Q275.54 43.40 272.57 44.25Q269.60 45.09 266.72 45.81Q263.84 46.53 261.14 47.07Q258.44 47.61 256.14 47.83L256.14 47.83Q255.96 47.86 255.82 47.86Q255.67 47.86 255.49 47.86L255.49 47.86Q254.23 47.86 253.03 47.40Q251.82 46.93 250.88 46.10L250.88 46.10Q250.38 45.63 249.97 45.04Q249.55 44.44 249.44 43.83L249.44 43.83Q249.26 44.19 249.01 44.52Q248.76 44.84 248.47 45.13L248.47 45.13Q247.10 46.39 245.27 47.13Q243.43 47.86 241.56 47.86L241.56 47.86Q239.40 47.86 237.94 46.86Q236.48 45.85 236.02 44.08L236.02 44.08Q235.58 42.46 235.93 40.88Q236.27 39.30 237.31 37.78L237.31 37.78Q237.56 37.42 237.96 37.05Q238.36 36.67 238.81 36.31Q239.26 35.95 239.76 35.64Q240.26 35.34 240.73 35.12L240.73 35.12Q236.92 35.52 233.14 36.22Q229.36 36.92 225.63 37.84Q221.90 38.76 218.25 39.80Q214.60 40.84 211.10 41.89L211.10 41.89Q210.53 42.07 209.97 42.23Q209.41 42.39 208.84 42.57L208.84 42.57L208.37 41.06Q208.98 40.88 209.54 40.72Q210.10 40.56 210.67 40.38L210.67 40.38Q214.81 39.15 218.88 38Q222.95 36.85 227.12 35.91Q231.30 34.98 235.66 34.35Q240.01 33.72 244.73 33.54L244.73 33.54L245.16 33.54Q247.54 33.54 249.08 34.76L249.08 34.76Q250.42 35.80 250.85 37.53L250.85 37.53L251.75 37.75Q251.68 37.93 251.62 38.14Q251.57 38.36 251.50 38.61L251.50 38.61Q251.24 39.37 250.99 40.36Q250.74 41.35 250.74 42.39L250.74 42.39Q250.74 43.33 251.14 43.94Q251.53 44.55 251.93 44.95L251.93 44.95Q252.72 45.67 253.82 46.03Q254.92 46.39 255.96 46.28L255.96 46.28Q258.23 46.06 260.89 45.52Q263.56 44.98 266.40 44.26Q269.24 43.54 272.18 42.72Q275.11 41.89 277.92 41.06L277.92 41.06ZM247.39 43.98L247.39 43.98Q248.90 42.50 249.37 40.52L249.37 40.52Q249.37 40.45 249.39 40.39Q249.41 40.34 249.41 40.27L249.41 40.27Q249.52 39.55 249.48 38.97L249.48 38.97Q249.41 37.03 248.11 35.98L248.11 35.98Q247.03 35.12 245.16 35.12L245.16 35.12Q243.32 35.12 241.74 35.91L241.74 35.91Q241.20 36.20 240.34 36.87Q239.47 37.53 238.72 38.52Q237.96 39.51 237.55 40.83Q237.13 42.14 237.53 43.65L237.53 43.65Q237.74 44.52 238.27 45.04Q238.79 45.56 239.40 45.83Q240.01 46.10 240.59 46.17Q241.16 46.24 241.56 46.24L241.56 46.24Q243.14 46.24 244.69 45.63Q246.24 45.02 247.39 43.98ZM319.75 47.94L319.75 47.94Q318.67 47.94 317.56 47.68Q316.44 47.43 315.43 46.93Q314.42 46.42 313.60 45.65Q312.77 44.88 312.26 43.83L312.26 43.83Q311.72 42.64 311.51 41.11Q311.29 39.58 311.33 37.80Q311.36 36.02 311.58 34.08Q311.80 32.13 312.12 30.12L312.12 30.12Q309.64 31.56 307.01 32.60Q304.38 33.64 301.43 34.69L301.43 34.69Q300.24 35.12 299.00 35.57Q297.76 36.02 296.42 36.52L296.42 36.52Q294.52 37.28 292.32 38.05Q290.12 38.83 287.80 39.62Q285.48 40.41 283.09 41.17Q280.69 41.92 278.39 42.61L278.39 42.61L277.92 41.10Q280.22 40.41 282.60 39.67Q284.98 38.94 287.30 38.14Q289.62 37.35 291.80 36.58Q293.98 35.80 295.88 35.05L295.88 35.05Q297.18 34.54 298.44 34.09Q299.70 33.64 300.89 33.21L300.89 33.21Q304.13 32.06 306.97 30.89Q309.82 29.72 312.44 28.03L312.44 28.03Q312.77 26.34 313.27 24.19Q313.78 22.05 314.44 19.77Q315.11 17.48 315.92 15.21Q316.73 12.94 317.65 10.96Q318.56 8.98 319.61 7.49Q320.65 6.00 321.77 5.24L321.77 5.24Q322.52 4.74 323.10 4.81Q323.68 4.88 323.96 5.02L323.96 5.02Q324.68 5.42 325.08 6.39Q325.48 7.36 325.48 8.73L325.48 8.73Q325.48 12.84 324.18 16.33Q322.88 19.82 320.08 23.20L320.08 23.20Q318.56 25.04 317.03 26.44Q315.50 27.85 313.88 28.96L313.88 28.96Q313.85 29.14 313.83 29.32Q313.81 29.50 313.78 29.68L313.78 29.68Q313.56 30.94 313.31 32.73Q313.06 34.51 312.95 36.42Q312.84 38.32 312.98 40.12Q313.13 41.92 313.70 43.15L313.70 43.15Q314.14 44.05 314.89 44.70Q315.65 45.34 316.58 45.74Q317.52 46.14 318.55 46.28Q319.57 46.42 320.51 46.32L320.51 46.32Q322.13 46.17 324.25 45.87Q326.38 45.56 328.81 45.15Q331.24 44.73 333.79 44.25Q336.35 43.76 338.81 43.24Q341.28 42.72 343.53 42.16Q345.78 41.60 347.58 41.10L347.58 41.10L348.05 42.61Q346.25 43.15 343.96 43.69Q341.68 44.23 339.17 44.77Q336.67 45.31 334.08 45.79Q331.49 46.28 329.04 46.69Q326.59 47.11 324.43 47.41Q322.27 47.72 320.65 47.90L320.65 47.90Q320.44 47.90 320.22 47.92Q320.00 47.94 319.75 47.94ZM323.06 6.39L323.06 6.39Q322.92 6.39 322.67 6.57L322.67 6.57Q321.84 7.11 321.01 8.28Q320.18 9.45 319.37 11.04Q318.56 12.62 317.84 14.55Q317.12 16.47 316.46 18.52Q315.79 20.58 315.25 22.66Q314.71 24.75 314.32 26.70L314.32 26.70Q315.47 25.76 316.60 24.66Q317.74 23.56 318.85 22.20L318.85 22.20Q321.48 19.03 322.70 15.79Q323.93 12.55 323.93 8.73L323.93 8.73Q323.93 7.80 323.71 7.18Q323.50 6.57 323.21 6.43L323.21 6.43Q323.17 6.39 323.06 6.39ZM357.52 44.88L357.52 44.88Q357.91 45.34 357.91 45.92L357.91 45.92Q357.84 46.53 357.37 47L357.37 47Q356.90 47.47 356.26 47.47L356.26 47.47Q355.82 47.47 355.57 47.29L355.57 47.29Q355.03 47 354.96 46.39L354.96 46.39Q354.85 45.49 355.46 44.91L355.46 44.91L355.50 44.88Q356.08 44.48 356.58 44.48L356.58 44.48Q357.12 44.48 357.52 44.88ZM483.62 41.06L484.06 42.57Q480.89 43.51 477.65 44.41Q474.41 45.31 470.66 46.24L470.66 46.24Q465.59 47.54 460.69 49.50Q455.80 51.46 451.58 53.84L451.58 53.84Q451.08 54.13 450.58 54.43Q450.07 54.74 449.57 55.06L449.57 55.06Q449.14 57.33 448.65 59.49Q448.16 61.65 447.62 63.70L447.62 63.70Q446.08 69.39 444.42 72.47Q442.76 75.55 440.78 76.30L440.78 76.30Q439.85 76.63 439.16 76.63L439.16 76.63Q438.30 76.63 437.78 76.29Q437.26 75.94 436.97 75.62L436.97 75.62Q436.21 74.76 435.98 73.32Q435.74 71.88 435.96 70.20Q436.18 68.53 436.75 66.82Q437.33 65.11 438.16 63.63L438.16 63.63Q439.52 61.18 442.04 58.79Q444.56 56.40 448.16 54.09L448.16 54.09Q448.70 51.32 449.17 48.66Q449.64 45.99 450.04 43.54L450.04 43.54Q450.47 41.06 450.83 38.92Q451.19 36.78 451.55 35.12L451.55 35.12Q446.72 35.37 441.94 36.07Q437.15 36.78 432.43 37.78Q427.72 38.79 423.11 40.03Q418.50 41.28 414.04 42.57L414.04 42.57L413.60 41.06Q418.21 39.69 423.00 38.41Q427.79 37.14 432.67 36.11Q437.54 35.08 442.53 34.38Q447.52 33.68 452.52 33.50L452.52 33.50L453.56 33.46Q452.99 35.91 452.54 38.41Q452.09 40.92 451.58 43.80L451.58 43.80Q451.22 45.96 450.77 48.40Q450.32 50.85 449.86 53.23L449.86 53.23Q451.91 51.93 454.37 50.69Q456.84 49.45 459.52 48.35Q462.20 47.25 464.94 46.32Q467.68 45.38 470.27 44.73L470.27 44.73Q473.98 43.80 477.22 42.90Q480.46 42.00 483.62 41.06L483.62 41.06ZM446.08 63.31L446.08 63.31Q446.54 61.62 447.01 59.74Q447.48 57.87 447.88 56.04L447.88 56.04Q444.96 58.05 442.82 60.19Q440.68 62.34 439.52 64.39L439.52 64.39Q438.77 65.76 438.25 67.32Q437.72 68.89 437.54 70.40L437.54 70.40Q437.36 71.84 437.53 72.96Q437.69 74.07 438.16 74.61L438.16 74.61Q438.26 74.76 438.71 74.99Q439.16 75.22 440.21 74.83L440.21 74.83Q443.30 73.64 446.08 63.31ZM459.25 18.45L459.25 18.45Q458.86 18.45 458.46 18.25Q458.06 18.06 457.85 17.70L457.85 17.70Q457.38 16.94 457.78 16.18L457.78 16.18Q457.96 15.75 458.35 15.50Q458.75 15.25 459.25 15.25L459.25 15.25Q459.97 15.25 460.40 15.75L460.40 15.75Q460.87 16.26 460.80 16.94L460.80 16.94Q460.73 17.73 460.24 18.09Q459.76 18.45 459.25 18.45ZM553.64 41.06L554.08 42.57Q550.91 43.51 547.67 44.41Q544.43 45.31 540.68 46.24L540.68 46.24Q535.61 47.54 530.71 49.50Q525.82 51.46 521.60 53.84L521.60 53.84Q521.10 54.13 520.60 54.43Q520.09 54.74 519.59 55.06L519.59 55.06Q519.16 57.33 518.67 59.49Q518.18 61.65 517.64 63.70L517.64 63.70Q516.10 69.39 514.44 72.47Q512.78 75.55 510.80 76.30L510.80 76.30Q509.87 76.63 509.18 76.63L509.18 76.63Q508.32 76.63 507.80 76.29Q507.28 75.94 506.99 75.62L506.99 75.62Q506.23 74.76 506.00 73.32Q505.76 71.88 505.98 70.20Q506.20 68.53 506.77 66.82Q507.35 65.11 508.18 63.63L508.18 63.63Q509.54 61.18 512.06 58.79Q514.58 56.40 518.18 54.09L518.18 54.09Q518.72 51.32 519.19 48.66Q519.66 45.99 520.06 43.54L520.06 43.54Q520.49 41.06 520.85 38.92Q521.21 36.78 521.57 35.12L521.57 35.12Q516.74 35.37 511.96 36.07Q507.17 36.78 502.45 37.78Q497.74 38.79 493.13 40.03Q488.52 41.28 484.06 42.57L484.06 42.57L483.62 41.06Q488.23 39.69 493.02 38.41Q497.81 37.14 502.69 36.11Q507.56 35.08 512.55 34.38Q517.54 33.68 522.54 33.50L522.54 33.50L523.58 33.46Q523.01 35.91 522.56 38.41Q522.11 40.92 521.60 43.80L521.60 43.80Q521.24 45.96 520.79 48.40Q520.34 50.85 519.88 53.23L519.88 53.23Q521.93 51.93 524.39 50.69Q526.86 49.45 529.54 48.35Q532.22 47.25 534.96 46.32Q537.70 45.38 540.29 44.73L540.29 44.73Q544.00 43.80 547.24 42.90Q550.48 42.00 553.64 41.06L553.64 41.06ZM516.10 63.31L516.10 63.31Q516.56 61.62 517.03 59.74Q517.50 57.87 517.90 56.04L517.90 56.04Q514.98 58.05 512.84 60.19Q510.70 62.34 509.54 64.39L509.54 64.39Q508.79 65.76 508.27 67.32Q507.74 68.89 507.56 70.40L507.56 70.40Q507.38 71.84 507.55 72.96Q507.71 74.07 508.18 74.61L508.18 74.61Q508.28 74.76 508.73 74.99Q509.18 75.22 510.23 74.83L510.23 74.83Q513.32 73.64 516.10 63.31ZM529.27 18.45L529.27 18.45Q528.88 18.45 528.48 18.25Q528.08 18.06 527.87 17.70L527.87 17.70Q527.40 16.94 527.80 16.18L527.80 16.18Q527.98 15.75 528.37 15.50Q528.77 15.25 529.27 15.25L529.27 15.25Q529.99 15.25 530.42 15.75L530.42 15.75Q530.89 16.26 530.82 16.94L530.82 16.94Q530.75 17.73 530.26 18.09Q529.78 18.45 529.27 18.45ZM623.66 41.06L624.10 42.57Q620.93 43.51 617.69 44.41Q614.45 45.31 610.70 46.24L610.70 46.24Q605.63 47.54 600.73 49.50Q595.84 51.46 591.62 53.84L591.62 53.84Q591.12 54.13 590.62 54.43Q590.11 54.74 589.61 55.06L589.61 55.06Q589.18 57.33 588.69 59.49Q588.20 61.65 587.66 63.70L587.66 63.70Q586.12 69.39 584.46 72.47Q582.80 75.55 580.82 76.30L580.82 76.30Q579.89 76.63 579.20 76.63L579.20 76.63Q578.34 76.63 577.82 76.29Q577.30 75.94 577.01 75.62L577.01 75.62Q576.25 74.76 576.02 73.32Q575.78 71.88 576 70.20Q576.22 68.53 576.79 66.82Q577.37 65.11 578.20 63.63L578.20 63.63Q579.56 61.18 582.08 58.79Q584.60 56.40 588.20 54.09L588.20 54.09Q588.74 51.32 589.21 48.66Q589.68 45.99 590.08 43.54L590.08 43.54Q590.51 41.06 590.87 38.92Q591.23 36.78 591.59 35.12L591.59 35.12Q586.76 35.37 581.98 36.07Q577.19 36.78 572.47 37.78Q567.76 38.79 563.15 40.03Q558.54 41.28 554.08 42.57L554.08 42.57L553.64 41.06Q558.25 39.69 563.04 38.41Q567.83 37.14 572.71 36.11Q577.58 35.08 582.57 34.38Q587.56 33.68 592.56 33.50L592.56 33.50L593.60 33.46Q593.03 35.91 592.58 38.41Q592.13 40.92 591.62 43.80L591.62 43.80Q591.26 45.96 590.81 48.40Q590.36 50.85 589.90 53.23L589.90 53.23Q591.95 51.93 594.41 50.69Q596.88 49.45 599.56 48.35Q602.24 47.25 604.98 46.32Q607.72 45.38 610.31 44.73L610.31 44.73Q614.02 43.80 617.26 42.90Q620.50 42.00 623.66 41.06L623.66 41.06ZM586.12 63.31L586.12 63.31Q586.58 61.62 587.05 59.74Q587.52 57.87 587.92 56.04L587.92 56.04Q585 58.05 582.86 60.19Q580.72 62.34 579.56 64.39L579.56 64.39Q578.81 65.76 578.29 67.32Q577.76 68.89 577.58 70.40L577.58 70.40Q577.40 71.84 577.57 72.96Q577.73 74.07 578.20 74.61L578.20 74.61Q578.30 74.76 578.75 74.99Q579.20 75.22 580.25 74.83L580.25 74.83Q583.34 73.64 586.12 63.31ZM599.29 18.45L599.29 18.45Q598.90 18.45 598.50 18.25Q598.10 18.06 597.89 17.70L597.89 17.70Q597.42 16.94 597.82 16.18L597.82 16.18Q598.00 15.75 598.39 15.50Q598.79 15.25 599.29 15.25L599.29 15.25Q600.01 15.25 600.44 15.75L600.44 15.75Q600.91 16.26 600.84 16.94L600.84 16.94Q600.77 17.73 600.28 18.09Q599.80 18.45 599.29 18.45ZM693.68 41.06L694.12 42.57Q690.95 43.51 687.71 44.41Q684.47 45.31 680.72 46.24L680.72 46.24Q675.65 47.54 670.75 49.50Q665.86 51.46 661.64 53.84L661.64 53.84Q661.14 54.13 660.64 54.43Q660.13 54.74 659.63 55.06L659.63 55.06Q659.20 57.33 658.71 59.49Q658.22 61.65 657.68 63.70L657.68 63.70Q656.14 69.39 654.48 72.47Q652.82 75.55 650.84 76.30L650.84 76.30Q649.91 76.63 649.22 76.63L649.22 76.63Q648.36 76.63 647.84 76.29Q647.32 75.94 647.03 75.62L647.03 75.62Q646.27 74.76 646.04 73.32Q645.80 71.88 646.02 70.20Q646.24 68.53 646.81 66.82Q647.39 65.11 648.22 63.63L648.22 63.63Q649.58 61.18 652.10 58.79Q654.62 56.40 658.22 54.09L658.22 54.09Q658.76 51.32 659.23 48.66Q659.70 45.99 660.10 43.54L660.10 43.54Q660.53 41.06 660.89 38.92Q661.25 36.78 661.61 35.12L661.61 35.12Q656.78 35.37 652.00 36.07Q647.21 36.78 642.49 37.78Q637.78 38.79 633.17 40.03Q628.56 41.28 624.10 42.57L624.10 42.57L623.66 41.06Q628.27 39.69 633.06 38.41Q637.85 37.14 642.73 36.11Q647.60 35.08 652.59 34.38Q657.58 33.68 662.58 33.50L662.58 33.50L663.62 33.46Q663.05 35.91 662.60 38.41Q662.15 40.92 661.64 43.80L661.64 43.80Q661.28 45.96 660.83 48.40Q660.38 50.85 659.92 53.23L659.92 53.23Q661.97 51.93 664.43 50.69Q666.90 49.45 669.58 48.35Q672.26 47.25 675 46.32Q677.74 45.38 680.33 44.73L680.33 44.73Q684.04 43.80 687.28 42.90Q690.52 42.00 693.68 41.06L693.68 41.06ZM656.14 63.31L656.14 63.31Q656.60 61.62 657.07 59.74Q657.54 57.87 657.94 56.04L657.94 56.04Q655.02 58.05 652.88 60.19Q650.74 62.34 649.58 64.39L649.58 64.39Q648.83 65.76 648.31 67.32Q647.78 68.89 647.60 70.40L647.60 70.40Q647.42 71.84 647.59 72.96Q647.75 74.07 648.22 74.61L648.22 74.61Q648.32 74.76 648.77 74.99Q649.22 75.22 650.27 74.83L650.27 74.83Q653.36 73.64 656.14 63.31ZM669.31 18.45L669.31 18.45Q668.92 18.45 668.52 18.25Q668.12 18.06 667.91 17.70L667.91 17.70Q667.44 16.94 667.84 16.18L667.84 16.18Q668.02 15.75 668.41 15.50Q668.81 15.25 669.31 15.25L669.31 15.25Q670.03 15.25 670.46 15.75L670.46 15.75Q670.93 16.26 670.86 16.94L670.86 16.94Q670.79 17.73 670.30 18.09Q669.82 18.45 669.31 18.45Z"/></svg>