<svg xmlns="http://www.w3.org/2000/svg" xmlns:xlink="http://www.w3.org/1999/xlink" width="286.28000000000003" height="81.00000000000001"><path fill="#000000" transform="scale(-1,1) translate(-283.28000000000003,0)" stroke="#000000" stroke-width="0.5" d="M32.08 48.04L31.97 48.04Q30.60 48.04 29.59 47.50Q28.58 46.96 28.08 45.99L28.08 45.99Q27.83 45.52 27.81 44.84Q27.79 44.16 28.19 43.65L28.19 43.65Q28.33 43.47 28.67 43.22Q29.02 42.97 29.56 42.79Q30.10 42.61 30.87 42.55Q31.64 42.50 32.62 42.68L32.62 42.68Q34.13 42.97 35.41 43.51Q36.68 44.05 38.05 44.44L38.05 44.44Q38.20 44.34 38.30 44.23Q38.41 44.12 38.59 43.98L38.59 43.98Q39.28 43.33 39.80 42.43Q40.32 41.53 40.59 40.56Q40.86 39.58 40.79 38.65Q40.72 37.71 40.21 36.96L40.21 36.96Q39.56 35.98 38.63 35.57Q37.69 35.16 36.67 35.08Q35.64 35.01 34.56 35.12Q33.48 35.23 32.58 35.26L32.58 35.26Q30.31 35.41 28.15 35.73Q25.99 36.06 23.94 36.42L23.94 36.42Q20.74 36.96 17.69 37.69Q14.65 38.43 11.68 39.26Q8.71 40.09 5.81 40.93Q2.92 41.78 0 42.57L0 42.57L-0.47 41.06Q2.59 40.23 5.60 39.37Q8.60 38.50 11.59 37.68Q14.58 36.85 17.60 36.13Q20.63 35.41 23.69 34.87L23.69 34.87Q25.96 34.47 28.12 34.15Q30.28 33.82 32.44 33.68L32.44 33.68Q33.70 33.61 34.99 33.54Q36.29 33.46 37.48 33.64Q38.66 33.82 39.71 34.36Q40.75 34.90 41.54 36.09L41.54 36.09Q42.19 37.06 42.34 38.32Q42.48 39.58 42.08 40.95L42.08 40.95Q41.80 42.10 41.17 43.20Q40.54 44.30 39.71 45.09L39.71 45.09Q41.29 45.63 43.07 45.99Q44.86 46.35 47.23 46.28L47.23 46.28Q49.50 46.21 52.24 45.67Q54.97 45.13 57.87 44.37Q60.77 43.62 63.65 42.72Q66.53 41.82 69.12 41.06L69.12 41.06L69.59 42.57Q66.89 43.40 63.99 44.30Q61.09 45.20 58.19 45.97Q55.30 46.75 52.51 47.27Q49.72 47.79 47.27 47.86L47.27 47.86Q44.39 47.94 42.26 47.43Q40.14 46.93 38.30 46.24L38.30 46.24Q37.01 47.18 35.57 47.58Q34.13 47.97 32.08 48.04L32.08 48.04ZM29.38 45.20L29.38 45.20Q29.41 45.63 29.74 45.88Q30.06 46.14 30.47 46.28Q30.89 46.42 31.32 46.44Q31.75 46.46 32.04 46.46L32.04 46.46Q33.52 46.42 34.56 46.23Q35.60 46.03 36.50 45.52L36.50 45.52Q35.46 45.13 34.43 44.77Q33.41 44.41 32.33 44.23L32.33 44.23Q32.00 44.16 31.48 44.08Q30.96 44.01 30.47 44.07Q29.99 44.12 29.66 44.37Q29.34 44.62 29.38 45.20ZM138.71 41.10L139.14 42.61Q137.23 43.04 134.87 43.56Q132.52 44.08 129.94 44.62Q127.37 45.16 124.70 45.70Q122.04 46.24 119.54 46.69Q117.04 47.14 114.80 47.47Q112.57 47.79 110.92 47.94L110.92 47.94Q109.84 48.04 108.72 47.79Q107.60 47.54 106.60 47.02Q105.59 46.50 104.76 45.69Q103.93 44.88 103.43 43.83L103.43 43.83Q102.89 42.64 102.67 41.11Q102.46 39.58 102.47 37.80Q102.49 36.02 102.71 34.08Q102.92 32.13 103.25 30.12L103.25 30.12Q99.22 32.06 95.11 33.72Q91.01 35.37 86.80 36.87Q82.58 38.36 78.28 39.76Q73.98 41.17 69.59 42.61L69.59 42.61L69.12 41.10Q73.30 39.69 77.72 38.27Q82.15 36.85 86.60 35.28Q91.04 33.72 95.35 31.93Q99.65 30.15 103.61 28.03L103.61 28.03Q103.86 26.77 104.18 25.26Q104.51 23.74 104.94 22.09L104.94 22.09Q103.68 21.84 102.29 21.57Q100.91 21.30 99.45 21.10Q97.99 20.90 96.53 20.79Q95.08 20.68 93.74 20.76L93.74 20.76Q93.42 20.76 92.83 20.81Q92.23 20.86 91.53 21.01Q90.83 21.15 90.11 21.44Q89.39 21.73 88.81 22.23L88.81 22.23L87.80 21.04Q88.56 20.40 89.42 20.04Q90.29 19.68 91.10 19.48Q91.91 19.28 92.61 19.23Q93.31 19.17 93.71 19.17L93.71 19.17Q96.55 19.10 99.47 19.55Q102.38 20.00 105.37 20.54L105.37 20.54Q106.02 18.20 106.85 15.81Q107.68 13.41 108.63 11.34Q109.58 9.27 110.66 7.67Q111.74 6.07 112.90 5.31L112.90 5.31Q113.65 4.81 114.23 4.86Q114.80 4.92 115.09 5.06L115.09 5.06Q115.81 5.46 116.21 6.43Q116.60 7.40 116.60 8.77L116.60 8.77Q116.60 12.55 115.54 15.73Q114.48 18.92 112.14 22.05L112.14 22.05Q113.76 22.41 115.42 22.66Q117.07 22.92 118.85 23.01Q120.64 23.10 122.58 22.95Q124.52 22.81 126.68 22.38L126.68 22.38L127.01 23.92Q125.17 24.28 123.52 24.45Q121.86 24.61 120.31 24.61L120.31 24.61Q117.72 24.61 115.45 24.27Q113.18 23.92 111.02 23.46L111.02 23.46Q109.55 25.22 108.07 26.57Q106.60 27.92 105.01 29.00L105.01 29.00Q104.76 30.30 104.47 32.19Q104.18 34.08 104.06 36.07Q103.93 38.07 104.08 39.96Q104.22 41.85 104.83 43.15L104.83 43.15Q105.26 44.05 106.02 44.70Q106.78 45.34 107.71 45.74Q108.65 46.14 109.67 46.28Q110.70 46.42 111.64 46.32L111.64 46.32Q113.26 46.17 115.38 45.87Q117.50 45.56 119.93 45.15Q122.36 44.73 124.92 44.25Q127.48 43.76 129.94 43.24Q132.41 42.72 134.66 42.18Q136.91 41.64 138.71 41.10L138.71 41.10ZM113.80 6.61L113.80 6.61Q112.86 7.26 111.91 8.68Q110.95 10.10 110.07 12.03Q109.19 13.95 108.38 16.24Q107.57 18.52 106.88 20.90L106.88 20.90Q107.75 21.08 108.63 21.28Q109.51 21.48 110.45 21.69L110.45 21.69Q112.82 18.63 113.94 15.54Q115.06 12.44 115.06 8.77L115.06 8.77Q115.06 7.83 114.84 7.22Q114.62 6.61 114.34 6.46L114.34 6.46Q114.30 6.43 114.23 6.43L114.23 6.43Q114.05 6.43 113.80 6.61ZM109.30 23.06L109.30 23.06Q108.61 22.92 107.93 22.74Q107.24 22.56 106.49 22.41L106.49 22.41Q106.20 23.53 105.95 24.59Q105.70 25.65 105.48 26.70L105.48 26.70Q106.45 25.94 107.41 25.02Q108.36 24.10 109.30 23.06ZM208.22 41.06L208.69 42.57Q205.85 43.40 202.88 44.25Q199.91 45.09 197.03 45.81Q194.15 46.53 191.45 47.07Q188.75 47.61 186.44 47.83L186.44 47.83Q186.26 47.86 186.12 47.86Q185.98 47.86 185.80 47.86L185.80 47.86Q184.54 47.86 183.33 47.40Q182.12 46.93 181.19 46.10L181.19 46.10Q180.68 45.63 180.27 45.04Q179.86 44.44 179.75 43.83L179.75 43.83Q179.57 44.19 179.32 44.52Q179.06 44.84 178.78 45.13L178.78 45.13Q177.41 46.39 175.57 47.13Q173.74 47.86 171.86 47.86L171.86 47.86Q169.70 47.86 168.25 46.86Q166.79 45.85 166.32 44.08L166.32 44.08Q165.89 42.46 166.23 40.88Q166.57 39.30 167.62 37.78L167.62 37.78Q167.87 37.42 168.26 37.05Q168.66 36.67 169.11 36.31Q169.56 35.95 170.06 35.64Q170.57 35.34 171.04 35.12L171.04 35.12Q167.22 35.52 163.44 36.22Q159.66 36.92 155.93 37.84Q152.21 38.76 148.55 39.80Q144.90 40.84 141.41 41.89L141.41 41.89Q140.83 42.07 140.27 42.23Q139.72 42.39 139.14 42.57L139.14 42.57L138.67 41.06Q139.28 40.88 139.84 40.72Q140.40 40.56 140.98 40.38L140.98 40.38Q145.12 39.15 149.18 38Q153.25 36.85 157.43 35.91Q161.60 34.98 165.96 34.35Q170.32 33.72 175.03 33.54L175.03 33.54L175.46 33.54Q177.84 33.54 179.39 34.76L179.39 34.76Q180.72 35.80 181.15 37.53L181.15 37.53L182.05 37.75Q181.98 37.93 181.93 38.14Q181.87 38.36 181.80 38.61L181.80 38.61Q181.55 39.37 181.30 40.36Q181.04 41.35 181.04 42.39L181.04 42.39Q181.04 43.33 181.44 43.94Q181.84 44.55 182.23 44.95L182.23 44.95Q183.02 45.67 184.12 46.03Q185.22 46.39 186.26 46.28L186.26 46.28Q188.53 46.06 191.20 45.52Q193.86 44.98 196.70 44.26Q199.55 43.54 202.48 42.72Q205.42 41.89 208.22 41.06L208.22 41.06ZM177.70 43.98L177.70 43.98Q179.21 42.50 179.68 40.52L179.68 40.52Q179.68 40.45 179.69 40.39Q179.71 40.34 179.71 40.27L179.71 40.27Q179.82 39.55 179.78 38.97L179.78 38.97Q179.71 37.03 178.42 35.98L178.42 35.98Q177.34 35.12 175.46 35.12L175.46 35.12Q173.63 35.12 172.04 35.91L172.04 35.91Q171.50 36.20 170.64 36.87Q169.78 37.53 169.02 38.52Q168.26 39.51 167.85 40.83Q167.44 42.14 167.83 43.65L167.83 43.65Q168.05 44.52 168.57 45.04Q169.09 45.56 169.70 45.83Q170.32 46.10 170.89 46.17Q171.47 46.24 171.86 46.24L171.86 46.24Q173.45 46.24 175.00 45.63Q176.54 45.02 177.70 43.98ZM256.79 47.94L256.79 47.94Q256.07 47.94 255.11 47.85Q254.16 47.76 253.13 47.49Q252.11 47.22 251.10 46.73Q250.09 46.24 249.30 45.42L249.30 45.42Q246.96 43.15 247.36 39.15L247.36 39.15Q247.43 38.29 247.63 37.17Q247.82 36.06 248.04 35.12L248.04 35.12L241.27 35.16Q240.23 35.41 238.50 35.77Q236.77 36.13 234.50 36.60L234.50 36.60Q231.88 37.14 228.65 37.80Q225.43 38.47 222.03 39.24Q218.63 40.02 215.21 40.86Q211.79 41.71 208.73 42.61L208.73 42.61L208.26 41.10Q211.32 40.20 214.78 39.33Q218.23 38.47 221.65 37.69Q225.07 36.92 228.31 36.25Q231.55 35.59 234.22 35.05L234.22 35.05Q236.52 34.58 238.27 34.22Q240.01 33.86 240.98 33.61L240.98 33.61L241.06 33.57L250.06 33.54L249.80 34.54Q249.70 34.90 249.57 35.48Q249.44 36.06 249.32 36.72Q249.19 37.39 249.08 38.05Q248.98 38.72 248.94 39.30L248.94 39.30Q248.62 42.54 250.42 44.30L250.42 44.30Q251.32 45.24 252.56 45.67Q253.80 46.10 254.97 46.24Q256.14 46.39 257.00 46.35Q257.87 46.32 258.08 46.32L258.08 46.32Q261.50 45.96 265.10 44.95Q268.70 43.94 272.52 42.72L272.52 42.72Q273.82 42.32 275.15 41.91Q276.48 41.49 277.85 41.10L277.85 41.10L278.28 42.61Q275.58 43.44 272.99 44.23L272.99 44.23Q269.10 45.45 265.45 46.48Q261.79 47.50 258.23 47.86L258.23 47.86Q258.05 47.90 257.67 47.92Q257.29 47.94 256.79 47.94Z"/></svg>