<svg xmlns="http://www.w3.org/2000/svg" xmlns:xlink="http://www.w3.org/1999/xlink" width="338.537109375" height="40.21875"><path fill="#000000" transform="scale(-1,1) translate(-338.537109375,0)" stroke="#000000" stroke-width="0.1" d="M2.92 10.83L2.92 10.83L3.09 10.20Q3.66 10.71 2.92 10.83ZM4.89 11.36L4.89 11.36L4.89 11.09Q5.22 11.23 4.89 11.36ZM19.51 17.19L19.95 17.54Q19.97 17.51 20.60 17.28L20.60 17.28Q20.57 16.42 20.74 15.45L20.74 15.45Q20.02 15.13 20.87 12.88L20.87 12.88L20.64 11.92Q20.95 9.35 19.55 9.95L19.55 9.95Q19.13 9.56 18.72 9.21L18.72 9.21Q17.74 9.21 19.97 10.79L19.97 10.79L18.53 10.48L18.79 11.09Q19.34 11.37 19.65 11.48L19.65 11.48Q19.79 12.32 19.14 12.08L19.14 12.08Q19.11 12.46 19.76 12.67L19.76 12.67Q19.18 13.17 19.69 13.43L19.69 13.43Q19.83 14.66 19.18 14.89L19.18 14.89Q19.97 15.94 19.51 17.19L19.51 17.19ZM13.25 12.80L12.16 13.15Q12.45 13.69 12.96 13.78L12.96 13.78Q12.88 14.22 12.69 14.50L12.69 14.50L13.17 14.61L13.15 15.17Q12.88 15.61 12.60 15.93L12.60 15.93L13.39 16.31Q12.59 17.23 12.52 18.09L12.52 18.09Q12.32 18.42 12.90 18.86L12.90 18.86L12.57 19.65Q12.41 19.67 12.25 20.32L12.25 20.32Q12.57 20.72 12.43 21.13L12.43 21.13Q12.41 21.55 12.52 21.83L12.52 21.83L12.99 22.20Q13.78 20.69 13.34 19.60L13.34 19.60L13.62 18.62Q13.27 18.26 12.90 18.09L12.90 18.09L13.71 17.72Q12.85 16.88 13.89 16.47L13.89 16.47L13.97 16.01Q13.61 15.50 13.89 15.12L13.89 15.12L13.89 14.85L13.71 14.77Q13.43 14.36 13.17 14.13L13.17 14.13Q13.73 14.10 13.97 13.69L13.97 13.69Q13.48 13.18 13.25 12.80L13.25 12.80ZM9.11 11.76L9.09 11.81Q9.35 12.83 8.47 13.15L8.47 13.15Q8.75 13.69 9.26 13.78L9.26 13.78Q9.19 14.22 9 14.50L9 14.50L9.09 14.85L9.26 15.12Q9.19 15.61 8.91 15.93L8.91 15.93L8.91 16.21Q9.25 17.23 9.18 18.09L9.18 18.09Q8.98 18.42 8.74 18.62L8.74 18.62L8.74 18.97Q9.07 19.67 8.91 20.32L8.91 20.32Q9.23 20.72 9.09 21.13L9.09 21.13Q9.07 21.55 9.18 21.83L9.18 21.83L10.88 22.20Q11.67 20.69 11.23 19.60L11.23 19.60L11.51 18.62Q11.02 18.40 10.79 18.09L10.79 18.09L11.60 17.72Q10.74 16.88 11.78 16.47L11.78 16.47L11.87 16.01Q10.88 15.40 11.78 15.12L11.78 15.12L11.78 14.85L11.60 14.77Q11.32 14.36 11.06 14.13L11.06 14.13Q11.62 14.10 11.87 13.69L11.87 13.69Q11.37 13.18 11.14 12.80L11.14 12.80L12.13 12.25Q11.95 11.83 12.22 11.46L12.22 11.46L12.50 11.36L13.03 11.55Q14.22 11.32 15.08 11.55L15.08 11.55L15.63 11.09Q16.17 11.37 16.52 11.64L16.52 11.64Q16.63 12.32 15.98 12.08L15.98 12.08Q15.94 12.46 15.71 12.71L15.71 12.71Q16.01 13.17 16.52 13.43L16.52 13.43Q16.66 14.66 16.07 15.49L16.07 15.49Q16.51 16.31 16.35 17.19L16.35 17.19L16.79 17.54Q17.77 17.54 18.49 17.28L18.49 17.28Q17.89 16.42 18.67 15.84L18.67 15.84Q17.91 15.13 18.76 12.88L18.76 12.88L18.49 12.53Q18.84 9.35 17.14 10.28L17.14 10.28Q17.02 9.56 16.61 9.21L16.61 9.21Q15.63 9.21 15.71 10.48L15.71 10.48L15.36 10.48Q15.49 9.74 15.17 9.21L15.17 9.21L14.55 9.30Q13.94 9.05 13.39 9.04L13.39 9.04Q13.04 9.40 12.59 9.58L12.59 9.58Q12.16 9.32 11.95 9.04L11.95 9.04Q11.13 9.44 10.34 9.21L10.34 9.21Q10.25 10.27 8.74 9.21L8.74 9.21Q8.09 9.54 7.66 9.04L7.66 9.04Q6.45 9.18 5.61 9.04L5.61 9.04Q1.93 9.44 2.65 11.00L2.65 11.00Q1.88 11.14 1.93 11.90L1.93 11.90Q2.36 12.34 2.57 12.62L2.57 12.62Q3.57 12.92 4.08 12.45L4.08 12.45Q4.46 11.46 5.22 11.57L5.22 11.57Q4.94 11.79 4.97 12.32L4.97 12.32Q5.29 12.76 5.45 13.04L5.45 13.04Q6.08 12.60 6.08 12.87L6.08 12.87L6.40 12.23L6.28 11.65L5.66 11.46Q5.47 10.74 7.93 10.65L7.93 10.65Q8.56 11.23 9.37 11.18L9.37 11.18L9.26 11.41L9.14 11.27L8.70 11.55Q8.93 11.78 9.11 11.76L9.11 11.76ZM5.10 14.13L5.10 14.13Q6.31 15.19 5.55 15.57L5.55 15.57L5.55 15.93Q6.40 17.02 6.45 13.87L6.45 13.87Q5.91 13.08 5.91 12.97L5.91 12.97Q5.66 13.78 5.10 14.13ZM15.13 12.62L15.13 12.62Q16.26 12.46 15.31 11.72L15.31 11.72Q15.12 12.22 15.13 12.62ZM13.94 30.06Q12.62 30.22 11.60 29.64L11.60 29.64L11.95 28.83Q11.27 28.63 10.97 28.02L10.97 28.02Q11.25 26.81 11.78 26.05L11.78 26.05L11.60 25.88Q11.29 25.38 10.97 25.07L10.97 25.07Q11.85 22.50 9.26 22.55L9.26 22.55Q9.21 23.43 10.07 23.71L10.07 23.71Q9.74 24.15 9.26 24.26L9.26 24.26Q9.58 24.71 9.90 24.98L9.90 24.98Q9.70 25.40 9.37 25.51L9.37 25.51L9.37 25.79Q9.26 27 9.46 27.84L9.46 27.84Q8.79 28.62 8.91 29.46L8.91 29.46Q7.63 30.46 6.86 30.25L6.86 30.25Q6.49 30.87 6.13 31.06L6.13 31.06Q5.89 30.27 5.24 30.16L5.24 30.16Q4.85 31.27 4.89 32.13L4.89 32.13L5.78 32.22L6.05 32.33Q7.42 32.40 8.28 32.77L8.28 32.77Q8.91 32.50 9.46 32.68L9.46 32.68Q10.51 32.29 11.32 32.77L11.32 32.77L11.69 32.68Q13.08 32.19 14.27 32.50L14.27 32.50L14.99 31.52Q15.47 31.48 15.71 31.87L15.71 31.87Q15.68 31.15 14.94 30.45L14.94 30.45Q15.45 30.50 15.94 30.29L15.94 30.29L16.44 31.10Q16.03 33.19 17.07 32.82L17.07 32.82L17.10 31.52Q17.58 31.48 17.82 31.87L17.82 31.87Q17.77 30.90 16.49 29.99L16.49 29.99Q14.89 30.30 13.71 29.64L13.71 29.64L14.06 28.83Q13.38 28.63 13.08 28.02L13.08 28.02Q13.36 26.81 13.89 26.05L13.89 26.05L13.71 25.88Q13.43 25.44 13.15 25.14L13.15 25.14Q12.97 25.42 12.71 25.51L12.71 25.51L12.71 25.79Q12.60 27 12.80 27.84L12.80 27.84Q12.13 28.62 13.20 29.46L13.20 29.46Q13.57 29.83 13.94 30.06L13.94 30.06ZM2.29 14.13L2.29 14.13Q2.20 14.94 2.81 15.12L2.81 15.12L2.25 15.86Q4.29 17.02 4.34 13.87L4.34 13.87Q3.80 13.08 2.55 12.87L2.55 12.87Q3.18 13.68 2.29 14.13ZM13.03 12.62L13.03 12.62Q14.15 12.46 13.20 11.72L13.20 11.72Q13.01 12.22 13.03 12.62ZM7.03 11.27L6.59 11.55Q7.01 11.97 7.29 11.55L7.29 11.55L7.03 11.27ZM13.13 24.89L13.13 24.89Q13.36 24.21 13.41 23.71L13.41 23.71Q13.08 24.15 12.60 24.26L12.60 24.26Q12.87 24.64 13.13 24.89ZM13.15 25.14L13.15 25.14Q13.11 25.10 13.08 25.07L13.08 25.07Q13.11 24.98 13.13 24.89L13.13 24.89Q13.18 24.94 13.24 24.98L13.24 24.98Q13.20 25.07 13.15 25.14ZM27.35 8.81Q26.61 9.19 25.79 8.98L25.79 8.98Q24.13 9.46 22.75 9.09L22.75 9.09Q22.38 9.44 22.10 9.63L22.10 9.63L22.10 10.46Q22.89 11.55 23.94 10.93L23.94 10.93Q24.56 11.95 24.40 12.87L24.40 12.87Q24.61 13.08 24.68 13.32L24.68 13.32L25.22 13.50Q25.28 13.73 24.40 13.78L24.40 13.78Q24.57 14.54 25.22 14.71L25.22 14.71Q23.70 15.77 25.59 16.28L25.59 16.28Q25.38 16.80 24.94 17.02L24.94 17.02L25.05 17.38Q25.21 18.02 24.86 18.47L24.86 18.47L25.22 19.13Q24.33 19.86 24.94 20.69L24.94 20.69Q24.50 21.80 25.42 22.54L25.42 22.54Q25.07 22.94 24.94 23.27L24.94 23.27L24.86 23.64Q25.58 25.08 24.49 26.03L24.49 26.03Q25.10 26.88 24.57 27.60L24.57 27.60Q25.24 28.20 24.40 29.18L24.40 29.18Q24.61 29.69 24.57 30.09L24.57 30.09Q23.20 30.48 23.20 31.94L23.20 31.94Q23.55 31.99 23.85 31.75L23.85 31.75Q24.12 32.08 24.03 32.48L24.03 32.48Q24.80 32.59 25.42 32.40L25.42 32.40Q26.23 32.48 26.79 32.77L26.79 32.77Q27.74 32.41 28.55 32.77L28.55 32.77L29.00 32.48L29.46 31.57L29.29 31.38L28.44 30.01Q27.76 30.01 27.25 29.81L27.25 29.81Q27.63 28.60 26.70 28.44L26.70 28.44Q26.88 27.98 27.16 27.70L27.16 27.70Q26.98 26.77 27.44 26.03L27.44 26.03Q26.93 25.72 26.70 25.29L26.70 25.29Q28.35 25.40 27.53 24.01L27.53 24.01Q27.70 23.41 27.62 22.90L27.62 22.90Q26.72 23.22 26.42 22.36L26.42 22.36Q26.95 21.59 27.81 21.99L27.81 21.99L27.90 21.80L28.07 21.25L28.72 21.43L29.29 21.52Q29.88 20.87 30.48 21.43L30.48 21.43Q31.34 20.95 32.13 21.62L32.13 21.62Q32.47 21.29 32.87 21.25L32.87 21.25L33.52 21.52Q34.44 21.23 35.17 21.43L35.17 21.43Q35.72 21.13 36.28 21.25L36.28 21.25Q36.47 21.78 36.54 22.17L36.54 22.17Q37.60 22.31 37.93 23.19L37.93 23.19Q36.90 23.45 36.46 24.10L36.46 24.10Q37.62 24.50 37.02 25.40L37.02 25.40Q37.72 26.14 36.83 26.40L36.83 26.40L36.65 26.77Q37.35 27.54 36.83 28.34L36.83 28.34Q37.51 29.27 35.91 29.27L35.91 29.27Q35.88 30.66 34.52 30.83L34.52 30.83Q35.30 31.22 34.98 32.22L34.98 32.22Q36.32 32.08 37.28 32.48L37.28 32.48Q37.63 32.29 38.02 32.40L38.02 32.40Q38.23 32.04 38.58 31.94L38.58 31.94Q39.02 32.13 39.32 32.40L39.32 32.40Q40.29 31.69 41.34 31.75L41.34 31.75Q41.52 31.18 41.34 30.74L41.34 30.74Q39.96 30.74 39.67 29.64L39.67 29.64Q38.50 29.04 38.85 27.79L38.85 27.79L38.58 27.33L39.22 26.96Q38.25 25.59 39.32 25.86L39.32 25.86Q38.43 24.91 39.32 24.01L39.32 24.01Q38.81 23.45 38.30 23.19L38.30 23.19Q39.13 21.97 38.02 21.52L38.02 21.52L38.02 21.25Q38.64 21.16 38.95 20.78L38.95 20.78Q39.34 20.48 39.41 20.06L39.41 20.06L39.41 19.41Q38.81 18.72 39.32 18.02L39.32 18.02L39.22 17.84L39.04 17.28L39.41 16.91Q39.01 15.86 39.32 14.98L39.32 14.98Q39.01 14.75 38.85 14.43L38.85 14.43L39.50 13.69Q39.16 13.03 39.04 12.59L39.04 12.59Q39.59 12.45 39.87 12.02L39.87 12.02Q39.30 11.85 39.13 11.39L39.13 11.39L41.43 11.11L41.43 10.83Q40.69 10.63 40.69 9.26L40.69 9.26Q40.20 9.44 40.04 10.20L40.04 10.20Q38.90 9.35 38.02 9.83L38.02 9.83Q37.34 8.17 36.74 9.46L36.74 9.46L36.46 9.46Q35.95 9.09 35.46 8.98L35.46 8.98Q34.73 9.74 33.87 9.91L33.87 9.91L33.79 10.56Q35.12 10.69 35.54 11.76L35.54 11.76L35.81 11.85Q35.89 11.30 36.37 11.20L36.37 11.20L36.37 11.76Q36.51 12.38 36.46 12.87L36.46 12.87L36.28 13.24L36.65 13.97L36.46 14.98L36.54 15.26L36.46 16.28L36.65 16.45Q36.51 17.53 36.54 18.30L36.54 18.30L36.28 18.39Q35.98 18.54 35.72 18.58L35.72 18.58Q35.16 18.95 34.61 19.04L34.61 19.04Q34.33 18.65 33.98 18.47L33.98 18.47Q33.52 18.65 33.15 18.58L33.15 18.58Q32.47 19.32 31.68 18.95L31.68 18.95Q30.96 19.37 30.85 18.58L30.85 18.58L30.29 18.47Q29.79 19.00 29.18 19.04L29.18 19.04L29.09 18.84Q28.48 18.49 28.18 18.21L28.18 18.21Q27.58 17.75 26.98 17.93L26.98 17.93Q26.91 17.49 27.07 17.19L27.07 17.19Q26.82 16.73 26.51 16.54L26.51 16.54L26.88 16.17Q26.74 15.19 26.88 14.43L26.88 14.43Q27.62 14.45 28.07 13.97L28.07 13.97Q26.67 13.11 27.81 12.76L27.81 12.76Q27.14 11.99 29.46 10.74L29.46 10.74L29.46 10.46Q29.71 10.23 29.74 9.91L29.74 9.91Q29.53 9.63 29.46 9.35L29.46 9.35L29.29 9.26Q28.09 9.19 27.35 8.81L27.35 8.81ZM52.79 8.96L52.70 8.96Q52.61 9.07 52.52 9.05L52.52 9.05L51.13 9.40Q48.25 8.61 46.85 10.90L46.85 10.90L46.93 11.06L47.02 11.32Q47.71 11.57 48.16 12.02L48.16 12.02Q50.03 11.20 51.47 12.20L51.47 12.20L51.47 13.17Q51.57 13.29 51.56 13.43L51.56 13.43L51.47 14.04Q51.64 15.22 51.47 16.05L51.47 16.05L51.40 16.40Q51.61 17.10 51.64 17.63L51.64 17.63L51.56 18.16Q51.45 19.20 51.64 19.99L51.64 19.99L51.73 20.34L51.56 20.95L51.64 21.13L51.64 21.39Q51.64 21.83 51.56 22.10L51.56 22.10L51.64 22.36L51.73 22.62Q51.61 23.55 51.82 24.28L51.82 24.28Q51.56 24.73 51.47 25.07L51.47 25.07Q51.54 25.58 51.73 25.95L51.73 25.95Q51.64 26.09 51.56 26.12L51.56 26.12Q51.61 26.65 51.73 27.07L51.73 27.07L51.64 27.33Q51.61 28.28 51.47 28.92L51.47 28.92Q51.10 29.25 50.87 29.62L50.87 29.62Q49.76 29.27 49.03 29.88L49.03 29.88Q48.85 29.79 48.76 29.62L48.76 29.62L48.50 29.62L48.32 29.71L48.25 29.88Q47.32 30.08 46.76 30.50L46.76 30.50Q47.21 31.38 46.76 32.15L46.76 32.15L46.93 32.24Q47.95 32.29 48.59 32.68L48.59 32.68Q49.31 32.34 49.90 32.77L49.90 32.77Q51.64 32.26 53.23 32.68L53.23 32.68Q53.46 32.29 53.75 32.15L53.75 32.15L54.37 32.41Q55.16 32.10 55.93 32.41L55.93 32.41L56.20 32.24Q56.99 32.12 57.60 32.24L57.60 32.24Q58.39 31.96 59.08 32.06L59.08 32.06L59.26 31.97L59.26 31.18L58.73 30.83Q58.57 30.76 58.55 30.67L58.55 30.67Q57.88 30.13 57.52 29.71L57.52 29.71Q57.01 30.50 56.37 30.06L56.37 30.06L55.85 30.23L55.41 29.97Q55.09 28.95 54.11 28.56L54.11 28.56L54.02 28.04Q54.21 27.18 54.62 26.65L54.62 26.65L54.28 25.86Q54.46 24.84 54.19 24.01L54.19 24.01L54.54 23.75Q54.40 23.31 54.11 23.04L54.11 23.04L54.19 22.71L54.37 21.57Q54.19 20.18 54.54 19.11L54.54 19.11Q53.96 18.02 54.28 17.02L54.28 17.02Q54.16 16.17 54.37 15.52L54.37 15.52Q54.16 14.91 54.28 14.40L54.28 14.40Q53.65 13.43 54.28 12.55L54.28 12.55Q54.11 11.88 54.54 11.32L54.54 11.32Q55.58 11.64 56.20 10.97L56.20 10.97Q56.62 11.23 56.81 11.58L56.81 11.58Q57.80 10.95 58.82 11.06L58.82 11.06L58.82 10.72L58.55 10.11Q56.30 8.88 54.11 9.40L54.11 9.40Q53.46 9.09 52.96 8.96L52.96 8.96L52.88 8.96L52.96 8.96L52.79 8.96L52.88 8.96L52.70 8.96L52.79 8.96ZM73.25 8.86Q72.37 9.12 71.68 9.12L71.68 9.12L71.42 9.39Q70.98 9.40 70.73 9.46L70.73 9.46Q70.08 9.72 69.70 9.98L69.70 9.98Q69.15 10.09 68.75 10.25L68.75 10.25Q68.34 10.74 67.87 10.93L67.87 10.93Q67.57 11.97 67.69 12.76L67.69 12.76Q67.22 13.13 66.74 13.18L66.74 13.18L66.74 13.45Q66.74 14.45 66.92 15.10L66.92 15.10Q66.90 16.14 67.54 16.73L67.54 16.73Q67.80 18.07 68.91 18.30L68.91 18.30L68.91 18.74Q69.54 19.07 69.96 19.51L69.96 19.51Q70.73 19.58 71.24 19.95L71.24 19.95Q71.75 19.72 72.21 19.69L72.21 19.69Q72.62 20.23 72.72 20.81L72.72 20.81L72.98 20.90Q73.51 20.78 73.93 20.81L73.93 20.81Q74.21 20.97 74.37 21.16L74.37 21.16Q74.72 21.29 75.06 21.25L75.06 21.25Q76.43 21.88 77.75 21.85L77.75 21.85Q77.77 22.18 77.57 22.38L77.57 22.38Q78.57 22.68 78.61 23.59L78.61 23.59Q79.45 24.15 79.40 25.93L79.40 25.93Q79.17 26.42 79.14 26.88L79.14 26.88L78.79 27.05L78.43 27.23Q77.94 27.69 77.40 27.91L77.40 27.91Q77.20 28.39 76.71 28.44L76.71 28.44Q76.27 28.92 75.94 29.13L75.94 29.13L74.79 29.04Q73.56 29.64 72.54 28.86L72.54 28.86Q71.51 28.99 71.09 28.27L71.09 28.27Q70.28 28.21 69.70 28.00L69.70 28.00L69.17 27.91L69.17 27.47Q68.96 27.46 68.82 27.39L68.82 27.39Q68.64 27.93 68.04 27.65L68.04 27.65Q67.71 27.05 67.61 26.53L67.61 26.53Q68.26 26.35 68.48 25.84L68.48 25.84Q67.85 25.59 67.36 25.58L67.36 25.58Q67.48 25.26 67.69 25.05L67.69 25.05Q67.25 24.33 67.10 23.75L67.10 23.75Q66.57 23.31 66.06 23.68L66.06 23.68Q65.72 26.09 66.23 27.83L66.23 27.83L65.79 28.69L65.88 28.95L65.88 29.48Q65.99 29.57 65.97 29.64L65.97 29.64L66.15 31.55Q66.57 31.80 66.92 31.82L66.92 31.82Q67.01 31.66 67.10 31.64L67.10 31.64Q67.29 30.46 67.96 29.72L67.96 29.72L68.04 29.72L67.96 29.72L68.04 29.72L68.04 30.16L68.75 30.16Q69.05 30.52 69.17 30.78L69.17 30.78Q69.68 30.92 69.87 31.29L69.87 31.29Q70.51 31.34 70.82 31.82L70.82 31.82Q71.84 31.99 72.46 32.50L72.46 32.50Q73.53 32.27 74.46 32.59L74.46 32.59L74.79 32.33Q75.78 32.61 76.62 32.24L76.62 32.24L77.31 32.33L77.57 31.99Q78.70 31.96 79.22 31.03L79.22 31.03Q80.26 30.74 80.61 29.81L80.61 29.81L81.12 29.64Q81.23 29.00 81.12 28.51L81.12 28.51L81.30 28.35L81.39 28.09L81.56 27.91L81.83 27.83Q82.13 27.16 82.51 26.79L82.51 26.79Q82.32 26.33 82.34 25.93L82.34 25.93L82.42 25.66Q81.91 24.45 82.07 23.41L82.07 23.41L81.83 23.06L81.39 22.29Q80.28 21.66 80.26 20.90L80.26 20.90Q79.10 20.16 78.61 19.07L78.61 19.07Q78.19 19.11 77.92 19.25L77.92 19.25Q77.27 19.13 76.89 19.25L76.89 19.25Q76.69 19.11 76.62 18.91L76.62 18.91Q75.73 18.77 75.06 18.91L75.06 18.91L74.88 18.74L74.64 18.65Q73.92 18.53 73.42 18.21L73.42 18.21L73.16 18.21L72.90 18.21Q72.30 18 71.86 17.95L71.86 17.95Q71.88 17.44 71.51 17.17L71.51 17.17Q70.35 17.26 69.52 16.65L69.52 16.65Q69.36 16.05 69.52 15.61L69.52 15.61Q68.33 14.59 69.43 13.45L69.43 13.45Q69.71 12.38 70.73 12.06L70.73 12.06Q70.89 11.55 71.42 11.55L71.42 11.55Q71.63 11.87 71.86 12.06L71.86 12.06L71.86 11.55Q72.63 11.34 73.34 11.55L73.34 11.55Q74.92 11.29 76.10 11.81L76.10 11.81L76.27 12.23Q77.08 12.25 77.48 12.85L77.48 12.85Q78.77 12.83 78.52 14.06L78.52 14.06L79.56 14.48Q78.98 17.40 81.65 17.09L81.65 17.09L81.83 16.65Q81.70 15.80 82.16 15.28L82.16 15.28Q81.81 14.96 81.65 14.66L81.65 14.66Q81.81 14.31 81.98 14.06L81.98 14.06Q81.23 13.32 81.65 12.50L81.65 12.50L81.30 12.15Q81.33 11.44 81.74 10.93L81.74 10.93Q80.98 10.35 80.77 9.72L80.77 9.72Q79.28 9.14 79.14 10.07L79.14 10.07L78.79 10.07Q77.99 9.58 77.22 9.63L77.22 9.63Q76.64 9.04 75.94 9.04L75.94 9.04Q75.74 9.46 75.41 9.63L75.41 9.63L75.23 9.12Q74.07 9.16 73.25 8.86L73.25 8.86ZM116.28 8.96L116.19 8.96Q116.10 9.07 116.02 9.05L116.02 9.05L114.63 9.40Q111.74 8.61 110.34 10.90L110.34 10.90L110.43 11.06L110.51 11.32Q111.20 11.57 111.66 12.02L111.66 12.02Q113.52 11.20 114.96 12.20L114.96 12.20L114.96 13.17Q115.07 13.29 115.05 13.43L115.05 13.43L114.96 14.04Q115.14 15.22 114.96 16.05L114.96 16.05L114.89 16.40Q115.10 17.10 115.14 17.63L115.14 17.63L115.05 18.16Q114.94 19.20 115.14 19.99L115.14 19.99L115.22 20.34L115.05 20.95L115.14 21.13L115.14 21.39Q115.14 21.83 115.05 22.10L115.05 22.10L115.14 22.36L115.22 22.62Q115.10 23.55 115.31 24.28L115.31 24.28Q115.05 24.73 114.96 25.07L114.96 25.07Q115.03 25.58 115.22 25.95L115.22 25.95Q115.14 26.09 115.05 26.12L115.05 26.12Q115.10 26.65 115.22 27.07L115.22 27.07L115.14 27.33Q115.10 28.28 114.96 28.92L114.96 28.92Q114.59 29.25 114.36 29.62L114.36 29.62Q113.26 29.27 112.52 29.88L112.52 29.88Q112.34 29.79 112.25 29.62L112.25 29.62L111.99 29.62L111.81 29.71L111.74 29.88Q110.81 30.08 110.25 30.50L110.25 30.50Q110.71 31.38 110.25 32.15L110.25 32.15L110.43 32.24Q111.45 32.29 112.08 32.68L112.08 32.68Q112.80 32.34 113.40 32.77L113.40 32.77Q115.14 32.26 116.72 32.68L116.72 32.68Q116.95 32.29 117.25 32.15L117.25 32.15L117.86 32.41Q118.65 32.10 119.43 32.41L119.43 32.41L119.69 32.24Q120.48 32.12 121.10 32.24L121.10 32.24Q121.89 31.96 122.57 32.06L122.57 32.06L122.75 31.97L122.75 31.18L122.22 30.83Q122.06 30.76 122.04 30.67L122.04 30.67Q121.38 30.13 121.01 29.71L121.01 29.71Q120.50 30.50 119.87 30.06L119.87 30.06L119.34 30.23L118.90 29.97Q118.58 28.95 117.60 28.56L117.60 28.56L117.51 28.04Q117.70 27.18 118.11 26.65L118.11 26.65L117.77 25.86Q117.95 24.84 117.69 24.01L117.69 24.01L118.04 23.75Q117.90 23.31 117.60 23.04L117.60 23.04L117.69 22.71L117.86 21.57Q117.69 20.18 118.04 19.11L118.04 19.11Q117.46 18.02 117.77 17.02L117.77 17.02Q117.65 16.17 117.86 15.52L117.86 15.52Q117.65 14.91 117.77 14.40L117.77 14.40Q117.14 13.43 117.77 12.55L117.77 12.55Q117.60 11.88 118.04 11.32L118.04 11.32Q119.07 11.64 119.69 10.97L119.69 10.97Q120.11 11.23 120.30 11.58L120.30 11.58Q121.29 10.95 122.31 11.06L122.31 11.06L122.31 10.72L122.04 10.11Q119.79 8.88 117.60 9.40L117.60 9.40Q116.95 9.09 116.46 8.96L116.46 8.96L116.37 8.96L116.46 8.96L116.28 8.96L116.37 8.96L116.19 8.96L116.28 8.96ZM136.74 8.86Q135.86 9.12 135.18 9.12L135.18 9.12L134.91 9.39Q134.47 9.40 134.23 9.46L134.23 9.46Q133.58 9.72 133.19 9.98L133.19 9.98Q132.64 10.09 132.24 10.25L132.24 10.25Q131.84 10.74 131.36 10.93L131.36 10.93Q131.06 11.97 131.19 12.76L131.19 12.76Q130.71 13.13 130.24 13.18L130.24 13.18L130.24 13.45Q130.24 14.45 130.41 15.10L130.41 15.10Q130.39 16.14 131.03 16.73L131.03 16.73Q131.29 18.07 132.40 18.30L132.40 18.30L132.40 18.74Q133.03 19.07 133.45 19.51L133.45 19.51Q134.23 19.58 134.74 19.95L134.74 19.95Q135.25 19.72 135.70 19.69L135.70 19.69Q136.11 20.23 136.21 20.81L136.21 20.81L136.48 20.90Q137.00 20.78 137.43 20.81L137.43 20.81Q137.71 20.97 137.87 21.16L137.87 21.16Q138.22 21.29 138.55 21.25L138.55 21.25Q139.92 21.88 141.24 21.85L141.24 21.85Q141.26 22.18 141.06 22.38L141.06 22.38Q142.07 22.68 142.10 23.59L142.10 23.59Q142.95 24.15 142.89 25.93L142.89 25.93Q142.66 26.42 142.63 26.88L142.63 26.88L142.28 27.05L141.93 27.23Q141.43 27.69 140.89 27.91L140.89 27.91Q140.70 28.39 140.20 28.44L140.20 28.44Q139.76 28.92 139.43 29.13L139.43 29.13L138.29 29.04Q137.06 29.64 136.04 28.86L136.04 28.86Q135 28.99 134.58 28.27L134.58 28.27Q133.77 28.21 133.19 28.00L133.19 28.00L132.66 27.91L132.66 27.47Q132.45 27.46 132.31 27.39L132.31 27.39Q132.13 27.93 131.54 27.65L131.54 27.65Q131.20 27.05 131.10 26.53L131.10 26.53Q131.75 26.35 131.98 25.84L131.98 25.84Q131.34 25.59 130.85 25.58L130.85 25.58Q130.97 25.26 131.19 25.05L131.19 25.05Q130.75 24.33 130.59 23.75L130.59 23.75Q130.06 23.31 129.55 23.68L129.55 23.68Q129.22 26.09 129.73 27.83L129.73 27.83L129.29 28.69L129.38 28.95L129.38 29.48Q129.48 29.57 129.46 29.64L129.46 29.64L129.64 31.55Q130.06 31.80 130.41 31.82L130.41 31.82Q130.50 31.66 130.59 31.64L130.59 31.64Q130.78 30.46 131.45 29.72L131.45 29.72L131.54 29.72L131.45 29.72L131.54 29.72L131.54 30.16L132.24 30.16Q132.54 30.52 132.66 30.78L132.66 30.78Q133.17 30.92 133.37 31.29L133.37 31.29Q134.00 31.34 134.31 31.82L134.31 31.82Q135.33 31.99 135.95 32.50L135.95 32.50Q137.02 32.27 137.95 32.59L137.95 32.59L138.29 32.33Q139.27 32.61 140.12 32.24L140.12 32.24L140.80 32.33L141.06 31.99Q142.19 31.96 142.72 31.03L142.72 31.03Q143.75 30.74 144.11 29.81L144.11 29.81L144.62 29.64Q144.72 29.00 144.62 28.51L144.62 28.51L144.79 28.35L144.88 28.09L145.05 27.91L145.32 27.83Q145.62 27.16 146.00 26.79L146.00 26.79Q145.81 26.33 145.83 25.93L145.83 25.93L145.92 25.66Q145.41 24.45 145.56 23.41L145.56 23.41L145.32 23.06L144.88 22.29Q143.77 21.66 143.75 20.90L143.75 20.90Q142.59 20.16 142.10 19.07L142.10 19.07Q141.68 19.11 141.42 19.25L141.42 19.25Q140.77 19.13 140.38 19.25L140.38 19.25Q140.19 19.11 140.12 18.91L140.12 18.91Q139.22 18.77 138.55 18.91L138.55 18.91L138.38 18.74L138.13 18.65Q137.41 18.53 136.92 18.21L136.92 18.21L136.65 18.21L136.39 18.21Q135.79 18 135.35 17.95L135.35 17.95Q135.37 17.44 135 17.17L135 17.17Q133.84 17.26 133.01 16.65L133.01 16.65Q132.86 16.05 133.01 15.61L133.01 15.61Q131.82 14.59 132.93 13.45L132.93 13.45Q133.21 12.38 134.23 12.06L134.23 12.06Q134.38 11.55 134.91 11.55L134.91 11.55Q135.12 11.87 135.35 12.06L135.35 12.06L135.35 11.55Q136.13 11.34 136.83 11.55L136.83 11.55Q138.41 11.29 139.59 11.81L139.59 11.81L139.76 12.23Q140.57 12.25 140.98 12.85L140.98 12.85Q142.26 12.83 142.01 14.06L142.01 14.06L143.05 14.48Q142.47 17.40 145.14 17.09L145.14 17.09L145.32 16.65Q145.20 15.80 145.65 15.28L145.65 15.28Q145.30 14.96 145.14 14.66L145.14 14.66Q145.30 14.31 145.48 14.06L145.48 14.06Q144.72 13.32 145.14 12.50L145.14 12.50L144.79 12.15Q144.83 11.44 145.23 10.93L145.23 10.93Q144.47 10.35 144.26 9.72L144.26 9.72Q142.77 9.14 142.63 10.07L142.63 10.07L142.28 10.07Q141.49 9.58 140.71 9.63L140.71 9.63Q140.13 9.04 139.43 9.04L139.43 9.04Q139.24 9.46 138.90 9.63L138.90 9.63L138.73 9.12Q137.57 9.16 136.74 8.86L136.74 8.86ZM172.27 10.83L172.27 10.83L172.44 10.20Q173.00 10.71 172.27 10.83ZM174.23 11.36L174.23 11.36L174.23 11.09Q174.57 11.23 174.23 11.36ZM188.86 17.19L189.30 17.54Q189.32 17.51 189.95 17.28L189.95 17.28Q189.91 16.42 190.09 15.45L190.09 15.45Q189.37 15.13 190.21 12.88L190.21 12.88L189.98 11.92Q190.30 9.35 188.89 9.95L188.89 9.95Q188.47 9.56 188.07 9.21L188.07 9.21Q187.08 9.21 189.32 10.79L189.32 10.79L187.88 10.48L188.14 11.09Q188.68 11.37 189 11.48L189 11.48Q189.14 12.32 188.49 12.08L188.49 12.08Q188.46 12.46 189.11 12.67L189.11 12.67Q188.53 13.17 189.04 13.43L189.04 13.43Q189.18 14.66 188.53 14.89L188.53 14.89Q189.32 15.94 188.86 17.19L188.86 17.19ZM182.60 12.80L181.51 13.15Q181.79 13.69 182.30 13.78L182.30 13.78Q182.23 14.22 182.04 14.50L182.04 14.50L182.51 14.61L182.50 15.17Q182.23 15.61 181.95 15.93L181.95 15.93L182.74 16.31Q181.93 17.23 181.86 18.09L181.86 18.09Q181.67 18.42 182.25 18.86L182.25 18.86L181.92 19.65Q181.76 19.67 181.60 20.32L181.60 20.32Q181.92 20.72 181.78 21.13L181.78 21.13Q181.76 21.55 181.86 21.83L181.86 21.83L182.34 22.20Q183.13 20.69 182.69 19.60L182.69 19.60L182.97 18.62Q182.62 18.26 182.25 18.09L182.25 18.09L183.06 17.72Q182.20 16.88 183.23 16.47L183.23 16.47L183.32 16.01Q182.95 15.50 183.23 15.12L183.23 15.12L183.23 14.85L183.06 14.77Q182.78 14.36 182.51 14.13L182.51 14.13Q183.08 14.10 183.32 13.69L183.32 13.69Q182.83 13.18 182.60 12.80L182.60 12.80ZM178.45 11.76L178.44 11.81Q178.70 12.83 177.82 13.15L177.82 13.15Q178.10 13.69 178.61 13.78L178.61 13.78Q178.54 14.22 178.35 14.50L178.35 14.50L178.44 14.85L178.61 15.12Q178.54 15.61 178.26 15.93L178.26 15.93L178.26 16.21Q178.59 17.23 178.52 18.09L178.52 18.09Q178.33 18.42 178.08 18.62L178.08 18.62L178.08 18.97Q178.42 19.67 178.26 20.32L178.26 20.32Q178.58 20.72 178.44 21.13L178.44 21.13Q178.42 21.55 178.52 21.83L178.52 21.83L180.23 22.20Q181.02 20.69 180.58 19.60L180.58 19.60L180.86 18.62Q180.37 18.40 180.14 18.09L180.14 18.09L180.95 17.72Q180.09 16.88 181.13 16.47L181.13 16.47L181.21 16.01Q180.23 15.40 181.13 15.12L181.13 15.12L181.13 14.85L180.95 14.77Q180.67 14.36 180.40 14.13L180.40 14.13Q180.97 14.10 181.21 13.69L181.21 13.69Q180.72 13.18 180.49 12.80L180.49 12.80L181.48 12.25Q181.30 11.83 181.56 11.46L181.56 11.46L181.85 11.36L182.37 11.55Q183.57 11.32 184.43 11.55L184.43 11.55L184.97 11.09Q185.52 11.37 185.87 11.64L185.87 11.64Q185.98 12.32 185.33 12.08L185.33 12.08Q185.29 12.46 185.06 12.71L185.06 12.71Q185.36 13.17 185.87 13.43L185.87 13.43Q186.01 14.66 185.41 15.49L185.41 15.49Q185.85 16.31 185.70 17.19L185.70 17.19L186.13 17.54Q187.12 17.54 187.84 17.28L187.84 17.28Q187.24 16.42 188.02 15.84L188.02 15.84Q187.26 15.13 188.10 12.88L188.10 12.88L187.84 12.53Q188.19 9.35 186.49 10.28L186.49 10.28Q186.36 9.56 185.96 9.21L185.96 9.21Q184.97 9.21 185.06 10.48L185.06 10.48L184.71 10.48Q184.83 9.74 184.52 9.21L184.52 9.21L183.90 9.30Q183.29 9.05 182.74 9.04L182.74 9.04Q182.39 9.40 181.93 9.58L181.93 9.58Q181.51 9.32 181.30 9.04L181.30 9.04Q180.47 9.44 179.68 9.21L179.68 9.21Q179.60 10.27 178.08 9.21L178.08 9.21Q177.43 9.54 177.01 9.04L177.01 9.04Q175.80 9.18 174.96 9.04L174.96 9.04Q171.28 9.44 172.00 11.00L172.00 11.00Q171.23 11.14 171.28 11.90L171.28 11.90Q171.70 12.34 171.91 12.62L171.91 12.62Q172.92 12.92 173.43 12.45L173.43 12.45Q173.81 11.46 174.57 11.57L174.57 11.57Q174.29 11.79 174.32 12.32L174.32 12.32Q174.64 12.76 174.80 13.04L174.80 13.04Q175.43 12.60 175.43 12.87L175.43 12.87L175.75 12.23L175.62 11.65L175.01 11.46Q174.81 10.74 177.28 10.65L177.28 10.65Q177.91 11.23 178.72 11.18L178.72 11.18L178.61 11.41L178.49 11.27L178.05 11.55Q178.28 11.78 178.45 11.76L178.45 11.76ZM174.45 14.13L174.45 14.13Q175.66 15.19 174.90 15.57L174.90 15.57L174.90 15.93Q175.75 17.02 175.80 13.87L175.80 13.87Q175.25 13.08 175.25 12.97L175.25 12.97Q175.01 13.78 174.45 14.13ZM184.48 12.62L184.48 12.62Q185.61 12.46 184.66 11.72L184.66 11.72Q184.46 12.22 184.48 12.62ZM183.29 30.06Q181.97 30.22 180.95 29.64L180.95 29.64L181.30 28.83Q180.62 28.63 180.32 28.02L180.32 28.02Q180.60 26.81 181.13 26.05L181.13 26.05L180.95 25.88Q180.63 25.38 180.32 25.07L180.32 25.07Q181.20 22.50 178.61 22.55L178.61 22.55Q178.56 23.43 179.42 23.71L179.42 23.71Q179.09 24.15 178.61 24.26L178.61 24.26Q178.93 24.71 179.24 24.98L179.24 24.98Q179.05 25.40 178.72 25.51L178.72 25.51L178.72 25.79Q178.61 27 178.80 27.84L178.80 27.84Q178.14 28.62 178.26 29.46L178.26 29.46Q176.98 30.46 176.20 30.25L176.20 30.25Q175.83 30.87 175.48 31.06L175.48 31.06Q175.24 30.27 174.59 30.16L174.59 30.16Q174.20 31.27 174.23 32.13L174.23 32.13L175.13 32.22L175.39 32.33Q176.77 32.40 177.63 32.77L177.63 32.77Q178.26 32.50 178.80 32.68L178.80 32.68Q179.86 32.29 180.67 32.77L180.67 32.77L181.04 32.68Q182.43 32.19 183.62 32.50L183.62 32.50L184.34 31.52Q184.82 31.48 185.06 31.87L185.06 31.87Q185.03 31.15 184.29 30.45L184.29 30.45Q184.80 30.50 185.29 30.29L185.29 30.29L185.78 31.10Q185.38 33.19 186.42 32.82L186.42 32.82L186.45 31.52Q186.93 31.48 187.17 31.87L187.17 31.87Q187.12 30.90 185.84 29.99L185.84 29.99Q184.24 30.30 183.06 29.64L183.06 29.64L183.41 28.83Q182.72 28.63 182.43 28.02L182.43 28.02Q182.71 26.81 183.23 26.05L183.23 26.05L183.06 25.88Q182.78 25.44 182.50 25.14L182.50 25.14Q182.32 25.42 182.06 25.51L182.06 25.51L182.06 25.79Q181.95 27 182.14 27.84L182.14 27.84Q181.48 28.62 182.55 29.46L182.55 29.46Q182.92 29.83 183.29 30.06L183.29 30.06ZM171.63 14.13L171.63 14.13Q171.54 14.94 172.16 15.12L172.16 15.12L171.60 15.86Q173.64 17.02 173.69 13.87L173.69 13.87Q173.14 13.08 171.90 12.87L171.90 12.87Q172.53 13.68 171.63 14.13ZM182.37 12.62L182.37 12.62Q183.50 12.46 182.55 11.72L182.55 11.72Q182.36 12.22 182.37 12.62ZM176.38 11.27L175.94 11.55Q176.36 11.97 176.64 11.55L176.64 11.55L176.38 11.27ZM182.48 24.89L182.48 24.89Q182.71 24.21 182.76 23.71L182.76 23.71Q182.43 24.15 181.95 24.26L181.95 24.26Q182.21 24.64 182.48 24.89ZM182.50 25.14L182.50 25.14Q182.46 25.10 182.43 25.07L182.43 25.07Q182.46 24.98 182.48 24.89L182.48 24.89Q182.53 24.94 182.58 24.98L182.58 24.98Q182.55 25.07 182.50 25.14ZM196.70 8.81Q195.96 9.19 195.13 8.98L195.13 8.98Q193.48 9.46 192.09 9.09L192.09 9.09Q191.72 9.44 191.44 9.63L191.44 9.63L191.44 10.46Q192.23 11.55 193.29 10.93L193.29 10.93Q193.90 11.95 193.75 12.87L193.75 12.87Q193.96 13.08 194.03 13.32L194.03 13.32L194.57 13.50Q194.63 13.73 193.75 13.78L193.75 13.78Q193.92 14.54 194.57 14.71L194.57 14.71Q193.04 15.77 194.94 16.28L194.94 16.28Q194.73 16.80 194.29 17.02L194.29 17.02L194.40 17.38Q194.55 18.02 194.20 18.47L194.20 18.47L194.57 19.13Q193.68 19.86 194.29 20.69L194.29 20.69Q193.85 21.80 194.77 22.54L194.77 22.54Q194.41 22.94 194.29 23.27L194.29 23.27L194.20 23.64Q194.92 25.08 193.83 26.03L193.83 26.03Q194.45 26.88 193.92 27.60L193.92 27.60Q194.59 28.20 193.75 29.18L193.75 29.18Q193.96 29.69 193.92 30.09L193.92 30.09Q192.55 30.48 192.55 31.94L192.55 31.94Q192.90 31.99 193.20 31.75L193.20 31.75Q193.46 32.08 193.38 32.48L193.38 32.48Q194.15 32.59 194.77 32.40L194.77 32.40Q195.57 32.48 196.14 32.77L196.14 32.77Q197.09 32.41 197.89 32.77L197.89 32.77L198.35 32.48L198.81 31.57L198.63 31.38L197.79 30.01Q197.10 30.01 196.59 29.81L196.59 29.81Q196.98 28.60 196.05 28.44L196.05 28.44Q196.22 27.98 196.51 27.70L196.51 27.70Q196.33 26.77 196.79 26.03L196.79 26.03Q196.28 25.72 196.05 25.29L196.05 25.29Q197.70 25.40 196.88 24.01L196.88 24.01Q197.05 23.41 196.96 22.90L196.96 22.90Q196.07 23.22 195.77 22.36L195.77 22.36Q196.29 21.59 197.16 21.99L197.16 21.99L197.24 21.80L197.42 21.25L198.07 21.43L198.63 21.52Q199.23 20.87 199.83 21.43L199.83 21.43Q200.69 20.95 201.48 21.62L201.48 21.62Q201.81 21.29 202.22 21.25L202.22 21.25L202.87 21.52Q203.78 21.23 204.52 21.43L204.52 21.43Q205.07 21.13 205.63 21.25L205.63 21.25Q205.82 21.78 205.89 22.17L205.89 22.17Q206.95 22.31 207.28 23.19L207.28 23.19Q206.24 23.45 205.80 24.10L205.80 24.10Q206.96 24.50 206.37 25.40L206.37 25.40Q207.07 26.14 206.17 26.40L206.17 26.40L206.00 26.77Q206.70 27.54 206.17 28.34L206.17 28.34Q206.86 29.27 205.26 29.27L205.26 29.27Q205.22 30.66 203.87 30.83L203.87 30.83Q204.64 31.22 204.33 32.22L204.33 32.22Q205.66 32.08 206.63 32.48L206.63 32.48Q206.98 32.29 207.37 32.40L207.37 32.40Q207.58 32.04 207.93 31.94L207.93 31.94Q208.37 32.13 208.67 32.40L208.67 32.40Q209.64 31.69 210.69 31.75L210.69 31.75Q210.87 31.18 210.69 30.74L210.69 30.74Q209.30 30.74 209.02 29.64L209.02 29.64Q207.84 29.04 208.20 27.79L208.20 27.79L207.93 27.33L208.56 26.96Q207.60 25.59 208.67 25.86L208.67 25.86Q207.77 24.91 208.67 24.01L208.67 24.01Q208.16 23.45 207.65 23.19L207.65 23.19Q208.48 21.97 207.37 21.52L207.37 21.52L207.37 21.25Q207.98 21.16 208.30 20.78L208.30 20.78Q208.69 20.48 208.76 20.06L208.76 20.06L208.76 19.41Q208.16 18.72 208.67 18.02L208.67 18.02L208.56 17.84L208.39 17.28L208.76 16.91Q208.35 15.86 208.67 14.98L208.67 14.98Q208.35 14.75 208.20 14.43L208.20 14.43L208.85 13.69Q208.51 13.03 208.39 12.59L208.39 12.59Q208.93 12.45 209.21 12.02L209.21 12.02Q208.65 11.85 208.48 11.39L208.48 11.39L210.78 11.11L210.78 10.83Q210.04 10.63 210.04 9.26L210.04 9.26Q209.55 9.44 209.39 10.20L209.39 10.20Q208.25 9.35 207.37 9.83L207.37 9.83Q206.68 8.17 206.09 9.46L206.09 9.46L205.80 9.46Q205.29 9.09 204.80 8.98L204.80 8.98Q204.08 9.74 203.22 9.91L203.22 9.91L203.13 10.56Q204.47 10.69 204.89 11.76L204.89 11.76L205.15 11.85Q205.24 11.30 205.72 11.20L205.72 11.20L205.72 11.76Q205.86 12.38 205.80 12.87L205.80 12.87L205.63 13.24L206.00 13.97L205.80 14.98L205.89 15.26L205.80 16.28L206.00 16.45Q205.86 17.53 205.89 18.30L205.89 18.30L205.63 18.39Q205.33 18.54 205.07 18.58L205.07 18.58Q204.50 18.95 203.96 19.04L203.96 19.04Q203.68 18.65 203.33 18.47L203.33 18.47Q202.87 18.65 202.50 18.58L202.50 18.58Q201.81 19.32 201.02 18.95L201.02 18.95Q200.30 19.37 200.20 18.58L200.20 18.58L199.63 18.47Q199.14 19.00 198.53 19.04L198.53 19.04L198.44 18.84Q197.82 18.49 197.53 18.21L197.53 18.21Q196.93 17.75 196.33 17.93L196.33 17.93Q196.26 17.49 196.42 17.19L196.42 17.19Q196.17 16.73 195.86 16.54L195.86 16.54L196.22 16.17Q196.08 15.19 196.22 14.43L196.22 14.43Q196.96 14.45 197.42 13.97L197.42 13.97Q196.01 13.11 197.16 12.76L197.16 12.76Q196.49 11.99 198.81 10.74L198.81 10.74L198.81 10.46Q199.05 10.23 199.09 9.91L199.09 9.91Q198.88 9.63 198.81 9.35L198.81 9.35L198.63 9.26Q197.44 9.19 196.70 8.81L196.70 8.81ZM220.59 9.84Q220.17 10.28 220.15 10.76L220.15 10.76Q219.23 10.34 218.41 10.76L218.41 10.76Q217.85 9.69 217.05 10.65L217.05 10.65Q215.95 10.30 215.24 11.02L215.24 11.02L214.96 10.93Q214.52 10.85 214.24 10.65L214.24 10.65Q213.29 10.72 212.61 10.56L212.61 10.56L212.24 11.02Q212.41 11.67 212.70 12.11L212.70 12.11Q213.71 11.92 214.59 12.29L214.59 12.29Q215.51 11.92 216.23 12.29L216.23 12.29L216.14 12.57Q216.60 13.39 216.23 14.12L216.23 14.12Q216.53 14.64 216.42 15.21L216.42 15.21Q216.86 15.38 217.05 15.75L217.05 15.75Q217.23 17.42 216.51 18.47L216.51 18.47Q216.69 19.02 216.33 19.37L216.33 19.37Q217.02 20.48 216.51 21.64L216.51 21.64L216.88 21.83Q216.93 22.54 216.77 23.10L216.77 23.10Q217.11 24.71 216.69 26.00L216.69 26.00Q216.90 26.88 216.69 27.54L216.69 27.54Q217.11 28.20 216.77 28.90L216.77 28.90Q217.05 29.30 217.42 29.44L217.42 29.44Q216.77 29.92 216.33 30.09L216.33 30.09Q216.56 30.74 216.14 31.18L216.14 31.18Q215.02 30.85 214.51 31.90L214.51 31.90Q214.59 31.01 213.79 30.90L213.79 30.90Q213.28 31.27 213.33 31.82L213.33 31.82Q212.71 32.27 213.15 32.82L213.15 32.82Q214.33 33.59 215.33 32.82L215.33 32.82Q215.82 32.94 216.33 32.82L216.33 32.82Q216.58 33.21 216.60 33.54L216.60 33.54L216.88 33.54L217.86 33.54L218.51 33.45Q219.20 33.03 219.87 33.08L219.87 33.08Q220.03 32.78 220.24 32.63L220.24 32.63Q220.32 32.01 220.50 31.62L220.50 31.62Q219.85 31.22 219.69 30.53L219.69 30.53Q218.90 29.97 219.23 29.09L219.23 29.09Q218.81 28.25 219.06 27.46L219.06 27.46Q218.76 27.12 218.69 26.82L218.69 26.82Q219.09 26.54 219.32 26.28L219.32 26.28Q218.55 26.14 219.15 24.91L219.15 24.91Q217.83 23.64 219.32 23.19L219.32 23.19Q219.43 22.59 219.87 22.38L219.87 22.38Q220.54 22.50 221.04 22.92L221.04 22.92Q222.21 22.31 223.31 22.38L223.31 22.38Q224.89 23.10 223.59 23.64L223.59 23.64Q224.77 24.59 223.31 25.00L223.31 25.00Q224.35 25.91 224.77 26.82L224.77 26.82Q225.56 26.30 225.86 25.65L225.86 25.65Q225.12 24.50 225.95 23.91L225.95 23.91L225.95 23.47Q225.69 22.64 225.95 22.01L225.95 22.01Q225.51 20.50 226.32 19.46L226.32 19.46Q225.74 19.04 225.49 18.65L225.49 18.65Q225.97 17.63 225.60 16.73L225.60 16.73L223.86 16.84L223.59 17.93Q225.88 18.70 223.68 18.65L223.68 18.65L223.59 19.20L224.14 19.37Q223.49 20.29 222.42 20.11L222.42 20.11Q221.59 20.53 221.04 19.74L221.04 19.74Q219.80 20.06 218.87 19.74L218.87 19.74L218.87 19.46L218.95 19.20Q218.76 18.33 218.78 17.74L218.78 17.74Q219.23 17.60 219.50 17.38L219.50 17.38Q218.62 16.58 219.06 15.75L219.06 15.75Q218.74 14.85 219.50 14.57L219.50 14.57L219.41 13.83Q218.21 13.31 219.60 12.02L219.60 12.02L220.32 12.02Q221.63 12.60 222.77 12.02L222.77 12.02Q223.45 12.22 224.05 12.20L224.05 12.20Q224.30 11.81 224.51 11.65L224.51 11.65Q224.67 12.60 225.95 12.20L225.95 12.20Q226.05 11.67 226.23 11.39L226.23 11.39Q226.93 11.79 227.58 11.57L227.58 11.57Q228.01 12.48 227.95 13.29L227.95 13.29Q228.48 13.34 228.87 13.20L228.87 13.20Q228.76 13.68 228.87 14.03L228.87 14.03Q227.09 15.29 229.22 15.75L229.22 15.75Q229.13 17.56 230.85 17.10L230.85 17.10Q230.78 16.49 230.68 16.10L230.68 16.10Q231.63 15.56 230.85 14.75L230.85 14.75Q231.66 13.85 230.40 13.29L230.40 13.29Q231.22 12.55 230.22 12.11L230.22 12.11Q230.94 11.62 230.40 10.93L230.40 10.93L230.22 10.76L230.13 10.56Q229.41 10.63 228.76 10.30L228.76 10.30L227.32 10.21L226.58 10.02Q225.74 10.28 225.14 9.93L225.14 9.93Q224.46 9.97 223.96 9.84L223.96 9.84Q222.13 10.27 220.59 9.84L220.59 9.84ZM214.42 10.11L214.42 10.65Q215.56 10.35 214.42 10.11L214.42 10.11ZM229.13 25.10L229.04 25.10Q228.29 27.49 230.22 27.63L230.22 27.63L230.40 28.00L230.22 28.09L229.13 28.46L228.67 29.18Q229.22 30.71 227.13 30.81L227.13 30.81Q227.07 30.59 226.86 30.53L226.86 30.53Q227.11 31.15 226.49 31.27L226.49 31.27Q226.04 30.62 225.40 30.36L225.40 30.36Q225.46 31.22 223.14 30.90L223.14 30.90L222.87 30.53L222.77 30.99Q221.64 31.03 220.87 31.45L220.87 31.45Q220.83 32.13 221.04 32.63L221.04 32.63Q221.89 32.82 222.33 33.36L222.33 33.36Q222.70 33.21 222.87 32.91L222.87 32.91Q224.42 32.94 225.05 34.17L225.05 34.17Q226.13 32.84 227.41 33.71L227.41 33.71Q228.45 33.47 229.31 33.71L229.31 33.71Q230.41 33.40 231.13 31.82L231.13 31.82Q230.63 30.22 231.22 28.90L231.22 28.90Q230.80 27.42 231.22 26.19L231.22 26.19L230.94 26.00L230.77 25.91Q229.76 25.61 229.13 25.10L229.13 25.10L229.04 25.10L229.13 25.10ZM230.13 26.63Q231.15 26.77 230.22 27L230.22 27L230.13 26.63ZM229.41 29.09Q230.71 29.64 229.22 29.81L229.22 29.81L229.41 29.09ZM220.24 32.99L220.15 33.36Q220.76 33.28 220.24 32.99L220.24 32.99ZM256.50 8.82L256.41 9.11Q254.51 8.72 254.76 10.56L254.76 10.56L254.95 10.65Q255.62 10.65 256.04 10.74L256.04 10.74Q256.01 11.43 256.13 11.85L256.13 11.85Q255.27 12.71 256.41 13.31L256.41 13.31Q256.22 14.75 256.69 15.86L256.69 15.86Q257.40 15.82 257.96 16.14L257.96 16.14Q257.43 16.98 256.59 16.68L256.59 16.68L256.69 16.88L257.70 17.96Q257.55 19.23 257.04 20.07L257.04 20.07L257.04 20.44Q257.63 21.38 257.70 22.36L257.70 22.36Q258.36 22.34 258.79 22.54L258.79 22.54Q258.36 22.90 257.87 22.62L257.87 22.62L257.50 22.90Q257.34 24.19 258.06 25.01L258.06 25.01Q257.94 25.66 258.15 26.19L258.15 26.19L257.70 26.56L257.78 27.02Q257.84 27.16 257.78 27.30L257.78 27.30L257.78 27.56Q257.99 28.63 257.87 29.39L257.87 29.39Q258.50 29.64 258.42 30.22L258.42 30.22Q260.17 33.82 260.61 31.68L260.61 31.68Q261.09 31.25 261.44 31.04L261.44 31.04Q261.33 30.08 261.72 29.30L261.72 29.30Q261.60 28.34 261.81 27.65L261.81 27.65Q261.69 27.28 261.53 27.02L261.53 27.02Q261.81 26.24 261.44 25.73L261.44 25.73L261.72 25.47Q262.67 25.49 263.18 24.82L263.18 24.82Q263.20 23.98 263.36 23.36L263.36 23.36L263.36 23.08L263.27 22.73Q263.78 21.80 263.46 20.90L263.46 20.90Q263.83 19.97 263.81 19.25L263.81 19.25L264.38 19.07Q264.71 19.65 264.73 20.25L264.73 20.25Q265.38 20.85 265.64 21.45L265.64 21.45Q265.57 21.97 265.38 22.36L265.38 22.36Q266.03 22.82 265.38 23.27L265.38 23.27L265.38 23.91Q265.57 25.26 266.47 25.82L266.47 25.82L266.29 26.10L266.55 27.56L266.38 28.30L266.66 28.85L266.55 29.13Q266.80 30.09 266.84 30.76L266.84 30.76L267.38 31.31L267.38 31.87L267.57 31.96Q268.14 32.36 268.66 32.50L268.66 32.50Q269.17 32.57 269.58 32.50L269.58 32.50Q269.61 31.39 270.21 30.76L270.21 30.76Q270.28 30.04 270.69 29.48L270.69 29.48Q270.62 28.97 270.86 28.56L270.86 28.56Q270.65 28.05 270.95 27.65L270.95 27.65Q270.70 26.53 271.41 25.73L271.41 25.73Q271.32 24.73 271.78 24.10L271.78 24.10Q271.51 23.50 271.49 22.99L271.49 22.99Q271.88 22.66 272.06 22.27L272.06 22.27Q271.63 21.45 271.86 20.71L271.86 20.71Q271.00 20.36 272.06 19.16L272.06 19.16Q271.35 19.16 271.23 18.51L271.23 18.51Q271.93 18.37 272.23 17.88L272.23 17.88L272.23 17.33Q269.74 16.37 269.95 18.05L269.95 18.05Q270.09 18.83 269.40 19.07L269.40 19.07Q269.84 20.16 268.75 20.71L268.75 20.71Q268.15 20.13 267.47 20.07L267.47 20.07Q267.64 19.53 268.03 19.25L268.03 19.25Q267.64 18.67 267.12 18.51L267.12 18.51Q267.06 17.81 267.57 17.51L267.57 17.51Q266.73 15.86 266.92 14.13L266.92 14.13Q266.27 13.85 265.75 13.85L265.75 13.85Q266.78 12.69 265.38 12.20L265.38 12.20L265.29 11.57Q266.54 10.44 268.03 10.48L268.03 10.48Q268.15 10.07 268.49 10.02L268.49 10.02Q268.86 10.65 269.49 10.83L269.49 10.83Q269.42 11.50 269.75 11.94L269.75 11.94L270.21 11.48Q270.79 12.32 271.78 12.30L271.78 12.30Q271.60 13.08 270.58 13.11L270.58 13.11Q270.69 13.75 271.04 14.13L271.04 14.13Q270.46 14.40 270.40 14.94L270.40 14.94L271.86 15.40Q270.62 15.79 270.58 16.51L270.58 16.51Q271.05 16.56 271.32 16.22L271.32 16.22Q272.11 16.56 272.78 16.42L272.78 16.42Q272.39 14.52 273.43 13.39L273.43 13.39Q272.72 12.60 273.52 12.11L273.52 12.11Q273.38 10.99 274.52 10.83L274.52 10.83L274.52 10.56L274.34 10.37L274.34 10.11Q273.74 9.79 273.60 9.19L273.60 9.19L273.23 8.91L272.60 8.91Q272.06 10.02 271.49 8.91L271.49 8.91Q270.97 9.14 270.49 9.11L270.49 9.11Q269.26 10.07 268.03 9.65L268.03 9.65Q267.05 10.44 265.83 8.91L265.83 8.91Q264.60 9.19 263.64 8.91L263.64 8.91L263.36 8.82L263.09 8.82Q262.27 9.33 261.44 9.46L261.44 9.46Q261.21 9.93 261.26 10.28L261.26 10.28Q263.94 10.83 261.98 12.85L261.98 12.85Q262.86 14.71 261.16 15.68L261.16 15.68Q261.42 16.22 261.81 16.51L261.81 16.51Q261.51 17.35 261.16 17.88L261.16 17.88Q261.21 18.53 261.07 18.97L261.07 18.97Q261.83 19.71 260.81 20.16L260.81 20.16L260.53 20.25Q261.05 21.45 259.89 21.71L259.89 21.71Q259.66 21.23 259.24 21.16L259.24 21.16Q258.13 21.04 258.98 20.34L258.98 20.34Q259.33 20.36 259.07 18.97L259.07 18.97L259.15 18.97L259.07 18.97L259.15 18.97Q258.79 18.11 258.06 17.88L258.06 17.88Q258.52 17.38 258.98 17.14L258.98 17.14Q258.40 15.94 258.42 15.05L258.42 15.05Q257.71 15.15 257.24 14.94L257.24 14.94Q257.59 14.34 257.96 14.13L257.96 14.13Q257.52 13.80 257.61 13.31L257.61 13.31Q258.50 13.34 258.87 12.66L258.87 12.66Q257.91 12.48 257.50 11.85L257.50 11.85L257.61 11.57Q259.00 11.64 258.52 10.65L258.52 10.65Q259.35 10.14 259.07 9.28L259.07 9.28L258.52 9Q257.34 9.18 256.50 8.82L256.50 8.82ZM266.75 11.39Q266.41 11.48 266.10 11.48L266.10 11.48Q266.47 12.15 266.92 11.39L266.92 11.39L266.75 11.39L266.92 11.39L266.75 11.39ZM265.29 17.70Q265.68 18.53 264.92 17.96L264.92 17.96L265.29 17.70ZM264.18 17.96L264.46 17.96Q264.32 18.28 264.18 17.96L264.18 17.96ZM284.29 8.46Q283.71 9.49 284.10 10.41L284.10 10.41L284.10 10.67Q283.94 11.00 283.90 11.32L283.90 11.32L283.41 11.06L283.22 11.43Q283.46 12.43 283.11 13.17L283.11 13.17L282.52 14.19Q282.36 15.36 281.83 16.14L281.83 16.14Q282.11 17.07 282.04 17.79L282.04 17.79L281.94 17.98L281.83 18.16Q281.74 18.26 281.64 18.26L281.64 18.26Q281.39 19.02 280.95 19.46L280.95 19.46Q281.13 20.30 280.86 20.94L280.86 20.94L280.46 21.30Q280.41 22.43 279.97 23.24L279.97 23.24L279.97 23.63Q280.00 24.66 279.97 25.28L279.97 25.28L279.88 25.84Q278.79 26.61 279.19 28.05L279.19 28.05Q278.05 28.69 277.52 29.62L277.52 29.62Q276.49 29.60 275.75 30.18L275.75 30.18Q275.71 31.61 276.54 32.57L276.54 32.57Q278.65 31.87 280.46 32.77L280.46 32.77L280.95 32.48Q281.92 32.47 282.62 32.12L282.62 32.12L283.41 31.94Q283.71 30.67 282.73 30.18L282.73 30.18Q282.36 29.23 281.55 28.79L281.55 28.79Q281.81 27.91 281.64 27.23L281.64 27.23Q282.23 27.16 282.62 26.86L282.62 26.86Q282.20 25.89 283.01 25.28L283.01 25.28Q283.90 25.17 284.48 25.00L284.48 25.00Q285.03 25.05 285.57 24.91L285.57 24.91Q286.05 25.00 286.35 24.91L286.35 24.91L286.65 24.91Q287.05 25.05 287.44 25.00L287.44 25.00Q287.98 24.82 288.42 24.82L288.42 24.82Q288.84 25.15 289.30 25.28L289.30 25.28Q289.58 25.82 289.41 26.30L289.41 26.30Q290.04 26.79 289.60 27.49L289.60 27.49L289.88 27.77Q290.65 27.95 291.27 27.86L291.27 27.86Q290.72 28.46 289.99 28.05L289.99 28.05L289.60 28.51Q289.53 29.76 288.32 29.62L288.32 29.62L288.32 30.73Q289.20 30.74 289.00 31.66L289.00 31.66Q289.44 31.94 289.60 32.31L289.60 32.31Q290.25 32.47 290.67 32.12L290.67 32.12Q292.83 32.66 294.31 31.57L294.31 31.57Q295.03 31.75 295.58 31.46L295.58 31.46Q295.68 30.78 295.68 30.36L295.68 30.36L295.58 29.72Q293.57 29.72 293.22 28.60L293.22 28.60Q292.17 28.30 292.54 27.40L292.54 27.40Q291.81 27.09 291.36 26.75L291.36 26.75Q291.53 26.24 291.85 26.02L291.85 26.02Q291.18 25.10 291.66 24.08L291.66 24.08Q291.48 23.99 291.46 23.89L291.46 23.89L291.06 23.15Q290.90 22.22 290.48 21.59L290.48 21.59L290.78 21.22Q290.34 20.81 289.88 20.57L289.88 20.57Q289.90 19.95 290.18 19.55L290.18 19.55Q289.71 18.63 289.79 17.79L289.79 17.79L289.30 17.24L289.41 16.51Q289.00 16.35 288.70 16.03L288.70 16.03L288.91 15.49L288.81 15.21L288.70 15.03L288.70 14.38L288.51 13.36Q288.12 13.25 287.93 13.08L287.93 13.08Q288.18 12.20 287.33 11.88L287.33 11.88Q287.40 11.46 287.74 11.32L287.74 11.32L287.74 10.95Q287.14 9.95 286.95 9.11L286.95 9.11Q285.64 8.30 284.29 8.46L284.29 8.46ZM285.57 12.80Q286.19 14.08 285.96 15.49L285.96 15.49Q286.31 15.64 286.56 15.86L286.56 15.86Q286.12 16.37 285.96 16.77L285.96 16.77Q286.79 17.30 286.84 18.07L286.84 18.07Q287.54 18.39 287.93 18.81L287.93 18.81Q287.17 19.09 287.24 19.74L287.24 19.74Q287.86 19.69 288.21 20.00L288.21 20.00Q288.28 20.51 287.74 20.65L287.74 20.65Q288 21.90 288.51 22.78L288.51 22.78Q287.79 23.08 287.44 22.50L287.44 22.50Q286.68 23.08 286.15 22.41L286.15 22.41Q284.61 23.04 284.59 21.76L284.59 21.76Q283.61 21.76 283.01 21.22L283.01 21.22Q283.29 20.00 284.29 19.46L284.29 19.46Q283.87 18.62 284.59 18.16L284.59 18.16Q284.36 17.23 284.89 16.51L284.89 16.51Q284.29 16.63 284.59 15.57L284.59 15.57Q284.96 15.57 285.17 15.29L285.17 15.29Q284.47 13.96 285.57 13.82L285.57 13.82Q285.05 13.24 285.57 12.80L285.57 12.80ZM286.35 14.47L286.65 14.47Q286.49 15.21 286.35 14.47L286.35 14.47ZM284.40 22.61L284.68 22.61Q284.55 23.01 284.40 22.61L284.40 22.61ZM299.87 8.89Q299.64 9.07 299.43 9.09L299.43 9.09Q299.20 9.56 298.90 9.83L298.90 9.83Q298.18 9.83 297.74 10.14L297.74 10.14L297.79 11.57Q298.14 11.69 298.51 11.65L298.51 11.65Q299.72 11.83 300.50 11.76L300.50 11.76Q301.27 12.52 301.97 12.78L301.97 12.78Q302.15 13.41 301.82 13.54L301.82 13.54Q302.54 13.99 302.50 14.77L302.50 14.77L302.68 14.85L303.22 15.01L303.33 15.38L303.52 15.63Q304.03 16.56 304.12 17.33L304.12 17.33Q304.68 18 304.52 18.69L304.52 18.69Q304.44 19.27 304.56 19.67L304.56 19.67Q305.09 20.00 305.58 20.00L305.58 20.00L305.51 20.55Q306.04 22.29 305.44 23.98L305.44 23.98L305.47 24.70Q306.12 25.29 305.68 25.96L305.68 25.96Q306.32 26.28 306.70 26.56L306.70 26.56Q305.89 26.70 305.82 27.12L305.82 27.12Q306.58 27.14 308.41 26.96L308.41 26.96Q308.48 26.37 308.94 26.21L308.94 26.21Q308.95 24.86 306.21 25.31L306.21 25.31L306.19 25.05Q308.09 24.86 308.67 24.42L308.67 24.42Q308.72 23.43 308.36 22.71L308.36 22.71Q308.79 22.31 308.95 21.87L308.95 21.87Q308.65 20.48 309.52 19.69L309.52 19.69L309.50 19.23Q308.65 18.21 307.07 18.77L307.07 18.77Q306.77 18.25 306.25 18.35L306.25 18.35Q306.32 17.70 306.35 17.09L306.35 17.09Q305.67 16.61 305.70 15.84L305.70 15.84Q304.88 15.33 305.46 14.50L305.46 14.50Q304.56 14.12 304.79 13.17L304.79 13.17Q304.28 12.92 303.70 13.11L303.70 13.11Q303.82 11.43 305.07 11.25L305.07 11.25Q304.17 10.13 304.58 9.46L304.58 9.46L303.03 8.96Q302.48 9.16 302.24 9.63L302.24 9.63L301.31 9.30Q300.43 9.77 299.87 8.89L299.87 8.89ZM311.41 8.96Q309.59 9.21 308.95 9.95L308.95 9.95L309.15 11.02Q310.08 10.92 311.48 11.11L311.48 11.11Q310.39 11.81 310.39 12.34L310.39 12.34L310.04 12.62Q310.46 13.83 310.36 14.78L310.36 14.78Q309.69 14.70 309.20 14.92L309.20 14.92Q309.11 15.77 308.88 16.37L308.88 16.37Q309.04 17.30 308.48 17.91L308.48 17.91Q309.55 18.16 310.20 17.95L310.20 17.95Q310.57 17.14 310.59 16.49L310.59 16.49L310.87 16.40L310.96 16.21L310.94 15.93L311.03 15.66L311.10 15.38L311.19 15.03L310.99 14.85L311.70 14.20Q311.84 13.43 312.21 12.92L312.21 12.92Q311.99 12.20 312.24 12.36L312.24 12.36L312.79 12.25Q312.59 11.71 312.66 11.34L312.66 11.34Q313.12 11.48 313.22 11.95L313.22 11.95Q313.66 11.72 313.65 11.30L313.65 11.30Q316.28 11.99 315.42 9.21L315.42 9.21Q314.02 9.16 312.70 9.19L312.70 9.19Q312.03 9.26 311.41 8.96L311.41 8.96ZM306.56 27.46Q306.19 27.81 305.77 27.95L305.77 27.95L306.25 29.29L305.63 29.48Q305.51 29.50 305.44 29.76L305.44 29.76L305.17 29.78Q304.89 29.88 304.63 29.88L304.63 29.88L304.47 30.08Q303.87 30.18 303.21 30.48L303.21 30.48L302.84 30.22Q302.40 31.45 302.91 32.54L302.91 32.54Q303.89 32.33 304.70 32.48L304.70 32.48Q304.96 32.31 305.23 32.29L305.23 32.29L306.97 32.68Q307.51 32.48 307.95 32.47L307.95 32.47Q308.41 32.54 308.67 32.80L308.67 32.80L308.87 32.71Q309.41 32.61 309.85 32.77L309.85 32.77L310.39 32.75Q311.20 32.64 311.84 32.78L311.84 32.78Q312.24 32.45 312.66 32.40L312.66 32.40L312.91 31.68L312.91 31.59L312.91 31.68L312.91 31.59L312.91 31.41L312.91 31.59L312.91 31.41Q312.26 31.01 311.85 30.27L311.85 30.27Q311.04 30.55 310.32 30.23L310.32 30.23Q309.41 30.43 309.13 29.55L309.13 29.55Q308.72 29.48 308.67 29.57L308.67 29.57Q309.32 28.44 308.97 27.58L308.97 27.58Q308.32 27.39 306.56 27.46L306.56 27.46ZM320.66 27.30Q320.12 27.90 319.97 28.51L319.97 28.51Q318.99 29.20 319.10 30.30L319.10 30.30Q318.92 30.52 318.92 30.78L318.92 30.78L319.03 30.88Q319.31 31.24 319.57 31.41L319.57 31.41Q320.10 32.22 320.78 32.57L320.78 32.57Q321.45 32.50 321.94 32.63L321.94 32.63Q323.44 32.20 322.42 31.20L322.42 31.20Q323.35 31.38 323.86 31.18L323.86 31.18Q324.07 30.53 324.11 30.13L324.11 30.13Q324.21 29.55 323.86 29.09L323.86 29.09Q324.04 28.42 323.46 28.16L323.46 28.16Q323.17 27.72 322.70 27.88L322.70 27.88Q322.01 27.28 321.42 27.70L321.42 27.70L321.01 27.70Q320.75 27.62 320.66 27.30L320.66 27.30ZM322.29 27.81Q322.54 28.16 322.19 28.05L322.19 28.05L322.29 27.81ZM321.89 27.98Q322.07 28.27 322.37 28.23L322.37 28.23Q321.57 29.14 321.89 27.98L321.89 27.98ZM329.10 32.80Q329.64 32.20 329.78 31.59L329.78 31.59Q330.77 30.90 330.66 29.79L330.66 29.79Q330.84 29.58 330.84 29.32L330.84 29.32L329.84 29.51Q330.45 28.86 330.19 28.69L330.19 28.69Q329.66 27.88 328.97 27.53L328.97 27.53Q328.31 27.60 327.81 27.47L327.81 27.47Q327.27 27.95 326.71 28.11L326.71 28.11Q326.41 28.72 325.90 28.92L325.90 28.92Q325.69 29.57 325.65 29.97L325.65 29.97Q325.55 30.55 325.90 31.01L325.90 31.01Q325.72 31.68 326.30 31.94L326.30 31.94Q326.58 32.38 327.06 32.22L327.06 32.22Q327.74 32.82 328.34 32.40L328.34 32.40L328.75 32.40Q329.01 32.48 329.10 32.80L329.10 32.80ZM328.71 28.88Q327.88 27.70 329.06 28.05L329.06 28.05L328.71 28.88ZM326.25 29.81Q326.07 29.53 325.78 29.57L325.78 29.57Q326.57 28.65 326.25 29.81L326.25 29.81ZM333.39 27.54Q333.05 28.18 333.30 28.55L333.30 28.55Q332.31 29.23 332.42 30.34L332.42 30.34Q332.24 30.55 332.24 30.81L332.24 30.81L332.35 30.92Q332.63 31.27 332.89 31.45L332.89 31.45Q333.42 32.26 334.11 32.61L334.11 32.61Q334.78 32.54 335.27 32.66L335.27 32.66Q335.81 32.19 336.38 32.03L336.38 32.03Q336.67 31.41 337.18 31.22L337.18 31.22Q337.39 30.57 337.43 30.16L337.43 30.16Q337.54 29.58 337.18 29.13L337.18 29.13Q337.36 28.46 336.48 28.79L336.48 28.79Q336.50 27.76 336.02 27.91L336.02 27.91Q335.30 27.84 335.32 27.25L335.32 27.25L334.34 27.74Q334.07 27.65 333.39 27.54L333.39 27.54ZM333.93 30.30Q334.18 30.66 333.83 30.55L333.83 30.55L333.93 30.30ZM332.95 30.29Q333.12 30.57 333.42 30.53L333.42 30.53Q332.63 31.45 332.95 30.29L332.95 30.29Z"/></svg>